<svg width="84" height="76" viewBox="0 0 84 76" fill="none" xmlns="http://www.w3.org/2000/svg">
<g clip-path="url(#clip0_422_496)">
<path d="M39.8149 29.3908C37.2372 29.598 34.7338 29.1361 32.2077 29.2003C31.3787 29.221 30.76 29.4799 30.2383 30.0806C29.698 30.6999 29.1722 31.3357 28.6051 31.9323C27.3802 33.2226 25.8254 33.5934 24.2355 32.7649C22.0413 31.6216 20.2287 30.0371 19.3214 27.6179C18.6409 25.8014 19.0471 23.9745 20.5133 22.678C21.4598 21.8412 22.4888 21.0955 23.4869 20.3147C25.3119 18.8876 26.8193 17.1809 27.9308 15.1407C29.6424 11.9986 32.154 9.68507 35.2637 8.00529C35.8762 7.67389 36.07 7.38599 35.7855 6.66727C35.3112 5.46802 34.9668 4.21492 34.6204 2.97011C34.3605 2.03805 34.41 1.08321 35.1606 0.3997C35.9071 -0.281738 36.7547 0.0393042 37.5507 0.43284C40.0025 1.64451 42.1203 3.31186 44.0835 5.19669C44.3206 5.42246 44.4732 5.76628 44.9661 5.84085C44.764 5.29611 44.7846 4.78037 44.8032 4.2667C44.8341 3.38643 45.4012 2.91626 46.2157 3.2228C50.8865 4.97921 55.0747 7.4357 58.2565 11.4249C60.0753 13.7053 61.4508 16.1929 62.4695 18.9249C63.1005 20.6191 63.1891 22.3921 63.5521 24.1216C63.8697 25.6378 63.8243 27.1933 63.7542 28.7301C63.6758 30.4596 63.5356 32.1912 63.3314 33.9082C62.9004 37.5163 61.659 40.9131 60.5599 44.3493C59.6175 47.2946 58.2524 50.0577 57.0976 52.9118C56.8728 53.469 56.6357 53.9475 57.0419 54.5357C57.3657 55.0038 57.1739 55.5444 56.7821 55.8323C56.0934 56.3377 56.5037 56.667 56.8543 57.044C58.8051 59.1442 61.0631 60.9814 62.5478 63.4855C63.3459 64.8298 63.7624 66.2879 62.9809 67.8061C62.6942 68.3633 62.6757 68.6325 63.3335 68.9557C64.7254 69.6392 65.1544 71.4784 64.9523 72.6715C64.6079 74.7075 63.783 75.5422 61.9952 75.7845C59.2278 76.1615 56.4439 75.9337 53.6683 75.944C44.6403 75.9772 35.6102 76.0186 26.5842 75.8985C24.1138 75.8653 23.0291 74.5584 22.9219 72.3628C22.8456 70.797 23.2477 69.5273 24.7262 68.7775C24.8892 68.6947 25.0129 68.6636 24.8417 68.442C22.7033 65.6955 24.2437 63.5642 26.0254 61.4971C27.2812 60.041 28.5824 58.6243 29.8506 57.1786C30.2136 56.7643 30.5043 56.3915 29.8692 55.8592C29.2753 55.36 29.5908 54.7262 30.0445 54.2685C30.4177 53.8936 30.36 53.7217 29.9579 53.4152C27.4936 51.5428 27.1761 48.9206 27.6112 46.1244C28.1762 42.4976 30.3476 39.7201 32.6428 37.0461C34.7482 34.5938 36.9897 32.2719 39.4128 30.1303C39.5839 29.9791 39.7901 29.8299 39.8169 29.3908H39.8149ZM27.3307 30.7019C27.3967 30.6315 27.4627 30.559 27.5307 30.4886C28.2772 29.7202 29.0237 28.9538 29.7702 28.1854C29.8548 28.1336 29.9393 28.0797 30.0218 28.028C30.1703 27.9845 30.3435 27.9783 30.4115 27.7981C30.6033 27.709 30.892 27.8602 30.9972 27.5578C31.5581 27.3942 32.1272 27.3424 32.7149 27.3341C34.4904 27.3072 36.2185 27.7566 37.9961 27.7856C39.9675 27.8188 41.1532 26.9509 41.9141 25.1883C42.3781 24.1175 42.7349 22.9555 43.6834 22.1477C44.2134 21.6962 44.8011 21.5906 45.3909 21.8764C45.9208 22.1332 46.0693 22.6365 46.0858 23.2538C46.1291 24.9045 45.6321 26.371 44.7846 27.7463C40.9346 31.0085 37.3444 34.5379 34.0718 38.3842C32.616 40.095 31.2117 41.8535 30.2919 43.9392C29.4197 45.9173 29.0217 47.9202 29.7455 50.0515C30.3971 51.9756 31.5107 52.8559 33.4759 52.771C35.7133 52.6736 37.9466 52.4872 40.184 52.3775C43.2628 52.2263 46.3312 52.5867 49.4079 52.6239C50.5875 52.6384 51.7959 52.6509 52.9692 52.8145C55.0747 53.1086 55.1448 53.1127 55.6417 51.1554C53.757 51.1534 51.8825 51.172 50.0121 50.9607C49.113 50.8592 48.7934 50.474 49.2203 49.7118C50.6308 47.1931 51.8371 44.5792 52.8847 41.8908C54.5344 37.6572 55.8253 33.3386 55.9408 28.7446C56.0212 25.5093 55.6273 22.3507 54.3055 19.3743C52.5362 15.3913 49.7255 12.4336 45.6053 10.8719C44.7042 10.5301 44.2979 10.0455 44.7145 9.12583C44.9042 8.70537 44.6733 8.44232 44.4732 8.21242C42.275 5.6855 39.8025 3.48585 36.8495 1.86614C36.2907 1.55959 36.1484 1.67973 36.1566 2.28453C36.1752 3.78825 36.8805 5.10556 37.2826 6.50157C37.7981 8.28284 37.8064 8.49203 36.2144 9.37024C33.1872 11.0397 30.7002 13.2207 29.197 16.4187C28.3968 18.1233 27.1245 19.4427 25.7223 20.6771C24.3551 21.8785 22.794 22.8395 21.5238 24.1547C20.7649 24.9418 20.5257 25.8283 20.8762 26.8846C21.2412 27.9824 21.8331 28.9165 22.7115 29.6663C22.7239 29.9335 22.86 30.0764 23.1302 30.0785C23.2044 30.1406 23.2786 30.2048 23.3529 30.267C23.5941 30.6191 23.9653 30.7786 24.3324 30.9505C25.2727 31.5864 26.2007 31.6733 27.1121 30.8946C27.1864 30.8304 27.2606 30.7682 27.3348 30.704L27.3307 30.7019ZM54.089 54.4881C52.8991 53.9806 51.6082 54.167 50.3916 54.1152C46.8385 53.964 43.2772 54.0676 39.718 54.0717C38.0744 53.8832 36.4453 54.1981 34.8183 54.3182C33.9976 54.3803 33.1006 54.2726 32.319 54.6682C32.0881 54.7842 31.5849 54.72 31.6942 55.1591C31.7581 55.418 32.0448 55.6293 32.4056 55.6562C34.1275 55.7909 35.8473 56.0187 37.5713 56.0808C39.6953 56.1575 41.8234 56.1285 43.9494 56.0974C47.354 56.0477 50.771 56.3211 54.1549 55.6997C54.5983 55.6189 55.1345 55.6355 55.0912 55.01C55.0478 54.399 54.5612 54.399 54.089 54.4881ZM46.49 7.26172C46.2322 8.7468 46.6343 9.64986 48.1768 10.3624C51.7031 11.9904 54.0993 14.8797 55.6562 18.3988C57.3863 22.3113 57.8173 26.4207 57.4317 30.7019C57.1492 33.8212 56.5058 36.8224 55.4726 39.7408C54.4003 42.771 53.2105 45.764 51.6701 48.5954C51.2927 49.2913 51.3834 49.5378 52.2186 49.4922C53.2455 49.4363 54.2828 49.4114 55.3056 49.5046C56.1923 49.5854 56.6192 49.2789 56.9718 48.4545C58.4524 45.0059 59.7969 41.518 60.6239 37.8456C60.9765 36.2218 61.2342 34.5834 61.5229 32.9492C62.2344 28.9145 62.1478 24.9232 61.1229 20.992C59.3845 14.3184 55.2706 9.50487 49.2429 6.29652C48.3686 5.83049 47.5087 5.29611 46.49 5.13455V7.26379V7.26172ZM62.0942 70.0078C61.0961 69.5108 60.0258 69.9271 59.001 69.7572C58.7494 69.488 58.4174 69.6081 58.1266 69.606C47.7953 69.5936 37.464 69.5915 27.1328 69.5915C26.8255 69.5915 26.5141 69.6226 26.213 69.6827C25.1779 69.8898 24.2602 71.118 24.4231 72.2075C24.5963 73.3591 25.1593 74.2808 26.6255 74.2725C38.1569 74.1938 49.6884 74.1379 61.2198 74.1172C62.3024 74.1172 62.8633 73.6947 63.117 72.7025C63.418 71.5281 63.0283 70.4925 62.0921 70.0058L62.0942 70.0078ZM28.7763 68.0547C33.0676 68.063 37.3589 68.0837 41.6502 68.0775C47.5561 68.0692 53.46 68.0381 59.366 68.0174C59.5845 67.9718 59.799 67.9097 60.0197 67.8869C61.2177 67.7585 61.4611 67.4851 61.4879 66.2941C61.525 64.5812 60.4568 63.4689 59.3783 62.3753C57.9369 60.9151 56.4274 59.5212 55.2623 57.8124C54.9963 57.4209 54.6602 57.3319 54.2147 57.3526C52.0763 57.452 49.9358 57.5307 47.7953 57.6156C45.1063 57.6156 42.4152 57.6198 39.7262 57.6198C38.1878 57.5783 36.6433 57.6239 35.1153 57.4727C33.5357 57.3174 31.9664 56.8555 31.1085 58.8439C30.8879 59.3534 30.3724 59.7407 29.9661 60.157C28.8258 61.3294 27.6792 62.5017 26.7348 63.8397C26.2316 64.5501 25.6501 65.2958 26.0068 66.2962C26.5574 67.8372 27.009 68.1292 28.7763 68.0547ZM44.5124 23.3677C43.6319 24.5089 43.3556 25.8987 42.708 27.1166C44.1268 26.2529 44.4361 24.8528 44.5124 23.3677Z" fill="#211C17"/>
<path d="M22.7093 29.6643C21.8308 28.9145 21.2369 27.9804 20.874 26.8826C20.5234 25.8263 20.7626 24.9377 21.5215 24.1527C22.7918 22.8375 24.3528 21.8764 25.72 20.6751C27.1223 19.4427 28.3946 18.1213 29.1947 16.4167C30.6959 13.2187 33.1849 11.0376 36.2121 9.36822C37.8041 8.49002 37.7959 8.28082 37.2803 6.49955C36.8761 5.10354 36.173 3.7883 36.1544 2.28251C36.1462 1.67771 36.2884 1.55758 36.8473 1.86412C39.8023 3.48383 42.2727 5.68141 44.471 8.2104C44.671 8.44031 44.902 8.70335 44.7122 9.12381C44.2957 10.0414 44.6999 10.526 45.6031 10.8699C49.7232 12.4316 52.536 15.3893 54.3032 19.3723C55.6251 22.3487 56.0169 25.5073 55.9385 28.7426C55.8251 33.3366 54.5321 37.6551 52.8824 41.8888C51.8349 44.5772 50.6285 47.1911 49.218 49.7098C48.7911 50.472 49.1108 50.8593 50.0099 50.9587C51.8802 51.1679 53.7547 51.1513 55.6395 51.1534C55.1425 53.1107 55.0724 53.1066 52.967 52.8125C51.7936 52.6488 50.5852 52.6343 49.4057 52.6219C46.329 52.5846 43.2605 52.2242 40.1817 52.3754C37.9443 52.4852 35.711 52.6716 33.4736 52.769C31.5084 52.8539 30.3949 51.9736 29.7432 50.0494C29.0194 47.9181 29.4174 45.9152 30.2897 43.9372C31.2094 41.8515 32.6137 40.093 34.0696 38.3821C37.3422 34.5359 40.9344 31.0065 44.7824 27.7443C44.9143 28.0052 44.7803 28.2061 44.6318 28.4008C43.3574 30.0558 42.0872 31.7107 40.5839 33.1771C37.7361 35.9567 34.9975 38.842 32.7065 42.1145C31.2156 44.2417 30.3062 46.5615 30.7825 49.2437C31.0011 50.474 31.9641 51.3005 32.4446 52.3879C32.292 52.3941 32.1394 52.4024 31.9415 52.4106C32.1704 52.6426 32.3085 52.537 32.4384 52.3796C33.9417 52.3402 35.4615 52.5101 36.9999 52.1062C35.4347 51.2093 34.68 49.8444 34.515 48.2102C34.2263 45.3519 34.781 42.6613 36.5132 40.3022C38.7259 37.2906 41.2829 34.5338 43.1904 31.2985C43.8791 30.1303 44.8731 29.1361 45.2298 27.7753C45.4361 27.6987 45.4464 27.533 45.4216 27.3507C45.4567 27.3176 45.4897 27.2824 45.5247 27.2492C45.502 27.2513 45.4691 27.2472 45.4587 27.2596C45.4381 27.2824 45.4299 27.3155 45.4154 27.3445C45.2443 27.4253 45.201 27.5765 45.1989 27.7484C45.0587 27.7484 44.9205 27.7443 44.7803 27.7422C45.6278 26.3669 46.1248 24.9004 46.0815 23.2497C46.065 22.6304 45.9186 22.1291 45.3866 21.8723C44.7968 21.5865 44.2112 21.6921 43.6791 22.1436C42.7285 22.9514 42.3717 24.1134 41.9098 25.1842C41.1468 26.9448 39.9632 27.8147 37.9918 27.7815C36.2142 27.7525 34.4861 27.3031 32.7106 27.33C32.1229 27.3383 31.5538 27.3921 30.9929 27.5537L30.9846 27.5475C30.898 27.2762 30.7475 27.1871 30.4464 27.2534C29.5226 27.4543 28.708 27.8271 28.11 28.5893C27.9512 28.7012 27.7698 28.7985 27.8275 29.0429C27.8337 29.0636 27.8873 29.0968 27.9059 29.0885C28.1492 28.9911 28.0708 28.7654 28.0997 28.5831C28.7122 28.697 29.0895 27.8747 29.7474 28.1668L29.7638 28.1834C29.0174 28.9518 28.2709 29.7181 27.5244 30.4866L27.4831 30.4452C27.4151 30.3333 27.3656 30.1469 27.2728 30.1241C24.4291 29.3805 22.468 27.8188 22.2041 24.6581C21.3916 25.7227 21.5277 27.2554 22.6619 28.5189C23.0434 28.9435 22.998 29.2273 22.7567 29.6167L22.7031 29.6622L22.7093 29.6643ZM39.4579 15.5053C39.4579 14.4614 39.3095 14.1321 38.5135 13.9747C35.8987 13.4527 33.2695 14.6395 32.0033 17.0277C31.4857 18.0011 31.9105 19.1424 32.8983 19.6064C33.684 19.975 34.4696 20.0827 35.3955 19.9605C37.6804 19.6581 39.4579 17.8334 39.4579 15.5074V15.5053ZM37.7959 8.68264C38.2846 8.39474 38.3671 7.94942 38.7692 7.76508C39.4889 7.43576 39.5301 6.7336 39.3156 6.08945C39.0517 5.30652 38.6021 4.60644 37.9691 4.04928C37.7917 3.89186 37.6103 3.67438 37.3463 3.81523C37.07 3.96229 37.1999 4.23362 37.2267 4.46145C37.3814 5.83883 38.0371 7.13128 37.7979 8.68264H37.7959Z" fill="white"/>
<path d="M47.7957 57.6136C49.9362 57.5287 52.0767 57.4499 54.2151 57.3505C54.6585 57.3298 54.9967 57.4209 55.2627 57.8103C56.4278 59.5191 57.9373 60.9131 59.3787 62.3733C60.4572 63.4669 61.5254 64.5791 61.4883 66.2921C61.4615 67.483 61.2181 67.7564 60.02 67.8848C59.7994 67.9076 59.5849 67.9718 59.3684 68.0153C59.1684 67.8186 58.9168 67.8993 58.6858 67.8993C49.3238 67.8993 39.9617 67.9035 30.5996 67.9201C29.9954 67.9201 29.3685 67.7937 28.7787 68.0505C27.0115 68.1251 26.5578 67.8351 26.0093 66.2921C25.6525 65.2917 26.2361 64.546 26.7372 63.8356C27.6817 62.4976 28.8282 61.3252 29.9686 60.1529C30.3748 59.7345 30.8924 59.3472 31.111 58.8397C31.9709 56.8514 33.5381 57.3112 35.1177 57.4686C36.6437 57.6198 38.1903 57.5742 39.7266 57.6156C42.4156 57.829 45.1067 57.8808 47.7978 57.6115L47.7957 57.6136ZM44.5726 67.6736V67.6694C49.5815 67.6694 54.5904 67.6715 59.5994 67.6653C59.9541 67.6653 60.5583 67.7834 60.5397 67.336C60.5191 66.8617 59.9231 67.1143 59.5911 67.1102C51.7426 67.0066 43.888 67.3525 36.0436 66.8617C34.9528 66.7933 33.8206 66.5675 33.3979 65.4408C32.9917 64.3617 33.0741 63.2328 33.965 62.2801C34.7362 61.4557 35.4745 60.5858 36.1261 59.662C36.5035 59.1276 37.2623 58.527 36.9901 57.9325C36.8004 57.5162 35.8539 57.7917 35.2518 57.8041C34.629 57.8165 33.9444 57.5432 33.4103 58.1397C31.6038 60.1612 29.7624 62.1537 27.9889 64.2043C27.4301 64.8505 27.2672 65.6935 27.6549 66.5178C28.0652 67.3898 28.8035 67.686 29.7521 67.6839C34.6929 67.6632 39.6317 67.6736 44.5726 67.6736Z" fill="white"/>
<path d="M62.0945 70.0079C63.0307 70.4947 63.4204 71.5303 63.1194 72.7047C62.8657 73.6947 62.3048 74.1173 61.2222 74.1193C49.6908 74.14 38.1593 74.198 26.6279 74.2747C25.1638 74.285 24.5987 73.3633 24.4255 72.2096C24.2605 71.1181 25.1803 69.8919 26.2154 69.6848C26.5165 69.6247 26.8279 69.5937 27.1352 69.5937C37.4664 69.5937 47.7977 69.5957 58.129 69.6082C58.4198 69.6082 58.7497 69.488 59.0034 69.7594C53.4067 69.7594 47.808 69.7594 42.2114 69.7594C45.2592 69.9561 48.3091 69.9458 51.357 69.9623C52.4396 69.9686 53.3572 70.3145 53.083 71.7043C52.9716 72.2676 53.3944 72.9346 52.7592 73.4068C52.8706 73.4068 52.9737 73.4068 53.0768 73.4068C54.7141 73.4427 55.6503 72.626 55.8854 70.9565C55.9267 70.6645 55.972 70.3269 56.3185 70.3828C57.9001 70.6376 59.3745 69.8484 60.9418 69.9416C61.3233 69.9644 61.6944 70.3952 62.0945 70.0058V70.0079Z" fill="#F9B001"/>
<path d="M60.6241 37.8436C59.7972 41.5159 58.4527 45.0059 56.9721 48.4525C56.6194 49.2768 56.1926 49.5834 55.3059 49.5026C54.2851 49.4094 53.2458 49.4342 52.2188 49.4902C51.3816 49.5357 51.2909 49.2893 51.6703 48.5933C53.2107 45.7619 54.4006 42.769 55.4729 39.7388C56.506 36.8204 57.1494 33.8192 57.4319 30.6999C57.8196 26.4186 57.3866 22.3093 55.6564 18.3967C54.0995 14.8777 51.7033 11.9862 48.1771 10.3603C46.6346 9.6478 46.2325 8.74474 46.4902 7.26173C47.1707 7.1416 46.616 6.47259 46.9687 6.18262C47.61 6.91791 48.9689 6.72942 49.27 7.9846C48.8143 8.09644 48.3688 7.6677 47.9337 8.12544C48.4451 8.50655 48.905 8.90837 49.4164 9.22527C53.1654 11.5471 56.3534 14.3537 57.6938 18.7778C57.8815 19.3951 58.2197 19.7285 58.9455 19.6975C60.0075 19.6519 60.5973 20.2173 60.8571 21.2923C61.4716 23.8441 61.6552 26.4166 61.5644 29.0367C61.4716 31.7169 61.286 34.3701 60.5581 36.9633C60.4756 37.2595 60.3952 37.566 60.622 37.8457L60.6241 37.8436ZM55.5842 43.2185C55.0357 44.805 53.7531 45.8531 53.419 47.4065C53.3242 47.8518 52.8251 48.3717 53.2252 48.7238C53.6603 49.107 54.2459 48.5954 54.7821 48.5643C55.1306 48.5436 55.2089 48.1542 55.2399 47.8456C55.3492 46.7561 55.5079 45.6832 55.8276 44.629C55.9534 44.2168 55.9224 43.7425 55.5863 43.2185H55.5842Z" fill="#F9B001"/>
<path d="M60.624 37.8437C60.3971 37.5661 60.4755 37.2575 60.5601 36.9613C61.288 34.3681 61.4736 31.7149 61.5664 29.0347C61.6571 26.4146 61.4736 23.8441 60.8591 21.2903C60.5992 20.2153 60.0115 19.6499 58.9475 19.6954C58.2216 19.7265 57.8834 19.3931 57.6958 18.7758C56.3554 14.3517 53.1673 11.5451 49.4184 9.22326C48.9069 8.90636 48.445 8.50454 47.9357 8.12343C48.3729 7.66569 48.8162 8.09444 49.2719 7.98259C48.9709 6.72742 47.6099 6.9159 46.9706 6.18061C46.618 6.46851 47.1727 7.1396 46.4922 7.25973C46.4922 6.57208 46.4922 5.88235 46.4922 5.13049C47.5109 5.29205 48.3708 5.82643 49.2451 6.29246C55.2727 9.50081 59.3867 14.3144 61.1251 20.9879C62.1479 24.9191 62.2366 28.9104 61.5251 32.9452C61.2364 34.5794 60.9787 36.2177 60.626 37.8416L60.624 37.8437Z" fill="white"/>
<path d="M54.0888 54.4881C54.561 54.3991 55.0477 54.3991 55.091 55.0101C55.1364 55.6356 54.5981 55.617 54.1548 55.6998C50.7708 56.3212 47.3539 56.0478 43.9493 56.0975C41.8232 56.1286 39.6951 56.1576 37.5711 56.0809C35.8472 56.0188 34.1274 55.7909 32.4055 55.6563C32.0467 55.6273 31.758 55.4181 31.694 55.1592C31.5847 54.7201 32.0879 54.7864 32.3189 54.6683C33.0983 54.2727 33.9974 54.3804 34.8182 54.3183C36.4452 54.1982 38.0743 53.8833 39.7178 54.0718C40.0168 54.3224 40.3756 54.2064 40.7035 54.2106C42.9141 54.2396 45.1247 54.2686 47.3353 54.2562C48.1292 54.252 48.2138 54.4819 47.6549 54.9852C49.2139 55.5631 50.7481 55.2711 52.2741 55.269C53.0351 55.269 53.6454 55.1302 54.0888 54.4881Z" fill="#F9B001"/>
<path d="M62.094 70.0079C61.694 70.3973 61.3228 69.9664 60.9413 69.9436C59.3741 69.8504 57.8996 70.6396 56.318 70.3848C55.9716 70.3289 55.9262 70.6644 55.8849 70.9586C55.6512 72.628 54.715 73.4447 53.0763 73.4088C52.9732 73.4068 52.8701 73.4088 52.7587 73.4088C53.3939 72.9366 52.9711 72.2717 53.0825 71.7063C53.3568 70.3165 52.4391 69.9706 51.3565 69.9644C48.3087 69.9478 45.2588 69.9581 42.2109 69.7614C47.8076 69.7614 53.4063 69.7614 59.0029 69.7614C60.0257 69.9291 61.098 69.5128 62.0961 70.012L62.094 70.0079Z" fill="white"/>
<path d="M54.0888 54.4881C53.6454 55.1301 53.035 55.2689 52.2741 55.2689C50.7481 55.2689 49.2139 55.563 47.6549 54.9852C48.2138 54.4818 48.1292 54.2519 47.3353 54.2561C45.1247 54.2685 42.9141 54.2416 40.7035 54.2105C40.3756 54.2064 40.0168 54.3224 39.7178 54.0717C43.277 54.0676 46.8404 53.9661 50.3914 54.1152C51.608 54.167 52.8989 53.9806 54.0888 54.4881Z" fill="white"/>
<path d="M28.7764 68.0526C29.3682 67.7958 29.993 67.9242 30.5972 67.9221C39.9593 67.9035 49.3214 67.9014 58.6835 67.9014C58.9144 67.9014 59.166 67.8207 59.366 68.0174C53.4601 68.0381 47.5541 68.0671 41.6503 68.0754C37.359 68.0816 33.0677 68.0609 28.7764 68.0526Z" fill="#F9B001"/>
<path d="M44.5124 23.3677C44.4381 24.8528 44.1268 26.2529 42.708 27.1166C43.3555 25.8967 43.6318 24.5089 44.5124 23.3677Z" fill="white"/>
<path d="M47.7958 57.6136C45.1047 57.8829 42.4157 57.8311 39.7246 57.6178C42.4157 57.6178 45.1047 57.6157 47.7958 57.6136Z" fill="#F9B001"/>
<path d="M27.1108 30.8925C26.1993 31.6734 25.2714 31.5864 24.3311 30.9484C24.3579 30.9194 24.3826 30.8884 24.4094 30.8594C25.3003 31.0582 26.189 31.0976 27.0799 30.8594L27.1129 30.8925H27.1108Z" fill="white"/>
<path d="M24.3281 30.9485C23.9631 30.7786 23.5899 30.6171 23.3486 30.265L23.3754 30.238C23.8415 30.238 24.2065 30.4079 24.4044 30.8594C24.3776 30.8884 24.3529 30.9195 24.3261 30.9485H24.3281Z" fill="white"/>
<path d="M23.1286 30.0765C22.8584 30.0724 22.7223 29.9315 22.71 29.6643L22.7636 29.6188C23.0915 29.5649 23.2214 29.7099 23.176 30.033L23.1306 30.0786L23.1286 30.0765Z" fill="white"/>
<path d="M30.9977 27.5558C30.8945 27.8603 30.6038 27.707 30.412 27.7961L30.377 27.7567C30.4924 27.4232 30.7481 27.5061 30.9894 27.5475L30.9977 27.5537V27.5558Z" fill="white"/>
<path d="M30.4117 27.7961C30.3436 27.9784 30.1704 27.9825 30.0219 28.026C29.9931 27.997 29.9663 27.968 29.9395 27.9369C30.0261 27.7319 30.1787 27.6925 30.3746 27.7567L30.4096 27.7961H30.4117Z" fill="white"/>
<path d="M30.0221 28.0259C29.9376 28.0777 29.853 28.1316 29.7705 28.1834L29.754 28.1668C29.719 28.0115 29.8035 27.9514 29.9396 27.9348C29.9664 27.9659 29.9932 27.9949 30.0221 28.0239V28.0259Z" fill="white"/>
<path d="M27.5313 30.4886C27.4653 30.559 27.3994 30.6315 27.3313 30.7019L27.2839 30.6543C27.2756 30.5093 27.3437 30.441 27.488 30.4472L27.5293 30.4886H27.5313Z" fill="white"/>
<path d="M27.3315 30.702C27.2572 30.7662 27.183 30.8283 27.1108 30.8925L27.0778 30.8594C27.0593 30.702 27.1397 30.6461 27.284 30.6544L27.3315 30.702Z" fill="white"/>
<path d="M23.3506 30.265C23.2764 30.2029 23.2022 30.1387 23.1279 30.0765L23.1733 30.031C23.3259 30.0165 23.3939 30.0848 23.3774 30.2381L23.3506 30.265Z" fill="white"/>
<path d="M44.7832 27.7443C44.9234 27.7443 45.0616 27.7484 45.2018 27.7505L45.2327 27.7774C44.8739 29.1382 43.882 30.1324 43.1933 31.3006C41.2858 34.5338 38.7267 37.2906 36.5161 40.3043C34.7839 42.6634 34.2292 45.3539 34.5179 48.2123C34.6829 49.8465 35.4376 51.2114 37.0028 52.1083C35.4624 52.5121 33.9446 52.3423 32.4413 52.3817L32.4475 52.3899C31.967 51.3025 31.004 50.4761 30.7854 49.2458C30.3091 46.5635 31.2185 44.2438 32.7094 42.1166C35.0004 38.8461 37.7389 35.9588 40.5868 33.1792C42.09 31.7128 43.3603 30.0578 44.6347 28.4029C44.7832 28.2103 44.9193 28.0073 44.7853 27.7463L44.7832 27.7443Z" fill="#F9B001"/>
<path d="M39.4583 15.5054C39.4583 17.8314 37.6808 19.6561 35.3959 19.9585C34.47 20.0807 33.6823 19.973 32.8987 19.6043C31.913 19.1404 31.4882 17.9991 32.0037 17.0256C33.2699 14.6396 35.8991 13.4507 38.5139 13.9726C39.3099 14.1321 39.4563 14.4614 39.4583 15.5033V15.5054ZM34.7154 18.4362C36.2249 18.4424 37.3158 17.5165 37.8499 16.0335C38.0623 15.4453 37.8581 15.2962 37.4003 15.3749C36.196 15.5799 34.9608 15.7435 34.0782 16.7522C33.7462 17.1333 33.2926 17.5435 33.5318 18.0571C33.7524 18.5294 34.3381 18.4527 34.7154 18.4382V18.4362Z" fill="#211C17"/>
<path d="M23.3758 30.2401C23.3944 30.0868 23.3263 30.0185 23.1717 30.033C23.217 29.7098 23.0892 29.5649 22.7592 29.6187C22.9984 29.2293 23.0459 28.9456 22.6644 28.5209C21.5302 27.2575 21.3941 25.7248 22.2066 24.6602C22.4705 27.8229 24.4337 29.3826 27.2753 30.1262C27.366 30.151 27.4155 30.3374 27.4856 30.4472C27.3413 30.441 27.2732 30.5093 27.2815 30.6543C27.1371 30.646 27.0547 30.702 27.0753 30.8594C26.1844 31.0996 25.2957 31.0582 24.4048 30.8594C24.2069 30.4099 23.8419 30.2401 23.3758 30.238V30.2401Z" fill="#F9B001"/>
<path d="M37.7964 8.68053C38.0356 7.12917 37.3799 5.83465 37.2252 4.45934C37.2005 4.23151 37.0706 3.96017 37.3448 3.81312C37.6088 3.67227 37.7902 3.89182 37.9676 4.04717C38.6007 4.60433 39.0502 5.30441 39.3142 6.08734C39.5307 6.72942 39.4874 7.43157 38.7677 7.76297C38.3656 7.94731 38.2831 8.39263 37.7944 8.68053H37.7964Z" fill="#F9B001"/>
<path d="M29.9397 27.9369C29.8015 27.9535 29.719 28.0136 29.7541 28.1689C29.0963 27.8748 28.7189 28.6991 28.1064 28.5852L28.1147 28.5914C28.7127 27.8292 29.5273 27.4564 30.4511 27.2555C30.7522 27.1892 30.9027 27.2803 30.9893 27.5496C30.748 27.5082 30.4923 27.4253 30.3769 27.7588C30.181 27.6946 30.0263 27.7339 29.9417 27.939L29.9397 27.9369Z" fill="#F9B001"/>
<path d="M28.106 28.5831C28.0772 28.7654 28.1535 28.9912 27.9122 29.0885C27.8936 29.0968 27.838 29.0637 27.8338 29.0429C27.774 28.7985 27.9576 28.7012 28.1164 28.5893L28.1081 28.5831H28.106Z" fill="#F9B001"/>
<path d="M32.4364 52.3776C32.3065 52.535 32.1683 52.6406 31.9395 52.4086C32.1374 52.4003 32.29 52.3921 32.4426 52.3858L32.4364 52.3776Z" fill="#F9B001"/>
<path d="M45.4239 27.3528C45.4466 27.535 45.4363 27.7007 45.2321 27.7774L45.2012 27.7504C45.2032 27.5785 45.2486 27.4273 45.4177 27.3466L45.4239 27.3528Z" fill="#F9B001"/>
<path d="M45.418 27.3445C45.4324 27.3155 45.4407 27.2824 45.4613 27.2596C45.4736 27.2472 45.5046 27.2513 45.5273 27.2493C45.4922 27.2824 45.4592 27.3176 45.4242 27.3508L45.418 27.3445Z" fill="#F9B001"/>
<path d="M44.5722 67.6736C39.6313 67.6736 34.6925 67.6632 29.7516 67.684C28.803 67.6881 28.0648 67.3919 27.6544 66.5178C27.2667 65.6935 27.4296 64.8505 27.9885 64.2043C29.7619 62.1537 31.6034 60.1612 33.4098 58.1397C33.9439 57.5432 34.6286 57.8145 35.2513 57.8041C35.8555 57.7938 36.8 57.5183 36.9897 57.9326C37.2619 58.527 36.5051 59.1256 36.1257 59.662C35.474 60.5837 34.7358 61.4537 33.9645 62.2801C33.0716 63.2329 32.9912 64.3617 33.3975 65.4408C33.8202 66.5655 34.9523 66.7933 36.0432 66.8617C43.8875 67.3526 51.7422 67.0067 59.5907 67.1102C59.9227 67.1144 60.5186 66.8617 60.5393 67.336C60.5578 67.7834 59.9536 67.6653 59.5989 67.6653C54.59 67.6715 49.5811 67.6695 44.5722 67.6695V67.6736Z" fill="#F9B001"/>
<path d="M55.584 43.2185C55.9201 43.7405 55.9511 44.2148 55.8253 44.629C55.5057 45.6833 55.3469 46.7562 55.2376 47.8457C55.2066 48.1543 55.1283 48.5437 54.7798 48.5644C54.2457 48.5954 53.658 49.107 53.2229 48.7239C52.8228 48.3718 53.3198 47.8519 53.4167 47.4066C53.7508 45.8531 55.0334 44.8051 55.582 43.2185H55.584Z" fill="white"/>
<path d="M34.7154 18.4361C34.3381 18.4506 33.7524 18.5293 33.5318 18.0549C33.2926 17.5413 33.7462 17.1312 34.0782 16.7501C34.9608 15.7414 36.1981 15.5777 37.4003 15.3727C37.8581 15.294 38.0602 15.4431 37.8499 16.0313C37.3179 17.5144 36.2249 18.4402 34.7154 18.434V18.4361ZM34.7072 16.7998C34.2927 16.9965 33.8782 17.2554 33.9545 17.7608C34.0081 18.115 34.3711 18.2269 34.7691 18.1626C34.2927 17.6966 34.8495 17.2347 34.701 16.7936C34.7216 16.7687 34.7423 16.7418 34.7629 16.7169C34.7443 16.7438 34.7258 16.7728 34.7072 16.7998Z" fill="white"/>
<path d="M34.7009 16.7936C34.8494 17.2348 34.2926 17.6966 34.769 18.1627C34.371 18.2269 34.008 18.115 33.9544 17.7608C33.8781 17.2555 34.2947 16.9945 34.7071 16.7998L34.7009 16.7936Z" fill="#F9B001"/>
<path d="M34.7074 16.7998C34.7259 16.7728 34.7445 16.7438 34.763 16.7169C34.7424 16.7418 34.7218 16.7687 34.7012 16.7936L34.7074 16.7998Z" fill="#F9B001"/>
</g>
<defs>
<clipPath id="clip0_422_496">
<rect width="46" height="76" fill="white" transform="translate(19)"/>
</clipPath>
</defs>
</svg>
