<svg width="127" height="161" viewBox="0 0 127 161" fill="none" xmlns="http://www.w3.org/2000/svg">
<g clip-path="url(#clip0_415_118)">
<g clip-path="url(#clip1_415_118)">
<path d="M11.7667 119.132C10.9556 110.998 12.4304 108.139 19.257 104.47C21.4438 103.293 23.6767 102.167 25.9754 101.238C32.5393 98.5827 37.3761 93.8944 41.339 88.2448C46.71 80.5889 50.8556 72.2874 53.8088 63.3997C54.3895 61.6449 54.6251 60.5908 52.292 59.722C48.5429 58.3307 46.6 54.803 47.1277 51.6836C47.7027 48.2835 50.2228 45.6908 53.4521 45.4671C54.8284 45.373 56.2506 45.6419 57.6252 45.9027C58.9301 46.1546 60.193 46.611 62.3482 47.2288C55.1715 38.7912 53.4857 29.7953 56.8033 20.1015C60.143 10.3306 67.1786 4.07368 77.1368 1.93634C89.7689 -0.772741 105.231 6.26954 109.642 21.0998C111.831 28.4574 110.332 35.3131 107.267 42.1697C103.92 49.6397 97.2486 52.1473 90.3829 54.5381C90.7022 55.7291 91.7692 55.5519 92.5602 55.7953C94.6845 56.4431 96.7611 57.1217 98.4784 58.6469C101.235 61.0975 102.211 64.2813 100.957 67.0481C99.5527 70.1439 95.9229 72.1519 92.4093 71.3335C89.9418 70.7594 88.9646 71.4177 88.4822 73.856C87.5151 78.7596 86.4433 83.661 86.5466 88.666C86.6698 94.5318 86.1227 100.372 86.5509 106.259C87.0203 112.679 90.5275 117.433 94.003 122.355C97.0882 126.721 99.9901 131.146 99.083 137.022C98.8021 138.835 98.1351 140.154 96.9741 141.376C95.9877 142.415 95.7694 143.08 97.1894 144.17C100.396 146.622 100.925 152.021 98.6634 156.364C96.7457 160.052 92.449 161.829 88.3762 160.656C62.498 153.205 36.6088 145.772 10.735 138.305C8.01031 137.524 5.2431 136.736 3.43938 134.253C0.921631 130.794 0.925746 126.963 2.86156 123.504C4.62774 120.345 7.45557 118.074 11.7872 119.138L11.7667 119.132ZM94.7608 146.889L94.7952 146.943C94.3681 145.682 93.2502 145.378 92.1521 145.063C90.0483 144.46 87.9365 143.866 85.8312 143.268C85.5621 142.386 84.7137 142.498 84.0877 142.319C60.7135 135.585 37.3415 128.862 13.9571 122.164C10.2113 121.09 7.26057 123.015 6.1219 127.142C5.18404 130.55 6.62003 132.649 10.6077 133.77C36.8424 141.141 63.0719 148.51 89.3036 155.891C93.5222 157.078 95.8094 155.047 95.4205 150.398C95.8623 149.109 95.6837 147.931 94.771 146.891L94.7608 146.889ZM94.6538 60.4824C94.2213 60.3251 93.7955 60.1642 93.363 60.0069C92.1078 59.0973 90.6138 58.769 89.1719 58.3556C80.2919 55.8211 71.3995 53.3108 62.5033 50.8327C60.2822 50.2127 58.0376 49.6358 55.7709 49.2526C53.8802 48.9327 51.9407 49.9259 51.3887 51.4058C50.767 53.0711 51.5013 55.0808 53.6519 55.8694C55.068 56.392 56.4555 56.9952 57.901 57.4152C67.53 60.2421 77.1694 63.0332 86.8087 65.8243C88.7725 66.3928 90.7223 67.0295 92.7215 67.436C95.59 68.0251 97.6438 66.3427 97.4122 63.722C97.2568 62.0171 95.8504 61.3252 94.6567 60.4721L94.6538 60.4824ZM34.8435 108.85C33.9214 108.541 33.0162 108.154 32.0742 107.934C30.2042 107.503 28.3496 106.166 26.4757 106.756C23.3829 107.724 20.3829 109.008 18.1406 111.619C15.8726 114.262 16.3426 117.639 19.4731 119.659C28.2606 122.205 37.0343 124.782 45.8321 127.293C59.4959 131.193 73.1728 135.047 86.8439 138.922C88.4214 138.513 89.8206 139.947 91.4159 139.361C92.9498 139.356 93.6794 138.438 94.2635 137.117C96.109 132.926 93.4208 129.946 91.4467 126.914C90.0584 124.784 88.641 122.406 85.511 122.186C81.4493 121.905 77.5061 120.958 73.5866 119.851C71.1324 119.153 68.7577 118.061 66.1454 117.973C55.7165 114.933 45.2826 111.892 34.8538 108.853L34.8435 108.85ZM88.3611 49.9104C98.2692 48.8971 105.982 39.658 105.974 28.8386C105.963 12.5267 90.5859 1.47163 74.7739 7.46712C63.2849 11.8255 56.9672 25.4959 61.5002 36.8794C65.0967 45.9122 76.4799 52.5571 87.1577 50.0985C87.5588 50.0358 87.96 49.9731 88.3596 49.9156L88.3611 49.9104ZM82.1669 110.549C80.0048 93.7429 81.3373 85.9177 84.3178 71.0851C84.6035 69.6622 84.0574 69.4557 83.0055 69.1541C75.5741 67.0293 68.1396 64.9147 60.7456 62.6785C59.2481 62.227 59.01 62.8251 58.5954 64.0001C57.1106 68.2111 55.7855 72.5234 53.8543 76.5288C50.0824 84.3599 45.8391 91.9559 39.0883 98.711C54.2646 100.957 67.9533 106.591 82.1698 110.539L82.1669 110.549ZM31.1832 103.952C48.855 109.174 66.1714 115.054 84.2027 118.363C84.688 118.452 85.2728 118.853 85.6611 118.292C86.048 117.737 85.4978 117.313 85.2415 116.889C84.822 116.203 84.2219 115.759 83.4545 115.394C77.6103 112.614 71.2441 111.383 65.1845 109.218C57.4383 106.448 49.4394 104.21 41.2937 102.93C38.1062 102.428 34.4635 99.9673 31.1818 103.958L31.1832 103.952Z" fill="#211C17"/>
<path d="M87.1591 50.0935C76.4813 52.552 65.0981 45.9071 61.5016 36.8743C56.9686 25.4908 63.2863 11.8204 74.7753 7.46203C90.5873 1.46654 105.96 12.5202 105.975 28.8336C105.983 39.6529 98.2706 48.892 88.3625 49.9053C88.3017 49.788 88.2461 49.6721 88.1868 49.5496C88.4664 49.291 88.7475 49.0273 89.027 48.7687C89.0777 48.7277 89.1298 48.6816 89.1804 48.6405C89.132 48.6933 89.0887 48.7475 89.0402 48.8003C87.2961 48.5113 85.5145 48.3726 83.8205 47.9092C76.4578 45.8929 71.5693 41.0765 69.533 33.8459C67.2854 25.8607 69.4407 18.7877 75.4135 12.9647C77.5563 10.8747 80.0609 9.34373 82.9132 8.36227C77.1798 8.81767 72.1226 10.7108 68.352 15.2439C65.1151 19.1359 62.886 23.4445 62.7105 28.6861C62.5148 34.4827 64.792 39.6334 68.0613 43.8802C70.744 47.3646 75.2745 49.1298 79.935 49.7439C82.3155 50.0598 84.6875 49.185 87.042 49.8433C87.0793 49.9262 87.1167 50.0091 87.154 50.092L87.1591 50.0935Z" fill="white"/>
<path d="M95.4107 150.395C95.7944 155.042 93.5072 157.074 89.2937 155.888C63.062 148.507 36.834 141.133 10.5979 133.767C6.61019 132.647 5.1742 130.547 6.11206 127.14C7.2522 123.007 10.2014 121.088 13.9472 122.161C37.3302 128.865 60.7037 135.582 84.0778 142.316C84.7039 142.495 85.5538 142.378 85.8213 143.265C79.0122 141.313 72.2082 139.363 65.3991 137.411C68.5766 139.343 73.6002 139.001 73.7297 144.263C73.7665 145.801 74.1204 148.557 71.2209 148.908C71.9649 149.122 72.8204 149.334 73.6634 149.609C78.7907 151.306 79.561 150.905 80.4523 145.374C80.7037 143.819 81.3491 143.621 82.5623 143.941C86.6205 145.01 90.9553 144.959 94.7934 146.931L94.759 146.877C94.9743 148.044 95.1932 149.217 95.4085 150.384L95.4107 150.395Z" fill="#F9B001"/>
<path d="M82.1719 110.551C67.9554 106.603 54.2719 100.97 39.0904 98.7227C45.8427 91.9626 50.0794 84.3702 53.8565 76.5405C55.7891 72.5301 57.1127 68.2228 58.5975 64.0118C59.0121 62.8368 59.2517 62.2336 60.7478 62.6903C68.1469 64.928 75.5762 67.0411 83.0077 69.1659C84.0596 69.4674 84.6071 69.6688 84.3199 71.0969C81.3395 85.9294 80.0084 93.7495 82.169 110.561L82.1719 110.551ZM74.418 71.6622C74.418 71.6622 74.421 71.652 74.4239 71.6417C76.5585 72.2536 78.7048 72.8245 80.8233 73.4929C82.0818 73.887 82.9381 73.9992 83.3795 72.3433C83.7981 70.7863 83.126 70.477 81.8844 69.9267C76.7495 67.6551 71.1895 66.8275 65.9237 65.0125C61.6042 63.5188 61.585 63.6632 60.1483 68.0935C59.6852 69.5156 58.972 70.8604 58.4781 72.2736C55.701 80.1789 51.9316 87.5554 46.8811 94.2482C43.6424 98.5339 43.6234 98.4452 48.9247 99.9427C50.758 100.463 51.6602 100.144 52.7278 98.3953C57.8773 89.9818 62.3415 81.2663 65.2915 71.828C65.8445 70.0541 66.7493 69.164 68.8074 70.0039C70.6076 70.7365 72.5466 71.1202 74.4246 71.6586L74.418 71.6622Z" fill="white"/>
<path d="M66.1367 117.965C68.7491 118.053 71.1223 119.15 73.578 119.843C77.496 120.955 81.4406 121.897 85.5024 122.178C88.6323 122.398 90.0549 124.777 91.4381 126.906C93.4121 129.938 96.1004 132.918 94.2549 137.109C93.6723 138.425 92.9412 139.348 91.4058 139.358C91.8186 137.744 90.7702 137.565 89.5541 137.217C72.4532 132.348 55.375 127.418 38.2858 122.508C35.674 121.76 33.356 120.49 31.5725 118.402C29.8014 116.328 30.0645 114.771 32.3833 113.481C34.1329 112.511 35.8503 111.46 37.8606 110.82C35.842 110.036 33.7454 109.64 31.8221 108.833C29.2935 107.775 27.1462 108.254 25.1379 109.855C23.6184 111.068 22.123 112.333 20.7367 113.702C20.0315 114.399 19.6617 115.476 20.334 116.385C21.4567 117.912 22.4209 119.526 24.5511 120.115C33.8035 122.667 43.0214 125.36 52.2414 128.025C65.2996 131.791 78.352 135.577 91.4073 139.353C89.812 139.939 88.4128 138.505 86.8353 138.914C86.3842 138.24 85.6048 138.267 84.948 138.078C64.3974 132.187 43.852 126.297 23.2867 120.458C22.045 120.102 20.8623 119.307 19.4593 119.649C16.3288 117.63 15.8589 114.252 18.1268 111.61C20.3706 108.993 23.3691 107.715 26.462 106.747C28.341 106.158 30.189 107.499 32.0605 107.924C33.004 108.139 33.9091 108.526 34.8298 108.84C37.3962 110.309 40.3155 110.741 43.1032 111.534C50.7634 113.713 58.3162 116.306 66.1265 117.962L66.1367 117.965Z" fill="white"/>
<path d="M94.6505 60.4759C95.8442 61.3289 97.2506 62.0209 97.406 63.7257C97.6427 66.3479 95.5889 68.0303 92.7153 67.4397C90.7176 67.0281 88.7663 66.3965 86.8025 65.828C77.1632 63.037 67.5253 60.2408 57.8948 57.4189C56.4507 56.9938 55.0581 56.3892 53.6457 55.8732C51.4951 55.0845 50.7659 53.0763 51.3825 51.4096C51.9345 49.9297 53.8791 48.9379 55.7647 49.2563C58.0366 49.641 60.2746 50.2215 62.4971 50.8365C71.3933 53.3145 80.2857 55.8249 89.1657 58.3594C90.6076 58.7727 92.1016 59.101 93.3568 60.0106C86.6041 58.0748 79.8514 56.139 73.0936 54.2018C79.8377 56.7292 86.7377 58.7128 93.6466 60.6656C93.939 60.7495 94.3124 60.5511 94.649 60.481L94.6505 60.4759Z" fill="#F9B001"/>
<path d="M31.1881 103.954C34.4699 99.9636 38.1125 102.424 41.3001 102.927C49.4509 104.208 57.4498 106.446 65.1909 109.215C71.2505 111.379 77.6166 112.61 83.4609 115.391C84.2282 115.755 84.8283 116.199 85.2479 116.886C85.5041 117.309 86.0544 117.733 85.6675 118.289C85.2725 118.853 84.6944 118.448 84.2091 118.359C66.1778 115.05 48.8614 109.17 31.1896 103.949L31.1881 103.954Z" fill="#F9B001"/>
<path d="M94.7903 146.941C90.9522 144.969 86.6174 145.021 82.5592 143.952C81.3512 143.633 80.7006 143.83 80.4492 145.385C79.5594 150.91 78.7877 151.316 73.6603 149.619C72.8239 149.34 71.9619 149.132 71.2178 148.919C74.1224 148.569 73.7649 145.806 73.7266 144.274C73.6022 139.013 68.5735 139.354 65.396 137.421C72.2051 139.373 79.0091 141.324 85.8183 143.275C87.9221 143.879 90.0354 144.468 92.1392 145.071C93.2373 145.386 94.3552 145.689 94.7823 146.95L94.7903 146.941Z" fill="white"/>
<path d="M19.468 119.657C20.871 119.315 22.0537 120.11 23.2954 120.466C43.8592 126.311 64.4061 132.195 84.9567 138.086C85.6135 138.275 86.3929 138.248 86.844 138.922C73.1678 135.046 59.4908 131.191 45.8271 127.291C37.0292 124.78 28.2556 122.204 19.468 119.657Z" fill="#F9B001"/>
<path d="M66.1365 117.965C58.3263 116.309 50.7772 113.723 43.1133 111.537C40.3256 110.743 37.4077 110.307 34.8398 108.843C45.2738 111.884 55.7026 114.924 66.1365 117.965Z" fill="#F9B001"/>
<path d="M94.6502 60.4758C94.315 60.5407 93.9417 60.7391 93.6477 60.6604C86.7389 58.7076 79.8388 56.724 73.0947 54.1965C79.8474 56.1323 86.6052 58.0696 93.3579 60.0054C93.7853 60.1612 94.2163 60.3236 94.6436 60.4794L94.6502 60.4758Z" fill="white"/>
<path d="M95.4102 150.395C95.1949 149.229 94.976 148.055 94.7607 146.889C95.6734 147.928 95.852 149.106 95.4102 150.395Z" fill="white"/>
<path d="M88.3614 49.9104C87.9603 49.9731 87.5592 50.0358 87.1595 50.0934C87.1222 50.0105 87.0849 49.9276 87.0475 49.8447C87.3193 49.3229 87.743 49.3944 88.1858 49.5547C88.2399 49.6757 88.3007 49.7931 88.3614 49.9104Z" fill="white"/>
<path d="M88.1908 49.5562C87.7466 49.4011 87.3243 49.3245 87.0525 49.8463C84.698 49.188 82.3275 50.0577 79.9455 49.7469C75.285 49.1328 70.7546 47.3676 68.0719 43.8832C64.8025 39.6364 62.5253 34.4857 62.7211 28.6891C62.8965 23.4475 65.1256 19.1389 68.3626 15.2469C72.1331 10.7138 77.1903 8.82067 82.9238 8.36527C80.0714 9.34673 77.5668 10.8777 75.424 12.9677C69.4461 18.7893 67.2974 25.8585 69.5435 33.8489C71.5784 41.0846 76.4618 45.8996 83.831 47.9122C85.5251 48.3756 87.3067 48.5143 89.0507 48.8032L89.0361 48.7768C88.7565 49.0354 88.4755 49.2991 88.1959 49.5577L88.1908 49.5562Z" fill="#F9B001"/>
<path d="M89.0457 48.8017C89.0941 48.7489 89.1374 48.6947 89.1859 48.642C89.1353 48.683 89.0832 48.7291 89.0325 48.7702L89.0472 48.7966L89.0457 48.8017Z" fill="#F9B001"/>
<path d="M74.4113 71.666C72.5332 71.1276 70.5942 70.7439 68.7941 70.0113C66.7359 69.1714 65.8311 70.0614 65.2782 71.8353C62.3267 81.2788 57.8691 89.9906 52.7145 98.4027C51.6468 100.151 50.741 100.463 48.9114 99.95C43.6152 98.454 43.6327 98.5479 46.8678 94.2555C51.9182 87.5628 55.6942 80.1826 58.4647 72.281C58.9587 70.8678 59.6769 69.5244 60.135 68.1009C61.5716 63.6706 61.5893 63.5313 65.9103 65.0199C71.1747 66.84 76.7347 67.6676 81.8711 69.9341C83.1127 70.4844 83.7862 70.7885 83.3662 72.3506C82.9197 74.0051 82.0619 73.898 80.8099 73.5003C78.6915 72.8319 76.5451 72.261 74.4105 71.6491C74.4091 71.6542 74.4076 71.6594 74.4047 71.6696L74.4113 71.666Z" fill="#F9B001"/>
<path d="M91.4178 139.356C78.3625 135.58 65.3102 131.794 52.252 128.028C43.0253 125.366 33.8141 122.67 24.5617 120.118C22.4263 119.528 21.4672 117.915 20.3446 116.388C19.6723 115.479 20.042 114.402 20.7473 113.705C22.1335 112.336 23.6289 111.071 25.1485 109.858C27.1567 108.257 29.304 107.778 31.8327 108.836C33.7559 109.643 35.8526 110.039 37.8712 110.823C35.8609 111.463 34.145 112.509 32.3939 113.484C30.0751 114.774 29.8119 116.331 31.583 118.405C33.3666 120.493 35.6861 121.757 38.2964 122.511C55.3841 127.427 72.4637 132.35 89.5647 137.219C90.7808 137.568 91.8291 137.746 91.4164 139.361L91.4178 139.356Z" fill="#F9B001"/>
</g>
</g>
<defs>
<clipPath id="clip0_415_118">
<rect width="127" height="161" fill="white"/>
</clipPath>
<clipPath id="clip1_415_118">
<rect width="101.708" height="152.627" fill="white" transform="translate(41.2549 -11.6261) rotate(15.996)"/>
</clipPath>
</defs>
</svg>
