<svg width="159" height="119" viewBox="0 0 159 119" fill="none" xmlns="http://www.w3.org/2000/svg">
<g clip-path="url(#clip0_423_535)">
<g clip-path="url(#clip1_423_535)">
<path d="M68.7846 39.845C72.0675 37.7798 74.6634 34.9807 77.7566 32.7907C78.7714 32.0716 79.7462 31.8262 80.9098 32.0768C82.1124 32.3329 83.3124 32.6219 84.5269 32.8268C87.1518 33.2715 89.3516 32.3199 90.5222 29.9019C92.1376 26.565 92.9003 23.0426 91.8294 19.3338C91.0244 16.5497 88.9041 14.7285 85.9837 14.4928C84.0986 14.3409 82.1958 14.3721 80.2987 14.3334C76.8305 14.2636 73.4941 13.5742 70.3356 12.1305C65.4715 9.9069 60.3861 9.39256 55.1482 10.1732C54.116 10.3263 53.6259 10.1557 53.3258 9.04041C52.8243 7.1799 52.1187 5.37153 51.4229 3.57123C50.9025 2.22286 49.9899 1.1248 48.4772 0.980549C46.9713 0.835071 46.2395 1.97974 45.6345 3.16488C43.7704 6.81484 42.7149 10.7103 42.0395 14.7271C41.9562 15.21 42.08 15.7583 41.5543 16.2898C41.3105 15.4567 40.8249 14.8581 40.3437 14.2602C39.5201 13.2347 38.4185 13.181 37.7135 14.2787C33.6695 20.5715 30.8308 27.269 30.5708 34.8974C30.4224 39.258 30.9918 43.4686 32.2083 47.6516C32.9636 50.245 34.441 52.446 35.55 54.841C36.5229 56.94 37.9671 58.7605 39.4244 60.5364C41.0637 62.5354 42.7792 64.4814 44.5586 66.3527C48.3 70.283 52.8267 73.2334 57.2175 76.3585C60.9814 79.0369 65.0905 81.1179 69.0282 83.4967C69.7961 83.9616 70.5086 84.3213 70.5459 85.3896C70.575 86.2402 71.2885 86.715 72.0165 86.7079C73.2958 86.6945 73.0968 87.4568 73.0123 88.2224C72.5443 92.4859 71.472 96.7103 71.9248 101.039C72.1667 103.363 72.9688 105.482 75.2644 106.597C76.1067 107.006 76.3695 107.312 75.8677 108.289C74.8055 110.356 75.9332 112.941 77.2419 114.187C79.4748 116.315 81.2119 116.573 83.577 115.259C87.2396 113.226 90.3817 110.456 93.7266 107.977C104.606 99.9158 115.495 91.8622 126.235 83.619C129.175 81.3625 129.31 78.8254 127.478 76.1022C126.171 74.1602 124.553 73.0019 122.106 73.4315C121.836 73.4786 121.66 73.5525 121.668 73.1337C121.784 67.9286 118.029 66.7608 114.041 65.8863C111.23 65.271 108.401 64.7435 105.585 64.1518C104.779 63.9818 104.096 63.7966 104.384 62.5898C104.652 61.4596 103.707 60.9844 102.752 60.8438C101.969 60.7301 101.885 60.4726 102.094 59.745C103.383 55.2934 101.422 51.871 98.4007 48.9158C94.4815 45.0834 89.3905 43.7086 84.2432 42.5687C79.522 41.5238 74.7538 40.7571 69.9285 40.3689C69.5877 40.3416 69.2067 40.3482 68.7821 39.8469L68.7846 39.845ZM84.9593 30.2111C84.817 30.186 84.673 30.1585 84.5283 30.1353C82.9446 29.8858 81.3628 29.6387 79.7792 29.3891C79.6313 29.403 79.4816 29.4145 79.3362 29.4265C79.1189 29.5077 78.9052 29.6557 78.6624 29.5012C78.3524 29.5667 78.1405 30.0067 77.7439 29.7392C76.9237 30.0468 76.1934 30.4955 75.4797 31.013C73.3219 32.574 71.6467 34.6625 69.5363 36.2923C67.1967 38.101 64.9964 38.1266 62.5072 36.7004C60.9929 35.8355 59.5261 34.7654 57.6644 34.6501C56.6241 34.5854 55.8234 34.9864 55.37 35.8576C54.9625 36.6405 55.2338 37.3759 55.7654 38.1292C57.1881 40.1432 59.0955 41.4519 61.3428 42.3369C68.8841 42.7853 76.352 43.7866 83.7212 45.452C86.9993 46.1927 90.2581 47.0365 93.2268 48.7068C96.0422 50.2908 98.3099 52.3301 99.3442 55.5297C100.28 58.4168 99.7283 60.4693 97.2907 62.1312C94.5148 64.0224 91.6644 65.8034 88.8774 67.6798C85.0423 70.2616 81.6766 73.4463 78.0124 76.2518C76.6078 77.3276 75.1666 78.4269 73.9027 79.6756C71.6352 81.9168 71.5546 81.9847 69.2087 80.0887C71.472 78.3949 73.7413 76.7351 75.8004 74.804C76.7902 73.8757 76.8301 73.128 75.6362 72.599C71.6909 70.8512 67.9059 68.8062 64.245 66.5294C58.4801 62.9443 53.0705 58.9355 48.8274 53.5424C45.8403 49.7435 43.4917 45.6108 42.4212 40.8634C40.9891 34.51 41.7245 28.4489 45.2808 22.8831C46.0585 21.6656 46.1137 20.7211 44.7915 19.9946C44.1878 19.6617 44.2304 19.1397 44.2654 18.6851C44.6496 13.6891 45.6558 8.83851 47.7576 4.25067C48.1554 3.38242 48.4337 3.39847 48.9641 4.12952C50.2852 5.94538 50.6146 8.1544 51.3785 10.1856C52.3503 12.7795 52.5273 13.0372 55.2251 12.6594C60.3547 11.9404 65.292 12.3183 69.9557 14.7958C72.4402 16.1174 75.148 16.5543 77.9361 16.773C80.6524 16.9836 83.3871 16.7327 86.0887 17.1665C87.7039 17.4272 88.7833 18.2733 89.3058 19.8518C89.8479 21.4928 89.9712 23.1415 89.5853 24.827C89.8091 25.1577 89.7733 25.4509 89.4505 25.6958C89.4168 25.8367 89.3849 25.9802 89.3512 26.1211C89.3758 26.7589 89.0722 27.2828 88.7847 27.8179C88.2227 29.4226 87.1852 30.3593 85.394 30.2454C85.2475 30.2352 85.1027 30.2275 84.9562 30.2173L84.9593 30.2111ZM74.0522 82.6828C75.0288 81.0079 76.7467 80.0725 78.1626 78.9188C82.2975 75.5496 86.67 72.4778 90.9511 69.2888C92.7579 67.5885 94.997 66.5033 97.0597 65.187C98.1015 64.5249 99.0833 63.5911 100.376 63.3631C100.757 63.2947 101.305 62.7663 101.565 63.3898C101.72 63.7569 101.564 64.2669 101.155 64.623C99.2055 66.3292 97.3422 68.1451 95.3259 69.7664C92.8418 71.7641 90.2584 73.639 87.6755 75.5097C83.5395 78.5053 79.6773 81.8986 75.0554 84.1918C74.4504 84.493 73.8209 84.9939 73.3141 84.2066C72.8202 83.4367 73.4051 83 74.0522 82.6828ZM40.9923 19.3574C42.6288 20.903 42.9524 22.3443 41.7352 24.581C38.9519 29.6932 38.6535 35.3005 39.9264 40.9082C41.3426 47.1421 44.496 52.4457 48.7843 57.2222C51.9106 60.7009 55.3651 63.7146 59.214 66.2793C63.2099 68.9428 67.3138 71.4561 71.6946 73.4616C72.7699 73.9556 72.8811 74.332 71.8367 75.0269C70.5525 75.8815 69.2838 76.7825 68.1378 77.8119C67.1444 78.7042 66.3575 78.7205 65.1972 78.0506C60.3368 75.2529 55.6049 72.2861 51.3302 68.6342C49.4557 67.0077 47.6822 65.2787 45.8752 63.5824C41.4155 59.3932 37.9538 54.5399 35.6733 48.9165C31.8003 39.3717 32.4439 29.9206 36.8215 20.6729C37.4559 19.3307 38.0119 17.9197 39.0919 16.8122L40.9941 19.3599L40.9923 19.3574ZM78.2971 108.436C79.0525 106.945 80.7106 106.483 81.7906 105.36C81.8524 104.812 82.3587 104.658 82.7063 104.395C95.1112 95.109 107.525 85.8358 119.941 76.565C120.311 76.2893 120.713 76.047 121.128 75.8487C122.557 75.1676 124.757 75.8138 125.535 77.2635C126.356 78.7968 126.502 80.4048 124.733 81.7106C110.804 91.9642 96.896 102.245 83.0192 112.568C81.7181 113.539 80.6665 113.537 79.4753 112.578C78.0643 111.443 77.6075 109.854 78.2977 108.431L78.2971 108.436ZM116.593 76.2009C111.443 80.0617 106.305 83.9372 101.142 87.7806C94.0367 93.0704 86.9137 98.3311 79.7975 103.606C79.4941 103.748 79.1809 103.866 78.8954 104.036C77.3408 104.958 76.8041 104.849 75.7079 103.448C74.1329 101.432 74.4229 99.1427 74.742 96.8664C75.1698 93.8257 75.7385 90.8033 75.612 87.7133C75.582 87.0062 75.9064 86.598 76.4602 86.2231C79.119 84.4231 81.7617 82.5965 84.41 80.7773C87.6416 78.3643 90.8794 75.9545 94.1111 73.5415C95.9228 72.1115 97.8197 70.78 99.521 69.2279C101.281 67.6246 102.754 65.6637 105.561 67.273C106.282 67.6847 107.247 67.6855 108.107 67.8191C110.525 68.1985 112.95 68.5723 115.281 69.3258C116.52 69.7243 117.885 70.0946 118.35 71.6117C119.065 73.9496 118.784 74.7043 116.593 76.2009ZM57.7581 36.8536C59.8359 37.429 61.4096 38.8439 63.2758 39.7201C60.7992 39.9598 59.1765 38.5621 57.7581 36.8536Z" fill="white"/>
<path d="M56.8076 22.9105C58.8856 25.6936 62.6521 26.2818 65.6682 24.5934C66.8901 23.9087 67.7406 23.073 68.3529 21.9287C69.123 20.489 68.6139 18.7423 67.1246 18.0402C63.4713 16.3214 59.2494 17.2582 56.5733 20.2291C55.7591 21.1342 55.8774 21.6597 56.8057 22.9081L56.8076 22.9105ZM65.1259 22.1612C63.3174 23.5232 61.1792 23.3943 59.2125 22.0991C58.4317 21.5859 58.5438 21.2243 59.1643 20.9077C60.7948 20.0723 62.4254 19.1597 64.3873 19.5746C65.1268 19.7327 66.0384 19.8163 66.2098 20.6455C66.3665 21.4086 65.5942 21.8424 65.1278 22.1637L65.1259 22.1612Z" fill="white"/>
</g>
</g>
<defs>
<clipPath id="clip0_423_535">
<rect width="159" height="119" fill="white"/>
</clipPath>
<clipPath id="clip1_423_535">
<rect width="68.9928" height="113.487" fill="white" transform="matrix(-0.801275 0.598296 0.598296 0.801275 67.542 -14)"/>
</clipPath>
</defs>
</svg>
