<svg width="54" height="55" viewBox="0 0 54 55" fill="none" xmlns="http://www.w3.org/2000/svg">
<g clip-path="url(#clip0_400_9)">
<path d="M22.5637 29.0693C22.5637 29.0693 22.5637 29.0892 22.5637 29.1252" stroke="#F2F2F2" stroke-width="0.5" stroke-miterlimit="10"/>
<path d="M48.6767 24.1776C48.6767 24.1776 48.9045 29.8645 41.495 34.5644C34.4173 39.0564 33.1304 41.1426 33.0265 41.3184C33.0585 41.0866 33.7059 37.298 39.5008 33.7451C39.5008 33.7451 44.0248 30.4001 45.6993 27.5506C45.6993 27.5506 46.7304 25.8881 46.8503 24.2975C46.9862 23.3663 47.186 21.4759 46.7464 19.5616C46.6585 19.174 46.5026 18.5026 46.111 17.6913C45.8472 17.1398 45.5275 16.6682 45.0599 16.0447C44.3205 15.0536 43.4533 14.1464 42.5061 13.3511C40.404 11.5887 38.0741 10.09 35.5603 8.98697C34.2095 8.39549 32.8067 7.91991 31.4719 7.28847C29.062 6.15347 26.6521 4.11126 25.8169 1.48158C25.9767 1.98913 26.9998 2.66854 27.3955 3.01623C27.943 3.49181 28.5145 3.94341 29.11 4.36304C30.3209 5.22229 31.6157 5.95364 32.9666 6.5691C35.824 7.87595 38.8694 8.59931 41.6029 10.2259C43.4173 11.3009 45.0879 12.6597 46.3907 14.3263C47.0302 15.1455 47.6536 15.9009 48.0972 16.9479C48.2131 17.2197 48.4889 17.9111 48.6887 19.0541C48.8805 20.1291 49.0604 21.8956 48.6767 24.1776Z" fill="#190B04"/>
<path d="M26.3284 49.4233C23.8226 50.3305 21.0411 50.4104 18.4074 50.3145C17.5402 50.2866 16.6729 50.1826 15.8137 50.0587C14.4509 49.8629 13.0681 49.6791 11.7652 49.1995C11.6813 49.1715 11.5934 49.1356 11.5095 49.0996C10.3265 48.596 9.2155 47.6209 9.51124 46.2062C9.64312 45.5747 10.0308 45.0192 10.5223 44.6116C10.7741 44.4037 11.0579 44.2319 11.3616 44.108C11.5574 44.0281 12.073 43.7963 12.2848 43.8842C19.1188 46.7057 25.7929 43.5365 25.7929 43.5365H25.8009C27.1876 43.7803 28.5385 44.9353 28.7223 46.378C28.9181 47.8767 27.6313 48.9517 26.3284 49.4233Z" fill="#FFCA40" stroke="#190B04" stroke-width="0.25" stroke-miterlimit="10"/>
<path d="M27.0837 18.7504C27.4754 19.8534 27.5433 20.9764 27.5433 20.9764C27.5433 20.9764 27.5793 21.5199 27.5393 21.9675C27.2876 24.7611 24.2582 26.4316 21.7804 26.8512C20.1419 27.127 18.3395 27.083 16.7089 26.7793C15.1303 26.4835 13.7035 25.7762 12.8403 24.3854C12.053 23.1185 11.8332 21.5439 12.1849 20.0972C12.2568 19.7934 12.3567 19.4977 12.4766 19.214C13.4717 16.8361 15.9496 15.2055 18.2236 14.2304C18.5712 14.0825 18.9229 13.9426 19.2786 13.8147C19.2906 13.8067 19.4025 13.7428 19.4145 13.6189C19.4265 13.511 19.3546 13.4311 19.3306 13.4071C19.2586 13.3271 19.1627 13.3232 19.1148 13.2872C18.9589 13.1713 18.839 13.0074 18.7831 12.8196C18.5433 12.0483 19.1228 11.237 19.8261 10.9652C20.5455 10.6855 21.1929 10.9213 21.2729 10.9532C21.4367 11.0252 21.9203 11.261 22.1801 11.8285C22.224 11.9244 22.4878 12.5318 22.208 13.1713C22.1081 13.4031 21.9683 13.5629 21.8723 13.6589C24.9256 15.3534 26.6681 17.5514 27.0917 18.7464L27.0837 18.7504Z" fill="#FFCA40" stroke="#190B04" stroke-width="0.25" stroke-miterlimit="10"/>
<path d="M29.3058 50.6742C29.5855 51.1058 29.8533 51.6893 29.6855 52.2368C29.4017 53.152 28.2267 53.4158 27.4115 53.5757C22.9794 54.4509 18.3954 54.5748 13.8994 54.2191C12.7963 54.1312 11.6933 54.0113 10.6183 53.7395C9.75503 53.5237 8.67199 53.208 8.55209 52.1529C8.53611 52.005 8.52811 51.6294 8.91178 51.1378C8.91178 51.1378 8.38424 49.3993 10.6422 48.62C10.7382 48.684 10.882 48.7799 11.0659 48.8798C11.2217 48.9677 11.6374 49.1835 12.4886 49.4313C12.7284 49.4992 12.9842 49.5672 13.3638 49.6471C13.9074 49.767 14.5468 49.8829 15.8017 50.0508C16.5291 50.1467 16.8887 50.1946 17.3323 50.2386C19.2187 50.4224 20.8053 50.3465 21.7804 50.2866C22.308 50.2546 23.1752 50.1826 24.1144 50.0068C24.1144 50.0068 24.8337 49.8709 25.4812 49.6871C25.7649 49.6072 26.0287 49.5152 26.0447 49.5112C26.2205 49.4513 26.3324 49.4153 26.4803 49.3554C26.8919 49.1875 27.1797 49.0117 27.2396 48.9757C27.3755 48.8918 27.5473 48.7759 27.7312 48.62C28.5944 48.8238 29.2339 49.3674 29.3497 50.0268C29.3737 50.1747 29.3857 50.3945 29.3018 50.6662L29.3058 50.6742Z" fill="#FFCA40" stroke="#190B04" stroke-width="0.25" stroke-miterlimit="10"/>
<path d="M8.8798 50.9979C8.8798 50.9979 16.1494 54.7066 29.3018 50.6742" stroke="#190B04" stroke-width="0.25" stroke-miterlimit="10"/>
<path d="M28.3386 27.059C28.3386 27.059 26.4763 28.5977 22.5597 29.1252C22.5358 29.1292 22.5078 29.1332 22.4838 29.1372C20.4576 29.405 17.8879 29.401 14.7506 28.7855L11.9891 27.8104C11.9891 27.8104 12.4287 26.2957 14.5708 26.032C14.5708 26.032 18.6472 28.3859 24.2143 26.1399C25.0016 25.8241 25.9408 26.1399 26.6321 26.6354C26.748 26.7153 26.8599 26.8073 26.9838 26.8792C27.2636 27.0311 27.5793 27.075 27.903 27.075C28.0469 27.075 28.1948 27.067 28.3386 27.059Z" fill="#FFCA40" stroke="#190B04" stroke-width="0.25" stroke-miterlimit="10"/>
<path d="M20.7613 22.2433C22.3559 25.0168 24.1303 27.9063 26.0926 30.8677C28.5025 34.5005 30.9204 37.8215 33.2823 40.8469L33.4022 40.6111C31.2121 37.7336 28.9821 34.6323 26.752 31.3073C24.6699 28.202 22.7675 25.1687 21.0371 22.2433H20.7573H20.7613Z" fill="#190B04"/>
<path d="M26.1086 1.9252C26.1086 1.9252 22.0282 12.6278 20.7573 22.2433H21.0371C21.4407 19.7695 21.9523 17.1638 22.5957 14.4502C23.6668 9.93414 24.9416 5.82976 26.2765 2.157C26.2205 2.08106 26.1646 2.00113 26.1086 1.9252Z" fill="#190B04"/>
<path d="M25.8608 16.8361C25.8608 16.8361 23.0873 18.4067 20.9851 21.7197" stroke="#190B04" stroke-width="0.5" stroke-miterlimit="10"/>
<path d="M23.9185 21.6918C23.9185 21.6918 24.1184 19.4737 26.6481 17.9111" stroke="#190B04" stroke-width="0.5" stroke-miterlimit="10"/>
<path d="M50.0315 24.0217C49.5999 24.1976 48.9205 24.4253 48.0692 24.5053C46.2309 24.6731 45.6234 23.9458 43.849 24.0217C43.0297 24.0577 42.2703 24.3254 40.7477 24.861C39.0772 25.4484 37.8742 26.0479 37.4946 26.2358C35.3924 27.2748 33.6859 27.9502 30.2809 29.305C23.4509 32.0187 22.6916 31.3872 22.4958 31.1634C22.4998 30.1083 22.5477 29.333 22.5597 29.1252C26.4763 28.5977 28.3386 27.059 28.3386 27.059C28.5145 27.0231 28.7623 26.9671 29.062 26.8992C29.062 26.8992 29.8293 26.7313 30.5007 26.5595C31.4559 26.3117 32.403 26.0279 33.3382 25.7202C36.6793 24.6172 39.8085 22.8028 43.3134 22.2433C43.3134 22.2433 46.5905 17.2916 48.6807 20.8285C48.6807 20.8285 47.9174 21.468 46.6145 20.9005C46.6145 20.9005 45.7833 22.6109 47.7295 22.4191C47.9853 22.3392 48.1651 22.2193 48.289 22.1194C49.1083 21.42 48.8446 20.0972 48.8246 19.9973C49.5319 20.0492 50.0875 20.6447 50.0875 21.3481C50.0875 22.0514 49.5519 22.6229 48.8565 22.6869C49.7318 22.535 50.3712 22.9027 50.4351 23.2943C50.4911 23.634 50.1034 23.9618 50.0315 24.0217Z" fill="#FFCA40" stroke="#190B04" stroke-width="0.25" stroke-miterlimit="10"/>
<path d="M18.887 19.0781C19.2181 19.0781 19.4864 18.8097 19.4864 18.4786C19.4864 18.1475 19.2181 17.8791 18.887 17.8791C18.5559 17.8791 18.2875 18.1475 18.2875 18.4786C18.2875 18.8097 18.5559 19.0781 18.887 19.0781Z" fill="#190B04"/>
<path d="M25.7929 43.5365C25.7929 43.5365 19.1188 46.7057 12.2848 43.8842C13.0201 42.3895 13.5477 41.0907 13.9194 40.0995C13.9194 40.0995 14.4988 38.5529 15.2062 33.1457C15.2062 33.1217 15.2142 33.0657 15.1862 33.0098C15.1623 32.9658 15.1223 32.9379 15.0823 32.9139C14.5948 32.5902 14.0672 32.3464 13.5317 32.1106C9.43132 30.3242 4.51565 30.3002 0.974775 27.3348C0.287381 26.7593 -0.224169 25.8761 0.0995458 24.9689C0.259405 24.5213 0.591113 24.1536 0.974775 23.8738C2.78118 22.551 5.255 22.0554 7.43707 21.8636C9.73904 21.6598 12.053 21.8037 14.347 21.9675C14.4469 21.7957 14.5628 21.6318 14.6827 21.472C15.3621 20.5648 16.3972 19.7015 17.6081 19.8894C17.9238 19.9413 18.2276 20.0612 18.4953 20.2371C18.7111 20.3769 19.0748 20.6247 19.0548 20.9165C19.0468 21.0124 18.9909 21.0923 18.907 21.1363C18.7791 21.2082 18.6272 21.2082 18.4793 21.1962C18.0797 21.1562 17.688 21.1762 17.2964 21.2681C17.0846 21.3161 16.8368 21.428 16.8168 21.6438C17.3563 21.5759 18.0597 21.5799 18.5593 21.8356C18.811 21.9635 19.0708 22.2593 18.9389 22.555C18.815 22.8348 18.4434 22.8747 18.1396 22.9067C17.8399 22.9347 17.4642 23.0785 17.4602 23.3823C17.6641 23.2824 17.9918 23.1585 18.4074 23.1385C18.6872 23.1265 19.2746 23.0985 19.4185 23.3663C19.5983 23.698 19.0868 24.4493 18.4354 24.793C17.5282 25.2686 16.4571 24.873 16.2653 24.821C15.6458 24.6492 15.0983 24.3055 14.4909 24.1056C13.6436 24.3974 12.7644 24.6811 11.8532 24.9569C10.4944 25.3685 9.17554 25.7242 7.90866 26.0319C8.18042 26.1159 8.46817 26.2118 8.7679 26.3237C9.07563 26.4396 9.36737 26.5595 9.63913 26.6794C10.4224 27.055 11.2058 27.4307 11.9891 27.8104C12.2288 27.9263 12.5086 27.9902 12.7564 28.0821C13.0961 28.206 13.4318 28.3299 13.7715 28.4498C15.0863 28.9094 16.4411 29.1052 17.8279 29.2171C19.0109 29.313 20.2258 29.361 21.4127 29.2491C21.7964 29.2091 22.1761 29.1692 22.5597 29.1252C22.5278 29.7207 22.5118 30.3361 22.5118 30.9676C22.5118 33.3775 22.7755 35.5635 23.1552 37.4858C23.1552 37.4858 24.4621 41.79 25.7929 43.5365Z" fill="#FFCA40" stroke="#190B04" stroke-width="0.25" stroke-miterlimit="10"/>
<path d="M9.07562 25.7881C7.72481 26.0479 6.28209 26.5235 4.98723 26.7193C6.34203 26.3756 7.69284 26.0119 9.05164 25.6882L9.07562 25.7842V25.7881Z" fill="#190B04"/>
<path d="M7.92465 25.984C11.0859 26.9671 13.8115 29.1812 17.1525 29.5728V29.6088C13.8075 29.2411 11.0539 27.039 7.89668 26.0799L7.92465 25.984Z" fill="#190B04"/>
<path d="M52.7731 16.6083C52.6452 16.5683 52.5133 16.6242 52.4414 16.7441L52.2056 17.1358L23.0873 21.6798L22.284 20.9804L21.4008 21.1163L22.204 21.8157L21.9323 21.8596L21.129 21.1602L20.2458 21.2961L21.0491 21.9955L20.7773 22.0395L19.974 21.3401L19.0908 21.476L19.8941 22.1753L19.7542 22.3152L19.93 22.4071L19.3785 23.3183L20.2618 23.1825L20.8133 22.2713L21.085 22.2273L20.5335 23.1385L21.4167 23.0026L21.9683 22.0914L22.24 22.0475L21.6885 22.9587L22.5717 22.8228L23.1232 21.9116L52.2415 17.3676L52.5852 17.6673C52.6931 17.7592 52.833 17.7712 52.9449 17.6993L54 16.9759L52.7771 16.6083H52.7731Z" fill="#190B04"/>
</g>
<defs>
<clipPath id="clip0_400_9">
<rect width="54" height="55" fill="white"/>
</clipPath>
</defs>
</svg>
