<svg width="68" height="89" viewBox="0 0 68 89" fill="none" xmlns="http://www.w3.org/2000/svg">
<g clip-path="url(#clip0_423_686)">
<g clip-path="url(#clip1_423_686)">
<path d="M7.59861 65.0651C7.15253 60.5914 7.96365 59.019 11.7181 57.0017C12.9208 56.3539 14.1488 55.7348 15.4131 55.2238C19.023 53.7635 21.6832 51.1851 23.8627 48.0779C26.8166 43.8674 29.0966 39.3017 30.7207 34.4137C31.0402 33.4486 31.1697 32.8689 29.8866 32.3911C27.8246 31.6259 26.7561 29.6857 27.0463 27.9701C27.3625 26.1001 28.7486 24.6743 30.5246 24.5512C31.2815 24.4995 32.0637 24.6473 32.8197 24.7908C33.5374 24.9293 34.2319 25.1803 35.4172 25.5201C31.4702 20.8796 30.5431 15.9321 32.3677 10.6007C34.2044 5.22699 38.0738 1.78583 43.5506 0.610342C50.4979 -0.879589 59.0015 2.9935 61.4276 11.1498C62.6313 15.1963 61.807 18.9668 60.1213 22.7377C58.2808 26.846 54.6116 28.2251 50.8356 29.54C51.0113 30.1951 51.5981 30.0976 52.0331 30.2315C53.2014 30.5878 54.3435 30.961 55.288 31.7998C56.8042 33.1476 57.3406 34.8986 56.6509 36.4202C55.8788 38.1229 53.8825 39.2272 51.9501 38.7771C50.5931 38.4614 50.0556 38.8234 49.7903 40.1644C49.2584 42.8613 48.6689 45.5569 48.7258 48.3096C48.7935 51.5356 48.4927 54.7477 48.7281 57.9852C48.9863 61.5163 50.9152 64.1307 52.8266 66.8378C54.5234 69.239 56.1193 71.6725 55.6205 74.9041C55.466 75.9012 55.0992 76.6267 54.4606 77.2988C53.9182 77.8701 53.7981 78.2358 54.5791 78.8353C56.3425 80.1837 56.6334 83.1531 55.3897 85.5421C54.335 87.5699 51.9719 88.5477 49.732 87.9026C35.4996 83.8042 21.2612 79.7164 7.0312 75.6096C5.53269 75.18 4.01079 74.7468 3.01879 73.3813C1.63409 71.4788 1.63635 69.3722 2.701 67.4694C3.67236 65.7322 5.2276 64.4831 7.6099 65.0683L7.59861 65.0651ZM53.2434 80.3306L53.2623 80.3604C53.0274 79.667 52.4126 79.4999 51.8087 79.3268C50.6516 78.9951 49.4902 78.6683 48.3323 78.3394C48.1843 77.8542 47.7177 77.9159 47.3734 77.8172C34.5182 74.1136 21.6642 70.4166 8.80327 66.7328C6.74317 66.1422 5.12035 67.2009 4.49411 69.4707C3.97831 71.3446 4.76807 72.4994 6.96122 73.1158C21.3896 77.1696 35.8152 81.2225 50.242 85.2819C52.5622 85.9348 53.8201 84.8173 53.6062 82.2609C53.8492 81.5518 53.751 80.9036 53.249 80.3322L53.2434 80.3306ZM53.1845 32.8093C52.9467 32.7228 52.7125 32.6342 52.4746 32.5477C51.7843 32.0475 50.9626 31.8669 50.1696 31.6396C45.2859 30.2457 40.3952 28.8651 35.5026 27.5022C34.281 27.1612 33.0465 26.8439 31.7999 26.6331C30.76 26.4572 29.6933 27.0035 29.3898 27.8174C29.0478 28.7332 29.4517 29.8385 30.6345 30.2723C31.4133 30.5597 32.1764 30.8914 32.9714 31.1224C38.2671 32.6771 43.5685 34.2122 48.8699 35.7472C49.95 36.0598 51.0223 36.41 52.1218 36.6336C53.6994 36.9576 54.829 36.0323 54.7016 34.591C54.6161 33.6533 53.8426 33.2728 53.1861 32.8036L53.1845 32.8093ZM20.2903 59.4102C19.7832 59.2404 19.2854 59.0274 18.7673 58.9064C17.7388 58.6696 16.7188 57.9344 15.6882 58.2589C13.9872 58.7913 12.3373 59.4971 11.1041 60.9332C9.85677 62.3867 10.1152 64.2443 11.8369 65.3547C16.6699 66.7555 21.4952 68.1723 26.3338 69.5533C33.8485 71.6984 41.3705 73.818 48.8893 75.949C49.7569 75.7244 50.5264 76.513 51.4038 76.1904C52.2474 76.1879 52.6486 75.683 52.9699 74.9566C53.9849 72.6517 52.5064 71.0124 51.4207 69.3452C50.6572 68.1735 49.8776 66.8658 48.1562 66.7449C45.9224 66.5901 43.7537 66.0692 41.5981 65.4604C40.2483 65.0766 38.9423 64.4762 37.5056 64.4277C31.77 62.756 26.0316 61.0835 20.296 59.4118L20.2903 59.4102ZM49.7237 26.9949C55.1729 26.4376 59.4148 21.3564 59.4104 15.406C59.4046 6.4348 50.9473 0.354759 42.2511 3.65214C35.9324 6.04913 32.4578 13.5675 34.9508 19.8282C36.9288 24.796 43.1893 28.4506 49.0619 27.0984C49.2825 27.0639 49.5031 27.0294 49.7229 26.9978L49.7237 26.9949ZM46.317 60.3449C45.1279 51.1017 45.8608 46.7981 47.5 38.6405C47.6571 37.8579 47.3568 37.7444 46.7783 37.5785C42.6911 36.4099 38.6024 35.2469 34.5359 34.0171C33.7122 33.7687 33.5813 34.0977 33.3533 34.7439C32.5367 37.0599 31.8079 39.4315 30.7458 41.6344C28.6713 45.9413 26.3376 50.119 22.6248 53.8341C30.9715 55.0693 38.4999 58.1681 46.3186 60.3393L46.317 60.3449ZM18.2772 56.7167C27.9963 59.5884 37.5199 62.8224 47.4367 64.6422C47.7036 64.6912 48.0252 64.9116 48.2388 64.6033C48.4516 64.2979 48.1489 64.0645 48.008 63.8317C47.7773 63.4541 47.4472 63.2098 47.0252 63.0094C43.811 61.4803 40.3098 60.8034 36.9771 59.6128C32.7169 58.0892 28.3177 56.8586 23.8378 56.1546C22.0847 55.8781 20.0813 54.525 18.2764 56.7195L18.2772 56.7167Z" fill="#211C17"/>
<path d="M49.0629 27.0956C43.1904 28.4478 36.9299 24.7932 34.9519 19.8254C32.4588 13.5647 35.9335 6.04634 42.2521 3.64934C50.9483 0.351964 59.4028 6.4312 59.4114 15.4032C59.4158 21.3536 55.174 26.4348 49.7247 26.9921C49.6913 26.9276 49.6607 26.8639 49.6281 26.7965C49.7819 26.6543 49.9365 26.5092 50.0902 26.367C50.1181 26.3445 50.1467 26.3191 50.1746 26.2965C50.1479 26.3255 50.1241 26.3554 50.0975 26.3844C49.1383 26.2254 48.1584 26.1492 47.2268 25.8943C43.1775 24.7854 40.4889 22.1365 39.369 18.1598C38.1328 13.7681 39.3182 9.87821 42.6031 6.67566C43.7816 5.52622 45.1591 4.68423 46.7278 4.14445C43.5745 4.39491 40.7932 5.43607 38.7195 7.92916C36.9392 10.0697 35.7133 12.4393 35.6168 15.3221C35.5091 18.5101 36.7615 21.3428 38.5596 23.6784C40.035 25.5948 42.5267 26.5656 45.0898 26.9034C46.399 27.0771 47.7036 26.596 48.9985 26.958C49.019 27.0036 49.0396 27.0492 49.0601 27.0948L49.0629 27.0956Z" fill="white"/>
<path d="M53.6004 82.2593C53.8115 84.8149 52.5536 85.9324 50.2362 85.2803C35.8094 81.2209 21.3847 77.1652 6.95544 73.1143C4.7623 72.4978 3.97254 71.343 4.48834 69.4691C5.11539 67.1965 6.73739 66.1406 8.79749 66.7312C21.6576 70.4178 34.5124 74.112 47.3676 77.8156C47.7119 77.9143 48.1794 77.8498 48.3265 78.3378C44.5817 77.2643 40.8396 76.1916 37.0948 75.118C38.8423 76.1809 41.6052 75.9926 41.6764 78.8868C41.6966 79.7325 41.8913 81.2481 40.2966 81.4414C40.7058 81.5587 41.1763 81.6753 41.6399 81.8265C44.4599 82.7601 44.8835 82.5395 45.3737 79.4978C45.512 78.6426 45.8669 78.5336 46.5341 78.7096C48.766 79.2975 51.1501 79.2694 53.261 80.354L53.242 80.3241C53.3604 80.9658 53.4808 81.6111 53.5992 82.2528L53.6004 82.2593Z" fill="#F9B001"/>
<path d="M46.3199 60.3458C38.5012 58.1746 30.9756 55.0767 22.6261 53.8406C26.3397 50.1226 28.6698 45.947 30.7471 41.6409C31.81 39.4352 32.5379 37.0664 33.3546 34.7504C33.5826 34.1042 33.7143 33.7724 34.5371 34.0236C38.6065 35.2543 42.6924 36.4164 46.7796 37.585C47.3581 37.7509 47.6592 37.8616 47.5012 38.647C45.8621 46.8046 45.13 51.1054 46.3183 60.3514L46.3199 60.3458ZM42.0555 38.958C42.0555 38.958 42.0571 38.9523 42.0587 38.9467C43.2327 39.2832 44.4131 39.5972 45.5782 39.9648C46.2704 40.1815 46.7413 40.2432 46.9841 39.3325C47.2143 38.4762 46.8446 38.3061 46.1618 38.0035C43.3377 36.7541 40.2799 36.299 37.3838 35.3008C35.0081 34.4793 34.9976 34.5587 34.2075 36.9953C33.9527 37.7773 33.5605 38.517 33.2889 39.2942C31.7615 43.6419 29.6885 47.6988 26.9108 51.3797C25.1296 53.7367 25.1192 53.6879 28.0348 54.5115C29.043 54.7975 29.5392 54.6221 30.1264 53.6605C32.9585 49.0332 35.4137 44.2399 37.0361 39.0491C37.3402 38.0735 37.8378 37.584 38.9698 38.0459C39.9598 38.4488 41.0262 38.6599 42.0591 38.9559L42.0555 38.958Z" fill="white"/>
<path d="M37.501 64.4234C38.9377 64.4719 40.2429 65.0751 41.5935 65.4562C43.7483 66.0678 45.9178 66.5859 48.1517 66.7407C49.873 66.8615 50.6554 68.17 51.4161 69.3409C52.5018 71.0081 53.9803 72.6474 52.9653 74.9523C52.6449 75.6759 52.2428 76.1836 51.3984 76.1889C51.6254 75.3011 51.0488 75.203 50.38 75.0113C40.9749 72.3335 31.5823 69.6226 22.1837 66.9222C20.7472 66.5104 19.4724 65.8121 18.4915 64.6635C17.5174 63.5231 17.6621 62.6667 18.9374 61.9573C19.8997 61.4238 20.8442 60.8456 21.9498 60.4937C20.8396 60.0625 19.6865 59.8449 18.6288 59.4012C17.2381 58.8193 16.0571 59.0824 14.9527 59.9629C14.1169 60.6304 13.2945 61.3261 12.5321 62.0787C12.1442 62.4622 11.9409 63.0544 12.3106 63.5544C12.928 64.3941 13.4583 65.2821 14.6299 65.6057C19.7185 67.0095 24.7881 68.4903 29.8589 69.9562C37.0406 72.0272 44.2191 74.1094 51.3992 76.1861C50.5218 76.5087 49.7523 75.7201 48.8847 75.9447C48.6366 75.5743 48.208 75.5889 47.8467 75.4853C36.5444 72.2453 25.2449 69.0061 13.9345 65.7943C13.2516 65.5985 12.6011 65.1616 11.8295 65.3496C10.1078 64.2392 9.84937 62.3816 11.0967 60.9281C12.3307 59.4892 13.9798 58.7862 15.6808 58.2538C16.7142 57.9301 17.7306 58.6673 18.7599 58.9013C19.2788 59.0195 19.7766 59.2325 20.2829 59.4051C21.6944 60.2128 23.2999 60.4502 24.8331 60.8866C29.0461 62.0852 33.1999 63.5111 37.4954 64.4218L37.501 64.4234Z" fill="white"/>
<path d="M53.1822 32.8057C53.8387 33.2749 54.6122 33.6554 54.6977 34.5931C54.8278 36.0352 53.6983 36.9605 52.1179 36.6357C51.0192 36.4093 49.946 36.062 48.866 35.7493C43.5646 34.2143 38.264 32.6764 32.9674 31.1245C32.1732 30.8907 31.4074 30.5581 30.6305 30.2744C29.4478 29.8406 29.0467 28.7362 29.3859 27.8195C29.6894 27.0056 30.7589 26.4601 31.7959 26.6352C33.0454 26.8468 34.2763 27.1661 35.4986 27.5043C40.3913 28.8672 45.2819 30.2478 50.1657 31.6417C50.9587 31.869 51.7804 32.0496 52.4707 32.5499C48.7569 31.4852 45.043 30.4206 41.3264 29.3551C45.0355 30.7452 48.8304 31.8361 52.6301 32.9101C52.7909 32.9562 52.9963 32.8471 53.1814 32.8086L53.1822 32.8057Z" fill="#F9B001"/>
<path d="M18.2796 56.7175C20.0845 54.5229 22.0879 55.876 23.841 56.1526C28.3237 56.8574 32.7229 58.088 36.9803 59.6108C40.3129 60.8013 43.8142 61.4782 47.0284 63.0074C47.4504 63.2077 47.7804 63.452 48.0112 63.8297C48.1521 64.0625 48.4547 64.2958 48.242 64.6013C48.0247 64.9116 47.7068 64.6891 47.4399 64.6401C37.5231 62.8203 27.9995 59.5863 18.2804 56.7146L18.2796 56.7175Z" fill="#F9B001"/>
<path d="M53.2595 80.3597C51.1486 79.2751 48.7645 79.3032 46.5327 78.7153C45.8683 78.5401 45.5105 78.6483 45.3722 79.5035C44.8828 82.5424 44.4584 82.7658 41.6385 81.8322C41.1785 81.679 40.7044 81.5644 40.2952 81.4471C41.8926 81.2546 41.696 79.7353 41.6749 78.8925C41.6065 75.9991 38.8408 76.1866 37.0933 75.1237C40.8381 76.1972 44.5802 77.27 48.325 78.3435C49.4821 78.6752 50.6444 78.9992 51.8014 79.3309C52.4053 79.504 53.0201 79.6711 53.255 80.3645L53.2595 80.3597Z" fill="white"/>
<path d="M11.8343 65.354C12.6059 65.166 13.2564 65.6029 13.9393 65.7987C25.2489 69.0133 36.5492 72.2497 47.8515 75.4897C48.2127 75.5933 48.6414 75.5787 48.8895 75.9491C41.3679 73.8174 33.8459 71.6977 26.3312 69.5526C21.4925 68.1716 16.6673 66.7548 11.8343 65.354Z" fill="#F9B001"/>
<path d="M37.5005 64.4235C33.2051 63.5128 29.0532 62.0905 24.8383 60.8883C23.3051 60.4518 21.7004 60.2117 20.2881 59.4067C26.0265 61.0793 31.7621 62.751 37.5005 64.4235Z" fill="#F9B001"/>
<path d="M53.1821 32.8057C52.9978 32.8415 52.7925 32.9506 52.6308 32.9073C48.8311 31.8333 45.0362 30.7424 41.3271 29.3523C45.041 30.4169 48.7576 31.4824 52.4714 32.547C52.7064 32.6327 52.9435 32.722 53.1785 32.8077L53.1821 32.8057Z" fill="white"/>
<path d="M53.6004 82.2592C53.482 81.6176 53.3616 80.9722 53.2432 80.3306C53.7451 80.902 53.8433 81.5501 53.6004 82.2592Z" fill="white"/>
<path d="M49.7235 26.9949C49.5028 27.0294 49.2822 27.0639 49.0624 27.0956C49.0419 27.05 49.0214 27.0044 49.0009 26.9588C49.1503 26.6718 49.3834 26.7112 49.6268 26.7993C49.6566 26.8658 49.69 26.9304 49.7235 26.9949Z" fill="white"/>
<path d="M49.6303 26.8001C49.386 26.7148 49.1538 26.6727 49.0043 26.9597C47.7094 26.5976 46.4057 27.0759 45.0957 26.905C42.5325 26.5673 40.0408 25.5964 38.5654 23.6801C36.7674 21.3445 35.515 18.5117 35.6226 15.3237C35.7191 12.441 36.9451 10.0713 38.7253 7.93082C40.799 5.43773 43.5804 4.39657 46.7336 4.14611C45.1649 4.68589 43.7874 5.52787 42.6089 6.67731C39.3212 9.87905 38.1395 13.767 39.3748 18.1615C40.4939 22.141 43.1797 24.7891 47.2326 25.896C48.1643 26.1508 49.1441 26.2271 50.1033 26.386L50.0953 26.3715C49.9415 26.5137 49.7869 26.6587 49.6332 26.801L49.6303 26.8001Z" fill="#F9B001"/>
<path d="M50.1003 26.3851C50.127 26.3561 50.1508 26.3263 50.1774 26.2973C50.1496 26.3198 50.1209 26.3452 50.0931 26.3678L50.1011 26.3823L50.1003 26.3851Z" fill="#F9B001"/>
<path d="M42.0516 38.9601C41.0187 38.664 39.9523 38.4529 38.9623 38.05C37.8304 37.5881 37.3327 38.0776 37.0286 39.0532C35.4054 44.2469 32.9538 49.0382 30.1189 53.6646C29.5317 54.6262 29.0335 54.798 28.0273 54.5156C25.1145 53.6928 25.1241 53.7445 26.9034 51.3838C29.681 47.7029 31.7577 43.644 33.2814 39.2983C33.5531 38.5211 33.9481 37.7823 34.2 36.9994C34.9901 34.5628 34.9999 34.4862 37.3763 35.3049C40.2716 36.3059 43.3294 36.761 46.1543 38.0076C46.8372 38.3102 47.2076 38.4775 46.9766 39.3366C46.731 40.2465 46.2593 40.1876 45.5707 39.9689C44.4056 39.6013 43.2252 39.2873 42.0512 38.9508C42.0504 38.9536 42.0496 38.9564 42.048 38.9621L42.0516 38.9601Z" fill="#F9B001"/>
<path d="M51.4046 76.1877C44.2245 74.1111 37.046 72.0288 29.8643 69.9578C24.7899 68.494 19.7239 67.0112 14.6353 65.6074C13.4609 65.2829 12.9334 64.3957 12.316 63.556C11.9462 63.0561 12.1496 62.4639 12.5375 62.0803C13.2999 61.3277 14.1223 60.632 14.958 59.9646C16.0625 59.084 17.2435 58.8209 18.6342 59.4029C19.6919 59.8466 20.845 60.0641 21.9552 60.4954C20.8496 60.8472 19.9059 61.4227 18.9428 61.9589C17.6675 62.6683 17.5228 63.5247 18.4969 64.6652C19.4778 65.8137 20.7534 66.5092 22.1891 66.9238C31.5869 69.6271 40.9803 72.3351 50.3854 75.013C51.0542 75.2047 51.6308 75.3028 51.4038 76.1905L51.4046 76.1877Z" fill="#F9B001"/>
</g>
</g>
<defs>
<clipPath id="clip0_423_686">
<rect width="68" height="89" fill="white"/>
</clipPath>
<clipPath id="clip1_423_686">
<rect width="55.9372" height="83.941" fill="white" transform="translate(23.8164 -6.84863) rotate(15.996)"/>
</clipPath>
</defs>
</svg>
