<svg width="74" height="103" viewBox="0 0 74 103" fill="none" xmlns="http://www.w3.org/2000/svg">
<g clip-path="url(#clip0_423_691)">
<path d="M9.66498 14.6918C9.43733 13.8537 9.19888 13.0216 8.9828 12.1804C8.59056 10.6334 9.21471 9.53274 10.703 9.11912C11.6654 8.85149 12.6287 8.59916 13.595 8.34603C14.7349 8.04573 15.5853 8.45311 16.0033 9.52288C16.4896 10.764 17.2834 11.8096 18.0136 13.1247C18.1856 11.8012 18.0138 10.677 17.88 9.55494C17.6993 8.06572 18.2594 7.00426 19.7018 6.54709C21.2677 6.0532 22.8589 5.65212 24.4804 5.33936C25.5668 5.12832 26.1002 5.54708 26.6667 6.3741C27.3053 7.30611 27.2464 8.64555 28.4068 9.43893C28.7225 7.56886 27.0051 5.31995 29.1416 4.22581C30.5932 3.48272 32.4183 2.67246 34.1235 3.06872C35.9421 3.49336 35.7817 5.76344 36.9112 7.27832C36.8554 5.78007 36.7642 4.60906 36.7851 3.43875C36.7988 2.51641 37.1967 1.80732 38.2381 1.67079C38.4842 1.63822 38.7242 1.56057 38.9613 1.48371C42.3769 0.38463 42.1887 0.607033 42.7256 4.21979C43.3075 8.14727 43.2756 12.1605 43.6371 16.123C43.7577 17.448 43.3122 18.4284 42.5569 19.3778C42.3881 19.5918 41.8855 19.7439 42.1258 20.0336C42.9633 21.0455 42.7688 22.5837 44.0463 23.4076C45.9144 24.6097 46.705 27.0855 46.1712 28.4387C45.6788 29.681 44.7121 30.2986 43.4507 30.4607C42.2525 30.6149 41.9762 31.1539 42.3615 32.2979C43.7792 36.5216 45.2574 40.7163 46.9972 44.8213C48.737 48.9263 50.7979 52.8288 53.5015 56.3855C54.1254 57.2063 54.8628 57.7471 55.8372 58.0617C58.4094 58.8919 58.9237 59.9387 57.957 62.49C57.6458 63.3126 58.2293 63.4468 58.6504 63.7154C61.3239 65.4337 64.0659 67.0493 66.6722 68.8637C69.4248 70.7816 70.2326 73.1374 68.5351 75.962C69.627 76.4003 70.5999 76.9955 71.5491 77.7093C73.0955 78.8711 73.236 80.3837 72.9783 82.0325C72.7246 83.6616 71.5715 84.4512 70.0597 84.8588C53.675 89.3032 37.2934 93.7592 20.9094 98.2065C18.3043 98.9142 17.1552 98.5973 16.0474 96.9333C14.8571 95.1484 14.8903 92.6046 16.3443 90.9547C17.1704 90.0141 17.2927 89.629 16.1226 88.8569C14.2352 87.6071 13.8431 85.294 14.8506 82.744C15.6921 80.6128 16.7916 78.6076 17.8875 76.6004C18.4337 75.6019 18.8747 74.5479 19.3959 73.5375C19.6345 73.0772 19.5996 72.9715 19.0541 72.7367C17.2222 71.9544 16.7919 69.9008 18.2381 68.5084C19.1371 67.6414 19.5562 66.6899 19.6923 65.5319C20.231 60.9014 20.0154 56.2859 19.4004 51.676C18.8323 47.3991 18.0752 43.1704 16.8882 39.0181C16.6012 38.0186 16.2819 37.7472 15.2785 38.1038C13.7528 38.6428 12.2856 38.3906 11.2799 37.0569C10.2803 35.7341 10.1949 34.1722 11.0726 32.7692C11.5529 31.9972 11.3163 31.5726 11.0802 30.8178C10.6035 29.3031 9.8852 28.3522 8.47808 27.4515C6.50234 26.1852 6.04012 23.6482 5.01353 21.6196C3.77748 19.1746 2.73802 16.6294 1.52355 14.1723C0.593964 12.2948 0.776837 11.778 2.828 11.2738C3.11903 11.201 3.41031 11.1406 3.70056 11.0648C5.47535 10.6035 6.8723 11.1655 7.8914 12.7508C8.33804 13.4454 8.78046 14.1473 9.22421 14.8426C9.36947 14.7938 9.51472 14.745 9.66367 14.6984L9.66498 14.6918ZM38.0255 31.9655C37.7021 32.0564 37.3758 32.1482 37.0532 32.242C36.593 32.367 36.1327 32.4921 35.6717 32.6142C31.2718 33.6941 26.8931 34.8524 22.568 36.2078C22.0231 36.3528 21.4773 36.4948 20.9324 36.6397C20.4292 36.767 19.9232 36.8951 19.4201 37.0224C18.7641 37.1134 18.9907 37.547 19.0871 37.9132C19.8941 41.0446 20.8191 44.1409 21.3628 47.3439C21.8727 50.3537 22.442 53.3535 22.684 56.3955C22.9443 59.6537 23.0214 62.9242 22.5458 66.2422L51.3871 58.4079C49.6437 55.674 47.9731 52.9796 46.5431 50.1294C44.8635 46.7835 43.5001 43.3205 42.2796 39.8C41.4461 37.3951 40.9139 34.8865 40.2082 32.4376C40.104 32.0766 40.307 31.2679 39.412 31.5888C39.0465 31.6508 38.6027 31.5502 38.4428 32.0483C38.3054 32.0233 38.1702 31.9947 38.0329 31.9697L38.0255 31.9655ZM61.3219 85.3016C64.1611 84.5864 67.0049 83.8762 69.8402 83.1465C70.6038 82.9484 71.2571 82.5499 71.2339 81.6407C71.1679 79.1207 69.2893 77.2052 66.9234 77.798C66.4864 77.8825 66.0393 77.9416 65.6101 78.0551C55.6416 80.7411 45.6722 83.4242 35.7128 86.1326C30.6589 87.5054 25.6247 88.9508 20.5721 90.317C18.7399 90.8147 17.467 91.7583 17.0952 93.7308C16.7596 95.516 18.2722 97.0109 19.9836 96.5491C27.6424 94.4906 35.309 92.461 42.9622 90.3821C48.1087 88.9841 53.2342 87.5203 58.3676 86.0854C59.3533 85.8239 60.339 85.5623 61.3248 85.3008L61.3219 85.3016ZM29.8134 68.3847C30.3046 68.3167 30.81 68.3008 31.2848 68.1719C37.5536 66.5002 43.8184 64.814 50.0817 63.1221C50.5998 62.9813 51.1768 62.9429 51.5723 62.4992C53.1585 61.9655 54.8378 61.6371 56.215 60.5281C55.0692 59.4567 53.9089 60.0023 52.7717 60.2209C52.3922 59.8538 52.0171 60.155 51.6611 60.2517C43.2335 62.5347 34.8074 64.8235 26.389 67.1289C25.9924 67.2366 25.456 67.1612 25.2686 67.7072C23.4888 68.4896 21.2839 68.2447 19.8383 70.0169C20.6542 69.8513 21.3602 70.2076 22.1509 70.1547C24.8099 69.9774 27.2426 68.8869 29.8163 68.384L29.8134 68.3847ZM38.1734 21.2848C37.6779 20.9024 37.213 21.2623 36.7673 21.3833C30.0332 23.2188 23.3031 25.0687 16.579 26.9294C15.5357 27.2191 14.4944 27.4708 13.4831 27.9354C12.5352 28.3704 12.7203 29.0177 12.8347 29.6219C12.9803 30.3982 13.5751 30.5169 14.3169 30.3185C22.7874 28.0332 31.2605 25.7689 39.7318 23.4865C40.4179 23.3002 41.1715 23.0083 41.1609 22.1797C41.1509 21.2389 40.3496 21.058 39.5717 20.9859C39.1072 21.084 38.6407 21.1859 38.1763 21.284L38.1734 21.2848ZM42.4621 24.8531C42.2961 24.8826 42.13 24.9121 41.964 24.9417C41.2413 24.7985 40.5821 25.0835 39.9164 25.2643C32.7876 27.1914 25.662 29.1301 18.5401 31.0709C17.0002 31.4891 15.4487 31.8763 13.9367 32.3742C12.9443 32.703 12.1009 34.461 12.488 35.3368C13.0293 36.563 14.0048 36.2638 15.0179 35.9886C24.3084 33.4494 33.6038 30.94 42.9006 28.4241C43.6735 28.2141 44.5668 28.1272 44.3682 26.9729C44.1812 25.884 44.0577 24.6968 42.4679 24.8515L42.4621 24.8531ZM12.0917 26.1429C21.2761 23.6481 30.4577 21.1541 39.6421 18.6593C41.2487 18.5779 41.5031 17.5808 41.4309 16.2053C41.1997 11.7155 40.3036 7.27233 40.5142 2.74967C38.3676 3.10855 38.4268 3.12049 38.4133 5.14202C38.4064 6.21511 38.6974 7.26334 38.4671 8.3722C38.3452 8.95336 38.34 9.4032 37.7363 9.62946C37.0937 9.87253 36.5185 9.92912 35.9674 9.35327C35.1998 8.55283 34.8149 7.5706 34.5042 6.55265C33.8626 4.45371 33.877 4.44978 31.8211 5.00513C31.6272 5.05781 31.4374 5.13737 31.2435 5.15579C30.2218 5.26205 29.9705 5.81298 30.0942 6.79455C30.2506 8.05684 30.2633 9.33946 30.2963 10.6166C30.3146 11.359 29.8747 11.8335 29.1774 12.0011C28.4511 12.1766 27.7338 12.2593 27.2233 11.4669C26.6105 10.5154 25.9599 9.59602 25.6516 8.48399C25.3401 7.36035 24.8082 6.6952 23.4743 7.25373C22.6064 7.61716 21.6599 7.80574 20.7355 8.00702C19.9198 8.185 19.5447 8.52044 19.7123 9.44647C19.9119 10.5475 19.9913 11.675 20.0341 12.7938C20.066 13.6321 20.3565 14.6556 19.1534 14.998C18.0313 15.3183 16.9797 15.3144 16.31 14.1075C15.7196 13.044 14.9145 12.0482 14.5686 10.9122C14.1119 9.41384 13.2533 10.0861 12.4639 10.2694C11.6455 10.4606 10.8751 10.5764 11.0273 11.8804C11.1721 13.1458 11.6447 14.3595 11.543 15.667C11.4651 16.6847 10.7605 17.1345 10.0124 17.4125C9.2924 17.6797 8.69991 17.1462 8.29637 16.5645C7.7151 15.729 7.03516 14.9079 6.69047 13.9708C6.17922 12.5807 5.2124 12.4198 4.00704 12.5822C3.50632 12.6497 3.22238 12.7486 3.53431 13.4393C5.33128 17.3886 7.24694 21.2714 9.31839 25.087C10.0212 26.3815 10.8391 26.6576 12.0938 26.1392L12.0917 26.1429ZM24.8706 71.9632C23.4124 72.1787 22.0375 72.4837 21.8137 74.3257C21.7793 74.5997 21.5319 74.8444 21.3926 75.1096C19.9685 77.7852 18.4724 80.4243 17.1417 83.1462C15.9904 85.4986 17.1688 87.651 19.6089 87.938C20.1929 88.1312 20.6824 87.9079 21.1517 87.5874C21.4816 87.4978 21.8132 87.4139 22.1432 87.3243C22.4344 87.2981 22.7383 87.3183 23.0162 87.2429C36.083 83.6966 49.1453 80.1453 62.2114 76.5961C63.2563 75.786 64.5871 75.8107 65.7608 75.3829C66.2468 75.2041 66.8703 75.234 66.9176 74.4925L66.9192 74.4983C67.6523 73.2155 67.027 72.1834 66.2066 71.2914C65.3259 70.338 64.2065 69.6611 63.0882 68.9996C60.7505 67.6136 58.3088 66.3711 56.2365 64.5891C55.6127 64.0548 55.1481 63.9693 54.41 64.1697C46.3273 66.384 38.2368 68.5692 30.1478 70.7602C28.3885 71.1602 26.6328 71.5624 24.8735 71.9624L24.8706 71.9632Z" fill="#131414"/>
<path d="M20.9319 36.637C21.4769 36.4921 22.0226 36.3501 22.5676 36.2052C22.6941 36.831 22.1766 36.791 21.829 36.9072C20.3093 37.4154 19.7982 38.4439 20.2955 39.9924C20.336 40.1184 20.3996 40.2382 20.4768 40.4196C20.3997 39.6247 20.4484 38.9534 20.6229 38.4057C20.718 38.5386 20.8293 38.6392 20.8653 38.7602C22.7063 44.84 23.9412 51.0222 24.2287 57.39C24.3338 59.6876 24.1415 61.9664 24.1605 64.2562C24.168 65.0389 24.4079 65.1668 25.1362 65.0219C28.7288 64.3108 28.7335 64.3282 28.7776 60.6915C28.7863 60.0943 28.854 59.4968 28.8264 58.9032C28.5467 52.6329 27.0708 46.5816 25.416 40.5696C24.8039 38.3505 24.4407 37.6084 27.6834 36.6622C31.073 35.6729 34.5455 34.9663 37.9703 34.0952C39.9646 33.5877 39.9559 33.5558 39.4021 31.5856C40.2971 31.2647 40.0941 32.0734 40.1983 32.4344C40.9047 34.8863 41.4362 37.3919 42.2697 39.7968C43.4894 43.3144 44.8535 46.7803 46.5332 50.1262C47.9661 52.9756 49.6367 55.67 51.3772 58.4047L22.5446 66.2366C23.0202 62.9187 22.943 59.6481 22.6827 56.39C22.4407 53.3479 21.8714 50.3481 21.3616 47.3383C20.8179 44.1354 19.8929 41.0391 19.0858 37.9076C18.9924 37.5407 18.7629 37.1079 19.4189 37.0169C19.99 37.1514 20.4994 37.0472 20.9311 36.6341L20.9319 36.637Z" fill="white"/>
<path d="M30.1419 70.7619C38.2308 68.5709 46.3214 66.3857 54.404 64.1714C55.145 63.9702 55.6089 64.0528 56.2305 64.5908C58.302 66.3699 60.7445 67.6153 63.0822 69.0013C64.2014 69.6657 65.3229 70.3389 66.2006 71.2931C67.0239 72.1843 67.6464 73.2172 66.9103 74.5008C66.626 73.8774 66.141 74.0372 65.651 74.1672C64.4945 74.4751 63.3265 74.7519 62.1715 75.0656C52.4864 77.6964 42.8012 80.3272 33.1191 82.9697C31.7124 83.3518 30.275 83.4838 28.8303 83.5088C27.1601 83.5389 26.1821 82.5932 25.9283 80.9152C25.7375 79.6405 25.9762 78.4484 26.3215 77.2366C26.8174 75.492 27.2217 73.7193 27.6675 71.9509C24.9995 71.7975 23.8885 73.5317 22.9422 75.4485C21.597 78.1743 20.4452 80.994 18.8163 83.5789C18.2688 84.4469 18.0881 85.3835 18.8287 86.3594C19.5701 87.3382 20.342 87.468 21.5106 87.1474C34.1727 83.6675 46.8554 80.2629 59.5214 76.7975C62.0092 76.1155 64.572 75.6529 66.9116 74.4942C66.8636 75.2328 66.238 75.2066 65.7548 75.3846C64.5783 75.8131 63.2504 75.7877 62.2054 76.5978C61.701 76.2397 61.2435 76.6037 60.7912 76.7235C52.3641 78.997 43.9331 81.256 35.5201 83.5818C31.0565 84.816 26.5248 85.8228 22.138 87.3289C21.808 87.4185 21.4765 87.5024 21.1465 87.592C20.5922 87.5308 20.0964 87.7309 19.6038 87.9426C17.1636 87.6556 15.9853 85.5032 17.1366 83.1508C18.4673 80.4289 19.9634 77.7898 21.3874 75.1142C21.5275 74.8519 21.7771 74.6035 21.8085 74.3303C22.0324 72.4882 23.4073 72.1833 24.8655 71.9678C26.7217 71.993 28.4067 71.2737 30.1398 70.7656L30.1419 70.7619Z" fill="white"/>
<path d="M12.0887 26.1437C10.8331 26.6591 10.0161 26.3859 9.31325 25.0915C7.24258 21.2787 5.32613 17.393 3.52917 13.4437C3.21434 12.7538 3.50118 12.6541 4.0019 12.5866C5.20726 12.4242 6.17408 12.5851 6.68533 13.9752C7.03001 14.9123 7.70995 15.7334 8.29122 16.5689C8.69477 17.1506 9.28725 17.6841 10.0072 17.4169C10.7554 17.1389 11.4571 16.6899 11.5379 15.6714C11.6396 14.364 11.1669 13.1502 11.0221 11.8848C10.8729 10.5801 11.6404 10.465 12.4587 10.2739C13.2482 10.0906 14.1068 9.41827 14.5635 10.9166C14.9094 12.0527 15.7145 13.0484 16.3048 14.1119C16.9746 15.3188 18.0233 15.3235 19.1482 15.0024C20.3513 14.66 20.0638 13.6358 20.029 12.7982C19.9862 11.6795 19.9068 10.552 19.7072 9.4509C19.5395 8.52487 19.9146 8.18943 20.7303 8.01145C21.6547 7.81017 22.6033 7.6179 23.4691 7.25816C24.8031 6.69962 25.335 7.36478 25.6464 8.48842C25.9547 9.60045 26.6054 10.5198 27.2182 11.4713C27.7287 12.2637 28.446 12.181 29.1722 12.0055C29.8658 11.8358 30.3094 11.3634 30.2911 10.621C30.2618 9.346 30.2462 8.06417 30.089 6.79898C29.9675 5.81372 30.2196 5.26569 31.2384 5.16022C31.4352 5.14102 31.6249 5.06145 31.816 5.00956C33.8719 4.45421 33.8574 4.45815 34.499 6.55708C34.8097 7.57503 35.1947 8.55726 35.9622 9.3577C36.5134 9.93355 37.0885 9.87696 37.7312 9.63389C38.3349 9.40763 38.3401 8.95779 38.462 8.37663C38.6923 7.26777 38.4013 6.21954 38.4082 5.14645C38.4216 3.12492 38.3617 3.11007 40.509 2.7541C40.2993 7.27966 41.1946 11.7199 41.4258 16.2098C41.4972 17.5824 41.2435 18.5823 39.637 18.6637C39.2953 18.4701 38.9582 18.6021 38.6245 18.6896C30.1724 20.9855 21.7195 23.2785 13.2653 25.578C12.8427 25.6928 12.3675 25.7285 12.0866 26.1474L12.0887 26.1437ZM6.58773 15.4124C7.07163 18.7157 8.52265 21.6317 10.1218 24.4639C10.5177 25.166 11.2616 25.8452 12.3426 25.5453C15.0212 24.799 17.7047 24.0826 20.3879 23.3537C18.3883 23.464 17.3316 22.1256 16.6278 20.6788C15.4969 18.3577 14.6405 15.903 13.6883 13.4961C13.5577 13.1641 13.5046 12.7394 13.097 12.738C12.6837 12.7382 12.559 13.1831 12.5286 13.5059C12.4608 14.2405 12.3978 14.9926 12.4784 15.7242C12.6567 17.3418 11.3232 17.6044 10.3654 18.1977C9.41558 18.7858 8.66465 18.367 8.07729 17.5892C7.54831 16.889 7.08091 16.141 6.58562 15.416L6.58773 15.4124ZM5.00149 12.9597C5.05522 13.8326 5.45294 14.4843 6.30273 15.0382C6.08355 14.0826 5.71977 13.4185 5.00149 12.9597Z" fill="white"/>
<path d="M58.3704 86.0847C53.2341 87.5204 48.1086 88.9843 42.962 90.3822C35.3088 92.4611 27.6422 94.4907 19.9835 96.5493C18.2713 97.0081 16.7587 95.5132 17.0951 93.731C17.4669 91.7585 18.739 90.8119 20.572 90.3171C25.6275 88.9501 30.6617 87.5048 35.7127 86.1328C45.6758 83.4265 55.6451 80.7434 65.61 78.0552C66.0384 77.9389 66.4862 77.8826 66.9233 77.7981C66.8833 77.8682 66.8396 77.9361 66.7951 78.0011L34.0345 86.9C37.4226 86.1915 40.7518 85.2778 44.0895 84.3836C47.459 83.4808 50.8419 82.6273 54.2012 81.6867C55.2467 81.3934 56.01 81.812 56.3916 82.5989C56.9784 83.8097 57.7153 84.9205 58.3675 86.0855L58.3704 86.0847Z" fill="#F9B001"/>
<path d="M39.408 31.5838C39.9618 33.554 39.9712 33.5888 37.9761 34.0934C34.5506 34.9616 31.0788 35.6711 27.6893 36.6603C24.4465 37.6066 24.8126 38.3479 25.4218 40.5677C27.0774 46.5827 28.5526 52.6311 28.8323 58.9014C28.8598 59.4949 28.7893 60.0933 28.7834 60.6897C28.7365 64.3271 28.7346 64.3089 25.1421 65.0201C24.4138 65.165 24.171 65.0379 24.1664 64.2544C24.1474 61.9645 24.3367 59.6866 24.2346 57.3882C23.947 51.0203 22.7122 44.8381 20.8711 38.7584C20.8351 38.6374 20.721 38.5376 20.6287 38.4038C20.4543 38.9515 20.4056 39.6228 20.4827 40.4178C20.4062 40.2392 20.3426 40.1195 20.3014 39.9906C19.8041 38.442 20.3152 37.4136 21.8348 36.9053C22.1795 36.7899 22.6999 36.8292 22.5735 36.2034C26.8986 34.8479 31.2772 33.6896 35.6742 32.6105C36.786 33.3392 37.608 32.6582 38.4416 32.0425C38.6016 31.5444 39.0454 31.6449 39.4109 31.583L39.408 31.5838Z" fill="#F9B001"/>
<path d="M42.4589 24.8513C44.0487 24.6966 44.1722 25.8837 44.3592 26.9726C44.5578 28.1269 43.6616 28.2147 42.8917 28.4238C33.5949 30.9398 24.3002 33.4521 15.0089 35.9884C13.9987 36.2628 13.0211 36.5657 12.479 35.3366C12.0927 34.4637 12.9354 32.7027 13.9277 32.374C15.4419 31.8724 16.9941 31.4881 18.5311 31.0706C25.6559 29.129 32.7823 27.1933 39.9074 25.2641C40.5732 25.0833 41.2316 24.7954 41.955 24.9414C36.3541 26.4628 30.756 27.9835 25.155 29.5049C30.8574 28.3109 36.4678 26.7901 42.0764 25.251C42.227 25.2101 42.3286 24.9894 42.4532 24.8528L42.4589 24.8513Z" fill="#F9B001"/>
<path d="M39.5681 20.984C40.3469 21.0589 41.1445 21.2377 41.1574 22.1778C41.168 23.0063 40.4143 23.2982 39.7283 23.4846C31.257 25.767 22.7839 28.0312 14.3134 30.3165C13.5695 30.5186 12.9739 30.397 12.8312 29.6199C12.7197 29.0149 12.5316 28.3685 13.4796 27.9335C14.4909 27.4688 15.5322 27.2171 16.5755 26.9275C23.3025 25.0659 30.0326 23.216 36.7638 21.3814C37.2095 21.2603 37.6744 20.9005 38.1698 21.2828L31.1737 23.1832C31.2052 23.2992 31.2375 23.4181 31.269 23.5341C33.4197 22.9499 35.5787 22.3852 37.7207 21.7692C38.3581 21.5867 39.147 21.6993 39.5652 20.9847L39.5681 20.984ZM25.5122 24.802C25.5169 24.8537 25.5187 24.9061 25.5226 24.9549L29.5258 23.8675C29.5124 23.8182 29.499 23.7689 29.4864 23.7225L25.5122 24.802Z" fill="#F9B001"/>
<path d="M52.7734 60.224C53.9128 60.0017 55.0702 59.4569 56.2167 60.5311C54.8396 61.6401 53.1603 61.9686 51.574 62.5022C49.6034 63.0282 47.6324 63.5418 45.6641 64.0764C40.3816 65.5114 35.0969 66.95 29.8151 68.3878C27.2407 68.8878 24.8108 69.9776 22.1497 70.1586C21.3591 70.2114 20.6531 69.8551 19.8371 70.0207C21.2828 68.2485 23.4877 68.4935 25.2675 67.7111C34.4359 65.2144 43.6021 62.7214 52.7705 60.2248L52.7734 60.224ZM26.6609 68.5844C26.6486 68.4819 26.6342 68.383 26.6219 68.2805C24.7876 68.6791 22.9496 69.0756 21.1153 69.4742C21.6901 69.6793 22.246 69.7463 22.7609 69.6282C24.0711 69.3253 25.365 68.9395 26.6646 68.5865L26.6609 68.5844Z" fill="white"/>
<path d="M66.926 77.7975C69.2927 77.2076 71.1676 79.121 71.2365 81.6402C71.2597 82.5494 70.6064 82.9479 69.8428 83.146C67.0083 83.8786 64.1637 84.5859 61.3245 85.3011C60.6004 84.8438 59.9416 85.7826 59.173 85.3903C59.8427 84.6977 61.6807 85.251 61.1474 83.2877C60.6732 81.5419 59.7694 81.0867 58.0431 81.8484C58.5028 81.2751 58.9748 81.2621 59.3937 81.1452C61.4044 80.5835 63.4258 80.0499 65.4357 79.4853C65.6846 79.4177 66.0985 79.4423 66.0308 79.0216C66.0156 78.9198 65.6457 78.874 65.3979 78.7856C65.8739 78.2951 66.5268 78.5132 66.797 77.9976C66.8415 77.9326 66.8844 77.8617 66.9252 77.7946L66.926 77.7975Z" fill="#F9B001"/>
<path d="M66.7977 78.0003C66.5246 78.5167 65.8746 78.2977 65.3986 78.7883C65.6464 78.8766 66.0155 78.9196 66.0315 79.0243C66.0992 79.445 65.6845 79.4175 65.4364 79.488C63.4257 80.0497 61.4043 80.5832 59.3944 81.1479C58.9726 81.2656 58.5006 81.2786 58.0438 81.8511C59.773 81.0886 60.6739 81.5446 61.1481 83.2904C61.6814 85.2537 59.8463 84.6996 59.1737 85.393C59.9415 85.7824 60.6003 84.8436 61.3252 85.3038C60.3394 85.5653 59.3537 85.8268 58.368 86.0883C57.7188 84.9226 56.9819 83.8117 56.395 82.601C56.0142 81.8169 55.2509 81.3984 54.2047 81.6888C50.8454 82.6293 47.4625 83.4828 44.0929 84.3856C40.7553 85.2798 37.4239 86.1972 34.0379 86.9021L66.7985 78.0032L66.7977 78.0003Z" fill="white"/>
<path d="M22.1415 87.3284C26.5311 85.8215 31.0599 84.8155 35.5236 83.5812C43.9365 81.2555 52.3675 78.9965 60.7946 76.723C61.2462 76.6003 61.7044 76.2392 62.2089 76.5973C49.1436 80.1494 36.0813 83.7006 23.0137 87.244C22.7358 87.3195 22.432 87.2993 22.1407 87.3255L22.1415 87.3284Z" fill="#F9B001"/>
<path d="M52.7726 60.2238C43.6043 62.7205 34.438 65.2135 25.2696 67.7102C25.457 67.1641 25.9942 67.2424 26.3899 67.1318C34.8113 64.8256 43.2365 62.5339 51.6621 60.2546C52.0181 60.1579 52.3932 59.8567 52.7726 60.2238Z" fill="#F9B001"/>
<path d="M12.0882 26.1438C12.37 25.7278 12.8444 25.6892 13.267 25.5744C21.7175 23.2728 30.1696 20.9769 38.6262 18.686C38.9591 18.5956 39.297 18.4665 39.6386 18.6601C30.4542 21.1549 21.2727 23.649 12.0882 26.1438Z" fill="#F9B001"/>
<path d="M29.8162 68.3838C35.0988 66.9489 40.3819 65.5045 45.6652 64.0725C47.6335 63.5378 49.6036 63.0213 51.5751 62.4983C51.1768 62.9428 50.6034 62.9833 50.0845 63.1212C43.8212 64.8131 37.5564 66.4993 31.2876 68.171C30.8129 68.2999 30.3074 68.3158 29.8162 68.3838Z" fill="#F9B001"/>
<path d="M42.4583 24.8509C42.3337 24.9875 42.2321 25.2082 42.0815 25.249C36.4729 26.7881 30.8625 28.309 25.1602 29.5029C30.7611 27.9815 36.3592 26.4609 41.9602 24.9395C42.1262 24.9099 42.2922 24.8804 42.4612 24.8501L42.4583 24.8509Z" fill="white"/>
<path d="M39.5683 20.9842C39.1472 21.6995 38.3611 21.5861 37.7238 21.7686C35.5818 22.3847 33.4227 22.9493 31.2721 23.5335C31.2406 23.4175 31.2083 23.2986 31.1768 23.1826L38.1729 21.2822C38.6373 21.1841 39.1039 21.0823 39.5683 20.9842Z" fill="white"/>
<path d="M30.1415 70.7616C28.4092 71.2727 26.7234 71.989 24.8672 71.9639C26.6265 71.5638 28.3821 71.1617 30.1415 70.7616Z" fill="#F9B001"/>
<path d="M38.4377 32.0435C37.6041 32.6592 36.7821 33.3402 35.6703 32.6115C36.1306 32.4865 36.5908 32.3615 37.0547 32.2386C37.448 32.3933 37.7585 32.2436 38.027 31.962C38.1644 31.987 38.2996 32.0156 38.4369 32.0406L38.4377 32.0435Z" fill="white"/>
<path d="M19.6018 87.9396C20.0945 87.7279 20.5903 87.5279 21.1446 87.589C20.6753 87.9096 20.1858 88.1329 19.6018 87.9396Z" fill="#F9B001"/>
<path d="M20.9322 36.637C20.4997 37.0472 19.9903 37.1513 19.4199 37.0198C19.923 36.8925 20.4262 36.7651 20.9322 36.637Z" fill="#F9B001"/>
<path d="M38.0282 31.965C37.756 32.2445 37.4484 32.3934 37.0559 32.2416C37.3793 32.1506 37.7056 32.0589 38.0282 31.965Z" fill="#F9B001"/>
<path d="M66.9144 74.4935C64.5719 75.6529 62.0119 76.1148 59.5242 76.7968C46.8589 80.2651 34.1755 83.6667 21.5134 87.1467C20.3448 87.4672 19.5729 87.3375 18.8315 86.3587C18.0908 85.3828 18.2708 84.4433 18.819 83.5781C20.448 80.9932 21.5998 78.1736 22.9449 75.4478C23.8913 73.531 25.0044 71.7931 27.6703 71.9502C27.2244 73.7186 26.8201 75.4913 26.3243 77.2359C25.9798 78.4505 25.7402 79.6397 25.9311 80.9145C26.1849 82.5925 27.1628 83.5382 28.833 83.508C30.2777 83.483 31.7159 83.3539 33.1219 82.9689C42.8047 80.3294 52.4891 77.6957 62.1743 75.0648C63.3292 74.7511 64.4965 74.4714 65.6538 74.1664C66.1459 74.0327 66.6287 73.8767 66.9131 74.5001L66.9115 74.4943L66.9144 74.4935Z" fill="#F9B001"/>
<path d="M6.58754 15.4125C7.08283 16.1374 7.55023 16.8855 8.07921 17.5857C8.66946 18.3627 9.4175 18.7823 10.3674 18.1942C11.3251 17.6008 12.6587 17.3382 12.4804 15.7207C12.4005 14.9919 12.4598 14.2377 12.5305 13.5023C12.5617 13.1825 12.6856 12.7346 13.0989 12.7345C13.5065 12.7359 13.5597 13.1605 13.6902 13.4925C14.6424 15.8994 15.5017 18.3534 16.6297 20.6752C17.3327 22.1191 18.3902 23.4605 20.3898 23.3501C17.7066 24.079 15.0231 24.7955 12.3446 25.5417C11.2636 25.8416 10.5196 25.1624 10.1238 24.4603C8.52457 21.6281 7.07144 18.7158 6.58965 15.4088L6.58754 15.4125Z" fill="#F9B001"/>
<path d="M5.00168 12.96C5.71918 13.4159 6.08374 14.083 6.30292 15.0386C5.45313 14.4847 5.05619 13.8358 5.00168 12.96Z" fill="#F9B001"/>
<path d="M25.5133 24.8049L29.4875 23.7253C29.5009 23.7746 29.5143 23.8239 29.5269 23.8703L25.5238 24.9577C25.5191 24.9061 25.5172 24.8536 25.5133 24.8049Z" fill="white"/>
<path d="M26.6616 68.5837C25.362 68.9368 24.071 69.3217 22.7579 69.6254C22.243 69.7435 21.6879 69.6794 21.1123 69.4714C22.9466 69.0728 24.7846 68.6763 26.6189 68.2777C26.6312 68.3802 26.6456 68.4791 26.6579 68.5816L26.6616 68.5837Z" fill="#F9B001"/>
</g>
<defs>
<clipPath id="clip0_423_691">
<rect width="74" height="103" fill="white"/>
</clipPath>
</defs>
</svg>
