<svg width="264" height="219" viewBox="0 0 264 219" fill="none" xmlns="http://www.w3.org/2000/svg">
<g clip-path="url(#clip0_422_362)">
<g clip-path="url(#clip1_422_362)">
<path d="M139.463 118.427C138.853 112.304 139.963 110.152 145.101 107.391C146.747 106.504 148.428 105.657 150.159 104.957C155.1 102.959 158.74 99.4296 161.723 95.1769C165.766 89.414 168.887 83.1651 171.11 76.475C171.547 75.1541 171.724 74.3606 169.968 73.7067C167.146 72.6594 165.684 70.0039 166.081 67.6558C166.514 65.0964 168.411 63.1448 170.841 62.9764C171.877 62.9055 172.948 63.1079 173.983 63.3042C174.965 63.4939 175.916 63.8375 177.538 64.3025C172.136 57.9512 170.867 51.1796 173.364 43.8826C175.878 36.5277 181.174 31.8179 188.67 30.209C198.179 28.1698 209.817 33.4708 213.138 44.6342C214.785 50.1725 213.657 55.3331 211.35 60.4943C208.831 66.1173 203.809 68.0048 198.641 69.8045C198.881 70.701 199.684 70.5676 200.28 70.7508C201.879 71.2385 203.442 71.7493 204.735 72.8973C206.81 74.742 207.544 77.1386 206.6 79.2212C205.543 81.5516 202.811 83.0631 200.166 82.4471C198.309 82.0149 197.573 82.5105 197.21 84.3458C196.482 88.037 195.675 91.7264 195.753 95.4939C195.846 99.9094 195.434 104.306 195.756 108.737C196.11 113.57 198.75 117.148 201.366 120.853C203.688 124.14 205.872 127.47 205.19 131.893C204.978 133.258 204.476 134.251 203.602 135.171C202.86 135.953 202.695 136.453 203.764 137.274C206.178 139.119 206.576 143.184 204.874 146.453C203.43 149.229 200.196 150.567 197.13 149.684C177.651 144.075 158.163 138.48 138.687 132.859C136.636 132.271 134.553 131.678 133.195 129.809C131.3 127.205 131.303 124.322 132.76 121.718C134.089 119.34 136.218 117.63 139.479 118.431L139.463 118.427ZM201.936 139.32L201.962 139.361C201.641 138.412 200.799 138.184 199.973 137.947C198.389 137.493 196.799 137.045 195.214 136.595C195.012 135.931 194.373 136.015 193.902 135.88C176.307 130.811 158.714 125.751 141.112 120.709C138.292 119.901 136.071 121.35 135.214 124.457C134.508 127.021 135.589 128.602 138.591 129.446C158.339 134.994 178.083 140.541 197.828 146.097C201.004 146.991 202.726 145.461 202.433 141.962C202.765 140.992 202.631 140.105 201.944 139.323L201.936 139.32ZM201.856 74.279C201.53 74.1606 201.21 74.0394 200.884 73.921C199.939 73.2364 198.815 72.9892 197.729 72.6781C191.045 70.7703 184.351 68.8806 177.655 67.0153C175.983 66.5486 174.293 66.1144 172.587 65.8258C171.164 65.5851 169.704 66.3327 169.288 67.4467C168.82 68.7002 169.373 70.213 170.992 70.8066C172.058 71.2 173.102 71.6541 174.19 71.9702C181.438 74.0982 188.694 76.1991 195.95 78.3001C197.429 78.728 198.896 79.2073 200.401 79.5133C202.56 79.9567 204.106 78.6903 203.932 76.7176C203.815 75.4342 202.756 74.9134 201.858 74.2713L201.856 74.279ZM156.834 110.687C156.14 110.455 155.459 110.163 154.749 109.998C153.342 109.673 151.946 108.667 150.535 109.111C148.207 109.84 145.949 110.806 144.261 112.772C142.554 114.761 142.908 117.303 145.264 118.823C151.879 120.74 158.483 122.68 165.106 124.57C175.391 127.506 185.686 130.407 195.977 133.323C197.164 133.016 198.218 134.095 199.418 133.654C200.573 133.65 201.122 132.959 201.562 131.965C202.951 128.81 200.927 126.567 199.442 124.285C198.396 122.681 197.33 120.892 194.974 120.726C191.916 120.514 188.948 119.801 185.997 118.968C184.15 118.443 182.363 117.621 180.396 117.555C172.546 115.267 164.692 112.977 156.842 110.689L156.834 110.687ZM197.119 66.3211C204.577 65.5583 210.383 58.6036 210.377 50.4595C210.369 38.1808 198.794 29.8592 186.891 34.3723C178.243 37.653 173.487 47.9432 176.9 56.5121C179.607 63.3114 188.175 68.3133 196.213 66.4627C196.515 66.4155 196.817 66.3683 197.118 66.3249L197.119 66.3211ZM192.456 111.966C190.829 99.3155 191.832 93.4252 194.075 82.2601C194.29 81.189 193.879 81.0336 193.088 80.8066C187.494 79.2071 181.897 77.6154 176.332 75.9321C175.204 75.5922 175.025 76.0424 174.713 76.9269C173.595 80.0967 172.598 83.3428 171.144 86.3578C168.305 92.2525 165.111 97.9704 160.029 103.055C171.453 104.746 181.757 108.987 192.458 111.959L192.456 111.966ZM154.079 107.001C167.381 110.931 180.416 115.357 193.989 117.848C194.354 117.915 194.794 118.217 195.086 117.795C195.378 117.377 194.964 117.057 194.771 116.739C194.455 116.222 194.003 115.888 193.425 115.613C189.026 113.52 184.234 112.594 179.673 110.964C173.842 108.879 167.821 107.195 161.689 106.231C159.29 105.853 156.548 104.001 154.078 107.004L154.079 107.001Z" fill="#211C17"/>
<path d="M196.214 66.4588C188.176 68.3095 179.608 63.3076 176.901 56.5082C173.488 47.9394 178.244 37.6491 186.892 34.3684C198.795 29.8553 210.366 38.1759 210.378 50.4556C210.384 58.5998 204.578 65.5544 197.12 66.3172C197.074 66.2288 197.032 66.1416 196.988 66.0494C197.198 65.8548 197.41 65.6562 197.62 65.4616C197.658 65.4307 197.697 65.396 197.736 65.3651C197.699 65.4048 197.666 65.4456 197.63 65.4853C196.317 65.2678 194.976 65.1634 193.701 64.8146C188.159 63.2969 184.479 59.6714 182.946 54.2286C181.254 48.2178 182.877 42.8937 187.373 38.5104C188.986 36.9372 190.871 35.7848 193.018 35.046C188.702 35.3888 184.895 36.8139 182.057 40.2261C179.621 43.1558 177.943 46.399 177.811 50.3446C177.663 54.708 179.377 58.5851 181.838 61.7818C183.858 64.4047 187.268 65.7334 190.776 66.1957C192.568 66.4335 194.354 65.775 196.126 66.2705C196.154 66.3329 196.182 66.3953 196.21 66.4577L196.214 66.4588Z" fill="white"/>
<path d="M202.425 141.96C202.714 145.458 200.992 146.987 197.82 146.095C178.075 140.539 158.332 134.988 138.583 129.444C135.581 128.6 134.5 127.019 135.206 124.454C136.064 121.344 138.284 119.899 141.104 120.707C158.705 125.753 176.3 130.809 193.894 135.878C194.365 136.013 195.005 135.925 195.207 136.593C190.081 135.124 184.959 133.655 179.834 132.186C182.226 133.641 186.007 133.383 186.105 137.344C186.132 138.502 186.399 140.576 184.216 140.841C184.776 141.001 185.42 141.161 186.055 141.368C189.914 142.646 190.494 142.344 191.165 138.181C191.354 137.01 191.84 136.861 192.753 137.102C195.808 137.906 199.071 137.868 201.96 139.352L201.934 139.312C202.096 140.19 202.261 141.073 202.423 141.951L202.425 141.96Z" fill="#F9B001"/>
<path d="M192.46 111.968C181.759 108.996 171.459 104.756 160.031 103.064C165.114 97.9753 168.303 92.2602 171.146 86.3666C172.601 83.3477 173.597 80.1055 174.715 76.9357C175.027 76.0512 175.207 75.5972 176.333 75.9409C181.903 77.6253 187.495 79.2159 193.089 80.8154C193.881 81.0424 194.293 81.1939 194.077 82.2689C191.834 93.434 190.832 99.3205 192.458 111.975L192.46 111.968ZM186.624 82.6945C186.624 82.6945 186.626 82.6868 186.628 82.679C188.235 83.1396 189.85 83.5694 191.445 84.0725C192.392 84.3691 193.037 84.4536 193.369 83.2071C193.684 82.0351 193.178 81.8023 192.244 81.3881C188.379 79.6781 184.193 79.0552 180.23 77.689C176.978 76.5646 176.964 76.6733 175.882 80.0082C175.534 81.0786 174.997 82.0909 174.625 83.1547C172.534 89.1053 169.697 94.6579 165.895 99.6958C163.458 102.922 163.443 102.855 167.434 103.982C168.814 104.374 169.493 104.134 170.296 102.818C174.173 96.4843 177.533 89.9238 179.754 82.8192C180.17 81.4839 180.851 80.8139 182.4 81.4462C183.755 81.9976 185.215 82.2865 186.629 82.6917L186.624 82.6945Z" fill="white"/>
<path d="M180.39 117.548C182.356 117.615 184.143 118.44 185.991 118.962C188.941 119.799 191.91 120.508 194.967 120.72C197.323 120.885 198.394 122.676 199.435 124.279C200.921 126.561 202.945 128.804 201.556 131.959C201.117 132.949 200.567 133.644 199.411 133.652C199.722 132.437 198.933 132.302 198.017 132.04C185.145 128.375 172.289 124.664 159.426 120.968C157.46 120.405 155.715 119.449 154.372 117.877C153.039 116.316 153.237 115.144 154.983 114.173C156.299 113.443 157.592 112.652 159.105 112.17C157.586 111.58 156.008 111.282 154.56 110.675C152.657 109.878 151.04 110.238 149.529 111.443C148.385 112.357 147.259 113.309 146.216 114.339C145.685 114.864 145.406 115.675 145.912 116.359C146.758 117.508 147.483 118.724 149.087 119.167C156.052 121.088 162.99 123.115 169.931 125.121C179.76 127.956 189.585 130.805 199.412 133.648C198.211 134.089 197.158 133.01 195.971 133.317C195.631 132.81 195.044 132.83 194.55 132.689C179.081 128.254 163.615 123.821 148.135 119.425C147.2 119.157 146.31 118.559 145.254 118.816C142.898 117.296 142.544 114.754 144.251 112.764C145.94 110.795 148.197 109.833 150.525 109.104C151.94 108.661 153.331 109.67 154.739 109.99C155.45 110.152 156.131 110.444 156.824 110.68C158.756 111.785 160.953 112.11 163.052 112.708C168.818 114.348 174.503 116.3 180.382 117.546L180.39 117.548Z" fill="white"/>
<path d="M201.853 74.2741C202.751 74.9162 203.81 75.4371 203.927 76.7204C204.105 78.6942 202.559 79.9606 200.396 79.5161C198.892 79.2062 197.424 78.7308 195.945 78.3029C188.69 76.2019 181.435 74.0971 174.185 71.973C173.098 71.653 172.05 71.1978 170.987 70.8095C169.368 70.2158 168.819 68.7042 169.283 67.4495C169.699 66.3355 171.163 65.589 172.582 65.8287C174.292 66.1183 175.977 66.5552 177.65 67.0181C184.346 68.8834 191.04 70.7731 197.724 72.6809C198.81 72.992 199.934 73.2392 200.879 73.9239C195.796 72.4667 190.713 71.0096 185.626 69.5513C190.703 71.4538 195.897 72.947 201.097 74.4169C201.317 74.48 201.598 74.3307 201.852 74.2779L201.853 74.2741Z" fill="#F9B001"/>
<path d="M154.083 107.002C156.553 103.998 159.295 105.85 161.694 106.229C167.83 107.193 173.851 108.877 179.678 110.962C184.239 112.591 189.031 113.518 193.43 115.611C194.008 115.885 194.46 116.219 194.776 116.736C194.968 117.055 195.383 117.374 195.091 117.792C194.794 118.217 194.359 117.912 193.994 117.845C180.421 115.355 167.386 110.928 154.084 106.998L154.083 107.002Z" fill="#F9B001"/>
<path d="M201.958 139.36C199.069 137.876 195.806 137.914 192.751 137.11C191.842 136.87 191.352 137.018 191.163 138.188C190.493 142.347 189.912 142.653 186.053 141.375C185.423 141.166 184.774 141.009 184.214 140.848C186.4 140.585 186.131 138.506 186.102 137.352C186.009 133.392 182.223 133.648 179.832 132.194C184.957 133.663 190.079 135.131 195.204 136.601C196.788 137.055 198.379 137.498 199.962 137.952C200.789 138.189 201.63 138.418 201.952 139.367L201.958 139.36Z" fill="white"/>
<path d="M145.261 118.822C146.317 118.565 147.207 119.163 148.142 119.431C163.621 123.831 179.087 128.26 194.557 132.695C195.051 132.836 195.638 132.816 195.977 133.323C185.683 130.406 175.387 127.505 165.102 124.569C158.48 122.679 151.875 120.739 145.261 118.822Z" fill="#F9B001"/>
<path d="M180.389 117.548C174.51 116.302 168.828 114.355 163.059 112.71C160.96 112.112 158.764 111.784 156.831 110.682C164.685 112.971 172.535 115.259 180.389 117.548Z" fill="#F9B001"/>
<path d="M201.853 74.274C201.6 74.3229 201.319 74.4722 201.098 74.413C195.897 72.943 190.704 71.4499 185.627 69.5474C190.71 71.0045 195.797 72.4628 200.88 73.9199C201.202 74.0372 201.526 74.1595 201.848 74.2768L201.853 74.274Z" fill="white"/>
<path d="M202.425 141.96C202.263 141.082 202.099 140.199 201.937 139.32C202.624 140.102 202.758 140.99 202.425 141.96Z" fill="white"/>
<path d="M197.118 66.321C196.817 66.3682 196.515 66.4154 196.214 66.4588C196.186 66.3964 196.158 66.334 196.129 66.2716C196.334 65.8788 196.653 65.9326 196.986 66.0532C197.027 66.1443 197.073 66.2327 197.118 66.321Z" fill="white"/>
<path d="M196.991 66.0543C196.656 65.9376 196.339 65.8799 196.134 66.2727C194.362 65.7771 192.577 66.4318 190.784 66.1979C187.276 65.7356 183.866 64.4068 181.847 61.784C179.386 58.5873 177.671 54.7102 177.819 50.3468C177.951 46.4012 179.629 43.1579 182.065 40.2283C184.904 36.816 188.71 35.391 193.026 35.0482C190.879 35.787 188.994 36.9394 187.381 38.5126C182.881 42.8948 181.264 48.2161 182.954 54.2308C184.486 59.6774 188.162 63.3018 193.709 64.8168C194.984 65.1656 196.325 65.27 197.638 65.4875L197.627 65.4676C197.417 65.6623 197.205 65.8608 196.995 66.0554L196.991 66.0543Z" fill="#F9B001"/>
<path d="M197.634 65.4865C197.67 65.4468 197.703 65.406 197.739 65.3663C197.701 65.3971 197.662 65.4319 197.624 65.4628L197.635 65.4826L197.634 65.4865Z" fill="#F9B001"/>
<path d="M186.618 82.6973C185.204 82.292 183.745 82.0032 182.39 81.4517C180.841 80.8195 180.16 81.4895 179.743 82.8248C177.522 89.9333 174.166 96.491 170.286 102.823C169.482 104.139 168.801 104.374 167.423 103.988C163.437 102.862 163.45 102.932 165.885 99.7014C169.687 94.6635 172.529 89.1081 174.615 83.1603C174.986 82.0965 175.527 81.0853 175.872 80.0137C176.953 76.6789 176.967 76.574 180.219 77.6945C184.182 79.0646 188.367 79.6876 192.233 81.3936C193.168 81.8079 193.675 82.0368 193.359 83.2127C193.023 84.4581 192.377 84.3775 191.435 84.078C189.84 83.5749 188.224 83.1452 186.618 82.6846C186.616 82.6885 186.615 82.6923 186.613 82.7001L186.618 82.6973Z" fill="#F9B001"/>
<path d="M199.419 133.65C189.592 130.808 179.767 127.958 169.938 125.123C162.992 123.12 156.059 121.09 149.094 119.169C147.487 118.725 146.765 117.51 145.92 116.361C145.414 115.677 145.692 114.866 146.223 114.341C147.266 113.311 148.392 112.359 149.536 111.446C151.047 110.24 152.664 109.88 154.567 110.677C156.015 111.284 157.593 111.582 159.113 112.172C157.599 112.654 156.308 113.441 154.99 114.175C153.244 115.146 153.046 116.318 154.379 117.879C155.722 119.451 157.468 120.403 159.433 120.971C172.295 124.67 185.152 128.377 198.024 132.042C198.94 132.304 199.729 132.439 199.418 133.654L199.419 133.65Z" fill="#F9B001"/>
</g>
<g clip-path="url(#clip2_422_362)">
<path d="M73.8994 68.5719C77.5638 68.0999 79.9877 69.9271 81.6321 72.9203C83.7059 76.6998 81.8369 81.0508 77.2686 82.7694C75.5552 83.4146 75.3124 84.0381 75.9066 85.7014C78.3672 92.5875 80.4626 99.6155 83.1348 106.417C84.4664 109.804 85.9987 113.161 87.5673 116.475C89.8387 121.289 92.2107 126.04 94.7665 130.697C98.4527 137.413 102.475 143.926 107.536 149.737C108.543 150.892 109.697 151.536 111.25 151.718C114.299 152.077 115.36 154.054 113.939 156.778C113.419 157.775 113.694 158.137 114.454 158.752C118.108 161.72 122.598 163.217 126.503 165.732C129.184 167.459 131.592 169.401 132.742 172.593C133.322 174.202 132.205 176.058 133.04 177.166C133.82 178.2 135.759 178.301 136.714 179.587C138.638 182.176 140.145 186.927 136.984 189.723C135.765 190.802 134.317 191.593 132.75 192.125C113.29 198.751 93.8315 205.38 74.3752 212.017C72.2997 212.727 70.2669 213.575 68.1654 214.196C61.6379 216.137 57.7301 210.823 58.4326 205.629C58.5211 204.987 58.7891 204.35 59.0764 203.758C59.3649 203.169 59.7879 202.64 60.2299 201.957C57.5622 200.454 55.9023 198.231 55.9434 195.066C55.9684 193.09 56.5149 191.218 57.3511 189.404C59.4064 184.955 62.1388 180.82 63.4699 176.019C63.6764 175.277 63.7739 175.142 63.0602 174.846C59.1534 173.226 58.7559 170.372 62.1424 167.804C62.773 167.326 62.9318 166.951 63.0198 166.245C63.9634 158.41 63.0389 150.682 61.7924 142.963C60.7688 136.611 59.1336 130.422 57.5322 124.197C54.9549 114.167 51.4614 104.458 48.1909 94.6608C47.6696 93.0993 46.7166 93.3873 45.7563 93.7157C42.7961 94.7281 40.1923 94.1279 37.8171 92.2081C34.258 89.3335 34.7115 83.9548 38.5317 80.9381C39.2902 80.3408 39.8777 80.009 38.7274 79.2876C36.7313 78.032 36.8377 76.1207 37.2776 74.1967C37.4451 73.4764 37.3533 73.0475 36.8838 72.4649C34.3371 69.2905 31.7992 66.1172 29.1921 62.9888C27.7968 61.3166 26.6332 59.3836 25.274 57.6441C23.1963 54.9892 21.1261 52.3316 19.1904 49.5732C17.7056 47.4544 17.7331 46.2753 19.4428 44.3477C20.6779 42.9583 22.1159 41.8415 23.6621 40.806C26.7982 38.7031 30.0499 36.8267 33.5259 35.3592C34.0422 35.1404 34.4864 34.9082 34.6489 34.3459C35.2763 32.1677 35.5537 29.9784 35.013 27.7183C34.7466 26.6059 34.2216 26.5279 33.3268 26.9859C32.5075 27.4055 31.7458 27.9194 30.9202 28.3453C28.4321 29.6269 26.5051 29.1289 25.3592 26.5438C24.7149 25.0919 24.2278 23.5567 23.7926 22.0249C23.2066 19.9535 23.9214 18.5984 25.9252 17.7653C26.6607 17.4589 27.4296 17.2254 28.1807 16.9644C28.9292 16.7084 29.6778 16.4523 30.3961 16.2067C30.0062 14.3258 28.1978 13.4832 27.7925 11.73C27.4119 10.0739 27.9215 8.66235 29.5203 8.06488C31.8863 7.17967 34.2872 6.38391 36.6829 5.57302C37.9998 5.12684 38.9311 5.61491 39.3014 6.93243C39.6875 8.32059 40.429 9.58721 40.3866 11.1303C40.3547 12.2223 40.9455 12.8014 42.1916 12.1852C43.0803 11.7462 44.0613 11.4909 45.0143 11.203C47.3779 10.4833 48.9974 11.2554 49.9627 13.5223C50.9177 15.7589 51.2682 18.1051 51.0115 20.5028C50.8098 22.358 49.1758 22.4819 47.801 22.8085C47.3747 22.9078 46.8975 22.7965 46.4425 22.7748C45.7612 22.746 44.9399 22.7524 44.6387 23.341C44.3362 23.9259 45.1818 24.287 45.485 24.766C46.117 25.7618 46.8571 26.6911 47.5242 27.6664C49.0273 29.8634 51.1946 29.5825 53.2509 29.0016C56.9046 27.9674 60.6355 27.764 64.3697 27.8171C68.9518 27.88 70.8691 28.9176 70.4668 34.0381C70.146 38.1256 70.3273 42.2611 70.3606 46.3711C70.3986 51.1003 70.5719 55.8297 70.5506 60.558C70.5458 61.4084 70.8674 61.6574 71.4166 62.0777C73.28 63.5011 74.4422 66.0596 73.9019 68.5668L73.8994 68.5719ZM43.9014 28.2847C44.1649 28.2157 44.2521 28.0507 44.1717 27.7911C42.6448 26.2526 41.9662 24.1326 40.5599 22.5148C39.8026 21.3254 40.3978 20.6827 41.5111 20.3695C43.0328 19.9419 44.5737 19.6937 46.1794 19.8202C48.0544 19.9686 48.5605 19.2507 47.9692 17.4598C47.1107 14.851 45.3659 14.0091 42.7348 14.9343C42.4853 15.0196 42.2372 15.1214 41.989 15.2105C38.6182 16.3929 38.1993 16.1434 37.8354 12.7334C37.8239 12.5642 37.8087 12.3963 37.7986 12.2308C37.9811 11.9742 37.9312 11.7294 37.765 11.4906C37.5346 10.4588 37.318 9.4181 36.6933 8.52964C34.7307 8.81657 32.9153 9.50923 31.211 10.5144C31.1306 10.5757 31.0502 10.6369 30.9711 10.702C31.0574 10.7443 31.1474 10.7853 31.2337 10.8276C32.1283 11.6406 31.9383 12.888 32.469 13.8593C34.4534 17.5132 34.296 17.9049 30.4558 19.1718C26.0095 20.6418 26.0662 20.6224 27.7329 25.0141C28.1817 26.1908 28.7147 26.1563 29.6277 25.7638C31.3404 25.0303 32.7908 23.8755 34.3066 22.8377C35.6577 21.9111 36.4273 22.408 36.77 23.7434C37.2455 25.5908 38.1249 27.3719 37.9533 29.3519C37.8932 30.065 37.9966 30.3675 38.7929 30.0783C40.475 29.465 42.1739 28.9009 43.8663 28.3178L43.9002 28.2935L43.9014 28.2847ZM77.0761 165.179C77.0015 165.171 76.9423 165.196 76.896 165.258C72.9758 166.303 69.3754 168.185 65.5764 169.547C64.7372 169.847 64.6564 170.5 64.7391 171.063C64.8393 171.763 65.5124 171.558 66.0414 171.5C67.5349 171.335 69.0281 170.972 70.484 170.846C73.0145 170.627 74.9221 168.957 77.2889 168.493C78.0571 168.987 78.6675 168.351 79.2939 168.145C87.6906 165.434 96.0046 162.494 104.209 159.244C106.388 158.381 108.491 157.417 110.581 155.874C108.362 154.585 106.341 155.39 104.442 155.901C101.429 156.711 98.4965 157.816 95.5285 158.793C89.2742 160.619 83.0628 162.583 77.0697 165.173L77.0761 165.179ZM53.7284 67.785C49.9197 68.7118 46.4915 70.6401 42.8402 71.9776C41.778 72.3662 40.7804 73.0916 40.2158 74.2559C39.8129 75.0905 39.9463 75.8261 40.3962 76.4872C40.8563 77.166 41.5631 76.8989 42.202 76.6804C51.2427 73.5927 60.286 70.5252 69.3176 67.411C71.0176 66.8254 71.1229 66.0715 69.899 64.5054C69.065 63.0424 67.6791 63.5459 66.597 63.8146C62.2348 64.8885 57.9232 66.1477 53.7271 67.7813L53.7284 67.785ZM44.8916 90.5699C45.409 90.49 45.9536 90.4896 46.4413 90.3228C54.9084 87.4101 63.3677 84.4748 71.8297 81.547C73.165 80.7102 74.7207 80.4189 76.1476 79.8126C78.922 78.6273 79.673 76.9094 78.6938 74.1448C77.9368 72.0178 75.5408 70.8398 73.2169 71.6262C62.8869 75.1295 52.5672 78.6631 42.2643 82.2458C40.4446 82.8766 39.0908 84.1039 38.8912 86.2118C38.2786 88.1865 39.0654 89.598 41.4079 90.7183C42.5963 91.2915 43.7409 90.9465 44.8878 90.5711L44.8916 90.5699ZM132.25 180.105C130.115 179.876 128.395 181.229 126.426 181.632C125.722 181.366 125.125 181.781 124.52 181.988C115.129 185.162 105.742 188.347 96.3583 191.544C85.8393 195.124 75.3254 198.707 64.8142 202.311C61.7936 203.344 60.7485 205.437 61.731 208.297C62.6787 211.056 64.407 211.998 67.0986 211.065C89.2886 203.383 111.475 195.677 133.667 188.002C134.594 187.685 135.116 187.152 135.356 186.247C135.95 184.021 134.45 181.042 132.246 180.106L132.25 180.105ZM128.558 176.693C129.821 175.226 129.684 173.318 128.126 171.701C126.313 169.821 124.148 168.417 121.821 167.279C118.797 165.796 115.62 164.459 113.159 162.188C111.08 160.273 109.47 159.514 106.875 161.263C103.679 163.412 99.7461 163.976 96.2364 165.493C91.5674 167.09 86.9035 168.689 82.2357 170.29C78.1453 171.38 74.2831 173.225 70.0758 173.925C68.4581 174.195 67.5074 174.947 67.3413 176.819C67.203 178.366 66.5261 179.881 65.7892 181.307C64.0901 184.599 62.358 187.869 60.74 191.2C58.621 195.574 60.5781 198.802 64.1332 199.233C64.9097 199.478 65.5505 199.019 66.2197 198.79C71.2568 197.084 76.2849 195.352 81.313 193.619C95.9574 188.581 110.599 183.536 125.242 178.494C126.132 177.489 127.758 177.824 128.568 176.673L128.555 176.698L128.558 176.693ZM22.4334 45.449L22.0002 45.7999C21.2762 46.7822 21.9 47.5443 22.4403 48.2844C23.8668 50.233 25.2947 52.1855 26.779 54.0932C30.5582 58.9575 34.3538 63.8078 38.1694 68.6428C38.8037 69.4478 39.4567 70.3941 40.7543 69.5703C43.1219 68.0723 45.8925 67.5428 48.4377 66.4654C52.8459 64.9578 57.2578 63.4489 61.666 61.9413C62.8659 61.5604 64.0487 61.0926 65.276 60.8164C66.7266 60.4892 67.0151 59.7402 67.0062 58.2695C66.9723 50.0087 67.0697 41.7494 67.1962 33.4886C67.234 30.8703 67.2444 30.7527 64.5563 30.6839C59.1978 30.5487 54.0153 31.7553 48.9202 33.1558C42.3423 34.962 35.9511 37.3759 29.8892 40.5301C27.254 41.9001 24.4661 43.1323 22.4283 45.4465L22.4334 45.449ZM105.031 152.747C99.6112 146.481 95.3233 139.573 91.4338 132.386C89.0121 127.911 86.8309 123.323 84.5967 118.754C82.4871 114.438 80.6912 110.001 78.9987 105.534C76.5992 99.197 74.4982 92.7452 72.3432 86.3204C71.9887 85.2593 71.5601 85.2285 70.6402 85.5516C64.487 87.6982 58.3313 89.8373 52.1418 91.8654C50.8625 92.286 50.879 92.7787 51.2978 93.8305C52.4537 96.7163 53.597 99.6148 54.5967 102.562C57.7147 111.766 60.5365 121.054 63.0205 130.453C64.7143 136.862 66.0054 143.329 66.696 149.917C67.2403 155.077 67.9223 160.232 67.3876 165.719C79.7965 160.478 92.3634 156.539 105.029 152.752L105.031 152.747ZM38.4241 33.3461L46.386 30.6231C43.4161 30.7056 40.7715 31.6777 38.4241 33.3461ZM69.3652 70.2789C69.3445 70.2184 69.3238 70.1579 69.3032 70.0974L47.7085 77.4829C47.7292 77.5433 47.7499 77.6038 47.7706 77.6643L69.3652 70.2789Z" fill="#211C17"/>
<path d="M105.028 152.748C92.3623 156.535 79.7967 160.478 67.3865 165.715C67.9212 160.228 67.2392 155.073 66.6949 149.913C66.0005 143.327 64.7131 136.858 63.0194 130.449C60.5354 121.05 57.7136 111.762 54.5956 102.559C53.5972 99.6147 52.4539 96.7161 51.2967 93.8266C50.8754 92.7798 50.8614 92.2821 52.1406 91.8615C58.3326 89.8283 64.4884 87.6892 70.6391 85.5476C71.5603 85.2284 71.9876 85.2554 72.342 86.3165C74.4971 92.7413 76.5981 99.193 78.9976 105.53C80.6901 109.997 82.486 114.434 84.5956 118.75C86.8298 123.319 89.011 127.907 91.4326 132.382C95.3209 139.566 99.6088 146.473 105.03 152.743L105.028 152.748ZM55.162 102.61C55.283 102.568 55.404 102.527 55.53 102.488C55.0012 100.942 54.4711 99.3918 53.9423 97.8455C53.813 97.4675 53.6756 97.0288 54.1299 96.789C54.6018 96.5389 54.8098 96.9619 55.0686 97.2619C55.608 97.8882 55.8312 98.6521 56.0936 99.407C59.2513 108.504 62.2362 117.652 64.7611 126.948C66.7592 134.309 68.4444 141.731 69.4622 149.288C70.0926 153.97 70.8555 158.646 70.7049 163.49C72.8258 162.765 74.7611 162.052 76.7263 161.452C77.7171 161.151 77.9138 160.615 77.7334 159.68C77.3175 157.538 77.1424 155.335 76.5688 153.238C73.2383 141.079 69.9215 128.912 65.919 116.949C63.5581 109.886 61.1744 102.83 58.69 95.8122C58.097 94.1401 58.4229 93.4754 60.1019 92.9519C63.9111 91.7674 67.6543 90.3774 71.4376 89.1046C72.2744 88.8226 72.6922 88.4517 72.2946 87.5236C71.9793 86.7868 71.8681 85.9803 70.6747 86.3927C64.7685 88.4464 58.8454 90.451 52.9261 92.4543C52.1246 92.7284 51.9169 93.1457 52.2011 93.9522C53.2141 96.8277 54.1855 99.7175 55.1734 102.606L55.162 102.61Z" fill="white"/>
<path d="M48.4379 66.4653C45.8927 67.5427 43.1258 68.0709 40.7544 69.5702C39.4531 70.3953 38.8038 69.4477 38.1696 68.6427C34.3539 63.8077 30.5546 58.9587 26.7792 54.0931C25.2986 52.184 23.8708 50.2316 22.4404 48.2842C21.9002 47.5442 21.2764 46.7821 22.0003 45.7997C22.0895 45.8875 22.1898 45.9587 22.3028 46.0172C22.347 46.5046 21.9843 47.3085 22.6948 47.3611C23.9338 47.4526 24.3292 48.4111 24.9111 49.1495C29.453 54.9227 33.9547 60.7265 38.4765 66.515C40.2135 68.7417 40.6624 68.7825 43.2785 67.8877C44.855 67.3486 44.4742 66.7905 43.6635 65.8896C41.6433 63.6373 39.6393 61.3709 37.6931 59.051C34.33 55.0452 30.9957 51.0126 27.9301 46.7657C25.9656 44.0467 25.8777 44.1105 22.9033 45.4149C22.7862 45.4676 22.6434 45.47 22.5122 45.4938L22.4298 45.4502C24.4675 43.1359 27.2554 41.9038 29.8906 40.5338C35.9526 37.3795 42.3438 34.9657 48.9217 33.1594C54.0167 31.7589 59.1993 30.5524 64.5578 30.6876C67.2459 30.7563 67.2354 30.8739 67.1977 33.4923C67.0712 41.7531 66.9737 50.0124 67.0077 58.2732C67.0115 59.7414 66.728 60.4929 65.2775 60.8201C64.0502 61.0962 62.8711 61.5628 61.6712 61.9436C57.1157 63.0203 52.7373 64.6274 48.4392 66.469L48.4379 66.4653Z" fill="white"/>
<path d="M96.245 165.494C99.7547 163.977 103.685 163.418 106.884 161.264C109.48 159.519 111.089 160.274 113.167 162.189C115.629 164.46 118.805 165.797 121.829 167.28C124.153 168.419 126.323 169.826 128.135 171.702C129.693 173.319 129.834 175.226 128.566 176.694C128.06 174.954 126.972 176.069 126.23 176.319C111.549 181.289 96.8769 186.295 82.2146 191.318C80.5587 191.884 78.8676 192.15 77.1381 192.18C73.8293 192.234 72.3238 190.376 72.8819 187.081C73.289 184.666 74.6049 182.637 75.5406 180.446C76.48 178.254 77.6108 176.128 78.0865 173.765C78.2154 173.13 78.3511 172.218 77.1887 172.708C75.0338 173.618 72.5945 173.523 70.3478 174.807C71.2998 175.047 71.2631 175.693 71.1017 176.382C71.0368 176.649 70.8388 177.021 70.6148 176.81C69.3112 175.567 69.6252 177.102 69.4918 177.502C68.3814 180.775 67.158 183.989 65.5139 187.047C64.5125 188.909 63.5466 190.789 62.8702 192.837C61.9825 195.513 64.6691 196.208 65.4609 197.93C65.7025 198.451 66.8642 197.699 67.5724 197.461C73.8119 195.357 80.0409 193.21 86.2726 191.083C100.374 186.272 114.475 181.471 128.578 176.665C127.767 177.812 126.142 177.481 125.252 178.486C124.935 178.51 124.594 178.462 124.303 178.562C104.246 185.442 84.1924 192.334 64.1417 199.221C60.5878 198.794 58.6256 195.563 60.7485 191.189C62.3626 187.858 64.0986 184.587 65.7977 181.295C66.5346 179.869 67.2114 178.354 67.3498 176.808C67.5159 174.935 68.4665 174.183 70.0843 173.913C74.2915 173.213 78.1575 171.367 82.2442 170.278C87.0361 169.053 91.7323 167.536 96.2449 165.481L96.245 165.494Z" fill="white"/>
<path d="M132.255 180.107C134.458 181.043 135.962 184.02 135.364 186.248C135.121 187.154 134.601 187.683 133.676 188.003C111.483 195.678 89.2972 203.384 67.1071 211.066C64.4155 211.999 62.6872 211.057 61.7395 208.298C60.757 205.438 61.7996 203.35 64.8227 202.312C75.334 198.709 85.8478 195.125 96.3668 191.545C105.75 188.348 115.138 185.163 124.529 181.989C125.134 181.782 125.731 181.367 126.434 181.633C119.414 184.034 112.393 186.435 105.376 188.835C106.81 188.729 108.121 188.268 109.438 187.834C113.609 186.459 113.621 186.459 115.201 190.644C115.557 191.586 116.027 192.468 117.155 192.197C118.567 191.857 120.067 191.475 121.206 190.659C121.515 190.439 120.66 188.591 120.338 187.489C120.299 187.363 120.251 187.236 120.208 187.111C119.577 185.452 120.449 184.073 121.769 183.748C124.55 183.063 127.023 181.626 129.772 180.897C130.604 180.676 131.718 181.228 132.264 180.108L132.255 180.107Z" fill="#F9B001"/>
<path d="M38.8994 86.213C39.0991 84.1051 40.4542 82.8815 42.2725 82.247C52.5754 78.6642 62.8951 75.1306 73.2251 71.6273C75.5439 70.8385 77.945 72.0189 78.702 74.1459C79.6851 76.9092 78.934 78.6271 76.1558 79.8137C74.7302 80.4238 73.1733 80.7113 71.8392 81.5519C71.521 81.5847 71.1835 81.5608 70.8886 81.6616C62.2235 84.6251 53.5585 87.6012 44.8973 90.5761C43.7504 90.9514 42.602 91.2977 41.4174 90.7232C41.5086 90.5948 41.6023 90.4614 41.6936 90.3331C43.0096 90.2546 44.3117 90.333 45.6134 89.8793C55.0304 86.608 64.4629 83.382 73.9032 80.1788C74.992 79.8064 75.93 79.2027 76.9024 78.6505C77.2634 78.4468 77.7819 78.1724 77.4386 77.5761C77.1466 77.0679 76.6908 77.1182 76.2208 77.2874C75.8441 77.4205 75.4647 77.546 75.0891 77.6702C66.4706 80.6093 57.8482 83.5371 49.2412 86.4976C47.695 87.0265 46.1599 87.5261 44.6341 86.6333C43.1617 85.7729 43.4237 84.2053 43.43 82.7421C41.8145 83.1426 40.4237 83.5085 40.2768 85.4125C40.2297 86.0282 39.5607 86.1092 39.0706 86.2937L38.9007 86.2167L38.8994 86.213Z" fill="white"/>
<path d="M37.8349 12.7333C38.2026 16.1421 38.6177 16.3928 41.9885 15.2104C42.238 15.1251 42.4861 15.0233 42.7343 14.9342C45.3646 14.0065 47.1093 14.8484 47.9687 17.4597C48.5587 19.2469 48.0488 19.966 46.1789 19.8201C44.5732 19.6936 43.0323 19.9419 41.5106 20.3694C40.3973 20.6826 39.8021 21.3253 40.5594 22.5147C41.2497 24.6814 42.286 26.6495 43.867 28.3089C42.1746 28.8919 40.4757 29.4561 38.7936 30.0693C37.9973 30.3586 37.8901 30.0574 37.954 29.343C38.1218 27.3642 37.2437 25.587 36.7707 23.7345C36.4292 22.4028 35.6622 21.9009 34.3073 22.8287C32.7928 23.8703 31.3411 25.0213 29.6284 25.7549C28.7154 26.1474 28.1824 26.1818 27.7335 25.0052C26.0618 20.6109 26.0064 20.6341 30.4565 19.1628C34.2954 17.8922 34.4541 17.5043 32.4697 13.8504C31.9441 12.8815 32.129 11.6317 31.2344 10.8186C32.3624 10.4497 33.5136 10.1489 34.6081 9.69435C36.0427 9.09817 36.9585 9.07208 36.9966 11.0353C37.006 11.5938 37.1862 12.3555 37.8424 12.7308L37.8349 12.7333Z" fill="#F9B001"/>
<path d="M69.905 64.5115C71.134 66.0801 71.0236 66.8315 69.3236 67.4171C60.292 70.5313 51.2487 73.5988 42.208 76.6865C41.5691 76.905 40.8624 77.1721 40.4022 76.4933C39.9523 75.8322 39.8189 75.0966 40.2218 74.2621C40.7864 73.0977 41.7802 72.3736 42.8462 71.9837C46.5013 70.6449 49.9257 68.7179 53.7344 67.7911C53.9106 68.5163 54.3039 68.7154 55.0475 68.4822C58.4546 67.4183 61.9571 66.5963 65.2649 65.2792C66.8407 64.6516 68.2086 63.9346 69.9063 64.5153L69.905 64.5115Z" fill="#F9B001"/>
<path d="M95.5381 158.798C98.5049 157.817 101.439 156.716 104.451 155.905C106.35 155.395 108.376 154.589 110.591 155.879C108.496 157.423 106.394 158.387 104.218 159.249C96.0142 162.499 87.7002 165.439 79.3036 168.15C78.6721 168.354 78.0655 168.988 77.2972 168.494C78.3899 167.158 80.5463 167.907 81.5434 166.303C80.5978 166.403 79.5715 167.18 78.8109 166.055C78.3252 165.339 77.5332 165.53 76.9031 165.255C76.9455 165.194 77.0072 165.165 77.0794 165.178C83.2315 163.053 89.386 160.923 95.5381 158.798Z" fill="white"/>
<path d="M132.255 180.107C131.71 181.231 130.591 180.676 129.763 180.896C127.018 181.624 124.545 183.061 121.76 183.747C120.44 184.072 119.572 185.45 120.199 187.11C120.246 187.234 120.294 187.361 120.329 187.488C120.651 188.59 121.507 190.438 121.197 190.658C120.058 191.474 118.558 191.856 117.146 192.196C116.018 192.467 115.549 191.589 115.192 190.643C113.613 186.458 113.6 186.458 109.43 187.833C108.109 188.268 106.798 188.733 105.367 188.834C112.388 186.433 119.409 184.032 126.425 181.632C128.396 181.233 130.116 179.88 132.25 180.105L132.255 180.107Z" fill="white"/>
<path d="M76.9008 165.26C77.5309 165.535 78.3229 165.344 78.8086 166.06C79.573 167.184 80.5992 166.407 81.5411 166.308C80.544 167.912 78.3876 167.163 77.2949 168.499C74.9281 168.963 73.0192 170.629 70.4901 170.852C69.0342 170.978 67.541 171.341 66.0475 171.506C65.5185 171.564 64.8454 171.769 64.7452 171.069C64.6649 170.501 64.7471 169.852 65.5825 169.553C69.3815 168.191 72.9818 166.309 76.9021 165.264L76.9008 165.26Z" fill="#F9B001"/>
<path d="M64.143 199.225C84.1962 192.333 104.251 185.445 124.304 178.566C124.595 178.466 124.937 178.514 125.254 178.49C110.61 183.532 95.9672 188.574 81.3241 193.615C76.296 195.348 71.2679 197.08 66.2308 198.786C65.5616 199.015 64.9195 199.471 64.1443 199.229L64.143 199.225Z" fill="#F9B001"/>
<path d="M69.9056 64.5115C68.2117 63.9295 66.8438 64.6465 65.2642 65.2754C61.9601 66.5912 58.4577 67.4132 55.0468 68.4784C54.3031 68.7116 53.9099 68.5125 53.7336 67.7873C57.926 66.1551 62.2413 64.8946 66.6036 63.8207C67.6869 63.5558 69.0716 63.0484 69.9056 64.5115Z" fill="white"/>
<path d="M44.9003 90.5709C53.5615 87.5961 62.2265 84.62 70.8916 81.6565C71.1865 81.5556 71.5253 81.5833 71.8422 81.5467C63.3803 84.4745 54.9172 87.4112 46.45 90.3238C45.9624 90.4906 45.4178 90.4911 44.9003 90.5709Z" fill="#F9B001"/>
<path d="M38.4244 33.346C40.7717 31.6775 43.4163 30.7055 46.3863 30.623L38.4244 33.346Z" fill="#F9B001"/>
<path d="M69.3647 70.2788L47.7701 77.6643C47.7494 77.6038 47.7287 77.5433 47.708 77.4828L69.3027 70.0973C69.3234 70.1578 69.344 70.2183 69.3647 70.2788Z" fill="#F9B001"/>
<path d="M95.538 158.797C89.3859 160.923 83.2314 163.053 77.0793 165.178C83.071 162.584 89.2787 160.621 95.538 158.797Z" fill="#F9B001"/>
<path d="M96.2455 165.494C91.7329 167.548 87.0367 169.065 82.2448 170.291C86.9138 168.694 91.5815 167.093 96.2455 165.494Z" fill="#F9B001"/>
<path d="M48.4372 66.4653C52.7354 64.6237 57.1137 63.0165 61.6692 61.9399C57.2573 63.4488 52.8491 64.9564 48.4372 66.4653Z" fill="#F9B001"/>
<path d="M37.835 12.7333C37.175 12.3594 36.9985 11.5963 36.9891 11.0379C36.9524 9.07843 36.0365 9.10451 34.6007 9.69691C33.51 10.1502 32.3549 10.4523 31.2269 10.8212C31.1369 10.7802 31.0506 10.7379 30.9644 10.6956C31.0448 10.6343 31.1252 10.5731 31.2043 10.508C33.0338 9.84431 34.8608 9.18568 36.6865 8.52327C37.3113 9.41174 37.5317 10.4512 37.7583 11.4843C37.5834 11.7383 37.5878 11.986 37.7919 12.2244C37.8033 12.3937 37.8185 12.5616 37.8286 12.727L37.835 12.7333Z" fill="white"/>
<path d="M43.8674 28.3089C42.2864 26.6495 41.2501 24.6814 40.5598 22.5147C41.9711 24.135 42.646 26.2563 44.1729 27.7947C44.082 27.961 43.9935 28.1221 43.9013 28.2846L43.8674 28.3089Z" fill="white"/>
<path d="M41.4167 90.7194C39.0729 89.5954 38.2874 88.1876 38.9 86.2129C38.9 86.2129 39.07 86.2899 39.0662 86.2912C39.4946 87.9267 40.0789 89.4624 41.6929 90.3293C41.6017 90.4576 41.508 90.591 41.4167 90.7194Z" fill="white"/>
<path d="M36.6915 8.52575C34.8658 9.18816 33.035 9.84808 31.2092 10.5105C32.9148 9.50912 34.7302 8.81647 36.6915 8.52575Z" fill="#F9B001"/>
<path d="M21.9996 45.7998C22.1452 45.6824 22.2871 45.5663 22.4328 45.4489L22.5152 45.4925C22.4446 45.6687 22.3726 45.8411 22.302 46.0173C22.1891 45.9587 22.0887 45.8875 21.9996 45.7998Z" fill="white"/>
<path d="M37.7989 12.2307C37.5949 11.9922 37.5904 11.7446 37.7654 11.4905C37.9277 11.7306 37.9814 11.9741 37.7989 12.2307Z" fill="#F9B001"/>
<path d="M43.9008 28.2846C43.9931 28.1221 44.0802 27.9572 44.1725 27.7947C44.2566 28.0531 44.1644 28.2156 43.9008 28.2846Z" fill="#F9B001"/>
<path d="M55.1617 102.61C54.1752 99.7251 53.2025 96.8316 52.1895 93.9561C51.9052 93.1496 52.113 92.7323 52.9145 92.4582C58.8376 90.4536 64.7593 88.4452 70.6631 86.3966C71.8552 85.9804 71.9676 86.7907 72.2829 87.5275C72.6819 88.4594 72.2627 88.8265 71.4259 89.1085C67.6427 90.3813 63.8995 91.7713 60.0903 92.9558C58.4151 93.478 58.0854 94.144 58.6784 95.8161C61.1666 102.832 63.5464 109.889 65.9074 116.953C69.9099 128.916 73.2266 141.083 76.5572 153.242C77.1308 155.338 77.3058 157.542 77.7218 159.684C77.9022 160.619 77.7055 161.155 76.7146 161.456C74.7457 162.058 72.8142 162.769 70.6933 163.494C70.8476 158.649 70.0809 153.974 69.4506 149.291C68.4352 141.729 66.75 134.308 64.7495 126.952C62.2246 117.655 59.2434 108.507 56.082 99.4108C55.8247 98.6585 55.5925 97.8934 55.057 97.2657C54.7968 96.962 54.5902 96.5428 54.1183 96.7929C53.664 97.0327 53.8051 97.4701 53.9306 97.8494C54.4519 99.3983 54.9896 100.946 55.5184 102.492C55.3974 102.533 55.2765 102.575 55.1504 102.614L55.1617 102.61Z" fill="#F9B001"/>
<path d="M22.3009 46.0134C22.3716 45.8372 22.4435 45.6648 22.5141 45.4887C22.6454 45.4649 22.7831 45.46 22.9052 45.4098C25.8796 44.1054 25.9675 44.0416 27.932 46.7606C30.9989 51.0113 34.3319 55.0401 37.695 59.0459C39.64 61.362 41.649 63.6308 43.6655 65.8845C44.4723 66.7867 44.857 67.3434 43.2805 67.8826C40.6643 68.7773 40.2167 68.7404 38.4784 66.5099C33.9604 60.7201 29.4549 54.9176 24.913 49.1444C24.3311 48.4059 23.9319 47.4488 22.6967 47.356C21.9862 47.3034 22.3489 46.4995 22.3047 46.0121L22.3009 46.0134Z" fill="#F9B001"/>
<path d="M128.579 176.668C114.476 181.475 100.377 186.28 86.2738 191.086C80.0421 193.213 73.8131 195.36 67.5736 197.465C66.8667 197.707 65.6999 198.456 65.4621 197.934C64.6703 196.211 61.9837 195.517 62.8714 192.84C63.5491 190.797 64.5137 188.913 65.5151 187.05C67.1592 183.992 68.3839 180.782 69.493 177.506C69.6302 177.104 69.3112 175.567 70.616 176.814C70.84 177.024 71.038 176.652 71.1029 176.385C71.2643 175.697 71.301 175.051 70.349 174.811C72.5957 173.527 75.035 173.622 77.1899 172.712C78.3561 172.22 78.2166 173.133 78.0877 173.769C77.612 176.131 76.4812 178.258 75.5418 180.45C74.6024 182.642 73.2902 184.67 72.8831 187.085C72.3288 190.378 73.8305 192.238 77.1393 192.183C78.8688 192.153 80.5599 191.888 82.2158 191.321C96.8781 186.298 111.549 181.289 126.231 176.323C126.968 176.071 128.061 174.958 128.568 176.698L128.58 176.672L128.579 176.668Z" fill="#F9B001"/>
<path d="M41.6967 90.3279C40.0789 89.4624 39.4984 87.9254 39.07 86.2899C39.5613 86.1091 40.2304 86.0281 40.2774 85.4124C40.4243 83.5084 41.8152 83.1425 43.4306 82.742C43.4243 84.2052 43.1623 85.7728 44.6348 86.6332C46.1643 87.5247 47.6994 87.0251 49.2419 86.4975C57.8526 83.5357 66.4737 80.6042 75.0898 77.6701C75.4678 77.5408 75.8485 77.4191 76.2215 77.2873C76.6927 77.1219 77.1472 77.0678 77.4392 77.576C77.7825 78.1723 77.2628 78.4429 76.903 78.6504C75.9268 79.2039 74.994 79.8101 73.9039 80.1787C64.4623 83.3781 55.031 86.6079 45.614 89.8792C44.3123 90.3329 43.0089 90.2508 41.6942 90.333L41.6967 90.3279Z" fill="#F9B001"/>
</g>
</g>
<defs>
<clipPath id="clip0_422_362">
<rect width="264" height="219" fill="white"/>
</clipPath>
<clipPath id="clip1_422_362">
<rect width="76.5601" height="114.888" fill="white" transform="translate(161.66 20) rotate(15.996)"/>
</clipPath>
<clipPath id="clip2_422_362">
<rect width="83.9628" height="207.618" fill="white" transform="translate(-6 20.1705) rotate(-18.8809)"/>
</clipPath>
</defs>
</svg>
