<svg width="213" height="115" viewBox="0 0 213 115" fill="none" xmlns="http://www.w3.org/2000/svg">
<g clip-path="url(#clip0_422_417)">
<g clip-path="url(#clip1_422_417)">
<path d="M72.8186 22.8074C74.7448 20.9205 76.96 20.9183 79.2343 21.938C82.1045 23.2266 82.9301 26.5825 81.0259 29.5928C80.312 30.7222 80.4449 31.1922 81.5225 31.8993C85.9846 34.8269 90.2963 37.9977 94.8442 40.7827C97.1097 42.1694 99.4786 43.4501 101.85 44.6903C105.291 46.4945 108.761 48.2172 112.299 49.8053C117.4 52.0947 122.607 54.1179 128.11 55.2751C129.205 55.5045 130.16 55.3722 131.144 54.7953C133.078 53.6631 134.565 54.3478 134.936 56.5588C135.072 57.3684 135.391 57.4578 136.104 57.4817C139.538 57.6028 142.811 56.4993 146.191 56.2464C148.512 56.0726 150.769 56.1443 152.843 57.4967C153.888 58.1786 154.054 59.7511 155.027 60.0289C155.936 60.2878 157.11 59.4937 158.232 59.8227C160.492 60.4839 163.459 62.5876 162.848 65.6061C162.613 66.7709 162.118 67.8685 161.439 68.8671C153.022 81.2859 144.607 93.7063 136.197 106.13C135.3 107.456 134.489 108.844 133.539 110.13C130.592 114.132 125.978 112.757 124.103 109.423C123.871 109.01 123.748 108.522 123.654 108.05C123.563 107.581 123.577 107.087 123.534 106.494C121.319 106.792 119.375 106.228 118.007 104.367C117.152 103.205 116.647 101.875 116.335 100.45C115.575 96.9557 115.347 93.3455 114.011 89.9646C113.804 89.4416 113.802 89.3203 113.256 89.4616C110.268 90.237 108.782 88.75 109.624 85.7645C109.781 85.2091 109.708 84.9207 109.449 84.471C106.552 79.4934 102.614 75.3997 98.4924 71.4528C95.1024 68.2045 91.4278 65.3199 87.7566 62.399C81.8435 57.6919 75.5385 53.5752 69.3242 49.3086C68.3337 48.6287 67.9054 49.2156 67.4907 49.8292C66.2122 51.721 64.432 52.5169 62.2043 52.4438C58.8672 52.3354 56.7653 49.0038 57.6628 45.5666C57.8418 44.8851 58.038 44.4334 57.0507 44.5194C55.336 44.6663 54.5572 43.5065 53.967 42.1926C53.7477 41.6994 53.5056 41.4901 52.9759 41.3573C50.0965 40.6291 47.2227 39.8976 44.3283 39.2227C42.7802 38.8627 41.2523 38.2489 39.6956 37.8339C37.3178 37.2018 34.9433 36.5649 32.6026 35.8102C30.806 35.2295 30.3033 34.5308 30.451 32.6562C30.559 31.3038 30.9051 30.0209 31.35 28.7377C32.2512 26.1335 33.3193 23.6105 34.6979 21.2269C34.9023 20.8723 35.0589 20.5417 34.9061 20.1428C34.3133 18.5984 33.5117 17.2014 32.2027 16.1232C31.5582 15.5926 31.2182 15.7781 30.8986 16.4385C30.606 17.0432 30.3885 17.6775 30.0951 18.2887C29.2101 20.1295 27.8689 20.6872 26.0644 19.6859C25.0505 19.1239 24.0915 18.4441 23.1643 17.7436C21.9118 16.7951 21.7319 15.6916 22.5323 14.325C22.8259 13.823 23.171 13.3488 23.4935 12.8664C23.8167 12.388 24.14 11.9097 24.4502 11.4506C23.3958 10.5268 21.9721 10.8317 20.9648 9.98906C20.0147 9.1921 19.6905 8.14594 20.3587 7.09473C21.3471 5.53843 22.3951 4.01891 23.4335 2.49285C24.0041 1.65372 24.7611 1.52829 25.5564 2.13259C26.3918 2.77112 27.3808 3.18255 28.0349 4.09976C28.4967 4.74968 29.0955 4.82706 29.5501 3.92007C29.8744 3.27349 30.3334 2.69326 30.7617 2.10638C31.8215 0.647586 33.1042 0.384741 34.6635 1.28017C36.2035 2.16253 37.4397 3.37457 38.3449 4.88377C39.0436 6.05279 38.1465 6.84376 37.4897 7.63867C37.2851 7.88406 36.9583 8.02919 36.6837 8.21671C36.2743 8.49962 35.7989 8.86461 35.8825 9.33988C35.9636 9.81351 36.6148 9.65182 37.0021 9.79742C37.8082 10.0993 38.6479 10.3149 39.4655 10.5894C41.3072 11.2075 42.4457 10.0905 43.3876 8.84776C45.0603 6.63826 47.1435 4.87859 49.3413 3.26684C52.0373 1.28782 53.6102 1.04864 55.6284 4.20744C57.2397 6.72881 59.1644 9.05724 60.9918 11.436C63.0943 14.1732 65.2756 16.851 67.3432 19.6138C67.7145 20.1111 68.0113 20.1146 68.5159 20.1178C70.2272 20.127 72.0294 21.1056 72.8178 22.8033L72.8186 22.8074ZM37.6278 12.5431C37.7509 12.3869 37.7291 12.2525 37.5681 12.1367C36.0021 11.9125 34.6744 10.9765 33.1438 10.653C32.1796 10.2935 32.2435 9.65742 32.754 8.98532C33.4521 8.06693 34.2401 7.24453 35.2308 6.61186C36.388 5.87348 36.3669 5.23281 35.2347 4.45007C33.5872 3.30849 32.2009 3.58578 31.0757 5.28194C30.9679 5.44139 30.8682 5.60979 30.7629 5.77088C29.3201 7.9422 28.9664 7.98122 27.2545 6.15556C27.1734 6.06204 27.0906 5.97094 27.012 5.87906C27.0053 5.64933 26.8686 5.52877 26.6668 5.46279C26.0788 4.96332 25.4948 4.45254 24.7402 4.21001C23.7235 5.24043 22.9711 6.44235 22.4208 7.77738C22.4009 7.84843 22.3811 7.91947 22.3636 7.99215C22.4324 7.97884 22.5029 7.96311 22.5717 7.94979C23.4504 8.02974 23.8884 8.83964 24.6248 9.17183C27.3877 10.4267 27.4683 10.724 25.7893 13.151C23.8468 15.9629 23.8713 15.9267 26.7737 17.751C27.5527 18.2387 27.8479 17.9842 28.2069 17.354C28.8816 16.1734 29.2182 14.8629 29.6444 13.5918C30.0235 12.4579 30.6903 12.4087 31.4773 13.0356C32.5669 13.9022 33.8625 14.5525 34.6335 15.7811C34.9122 16.2228 35.1055 16.3534 35.442 15.8347C36.1517 14.7376 36.8928 13.6618 37.6219 12.5778L37.631 12.5487L37.6278 12.5431ZM117.166 77.667C117.118 77.695 117.095 77.7353 117.095 77.7919C115.272 80.125 114.003 82.8046 112.39 85.2692C112.034 85.8129 112.274 86.2285 112.569 86.5199C112.936 86.8837 113.238 86.4683 113.52 86.2015C114.317 85.4488 115.027 84.5806 115.82 83.8666C117.197 82.6257 117.573 80.8141 118.747 79.5032C119.412 79.4524 119.488 78.8139 119.762 78.4186C123.459 73.1461 127.007 67.7765 130.355 62.2754C131.244 60.8139 132.044 59.3276 132.583 57.5096C130.724 57.7349 129.901 59.0933 129.02 60.2256C127.622 62.0228 126.4 63.9561 125.101 65.8307C122.263 69.6455 119.51 73.5215 117.159 77.6662L117.166 77.667ZM60.7263 31.2223C58.9161 33.4374 57.768 36.0683 56.2301 38.4534C55.7825 39.1469 55.5207 40.0082 55.7041 40.9346C55.8366 41.5978 56.2378 41.9675 56.7907 42.1546C57.3572 42.3474 57.6513 41.881 57.9272 41.4727C61.8336 35.6977 65.7503 29.9333 69.6398 24.1468C70.3721 23.058 70.1018 22.5727 68.7001 22.1991C67.5709 21.714 66.9854 22.6169 66.4735 23.2494C64.4056 25.7936 62.4488 28.4235 60.7239 31.2206L60.7263 31.2223ZM65.6033 48.3777C65.8695 48.1036 66.1864 47.8638 66.3971 47.5521C70.0464 42.1314 73.6812 36.7008 77.3209 31.2735C77.7305 30.1989 78.5082 29.3449 79.0724 28.3642C80.1666 26.4535 79.8483 25.1227 78.0619 23.9436C76.6854 23.038 74.772 23.406 73.7646 24.8862C69.2903 31.4704 64.8353 38.0677 60.4117 44.6862C59.6295 45.8539 59.3811 47.1642 60.192 48.4795C60.7039 49.8989 61.7831 50.3747 63.6399 49.9966C64.5841 49.8077 65.0989 49.1032 65.6017 48.3802L65.6033 48.3777ZM155.86 62.0876C154.517 62.8936 154.11 64.4382 153.14 65.5393C152.614 65.6936 152.449 66.1981 152.188 66.5846C148.115 72.564 144.05 78.5483 139.992 84.5374C135.441 91.2498 130.895 97.9613 126.359 104.683C125.054 106.614 125.367 108.292 127.197 109.526C128.962 110.715 130.383 110.504 131.54 108.776C141.083 94.5414 150.612 80.2945 160.16 66.0631C160.56 65.4712 160.629 64.9306 160.371 64.2981C159.737 62.7405 157.553 61.6656 155.859 62.09L155.86 62.0876ZM152.209 61.7249C152.3 60.315 151.381 59.2643 149.762 59.0082C147.88 58.7109 146.001 58.8454 144.145 59.2065C141.732 59.6734 139.294 60.292 136.862 60.0527C134.809 59.8513 133.537 60.1183 132.796 62.2778C131.88 64.9353 129.837 66.9937 128.461 69.421C126.444 72.4047 124.432 75.3877 122.418 78.373C120.516 80.8075 119.078 83.5806 116.936 85.8389C116.113 86.708 115.89 87.5639 116.617 88.7274C117.217 89.6888 117.489 90.8689 117.687 92.0234C118.146 94.6879 118.576 97.3539 119.099 100.006C119.789 103.485 122.349 104.504 124.609 103.191C125.169 102.992 125.34 102.442 125.629 102.015C127.811 98.8056 129.977 95.585 132.143 92.3645C138.455 82.9887 144.762 73.6096 151.071 64.2322C151.147 63.2557 152.241 62.7353 152.206 61.7087L152.21 61.729L152.209 61.7249ZM32.6769 31.9819L32.579 32.3768C32.5895 33.2673 33.288 33.4367 33.9282 33.63C35.6161 34.1372 37.3064 34.6461 39.01 35.1041C43.3505 36.2742 47.6944 37.429 52.0432 38.5661C52.7667 38.7558 53.5633 39.0197 53.9565 37.9691C54.6762 36.0553 56.0567 34.5282 57.0649 32.7811C58.9687 29.9641 60.8741 27.1446 62.7779 24.3276C63.3091 23.578 63.7921 22.7852 64.3853 22.0845C65.0861 21.2559 64.9246 20.6928 64.2725 19.8403C60.6188 15.0448 57.0423 10.1923 53.4821 5.32618C52.3523 3.78483 52.3067 3.71176 50.7111 4.85418C47.5312 7.13263 45.0441 10.115 42.6931 13.1719C39.6572 17.1173 36.9973 21.3344 34.8548 25.8378C33.9229 27.7948 32.8415 29.7387 32.6728 31.9827L32.6769 31.9819ZM127.976 58.13C122.063 56.865 116.527 54.729 111.101 52.2547C107.722 50.7138 104.434 49.0019 101.123 47.3239C97.9954 45.7384 94.9982 43.9451 92.0474 42.0882C87.8625 39.4535 83.801 36.6207 79.7198 33.8274C79.0466 33.3654 78.7834 33.536 78.3899 34.1287C75.751 38.0855 73.1073 42.0391 70.3952 45.9428C69.8353 46.7505 70.0616 47.0301 70.7682 47.4584C72.7107 48.6304 74.6515 49.8153 76.5303 51.0921C82.3946 55.0799 88.1234 59.2471 93.7046 63.6278C97.5104 66.6151 101.107 69.813 104.407 73.3454C106.994 76.1107 109.659 78.8126 111.761 82.2429C116.682 73.7326 122.267 65.9107 127.977 58.1341L127.976 58.13ZM36.6647 17.8999L40.1033 12.8118C38.4101 14.1663 37.2977 15.8957 36.6647 17.8999ZM70.929 25.7959C70.8904 25.7698 70.8517 25.7437 70.8131 25.7176L61.4868 39.5177C61.5254 39.5438 61.5641 39.5699 61.6027 39.5961L70.929 25.7959Z" fill="#FC4727"/>
</g>
</g>
<defs>
<clipPath id="clip0_422_417">
<rect width="213" height="115" fill="white"/>
</clipPath>
<clipPath id="clip1_422_417">
<rect width="61.2762" height="151.52" fill="white" transform="translate(5 29.7695) rotate(-55.9486)"/>
</clipPath>
</defs>
</svg>
