<svg width="102" height="122" viewBox="0 0 102 122" fill="none" xmlns="http://www.w3.org/2000/svg">
<g clip-path="url(#clip0_422_415)">
<g clip-path="url(#clip1_422_415)">
<path d="M7.7814 90.5225C7.17026 84.3936 8.28151 82.2394 13.4251 79.4756C15.0728 78.5881 16.7552 77.7399 18.4873 77.0398C23.433 75.0393 27.0774 71.5068 30.0633 67.25C34.1102 61.4815 37.2338 55.2265 39.4589 48.5299C39.8965 47.2077 40.074 46.4134 38.3161 45.7589C35.4912 44.7106 34.0273 42.0525 34.425 39.7021C34.8582 37.1402 36.757 35.1867 39.1902 35.0182C40.2272 34.9473 41.2988 35.1499 42.3345 35.3463C43.3177 35.5361 44.2693 35.8801 45.8931 36.3456C40.4857 29.9881 39.2156 23.2099 41.7152 15.9059C44.2316 8.54379 49.5327 3.82936 57.036 2.21894C66.5539 0.17772 78.2039 5.48388 81.5276 16.6581C83.1767 22.2018 82.0474 27.3674 79.738 32.5336C77.2165 38.1621 72.1897 40.0515 67.0165 41.8529C67.2572 42.7503 68.0611 42.6168 68.657 42.8002C70.2576 43.2883 71.8223 43.7996 73.1163 44.9487C75.1935 46.7952 75.9284 49.1941 74.9835 51.2788C73.9257 53.6115 71.1908 55.1244 68.5434 54.5078C66.6842 54.0752 65.9479 54.5712 65.5844 56.4084C64.8558 60.1031 64.0481 63.7962 64.126 67.5673C64.2188 71.9871 63.8066 76.3876 64.1292 80.823C64.4829 85.6607 67.1255 89.2424 69.7442 92.9512C72.0688 96.2409 74.2553 99.5747 73.5718 104.002C73.3601 105.368 72.8576 106.362 71.9828 107.283C71.2396 108.066 71.0751 108.567 72.1451 109.388C74.561 111.235 74.9596 115.303 73.2557 118.576C71.8107 121.354 68.5733 122.694 65.5046 121.81C46.0061 116.195 26.4992 110.595 7.00404 104.969C4.95107 104.38 2.86606 103.787 1.507 101.916C-0.390054 99.3094 -0.386954 96.4233 1.07163 93.8165C2.4024 91.4365 4.53309 89.7252 7.79686 90.527L7.7814 90.5225ZM70.3152 111.436L70.3411 111.477C70.0193 110.527 69.177 110.298 68.3496 110.061C66.7645 109.607 65.1732 109.159 63.587 108.708C63.3842 108.044 62.745 108.128 62.2733 107.993C44.6615 102.919 27.0513 97.8541 9.43179 92.8073C6.60943 91.9982 4.38616 93.4487 3.52821 96.5583C2.82155 99.1255 3.90353 100.708 6.90817 101.552C26.6752 107.106 46.4384 112.658 66.2033 118.22C69.3819 119.114 71.1053 117.583 70.8122 114.081C71.1451 113.109 71.0106 112.222 70.3229 111.439L70.3152 111.436ZM70.2345 46.3318C69.9087 46.2133 69.5878 46.092 69.262 45.9735C68.3162 45.2881 67.1905 45.0407 66.1041 44.7293C59.4133 42.8196 52.7131 40.9282 46.0101 39.061C44.3365 38.5938 42.6453 38.1592 40.9373 37.8704C39.5127 37.6294 38.0514 38.3778 37.6355 39.4928C37.167 40.7476 37.7203 42.2618 39.3407 42.856C40.4077 43.2498 41.4531 43.7043 42.5423 44.0207C49.7975 46.1507 57.0605 48.2537 64.3235 50.3567C65.8032 50.7851 67.2723 51.2648 68.7786 51.5711C70.94 52.015 72.4874 50.7474 72.3129 48.7727C72.1958 47.4881 71.1361 46.9668 70.2367 46.324L70.2345 46.3318ZM25.1692 82.7753C24.4744 82.5426 23.7923 82.2509 23.0826 82.0851C21.6735 81.7606 20.2762 80.7534 18.8642 81.198C16.5339 81.9274 14.2735 82.8944 12.584 84.8619C10.8751 86.8531 11.2292 89.398 13.5879 90.9194C20.2091 92.8384 26.8198 94.7795 33.4488 96.6714C43.744 99.6102 54.0492 102.514 64.35 105.434C65.5386 105.126 66.5929 106.206 67.7949 105.764C68.9506 105.761 69.5004 105.069 69.9405 104.074C71.331 100.916 69.3055 98.6704 67.8181 96.3863C66.772 94.7811 65.704 92.9896 63.3457 92.824C60.2853 92.6119 57.3142 91.8983 54.361 91.0642C52.5118 90.5383 50.7226 89.7157 48.7542 89.6494C40.8964 87.3591 33.0347 85.0678 25.1769 82.7775L25.1692 82.7753ZM65.4932 38.3661C72.9587 37.6026 78.7701 30.6412 78.764 22.4891C78.7561 10.1985 67.1695 1.86879 55.2556 6.38623C46.599 9.67014 41.8387 19.9704 45.2542 28.5476C47.9641 35.3535 56.541 40.3603 64.5864 38.5078C64.8887 38.4606 65.1909 38.4133 65.492 38.37L65.4932 38.3661ZM60.826 84.0559C59.1969 71.3926 60.201 65.4966 62.4466 54.3206C62.6619 53.2485 62.2505 53.0929 61.4579 52.8657C55.8585 51.2647 50.2568 49.6714 44.6857 47.9865C43.5573 47.6463 43.3779 48.0969 43.0655 48.9822C41.9468 52.1551 40.9484 55.4044 39.4933 58.4223C36.6512 64.3228 33.454 70.0462 28.3675 75.1359C39.8024 76.8283 50.1164 81.0736 60.8282 84.0481L60.826 84.0559ZM22.4112 79.0852C35.7264 83.0194 48.7738 87.45 62.3599 89.9431C62.7256 90.0103 63.1662 90.3123 63.4588 89.89C63.7503 89.4715 63.3357 89.1518 63.1426 88.8328C62.8265 88.3154 62.3744 87.9808 61.7962 87.7063C57.3927 85.6113 52.596 84.6839 48.0302 83.0529C42.1937 80.9655 36.1667 79.2796 30.0292 78.3152C27.6275 77.9363 24.8828 76.0825 22.4101 79.0891L22.4112 79.0852Z" fill="#FC4727"/>
</g>
</g>
<defs>
<clipPath id="clip0_422_415">
<rect width="102" height="122" fill="white"/>
</clipPath>
<clipPath id="clip1_422_415">
<rect width="76.6345" height="115" fill="white" transform="translate(30 -8) rotate(15.996)"/>
</clipPath>
</defs>
</svg>
