<svg width="62" height="62" viewBox="0 0 62 62" fill="none" xmlns="http://www.w3.org/2000/svg">
<g clip-path="url(#clip0_427_863)">
<path d="M59.9986 7.22989C59.9986 5.3095 58.9628 4.27132 57.0552 4.2697C56.2006 4.2697 55.7727 3.8424 55.7717 2.98781C55.7701 1.0398 54.7391 0 52.8025 0H30.3617C29.7875 0 29.2165 0 28.6423 0.112104C27.7576 0.282697 26.8135 1.33387 26.8119 2.25345C26.8054 5.96101 26.7395 9.66856 26.8247 13.3745C26.8698 15.3306 26.458 17.3079 27.0885 19.264C27.2349 19.7157 27.3555 20.0926 27.6885 20.4062C28.3174 21.0008 29.1135 21.0187 29.8968 21.0203C30.2684 21.0219 30.3745 21.1292 30.3681 21.5012C30.3472 23.0414 30.3553 24.58 30.352 26.1202C30.3681 26.1657 30.3826 26.2112 30.3971 26.2583C30.5901 26.5118 30.4341 26.8643 30.7091 27.1243C31.3959 27.7725 32.1712 27.792 32.8548 27.121C33.2408 26.7425 33.5576 26.3054 33.8922 25.883C34.1335 25.5808 34.3361 25.2543 34.8299 25.2559C39.3818 25.2721 43.9336 25.2673 48.4871 25.2608C48.7444 25.2608 48.9503 25.3095 49.1144 25.5223C49.3476 25.8213 49.5937 26.1089 49.8317 26.4045C51.1506 28.052 52.4663 29.7027 53.7949 31.342C53.9252 31.5061 54.0732 31.6539 54.3032 31.7368C55.4596 32.1543 56.4118 31.4996 56.4392 30.2015C56.4665 28.8643 56.4456 27.5272 56.4456 26.1901C56.4456 25.2868 56.4456 25.2965 57.3222 25.2835C58.321 25.2689 59.1027 24.8627 59.6078 23.9594C59.9295 23.3842 59.9906 22.749 59.9922 22.1186C60.0051 17.1552 60.0002 12.1917 59.9986 7.22989ZM34.1077 22.7279C33.4804 23.4411 32.9754 24.2648 32.2275 24.8903C32.1084 24.697 32.1696 24.4923 32.1696 24.3006C32.1615 23.0837 32.1663 21.8684 32.1647 20.6531C32.1647 19.5305 31.8511 19.199 30.7445 19.1633C30.3038 19.1487 29.8615 19.173 29.4208 19.1552C28.8787 19.134 28.5988 18.8741 28.5988 18.2827C28.6101 13.0967 28.6021 7.91064 28.6085 2.72299C28.6085 2.05686 28.8562 1.82453 29.514 1.82453C37.2763 1.82291 45.037 1.82291 52.7993 1.82941C53.1419 1.82941 53.5745 1.73842 53.6453 2.28757C53.6598 2.48091 53.8013 2.5329 53.9574 2.56702C53.9606 7.75305 53.9654 12.9391 53.9654 18.1251C53.9654 18.9407 53.7225 19.16 52.8491 19.16C47.9145 19.1617 42.9814 19.1812 38.0468 19.1389C37.2522 19.1324 36.7488 19.4216 36.2968 20.0065C35.5843 20.9277 34.8749 21.8538 34.1077 22.7279ZM58.1956 22.2665C58.1956 23.2478 58.001 23.446 57.0455 23.4476C56.5855 23.4476 56.1239 23.4411 55.6623 23.4492C54.9675 23.4622 54.6844 23.74 54.6795 24.4533C54.6683 25.9919 54.6763 27.5321 54.6747 29.0723C54.6747 29.1487 54.6635 29.225 54.6458 29.4492C54.0957 28.7815 53.6164 28.208 53.1467 27.6263C52.1945 26.4517 51.2455 25.2738 50.303 24.091C49.954 23.6539 49.5213 23.4427 48.96 23.4444C44.8488 23.4509 40.7361 23.4476 36.6249 23.4476H35.8834C36.6008 22.5865 37.2152 21.831 37.8538 21.095C38.0114 20.9115 38.2736 21.0041 38.4875 21.0024C43.2806 20.9992 48.0737 21.0008 52.8668 20.9992C54.723 20.9992 55.7765 19.9383 55.7765 18.0715C55.7781 14.3038 55.7861 10.5345 55.7668 6.76686C55.7636 6.26158 55.8537 6.07799 56.4134 6.07149C58.0637 6.05199 58.2165 6.18359 58.2052 7.86353C58.1763 12.6645 58.1956 17.4655 58.1956 22.2665Z" fill="#FC4727"/>
<path d="M12.035 21.7595C11.5589 21.2965 10.3574 20.0033 9.92956 17.9155C9.49207 15.7839 10.1129 14.0666 10.4459 13.3193C11.3482 11.2965 12.8585 10.2957 13.214 10.0699C15.2374 8.78798 17.2527 8.9472 17.9412 9.01056C18.6778 9.0788 20.5661 9.3615 22.2614 10.8172C23.2506 11.6669 23.7572 12.5589 23.8891 12.7977C24.7963 14.4565 24.7609 16.0309 24.7352 16.7734C24.7126 17.4102 24.6547 18.3233 24.2156 19.368C23.8972 20.1235 23.4323 20.8189 22.8195 21.4525C22.7359 21.5386 22.6571 21.628 22.5509 21.7417C23.3841 22.2518 24.2896 22.5784 25.0392 23.1925C26.2905 24.2177 27.3456 25.3712 28.0839 26.8562C28.5584 27.8083 28.8801 28.814 29.1197 29.8067C29.2613 30.3899 29.2339 31.1275 29.2146 31.8002C29.1809 32.9586 29.2066 32.9586 30.3695 32.9586C30.5496 32.9586 30.733 32.9423 30.9099 32.9651C32.0777 33.1129 32.5875 33.6848 32.6374 34.97C32.6696 35.7953 32.6503 36.6223 32.6615 37.4476C32.6631 37.5841 32.6229 37.6799 32.52 37.7596C32.0937 38.0845 31.6273 38.4322 31.1239 38.4955C30.6172 38.5605 30.6687 38.8042 30.6703 39.1292C30.6735 40.6678 30.6767 42.208 30.6703 43.7466C30.6654 44.9618 30.0366 45.6198 28.8511 45.6198C21.1516 45.6247 13.452 45.6263 5.75247 45.6198C4.49789 45.6198 3.94138 45.0089 3.94459 43.7189C3.94781 42.1592 3.93977 40.5995 3.95103 39.0398C3.95263 38.723 3.91403 38.5817 3.53283 38.5004C2.39567 38.2632 2.00161 37.7011 2 36.5232C2 35.935 2 35.3485 2 34.7604C2 33.6231 2.55652 33.0187 3.67759 32.9635C4.05718 32.944 4.4416 32.931 4.81958 32.9667C5.2812 33.0106 5.44043 32.8676 5.42757 32.3737C5.3954 31.0853 5.44847 29.8115 5.82163 28.5475C6.24786 27.1064 6.96201 25.8619 7.90294 24.7197C8.99989 23.3875 10.3944 22.4809 12.035 21.7579V21.7595ZM17.3525 34.7799H4.84049C3.80305 34.7799 3.79662 34.7799 3.80466 35.8375C3.8127 36.8481 3.66955 36.7019 4.65391 36.7116C5.50316 36.7198 5.71387 36.905 5.72191 37.7709C5.73799 39.5727 5.74925 41.3761 5.72995 43.1779C5.72512 43.6426 5.83289 43.8018 6.32507 43.8018C13.6434 43.7856 20.9618 43.7856 28.2801 43.8018C28.7884 43.8018 28.8688 43.6133 28.864 43.1682C28.8415 41.3453 28.8495 39.5223 28.8447 37.7011C28.8447 37.1097 29.1809 36.7295 29.7245 36.7149C30.4773 36.6943 30.8531 36.299 30.852 35.5288C30.852 35.4882 30.8456 35.4476 30.852 35.407C30.9373 34.8968 30.7201 34.7669 30.2247 34.7685C25.9334 34.788 21.6438 34.7799 17.3525 34.7799ZM17.2704 32.9602C20.476 32.9602 23.6833 32.9537 26.8889 32.9683C27.2652 32.9683 27.4019 32.8903 27.4019 32.476C27.4019 31.6296 27.4245 30.7734 27.2491 29.9513C26.5591 26.723 24.6869 24.5037 21.581 23.3956C21.0374 23.2023 20.5179 23.186 19.9276 23.4265C18.073 24.1852 16.1928 24.1527 14.3544 23.3274C14.0343 23.1844 13.7126 23.1682 13.4231 23.2461C11.6023 23.7433 10.1097 24.7555 8.9645 26.2762C7.62951 28.0487 7.09068 30.0585 7.15663 32.2713C7.17271 32.7994 7.26118 32.9829 7.83378 32.9765C10.9799 32.9456 14.126 32.9618 17.272 32.9618L17.2704 32.9602ZM16.5579 22.1365C20.1351 22.0634 23.1911 20.117 22.9804 15.7596C22.9112 14.3428 22.1794 13.1292 21.0953 12.1592C19.7828 10.9862 18.2355 10.7019 16.5547 10.7994C15.2036 10.879 14.1549 11.5467 13.2108 12.4517C11.7519 13.8505 11.3997 15.6913 11.6023 17.5418C11.7165 18.5849 12.413 19.6003 13.2333 20.3867C14.3029 21.4119 15.5349 22.0861 16.5563 22.1365H16.5579Z" fill="#FC4727"/>
<path d="M41.2406 46.044C38.0736 42.6727 38.2506 38.416 41.2438 35.3437C44.1245 32.3868 48.7327 32.7913 51.3464 34.9522C54.9477 37.9286 54.6887 43.2657 51.8418 46.0261C52.112 46.299 52.4771 46.3933 52.7988 46.5622C55.5283 47.9952 57.3008 50.1951 58.0922 53.2072C58.3704 54.2698 58.475 55.3453 58.4412 56.4339C58.3945 57.9237 58.5908 59.4185 58.3302 60.9018C58.2353 61.4461 57.6949 61.9578 57.1786 61.9936C57.0788 62.0001 56.9775 62.0001 56.8778 62.0001C50.0194 62.0001 43.1595 62.0017 36.3011 62.0001C35.2315 62.0001 34.6734 61.4639 34.6605 60.3624C34.6412 58.702 34.6557 57.0399 34.6734 55.3795C34.704 52.585 35.8781 50.2779 37.7632 48.3299C38.5996 47.4672 39.6032 46.7799 40.7291 46.3137C40.8916 46.247 41.0444 46.1512 41.2422 46.0456L41.2406 46.044ZM46.5726 60.1756C47.4138 60.1756 48.2566 60.1756 49.0978 60.1756C51.4429 60.1756 53.7864 60.1788 56.1315 60.1707C56.3325 60.1707 56.6558 60.3137 56.6397 59.8831C56.5738 57.9367 56.7974 55.9838 56.4017 54.0456C55.6988 50.6077 53.566 48.5476 50.3315 47.5387C50.079 47.4591 49.8103 47.4477 49.4983 47.5858C48.5992 47.9838 47.6534 48.26 46.6498 48.2617C45.5319 48.2617 44.4655 48.0423 43.4522 47.5582C43.3059 47.4883 43.1627 47.4574 42.9617 47.4948C40.9495 47.8717 39.4022 48.9993 38.1782 50.5752C37.1247 51.9319 36.5215 53.5224 36.4346 55.2462C36.3607 56.6971 36.4636 58.1577 36.4459 59.6118C36.4411 60.0667 36.5601 60.1869 37.0137 60.1837C40.2 60.1626 43.3863 60.1723 46.5726 60.1723V60.1756ZM40.8578 40.6776C40.7356 43.7694 43.4603 46.4615 46.5082 46.416C49.4308 46.3721 52.3951 44.3851 52.1796 40.0488C52.0541 37.5354 49.8007 35.0415 46.5388 35.0188C43.412 34.9976 40.8144 37.537 40.8578 40.6776Z" fill="#FC4727"/>
<path d="M30.3517 26.1201C30.3662 26.1656 30.3823 26.2127 30.3968 26.2582C30.3405 26.2452 30.2858 26.2322 30.2295 26.2192C30.2697 26.1867 30.3115 26.1526 30.3517 26.1201Z" fill="#FC4727"/>
</g>
<path d="M38.1 8.75H45.1M47.2 17.5H36V16.1L38.1 15.05H45.1L47.2 16.1V17.5Z" stroke="#FC4727" stroke-width="1.2" stroke-miterlimit="2" stroke-linecap="round" stroke-linejoin="round"/>
<path d="M42.9082 8.75L44.7492 15.05H38.4492L40.2902 8.75" stroke="#FC4727" stroke-width="1.2" stroke-miterlimit="2" stroke-linecap="round" stroke-linejoin="round"/>
<path d="M41.5994 3.5C40.9786 3.49977 40.3752 3.70588 39.8843 4.08592C39.3934 4.46597 39.0427 4.99839 38.8874 5.59949C38.7321 6.20058 38.7809 6.83626 39.0263 7.40656C39.2716 7.97686 39.6996 8.44944 40.2428 8.75H42.956C43.4992 8.44944 43.9272 7.97686 44.1725 7.40656C44.4179 6.83626 44.4667 6.20058 44.3114 5.59949C44.1561 4.99839 43.8054 4.46597 43.3145 4.08592C42.8235 3.70588 42.2202 3.49977 41.5994 3.5Z" stroke="#FC4727" stroke-width="1.2"/>
<defs>
<clipPath id="clip0_427_863">
<rect width="58" height="62" fill="white" transform="translate(2)"/>
</clipPath>
</defs>
</svg>
