<svg width="115" height="261" viewBox="0 0 115 261" fill="none" xmlns="http://www.w3.org/2000/svg">
<g clip-path="url(#clip0_415_126)">
<path d="M80.241 90.695C84.7249 91.61 86.8332 94.721 87.5607 98.8855C88.4763 104.143 84.5417 108.49 78.4989 108.673C76.2322 108.743 75.6977 109.376 75.7274 111.562C75.8512 120.613 75.4899 129.684 75.8957 138.72C76.0986 143.221 76.549 147.766 77.0587 152.277C77.7912 158.825 78.6672 165.339 79.7956 171.818C81.4238 181.161 83.5272 190.4 87.1301 199.233C87.8477 200.989 88.9415 202.206 90.6885 203.042C94.1182 204.684 94.5686 207.424 91.8119 210.045C90.8023 211.005 90.9805 211.539 91.6239 212.563C94.7171 217.504 99.3791 221.055 102.947 225.565C105.397 228.662 107.441 231.901 107.51 236.1C107.545 238.217 105.491 239.943 106.026 241.575C106.526 243.099 108.758 243.994 109.361 245.883C110.579 249.687 110.44 255.854 105.615 257.862C103.754 258.639 101.74 258.985 99.6909 258.98C74.2279 258.945 48.7648 258.916 23.3018 258.896C20.5848 258.896 17.8628 259.074 15.1507 258.96C6.72238 258.619 4.27259 250.829 7.1777 245.028C7.53898 244.31 8.10813 243.672 8.68222 243.094C9.25631 242.52 9.96403 242.07 10.7559 241.447C8.23185 238.618 7.1777 235.348 8.49416 231.659C9.3157 229.354 10.7064 227.381 12.4138 225.59C16.6057 221.203 21.4657 217.454 24.9499 212.365C25.4893 211.578 25.6576 211.46 24.94 210.827C21.0104 207.364 21.6884 203.863 26.687 202.211C27.6174 201.904 27.9539 201.528 28.34 200.737C32.5863 191.938 34.6006 182.516 36.2338 172.975C37.5799 165.126 38.1441 157.223 38.7627 149.289C39.7625 136.509 39.5595 123.739 39.6536 110.954C39.6684 108.916 38.4361 108.871 37.179 108.871C33.3039 108.871 30.4928 107.125 28.4785 103.925C25.4596 99.1328 28.147 93.0147 33.8335 91.0116C34.9618 90.6159 35.7834 90.4626 34.7243 89.1569C32.8882 86.8867 33.779 84.6907 35.0658 82.6134C35.5508 81.8369 35.6151 81.2978 35.2984 80.4273C33.586 75.6891 31.8835 70.9559 30.082 66.2473C29.117 63.7299 28.528 60.9997 27.6323 58.4179C26.2614 54.476 24.9004 50.5341 23.7373 46.528C22.8465 43.4516 23.3513 42.0816 26.1277 40.5088C28.1321 39.3761 30.2652 38.6442 32.4923 38.0506C37.0108 36.8438 41.5738 35.9486 46.2359 35.6222C46.9287 35.5727 47.5424 35.4788 47.9581 34.8853C49.5666 32.5854 50.7692 30.1322 51.0414 27.2685C51.175 25.8589 50.591 25.5572 49.3587 25.7353C48.2303 25.8985 47.1316 26.1953 45.9933 26.3634C42.5636 26.8679 40.5048 25.5127 40.198 22.0259C40.0248 20.0673 40.0693 18.0741 40.1732 16.1056C40.3168 13.4447 41.6975 12.1439 44.38 11.9708C45.3648 11.9065 46.3596 11.9411 47.3444 11.9362C48.3244 11.9362 49.3043 11.9362 50.2446 11.9362C50.5416 9.57697 48.7599 7.86568 48.9875 5.64991C49.2053 3.55778 50.3683 2.10863 52.4816 2.04927C55.6094 1.96025 58.7422 1.98992 61.875 1.99982C63.5972 2.00476 64.493 2.94943 64.399 4.64094C64.2951 6.42147 64.6563 8.202 63.9882 9.99243C63.5131 11.2586 63.9734 12.1736 65.6808 11.951C66.8983 11.7927 68.1504 11.8867 69.3827 11.9312C72.4412 12.0351 74.0299 13.5881 74.2526 16.6299C74.4753 19.632 73.9458 22.5204 72.6837 25.2259C71.7038 27.318 69.739 26.8086 67.997 26.6404C67.4575 26.586 66.9428 26.2645 66.4182 26.0568C65.6313 25.7501 64.6662 25.4287 64.0773 25.9974C63.4884 26.5613 64.3346 27.3229 64.498 28.0055C64.8395 29.425 65.3344 30.8098 65.7253 32.2194C66.6063 35.3947 69.259 35.9338 71.9018 36.0772C76.5985 36.3295 81.0526 37.5857 85.4078 39.1437C90.7528 41.0528 92.584 43.0361 90.06 48.8723C88.0457 53.5314 86.6006 58.4476 84.9921 63.2748C83.1412 68.8291 81.4486 74.4378 79.5283 79.9673C79.1819 80.9615 79.459 81.3819 79.9341 82.0941C81.5475 84.5077 81.8841 87.9698 80.2459 90.6901L80.241 90.695ZM61.2316 31.4924C61.5681 31.5171 61.7364 31.3588 61.7463 31.0225C60.5733 28.6089 60.6278 25.854 59.6281 23.3959C59.2173 21.6994 60.1725 21.185 61.6028 21.2642C63.5576 21.373 65.463 21.6994 67.2942 22.4908C69.4322 23.4157 70.3131 22.7776 70.3379 20.4432C70.3775 17.0437 68.67 15.3588 65.2156 15.3884C64.8889 15.3884 64.5574 15.4082 64.2307 15.4132C59.8062 15.4478 59.4153 14.9878 60.3556 10.8481C60.41 10.6453 60.4595 10.4425 60.514 10.2447C60.8307 10.0172 60.8703 9.71051 60.7713 9.36429C60.9148 8.06352 61.0782 6.75779 60.702 5.46691C58.2869 5.01683 55.8816 5.10091 53.4813 5.5955C53.3625 5.63507 53.2438 5.67464 53.125 5.71915C53.2091 5.80323 53.2982 5.88731 53.3823 5.97139C54.1049 7.28206 53.3823 8.66692 53.6149 10.0172C54.4761 15.0917 54.1346 15.4873 49.1261 15.4329C43.3258 15.3736 43.4 15.3736 43.593 21.185C43.6475 22.743 44.2859 22.9161 45.5133 22.8221C47.8146 22.649 49.9774 21.8775 52.1698 21.2691C54.1247 20.7251 54.8275 21.6153 54.6938 23.3167C54.5107 25.671 54.8275 28.1093 53.8327 30.3597C53.4764 31.1709 53.4764 31.5665 54.5256 31.5468C56.7428 31.5022 58.9599 31.522 61.1771 31.5171L61.2266 31.5022L61.2316 31.4924ZM45.2411 205.119C45.157 205.079 45.0778 205.084 44.9986 205.139C39.9852 204.793 35.0113 205.554 30.0128 205.628C28.9091 205.643 28.5528 206.375 28.4241 207.068C28.2608 207.928 29.1318 207.958 29.7752 208.101C31.5915 208.507 33.487 208.68 35.2439 209.115C38.2975 209.872 41.2026 208.68 44.1622 209.086C44.865 209.971 45.835 209.471 46.6516 209.481C57.5791 209.669 68.5018 209.555 79.4194 209.036C82.3196 208.898 85.1703 208.611 88.2387 207.641C86.1551 205.243 83.4628 205.376 81.0328 205.213C77.1775 204.956 73.2974 205.074 69.4272 205.03C61.3652 204.664 53.2982 204.476 45.2361 205.109L45.2411 205.119ZM56.916 81.6935C52.0807 81.2533 47.29 82.1386 42.4746 82.2425C41.074 82.2721 39.614 82.7222 38.4856 83.8598C37.6789 84.6758 37.5403 85.5908 37.8026 86.5454C38.0699 87.5247 39.0052 87.495 39.8416 87.495C51.6749 87.5 63.5032 87.5296 75.3365 87.5C77.5635 87.495 77.9892 86.6542 77.1825 84.3296C76.7915 82.282 74.9653 82.3166 73.5894 82.1979C68.0465 81.7083 62.4886 81.4561 56.916 81.6885V81.6935ZM37.4265 104.84C38.0649 104.954 38.7034 105.172 39.3418 105.172C50.4327 105.152 61.5236 105.103 72.6145 105.063C74.5149 104.618 76.4549 104.9 78.3702 104.761C82.0969 104.484 83.6658 102.773 83.6262 99.1427C83.5915 96.3482 81.2556 94.0088 78.2168 93.9989C64.7058 93.9643 51.1948 93.9692 37.6838 94.0385C35.2984 94.0484 33.2198 94.9436 32.1409 97.3325C30.6314 99.3999 30.9877 101.368 33.2841 103.619C34.4471 104.766 35.9269 104.821 37.4215 104.84H37.4265ZM103.922 244.701C101.512 243.578 98.9535 244.474 96.4839 244.157C95.7663 243.564 94.9002 243.811 94.1083 243.811C81.8296 243.766 69.551 243.737 57.2723 243.722C43.5089 243.702 29.7505 243.687 15.9871 243.697C12.0327 243.697 9.96898 245.73 9.97393 249.474C9.97888 253.084 11.6269 254.88 15.1556 254.865C44.2414 254.756 73.3321 254.618 102.418 254.519C103.63 254.519 104.457 254.103 105.1 253.139C106.689 250.77 106.125 246.68 103.917 244.701H103.922ZM100.963 239.226C103.032 238.014 103.635 235.724 102.457 233.207C101.087 230.279 99.1118 227.766 96.8402 225.501C93.8906 222.553 90.7034 219.714 88.7287 216.069C87.0608 212.993 85.4771 211.46 81.7356 212.469C77.128 213.705 72.2928 212.79 67.5713 213.161C61.4592 213.161 55.3521 213.166 49.2399 213.171C44.0088 212.81 38.7429 213.423 33.5316 212.558C31.5272 212.226 30.1117 212.726 29.1665 214.853C28.3845 216.608 26.9839 218.112 25.5487 219.487C22.2378 222.662 18.8971 225.798 15.6654 229.052C11.429 233.326 12.4287 237.891 16.4226 239.82C17.2342 240.418 18.1696 240.136 19.0456 240.136C25.6328 240.156 32.2201 240.141 38.8073 240.126C57.9899 240.092 77.1726 240.047 96.3552 240.007C97.8003 239.186 99.5721 240.23 100.983 239.206L100.958 239.231L100.963 239.226ZM29.1912 42.9966L28.5429 43.234C27.3007 44.0946 27.7263 45.2371 28.0628 46.3202C28.9537 49.174 29.8445 52.0328 30.8195 54.8618C33.299 62.073 35.8032 69.2742 38.3371 76.4656C38.7578 77.6625 39.1438 79.0326 40.9948 78.5874C44.3701 77.7812 47.8295 78.2709 51.2443 78.0285C57.015 78.0285 62.7905 78.0285 68.5612 78.0285C70.1201 78.0632 71.6939 77.989 73.243 78.1571C75.0741 78.355 75.7126 77.5933 76.2916 75.8672C79.563 66.1781 82.9877 56.5434 86.4471 46.9187C87.5409 43.867 87.6003 43.7335 84.4774 42.5762C78.2515 40.2714 71.6939 39.6086 65.1611 39.208C56.7279 38.6887 48.2699 38.9557 39.901 40.2219C36.2635 40.7709 32.5021 41.0973 29.1863 42.9916L29.1912 42.9966ZM82.9877 201.756C79.1472 192.245 76.8905 182.437 75.2127 172.461C74.1685 166.249 73.4509 160.002 72.6639 153.756C71.9216 147.855 71.5949 141.94 71.4019 136.029C71.1297 127.646 71.2535 119.248 71.3029 110.86C71.3128 109.475 70.8229 109.267 69.6153 109.277C61.5434 109.326 53.4714 109.366 45.4044 109.262C43.7366 109.242 43.5584 109.826 43.6277 111.226C43.8257 115.069 44.0038 118.921 43.9939 122.774C43.9593 134.803 43.5436 146.811 42.6874 158.815C42.1034 167.001 41.0245 175.092 39.1933 183.085C37.763 189.346 36.4961 195.657 33.6701 201.869C50.3139 200.702 66.6211 201.123 82.9828 201.761L82.9877 201.756ZM52.7835 35.2265H63.2063C59.6924 34.1335 56.2033 34.2126 52.7835 35.2265ZM74.2427 90.878C74.2427 90.7989 74.2427 90.7198 74.2427 90.6406H45.9736C45.9736 90.7198 45.9736 90.7989 45.9736 90.878H74.2427Z" fill="#211C17"/>
<path d="M82.9826 201.756C66.6209 201.118 50.3137 200.702 33.6699 201.865C36.4958 195.653 37.7628 189.342 39.1931 183.08C41.0193 175.088 42.1032 166.996 42.6871 158.811C43.5433 146.807 43.9591 134.798 43.9937 122.77C44.0036 118.922 43.8254 115.069 43.6275 111.221C43.5532 109.826 43.7364 109.238 45.4042 109.257C53.4761 109.356 61.5481 109.317 69.6151 109.272C70.8227 109.267 71.3126 109.47 71.3027 110.855C71.2532 119.243 71.1295 127.641 71.4017 136.025C71.5947 141.935 71.9214 147.85 72.6637 153.751C73.4506 159.998 74.1683 166.244 75.2125 172.456C76.8903 182.427 79.147 192.235 82.9875 201.751L82.9826 201.756ZM44.6371 123.056C44.7955 123.056 44.9538 123.056 45.1171 123.061C45.1171 121.039 45.1171 119.011 45.1171 116.988C45.1171 116.493 45.132 115.924 45.7605 115.826C46.4138 115.722 46.488 116.3 46.6712 116.755C47.0522 117.705 47.0077 118.689 47.0126 119.678C47.0671 131.598 46.8988 143.508 46.1317 155.408C45.523 164.83 44.5233 174.197 42.6871 183.456C41.5489 189.193 40.5689 194.975 38.4507 200.589C41.2272 200.589 43.7809 200.529 46.3247 200.613C47.6065 200.658 48.052 200.109 48.2153 198.942C48.5865 196.266 49.2645 193.615 49.4327 190.929C50.4028 175.355 51.3926 159.775 51.4965 144.161C51.5609 134.941 51.5955 125.722 51.4965 116.508C51.4718 114.312 52.1201 113.664 54.2977 113.723C59.2369 113.862 64.181 113.733 69.1251 113.758C70.2189 113.763 70.8573 113.496 70.7633 112.25C70.6891 111.26 70.8821 110.271 69.3182 110.276C61.5728 110.316 53.8275 110.291 46.0872 110.266C45.038 110.266 44.6272 110.672 44.6371 111.73C44.6717 115.504 44.6519 119.278 44.6519 123.056H44.6371Z" fill="white"/>
<path d="M51.2446 78.0288C47.8297 78.2711 44.3753 77.7815 40.9951 78.5877C39.1392 79.0328 38.7581 77.6628 38.3374 76.4658C35.8035 69.2745 33.2943 62.0732 30.8198 54.8621C29.8497 52.033 28.9589 49.1743 28.0631 46.3205C27.7266 45.2373 27.301 44.0948 28.5432 43.2342C28.6125 43.3727 28.7015 43.4963 28.8104 43.6101C28.6669 44.1987 27.9196 44.9949 28.7312 45.3412C30.1467 45.9446 30.2259 47.2256 30.6119 48.3236C33.6209 56.9047 36.5706 65.5057 39.5499 74.0968C40.6932 77.4006 41.2029 77.6281 44.6277 77.6281C46.6915 77.6281 46.4688 76.822 45.8798 75.442C44.4149 71.9947 42.9747 68.5375 41.6236 65.0408C39.2876 59.0018 36.9962 52.943 35.1057 46.7409C33.8931 42.7693 33.7645 42.8088 29.7557 43.1452C29.5973 43.16 29.4291 43.1056 29.2657 43.0809L29.1866 42.9968C32.5024 41.1025 36.2637 40.7761 39.9013 40.2271C48.2702 38.9609 56.7282 38.6938 65.1614 39.2132C71.6942 39.6138 78.2518 40.2765 84.4777 42.5813C87.6006 43.7387 87.5412 43.8722 86.4474 46.9239C82.988 56.5486 79.5633 66.1833 76.2919 75.8723C75.7079 77.5935 75.0744 78.3601 73.2433 78.1623C71.6942 77.9941 70.1254 78.0683 68.5664 78.0337C62.7958 77.4699 57.0202 77.5985 51.2446 78.0337V78.0288Z" fill="white"/>
<path d="M67.5812 213.166C72.3026 212.795 77.1329 213.715 81.7455 212.474C85.487 211.47 87.0707 212.998 88.7385 216.074C90.7132 219.719 93.9004 222.558 96.8501 225.506C99.1167 227.771 101.096 230.289 102.467 233.212C103.645 235.729 103.046 238.019 100.973 239.231C101.077 236.991 99.3543 237.861 98.3843 237.856C79.1868 237.797 59.9844 237.782 40.7869 237.792C38.6192 237.792 36.5307 237.426 34.4916 236.768C30.5918 235.507 29.5722 232.727 31.5469 229.092C32.9921 226.426 35.3478 224.576 37.3225 222.385C39.3021 220.194 41.4797 218.157 42.9843 215.58C43.3901 214.887 43.9147 213.873 42.3557 213.982C39.4655 214.185 36.6445 213.097 33.4969 213.7C34.5164 214.363 34.2145 215.105 33.7493 215.847C33.5662 216.134 33.1851 216.49 33.0069 216.153C31.9775 214.175 31.73 216.099 31.4133 216.515C28.8002 219.902 26.0782 223.177 22.9256 226.1C21.0054 227.88 19.1198 229.695 17.5064 231.822C15.3931 234.602 18.2636 236.491 18.5011 238.826C18.5754 239.533 20.2383 239.117 21.1638 239.122C29.3198 239.157 37.4809 239.137 45.637 239.142C64.0921 239.157 82.5423 239.182 100.997 239.201C99.5869 240.22 97.8151 239.182 96.37 240.003C95.9889 239.904 95.6078 239.711 95.2268 239.711C68.962 239.736 42.6972 239.775 16.4374 239.81C12.4435 237.886 11.4388 233.316 15.6802 229.043C18.907 225.788 22.2525 222.652 25.5635 219.477C26.9987 218.102 28.3993 216.599 29.1813 214.843C30.1265 212.716 31.542 212.217 33.5464 212.548C38.7577 213.413 44.0285 212.8 49.2547 213.161C55.3619 213.646 61.474 213.75 67.5861 213.151L67.5812 213.166Z" fill="white"/>
<path d="M103.928 244.706C106.135 246.685 106.704 250.775 105.111 253.144C104.462 254.108 103.641 254.519 102.428 254.524C73.3425 254.623 44.2518 254.761 15.1661 254.87C11.6374 254.885 9.98933 253.09 9.98438 249.479C9.97943 245.735 12.0383 243.707 15.9975 243.702C29.7609 243.692 43.5194 243.707 57.2828 243.727C69.5614 243.742 81.8401 243.771 94.1188 243.816C94.9106 243.816 95.7767 243.569 96.4943 244.162C87.3039 244.162 78.1134 244.162 68.9279 244.162C70.6502 244.612 72.3725 244.597 74.0898 244.617C79.5289 244.677 79.5437 244.682 79.7169 250.216C79.7565 251.462 79.9545 252.684 81.3848 252.818C83.1764 252.986 85.0867 253.139 86.7496 252.64C87.2 252.506 86.9376 249.998 87.002 248.579C87.0069 248.416 87.002 248.248 87.002 248.084C86.9278 245.888 88.5016 244.622 90.1793 244.771C93.7129 245.082 97.1872 244.39 100.701 244.637C101.765 244.711 102.849 245.804 103.938 244.711L103.928 244.706Z" fill="#F9B001"/>
<path d="M32.1514 97.3376C33.2303 94.9487 35.3089 94.0584 37.6943 94.0436C51.2053 93.9743 64.7163 93.9694 78.2273 94.004C81.2611 94.009 83.602 96.3533 83.6367 99.1478C83.6812 102.778 82.1123 104.489 78.3807 104.766C76.4654 104.91 74.5254 104.623 72.625 105.073C72.2389 104.984 71.8529 104.821 71.4669 104.821C60.1236 104.821 48.7753 104.836 37.432 104.85C35.9374 104.831 34.4527 104.776 33.2946 103.629C33.453 103.515 33.6163 103.396 33.7747 103.283C35.3485 103.718 36.8431 104.331 38.5505 104.321C50.8985 104.262 63.2464 104.262 75.5944 104.292C77.0197 104.292 78.3609 103.96 79.7219 103.703C80.2268 103.609 80.9444 103.495 80.781 102.659C80.6425 101.947 80.0882 101.824 79.4695 101.833C78.9746 101.838 78.4797 101.833 77.9898 101.828C66.7108 101.819 55.4318 101.794 44.1578 101.814C42.1337 101.814 40.1342 101.784 38.704 100.127C37.3232 98.5295 38.2585 96.7985 38.8524 95.0872C36.7986 94.9091 35.0218 94.7805 34.0865 96.9518C33.7846 97.6541 32.968 97.481 32.3196 97.5008L32.1514 97.3425V97.3376Z" fill="white"/>
<path d="M60.3558 10.8482C59.4204 14.988 59.8064 15.4479 64.2309 15.4133C64.5575 15.4133 64.8891 15.3935 65.2158 15.3886C68.6702 15.3556 70.3776 17.0405 70.3381 20.4433C70.3133 22.7729 69.4274 23.4109 67.2944 22.4909C65.4632 21.6996 63.5578 21.3732 61.6029 21.2644C60.1726 21.1852 59.2175 21.6996 59.6282 23.396C59.5689 26.2103 59.9945 28.9305 61.1823 31.5074C58.9651 31.5123 56.7479 31.4925 54.5307 31.537C53.4815 31.5568 53.4765 31.1611 53.8378 30.35C54.8276 28.0996 54.5109 25.6662 54.699 23.307C54.8326 21.6106 54.1348 20.7154 52.1749 21.2594C49.9825 21.8727 47.8197 22.6393 45.5184 22.8124C44.291 22.9064 43.6526 22.7333 43.5982 21.1753C43.4002 15.3589 43.326 15.3639 49.1312 15.4232C54.1397 15.4727 54.4812 15.082 53.6201 10.0074C53.3924 8.66214 54.11 7.27234 53.3874 5.96167C54.8573 5.98145 56.3272 6.09026 57.7921 5.99629C59.7124 5.87264 60.7962 6.20897 60.0539 8.52366C59.841 9.18146 59.747 10.1459 60.3657 10.8482H60.3558Z" fill="#F9B001"/>
<path d="M77.188 84.3397C77.9996 86.6692 77.5691 87.505 75.342 87.51C63.5087 87.5397 51.6804 87.51 39.8471 87.505C39.0108 87.505 38.0754 87.5347 37.8081 86.5554C37.5458 85.6009 37.6844 84.6859 38.4911 83.8698C39.6195 82.7322 41.0745 82.2822 42.4801 82.2525C47.3005 82.1486 52.0862 81.2633 56.9215 81.7035C56.8373 82.6234 57.2184 83.0142 58.1835 83.0389C62.603 83.1576 67.0374 83.5978 71.4421 83.3801C73.5405 83.2763 75.431 82.9845 77.188 84.3446V84.3397Z" fill="#F9B001"/>
<path d="M69.4369 205.04C73.3071 205.08 77.1872 204.966 81.0425 205.223C83.4725 205.386 86.1698 205.253 88.2484 207.651C85.175 208.621 82.3243 208.908 79.4291 209.046C68.5115 209.566 57.5888 209.679 46.6613 209.491C45.8397 209.477 44.8746 209.976 44.1719 209.091C45.9882 207.963 48.2153 209.704 50.0266 208.225C48.8785 207.963 47.364 208.463 46.9236 206.84C46.6415 205.807 45.6368 205.713 45.0083 205.139C45.0825 205.085 45.1666 205.075 45.2458 205.119C53.3079 205.094 61.3749 205.065 69.4369 205.04Z" fill="white"/>
<path d="M103.928 244.706C102.839 245.804 101.75 244.706 100.691 244.632C97.1822 244.385 93.7079 245.077 90.1693 244.766C88.4916 244.617 86.9227 245.883 86.992 248.079C86.997 248.243 87.0019 248.411 86.992 248.574C86.9277 249.993 87.19 252.501 86.7396 252.635C85.0767 253.134 83.1664 252.981 81.3748 252.813C79.9445 252.679 79.7466 251.462 79.707 250.211C79.5337 244.677 79.5189 244.672 74.0799 244.612C72.3576 244.593 70.6353 244.612 68.918 244.157C78.1084 244.157 87.2989 244.157 96.4844 244.157C98.9539 244.479 101.513 243.584 103.923 244.701L103.928 244.706Z" fill="white"/>
<path d="M45.0037 205.144C45.6322 205.718 46.6369 205.812 46.919 206.845C47.3644 208.468 48.8788 207.968 50.022 208.23C48.2107 209.709 45.9836 207.968 44.1673 209.096C41.2077 208.69 38.3026 209.877 35.249 209.125C33.4921 208.69 31.5966 208.517 29.7803 208.111C29.1369 207.968 28.2659 207.938 28.4292 207.078C28.5628 206.38 28.9191 205.653 30.0178 205.639C35.0164 205.564 39.9902 204.803 45.0037 205.149V205.144Z" fill="#F9B001"/>
<path d="M16.4375 239.815C42.7023 239.775 68.9671 239.741 95.2269 239.716C95.608 239.716 95.989 239.909 96.3701 240.008C77.1875 240.047 58.0048 240.087 38.8222 240.126C32.235 240.141 25.6477 240.156 19.0605 240.136C18.1845 240.136 17.2491 240.413 16.4375 239.82V239.815Z" fill="#F9B001"/>
<path d="M77.188 84.3397C75.436 82.9796 73.5454 83.2714 71.4421 83.3753C67.0424 83.5929 62.608 83.1527 58.1835 83.034C57.2184 83.0093 56.8373 82.6185 56.9215 81.6986C62.4892 81.4661 68.052 81.7184 73.5949 82.208C74.9708 82.3317 76.797 82.2921 77.188 84.3397Z" fill="white"/>
<path d="M37.4365 104.845C48.7798 104.831 60.1281 104.816 71.4714 104.816C71.8574 104.816 72.2434 104.984 72.6294 105.068C61.5386 105.108 50.4427 105.157 39.3518 105.177C38.7134 105.177 38.075 104.959 37.4365 104.845Z" fill="#F9B001"/>
<path d="M52.7832 35.2267C56.203 34.2128 59.6921 34.1336 63.206 35.2267H52.7832Z" fill="#F9B001"/>
<path d="M74.2428 90.8783H45.9736C45.9736 90.7991 45.9736 90.72 45.9736 90.6409H74.2428C74.2428 90.72 74.2428 90.7991 74.2428 90.8783Z" fill="#F9B001"/>
<path d="M69.4372 205.04C61.3751 205.065 53.3081 205.094 45.2461 205.119C53.3081 204.481 61.3702 204.669 69.4372 205.04Z" fill="#F9B001"/>
<path d="M67.5814 213.166C61.4693 213.765 55.3572 213.661 49.25 213.176C55.3621 213.176 61.4742 213.171 67.5814 213.166Z" fill="#F9B001"/>
<path d="M51.2441 78.0288C57.0197 77.5935 62.7953 77.4649 68.5659 78.0288C62.7903 78.0288 57.0197 78.0288 51.2441 78.0288Z" fill="#F9B001"/>
<path d="M60.3557 10.8482C59.7321 10.1459 59.8311 9.18143 60.0439 8.52362C60.7862 6.21388 59.7024 5.87756 57.7822 5.99626C56.3222 6.09023 54.8473 5.98142 53.3775 5.96164C53.2884 5.87756 53.2043 5.79348 53.1201 5.7094C53.2389 5.66983 53.3577 5.63026 53.4765 5.58575C55.8867 5.54123 58.2919 5.50167 60.6972 5.45715C61.0733 6.74804 60.9149 8.05376 60.7665 9.35454C60.4596 9.58205 60.3656 9.87386 60.5091 10.2349C60.4547 10.4377 60.4052 10.6405 60.3507 10.8383L60.3557 10.8482Z" fill="white"/>
<path d="M61.1825 31.5073C59.9947 28.9305 59.5691 26.2102 59.6284 23.396C60.6331 25.8591 60.5737 28.6139 61.7466 31.0276C61.5734 31.1858 61.4052 31.3391 61.2319 31.4925L61.1825 31.5073Z" fill="white"/>
<path d="M33.2945 103.624C30.9981 101.369 30.6418 99.405 32.1513 97.3376C32.1513 97.3376 32.3195 97.4959 32.3146 97.4959C32.1612 99.5831 32.2305 101.616 33.7746 103.278C33.6162 103.391 33.4529 103.51 33.2945 103.624Z" fill="white"/>
<path d="M60.7022 5.46215C58.2969 5.50666 55.8867 5.54623 53.4814 5.59074C55.8817 5.10109 58.287 5.01701 60.7022 5.46215Z" fill="#F9B001"/>
<path d="M28.543 43.2341C28.7607 43.155 28.9735 43.0758 29.1913 42.9967L29.2705 43.0808C29.1171 43.2588 28.9636 43.4319 28.8102 43.61C28.7013 43.4962 28.6123 43.3726 28.543 43.2341Z" fill="white"/>
<path d="M60.514 10.2449C60.3705 9.88382 60.4645 9.59201 60.7713 9.3645C60.8654 9.71072 60.8307 10.0174 60.514 10.2449Z" fill="#F9B001"/>
<path d="M61.2314 31.4925C61.4047 31.3392 61.5729 31.1809 61.7462 31.0276C61.7412 31.3639 61.568 31.5172 61.2314 31.4925Z" fill="#F9B001"/>
<path d="M44.6377 123.056C44.6377 119.283 44.6575 115.504 44.6229 111.73C44.613 110.672 45.0238 110.266 46.073 110.266C53.8183 110.291 61.5636 110.311 69.3039 110.276C70.8679 110.266 70.6748 111.26 70.7491 112.25C70.8431 113.501 70.2047 113.763 69.1109 113.758C64.1668 113.733 59.2227 113.862 54.2835 113.723C52.1108 113.664 51.4576 114.312 51.4823 116.508C51.5862 125.722 51.5466 134.941 51.4823 144.161C51.3784 159.775 50.3886 175.355 49.4185 190.929C49.2503 193.615 48.5722 196.266 48.2011 198.942C48.0377 200.109 47.5923 200.658 46.3105 200.613C43.7617 200.529 41.213 200.589 38.4365 200.589C40.5597 194.975 41.5346 189.193 42.6729 183.456C44.514 174.192 45.5137 164.825 46.1175 155.408C46.8846 143.508 47.0578 131.598 46.9984 119.678C46.9984 118.694 47.0331 117.705 46.6569 116.755C46.4738 116.295 46.3996 115.722 45.7463 115.825C45.1178 115.924 45.1079 116.493 45.1029 116.988C45.093 119.011 45.1029 121.038 45.1029 123.061C44.9446 123.061 44.7862 123.061 44.6229 123.056H44.6377Z" fill="#F9B001"/>
<path d="M28.8107 43.6051C28.9642 43.427 29.1176 43.2539 29.271 43.0759C29.4343 43.1006 29.5976 43.15 29.761 43.1401C33.7697 42.8038 33.8984 42.7643 35.1109 46.7358C37.0015 52.943 39.2929 58.9968 41.6289 65.0357C42.98 68.5276 44.4251 71.9897 45.8851 75.437C46.4691 76.8169 46.6967 77.6231 44.6329 77.6231C41.2082 77.6231 40.6984 77.4005 39.5552 74.0917C36.5808 65.5007 33.6262 56.8997 30.6172 48.3185C30.2311 47.2205 30.147 45.9395 28.7365 45.3361C27.9249 44.9899 28.6722 44.1936 28.8157 43.6051H28.8107Z" fill="#F9B001"/>
<path d="M100.997 239.206C82.5421 239.187 64.0919 239.167 45.6368 239.147C37.4807 239.142 29.3197 239.162 21.1636 239.127C20.2381 239.127 18.5703 239.538 18.501 238.831C18.2634 236.496 15.393 234.607 17.5062 231.827C19.1196 229.705 21.0052 227.885 22.9255 226.105C26.078 223.182 28.8 219.912 31.4131 216.52C31.7348 216.104 31.9773 214.175 33.0067 216.158C33.1849 216.495 33.566 216.139 33.7491 215.852C34.2143 215.11 34.5162 214.368 33.4967 213.705C36.6443 213.102 39.4653 214.19 42.3556 213.987C43.9195 213.878 43.3899 214.892 42.9841 215.585C41.4796 218.162 39.302 220.199 37.3223 222.39C35.3427 224.581 32.9919 226.431 31.5468 229.097C29.577 232.732 30.5916 235.512 34.4915 236.773C36.5305 237.431 38.619 237.797 40.7867 237.797C59.9842 237.787 79.1866 237.797 98.3841 237.861C99.3492 237.861 101.076 236.996 100.972 239.236L100.997 239.211V239.206Z" fill="#F9B001"/>
<path d="M33.7788 103.278C32.2298 101.616 32.1654 99.5831 32.3189 97.4959C32.9672 97.481 33.7838 97.6542 34.0857 96.9518C35.0211 94.7806 36.7978 94.9092 38.8517 95.0872C38.2578 96.7985 37.3224 98.5296 38.7032 100.127C40.1384 101.784 42.1378 101.814 44.1571 101.814C55.436 101.794 66.715 101.814 77.989 101.829C78.4839 101.829 78.9788 101.838 79.4688 101.833C80.0874 101.829 80.6417 101.947 80.7803 102.659C80.9436 103.495 80.226 103.604 79.7212 103.703C78.3552 103.96 77.019 104.297 75.5936 104.292C63.2457 104.257 50.8977 104.262 38.5498 104.321C36.8423 104.331 35.3477 103.713 33.7739 103.283L33.7788 103.278Z" fill="#F9B001"/>
</g>
<defs>
<clipPath id="clip0_415_126">
<rect width="104" height="257" fill="white" transform="translate(6 2)"/>
</clipPath>
</defs>
</svg>
