<svg width="278" height="479" viewBox="0 0 278 479" fill="none" xmlns="http://www.w3.org/2000/svg">
<g clip-path="url(#clip0_415_122)">
<path d="M222.038 411.184C231.851 419.832 233.784 432.041 226.981 441.369C223.109 446.674 217.684 447.836 211.693 447.746C201.582 447.6 191.568 446.258 181.546 445.079C129.642 438.954 77.7492 432.819 25.8511 426.64C21.5652 426.136 17.4028 426.261 13.2103 423.563C6.20381 419.041 0.88234 412.414 2.24237 404.86C3.64376 397.047 6.44069 389.498 16.1939 387.177C12.5457 382.743 11.8119 377.785 12.2471 372.405C12.7025 366.852 15.317 362.441 18.8227 358.475C27.4575 348.682 38.187 341.045 46.9224 331.33C49.3332 328.651 51.3697 326.915 48.9202 322.831C46.5708 318.922 49.154 313.937 55.009 311.268C58.7301 309.577 60.4673 306.841 62.0752 303.617C70.3512 287.078 75.3923 269.401 80.5632 251.74C85.8017 233.878 89.5835 215.713 93.4002 197.53C95.729 186.404 97.2161 175.156 98.4677 163.859C98.8266 160.62 97.981 159.412 94.8035 158.72C86.5423 156.937 80.2234 152.354 77.817 143.984C75.4634 135.818 80.2269 127.874 89.2556 124.437C91.7021 123.507 92.2694 123.442 90.9017 120.702C89.8084 118.522 88.9901 115.309 90.1709 112.826C93.2353 106.361 90.5744 100.156 89.7744 93.8954C86.6941 69.7006 83.4559 45.5422 80.3526 21.3557C79.5526 15.095 81.9392 12.808 88.4133 13.273C89.3167 13.3353 90.2073 13.5059 91.1152 13.6236C99.8831 14.7058 104.702 19.7273 105.572 28.6882C105.794 30.9088 106.26 33.1033 107.105 35.3423C108.917 31.3199 110.375 27.223 111.43 23.1994C113.2 16.4508 117.759 16.0323 123.138 16.2917C127.449 16.4913 131.34 18.6716 135.717 18.868C139.286 19.0244 139.452 22.4674 139.83 25.0355C140.548 29.9478 140.885 34.9143 141.507 41.1979C145.215 36.1694 146.034 31.4379 147.343 27.0271C148.58 22.8494 151.066 20.2778 155.173 20.4425C161.31 20.6923 167.447 21.5017 173.504 22.5321C180.355 23.7107 180.529 29.3163 180.457 34.5966C180.416 37.8397 180.621 40.9471 181.532 44.3022C184.868 42.1596 184.598 38.5728 185.604 35.8053C189.625 24.7459 194.809 22.1844 206.139 26.3365C215.606 29.8088 216.068 30.5434 215.964 41.2295C215.942 43.0923 214.717 45.2086 216.852 46.7434C219.229 43.1385 219.554 38.7877 221.101 34.8659C222.617 31.0281 224.989 28.8602 229.373 29.7487C230.434 29.9613 231.53 30.0681 232.606 30.1508C246.927 31.1654 245.036 36.0454 241.671 44.9764C233.396 67.013 224.931 88.9834 216.509 110.97C215.873 112.64 215.271 114.401 214.267 115.852C212.298 118.693 211.452 120.843 213.153 124.763C215.019 129.053 212.766 133.934 209.205 137.532C217.294 142.18 221.744 149.781 219.816 156.379C217.724 163.529 212.249 170.621 200.491 170.204C196.263 170.047 193.562 171.09 193.172 176.464C192.287 188.749 189.832 200.947 189.364 213.236C188.818 227.491 188.925 241.79 189.394 256.088C190.045 276.123 191.958 295.967 195.78 315.63C196.742 320.604 198.131 325.123 202.606 328.59C207.754 332.586 208.052 336.582 203.909 340.934C200.991 344.003 201.727 346.427 203.665 349.255C208.686 356.572 213.695 363.898 218.741 371.196C222.661 376.858 226.313 382.664 228.098 389.413C230.311 397.837 228.547 405.19 222.045 411.217L222.038 411.184ZM109.861 46.3427C109.404 46.5852 108.936 46.8374 108.479 47.08C103.301 48.1938 100.645 45.7747 99.6384 40.8943C98.6137 35.891 96.953 30.9775 97.0558 25.8105C97.1307 22.0008 94.6357 21.1039 91.8077 21.4517C88.946 21.8065 89.9674 24.1321 90.2559 26.0643C91.1769 32.2295 91.9858 38.4144 92.7852 44.5872C95.0043 61.7351 97.1789 78.8886 99.4209 96.0281C99.7515 98.5358 99.9477 100.227 103.93 99.8611C108.423 99.4457 113.225 99.5714 117.827 100.091C140.734 102.642 163.61 105.364 186.491 108.142C190.926 108.686 195.382 108.957 199.704 110.64C203.808 112.23 206.973 111.44 208.529 106.136C210.846 98.2888 214.063 90.7119 217.067 83.0771C222.375 69.5685 227.873 56.1261 233.108 42.587C233.597 41.3168 235.135 38.9739 232.423 38.0516C229.817 37.1636 228.838 38.4968 227.958 41.1256C226.266 46.1825 223.875 51.0256 221.636 55.8865C220.251 58.8947 218.023 60.7615 214.388 60.3231C210.73 59.893 209.683 56.8511 209.137 54.2193C208.129 49.3497 207.612 44.3183 207.473 39.3424C207.397 36.6341 207.448 34.3358 204.086 34.7416C200.525 35.1677 195.714 30.7287 193.558 37.0259C191.654 42.5845 190.111 48.3284 186.502 53.083C182.735 58.0606 177.298 57.0811 174.945 51.2413C173.371 47.3586 173.289 43.1134 172.065 39.2497C171.12 36.2748 173.691 32.7915 170.485 30.3846C166.621 29.3707 162.714 28.7247 158.71 28.7148C157.748 28.492 156.777 27.9828 155.856 28.8181C155.202 28.5877 155.248 29.0429 155.256 29.4389C153.584 36.1002 150.731 42.2605 147.11 48.0452C145.461 50.6823 142.779 52.5943 139.623 52.0916C136.456 51.5875 135.422 48.624 134.83 45.7235C133.784 40.5312 131.914 35.3407 131.954 30.1553C131.979 26.0216 130.283 25.7893 127.384 25.624C125.945 25.5426 124.495 25.372 123.077 25.1175C120.777 24.7044 119.41 24.6644 118.701 27.8069C117.65 32.4455 115.457 36.8181 113.755 41.3142C112.461 42.9836 111.177 44.665 109.884 46.3344L109.861 46.3427ZM206.853 415.181C206.27 415.101 205.699 415.012 205.116 414.933C203.545 414.572 201.991 414.071 200.4 413.884C142.404 406.933 84.4045 400.015 26.4022 393.118C24.4432 392.888 22.3945 392.767 20.4528 393.044C14.76 393.867 10.5197 399.787 10.7951 406.217C11.0935 413.197 14.1445 416.552 20.7612 417.297C83.842 424.396 146.937 431.464 210.013 438.705C214.96 439.275 218.637 438.237 220.914 433.809C223.677 428.406 222.588 421.804 218.556 418.027C216.456 416.101 213.78 416.182 211.2 415.911C209.814 415.288 208.409 414.826 206.863 415.193L206.853 415.181ZM201.656 129.04C205.624 121.793 204.343 119.25 196.066 118.156C189.866 117.328 183.658 116.555 177.453 115.759C176.88 115.406 176.344 114.839 175.74 114.746C153.207 111.35 130.441 110.209 107.778 108.005C106.183 107.851 104.469 107.967 102.937 108.402C99.5682 109.333 98.7732 112.082 98.7594 115.185C98.7379 118.354 100.859 118.889 103.435 119.191C134.553 122.829 165.667 126.509 196.794 130.169C198.515 130.371 200.441 131.157 201.665 129.052L201.656 129.04ZM208.3 157.823C212.849 150.589 210.483 145.231 201.981 144.187C181.733 141.697 161.473 139.402 141.211 137.031C126.986 135.303 112.765 133.533 98.53 131.881C91.8955 131.101 87.7136 133.725 86.9989 138.776C86.1418 144.853 89.4946 149.373 96.2577 150.179C129.585 154.164 162.938 157.932 196.269 161.884C201.063 162.448 205.126 161.675 208.3 157.823ZM37.3889 386.279C37.9116 386.406 38.4388 386.589 38.9691 386.651C90.4254 392.669 141.883 398.675 193.354 404.662C194.555 404.803 195.834 405.403 197.006 404.488C200.363 404.773 203.703 405.111 207.069 405.32C209.782 405.485 212.713 406.971 215.013 404.202L214.953 404.25C220.473 399.391 220.717 392.836 215.13 384.081C207.374 371.933 197.335 361.195 192.159 347.453C191.489 345.684 190.44 345.177 188.952 345.331C175.659 346.676 162.416 344.8 149.299 343.631C120.547 341.051 91.8137 337.749 63.5578 331.508C61.6001 331.081 60.9285 331.287 59.8049 332.91C53.588 341.923 45.5171 349.16 36.9585 355.878C32.5233 359.351 28.3249 363.049 25.2712 367.836C22.9165 371.531 22.7525 375.352 24.2285 379.596C26.559 386.278 32.0316 386.022 37.3972 386.302L37.3889 386.279ZM145.812 316.832C159.386 319.152 172.949 321.482 186.513 323.801C185.503 318.108 184.452 312.487 183.535 306.849C180.678 289.44 179.453 271.86 178.955 254.257C178.552 240.142 178.694 225.96 179.506 211.868C180.215 199.586 181.907 187.342 183.735 175.157C184.398 170.737 182.749 170.016 179.154 169.604C156.82 167.033 134.503 164.409 112.197 161.6C109.277 161.234 108.551 161.906 108.212 164.697C107.404 171.284 105.961 177.863 105.175 184.365C103.071 201.882 99.3345 219.01 95.5603 236.177C93.1061 247.344 90.0776 258.356 86.7309 269.275C82.4573 283.224 77.7623 297.024 71.2822 310.702C90.044 310.9 108.143 312.446 126.199 314.537C132.736 315.305 139.275 316.063 145.813 316.821L145.812 316.832ZM190.926 337.871C184.408 327.888 90.3658 315.535 63.5018 321.253C104.874 332.965 147.342 336.664 190.926 337.871Z" fill="#211C17"/>
<path d="M126.188 314.535C108.132 312.445 90.0331 310.898 71.2712 310.7C77.7514 297.022 82.4464 283.222 86.7199 269.274C90.0667 258.354 93.0952 247.343 95.5493 236.176C99.3235 219.009 103.06 201.881 105.164 184.363C105.95 177.861 107.393 171.283 108.201 164.696C108.54 161.904 109.266 161.233 112.186 161.598C134.492 164.407 156.809 167.031 179.143 169.603C182.736 170.025 184.387 170.735 183.724 175.156C181.898 187.329 180.194 199.583 179.495 211.867C178.683 225.959 178.541 240.141 178.944 254.255C179.443 271.848 180.668 289.428 183.524 306.848C184.452 312.487 185.503 318.108 186.502 323.8C172.938 321.48 159.365 319.149 145.801 316.83C139.381 315.066 132.815 314.447 126.177 314.534L126.188 314.535ZM80.6432 309.476C88.1994 308.576 94.6512 309.883 101.099 310.663C105.125 311.137 106.548 309.768 107.05 305.877C108.012 298.528 109.376 291.227 110.77 283.941C114.08 266.708 117.906 249.569 120.773 232.273C123.764 214.213 126.033 196.034 128.279 177.864C128.802 173.603 130.076 172.48 134.362 173.071C148.561 175.026 162.826 176.517 177.059 178.278C179.579 178.586 181.072 178.399 181.46 175.285C181.853 172.127 180.789 171.19 177.822 170.852C157.814 168.565 137.802 166.212 117.824 163.665C114.213 163.208 113.564 164.712 113.276 167.728C111.57 185.775 109.077 203.718 106.064 221.59C104.648 229.993 102.572 238.231 100.37 246.41C94.7129 267.459 89.2104 288.593 80.6444 309.465L80.6432 309.476Z" fill="white"/>
<path d="M215.004 404.19C212.703 406.959 209.771 405.484 207.06 405.307C203.705 405.1 200.354 404.76 197.008 404.477C196.302 404.317 195.617 404.083 194.902 403.999C143.815 398.014 92.7365 392.052 41.6456 386.099C40.2386 385.934 38.7781 385.476 37.3998 386.28C32.0234 385.999 26.5508 386.255 24.2311 379.574C22.7551 375.33 22.9299 371.51 25.2738 367.814C28.3275 363.027 32.5259 359.329 36.9612 355.856C45.5185 349.149 53.5894 341.912 59.8075 332.889C60.9311 331.265 61.6028 331.059 63.5605 331.486C91.8271 337.729 120.549 341.029 149.302 343.609C162.418 344.789 175.662 346.654 188.954 345.309C190.454 345.156 191.502 345.663 192.161 347.431C197.336 361.184 207.377 371.911 215.132 384.059C220.719 392.814 220.486 399.37 214.955 404.228C214.338 401.917 213.723 399.595 212.894 396.469C211.137 401.617 207.625 401.248 203.826 400.802C163.289 395.98 122.748 391.202 82.1946 386.522C77.2039 385.946 72.6582 384.292 68.3404 382.007C59.881 377.523 56.6786 365.285 62.3455 358.336C65.8703 354.021 69.865 350.003 74.6753 346.981C78.6796 344.467 81.8874 341.169 84.8265 336.423C81.4065 336.021 78.4894 336.007 75.7537 335.29C70.5274 333.919 66.784 335.333 63.7284 339.856C60.3571 344.826 55.8728 348.808 51.2415 352.642C45.6737 357.254 40.4415 362.278 35.0074 367.06C31.5315 370.119 30.0923 373.494 31.9942 378.128C33.8121 382.544 36.9903 384.257 41.5589 384.783C75.9862 388.743 110.375 393.028 144.824 396.805C168.213 399.368 191.437 403.514 215.027 404.181L215.004 404.19Z" fill="white"/>
<path d="M170.452 30.3806C173.659 32.7875 171.089 36.2599 172.032 39.2457C173.257 43.1094 173.341 47.3437 174.913 51.2373C177.265 57.0771 182.692 58.0553 186.47 53.079C190.079 48.3244 191.621 42.5805 193.526 37.0219C195.682 30.7247 200.493 35.1637 204.054 34.7376C207.414 34.3426 207.365 36.6301 207.441 39.3384C207.58 44.3143 208.097 49.3457 209.104 54.2153C209.651 56.8471 210.699 59.8781 214.356 60.3191C217.992 60.7467 220.218 58.8907 221.604 55.8825C223.854 51.0229 226.234 46.1785 227.926 41.1216C228.804 38.5036 229.784 37.1705 232.391 38.0476C235.103 38.9699 233.566 41.302 233.076 42.583C227.841 56.1221 222.354 69.5658 217.035 83.0731C214.032 90.6971 210.813 98.2848 208.497 106.132C206.941 111.436 203.775 112.226 199.672 110.636C195.348 108.964 190.893 108.682 186.459 108.138C163.578 105.36 140.702 102.638 117.795 100.087C113.202 99.5795 108.4 99.4538 103.898 99.8571C99.9155 100.223 99.7193 98.5318 99.3887 96.0241C97.1466 78.8846 94.9721 61.731 92.7529 44.5832C91.9548 38.3996 91.1459 32.2147 90.2236 26.0603C89.9338 24.1389 88.9138 21.8025 91.7755 21.4477C94.6034 21.0999 97.0985 21.9968 97.0236 25.8065C96.9195 30.9843 98.5706 35.8857 99.6061 40.8903C100.611 45.7815 103.267 48.2006 108.447 47.076C108.572 47.2224 108.697 47.3796 108.81 47.5356C106.755 49.708 104.375 49.6037 101.939 48.3955C99.9688 47.4177 98.6331 47.5789 98.9287 50.1044C100.738 65.5142 102.2 80.982 105.269 96.2217C105.611 97.8859 106.375 98.7549 108.26 98.4059C112.442 97.6467 116.538 98.8306 120.658 99.1614C127.473 99.7104 127.457 99.7524 126.722 93.1263C125.898 85.7655 125.261 78.3939 124.514 71.0312C123.218 58.1615 124.674 44.946 119.941 32.4732C117.257 35.1422 118.469 40.2333 113.901 41.5617L113.678 41.3159C115.379 36.8307 117.574 32.4473 118.624 27.8086C119.333 24.6661 120.7 24.7061 123 25.1192C124.418 25.3738 125.869 25.5443 127.307 25.6257C130.207 25.791 131.902 26.0233 131.877 30.157C131.838 35.3425 133.696 40.5316 134.754 45.7253C135.345 48.6258 136.379 51.5893 139.546 52.0933C142.691 52.5948 145.384 50.684 147.033 48.047C150.654 42.2622 153.496 36.1006 155.178 29.4514C155.378 29.2445 155.578 29.0376 155.779 28.8198C156.7 27.9845 157.672 28.4937 158.634 28.7057C162.455 29.9889 166.411 30.3114 170.409 30.3755L170.452 30.3806Z" fill="white"/>
<path d="M218.546 418.015C222.579 421.792 223.679 428.395 220.904 433.796C218.638 438.226 214.961 439.264 210.003 438.692C146.928 431.451 83.842 424.395 20.7516 417.284C14.1241 416.538 11.0839 413.185 10.7855 406.204C10.5088 399.786 14.7504 393.854 20.4432 393.032C22.3849 392.755 24.4228 392.874 26.3926 393.106C84.3962 399.992 142.395 406.921 200.391 413.872C201.982 414.059 203.536 414.56 205.106 414.92C199.522 414.352 193.94 413.86 188.365 413.215C163.025 410.269 137.68 407.266 112.343 404.287C128.851 408.072 146.059 407.396 162.253 413.009C167.198 414.72 168.95 417.264 167.812 422.462C166.706 427.453 168.651 430.26 173.647 430.884C175.087 431.053 176.521 431.266 177.968 431.37C179.045 431.453 180.428 431.539 180.652 430.194C181.542 424.68 184.029 419.201 181.337 413.64L218.557 418.016L218.546 418.015Z" fill="#F9B001"/>
<path d="M208.291 157.811C205.117 161.662 201.054 162.435 196.259 161.872C162.928 157.919 129.576 154.151 96.2485 150.167C89.4854 149.361 86.1326 144.841 86.9897 138.764C87.7044 133.713 91.885 131.099 98.5208 131.868C112.756 133.52 126.976 135.291 141.202 137.019C141.969 137.405 142.716 138.052 143.517 138.147C161.776 140.381 179.655 145.007 198.011 146.694C206.511 147.474 209.531 149.036 208.279 157.82L208.291 157.811Z" fill="#F9B001"/>
<path d="M201.655 129.04C200.431 131.145 198.505 130.359 196.784 130.157C165.668 126.498 134.554 122.817 103.425 119.179C100.849 118.876 98.7281 118.342 98.7496 115.173C98.7634 112.069 99.5584 109.321 102.927 108.389C104.469 107.967 106.174 107.838 107.768 107.993C130.431 110.197 153.185 111.347 175.73 114.733C176.334 114.826 176.871 115.394 177.444 115.747C168.894 114.741 160.354 113.737 151.804 112.732C166.06 115.977 180.376 118.615 194.74 120.941C201.459 122.027 201.967 122.284 201.646 129.027L201.655 129.04Z" fill="#F9B001"/>
<path d="M190.916 337.87C147.332 336.662 104.864 332.963 63.4912 321.252C90.3565 315.523 184.399 327.875 190.916 337.87Z" fill="#F9B001"/>
<path d="M218.546 418.015L181.326 413.638C184.019 419.2 181.532 424.668 180.641 430.192C180.428 431.539 179.034 431.452 177.957 431.369C176.51 431.265 175.075 431.063 173.636 430.883C168.647 430.267 166.702 427.46 167.802 422.461C168.95 417.264 167.187 414.719 162.242 413.007C146.037 407.393 128.841 408.06 112.332 404.286C137.669 407.265 163.015 410.256 188.354 413.214C193.928 413.869 199.512 414.35 205.096 414.919C205.679 414.999 206.261 415.089 206.833 415.167C208.196 415.898 209.659 416.048 211.171 415.886C213.75 416.156 216.426 416.076 218.526 418.001L218.546 418.015Z" fill="white"/>
<path d="M208.29 157.811C209.543 149.027 206.511 147.463 198.022 146.684C179.655 144.997 161.787 140.372 143.528 138.137C142.716 138.042 141.98 137.395 141.214 137.009C161.474 139.391 181.734 141.686 201.983 144.166C210.485 145.209 212.851 150.568 208.302 157.801L208.29 157.811Z" fill="white"/>
<path d="M37.3886 386.279C38.7669 385.475 40.2261 385.943 41.6344 386.098C92.7253 392.05 143.803 398.023 194.891 403.997C195.605 404.081 196.303 404.306 196.997 404.475C195.825 405.391 194.546 404.791 193.344 404.649C141.884 398.664 90.4264 392.658 38.9592 386.639C38.4289 386.577 37.9018 386.394 37.3791 386.267L37.3886 386.279Z" fill="#F9B001"/>
<path d="M201.655 129.04C201.976 122.296 201.469 122.039 194.75 120.953C180.386 118.627 166.069 115.989 151.813 112.744C160.364 113.749 168.903 114.754 177.453 115.759C183.658 116.554 189.865 117.328 196.066 118.156C204.33 119.259 205.622 121.803 201.655 129.04Z" fill="white"/>
<path d="M126.189 314.535C132.826 314.449 139.393 315.056 145.812 316.831C139.264 316.062 132.727 315.293 126.189 314.535Z" fill="#F9B001"/>
<path d="M170.452 30.3806C166.454 30.3165 162.487 29.9927 158.677 28.7108C162.681 28.7207 166.599 29.3679 170.452 30.3806Z" fill="#F9B001"/>
<path d="M109.861 46.3424C111.155 44.6731 112.439 42.9916 113.732 41.3223L113.956 41.568C113.878 44.1923 113.387 46.4937 110.053 46.5735L109.873 46.3329L109.861 46.3424Z" fill="white"/>
<path d="M211.191 415.899C209.679 416.061 208.216 415.911 206.853 415.181C208.4 414.814 209.805 415.275 211.191 415.899Z" fill="#F9B001"/>
<path d="M155.822 28.8249C155.622 29.0319 155.421 29.2497 155.221 29.4566C155.224 29.051 155.167 28.6052 155.822 28.8249Z" fill="#F9B001"/>
<path d="M108.467 47.0895C108.923 46.8469 109.392 46.5946 109.849 46.352L110.029 46.5927C109.983 47.3556 109.544 47.6333 108.829 47.5601C108.715 47.4041 108.591 47.2468 108.466 47.1003L108.467 47.0895Z" fill="white"/>
<path d="M80.6417 309.487C89.2077 288.615 94.6993 267.48 100.367 246.431C102.569 238.252 104.646 230.015 106.062 221.612C109.075 203.729 111.568 185.797 113.273 167.75C113.562 164.733 114.199 163.228 117.821 163.687C137.801 166.223 157.812 168.576 177.82 170.874C180.785 171.222 181.849 172.159 181.457 175.306C181.069 178.421 179.587 178.609 177.056 178.3C162.823 176.539 148.571 175.038 134.359 173.093C130.084 172.503 128.81 173.626 128.277 177.886C126.03 196.056 123.772 214.236 120.771 232.295C117.903 249.591 114.077 266.73 110.767 283.963C109.373 291.249 108.01 298.55 107.047 305.898C106.533 309.799 105.121 311.169 101.096 310.685C94.6377 309.904 88.1954 308.608 80.6404 309.498L80.6417 309.487Z" fill="#F9B001"/>
<path d="M215.004 404.19C191.414 403.523 168.19 399.376 144.801 396.813C110.352 393.037 75.9646 388.741 41.536 384.791C36.9782 384.266 33.8 382.554 31.9713 378.137C30.0681 373.513 31.5086 370.127 34.9845 367.068C40.4185 362.287 45.6508 357.262 51.2186 352.65C55.8512 348.806 60.3354 344.823 63.7055 339.865C66.7706 335.353 70.514 333.939 75.7307 335.299C78.4664 336.015 81.3835 336.029 84.8036 336.431C81.8741 341.189 78.6675 344.477 74.6524 346.989C69.8421 350.012 65.8366 354.029 62.3226 358.345C56.6569 365.282 59.8581 377.531 68.3174 382.015C72.6245 384.299 77.181 385.954 82.1717 386.53C122.725 391.211 163.266 395.989 203.803 400.81C207.602 401.257 211.114 401.626 212.871 396.478C213.7 399.603 214.315 401.925 214.932 404.236L214.993 404.188L215.004 404.19Z" fill="#F9B001"/>
<path d="M108.841 47.5501C109.555 47.6341 109.995 47.3457 110.041 46.583C113.376 46.4924 113.866 44.1909 113.943 41.5775C118.51 40.2492 117.298 35.158 119.982 32.489C124.704 44.9606 123.25 58.1652 124.556 71.047C125.303 78.4097 125.938 85.7922 126.764 93.1421C127.499 99.7683 127.526 99.7275 120.699 99.1773C116.569 98.8452 112.473 97.6613 108.301 98.4217C106.406 98.7694 105.641 97.9005 105.31 96.2376C102.241 80.9978 100.779 65.5301 98.9703 50.1203C98.6747 47.5947 100.01 47.4336 101.98 48.4113C104.417 49.6195 106.797 49.7238 108.851 47.5514L108.841 47.5501Z" fill="#F9B001"/>
</g>
<defs>
<clipPath id="clip0_415_122">
<rect width="230.211" height="419.73" fill="white" transform="translate(49.0156 6.88464) rotate(6.70622)"/>
</clipPath>
</defs>
</svg>
