<svg width="130" height="105" viewBox="0 0 130 105" fill="none" xmlns="http://www.w3.org/2000/svg">
<path d="M5.60359 29.9115C5.45005 27.8911 4.67198 25.9813 5.42539 23.951C5.89664 22.6811 6.36711 22.2412 7.75726 22.8475C10.4457 24.0243 13.2351 24.9753 15.9512 26.0922C16.8471 26.4623 17.4191 26.3621 18.0514 25.5964C19.0805 24.3533 20.1448 23.1106 21.3487 22.0414C23.6037 20.0469 26.1671 18.7329 29.2491 18.3182C33.6522 17.7233 37.2131 15.2025 40.6433 12.5869C43.3789 10.5008 46.0033 8.26986 48.6887 6.12006C52.6297 2.96089 56.618 3.12783 60.651 5.93542C62.1382 6.9724 63.6149 8.03623 65.1704 8.95402C66.3999 9.67893 66.9742 10.8206 66.692 12.0005C66.3673 13.3582 66.8614 14.3318 67.355 15.4201C68.6982 18.3928 68.1992 20.3806 65.5033 22.2967C64.3467 23.1193 63.0681 23.7796 61.8054 24.433C59.6726 25.5344 57.8418 26.8679 56.6046 29.0548C55.9388 30.2358 55.8309 31.3642 56.0316 32.5374C56.3774 34.5619 56.5224 36.5702 56.2331 38.71C58.1083 38.6347 59.7293 37.966 61.3886 37.3917C66.4114 35.6552 70.8112 32.5285 75.8918 30.9382C77.5417 30.422 79.2052 29.973 80.9475 29.8769C83.2662 29.7486 85.1114 30.567 86.094 32.7328C86.4444 33.5093 86.7003 33.5424 87.34 33.1771C90.1243 31.578 90.803 31.6341 92.7131 33.9526C93.2677 34.623 93.651 34.2375 94.112 34.0941C97.125 33.1536 99.9197 31.6866 102.821 30.4775C104.209 29.8992 105.596 29.2897 107.035 28.895C110.339 27.988 113.421 29.2423 115.082 32.246C115.747 33.4493 116.236 32.4513 116.55 32.2202C120.045 29.6428 121.887 29.5633 125.419 31.9468C127.279 33.2036 127.847 35.2349 126.94 37.5939C122.395 49.3601 117.853 61.1225 113.286 72.8797C109.637 82.2733 105.966 91.654 102.298 101.04C100.559 105.496 95.8562 106.306 92.678 102.704C91.561 101.44 90.8965 99.9409 90.6854 98.2956C90.5696 97.4027 90.3805 97.4131 89.5714 97.6023C84.8198 98.7198 82.9218 97.9693 80.5708 93.6556C78.6527 90.1327 77.1567 86.3851 75.1831 82.8804C74.8938 82.3662 75.0353 81.9 74.1794 82.3227C71.0118 83.8878 70.6175 83.8936 69.1991 80.2071C65.5369 82.1496 61.8072 81.0674 58.1301 80.3943C52.5313 79.372 47.1256 77.6255 41.7019 75.9029C32.1605 72.8722 23.9716 67.7658 17.2273 60.4604C15.4451 58.5271 14.5594 55.7718 13.2059 53.4266C11.4121 50.3097 9.00079 47.6595 6.78334 44.8506C3.86118 41.1453 1.8994 36.8502 0.519036 32.3173C0.0220238 30.6934 0.869907 29.5654 2.56786 29.6288C3.57519 29.6668 4.57672 29.8218 5.59763 29.9269L5.60359 29.9115ZM58.7594 22.8611L58.7207 22.8814C59.0018 23.0083 59.1716 22.8888 59.2844 22.6323L59.2563 22.6479C59.5258 22.7481 59.6886 22.6126 59.8139 22.3919L59.7912 22.4052C60.1436 22.3257 60.5918 22.3629 60.5369 21.7895L60.4572 21.8248C60.8246 22.1265 61.012 22.0182 61.0552 21.5669L60.9922 21.6043C61.9327 21.7576 62.642 21.406 63.1558 20.6164L63.1298 20.6151C63.4808 20.5395 63.926 20.5843 63.8803 20.0101L63.8211 20.049C64.5863 20.3815 65.1248 19.6191 65.244 19.3122C65.5973 18.4027 65.7564 17.3693 65.1648 16.4197C64.883 15.9657 64.5048 15.6466 63.9924 15.9334C62.4419 16.8061 60.4876 16.9832 59.3781 18.6146L59.4397 18.6032C59.0479 18.2169 58.7961 18.627 58.4976 18.7716L58.531 18.7537C58.1856 18.8491 57.8624 18.9665 57.7999 19.3882L57.8593 19.3715C57.5418 19.1908 57.3241 19.411 57.089 19.5625L57.0575 19.5415C56.6255 19.5194 56.0081 19.9067 55.8546 19.2244C55.7266 18.6579 56.088 18.2154 56.6245 17.9115C58.6972 16.7381 60.7069 15.4432 62.8339 14.3793C64.5023 13.5435 64.2149 12.6502 63.4197 11.3742C62.1066 9.26539 59.7477 8.75982 57.8563 7.56139C54.7977 5.61368 51.9123 6.33885 49.2945 8.62088C47.7218 9.99288 46.16 11.3823 44.5835 12.7528C40.2347 16.5309 35.6987 20.0197 29.7821 20.8702C26.1526 21.3902 23.3727 23.1368 20.9971 25.8839C19.3085 27.838 18.3112 30.2239 16.6904 32.1734C15.9713 33.0379 16.0765 33.357 16.5976 34.2837C17.3925 35.6965 17.8791 37.2678 18.9733 38.5452C19.2671 38.889 18.9312 39.5269 18.404 39.8521C17.2203 38.5443 16.2431 37.2152 14.8331 36.195C11.7029 33.9324 7.81992 33.8461 4.47165 32.2585C3.40816 31.7526 3.21747 32.5044 3.56683 33.2495C4.51608 35.2743 4.99303 37.5396 6.53307 39.2684L6.53799 39.2218L6.79256 39.7799L6.77555 39.7557C7.12013 40.7286 7.633 41.5858 8.48544 42.204L8.47758 42.1789C10.434 45.2176 13.3685 46.861 16.6834 47.9676C18.5551 48.593 19.8665 49.7649 20.8431 51.5265C23.7233 56.7348 28.3611 60.0157 33.6139 62.4051C36.4882 63.7159 39.4414 64.9028 42.5959 65.5717C46.6806 66.443 50.7221 67.505 54.8437 68.236C59.6254 69.0822 64.4637 69.6809 69.1288 71.0426C70.4506 71.428 70.8076 71.178 71.248 70.033C75.359 59.291 79.5183 48.5721 83.6408 37.8346C83.8391 37.3242 84.434 36.8134 83.9162 36.1618C84.1215 35.928 84.3269 35.6942 84.5307 35.4643C84.4743 33.6361 83.4174 32.7618 81.118 32.9197C77.4807 33.1762 74.1801 34.5394 70.9413 36.1518C66.8679 38.1776 62.668 39.8936 58.2818 41.1708C57.085 41.5185 55.4956 40.8922 54.6701 42.3822C51.6812 47.797 46.9295 50.31 40.9362 50.7907C39.4947 50.9064 38.3155 50.4263 36.8263 49.1677C40.5699 49.4427 43.5155 48.71 46.1635 46.8946C47.8886 46.2531 49.4916 45.4493 50.4372 43.741C52.8021 41.4182 53.6891 38.5565 53.5105 35.3075C53.6048 34.77 53.5012 34.2881 53.1153 33.8865C51.853 31.3293 49.9233 29.617 46.9497 29.1288C49.2119 28.2499 51.254 28.4028 53.1492 29.8411C53.6755 29.0078 54.28 28.2003 54.7234 27.3083C55.2118 26.3233 55.8224 25.4431 56.5604 24.6434C56.7569 24.5343 57.0165 24.4673 56.8892 24.1485C57.106 23.9986 57.319 23.8473 57.5358 23.6974L57.5071 23.726C57.8704 23.664 58.246 23.6156 58.2437 23.1113L58.1799 23.1395C58.5509 23.4205 58.6327 23.1078 58.7502 22.862L58.7594 22.8611ZM19.3967 58.3575L19.3825 58.3034C19.6111 58.9398 19.9729 59.4601 20.6343 59.7082L20.6109 59.6549C20.4319 59.9343 20.6339 60.0834 20.8078 60.2481C21.8833 61.4034 22.7903 62.8112 24.6216 62.8602C24.7878 62.6818 25.1996 62.6651 25.0067 62.2546L25.0075 62.3432C25.5574 62.7423 26.9948 61.3442 26.8076 63.2323C25.5771 65.3908 27.2656 66.0909 28.6663 66.8514C30.2265 67.7004 29.7224 65.8793 30.3289 65.4746C30.5496 65.3263 30.7609 65.1566 30.9745 64.9923L31.1744 64.9993C31.9877 65.6729 31.9351 66.6815 31.6628 67.428C31.1172 68.9119 32.1773 68.9616 33.005 69.2919C33.9613 69.6766 34.8001 69.8877 35.2293 68.5219C35.4182 67.9108 35.9476 67.4099 36.4075 66.7362C34.7133 65.9147 32.9226 65.4664 31.4435 64.3972C30.728 63.9029 29.8888 63.6476 29.1288 63.211C26.4354 61.6613 24.4084 59.315 21.9325 57.523C19.5161 54.3983 18.1347 50.1742 13.0698 49.4786C15.8785 51.8768 16.8769 55.2721 19.0975 57.8349L19.132 57.7688C18.9085 58.106 19.213 58.2066 19.3952 58.3613L19.3967 58.3575ZM84.1492 43.6937C82.1399 48.8662 80.0924 54.0239 78.1267 59.209C77.063 62.0153 75.7591 64.737 75.075 67.6775C73.9373 71.6385 71.4565 75.3031 72.2243 79.8365C73.0057 79.4467 72.9719 78.8418 73.1574 78.353C73.2447 78.2191 73.3319 78.0852 73.4192 77.9512C73.871 77.9677 73.9271 77.5965 74.0471 77.2987C75.6128 73.4155 77.18 69.5286 78.7456 65.6454C79.2852 65.2544 79.3808 64.6115 79.5969 64.0551C82.2859 57.1327 84.9634 50.2059 87.6408 43.2791C88.8858 41.2763 88.7803 38.8373 89.7558 36.7343C89.9436 36.3303 89.9739 35.6399 89.5176 35.2948C88.9169 34.8451 88.5533 35.543 88.1237 35.7868C87.7891 35.9792 87.425 36.2926 87.2909 36.638C86.3578 39.0401 84.7629 41.1498 84.1507 43.6898L84.1492 43.6937ZM117.143 34.6409C115.438 38.8939 113.736 43.1522 112.031 47.4052C111.438 47.9435 111.322 48.7197 111.05 49.4089C107.077 59.5465 103.056 69.67 99.1786 79.8448C97.0816 85.3454 94.7289 90.7556 93.0138 96.3957C92.3028 98.7251 93.8234 101.082 96.5434 101.962C98.6529 102.645 99.2578 102.222 100.392 99.3016C104.74 88.1305 109.068 76.9559 113.443 65.7953C117.094 56.4865 120.797 47.2025 124.491 37.9101C125.311 35.8439 124.983 34.2946 123.487 33.4396C121.281 32.1766 119.032 32.6014 117.143 34.6409ZM90.4764 93.0607C91.1541 92.5864 91.2468 91.7921 91.5121 91.1091C96.0634 79.4605 100.622 67.8149 105.138 56.1568C107.309 50.5568 109.399 44.9256 111.524 39.3077C111.6 39.0899 111.681 38.8697 111.757 38.6518C112.176 38.1521 112.302 37.5653 112.264 36.9276C112.27 36.5148 112.751 36.0924 112.252 35.6866C112.303 35.375 112.551 35.043 112.167 34.7705C111.45 32.3985 109.798 31.4787 107.445 32.1148C102.462 33.4557 98.0427 36.3144 93.0066 37.5069C92.4684 37.6335 92.4437 38.0258 92.3149 38.3688C91.3158 40.9749 90.3382 43.5937 89.3505 46.2043C88.6627 47.9862 87.9826 49.7712 87.2886 51.5463C84.0403 59.8633 80.7881 68.1788 77.5398 76.4958C76.5419 78.1574 76.3885 79.7318 77.8134 81.2922C78.2981 81.8249 78.5051 82.6075 78.8696 83.257C80.7642 86.625 81.8048 90.4562 84.2784 93.5015C86.0622 95.6915 88.9185 95.4497 90.4726 93.0592L90.4764 93.0607ZM68.086 76.8688C69.0963 74.0639 69.0837 74.0281 66.4329 73.4577C64.791 73.1025 63.1412 72.8017 61.5015 72.4298C57.2649 71.473 57.3136 71.461 57.3688 75.8103C57.3819 76.8312 57.5634 77.2373 58.6362 77.3449C61.0047 77.576 63.3658 77.9058 65.7136 78.2923C67.0941 78.515 68.0016 78.2316 68.0807 76.8712L68.086 76.8688ZM11.6812 27.5691C11.6812 27.5691 11.6917 27.5422 11.6961 27.5307C10.5554 27.0876 9.40807 26.6728 8.28075 26.1952C7.33569 25.7927 7.07796 26.1387 7.13605 27.0665C7.26155 29.0231 7.65558 30.7307 9.95123 31.2515C10.8708 31.4585 11.7504 31.8708 12.607 32.2742C13.7509 32.8113 14.3327 32.6178 14.9398 31.3609C15.8031 29.5809 15.5834 28.6609 13.5744 28.2868C12.921 28.1655 12.3037 27.8153 11.6721 27.5699L11.6812 27.5691ZM51.8081 76.0395C53.8568 77.5021 54.4025 76.6189 54.3719 74.6109C54.3557 73.6772 54.5195 72.7339 54.6605 71.8039C54.7187 71.4158 54.7098 71.0192 54.2937 71.0696C52.983 71.2229 52.0083 70.3408 50.8409 70.0684C50.5053 69.9911 50.1006 69.8648 49.9924 70.2909C49.6091 71.8334 49.8424 73.399 49.9831 74.942C50.0767 75.994 51.2618 75.6992 51.8066 76.0433L51.8081 76.0395ZM47.2396 74.8257C46.8923 73.3041 47.2846 71.9992 47.5528 70.7078C47.7523 69.7519 47.2991 69.4213 46.5794 69.3007C45.6274 69.1429 44.305 68.4305 43.7602 69.1639C42.3668 71.0383 43.2832 73.3065 45.4772 74.1456C45.9825 74.3418 46.4878 74.5381 47.2343 74.8281L47.2396 74.8257ZM38.6257 71.2898C40.3754 72.8306 40.8384 71.3323 41.2136 69.9809C41.3797 69.3831 42.4327 68.0786 41.0308 68.1832C39.8926 68.2666 38.2988 65.9958 37.4343 68.641C37.0062 69.9585 36.3459 71.1594 38.6242 71.2936L38.6257 71.2898Z" fill="#131414"/>
<path d="M56.5662 24.6412C55.8282 25.4409 55.2176 26.321 54.7293 27.306C54.2873 28.1943 53.6829 29.0017 53.155 29.8389C51.2584 28.4044 49.2163 28.2515 46.9556 29.1266C49.9306 29.6109 51.855 31.3256 53.1212 33.8843L53.1197 33.8881C52.4675 33.9792 52.464 32.7634 51.7113 33.1246C50.9665 34.3501 51.9064 35.5145 51.6248 36.7609C50.8208 40.3393 48.6822 42.9753 46.1105 45.3768C45.7709 45.6954 44.6469 45.9918 45.9739 46.5338C46.0276 46.6563 46.0958 46.7755 46.1709 46.8886C43.519 48.7025 40.5773 49.4367 36.8337 49.1616C38.3229 50.4202 39.5021 50.9003 40.9436 50.7846C46.9392 50.3093 51.6924 47.7924 54.6774 42.3762C55.4991 40.8847 57.0923 41.5124 58.2891 41.1647C62.6753 39.8876 66.8752 38.1715 70.9486 36.1457C74.1875 34.5333 77.4881 33.1701 81.1254 32.9137C83.4224 32.7505 84.4817 33.6301 84.5381 35.4582C83.2595 34.1225 82.9085 34.1981 82.2745 35.9436C82.2038 36.1369 82.1072 36.329 82.0869 36.5287C81.5839 41.7476 79.0747 46.302 77.1298 51.0138C75.9194 53.9486 74.5081 56.8671 72.4708 59.4011C71.3304 60.8174 70.0124 61.5905 68.1601 61.7543C64.3892 62.0825 60.6642 61.6689 56.9651 61.1771C48.6886 60.073 40.3583 59.5045 32.3866 56.4477C25.6796 53.8777 22.132 48.4367 18.3425 43.074C17.7907 42.2944 17.5403 42.0205 16.6081 42.1972C13.1827 42.8495 10.3734 41.4623 8.32236 38.9167C7.06301 37.35 6.9985 38.4687 6.54808 39.2653C5.00804 37.5366 4.53109 35.2713 3.58184 33.2464C3.23248 32.5013 3.42317 31.7495 4.48666 32.2554C7.8311 33.8416 11.7194 33.9255 14.8481 36.1919C16.2581 37.2121 17.2353 38.5412 18.419 39.849C18.9462 39.5238 19.2806 38.8897 18.9883 38.5421C17.8956 37.2609 17.409 35.6896 16.6126 34.2806C16.0915 33.3539 15.9863 33.0348 16.7054 32.1704C18.3262 30.2209 19.3235 27.8349 21.0121 25.8808C23.3862 23.1375 26.1661 21.391 29.7971 20.8671C35.7137 20.0167 40.2497 16.5278 44.5985 12.7498C46.175 11.3793 47.7368 9.9898 49.3095 8.6178C51.9273 6.33577 54.8112 5.61443 57.8713 7.5583C59.7613 8.76057 62.1201 9.26614 63.4347 11.3711C64.2337 12.6486 64.5211 13.5419 62.8489 14.3762C60.7257 15.4416 58.7122 16.7351 56.6395 17.9084C56.103 18.2123 55.7378 18.6534 55.8696 19.2213C56.0231 19.9036 56.6391 19.5202 57.0725 19.5384C55.6748 21.2654 54.533 23.1272 53.8959 25.2777C53.8005 25.6027 53.594 25.9642 54.0432 26.1121C54.2299 26.1758 54.5879 26.0367 54.7314 25.8716C55.2402 25.2876 55.4833 24.3442 56.5777 24.6457L56.5662 24.6412ZM6.05338 37.2272C6.14393 37.3684 6.23447 37.5095 6.32502 37.6507C6.38099 37.5973 6.43312 37.5425 6.49057 37.4853C6.33725 37.4037 6.1816 37.3167 6.02828 37.2351C5.99725 37.1789 5.96771 37.1188 5.93668 37.0626C5.97685 37.118 6.01703 37.1733 6.0587 37.2248L6.05338 37.2272ZM34.5627 30.8619C34.8157 29.6662 35.1424 28.6891 35.202 27.6965C35.2547 26.7895 35.0294 26.0881 33.704 26.143C29.3253 26.3234 26.0609 29.5555 25.9675 34.0149C25.928 35.8632 26.7468 36.5567 28.4926 36.0204C31.3134 35.1553 32.8918 32.8272 34.5666 30.8634L34.5627 30.8619ZM53.5641 10.6282C52.4313 10.4708 51.6082 10.9681 51.1454 11.8305C50.8559 12.3717 50.8164 13.1424 51.6741 13.4977C52.8518 13.9817 53.4573 13.1261 53.9372 12.3895C54.2878 11.85 54.0661 11.1279 53.5626 10.632L53.5641 10.6282Z" fill="white"/>
<path d="M112.256 35.6793C112.753 36.0889 112.273 36.5075 112.266 36.9241C111.851 37.4253 111.546 37.9605 111.759 38.6483C111.683 38.8662 111.602 39.0864 111.526 39.3042C110.873 39.7041 110.804 40.437 110.563 41.0586C104.886 55.6395 99.2146 70.2271 93.5566 84.8154C92.4938 87.5513 91.5014 90.3102 90.477 93.061C88.9228 95.4515 86.0627 95.6919 84.2827 93.5034C81.8053 90.4565 80.7632 86.6292 78.874 83.2588C78.5095 82.6094 78.3025 81.8268 77.8177 81.294C76.3929 79.7336 76.5463 78.1592 77.5442 76.4977C77.7746 76.1765 78.087 75.8827 78.2271 75.522C81.8958 66.2024 85.5506 56.873 89.2001 47.546C89.364 47.1239 89.6858 46.6924 89.3602 46.2038C90.344 43.5917 91.3255 40.9744 92.3246 38.3683C92.4572 38.0267 92.4766 37.6368 93.0162 37.5064C98.0524 36.3139 102.471 33.4552 107.455 32.1143C109.812 31.4797 111.464 32.3995 112.177 34.77C111.054 34.5414 111.024 35.4924 110.775 36.1332C107.514 44.4939 104.313 52.8823 100.999 61.2221C99.0302 66.1765 97.3266 71.2426 94.8413 75.9962C92.958 79.5969 90.2431 80.9492 87.289 79.3336C86.1405 78.7064 85.2195 77.7657 84.4879 76.6777C83.2225 74.7862 81.8077 72.9957 80.6421 70.5865C79.9311 72.4169 79.4436 73.9101 78.7783 75.3166C78.1714 76.5956 78.2483 77.6677 79.2408 78.6627C80.9393 80.3691 81.5828 82.6594 82.4901 84.7695C83.8761 88.0062 84.1998 91.9476 88.8532 92.6025C89.9188 92.7514 89.8743 93.1493 90.3036 92.2032C90.5563 91.6433 90.7622 91.0564 90.9843 90.4847C98.0794 72.2195 105.172 53.949 112.263 35.6823L112.256 35.6793Z" fill="white"/>
<path d="M117.139 34.6392C119.026 32.6035 121.275 32.1787 123.482 33.4379C124.978 34.2929 125.306 35.8422 124.486 37.9084C120.793 47.2007 117.089 56.4848 113.438 65.7935C109.059 76.9527 104.736 88.1288 100.387 99.2998C99.2532 102.22 98.6483 102.643 96.5388 101.96C93.8188 101.081 92.302 98.7249 93.0091 96.394C94.7257 90.75 97.0769 85.3437 99.174 79.8431C103.051 69.6683 107.072 59.5447 111.045 49.4072C111.313 48.7165 111.43 47.9403 112.026 47.4035C111.284 49.4604 110.581 51.5321 109.793 53.5712C107.32 59.9945 104.815 66.4097 102.323 72.8255C102.442 72.8716 102.556 72.9162 102.675 72.9623L106.635 62.7668C106.89 64.0403 105.838 64.7754 106.277 65.8115C106.483 65.6312 106.627 65.5678 106.667 65.4642C108.256 61.4532 109.832 57.4415 111.421 53.4305C112.357 51.0651 114.067 50.0097 116.549 50.2646C116.888 50.2991 117.238 50.3863 117.569 50.3384C118.909 50.1343 118.866 48.8945 119.203 47.9921C119.514 47.1588 118.886 46.8133 118.232 46.4666C117.133 45.8808 115.257 46.0617 115.047 44.7082C114.869 43.5791 115.768 42.2725 116.211 41.0533C116.539 40.1518 116.925 39.2726 117.232 38.3675C117.65 37.1211 117.813 35.8638 117.137 34.643L117.139 34.6392Z" fill="#F9B001"/>
<path d="M6.54133 39.2587C6.99174 38.462 7.05625 37.3433 8.3156 38.9101C10.3628 41.4541 13.176 42.8428 16.6014 42.1905C17.5335 42.0138 17.7878 42.2892 18.3358 43.0673C22.1252 48.43 25.6728 53.871 32.3798 56.441C40.3515 59.4979 48.6819 60.0663 56.9584 61.1704C60.6574 61.6622 64.381 62.0796 68.1533 61.7476C70.0056 61.5838 71.3236 60.8107 72.4641 59.3945C74.5014 56.8604 75.9141 53.938 77.1231 51.0071C79.0679 46.2953 81.5787 41.7371 82.0802 36.522C82.1004 36.3223 82.1971 36.1302 82.2678 35.9369C82.9018 34.1914 83.2513 34.1196 84.5313 35.4515C84.326 35.6853 84.1206 35.9191 83.9168 36.149C79.4794 47.5725 75.042 58.9959 70.4376 70.8491C69.8149 69.322 68.767 69.0254 67.7426 68.782C65.6936 68.2953 63.6298 67.8469 61.5544 67.4735C56.4035 66.5458 51.1813 65.926 46.1017 64.7125C39.4502 63.1224 33.184 60.3703 27.0624 57.3255C26.4416 57.0181 25.9358 56.5964 25.583 55.9736C23.8413 52.8813 21.5319 50.2752 18.8075 48.0113C17.054 46.5485 14.7706 46.2003 12.8213 45.0942C11.2768 44.216 10.2402 42.643 8.4752 42.1738L8.48306 42.199C8.58188 40.9125 7.68093 40.3284 6.77317 39.7506L6.79017 39.7749C6.93323 39.486 6.85291 39.2958 6.5356 39.2167L6.53069 39.2634L6.54133 39.2587Z" fill="#F9B001"/>
<path d="M8.48624 42.1689C10.2551 42.6396 11.2894 44.2072 12.8323 45.0892C14.7802 46.1992 17.0636 46.5474 18.8186 48.0064C21.5376 50.2726 23.847 52.8788 25.594 55.9687C25.9469 56.5915 26.4489 57.0117 27.0734 57.3206C33.1951 60.3654 39.4613 63.1174 46.1128 64.7075C51.1924 65.9211 56.4145 66.5408 61.5655 67.4686C63.6408 67.8419 65.7032 68.2942 67.7536 68.7771C68.7781 69.0205 69.8259 69.3171 70.4487 70.8441C75.053 58.991 79.4904 47.5675 83.9278 36.1441C84.4457 36.7957 83.8469 37.3051 83.6525 37.8169C79.5338 48.5559 75.3707 59.2733 71.2596 70.0154C70.8216 71.1657 70.4622 71.4103 69.1405 71.0249C64.4753 69.6632 59.6371 69.0645 54.8553 68.2184C50.7376 67.4888 46.6923 66.4253 42.6075 65.554C39.4546 64.8813 36.5052 63.6959 33.6256 62.3874C28.3742 59.9942 23.7349 56.7171 20.8547 51.5089C19.8819 49.7487 18.5667 48.5754 16.695 47.9499C13.384 46.8448 10.4456 45.1999 8.48922 42.1612L8.48624 42.1689Z" fill="white"/>
<path d="M73.1522 78.3554C72.9667 78.8442 73.0005 79.4491 72.2191 79.8389C71.4513 75.3055 73.9336 71.6371 75.0698 67.68C75.3626 67.0738 75.7027 66.4817 75.9419 65.8547C78.4396 59.3792 80.9312 52.8969 83.3946 46.408C83.7253 45.534 84.2929 44.7078 84.1402 43.6946C84.7539 41.1508 86.3473 39.0449 87.2803 36.6428C87.4145 36.2974 87.7786 35.984 88.1132 35.7916C88.5428 35.5477 88.9117 34.8475 89.507 35.2996C89.961 35.6394 89.9292 36.3336 89.7453 36.7391C88.7751 38.8398 88.8791 41.2826 87.6303 43.2838C86.2751 44.493 86.165 46.2962 85.5543 47.8343C83.2093 53.7465 80.9944 59.7092 78.7336 65.6541C77.168 69.5372 75.6046 73.4256 74.0351 77.3073C73.9151 77.6051 73.8589 77.9764 73.4072 77.9599C77.9176 66.3484 82.4281 54.737 86.9385 43.1255C85.5483 45.5135 84.469 48.031 83.588 50.6167C81.5748 56.5253 78.7337 62.0814 76.3015 67.8095C75.2636 70.2548 74.0557 72.6385 73.1961 75.1575C72.8507 76.1715 72.2819 77.2843 73.1416 78.3601L73.1522 78.3554Z" fill="white"/>
<path d="M117.139 34.6399C117.813 35.8645 117.655 37.1233 117.235 38.3644C116.931 39.271 116.54 40.1525 116.213 41.0502C115.771 42.2693 114.875 43.5775 115.049 44.7051C115.259 46.0585 117.136 45.8777 118.234 46.4634C118.888 46.8102 119.514 47.1595 119.205 47.989C118.868 48.8913 118.911 50.1312 117.572 50.3352C117.244 50.3846 116.891 50.296 116.552 50.2615C114.074 50.0086 112.365 51.0639 111.423 53.4274C109.834 57.4384 108.258 61.45 106.669 65.461C106.629 65.5646 106.485 65.6281 106.279 65.8084C105.84 64.7723 106.89 64.041 106.638 62.7637L102.677 72.9592C102.559 72.9131 102.444 72.8685 102.325 72.8224C104.817 66.4066 107.322 59.9913 109.796 53.5681C110.579 51.5275 111.287 49.4572 112.028 47.4003C113.733 43.1473 115.436 38.889 117.141 34.636L117.139 34.6399Z" fill="white"/>
<path d="M68.0864 76.8648C68.0058 78.2291 67.0983 78.5125 65.7193 78.2859C63.37 77.9033 61.0104 77.5697 58.6419 77.3386C57.5676 77.2348 57.3862 76.8287 57.3745 75.804C57.3194 71.4547 57.2706 71.4667 61.5072 72.4234C63.1431 72.7939 64.7967 73.0962 66.4386 73.4513C69.0895 74.0218 69.1043 74.0629 68.0917 76.8625L68.0864 76.8648Z" fill="#F9B001"/>
<path d="M56.5652 24.6415C55.4723 24.3362 55.2315 25.2849 54.7189 25.8674C54.5755 26.0325 54.2174 26.1717 54.0307 26.108C53.583 25.9562 53.7842 25.5971 53.8834 25.2735C54.5206 23.123 55.6623 21.2612 57.0601 19.5342L57.093 19.5515C57.351 19.4883 57.6052 19.4236 57.8633 19.3605L57.8039 19.3772C58.2759 19.4324 58.3939 19.072 58.535 18.7426L58.5016 18.7605C58.8621 18.9668 59.2015 19.0456 59.4438 18.5921L59.3821 18.6035C60.1298 19.3665 61.245 17.7771 61.4789 18.5701C61.9317 20.115 62.4631 18.9171 62.8522 18.7546C63.3994 18.5256 63.8662 18.1063 64.3628 17.7693C65.0236 18.79 64.052 19.3179 63.8198 20.0403L63.879 20.0014C63.4277 19.9498 63.187 20.161 63.1285 20.6064L63.1545 20.6076C62.14 20.2931 61.6394 21.1055 60.9909 21.5955L61.0539 21.5582C60.8533 21.6436 60.6565 21.7306 60.4559 21.8161L60.5356 21.7808C60.1183 21.7777 59.8369 21.9466 59.7899 22.3964L59.8126 22.3832C59.5268 22.2457 59.3407 22.328 59.255 22.6392L59.2831 22.6236C58.995 22.4807 58.8228 22.5949 58.7194 22.8727L58.7581 22.8524C58.4803 22.7622 58.3099 22.8947 58.1877 23.1299L58.2515 23.1017C57.7764 23.0319 57.5836 23.3015 57.5149 23.7164L57.5436 23.6879C57.1923 23.6397 57.0605 23.9109 56.897 24.1389C57.0228 24.4615 56.7633 24.5285 56.5682 24.6338L56.5652 24.6415Z" fill="#F9B001"/>
<path d="M11.6804 27.5694C12.3121 27.8148 12.9241 28.1673 13.5827 28.2863C15.5932 28.6565 15.8091 29.5751 14.9482 31.3605C14.341 32.6173 13.7577 32.8147 12.6153 32.2737C11.7588 31.8704 10.8739 31.4604 9.9596 31.251C7.66395 30.7302 7.2646 29.025 7.14442 27.0661C7.08633 26.1382 7.34257 25.7961 8.28912 26.1947C9.41261 26.6708 10.5638 27.0871 11.7045 27.5302C11.7 27.5417 11.6941 27.5571 11.6896 27.5686L11.6804 27.5694ZM12.6976 30.9278C11.4816 29.93 10.0423 29.4503 8.47454 29.2786C9.63752 30.4016 11.0313 30.9872 12.6976 30.9278Z" fill="white"/>
<path d="M51.8076 76.0394C51.2628 75.6952 50.08 75.9954 49.9842 74.938C49.8472 73.3965 49.6139 71.8309 49.9934 70.2869C50.0978 69.8593 50.5064 69.9871 50.842 70.0645C52.007 70.3316 52.984 71.2189 54.2947 71.0656C54.7146 71.0168 54.7197 71.4118 54.6615 71.7999C54.5205 72.73 54.3567 73.6732 54.3729 74.6069C54.4035 76.615 53.8563 77.502 51.8091 76.0355L51.8076 76.0394Z" fill="#F9B001"/>
<path d="M73.1514 78.3554C72.2878 77.2781 72.859 76.1706 73.2059 75.1528C74.0655 72.6338 75.2749 70.2462 76.3113 67.8048C78.7397 62.0752 81.5846 56.5206 83.5978 50.612C84.4774 48.0301 85.5566 45.5126 86.9483 43.1208C82.4379 54.7322 77.9274 66.3437 73.417 77.9552C73.3297 78.0891 73.2425 78.223 73.1552 78.3569L73.1514 78.3554Z" fill="#F9B001"/>
<path d="M90.473 93.0595C91.4975 90.3087 92.4937 87.5513 93.5526 84.8139C99.2106 70.2256 104.882 55.638 110.559 41.0571C110.799 40.4393 110.867 39.7064 111.522 39.3027C109.393 44.9191 107.303 50.5503 105.136 56.1518C100.619 67.8138 96.0637 79.4609 91.5101 91.1041C91.2448 91.7871 91.1521 92.5814 90.4745 93.0557L90.473 93.0595Z" fill="#F9B001"/>
<path d="M19.0988 57.8313C16.8783 55.2685 15.8799 51.8732 13.0712 49.475C18.1361 50.1706 19.5136 54.3932 21.9338 57.5194C20.9381 57.1679 20.0013 57.334 19.0988 57.8313Z" fill="white"/>
<path d="M47.24 74.8261C46.4936 74.5361 45.9883 74.3398 45.483 74.1436C43.2889 73.3045 42.3725 71.0363 43.7659 69.1619C44.3107 68.4285 45.6332 69.1409 46.5852 69.2987C47.3011 69.4178 47.7542 69.7484 47.5585 70.7058C47.2904 71.9972 46.8965 73.306 47.2453 74.8237L47.24 74.8261Z" fill="#F9B001"/>
<path d="M31.4463 64.3896C32.9253 65.4587 34.7108 65.9094 36.4103 66.7285C35.9504 67.4022 35.4233 67.9085 35.232 68.5143C34.8052 69.8853 33.9625 69.6728 33.0077 69.2843C32.1815 68.9501 31.1199 68.9043 31.6655 67.4204C31.9379 66.6738 31.9904 65.6653 31.1772 64.9916C31.2691 64.7889 31.3558 64.5885 31.4478 64.3857L31.4463 64.3896Z" fill="#F9B001"/>
<path d="M38.6264 71.2899C36.348 71.1556 37.0083 69.9548 37.4364 68.6372C38.2971 65.9906 39.8909 68.2614 41.033 68.1795C42.4334 68.0787 41.3819 69.3793 41.2157 69.9772C40.8429 71.3339 40.3814 72.8284 38.6279 71.2861L38.6264 71.2899Z" fill="#F9B001"/>
<path d="M31.4475 64.3894C31.3594 64.5937 31.2689 64.7926 31.1769 64.9953L30.977 64.9883C30.0656 64.5901 29.1539 64.1697 28.4863 63.4158C27.9491 62.8141 27.4342 62.7333 26.8101 63.2284C26.9935 61.3388 25.5599 62.7383 25.01 62.3393C24.6436 61.2298 23.5952 60.7872 22.7942 60.1272C21.908 59.4031 21.5072 58.6203 21.9288 57.5122C24.4086 59.3057 26.4371 61.6482 29.129 63.2017C29.889 63.6383 30.7282 63.8936 31.4437 64.3879L31.4475 64.3894Z" fill="white"/>
<path d="M89.3551 46.2018C89.6793 46.6943 89.3628 47.1234 89.195 47.544C85.5493 56.8725 81.8945 66.2019 78.222 75.5201C78.0819 75.8808 77.771 76.1707 77.5391 76.4957C80.7912 68.1802 84.0396 59.8632 87.2879 51.5462C87.9795 49.7657 88.6635 47.9823 89.3498 46.2042L89.3551 46.2018Z" fill="#F9B001"/>
<path d="M63.8206 20.04C64.0528 19.3176 65.0229 18.7936 64.3635 17.769C63.8685 18.1022 63.4001 18.5253 62.853 18.7544C62.4624 18.9207 61.9286 20.1133 61.4796 18.5698C61.2458 17.7768 60.1306 19.3662 59.3828 18.6032C60.4923 16.9719 62.4429 16.7933 63.9972 15.9221C64.5095 15.6353 64.8878 15.9544 65.1696 16.4084C65.7612 17.358 65.5982 18.3899 65.2488 19.3008C65.1295 19.6078 64.5911 20.3702 63.8259 20.0377L63.8206 20.04Z" fill="white"/>
<path d="M26.8084 63.2284C27.4286 62.7318 27.9474 62.8141 28.4846 63.4158C29.1537 64.1659 30.0638 64.5901 30.9753 64.9884C30.7631 65.1489 30.5519 65.3185 30.3297 65.4707C29.7232 65.8754 30.2235 67.6949 28.6671 66.8475C27.2664 66.087 25.5779 65.3869 26.8084 63.2284Z" fill="#F9B001"/>
<path d="M84.1445 43.692C84.2933 44.7037 83.7295 45.5313 83.3988 46.4054C80.9355 52.8943 78.4439 59.3766 75.9461 65.8521C75.7032 66.4776 75.3668 67.0712 75.0741 67.6773C75.7597 64.733 77.0636 62.0113 78.1258 59.2088C80.0891 54.0184 82.1367 48.8607 84.1483 43.6934L84.1445 43.692Z" fill="#F9B001"/>
<path d="M21.9302 57.5177C21.5071 58.6297 21.9094 59.4086 22.7956 60.1327C23.5981 60.7888 24.645 61.2353 25.0114 62.3448L25.0106 62.2561C24.7558 62.3338 24.5062 62.4091 24.2514 62.4867C24.3753 62.61 24.5031 62.7347 24.6256 62.8617C22.7943 62.8128 21.8858 61.4088 20.8102 60.2535C20.7459 60.0563 20.6777 59.8576 20.6133 59.6603L20.6367 59.7136C20.5647 58.9349 20.0191 58.5816 19.3849 58.3088L19.3992 58.3629C19.3127 58.1659 19.2262 57.9689 19.1397 57.7719L19.1052 57.838C20.0077 57.3406 20.9445 57.1746 21.9364 57.5245L21.9302 57.5177Z" fill="#F9B001"/>
<path d="M78.7407 65.6477C81.0015 59.7028 83.2164 53.7401 85.5614 47.8279C86.1721 46.2898 86.2784 44.4851 87.6374 43.2774C84.9599 50.2043 82.2863 57.1326 79.5935 64.0534C79.3758 64.6137 79.2818 65.2528 78.7422 65.6438L78.7407 65.6477Z" fill="#F9B001"/>
<path d="M53.5127 35.3038C53.6913 38.5528 52.8044 41.4145 50.4394 43.7374C50.3971 43.6194 50.3495 43.5037 50.2966 43.3904C51.5314 40.7787 52.9806 38.2503 53.4359 35.3314L53.5127 35.3038Z" fill="white"/>
<path d="M50.4386 43.7374C49.4945 45.4419 47.89 46.2494 46.1649 46.891C46.0899 46.7779 46.0255 46.6602 45.9679 46.5362C47.4101 45.4889 48.8537 44.4377 50.292 43.3889C50.3449 43.5022 50.3925 43.6179 50.4348 43.7359L50.4386 43.7374Z" fill="white"/>
<path d="M6.78969 39.7433C7.69745 40.3212 8.5984 40.9052 8.49958 42.1917C7.64713 41.5735 7.13426 40.7163 6.78969 39.7433Z" fill="white"/>
<path d="M60.9883 21.5939C61.6368 21.1039 62.1374 20.2914 63.1519 20.606C62.6381 21.3956 61.9288 21.7472 60.9883 21.5939Z" fill="white"/>
<path d="M19.3775 58.3019C20.0116 58.5748 20.5611 58.9295 20.6292 59.7068C19.964 59.4572 19.6061 58.9384 19.3775 58.3019Z" fill="white"/>
<path d="M53.1185 33.879C53.5044 34.2807 53.6079 34.7625 53.5137 35.3L53.4369 35.3276C53.0676 34.9059 52.7683 34.4629 53.1132 33.8814L53.1147 33.8776L53.1185 33.879Z" fill="white"/>
<path d="M111.758 38.6481C111.548 37.9618 111.853 37.4266 112.264 36.9239C112.305 37.5577 112.178 38.1445 111.758 38.6481Z" fill="#F9B001"/>
<path d="M24.6236 62.8565C24.4996 62.7333 24.3718 62.6086 24.2494 62.4815C24.5042 62.4038 24.7538 62.3285 25.0086 62.2509C25.2031 62.6576 24.7898 62.6782 24.6236 62.8565Z" fill="white"/>
<path d="M112.169 34.7666C112.553 35.039 112.306 35.3673 112.254 35.6827C111.952 35.4063 112.022 35.0891 112.173 34.768L112.169 34.7666Z" fill="white"/>
<path d="M59.4438 18.5915C59.2016 19.045 58.8622 18.9661 58.5017 18.7599C58.8017 18.6114 59.0482 18.2037 59.4438 18.5915Z" fill="white"/>
<path d="M57.513 23.724C57.5832 23.3052 57.7783 23.041 58.2497 23.1092C58.252 23.6136 57.8725 23.6605 57.513 23.724Z" fill="white"/>
<path d="M58.5347 18.746C58.3936 19.0754 58.2756 19.4358 57.8036 19.3806C57.8661 18.9588 58.1893 18.8415 58.5347 18.746Z" fill="white"/>
<path d="M59.7906 22.3963C59.8376 21.9464 60.1176 21.7813 60.5364 21.7806C60.5912 22.354 60.1431 22.3168 59.7906 22.3963Z" fill="white"/>
<path d="M63.1257 20.6047C63.1827 20.1631 63.4234 19.9519 63.8762 19.9997C63.9234 20.5701 63.4767 20.5291 63.1257 20.6047Z" fill="white"/>
<path d="M19.1341 57.7649C19.2206 57.9619 19.3071 58.1589 19.3936 58.3559C19.2114 58.2012 18.9068 58.1006 19.1341 57.7649Z" fill="white"/>
<path d="M20.6104 59.655C20.6747 59.8522 20.7429 60.0509 20.8073 60.2482C20.6319 60.0873 20.4314 59.9343 20.6104 59.655Z" fill="white"/>
<path d="M6.54955 39.213C6.86686 39.2921 6.94335 39.4808 6.80412 39.7712C6.71848 39.5833 6.63519 39.4008 6.54955 39.213Z" fill="white"/>
<path d="M60.4556 21.8196C60.6562 21.7341 60.853 21.6472 61.0536 21.5617C61.0104 22.0131 60.823 22.1213 60.4556 21.8196Z" fill="white"/>
<path d="M59.2543 22.6424C59.3346 22.3336 59.5223 22.2475 59.8119 22.3865C59.6904 22.6087 59.5238 22.7427 59.2543 22.6424Z" fill="white"/>
<path d="M58.7205 22.8813C58.8202 22.6021 58.9938 22.484 59.2842 22.6322C59.1752 22.8902 59.0016 23.0082 58.7205 22.8813Z" fill="white"/>
<path d="M58.1882 23.1385C58.3065 22.9018 58.477 22.7693 58.7585 22.861C58.641 23.1069 58.5592 23.4195 58.1882 23.1385Z" fill="white"/>
<path d="M56.8965 24.1423C57.0599 23.9144 57.1902 23.647 57.5431 23.6913C57.3263 23.8412 57.1133 23.9925 56.8965 24.1423Z" fill="white"/>
<path d="M57.864 19.36C57.606 19.4232 57.3518 19.4879 57.0938 19.551C57.3288 19.3995 57.5465 19.1793 57.864 19.36Z" fill="white"/>
<path d="M34.5624 30.8617C32.8876 32.8255 31.3107 35.1498 28.4885 36.0187C26.7426 36.555 25.9238 35.8616 25.9633 34.0133C26.0567 29.5538 29.3197 26.3256 33.6998 26.1413C35.029 26.0879 35.2544 26.7893 35.1979 27.6948C35.1383 28.6874 34.8154 29.666 34.5586 30.8602L34.5624 30.8617ZM32.5463 28.8729C29.2692 28.3948 30.096 31.1317 29.1792 32.3919C30.7794 31.7769 31.4426 30.3078 32.5463 28.8729Z" fill="#131414"/>
<path d="M53.1113 33.8854C52.7649 34.4708 53.0619 34.9085 53.435 35.3316C52.9811 38.2467 51.5281 40.7736 50.2957 43.3907C48.8535 44.438 47.4137 45.4906 45.9716 46.538C44.6446 45.996 45.7686 45.6995 46.1082 45.381C48.68 42.9795 50.82 40.3396 51.6226 36.7651C51.9041 35.5187 50.9643 34.3542 51.709 33.1288C52.4617 32.7675 52.4652 33.9834 53.1136 33.8908L53.1113 33.8854Z" fill="#F9B001"/>
<path d="M53.5639 10.6282C54.0674 11.1241 54.2891 11.8462 53.9386 12.3857C53.4586 13.1223 52.8531 13.9779 51.6754 13.4939C50.8177 13.1386 50.8572 12.3679 51.1467 11.8267C51.608 10.9681 52.4326 10.467 53.5654 10.6244L53.5639 10.6282Z" fill="#131414"/>
<path d="M6.02616 37.2391C6.17948 37.3207 6.33514 37.4077 6.48846 37.4893C6.4325 37.5426 6.38036 37.5975 6.32291 37.6546C6.23236 37.5135 6.14181 37.3723 6.05126 37.2312L6.02467 37.2429L6.02616 37.2391Z" fill="#F9B001"/>
<path d="M6.05346 37.2271C6.01341 37.1719 5.97335 37.1167 5.93181 37.0654C5.96275 37.1214 5.9922 37.1813 6.02313 37.2373L6.04965 37.2256L6.05346 37.2271Z" fill="#F9B001"/>
<path d="M112.175 34.7643C112.024 35.0854 111.953 35.4025 112.259 35.6805C105.164 53.9457 98.0716 72.2162 90.9804 90.4829C90.7568 91.0585 90.5523 91.6415 90.2996 92.2013C89.8757 93.1451 89.9148 92.7496 88.8493 92.6007C84.1959 91.9457 83.8722 88.0044 82.4861 84.7676C81.5803 82.6537 80.9368 80.3634 79.2368 78.6608C78.2444 77.6659 78.1674 76.5938 78.7744 75.3148C79.4397 73.9083 79.9257 72.4189 80.6382 70.5847C81.8038 72.9939 83.2185 74.7844 84.4839 76.6759C85.2156 77.7638 86.1366 78.7045 87.2851 79.3317C90.2354 80.9459 92.9541 79.5951 94.8374 75.9944C97.3227 71.2408 99.0248 66.1785 100.995 61.2203C104.309 52.8804 107.507 44.4906 110.771 36.1314C111.022 35.4868 111.054 34.5411 112.177 34.7696L112.175 34.7643Z" fill="#F9B001"/>
<path d="M12.6988 30.9276C11.0325 30.987 9.63873 30.4014 8.47576 29.2784C10.0435 29.4501 11.4843 29.9259 12.6988 30.9276Z" fill="#F9B001"/>
<path d="M32.547 28.8732C31.4472 30.3097 30.784 31.7788 29.1799 32.3923C30.0945 31.1267 29.2676 28.3899 32.547 28.8732Z" fill="white"/>
</svg>
