<svg width="120" height="181" viewBox="0 0 120 181" fill="none" xmlns="http://www.w3.org/2000/svg">
<g clip-path="url(#clip0_422_301)">
<path d="M55.8319 6.69893C58.5798 5.38385 60.8327 3.25378 64.0881 3.20439C66.1243 3.17352 66.997 3.59336 66.9041 5.8716C66.7185 10.2799 66.9041 14.7067 66.8175 19.1212C66.7865 20.5783 67.2384 21.3254 68.6556 21.7946C70.958 22.5602 73.2789 23.3752 75.4327 24.4803C79.4556 26.5548 82.6925 29.432 84.9515 33.5254C88.1822 39.3723 93.6533 42.9903 99.1864 46.3737C103.599 49.0718 108.154 51.5353 112.629 54.1284C119.202 57.9316 121.139 63.6118 119.4 70.7923C118.756 73.441 118.069 76.0897 117.63 78.7692C117.283 80.887 115.996 82.3132 114.189 82.5601C112.109 82.8441 111.014 84.0666 109.757 85.3508C106.322 88.8515 103.265 89.2343 99.1121 86.4992C97.3296 85.3261 95.7081 83.8937 94.1051 82.4799C91.4005 80.0905 88.535 78.2506 84.7968 77.7073C82.7791 77.4171 81.139 77.8802 79.6041 78.8001C76.9552 80.3869 74.2196 81.6834 71.0632 82.4428C72.1896 85.0298 74.0092 86.9376 75.7174 88.9503C80.8853 95.0442 87.6623 99.508 92.6569 105.762C94.2784 107.794 95.8133 109.881 96.8964 112.27C98.3385 115.45 98.1961 118.481 95.6957 121.037C94.7983 121.951 94.8911 122.328 95.7514 123.025C99.5082 126.057 99.7991 127.038 97.5896 130.977C96.9521 132.12 97.701 132.447 98.1528 133.015C101.111 136.726 104.688 139.843 107.962 143.252C109.528 144.882 111.137 146.493 112.474 148.296C115.544 152.432 115.464 157.433 112.159 161.397C110.834 162.984 112.499 163.126 112.994 163.441C118.509 166.935 119.623 169.473 118.205 175.721C117.457 179.012 114.919 180.914 111.119 180.926C92.1556 180.963 73.1984 181 54.2351 181C39.0842 181 23.9396 180.963 8.78871 180.932C1.59701 180.92 -2.09787 174.77 1.21947 168.355C2.38302 166.102 4.12215 164.355 6.31308 163.163C7.50139 162.515 7.38379 162.255 6.67824 161.224C2.52537 155.174 2.54394 152.105 7.30952 146.462C11.2025 141.856 15.64 137.72 19.4772 133.046C20.0405 132.36 20.7708 132.305 19.7124 131.336C15.7947 127.748 15.5719 127.199 19.9662 123.204C15.2501 119.129 14.7364 113.313 13.6781 107.794C12.0627 99.3907 11.5676 90.8643 11.0292 82.3255C10.0822 67.3039 12.7807 53.0479 19.3473 39.6193C21.0864 36.0691 24.4656 33.3278 27.0155 30.1543C30.4072 25.9436 32.8085 21.1216 35.5379 16.4849C39.1399 10.3725 44.0912 5.28506 49.6923 0.882927C51.6976 -0.697643 53.74 -0.123452 54.5755 2.29062C55.0706 3.72301 55.3986 5.21097 55.8071 6.69893H55.8319ZM94.6498 77.3554L94.6003 77.3122C94.5755 77.7752 94.8354 77.9481 95.2563 77.9666L95.2192 77.9357C95.2254 78.3679 95.5039 78.5223 95.8814 78.5778L95.8504 78.5531C96.1537 79.0039 96.3456 79.6521 97.1192 79.2632L97.0264 79.1705C96.8036 79.8497 97.0573 80.0534 97.7134 79.8682L97.6267 79.8003C97.9238 81.2018 98.8026 82.0045 100.189 82.2946L100.177 82.2576C100.474 82.7083 100.653 83.3566 101.433 82.98L101.346 82.9182C101.297 84.1716 102.658 84.5112 103.154 84.5112C104.62 84.5112 106.155 84.1716 107.164 82.8256C107.647 82.1835 107.888 81.4797 107.207 80.9178C105.14 79.2199 103.828 76.5774 100.938 75.9106L100.987 75.9909C101.315 75.2315 100.604 75.1018 100.239 74.7622L100.282 74.7993C99.96 74.3671 99.6196 73.9781 98.9945 74.1201L99.0502 74.1942C99.1307 73.6509 98.7036 73.4657 98.3632 73.2187L98.3756 73.1632C98.1713 72.5457 97.2925 71.8913 98.1652 71.3047C98.8893 70.817 99.7062 71.0825 100.424 71.669C103.197 73.9349 106.106 76.0465 108.755 78.4482C110.834 80.3313 111.93 79.4422 113.285 77.6332C115.526 74.6449 114.95 71.064 115.6 67.7608C116.664 62.414 114.077 58.7651 109.454 56.3387C106.675 54.8816 103.878 53.4492 101.099 51.986C93.4367 47.9481 86.0779 43.4904 81.6651 35.6616C78.9605 30.8582 74.9995 27.9132 69.8563 26.0794C66.1986 24.7767 62.3118 24.6779 58.6974 23.4678C57.0945 22.9306 56.7045 23.2517 55.6895 24.4865C54.1423 26.3696 52.2051 27.907 51.0106 30.1358C50.6888 30.7347 49.6119 30.6112 48.8692 30.0494C50.0575 27.6785 51.3881 25.5855 52.0504 23.0541C53.5172 17.4357 51.5243 11.9469 51.9266 6.39023C52.0565 4.62443 50.8992 4.76644 50.0451 5.66168C47.7242 8.09428 44.8091 9.9959 43.2247 13.0953L43.2928 13.0768L42.6492 13.7374L42.6739 13.7004C41.498 14.7129 40.5758 15.8983 40.1735 17.4295L40.2045 17.4048C37.0109 21.8008 36.3053 26.808 36.5591 32.056C36.7014 35.0195 35.7731 37.4954 33.8359 39.823C28.1048 46.6948 26.0315 54.9804 25.5425 63.6427C25.2702 68.3844 25.2145 73.1693 25.9943 77.9543C26.997 84.1531 27.7087 90.3951 28.928 96.5692C30.3453 103.731 32.1401 110.838 32.7714 118.117C32.9509 120.179 33.4955 120.543 35.3398 120.537C52.6321 120.451 69.9182 120.444 87.2105 120.377C88.0336 120.377 89.0734 120.932 89.7047 119.852C90.1441 120.012 90.5835 120.173 91.0168 120.333C93.5481 119.259 94.198 117.302 92.725 114.165C90.3855 109.208 86.6782 105.324 82.6553 101.663C77.5989 97.0569 72.9075 92.1053 68.7299 86.6536C67.5911 85.1656 67.6035 82.5972 65.066 82.2514C55.8504 81.0104 49.7418 75.7192 45.8056 67.5818C44.8587 65.6246 44.8896 63.7106 45.8427 60.9384C47.4952 66.3346 50.1256 70.0638 54.1113 72.7865C55.9495 74.8549 57.9485 76.6639 60.8574 77.059C65.4002 79.1088 69.8935 78.7939 74.3496 76.775C75.1542 76.6145 75.7731 76.207 76.1259 75.4476C79.0224 72.2864 80.3716 68.6499 79.437 64.2169C81.9003 66.9088 82.7977 69.8538 81.8136 73.2928C83.2681 73.5768 84.7287 73.9843 86.2202 74.1201C87.8665 74.2683 89.4324 74.6449 90.9549 75.2438C91.2148 75.4599 91.45 75.7871 91.8275 75.4352C92.1556 75.6575 92.4836 75.8736 92.8116 76.0959L92.7559 76.0712C93.0406 76.5466 93.3129 77.0467 94.0185 76.7688L93.9442 76.6947C93.7523 77.3677 94.2351 77.3121 94.6436 77.343L94.6498 77.3554ZM23.4754 41.5147L23.5435 41.4653C22.776 42.1321 22.2438 42.9224 22.2561 43.9843L22.318 43.9226C21.8291 43.8238 21.7301 44.1881 21.5939 44.5215C20.5603 46.6577 19.0811 48.6952 20.0095 51.2883C20.3499 51.4241 20.5975 51.9922 21.0678 51.4982L20.9441 51.5476C20.6841 52.5355 23.4259 53.7888 20.6779 54.5544C16.9831 54.0049 16.9212 56.7524 16.6179 59.1294C16.2775 61.7781 18.5551 60.0802 19.4525 60.71C19.7805 60.9384 20.1333 61.1422 20.4799 61.3521L20.5789 61.6361C20.0776 63.1426 18.6355 63.618 17.441 63.6427C15.0644 63.6859 15.5719 65.1986 15.5596 66.5383C15.541 68.088 15.7019 69.3784 17.8495 69.2364C18.8088 69.1685 19.7991 69.6377 20.9936 69.9156C21.2226 67.094 20.876 64.3404 21.5692 61.6855C21.8724 60.4136 21.7734 59.0985 21.9714 57.7958C22.677 53.1776 24.8617 49.0595 26.0253 44.6141C29.0889 39.5266 34.2568 35.2912 32.4743 27.8144C30.6423 33.0562 26.4276 36.3038 24.0448 40.8109L24.1562 40.8232C23.562 40.6935 23.5868 41.1751 23.4692 41.5147H23.4754ZM79.2761 124.279C70.9332 124.279 62.5904 124.217 54.2537 124.285C49.7418 124.322 45.2176 123.976 40.7243 124.618C34.5538 125.18 28.0677 123.698 22.1324 127.242C23.104 128.125 23.9334 127.748 24.7194 127.742C24.9546 127.792 25.1898 127.841 25.425 127.89C25.6478 128.533 26.1986 128.409 26.6813 128.415C32.9756 128.495 39.2761 128.576 45.5704 128.656C46.4121 129.199 47.3652 128.983 48.2626 128.983C59.4277 128.983 70.5928 128.965 81.7579 128.946C85.2424 129.601 88.603 128.125 92.0813 128.347C92.7497 128.391 93.7338 128.057 93.969 127.23C94.2722 126.143 93.0963 126.013 92.5207 125.544C92.0689 125.18 91.4314 124.84 90.8744 124.84C87.0001 124.84 83.1752 123.754 79.2823 124.279H79.2761ZM109.924 165.589C103.036 165.515 96.1413 165.447 89.2529 165.373C88.176 164.836 87.0248 165.096 85.9108 165.089C69.5407 165.04 53.1644 164.917 36.7943 165.021C27.9439 165.077 19.0811 164.725 10.2431 165.392C6.59159 165.664 4.11596 169.078 4.36352 173.369C4.55539 176.697 5.47756 177.314 10.1874 177.314C28.21 177.326 46.2264 177.308 64.249 177.363C79.2823 177.413 94.3094 177.549 109.343 177.666C112.685 177.691 114.678 176.388 115.061 173.826C115.631 170.047 113.811 167.127 109.924 165.589ZM13.5357 160.02C14.5693 160.712 15.7329 160.409 16.8345 160.409C35.6369 160.446 54.4393 160.496 73.2356 160.477C82.2654 160.471 91.2953 160.335 100.325 160.255C100.672 160.243 101.025 160.237 101.371 160.224C102.299 160.539 103.191 160.397 104.063 159.996C104.645 159.78 105.499 160.224 105.796 159.304C106.26 159.205 106.861 159.372 107.034 158.687C109.968 156.39 110.358 153.575 108.185 150.623C103.593 144.369 97.1811 139.732 92.7683 133.324C92.2979 132.638 91.7347 132.817 91.1839 132.824C86.9877 132.842 82.7853 132.898 78.5891 132.935C75.7174 132.941 72.8457 132.959 69.9801 132.953C56.556 132.928 43.1319 132.898 29.7078 132.873C26.8361 132.379 24.5461 133.021 23.135 135.867C22.6522 136.837 21.6682 137.553 20.9564 138.417C17.2677 142.906 12.465 146.45 9.54378 151.574C7.44568 155.266 9.33954 159.138 13.5357 160.014V160.02ZM24.0386 119.827C28.5195 119.716 28.5628 119.679 27.9191 115.653C27.523 113.159 27.0465 110.683 26.6751 108.183C25.7096 101.725 25.753 101.786 19.6877 104.231C18.2642 104.805 17.7938 105.281 18.2271 106.843C19.1926 110.288 20.0157 113.776 20.7522 117.277C21.1916 119.333 22.0829 120.451 24.0324 119.821L24.0386 119.827ZM62.4232 13.9412C62.4232 13.9412 62.4666 13.9412 62.4851 13.9412C62.4851 12.1013 62.4418 10.2676 62.4975 8.42768C62.547 6.88416 61.9219 6.71128 60.6532 7.29782C57.9795 8.53881 55.8009 10.0206 56.3208 13.5213C56.5312 14.9228 56.4322 16.3799 56.3332 17.8C56.2032 19.6954 56.7912 20.4054 58.8831 20.5721C61.8477 20.8129 63.0174 20.0041 62.448 16.985C62.2623 16.0033 62.4171 14.9475 62.4171 13.9288L62.4232 13.9412ZM16.3394 96.563C15.4048 100.23 16.9397 100.514 19.7372 99.3784C21.0369 98.8474 22.448 98.5634 23.8282 98.2547C24.4038 98.125 24.9546 97.8966 24.6575 97.3409C23.7291 95.5875 24.4347 93.7414 24.1809 91.9571C24.1067 91.4447 24.0634 90.8087 23.4073 90.889C21.0369 91.1915 18.9697 92.3708 16.884 93.408C15.4605 94.1119 16.5189 95.6122 16.3332 96.563H16.3394ZM15.5534 89.4998C17.4967 88.1847 19.5391 88.0242 21.4949 87.697C22.9431 87.4562 23.1597 86.6412 22.9369 85.5669C22.6399 84.1469 22.9184 81.9057 21.5939 81.5414C18.2085 80.6091 15.5286 83.1282 15.5472 86.6597C15.5472 87.4747 15.5472 88.2897 15.5472 89.4936L15.5534 89.4998ZM15.8195 75.5031C14.6126 78.7939 16.9645 78.6272 19.0626 78.4173C19.9909 78.3247 22.3923 79.0903 21.4825 77.1825C20.746 75.6328 23.0607 72.1629 18.8831 72.3914C16.8036 72.5087 14.7612 72.237 15.8133 75.5031H15.8195Z" fill="#131414"/>
<path d="M90.9609 75.2499C89.4384 74.651 87.8725 74.2744 86.2262 74.1262C84.7408 73.9904 83.2802 73.5829 81.8196 73.2989C82.7975 69.8599 81.9001 66.9149 79.443 64.223C80.3837 68.656 79.0283 72.2863 76.1318 75.4536H76.1256C75.6429 74.5893 77.3449 73.9225 76.4289 73.0643C74.3061 72.6876 73.1858 74.6387 71.2858 74.9227C65.8332 75.7438 60.9748 74.1818 56.2092 71.885C55.5779 71.5825 54.5505 70.1686 54.5134 72.3234C54.371 72.4654 54.2411 72.6259 54.1235 72.7926C50.1377 70.0637 47.5074 66.3407 45.8549 60.9445C44.9018 63.7167 44.8708 65.6307 45.8177 67.5878C49.7478 75.7315 55.8626 81.0227 65.0782 82.2575C67.6157 82.5971 67.6033 85.1717 68.7421 86.6596C72.9197 92.1114 77.611 97.063 82.6675 101.669C86.6904 105.33 90.3977 109.214 92.7371 114.171C94.2163 117.302 93.5603 119.265 91.0289 120.339C92.2049 117.82 91.9078 117.37 89.1165 117.431C88.8071 117.438 88.4852 117.407 88.1943 117.487C80.6065 119.623 72.8578 118.586 65.1957 118.425C60.424 118.327 55.5655 117.938 50.9052 116.462C48.2996 115.635 46.4985 114.208 45.2607 111.702C42.748 106.596 41.2997 101.15 39.9753 95.6985C37.0169 83.4985 33.2787 71.5146 33.223 58.6786C33.1735 47.8801 38.8674 39.9464 44.32 31.7163C45.1122 30.5185 45.3598 30.0184 44.6047 28.8083C41.8258 24.363 42.2405 19.6706 44.6913 15.4105C46.2015 12.7927 44.5985 13.3113 43.2369 13.1137C44.8213 10.0143 47.7364 8.11271 50.0573 5.68012C50.9114 4.78487 52.0687 4.64287 51.9387 6.40866C51.5365 11.9592 53.5355 17.4541 52.0625 23.0726C51.4003 25.6039 50.0696 27.697 48.8813 30.0678C49.624 30.6297 50.6947 30.7531 51.0228 30.1543C52.2234 27.9254 54.1606 26.3881 55.7017 24.505C56.7167 23.2701 57.1066 22.9491 58.7096 23.4862C62.324 24.6964 66.2108 24.7951 69.8685 26.0979C75.0054 27.9316 78.9664 30.8766 81.6773 35.6801C86.0901 43.5088 93.4489 47.9665 101.111 52.0044C103.89 53.4677 106.687 54.9001 109.466 56.3572C114.089 58.7836 116.67 62.4325 115.612 67.7792C114.956 71.0824 115.531 74.6634 113.297 77.6516C111.942 79.4668 110.846 80.3559 108.767 78.4666C106.118 76.0711 103.209 73.9533 100.436 71.6874C99.7184 71.1009 98.9015 70.8292 98.1773 71.3232C97.3047 71.9097 98.1773 72.5642 98.3878 73.1816C95.2066 72.1629 91.9759 71.5763 88.6152 71.8541C88.1077 71.8974 87.4888 71.8048 87.5259 72.5148C87.5383 72.8111 87.9282 73.2371 88.2377 73.3483C89.3331 73.7434 90.7876 73.5706 90.9609 75.2684V75.2499ZM45.8239 11.3109C45.6754 11.5146 45.5269 11.7184 45.3783 11.9221C45.4835 11.9715 45.5887 12.0147 45.7002 12.0641C45.7311 11.8048 45.7682 11.5393 45.7992 11.28C45.8611 11.2059 45.9291 11.1319 45.991 11.0578C45.9353 11.1442 45.8796 11.2306 45.8301 11.3171L45.8239 11.3109ZM70.2646 47.7998C72.078 47.5035 73.6253 47.4294 75.0488 46.9725C76.3485 46.5527 77.2087 45.855 76.4103 44.0275C73.7738 37.9892 67.4671 35.1738 61.1667 37.4706C58.5549 38.4214 58.0288 39.9464 59.7308 42.1012C62.4787 45.5833 66.6007 46.528 70.2646 47.806V47.7998ZM108.965 63.4141C108.569 61.741 107.424 60.8581 105.963 60.679C105.047 60.5679 103.946 60.9322 103.915 62.3275C103.877 64.2415 105.406 64.6243 106.7 64.8959C107.647 65.0935 108.538 64.3897 108.959 63.4141H108.965Z" fill="white"/>
<path d="M105.808 159.304C105.505 160.224 104.657 159.78 104.069 159.996C103.141 159.687 102.225 159.551 101.377 160.224C101.03 160.236 100.677 160.243 100.331 160.255C99.4148 159.557 98.3503 159.86 97.3476 159.86C73.823 159.841 50.2921 159.835 26.7674 159.848C22.3546 159.848 17.948 159.959 13.5352 160.02C9.33897 159.144 7.44511 155.266 9.54321 151.58C12.4645 146.45 17.261 142.906 20.9559 138.423C21.6676 137.559 22.6517 136.843 23.1344 135.873C24.5455 133.027 26.8355 132.385 29.7072 132.879C30.2828 133.027 30.8646 133.305 31.4463 133.305C46.5044 133.373 61.5686 133.416 76.6266 133.453C77.3074 133.453 78.0872 133.669 78.5947 132.947C82.7909 132.904 86.9933 132.854 91.1895 132.836C91.7403 132.836 92.2973 132.651 92.7739 133.336C97.1867 139.745 103.599 144.381 108.191 150.636C110.363 153.593 109.973 156.409 107.04 158.699C106.749 157.001 105.4 157.477 104.366 157.477C90.8739 157.458 77.3755 157.538 63.8833 157.433C55.8684 157.372 47.8412 157.742 39.8264 156.847C33.7549 156.168 30.3818 153.099 31.0379 148.08C31.2916 146.129 32.1086 144.326 33.235 142.708C35.1969 139.905 36.9361 136.948 39.6778 134.003C36.7256 134.003 34.3676 134.132 32.0343 133.966C29.9115 133.811 28.4508 134.503 27.5967 136.435C26.1299 139.745 23.2706 141.893 20.8073 144.313C17.0258 148.018 11.6784 150.617 13.2938 157.495C13.6651 159.07 13.0834 159.224 14.643 159.31C15.5652 159.36 16.4997 159.329 17.4219 159.329C46.8819 159.329 76.3481 159.323 105.808 159.317V159.304Z" fill="white"/>
<path d="M109.925 165.583C113.805 167.121 115.625 170.041 115.062 173.82C114.678 176.382 112.685 177.684 109.343 177.66C94.3095 177.542 79.2825 177.407 64.2492 177.357C46.2266 177.296 28.2102 177.32 10.1876 177.308C5.47774 177.308 4.55557 176.69 4.36371 173.363C4.11614 169.072 6.59177 165.664 10.2433 165.386C19.0875 164.719 27.9441 165.071 36.7945 165.015C53.1646 164.91 69.5409 165.034 85.911 165.083C87.025 165.083 88.1762 164.824 89.2531 165.367C85.9667 165.447 82.6803 165.589 79.3939 165.596C69.0457 165.626 58.6914 165.608 48.3433 165.608C48.3433 165.799 48.3433 165.985 48.3433 166.176H64.7877C63.1414 167.226 61.5384 166.151 60.3253 167.331C60.6905 167.522 60.8576 167.689 61.0247 167.689C67.5108 167.732 73.9908 167.757 80.477 167.8C84.3018 167.824 86.7114 169.646 87.7058 173.264C87.842 173.758 87.91 174.295 88.1576 174.733C89.1726 176.499 90.887 175.764 92.3352 175.746C93.6721 175.727 93.8144 174.659 93.9444 173.554C94.1672 171.696 92.8923 169.164 94.6747 168.133C96.1601 167.269 98.481 167.818 100.431 167.775C101.873 167.744 103.315 167.806 104.751 167.744C106.725 167.652 108.575 167.195 109.918 165.583H109.925Z" fill="#F9B001"/>
<path d="M43.2428 13.1014C44.6044 13.299 46.2074 12.7804 44.6973 15.3982C42.2464 19.6522 41.8317 24.3506 44.6106 28.796C45.3657 30.0061 45.1181 30.5124 44.3259 31.704C38.8733 39.9341 33.1794 47.8678 33.2289 58.6663C33.2846 71.5023 37.0228 83.4862 39.9812 95.6862C41.3057 101.138 42.7477 106.584 45.2667 111.69C46.5045 114.196 48.3055 115.622 50.9111 116.45C55.5715 117.925 60.4361 118.314 65.2017 118.413C72.8638 118.574 80.6187 119.611 88.2003 117.475C88.4912 117.394 88.813 117.425 89.1225 117.419C91.9137 117.357 92.2046 117.808 91.0349 120.327C90.5955 120.167 90.156 120.006 89.7228 119.845C71.2979 119.845 52.873 119.845 33.755 119.845C35.556 118.141 35.4013 116.511 35.1847 114.943C34.7514 111.807 34.2563 108.67 33.6498 105.559C32.1458 97.8348 30.1715 90.1789 29.107 82.3996C27.7144 72.2123 28.1601 61.9324 29.0946 51.6957C29.1874 50.6585 29.5031 49.72 30.1839 48.8865C33.5693 44.7622 35.9645 40.107 37.6541 35.0565C38.7496 31.8028 37.9945 28.4132 38.4834 25.0792C38.8733 22.4367 40.5135 20.1276 40.2102 17.3986L40.1792 17.4233C42.036 16.8615 42.364 15.2809 42.6796 13.6941L42.6549 13.7312C43.1376 13.7744 43.3604 13.5583 43.2985 13.0706L43.2305 13.0891L43.2428 13.1014Z" fill="#F9B001"/>
<path d="M40.2228 17.411C40.5261 20.1461 38.8922 22.4491 38.4961 25.0916C38.0009 28.4256 38.756 31.8152 37.6667 35.0689C35.9709 40.1132 33.5757 44.7685 30.1965 48.8989C29.5157 49.7324 29.2001 50.6647 29.1072 51.7082C28.1727 61.9448 27.7271 72.2247 29.1196 82.412C30.1841 90.1913 32.1585 97.8472 33.6624 105.571C34.2689 108.683 34.7579 111.819 35.1973 114.956C35.4139 116.524 35.5686 118.154 33.7676 119.858C52.8857 119.858 71.3105 119.858 89.7354 119.858C89.1041 120.938 88.0644 120.377 87.2412 120.383C69.949 120.457 52.6629 120.457 35.3706 120.543C33.52 120.556 32.9816 120.185 32.8021 118.123C32.1708 110.844 30.376 103.737 28.9587 96.5754C27.7395 90.4074 27.0277 84.1592 26.0251 77.9604C25.2514 73.1755 25.3071 68.3968 25.5733 63.6489C26.0684 54.9866 28.1356 46.701 33.8666 39.8292C35.8038 37.5077 36.7322 35.0257 36.5898 32.0622C36.3361 26.8203 37.0416 21.807 40.2352 17.411H40.2228Z" fill="white"/>
<path d="M24.713 127.736C23.927 127.742 23.0977 128.119 22.126 127.236C28.0613 123.692 34.5536 125.174 40.718 124.612C41.7268 124.692 42.7418 124.847 43.7506 124.84C54.1854 124.816 64.6264 124.779 75.0611 124.698C76.4661 124.686 77.9329 125.032 79.2697 124.266C83.1688 123.741 86.9875 124.828 90.8619 124.828C91.4189 124.828 92.0564 125.168 92.5082 125.532C93.0837 126.001 94.2658 126.137 93.9564 127.217C93.7274 128.039 92.7371 128.372 92.0687 128.335C88.5967 128.119 85.2298 129.594 81.7453 128.934C79.313 127.693 76.726 128.52 74.238 128.502C64.6759 128.434 55.1138 128.576 45.5516 128.644C39.2573 128.563 32.9569 128.489 26.6626 128.403C26.1798 128.397 25.629 128.52 25.4062 127.878C44.1343 127.878 62.8625 127.878 81.5906 127.878C77.4873 127.23 73.3715 127.088 69.2682 127.261C59.8917 127.656 50.5586 126.699 41.2069 126.409C37.2149 126.285 33.2168 125.89 29.2187 126.057C27.6095 126.125 25.7404 125.933 24.7006 127.724L24.713 127.736Z" fill="white"/>
<path d="M109.924 165.583C108.575 167.195 106.724 167.658 104.756 167.744C103.32 167.812 101.872 167.744 100.436 167.775C98.4863 167.818 96.1654 167.275 94.6801 168.133C92.8976 169.164 94.1726 171.696 93.9497 173.554C93.8198 174.659 93.6712 175.727 92.3406 175.746C90.8923 175.764 89.178 176.499 88.163 174.733C87.9154 174.301 87.8473 173.758 87.7112 173.264C86.7168 169.654 84.3072 167.833 80.4823 167.8C73.9962 167.757 67.5162 167.732 61.03 167.689C60.8629 167.689 60.6958 167.522 60.3307 167.331C61.5437 166.151 63.1405 167.226 64.793 166.176H48.3486C48.3486 165.985 48.3486 165.799 48.3486 165.608C58.6968 165.608 69.0511 165.626 79.3992 165.596C82.6856 165.583 85.972 165.447 89.2584 165.367C96.1469 165.441 103.041 165.509 109.93 165.583H109.924Z" fill="white"/>
<path d="M24.0449 119.827C22.0891 120.457 21.1979 119.339 20.7647 117.283C20.022 113.782 19.205 110.294 18.2395 106.849C17.8001 105.287 18.2705 104.812 19.7002 104.237C25.7655 101.792 25.7221 101.731 26.6876 108.189C27.059 110.683 27.5355 113.165 27.9316 115.659C28.5753 119.685 28.5258 119.728 24.0511 119.833L24.0449 119.827Z" fill="#F9B001"/>
<path d="M90.9605 75.25C90.7934 73.5521 89.3328 73.7312 88.2373 73.3299C87.9278 73.2187 87.5379 72.7927 87.5255 72.4964C87.4946 71.7863 88.1073 71.8728 88.6148 71.8357C91.9755 71.5579 95.2062 72.1444 98.3874 73.1632L98.3812 73.2187C98.6102 73.546 98.8392 73.867 99.0682 74.1942L99.0125 74.1202C99.1919 74.8117 99.7613 74.7808 100.3 74.7993L100.256 74.7623C100.164 75.3797 100.238 75.8983 101.005 75.9909L100.956 75.9106C100.294 77.3739 103.128 78.0716 102.144 78.831C100.226 80.3066 102.194 80.3992 102.633 80.8561C103.252 81.4982 104.094 81.9242 104.836 82.4367C103.766 83.9185 102.497 82.8442 101.358 82.9121L101.445 82.9738C101.271 82.3132 100.844 82.0909 100.188 82.2514L100.201 82.2885C100.089 80.6956 98.6783 80.4363 97.6385 79.7942L97.7251 79.8621C97.4961 79.6275 97.2671 79.399 97.0381 79.1644L97.131 79.257C96.9082 78.6705 96.5183 78.3679 95.8622 78.547L95.8932 78.5717C95.9303 78.0963 95.7137 77.8802 95.2309 77.9296L95.2681 77.9604C95.3114 77.4789 95.0576 77.2998 94.612 77.306L94.6615 77.3492C94.6368 76.9108 94.3583 76.7442 93.9622 76.7009L94.0365 76.775C93.8755 76.0712 93.3928 75.9477 92.7739 76.0773L92.8296 76.102C92.7058 75.5834 92.254 75.5464 91.8455 75.4414C91.4618 75.7933 91.2266 75.4661 90.9729 75.25H90.9605Z" fill="#F9B001"/>
<path d="M62.4226 13.9411C62.4226 14.9599 62.2617 16.0095 62.4536 16.9973C63.0292 20.0165 61.8594 20.8191 58.8887 20.5845C56.7968 20.4178 56.2026 19.7077 56.3388 17.8123C56.4378 16.3923 56.5306 14.929 56.3264 13.5336C55.8065 10.0329 57.9789 8.54497 60.6588 7.31015C61.9275 6.72361 62.5464 6.89648 62.5031 8.44001C62.4474 10.2737 62.4907 12.1136 62.4907 13.9535C62.4722 13.9535 62.4474 13.9535 62.4288 13.9535L62.4226 13.9411ZM58.2698 17.1949C59.0063 14.9475 58.8949 12.6693 58.2822 10.3787C57.3414 12.6199 57.2795 14.8919 58.2698 17.1949Z" fill="white"/>
<path d="M16.3396 96.563C16.5253 95.6122 15.4607 94.118 16.8904 93.408C18.9761 92.3769 21.0433 91.1977 23.4137 90.889C24.0697 90.8025 24.1131 91.4447 24.1873 91.9571C24.4473 93.7352 23.7355 95.5875 24.6639 97.3409C24.961 97.9028 24.4101 98.125 23.8345 98.2547C22.4544 98.5634 21.0433 98.8474 19.7436 99.3784C16.9461 100.514 15.405 100.23 16.3458 96.563H16.3396Z" fill="#F9B001"/>
<path d="M24.7129 127.736C25.7527 125.939 27.6156 126.137 29.2309 126.069C33.2291 125.902 37.2334 126.297 41.2192 126.421C50.5709 126.705 59.904 127.668 69.2804 127.273C73.3776 127.1 77.4933 127.242 81.6029 127.89C62.8747 127.89 44.1466 127.89 25.4184 127.89C25.1833 127.841 24.9481 127.792 24.7129 127.742V127.736Z" fill="#F9B001"/>
<path d="M13.5352 160.014C17.948 159.952 22.3546 159.847 26.7674 159.841C50.2921 159.829 73.8229 159.835 97.3476 159.854C98.3441 159.854 99.4086 159.551 100.331 160.249C91.3009 160.323 82.271 160.459 73.2412 160.471C54.4388 160.49 35.6363 160.446 16.8401 160.403C15.7385 160.403 14.5749 160.706 13.5413 160.014H13.5352Z" fill="#F9B001"/>
<path d="M24.0508 40.8108C26.4336 36.3037 30.6483 33.0561 32.4803 27.8143C34.2628 35.2912 29.0949 39.5204 26.0313 44.6141C25.9818 43.0273 25.2391 41.8048 24.0508 40.8108Z" fill="white"/>
<path d="M15.5528 89.4998C15.5528 88.2958 15.5528 87.4808 15.5528 86.6659C15.5343 83.1343 18.2141 80.6152 21.5996 81.5475C22.924 81.9118 22.6455 84.153 22.9426 85.5731C23.1654 86.6412 22.9488 87.4562 21.5005 87.7031C19.5448 88.0303 17.4962 88.1909 15.559 89.506L15.5528 89.4998Z" fill="#F9B001"/>
<path d="M21.5814 61.6855C20.8882 64.3404 21.2286 67.0878 21.0058 69.9156C19.8113 69.6377 18.8149 69.1747 17.8617 69.2364C15.7079 69.3846 15.547 68.088 15.5718 66.5383C15.5903 65.1986 15.0767 63.6859 17.4533 63.6427C18.6478 63.618 20.0898 63.1426 20.5911 61.6361C20.9253 61.6546 21.2534 61.667 21.5876 61.6855H21.5814Z" fill="#F9B001"/>
<path d="M15.8191 75.5031C14.767 72.237 16.8094 72.5086 18.8889 72.3913C23.0665 72.1567 20.7518 75.6266 21.4883 77.1824C22.3919 79.0902 19.9967 78.3246 19.0684 78.4173C16.9641 78.6334 14.6184 78.8001 15.8253 75.5031H15.8191Z" fill="#F9B001"/>
<path d="M21.5818 61.6854C21.2476 61.6731 20.9196 61.6546 20.5854 61.636L20.4863 61.352C20.5482 59.8579 20.6411 58.3514 21.3342 57.0055C21.8851 55.925 21.718 55.1594 20.6844 54.5543C23.4323 53.7826 20.6906 52.5354 20.9505 51.5476C22.3059 50.43 22.3554 48.7198 22.8444 47.238C23.3766 45.6019 24.2555 44.614 26.0379 44.6017C24.8744 49.0532 22.6958 53.1713 21.9841 57.7896C21.786 59.0923 21.8851 60.4074 21.5818 61.6793V61.6854Z" fill="white"/>
<path d="M78.5955 132.941C78.0818 133.663 77.3082 133.453 76.6274 133.447C61.5694 133.416 46.5052 133.373 31.4471 133.299C30.8654 133.299 30.2898 133.021 29.708 132.873C43.1321 132.904 56.5562 132.928 69.9803 132.953C72.8521 132.953 75.7238 132.941 78.5893 132.935L78.5955 132.941Z" fill="#F9B001"/>
<path d="M101.358 82.9121C102.497 82.8442 103.76 83.9185 104.836 82.4367C104.1 81.9242 103.252 81.4982 102.633 80.8561C102.188 80.3992 100.226 80.3004 102.144 78.831C103.128 78.0716 100.294 77.3739 100.956 75.9106C103.846 76.5774 105.158 79.2138 107.225 80.9178C107.906 81.4797 107.665 82.1835 107.182 82.8256C106.173 84.1716 104.638 84.505 103.172 84.5112C102.676 84.5112 101.315 84.1716 101.364 82.9183L101.358 82.9121Z" fill="white"/>
<path d="M20.6843 54.5544C21.7178 55.1533 21.8849 55.925 21.3341 57.0055C20.6471 58.3514 20.5481 59.8579 20.4862 61.3521C20.1458 61.1421 19.793 60.9384 19.4588 60.71C18.5614 60.0802 16.2838 61.7719 16.6242 59.1294C16.9275 56.7523 16.9894 54.0049 20.6843 54.5544Z" fill="#F9B001"/>
<path d="M79.2764 124.272C77.9395 125.032 76.4727 124.692 75.0678 124.704C64.633 124.785 54.192 124.822 43.7573 124.846C42.7484 124.846 41.7334 124.698 40.7246 124.618C45.2241 123.976 49.7483 124.322 54.2539 124.285C62.5968 124.21 70.9397 124.272 79.2764 124.278V124.272Z" fill="#F9B001"/>
<path d="M26.0311 44.6078C24.2425 44.6202 23.3698 45.608 22.8376 47.2442C22.3548 48.726 22.2991 50.4362 20.9437 51.5537L21.0675 51.5043C20.8199 51.1894 20.5786 50.8807 20.331 50.5659C20.2258 50.8066 20.1206 51.0536 20.0092 51.2944C19.0808 48.7013 20.5538 46.6638 21.5874 44.5276C21.8288 44.33 22.0701 44.1263 22.3115 43.9287L22.2496 43.9904C23.3018 43.4656 23.4998 42.5086 23.5369 41.4714L23.4689 41.5208C23.6979 41.2924 23.9269 41.0639 24.1558 40.8355L24.0444 40.8231C25.2327 41.8172 25.9754 43.0396 26.025 44.6202L26.0311 44.6078Z" fill="#F9B001"/>
<path d="M45.5645 128.65C55.1266 128.582 64.6887 128.44 74.2508 128.508C76.7388 128.526 79.3259 127.693 81.7582 128.94C70.5931 128.959 59.428 128.983 48.2629 128.977C47.3593 128.977 46.4124 129.193 45.5706 128.65H45.5645Z" fill="#F9B001"/>
<path d="M74.3555 76.775C69.8993 78.7939 65.4061 79.1088 60.8633 77.059C61.0056 76.9355 61.1418 76.8059 61.2718 76.67C65.6041 76.9787 69.9365 77.6332 74.275 76.6824L74.3555 76.775Z" fill="white"/>
<path d="M60.8633 77.059C57.9606 76.6638 55.9553 74.8548 54.1172 72.7865C54.2348 72.6198 54.3647 72.4654 54.5071 72.3173C56.7599 73.7682 59.0189 75.2191 61.2718 76.6638C61.1418 76.7997 61.0056 76.9293 60.8633 77.0528V77.059Z" fill="white"/>
<path d="M42.6986 13.7126C42.383 15.2994 42.055 16.88 40.1982 17.4418C40.6005 15.9106 41.5227 14.7252 42.6986 13.7126Z" fill="white"/>
<path d="M97.6387 79.788C98.6784 80.4301 100.09 80.6894 100.201 82.2823C98.8146 81.9921 97.9357 81.1895 97.6387 79.788Z" fill="white"/>
<path d="M23.5434 41.4591C23.5063 42.4964 23.3082 43.4595 22.2561 43.9781C22.2437 42.91 22.776 42.1259 23.5434 41.4591Z" fill="white"/>
<path d="M76.138 75.4476C75.7852 76.207 75.1663 76.6145 74.3617 76.775L74.2812 76.6824C74.6712 75.9353 75.1292 75.2747 76.1318 75.4414H76.138V75.4476Z" fill="white"/>
<path d="M101.377 160.224C102.225 159.557 103.141 159.693 104.069 159.996C103.203 160.397 102.312 160.539 101.377 160.224Z" fill="#F9B001"/>
<path d="M20.0156 51.2882C20.1208 51.0474 20.2261 50.8005 20.3375 50.5597C20.585 50.8746 20.8264 51.1833 21.074 51.4982C20.6098 51.9921 20.356 51.4241 20.0156 51.2882Z" fill="white"/>
<path d="M107.041 158.687C106.867 159.372 106.273 159.205 105.803 159.304C106.026 158.73 106.508 158.656 107.041 158.693V158.687Z" fill="white"/>
<path d="M101.006 75.9909C100.239 75.8982 100.164 75.3796 100.257 74.7622C100.628 75.1018 101.334 75.2253 101.006 75.9909Z" fill="white"/>
<path d="M92.7617 76.0773C93.3868 75.9477 93.8634 76.0773 94.0243 76.775C93.3187 77.0529 93.0464 76.5466 92.7617 76.0773Z" fill="white"/>
<path d="M100.294 74.7993C99.7557 74.7807 99.1863 74.8116 99.0068 74.1201C99.6319 73.9781 99.9723 74.3671 100.294 74.7993Z" fill="white"/>
<path d="M95.8623 78.5469C96.5183 78.3678 96.9021 78.6704 97.1311 79.2569C96.3574 79.6459 96.1656 78.9976 95.8623 78.5469Z" fill="white"/>
<path d="M100.188 82.2452C100.838 82.0847 101.265 82.3069 101.445 82.9675C100.671 83.3442 100.486 82.6959 100.188 82.2452Z" fill="white"/>
<path d="M24.1626 40.8232C23.9336 41.0517 23.7046 41.2801 23.4756 41.5086C23.5932 41.169 23.5684 40.6874 24.1626 40.8232Z" fill="white"/>
<path d="M22.3179 43.9226C22.0765 44.1202 21.8351 44.3239 21.5938 44.5215C21.7237 44.1881 21.8289 43.8238 22.3179 43.9226Z" fill="white"/>
<path d="M43.3116 13.0891C43.3735 13.5769 43.1507 13.7868 42.668 13.7497C42.8846 13.5275 43.095 13.3114 43.3116 13.0891Z" fill="white"/>
<path d="M97.0322 79.1643C97.2612 79.3989 97.4902 79.6274 97.7192 79.862C97.0632 80.0472 96.8094 79.8435 97.0322 79.1643Z" fill="white"/>
<path d="M95.2256 77.9296C95.7021 77.874 95.9249 78.0901 95.8878 78.5717C95.5103 78.5223 95.2318 78.3617 95.2256 77.9296Z" fill="white"/>
<path d="M94.6003 77.3121C95.0459 77.2998 95.3058 77.4788 95.2563 77.9666C94.8354 77.9542 94.5755 77.7752 94.6003 77.3121Z" fill="white"/>
<path d="M93.9506 76.707C94.3467 76.7441 94.6252 76.9108 94.65 77.3553C94.2415 77.3244 93.7587 77.38 93.9506 76.707Z" fill="white"/>
<path d="M91.8398 75.4414C92.2483 75.5464 92.6939 75.5834 92.8239 76.102C92.4959 75.8798 92.1679 75.6637 91.8398 75.4414Z" fill="white"/>
<path d="M99.0688 74.1941C98.8398 73.8669 98.6108 73.5459 98.3818 73.2186C98.7222 73.4656 99.1493 73.6508 99.0688 74.1941Z" fill="white"/>
<path d="M70.265 47.8C66.6011 46.5219 62.4854 45.5773 59.7312 42.0951C58.0292 39.9403 58.5553 38.4153 61.1671 37.4645C67.4676 35.1677 73.7681 37.9831 76.4108 44.0214C77.2092 45.8551 76.3489 46.5528 75.0492 46.9665C73.6257 47.4233 72.0784 47.5036 70.265 47.7938V47.8ZM71.9547 43.8917C70.8406 39.0389 67.4552 41.6876 65.19 41.0887C66.9229 42.9965 69.3429 43.1262 71.9547 43.8917Z" fill="#131414"/>
<path d="M76.1253 75.4414C75.1165 75.2747 74.6647 75.9292 74.2747 76.6824C69.9424 77.6332 65.61 76.9726 61.2715 76.6701C59.0187 75.2192 56.7597 73.7744 54.5068 72.3235C54.544 70.1687 55.5714 71.5826 56.2026 71.8851C60.9682 74.1819 65.8328 75.7439 71.2792 74.9228C73.1793 74.6388 74.2995 72.6878 76.4224 73.0644C77.3383 73.9226 75.6363 74.5894 76.1191 75.4476L76.1253 75.4414Z" fill="#F9B001"/>
<path d="M108.965 63.4142C108.544 64.3897 107.653 65.0936 106.706 64.896C105.412 64.6243 103.883 64.2415 103.921 62.3276C103.952 60.9322 105.053 60.5679 105.969 60.6791C107.424 60.8581 108.575 61.741 108.971 63.4142H108.965Z" fill="#131414"/>
<path d="M45.7929 11.28C45.762 11.5393 45.7249 11.8048 45.6939 12.0641C45.5887 12.0147 45.4835 11.9715 45.3721 11.9221C45.5206 11.7184 45.6691 11.5146 45.8177 11.3109L45.7867 11.28H45.7929Z" fill="#F9B001"/>
<path d="M45.8239 11.3109C45.8796 11.2245 45.9353 11.1381 45.9848 11.0516C45.9229 11.1257 45.8549 11.1998 45.793 11.2739L45.8239 11.3048V11.3109Z" fill="#F9B001"/>
<path d="M107.046 158.693C106.514 158.656 106.031 158.73 105.808 159.31C76.3484 159.31 46.8822 159.317 17.4222 159.323C16.4938 159.323 15.5655 159.354 14.6433 159.304C13.0899 159.224 13.6654 159.063 13.2941 157.489C11.6787 150.611 17.0261 148.012 20.8076 144.307C23.2771 141.887 26.1364 139.739 27.597 136.429C28.4511 134.497 29.9118 133.805 32.0346 133.96C34.3679 134.126 36.7197 133.997 39.6781 133.997C36.9364 136.942 35.1972 139.899 33.2353 142.702C32.1089 144.32 31.2919 146.123 31.0382 148.074C30.3821 153.087 33.7552 156.162 39.8267 156.841C47.8415 157.736 55.8626 157.366 63.8836 157.427C77.3758 157.532 90.8742 157.446 104.366 157.471C105.406 157.471 106.749 157.001 107.04 158.699L107.046 158.693Z" fill="#F9B001"/>
<path d="M58.27 17.1949C57.2797 14.8919 57.3416 12.6199 58.2823 10.3787C58.8951 12.6693 59.0126 14.9475 58.27 17.1949Z" fill="#F9B001"/>
<path d="M71.9541 43.8917C69.3423 43.1323 66.9224 43.0026 65.1895 41.0886C67.4608 41.6814 70.8463 39.0327 71.9541 43.8917Z" fill="white"/>
</g>
<defs>
<clipPath id="clip0_422_301">
<rect width="120" height="181" fill="white"/>
</clipPath>
</defs>
</svg>
