<svg width="24" height="24" viewBox="0 0 24 24" fill="none" xmlns="http://www.w3.org/2000/svg">
<path d="M24 4H0V20H24V4Z" fill="#FF9933"/>
<path d="M24 9.33301H0V14.6663H24V9.33301Z" fill="white"/>
<path d="M24 14.6665H0V19.9998H24V14.6665Z" fill="#128807"/>
<path fill-rule="evenodd" clip-rule="evenodd" d="M14.1334 11.9995C14.1334 13.1778 13.1782 14.1329 12 14.1329C10.8218 14.1329 9.8667 13.1778 9.8667 11.9995C9.8667 10.8213 10.8218 9.86621 12 9.86621C13.1782 9.86621 14.1334 10.8213 14.1334 11.9995ZM13.8667 11.9995C13.8667 13.0305 13.031 13.8662 12 13.8662C10.9691 13.8662 10.1334 13.0305 10.1334 11.9995C10.1334 10.9686 10.9691 10.1329 12 10.1329C13.031 10.1329 13.8667 10.9686 13.8667 11.9995Z" fill="#000088"/>
<path d="M12 12.3729C12.2062 12.3729 12.3734 12.2057 12.3734 11.9995C12.3734 11.7934 12.2062 11.6262 12 11.6262C11.7938 11.6262 11.6267 11.7934 11.6267 11.9995C11.6267 12.2057 11.7938 12.3729 12 12.3729Z" fill="#000088"/>
<path d="M13.8385 12.3357C13.8896 12.3425 13.9365 12.3065 13.9432 12.2554C13.95 12.2043 13.914 12.1574 13.8629 12.1507C13.8118 12.1439 13.7649 12.1799 13.7582 12.231C13.7514 12.2821 13.7874 12.329 13.8385 12.3357Z" fill="#000088"/>
<path d="M12 13.8662L12.064 12.7462L12 12.2129L11.936 12.7462L12 13.8662Z" fill="#000088"/>
<path d="M13.6889 12.8001C13.7365 12.8198 13.7911 12.7972 13.8108 12.7496C13.8305 12.702 13.8079 12.6474 13.7603 12.6277C13.7127 12.6079 13.6581 12.6305 13.6384 12.6782C13.6186 12.7258 13.6412 12.7804 13.6889 12.8001Z" fill="#000088"/>
<path d="M11.5169 13.8026L11.8686 12.7373L11.9448 12.2056L11.7449 12.7042L11.5169 13.8026Z" fill="#000088"/>
<path d="M13.4241 13.2099C13.465 13.2413 13.5236 13.2336 13.555 13.1927C13.5864 13.1518 13.5787 13.0932 13.5378 13.0619C13.4969 13.0305 13.4383 13.0382 13.4069 13.0791C13.3755 13.12 13.3832 13.1786 13.4241 13.2099Z" fill="#000088"/>
<path d="M11.0667 13.6161L11.6821 12.6782L11.8933 12.1843L11.5713 12.6142L11.0667 13.6161Z" fill="#000088"/>
<path d="M13.0623 13.5373C13.0937 13.5782 13.1523 13.5859 13.1932 13.5545C13.2341 13.5231 13.2418 13.4645 13.2104 13.4237C13.179 13.3828 13.1204 13.375 13.0796 13.4064C13.0387 13.4378 13.0309 13.4964 13.0623 13.5373Z" fill="#000088"/>
<path d="M10.6801 13.3195L11.5173 12.5728L11.8492 12.1504L11.4268 12.4823L10.6801 13.3195Z" fill="#000088"/>
<path d="M12.6281 13.7599C12.6479 13.8075 12.7024 13.8301 12.7501 13.8104C12.7977 13.7906 12.8203 13.7361 12.8006 13.6884C12.7809 13.6408 12.7263 13.6182 12.6786 13.6379C12.631 13.6576 12.6084 13.7122 12.6281 13.7599Z" fill="#000088"/>
<path d="M10.3834 12.9329L11.3854 12.4283L11.8153 12.1062L11.3214 12.3175L10.3834 12.9329Z" fill="#000088"/>
<path d="M12.1511 13.8625C12.1579 13.9136 12.2047 13.9495 12.2558 13.9428C12.3069 13.9361 12.3429 13.8892 12.3362 13.8381C12.3295 13.787 12.2826 13.751 12.2315 13.7577C12.1804 13.7645 12.1444 13.8113 12.1511 13.8625Z" fill="#000088"/>
<path d="M10.1969 12.4827L11.2954 12.2546L11.7939 12.0548L11.2622 12.131L10.1969 12.4827Z" fill="#000088"/>
<path d="M11.6638 13.8381C11.6571 13.8892 11.6931 13.9361 11.7442 13.9428C11.7953 13.9495 11.8422 13.9136 11.8489 13.8624C11.8556 13.8113 11.8196 13.7645 11.7685 13.7577C11.7174 13.751 11.6705 13.787 11.6638 13.8381Z" fill="#000088"/>
<path d="M10.1333 11.9996L11.2533 12.0636L11.7867 11.9996L11.2533 11.9356L10.1333 11.9996Z" fill="#000088"/>
<path d="M11.1994 13.6884C11.1797 13.736 11.2023 13.7906 11.2499 13.8104C11.2975 13.8301 11.3521 13.8075 11.3719 13.7599C11.3916 13.7122 11.369 13.6576 11.3214 13.6379C11.2737 13.6182 11.2191 13.6408 11.1994 13.6884Z" fill="#000088"/>
<path d="M10.1969 11.5164L11.2622 11.8681L11.7939 11.9444L11.2953 11.7445L10.1969 11.5164Z" fill="#000088"/>
<path d="M10.7896 13.4237C10.7582 13.4646 10.766 13.5231 10.8069 13.5545C10.8478 13.5859 10.9063 13.5782 10.9377 13.5373C10.9691 13.4964 10.9614 13.4378 10.9205 13.4064C10.8796 13.375 10.821 13.3828 10.7896 13.4237Z" fill="#000088"/>
<path d="M10.3834 11.0662L11.3214 11.6816L11.8153 11.8929L11.3854 11.5708L10.3834 11.0662Z" fill="#000088"/>
<path d="M10.4623 13.0619C10.4214 13.0932 10.4137 13.1518 10.4451 13.1927C10.4764 13.2336 10.535 13.2413 10.5759 13.2099C10.6168 13.1786 10.6245 13.12 10.5931 13.0791C10.5618 13.0382 10.5032 13.0305 10.4623 13.0619Z" fill="#000088"/>
<path d="M10.6801 10.6796L11.4268 11.5168L11.8492 11.8487L11.5173 11.4263L10.6801 10.6796Z" fill="#000088"/>
<path d="M10.2397 12.6277C10.1921 12.6474 10.1695 12.702 10.1892 12.7496C10.209 12.7972 10.2635 12.8198 10.3112 12.8001C10.3588 12.7804 10.3814 12.7258 10.3617 12.6782C10.342 12.6305 10.2874 12.6079 10.2397 12.6277Z" fill="#000088"/>
<path d="M11.0667 10.383L11.5713 11.3849L11.8934 11.8148L11.6821 11.3209L11.0667 10.383Z" fill="#000088"/>
<path d="M10.1371 12.1507C10.086 12.1574 10.0501 12.2043 10.0568 12.2554C10.0635 12.3065 10.1104 12.3425 10.1615 12.3357C10.2126 12.329 10.2486 12.2821 10.2419 12.231C10.2351 12.1799 10.1883 12.1439 10.1371 12.1507Z" fill="#000088"/>
<path d="M11.5169 10.1965L11.745 11.2949L11.9448 11.7935L11.8686 11.2618L11.5169 10.1965Z" fill="#000088"/>
<path d="M10.1615 11.6634C10.1104 11.6566 10.0635 11.6926 10.0568 11.7437C10.0501 11.7948 10.086 11.8417 10.1371 11.8484C10.1883 11.8552 10.2351 11.8192 10.2419 11.7681C10.2486 11.717 10.2126 11.6701 10.1615 11.6634Z" fill="#000088"/>
<path d="M12 10.1329L11.936 11.2529L12 11.7862L12.064 11.2529L12 10.1329Z" fill="#000088"/>
<path d="M10.3112 11.199C10.2635 11.1793 10.209 11.2019 10.1892 11.2495C10.1695 11.2971 10.1921 11.3517 10.2397 11.3714C10.2874 11.3912 10.342 11.3685 10.3617 11.3209C10.3814 11.2733 10.3588 11.2187 10.3112 11.199Z" fill="#000088"/>
<path d="M12.4832 10.1965L12.1315 11.2618L12.0552 11.7935L12.2551 11.2949L12.4832 10.1965Z" fill="#000088"/>
<path d="M10.5759 10.7891C10.535 10.7578 10.4764 10.7655 10.4451 10.8064C10.4137 10.8473 10.4214 10.9059 10.4623 10.9372C10.5032 10.9686 10.5618 10.9609 10.5931 10.92C10.6245 10.8791 10.6168 10.8205 10.5759 10.7891Z" fill="#000088"/>
<path d="M12.9334 10.383L12.3179 11.3209L12.1067 11.8148L12.4288 11.3849L12.9334 10.383Z" fill="#000088"/>
<path d="M10.9377 10.4618C10.9063 10.4209 10.8478 10.4132 10.8069 10.4446C10.766 10.476 10.7582 10.5345 10.7896 10.5754C10.821 10.6163 10.8796 10.624 10.9205 10.5927C10.9614 10.5613 10.9691 10.5027 10.9377 10.4618Z" fill="#000088"/>
<path d="M13.32 10.6796L12.4827 11.4263L12.1509 11.8487L12.5733 11.5168L13.32 10.6796Z" fill="#000088"/>
<path d="M11.3719 10.2393C11.3522 10.1916 11.2976 10.169 11.25 10.1887C11.2024 10.2085 11.1797 10.2631 11.1995 10.3107C11.2192 10.3583 11.2738 10.3809 11.3214 10.3612C11.369 10.3415 11.3917 10.2869 11.3719 10.2393Z" fill="#000088"/>
<path d="M13.6166 11.0662L12.6147 11.5708L12.1848 11.8929L12.6787 11.6816L13.6166 11.0662Z" fill="#000088"/>
<path d="M11.8489 10.1367C11.8422 10.0856 11.7953 10.0496 11.7442 10.0563C11.6931 10.063 11.6571 10.1099 11.6639 10.161C11.6706 10.2121 11.7175 10.2481 11.7686 10.2414C11.8197 10.2347 11.8557 10.1878 11.8489 10.1367Z" fill="#000088"/>
<path d="M13.8031 11.5164L12.7047 11.7445L12.2061 11.9443L12.7378 11.8681L13.8031 11.5164Z" fill="#000088"/>
<path d="M12.3362 10.161C12.343 10.1099 12.307 10.063 12.2559 10.0563C12.2048 10.0496 12.1579 10.0856 12.1512 10.1367C12.1444 10.1878 12.1804 10.2347 12.2315 10.2414C12.2826 10.2481 12.3295 10.2121 12.3362 10.161Z" fill="#000088"/>
<path d="M13.8667 11.9995L12.7467 11.9355L12.2134 11.9995L12.7467 12.0635L13.8667 11.9995Z" fill="#000088"/>
<path d="M12.8006 10.3107C12.8203 10.2631 12.7977 10.2085 12.7501 10.1887C12.7025 10.169 12.6479 10.1916 12.6282 10.2393C12.6084 10.2869 12.631 10.3415 12.6787 10.3612C12.7263 10.3809 12.7809 10.3583 12.8006 10.3107Z" fill="#000088"/>
<path d="M13.8031 12.4827L12.7378 12.131L12.2061 12.0548L12.7047 12.2546L13.8031 12.4827Z" fill="#000088"/>
<path d="M13.2104 10.5754C13.2418 10.5345 13.2341 10.476 13.1932 10.4446C13.1523 10.4132 13.0937 10.4209 13.0623 10.4618C13.031 10.5027 13.0387 10.5613 13.0796 10.5927C13.1205 10.624 13.1791 10.6163 13.2104 10.5754Z" fill="#000088"/>
<path d="M13.6166 12.9329L12.6787 12.3175L12.1848 12.1062L12.6147 12.4283L13.6166 12.9329Z" fill="#000088"/>
<path d="M13.5378 10.9372C13.5787 10.9059 13.5864 10.8473 13.555 10.8064C13.5236 10.7655 13.465 10.7578 13.4241 10.7891C13.3833 10.8205 13.3755 10.8791 13.4069 10.92C13.4383 10.9609 13.4969 10.9686 13.5378 10.9372Z" fill="#000088"/>
<path d="M13.32 13.3195L12.5733 12.4823L12.1509 12.1504L12.4828 12.5728L13.32 13.3195Z" fill="#000088"/>
<path d="M13.7603 11.3714C13.808 11.3517 13.8306 11.2971 13.8108 11.2495C13.7911 11.2019 13.7365 11.1792 13.6889 11.199C13.6413 11.2187 13.6187 11.2733 13.6384 11.3209C13.6581 11.3685 13.7127 11.3912 13.7603 11.3714Z" fill="#000088"/>
<path d="M12.9334 13.6161L12.4288 12.6142L12.1067 12.1843L12.3179 12.6782L12.9334 13.6161Z" fill="#000088"/>
<path d="M13.8629 11.8484C13.914 11.8417 13.95 11.7948 13.9433 11.7437C13.9365 11.6926 13.8897 11.6566 13.8386 11.6634C13.7874 11.6701 13.7515 11.717 13.7582 11.7681C13.7649 11.8192 13.8118 11.8552 13.8629 11.8484Z" fill="#000088"/>
<path d="M12.4832 13.8026L12.2551 12.7042L12.0553 12.2056L12.1315 12.7373L12.4832 13.8026Z" fill="#000088"/>
</svg>
