<svg width="190" height="155" viewBox="0 0 190 155" fill="none" xmlns="http://www.w3.org/2000/svg">
<g clip-path="url(#clip0_422_294)">
<path d="M65.8729 53.0506C66.5603 49.7914 68.8359 48.2715 71.8722 47.7616C75.7055 47.1199 78.8533 50.0039 78.9582 54.4029C78.998 56.0529 79.4566 56.4449 81.0488 56.4336C87.6411 56.386 94.2456 56.6915 100.828 56.4386C104.107 56.312 107.42 56.0055 110.707 55.6557C115.48 55.1533 120.228 54.5463 124.952 53.7555C131.764 52.6142 138.502 51.1267 144.952 48.5459C146.234 48.0318 147.126 47.2415 147.743 45.9739C148.954 43.4854 150.952 43.1704 152.848 45.1891C153.542 45.9284 153.932 45.8012 154.681 45.3378C158.294 43.1097 160.902 39.7332 164.204 37.1573C166.47 35.3888 168.839 33.9164 171.898 33.8856C173.439 33.8703 174.687 35.3733 175.878 34.9919C176.99 34.6353 177.652 33.015 179.031 32.5844C181.807 31.7161 186.298 31.8459 187.738 35.3673C188.294 36.7254 188.537 38.193 188.524 39.6842C188.379 58.2166 188.238 76.749 188.104 95.2815C188.092 97.259 188.209 99.241 188.113 101.214C187.825 107.347 182.14 109.094 177.929 106.952C177.408 106.686 176.946 106.268 176.527 105.848C176.112 105.427 175.788 104.91 175.338 104.331C173.265 106.155 170.879 106.906 168.199 105.931C166.524 105.322 165.093 104.301 163.797 103.05C160.622 99.9782 157.914 96.4234 154.224 93.8637C153.654 93.4673 153.568 93.3443 153.104 93.8636C150.564 96.7074 148.017 96.1975 146.837 92.5517C146.618 91.8731 146.346 91.6264 145.772 91.3417C139.383 88.2098 132.531 86.6996 125.59 85.4661C119.88 84.4495 114.127 84.0018 108.352 83.5143C99.0489 82.7267 89.7474 82.8145 80.4366 82.6861C78.9526 82.6657 78.9144 83.5624 78.9085 84.4773C78.8903 87.2977 77.6056 89.3355 75.2657 90.7865C71.7611 92.9613 67.318 90.9767 65.8858 86.8285C65.6029 86.0054 65.4951 85.4067 64.5392 86.1714C62.8773 87.4971 61.2821 86.8385 59.7753 85.8922C59.2121 85.5355 58.8197 85.4862 58.1843 85.7126C54.7255 86.9367 51.2704 88.1536 47.8328 89.4426C45.9948 90.1332 44.0037 90.5491 42.1192 91.1889C39.242 92.1682 36.3647 93.1402 33.4416 93.9679C31.197 94.6019 30.2016 94.228 29.0691 92.1999C28.2537 90.7357 27.7306 89.1798 27.3088 87.5561C26.4511 84.2618 25.8205 80.9365 25.6046 77.5418C25.5718 77.0373 25.5063 76.5902 25.076 76.2849C23.4086 75.1034 21.6276 74.2166 19.5433 74.005C18.5173 73.9012 18.2949 74.3248 18.4188 75.2225C18.5323 76.0446 18.7433 76.8456 18.8604 77.6749C19.2118 80.1735 18.2151 81.6656 15.6743 81.8725C14.247 81.9894 12.7956 81.9476 11.3625 81.8628C9.42526 81.7458 8.48439 80.7347 8.3709 78.7816C8.32869 78.0645 8.35857 77.3406 8.35959 76.6238C8.36419 75.9106 8.36878 75.1974 8.37319 74.513C6.65641 74.2858 5.40174 75.5745 3.78909 75.3984C2.26644 75.2301 1.2165 74.3768 1.18318 72.8385C1.13301 70.5616 1.16932 68.2816 1.19121 66.0016C1.20289 64.7481 1.89509 64.1005 3.12655 64.1769C4.4228 64.2609 5.72123 64.0063 7.02204 64.501C7.94194 64.8527 8.61047 64.522 8.45639 63.2783C8.34683 62.3914 8.42114 61.4806 8.45934 60.5839C8.54933 58.3583 9.68782 57.2093 11.9041 57.0615C14.0916 56.9135 16.1927 57.3125 18.1571 58.2437C19.6762 58.9667 19.296 60.3943 19.1653 61.6615C19.1232 62.0538 18.8866 62.4269 18.7329 62.8078C18.5059 63.3791 18.2672 64.08 18.6787 64.5113C19.0866 64.9426 19.6453 64.3302 20.1431 64.2145C21.1785 63.9726 22.1894 63.6189 23.2178 63.341C25.5345 62.7147 25.9395 60.7865 26.0564 58.8637C26.2621 55.4466 27.1979 52.2106 28.353 49.0481C29.7684 45.1669 31.2214 43.8434 35.46 45.7078C38.8437 47.1957 42.4174 48.2706 45.9254 49.4639C49.9619 50.8372 54.0386 52.0954 58.0567 53.5189C58.7791 53.7757 59.0866 53.576 59.6075 53.2335C61.3729 52.0706 63.8959 51.8419 65.8693 53.047L65.8729 53.0506ZM22.6672 66.6082C22.6868 66.3634 22.5723 66.2402 22.3274 66.2314C20.5641 67.0738 18.5581 67.0212 16.7631 67.7373C15.5257 68.0283 15.1556 67.3307 15.2199 66.2901C15.3083 64.8678 15.555 63.4825 16.1399 62.1535C16.8235 60.6017 16.363 59.9576 14.663 59.9286C12.1873 59.8838 10.9522 61.1186 10.9576 63.633C10.9561 63.8707 10.969 64.1122 10.971 64.3499C10.9755 67.5703 10.6387 67.8527 7.62816 67.1489C7.48073 67.1083 7.33328 67.0714 7.18945 67.0308C7.02524 66.7992 6.8021 66.769 6.54949 66.8394C5.60283 66.7288 4.65265 66.6038 3.71075 66.8715C3.37164 68.6272 3.42159 70.3782 3.77054 72.1275C3.7988 72.2142 3.82706 72.3008 3.85892 72.3874C3.92055 72.3266 3.9822 72.2622 4.04383 72.2013C5.00176 71.6816 6.00695 72.214 6.9914 72.051C10.6911 71.4481 10.9777 71.6985 10.9146 75.3435C10.8442 79.5648 10.8445 79.5108 15.0778 79.3976C16.2127 79.3653 16.3418 78.9014 16.2791 78.0077C16.1638 76.3319 15.6121 74.7542 15.1793 73.1556C14.7922 71.7302 15.4439 71.2229 16.6824 71.3282C18.3961 71.4725 20.1734 71.2534 21.8077 71.988C22.3967 72.2511 22.6849 72.253 22.6754 71.4893C22.6534 69.8753 22.6782 68.2617 22.685 66.648L22.6744 66.6119L22.6672 66.6082ZM149.042 79.0612C149.013 79.1223 149.016 79.1799 149.056 79.2378C148.78 82.8851 149.311 86.5087 149.342 90.1471C149.347 90.9505 149.879 91.2133 150.383 91.3102C151.009 91.4331 151.034 90.7992 151.142 90.3316C151.446 89.0116 151.581 87.6328 151.906 86.3561C152.471 84.1372 151.617 82.0172 151.926 79.8651C152.574 79.3578 152.215 78.6494 152.226 78.0551C152.414 70.1027 152.382 62.1524 152.055 54.2039C151.968 52.0924 151.773 50.0163 151.081 47.7785C149.324 49.2837 149.409 51.2438 149.279 53.0117C149.073 55.8164 149.141 58.641 149.091 61.4576C148.786 67.3236 148.612 73.1941 149.035 79.0648L149.042 79.0612ZM59.2078 69.9848C58.8645 73.5019 59.4868 76.9929 59.5399 80.4982C59.555 81.5177 59.8759 82.5824 60.6991 83.409C61.2896 84 61.9554 84.1051 62.6518 83.9187C63.3662 83.7288 63.349 83.0478 63.3529 82.4391C63.412 73.8266 63.4891 65.2179 63.523 56.6052C63.5298 54.9843 62.9195 54.6705 61.2227 55.2468C59.7297 55.5217 59.7463 56.851 59.6534 57.8519C59.2708 61.8839 59.061 65.9278 59.2042 69.9848L59.2078 69.9848ZM75.974 84.2783C76.0598 83.8142 76.2213 83.3505 76.2243 82.8859C76.2619 74.8136 76.2779 66.7411 76.3011 58.6688C75.9858 57.2835 76.2003 55.8728 76.1084 54.4782C75.9241 51.7645 74.6852 50.6146 72.0411 50.6264C70.0058 50.6385 68.2911 52.3277 68.2696 54.5393C68.181 64.3728 68.1213 74.2064 68.1083 84.0403C68.1043 85.7765 68.7466 87.2936 70.4813 88.0901C71.9799 89.1984 73.4152 88.9483 75.0649 87.2875C75.906 86.4464 75.9526 85.3696 75.974 84.2819L75.974 84.2783ZM178.145 36.5375C177.316 38.2864 177.956 40.1529 177.714 41.9488C177.278 42.4683 177.454 43.0998 177.45 43.6762C177.36 52.6126 177.281 61.5492 177.213 70.4858C177.134 80.503 177.058 90.5167 177.001 100.534C176.982 103.412 178.453 104.924 181.18 104.938C183.81 104.951 185.125 103.76 185.131 101.192C185.188 80.0218 185.223 58.8483 185.288 37.6786C185.293 36.7961 184.995 36.1926 184.295 35.7198C182.577 34.5524 179.596 34.9438 178.145 36.5411L178.145 36.5375ZM174.143 38.6658C173.271 37.1545 171.606 36.7043 169.767 37.5497C167.628 38.5338 165.789 39.9592 164.128 41.6019C161.968 43.7349 159.885 46.0413 157.221 47.4614C154.973 48.6609 153.849 49.8063 154.566 52.5342C155.445 55.8935 154.756 59.4084 155.004 62.8465C154.975 67.2951 154.95 71.74 154.925 76.1886C154.638 79.9942 155.06 83.8297 154.405 87.6186C154.154 89.0759 154.511 90.1084 156.056 90.8064C157.331 91.3837 158.419 92.4102 159.414 93.4612C161.711 95.8859 163.979 98.332 166.334 100.699C169.426 103.803 172.756 103.097 174.179 100.199C174.619 99.6109 174.418 98.9288 174.422 98.2912C174.467 93.497 174.487 88.7026 174.507 83.9082C174.572 69.9465 174.63 55.9847 174.691 42.023C174.1 40.9673 174.868 39.6827 174.129 38.6513L174.147 38.6694L174.143 38.6658ZM30.8953 89.9819L31.0652 90.4549C31.6861 91.363 32.5202 91.0586 33.3106 90.8188C35.3932 90.1838 37.4793 89.5488 39.5443 88.8525C44.8077 87.0817 50.064 85.2929 55.3133 83.4824C56.187 83.1818 57.1866 82.9073 56.8711 81.558C56.2997 79.0976 56.6726 76.5821 56.5121 74.0956C56.5391 69.8956 56.5662 65.692 56.5933 61.492C56.6258 60.3575 56.5792 59.2117 56.7089 58.085C56.8616 56.7532 56.3099 56.285 55.0555 55.8554C48.0144 53.429 41.0136 50.8912 34.0203 48.3282C31.8029 47.5178 31.706 47.4739 30.8484 49.7414C29.1407 54.262 28.6273 59.0316 28.3049 63.7844C27.8871 69.9199 28.0419 76.077 28.9248 82.174C29.3076 84.8241 29.5277 87.5632 30.8917 89.9855L30.8953 89.9819ZM146.77 51.5726C139.825 54.3232 132.672 55.9197 125.398 57.094C120.869 57.8248 116.317 58.3178 111.764 58.8612C107.463 59.3739 103.153 59.5838 98.8479 59.6966C92.7411 59.8554 86.6254 59.7259 80.5166 59.6505C79.508 59.6368 79.3545 59.9924 79.356 60.8714C79.3542 66.7466 79.3451 72.6217 79.2316 78.4925C79.2094 79.7063 79.6336 79.8388 80.6533 79.7949C83.4531 79.6688 86.2599 79.5573 89.0658 79.5825C97.8259 79.6642 106.57 80.0231 115.308 80.7026C121.267 81.1661 127.154 81.9893 132.967 83.3595C137.52 84.4299 142.11 85.3817 146.621 87.4676C145.849 75.3484 146.232 63.4816 146.773 51.5762L146.77 51.5726ZM25.3472 72.7745L25.396 65.1885C24.5835 67.7409 24.6248 70.2807 25.3472 72.7745ZM65.9781 57.4171C65.9204 57.4168 65.8628 57.4164 65.8052 57.416L65.6726 77.9909C65.7302 77.9913 65.7879 77.9917 65.8455 77.992L65.9781 57.4171Z" fill="#211C17"/>
<path d="M146.769 51.5761C146.228 63.4815 145.849 75.3483 146.617 87.4674C142.106 85.3815 137.516 84.4298 132.962 83.3594C127.15 81.9927 121.262 81.1659 115.303 80.7024C106.565 80.023 97.8215 79.664 89.0614 79.5824C86.2591 79.5571 83.4523 79.6687 80.6489 79.7947C79.6328 79.8422 79.205 79.7062 79.2273 78.4924C79.3372 72.6179 79.3462 66.7428 79.3516 60.8712C79.3537 59.9923 79.5036 59.6366 80.5122 59.6503C86.621 59.7257 92.7367 59.8552 98.8435 59.6964C103.149 59.5837 107.458 59.3737 111.759 58.8611C116.312 58.3177 120.865 57.8247 125.394 57.0938C132.664 55.9195 139.817 54.323 146.765 51.5724L146.769 51.5761ZM89.2734 79.1154C89.2741 79.0002 89.2749 78.8849 89.2792 78.7661C87.806 78.7566 86.3292 78.7471 84.8559 78.7376C84.4957 78.7353 84.0815 78.7218 84.0125 78.2639C83.9399 77.7879 84.3617 77.7366 84.6939 77.6054C85.3873 77.3325 86.1039 77.3696 86.8243 77.3706C95.5055 77.3869 104.178 77.5653 112.841 78.1794C119.7 78.6667 126.518 79.4383 133.252 80.8181C137.426 81.6735 141.632 82.4138 145.71 83.9819C145.723 81.9611 145.692 80.1022 145.765 78.2511C145.803 77.3184 145.406 76.9916 144.556 76.8673C142.609 76.5846 140.682 76.0786 138.727 75.9436C127.389 75.1645 116.047 74.371 104.675 74.222C97.9616 74.132 91.2475 74.0635 84.5364 74.0923C82.937 74.1 82.4682 73.6251 82.5216 72.0404C82.6456 68.4463 82.5752 64.8472 82.6164 61.2489C82.6251 60.4528 82.4336 59.9869 81.5254 60.0495C80.8047 60.0989 80.0852 59.9538 80.0814 61.092C80.0739 66.7294 80.0196 72.3665 79.9653 78C79.9604 78.7637 80.2538 79.0645 81.0247 79.0623C83.7732 79.0548 86.5215 79.0869 89.2734 79.1046L89.2734 79.1154Z" fill="white"/>
<path d="M56.5115 74.0954C56.672 76.582 56.2992 79.0939 56.8705 81.5579C57.186 82.9107 56.1864 83.1817 55.3128 83.4822C50.0635 85.2927 44.8071 87.0852 39.5438 88.8523C37.4788 89.5451 35.3927 90.18 33.3101 90.8186C32.5197 91.0585 31.6856 91.3629 31.0647 90.4547C31.1658 90.4049 31.2563 90.3407 31.3397 90.262C31.7676 90.3692 32.3441 90.9168 32.6 90.3277C33.0461 89.3004 33.9794 89.2488 34.7809 88.973C41.0445 86.8232 47.3223 84.7167 53.5931 82.5886C56.0046 81.772 56.1727 81.4021 56.1888 78.9095C56.1984 77.4074 55.6103 77.5657 54.6025 77.9879C52.085 79.0379 49.5604 80.0699 47.0074 81.0368C42.5984 82.7087 38.1751 84.348 33.6493 85.6949C30.7512 86.5587 30.7794 86.6526 31.0055 89.5718C31.0156 89.6871 30.9752 89.8094 30.9564 89.9281L30.8948 89.9853C29.5307 87.5631 29.3106 84.824 28.9279 82.1739C28.045 76.0769 27.8902 69.9197 28.3079 63.7843C28.6303 59.0315 29.1438 54.2618 30.8515 49.7413C31.709 47.4738 31.806 47.5177 34.0233 48.328C41.0167 50.891 48.0174 53.4289 55.0585 55.8553C56.3093 56.2884 56.8646 56.7531 56.712 58.0849C56.5822 59.2116 56.6289 60.3538 56.5964 61.4882C56.1587 65.6856 56.2253 69.8898 56.5151 74.0954L56.5115 74.0954Z" fill="white"/>
<path d="M155.007 62.8392C154.759 59.4011 155.452 55.8898 154.57 52.5269C153.856 49.799 154.976 48.6535 157.225 47.4541C159.889 46.034 161.971 43.7276 164.132 41.5946C165.792 39.9555 167.635 38.5265 169.77 37.5424C171.609 36.6969 173.274 37.1435 174.147 38.6585C172.516 38.5723 173.141 39.8299 173.133 40.5359C173 54.508 172.899 68.4839 172.816 82.4563C172.806 84.034 172.53 85.5523 172.041 87.0333C171.104 89.8658 169.075 90.5947 166.437 89.1405C164.502 88.0762 163.166 86.3529 161.58 84.9054C159.993 83.4543 158.519 81.8598 156.65 80.7527C156.147 80.4541 155.411 80.0675 155.483 81.2027C155.618 83.3072 154.812 85.3553 155.237 87.649C155.724 86.9101 156.263 87.1333 156.801 87.4754C157.009 87.61 157.267 87.889 157.021 88.0171C155.575 88.7571 156.975 88.9462 157.276 89.1787C159.731 91.0965 162.103 93.093 164.217 95.4012C165.505 96.8071 166.818 98.188 168.359 99.3723C170.374 100.923 171.763 98.8431 173.465 98.6811C173.98 98.6304 173.685 97.4182 173.693 96.7446C173.757 90.8086 173.781 84.8687 173.822 78.9326C173.92 65.5006 174.024 52.0723 174.125 38.6403C174.861 39.6717 174.096 40.9563 174.687 42.012C174.613 42.2889 174.471 42.5653 174.469 42.8427C174.364 61.9589 174.27 81.0752 174.172 100.188C172.752 103.086 169.419 103.795 166.327 100.688C163.972 98.3246 161.704 95.8749 159.407 93.4502C158.412 92.3992 157.323 91.3727 156.048 90.7954C154.504 90.0974 154.147 89.0649 154.398 87.6076C155.052 83.8187 154.63 79.9796 154.918 76.1776C155.299 71.7349 155.404 67.2869 154.997 62.8355L155.007 62.8392Z" fill="white"/>
<path d="M178.148 36.5338C179.599 34.9366 182.58 34.5415 184.298 35.7125C184.998 36.1889 185.293 36.7888 185.291 37.6713C185.226 58.841 185.191 80.0145 185.134 101.184C185.128 103.753 183.813 104.944 181.183 104.93C178.456 104.916 176.989 103.408 177.004 100.527C177.061 90.5094 177.137 80.4957 177.216 70.4785C177.284 61.5419 177.363 52.6054 177.453 43.6689C177.457 43.0925 177.281 42.461 177.717 41.9415C177.674 48.6305 177.63 55.3195 177.587 62.0049C177.923 60.7535 177.92 59.5 177.943 58.2501C178.012 54.2918 178.015 54.281 182.047 54.1809C182.955 54.1579 183.845 54.0196 183.949 52.9792C184.08 51.676 184.201 50.2864 183.845 49.0737C183.75 48.7453 181.922 48.9245 180.889 48.871C180.77 48.8666 180.647 48.8694 180.529 48.8687C178.929 48.9124 178.014 47.761 178.13 46.5406C178.374 43.9702 177.886 41.4383 178.082 38.882C178.141 38.1079 178.942 37.3242 178.151 36.5266L178.148 36.5338Z" fill="#F9B001"/>
<path d="M70.4841 88.0828C68.7493 87.2863 68.1107 85.7693 68.1111 84.033C68.124 74.1991 68.1838 64.3655 68.2724 54.532C68.2902 52.324 70.0086 50.6312 72.0439 50.6191C74.688 50.6037 75.9269 51.7536 76.1112 54.4709C76.2066 55.8655 75.9886 57.2762 76.3075 58.6615C76.2408 58.942 76.1202 59.2222 76.1184 59.5032C76.0652 67.7591 76.0227 76.0187 75.9804 84.2746C75.9589 85.3624 75.9124 86.4427 75.0712 87.2802C74.9891 87.1644 74.9035 87.045 74.8214 86.9292C75.1457 85.7858 75.5994 84.7008 75.6002 83.4581C75.6149 74.4707 75.6728 65.4836 75.7523 56.4966C75.759 55.4592 75.5239 54.4815 75.343 53.4897C75.2769 53.1219 75.1975 52.599 74.5879 52.714C74.0686 52.8115 73.976 53.2143 73.9803 53.6646C73.9815 54.0249 73.9756 54.3851 73.9697 54.7416C73.9096 62.9507 73.8387 71.1596 73.8002 79.3652C73.7907 80.8384 73.7598 82.2935 72.5464 83.3267C71.3764 84.3242 70.1201 83.6353 68.8766 83.195C68.7373 84.689 68.6353 85.9816 70.2122 86.6725C70.7223 86.8956 70.5924 87.4891 70.6037 87.9611L70.4877 88.0828L70.4841 88.0828Z" fill="white"/>
<path d="M7.62794 67.1488C10.6385 67.849 10.9753 67.5702 10.9708 64.3498C10.9723 64.1121 10.9595 63.8706 10.9574 63.6329C10.9496 61.1185 12.1847 59.8837 14.6627 59.9285C16.3592 59.9574 16.8197 60.6052 16.1397 62.1534C15.5548 63.4824 15.3081 64.8677 15.2197 66.29C15.1554 67.3306 15.5255 68.0282 16.7629 67.7372C18.8122 67.7936 20.7953 67.4966 22.6776 66.6442C22.6708 68.2579 22.646 69.8716 22.668 71.4855C22.6775 72.2492 22.3893 72.251 21.8003 71.9842C20.166 71.2532 18.3923 71.4724 16.675 71.3244C15.4401 71.2192 14.7849 71.7229 15.1719 73.1518C15.6083 74.7504 16.1564 76.3281 16.2717 78.0039C16.3344 78.8976 16.2053 79.3615 15.0704 79.3938C10.8335 79.5106 10.8367 79.5646 10.9072 75.3397C10.9667 71.6947 10.6837 71.4443 6.984 72.0472C6.00318 72.2066 4.99437 71.6778 4.03643 72.1976C4.05774 71.1278 4.14387 70.0585 4.08231 68.9919C4.00126 67.5937 4.25128 66.8064 5.93356 67.3576C6.41164 67.5156 7.11359 67.5886 7.62799 67.1416L7.62794 67.1488Z" fill="#F9B001"/>
<path d="M61.2291 55.2431C62.9295 54.6633 63.5362 54.9806 63.5294 56.6016C63.4955 65.2142 63.4184 73.823 63.3593 82.4354C63.3554 83.0442 63.3726 83.7251 62.6581 83.915C61.9617 84.1015 61.296 83.9963 60.7054 83.4054C59.8822 82.5787 59.5613 81.5176 59.5463 80.4945C59.4932 76.9856 58.8709 73.4983 59.2142 69.9811C59.8837 70.0467 60.1701 69.7712 60.1926 69.0689C60.2998 65.8528 60.6412 62.6274 60.5034 59.4206C60.4376 57.8928 60.2339 56.5155 61.2327 55.2431L61.2291 55.2431Z" fill="#F9B001"/>
<path d="M149.098 61.4503C149.145 58.6337 149.08 55.8091 149.286 53.0043C149.416 51.2365 149.331 49.2727 151.088 47.7711C151.78 50.0126 151.975 52.0887 152.063 54.1965C152.39 62.1451 152.421 70.0954 152.233 78.0478C152.218 78.6457 152.578 79.3504 151.93 79.8578C151.117 78.5305 152.395 76.9178 151.327 75.5925C151.13 76.4269 151.487 77.5315 150.304 77.8445C149.549 78.0449 149.476 78.7757 149.055 79.2305C149.016 79.1762 149.009 79.1149 149.042 79.0575C149.062 73.1896 149.078 67.3181 149.098 61.4503Z" fill="white"/>
<path d="M178.148 36.5338C178.942 37.3314 178.137 38.1187 178.078 38.8892C177.882 41.4419 178.37 43.9738 178.126 46.5478C178.01 47.7682 178.925 48.916 180.525 48.8759C180.644 48.873 180.766 48.8702 180.885 48.8782C181.918 48.9317 183.746 48.7525 183.841 49.0809C184.197 50.2936 184.076 51.6832 183.946 52.9864C183.842 54.0268 182.955 54.1651 182.043 54.1881C178.012 54.2882 178.008 54.299 177.939 58.2573C177.917 59.5108 177.923 60.7644 177.584 62.0121C177.627 55.3231 177.67 48.6341 177.713 41.9487C177.959 40.1528 177.319 38.2863 178.144 36.5374L178.148 36.5338Z" fill="white"/>
<path d="M149.059 79.2341C149.479 78.7793 149.552 78.0485 150.307 77.8481C151.49 77.5315 151.133 76.4269 151.33 75.5961C152.398 76.9214 151.12 78.5341 151.933 79.8614C151.623 82.0135 152.474 84.1335 151.912 86.3524C151.587 87.6291 151.452 89.0079 151.148 90.3279C151.041 90.7955 151.015 91.4293 150.389 91.3064C149.882 91.2059 149.354 90.9431 149.348 90.1434C149.318 86.505 148.786 82.8814 149.062 79.2341L149.059 79.2341Z" fill="#F9B001"/>
<path d="M174.175 100.188C174.269 81.0716 174.367 61.9553 174.472 42.8427C174.474 42.5654 174.616 42.2889 174.69 42.012C174.629 55.9738 174.568 69.9355 174.506 83.8972C174.486 88.6916 174.466 93.486 174.421 98.2803C174.417 98.9178 174.614 99.5999 174.178 100.188L174.175 100.188Z" fill="#F9B001"/>
<path d="M61.2297 55.2431C60.2309 56.5118 60.4346 57.8892 60.5003 59.4205C60.6382 62.6238 60.2968 65.8491 60.1896 69.0688C60.1671 69.7711 59.8807 70.0466 59.2112 69.9811C59.068 65.9277 59.2778 61.8801 59.6604 57.8481C59.7569 56.8473 59.7366 55.518 61.2297 55.2431Z" fill="white"/>
<path d="M75.9777 84.271C76.0201 76.015 76.0625 67.7555 76.1157 59.4996C76.1175 59.2186 76.2418 58.9384 76.3048 58.6579C76.2816 66.7303 76.2656 74.8063 76.228 82.8786C76.225 83.3432 76.0635 83.8069 75.9777 84.271Z" fill="#F9B001"/>
<path d="M25.3471 72.7743C24.6247 70.2806 24.5835 67.7407 25.396 65.1884L25.3471 72.7743Z" fill="#F9B001"/>
<path d="M65.9773 57.417L65.8448 77.992C65.7871 77.9916 65.7295 77.9912 65.6719 77.9908L65.8045 57.4159C65.8621 57.4163 65.9197 57.4167 65.9773 57.417Z" fill="#F9B001"/>
<path d="M149.097 61.4503C149.078 67.3182 149.061 73.1897 149.041 79.0575C148.615 73.1868 148.789 67.3199 149.097 61.4503Z" fill="#F9B001"/>
<path d="M155.007 62.8392C155.414 67.2905 155.31 71.7385 154.928 76.1812C154.957 71.7327 154.982 67.2841 155.007 62.8392Z" fill="#F9B001"/>
<path d="M56.5113 74.0954C56.2214 69.8898 56.1548 65.6856 56.5925 61.4882C56.5654 65.6918 56.5384 69.8918 56.5113 74.0954Z" fill="#F9B001"/>
<path d="M7.62814 67.1487C7.11372 67.5993 6.41179 67.5227 5.93371 67.3648C4.25503 66.8136 4.00501 67.6009 4.08246 68.999C4.14405 70.0621 4.05789 71.135 4.03659 72.2047C3.97493 72.2692 3.9133 72.33 3.85167 72.3908C3.82341 72.3042 3.79515 72.2176 3.76329 72.1309C3.74218 70.3765 3.72464 68.6257 3.7035 66.8749C4.6454 66.6072 5.5956 66.7286 6.54224 66.8428C6.7065 67.0672 6.91858 67.137 7.1822 67.0342C7.32963 67.0748 7.47708 67.1118 7.62091 67.1523L7.62814 67.1487Z" fill="white"/>
<path d="M22.6774 66.6442C20.7951 67.4966 18.812 67.7936 16.7627 67.7372C18.5613 67.0175 20.5673 67.0737 22.3306 66.2313C22.4451 66.3581 22.5559 66.4813 22.6668 66.6081L22.6774 66.6442Z" fill="white"/>
<path d="M75.0683 87.2802C73.415 88.941 71.9833 89.1911 70.4847 88.0828C70.4847 88.0828 70.6008 87.9611 70.6008 87.9647C72.1201 88.0861 73.6009 88.0452 74.8184 86.9292C74.9005 87.045 74.9862 87.1644 75.0683 87.2802Z" fill="white"/>
<path d="M3.70656 66.8713C3.7277 68.6221 3.74521 70.3765 3.76635 72.1273C3.421 70.378 3.37105 68.6271 3.70656 66.8713Z" fill="#F9B001"/>
<path d="M31.0645 90.4547C31.0079 90.2959 30.9513 90.1406 30.8946 89.9817L30.9562 89.9245C31.0852 90.037 31.2106 90.1495 31.3395 90.262C31.2562 90.3407 31.1657 90.4049 31.0645 90.4547Z" fill="white"/>
<path d="M7.18932 67.0306C6.9257 67.1334 6.71362 67.0636 6.54937 66.8392C6.80195 66.7724 7.02512 66.799 7.18932 67.0306Z" fill="#F9B001"/>
<path d="M22.6647 66.6081C22.5545 66.4821 22.4407 66.3596 22.3305 66.2336C22.574 66.2387 22.6842 66.3648 22.6647 66.6081Z" fill="#F9B001"/>
<path d="M89.2737 79.1155C86.5253 79.0978 83.7734 79.0656 81.0249 79.0732C80.254 79.0754 79.9606 78.7745 79.9655 78.0109C80.0198 72.3738 80.0706 66.7367 80.0817 61.1029C80.0818 59.9646 80.8049 60.1097 81.5257 60.0604C82.4374 59.9978 82.6253 60.4637 82.6166 61.2597C82.5754 64.8581 82.6459 68.4571 82.5218 72.0513C82.4684 73.6323 82.9372 74.1108 84.5367 74.1031C91.2478 74.0707 97.9618 74.1428 104.676 74.2329C116.047 74.3818 127.389 75.1753 138.727 75.9544C140.682 76.0895 142.61 76.5954 144.557 76.8781C145.406 77.0025 145.804 77.3292 145.765 78.262C145.692 80.1166 145.723 81.972 145.71 83.9927C141.632 82.4211 137.426 81.6843 133.253 80.829C126.515 79.4455 119.697 78.6739 112.842 78.1903C104.179 77.5761 95.5058 77.3942 86.8245 77.3815C86.1077 77.3768 85.3875 77.347 84.6941 77.6163C84.3583 77.7474 83.9401 77.7987 84.0127 78.2747C84.0818 78.7326 84.496 78.7425 84.8561 78.7484C86.3293 78.7651 87.8062 78.7674 89.2795 78.7769C89.2787 78.8922 89.278 79.0075 89.2736 79.1263L89.2737 79.1155Z" fill="#F9B001"/>
<path d="M31.336 90.262C31.2071 90.1495 31.0817 90.037 30.9528 89.9245C30.9716 89.8058 31.0083 89.6871 31.0019 89.5682C30.7758 86.649 30.7476 86.5551 33.6457 85.6913C38.1751 84.3444 42.5948 82.7051 47.0038 81.0332C49.5532 80.0663 52.0814 79.0307 54.5989 77.9843C55.6066 77.5657 56.1948 77.4038 56.1851 78.9059C56.1691 81.3985 56.0046 81.7685 53.5895 82.585C47.3188 84.7095 41.0409 86.8196 34.7773 88.9694C33.9758 89.2452 33.0425 89.3004 32.5964 90.3241C32.3405 90.9133 31.764 90.3656 31.3361 90.2584L31.336 90.262Z" fill="#F9B001"/>
<path d="M174.129 38.6403C174.028 52.0723 173.927 65.5006 173.826 78.9326C173.784 84.8687 173.76 90.8086 173.697 96.7446C173.693 97.4182 173.984 98.634 173.468 98.6811C171.767 98.8431 170.378 100.923 168.363 99.3723C166.825 98.1881 165.509 96.8071 164.221 95.4012C162.107 93.093 159.739 91.0965 157.28 89.1787C156.979 88.9426 155.575 88.7571 157.025 88.0171C157.27 87.889 157.013 87.61 156.805 87.4754C156.267 87.1333 155.728 86.9101 155.24 87.649C154.816 85.3553 155.621 83.3072 155.487 81.2027C155.415 80.0639 156.151 80.4541 156.654 80.7527C158.523 81.8598 159.997 83.4543 161.583 84.9054C163.17 86.3565 164.506 88.0761 166.441 89.1405C169.079 90.5911 171.108 89.8658 172.045 87.0333C172.534 85.5523 172.81 84.0339 172.82 82.4562C172.903 68.4838 173 54.5079 173.137 40.5359C173.142 39.8335 172.519 38.5723 174.15 38.6585L174.133 38.6403L174.129 38.6403Z" fill="#F9B001"/>
<path d="M74.8184 86.9255C73.6008 88.0451 72.1201 88.0824 70.6007 87.961C70.593 87.489 70.7229 86.8955 70.2128 86.6725C68.6359 85.9815 68.7379 84.689 68.8772 83.1949C70.1207 83.6352 71.377 84.3241 72.547 83.3267C73.7604 82.2898 73.7914 80.8347 73.8009 79.3651C73.8393 71.1559 73.9066 62.947 73.9703 54.7416C73.9726 54.3813 73.9822 54.0212 73.9809 53.6646C73.9802 53.2143 74.0692 52.8114 74.5886 52.7139C75.1981 52.599 75.274 53.1218 75.3436 53.4896C75.5245 54.485 75.7632 55.4591 75.7529 56.4965C75.6698 65.4835 75.6155 74.4706 75.6008 83.458C75.6 84.7008 75.1427 85.7857 74.822 86.9291L74.8184 86.9255Z" fill="#F9B001"/>
</g>
<defs>
<clipPath id="clip0_422_294">
<rect width="75.6951" height="187.174" fill="white" transform="translate(0.928711 106.669) rotate(-89.6308)"/>
</clipPath>
</defs>
</svg>
