<svg width="62" height="62" viewBox="0 0 62 62" fill="none" xmlns="http://www.w3.org/2000/svg">
<g clip-path="url(#clip0_427_864)">
<path d="M25.0046 16.8093C23.4775 14.8511 23.2713 12.8948 24.4755 11.1626C25.5609 9.6019 27.5217 8.91994 29.3231 9.47915C31.3403 10.1046 32.3888 11.7374 32.4199 14.3756C32.6475 14.2626 32.8537 14.171 33.0482 14.0619C36.5089 12.1213 39.9714 10.1806 43.4301 8.23798C44.4806 7.6476 45.5602 7.88726 46.2177 8.86344C46.9666 9.97601 46.8227 11.2308 45.8053 11.9459C45.2412 12.3414 44.8774 12.7253 44.821 13.5047C44.7257 14.7887 43.4204 15.8311 41.8778 16.1195C41.5393 16.1819 41.1911 16.3007 40.8954 16.4741C39.5221 17.2808 38.1565 18.1011 36.8143 18.9545C36.5711 19.1084 36.3474 19.4241 36.2832 19.7047C35.9953 20.9536 35.7677 22.2162 35.5071 23.5373C35.7094 23.5373 35.8455 23.5451 35.9798 23.5373C38.0242 23.4106 39.3995 24.8467 39.1389 26.8692C39.0358 27.6661 38.8665 28.4552 38.7265 29.2463C38.7809 29.2891 38.8335 29.334 38.8879 29.3768C39.0221 29.1839 39.135 28.9715 39.2925 28.8001C41.2417 26.6802 43.185 24.5544 45.1672 22.4656C45.4882 22.1266 45.9648 21.8499 46.418 21.7369C50.3591 20.7646 54.3119 19.8372 58.2628 18.8961C58.4009 18.8629 58.5526 18.7908 58.679 18.8181C59.0662 18.9019 59.605 18.9136 59.782 19.1669C59.9629 19.426 59.9162 20.0047 59.747 20.3243C59.179 21.394 58.5098 22.4091 57.8815 23.4457C54.3119 29.3203 50.7482 35.1969 47.165 41.0637C46.8907 41.5138 46.8441 41.8645 47.06 42.3692C49.6102 48.2847 52.1313 54.2119 54.6601 60.1372C54.7438 60.334 54.8352 60.5308 54.8955 60.7334C55.0823 61.3472 54.7399 61.8908 54.0999 61.9804C53.8665 62.0135 53.6252 61.994 53.3879 61.994C36.861 61.994 20.332 61.994 3.80508 61.994C3.63779 61.994 3.47244 61.994 3.30515 61.994C2.80327 61.9843 2.42005 61.7972 2.29945 61.2712C2.18078 60.7548 2.41616 60.4002 2.86552 60.1644C2.99196 60.0982 3.11451 60.03 3.24484 59.9618C1.85982 58.5979 1.69641 57.7932 2.43172 56.0201C3.11451 54.3736 3.8401 52.7428 4.45091 51.069C4.75437 50.239 4.93528 49.3368 5.00725 48.4522C5.18816 46.27 5.1337 44.0604 5.43716 41.8996C5.79703 39.3179 6.42924 36.7771 6.95446 34.1681C4.96057 32.6152 4.3731 30.581 5.43521 28.6676C6.30864 27.0952 8.08272 26.4054 9.69923 27.0133C11.6756 27.7557 12.4479 29.6613 11.8565 32.4495C12.3506 32.5002 12.8389 32.5509 13.3641 32.6035C13.6267 31.8572 13.8368 31.2084 13.3855 30.4348C12.872 29.5541 13.014 28.6306 13.7357 27.8687C16.3695 25.0883 18.9762 22.2805 21.6684 19.5585C22.6761 18.5395 23.886 17.7231 25.0065 16.8112L25.0046 16.8093ZM57.0995 21.1095C53.5844 21.9493 50.2405 22.7443 46.9024 23.5587C46.6943 23.6094 46.49 23.7828 46.3363 23.9484C42.1482 28.4688 37.9639 32.9951 33.7933 37.5311C33.5637 37.7805 33.3867 38.1196 33.2972 38.4469C32.665 40.7383 32.062 43.0375 31.4473 45.3328C31.2002 46.2544 30.996 46.4161 30.0623 46.4181C27.3797 46.42 24.6972 46.4297 22.0147 46.4083C21.5712 46.4044 21.3416 46.5389 21.1529 46.9461C19.9858 49.4713 18.7817 51.977 17.6126 54.5022C17.2449 55.2952 16.6788 55.7979 15.8307 55.9967C15.6265 56.0454 15.4241 56.1253 15.2335 56.2169C12.8194 57.3898 10.4073 58.5667 7.99713 59.7455C7.84734 59.8196 7.71506 59.9306 7.49719 60.0768H52.5612C52.4523 59.7981 52.3706 59.5799 52.2791 59.3656C49.8709 53.7267 47.4704 48.084 45.0447 42.4529C44.7704 41.8158 44.8132 41.3072 45.175 40.7169C48.0093 36.0951 50.8163 31.4558 53.633 26.8224C54.7554 24.9753 55.8759 23.1281 57.0995 21.1115V21.1095ZM18.3245 48.2243C18.3673 48.2418 18.4101 48.2594 18.4549 48.2788C18.8614 47.4293 19.2972 46.5934 19.6648 45.7264C19.9722 45.0015 20.3262 44.4014 21.2346 44.5261C21.2736 44.0195 21.2638 43.5636 21.3494 43.1271C21.7813 40.9098 22.2365 38.6963 22.6858 36.4829C22.9776 35.0449 23.3764 33.6264 22.8589 32.1378C22.6527 31.5416 22.6313 30.8771 22.5633 30.238C22.4699 29.3612 22.4135 28.4825 22.3337 27.5121C21.114 28.5468 19.98 29.4859 18.875 30.4582C18.6708 30.6394 18.4899 30.9336 18.4471 31.2006C18.1456 33.0555 17.8577 34.9143 17.6184 36.7771C17.527 37.4922 17.1846 37.8253 16.496 37.9228C15.7276 38.0299 14.9651 38.1897 14.1928 38.3261C14.0586 39.5186 13.9088 40.6506 13.8232 41.7885C13.8076 41.9853 14.0119 42.2932 14.1986 42.3945C15.0545 42.8563 15.9533 43.2362 16.8111 43.6941C17.9258 44.2884 18.4237 45.2685 18.4062 46.5155C18.3985 47.0864 18.3518 47.6553 18.3226 48.2243H18.3245ZM28.1442 18.0543C28.296 18.7421 28.4788 19.3832 28.5741 20.0359C28.9943 22.8807 28.613 25.6786 28.045 28.4649C27.7493 29.9088 27.5957 31.448 26.4694 32.5197C25.1991 33.7277 24.7011 35.2125 24.5046 36.8706C24.4774 37.1064 24.4152 37.3363 24.3685 37.5701C23.9736 39.5264 23.5748 41.4826 23.1857 43.4408C23.1002 43.8714 23.0379 44.3274 23.5767 44.5222C24.2945 44.7813 24.8062 44.5086 25.0299 43.7643C26.0647 40.3057 27.0841 36.8414 28.1462 33.3907C28.2668 33.001 28.5547 32.547 28.897 32.3599C30.4785 31.4929 32.097 30.6959 33.7174 29.9029C34.62 29.4606 35.3047 29.9575 35.1861 30.9551C35.0849 31.8124 34.9351 32.6639 34.8068 33.5173C34.8573 33.5485 34.9079 33.5797 34.9585 33.6108C35.4351 32.9522 36.1334 32.356 36.3396 31.6214C36.7812 30.049 36.9718 28.4065 37.2578 26.7912C37.3375 26.3353 37.3706 25.891 36.894 25.5871C36.4486 25.3045 36.0615 25.4039 35.6316 25.6436C34.3477 26.3645 33.0541 27.0679 31.7527 27.7557C30.7937 28.2623 30.1031 27.8025 30.1712 26.7074C30.2218 25.8774 30.2704 25.0434 30.3754 24.2173C30.6614 21.9844 30.3249 19.7865 30.1323 17.536C29.753 17.6607 29.467 17.7737 29.1733 17.8497C28.8543 17.9316 28.5255 17.9783 28.1462 18.0504L28.1442 18.0543ZM16.426 31.9741C15.642 31.8767 15.3113 32.2177 15.2744 32.9094C15.2646 33.0731 15.1985 33.2328 15.1615 33.3945C14.9281 34.4467 14.648 34.6416 13.5684 34.5305C12.551 34.4272 11.5356 34.3084 10.5162 34.246C9.51054 34.1837 8.84137 34.6961 8.58265 35.6723C8.44843 36.177 8.32977 36.6874 8.23639 37.2018C7.87652 39.2126 7.42327 41.2137 7.20929 43.2401C7.04589 44.8028 7.60418 45.2879 9.16039 45.5705C10.1855 45.7556 11.2224 45.9309 12.2106 46.2505C13.5723 46.6908 14.2434 47.7118 14.3251 49.1576C14.4068 50.6053 14.5371 52.053 14.6888 53.4949C14.7122 53.7248 14.9592 53.9313 15.1012 54.1476C15.3833 53.9547 15.6868 53.7871 15.9357 53.5592C16.033 53.4695 16.0194 53.2455 16.033 53.0818C16.1925 51.0184 16.319 48.9491 16.5154 46.8896C16.601 45.9952 16.2801 45.4341 15.4806 45.0795C14.504 44.6469 13.5431 44.1773 12.5666 43.7448C12.0802 43.5304 11.7768 43.2187 11.8371 42.6575C12.0238 40.9312 12.2145 39.2049 12.4031 37.4766C12.4635 36.9232 12.7805 36.6368 13.3233 36.555C14.0041 36.4536 14.6908 36.3621 15.3561 36.1964C15.5603 36.1458 15.821 35.8827 15.8579 35.682C16.0758 34.4662 16.2353 33.2406 16.4221 31.9741H16.426ZM17.4433 26.8847C17.7643 27.3797 18.0678 27.8512 18.4082 28.3773C18.7019 28.1337 18.9412 27.9467 19.1688 27.746C20.2931 26.7542 21.3903 25.7332 22.5496 24.7863C22.8492 24.5407 23.3686 24.379 23.7363 24.4492C24.2848 24.5544 24.3121 25.1039 24.3023 25.6104C24.2829 26.6802 24.2576 27.7538 24.3121 28.8215C24.3607 29.7568 24.5144 30.6862 24.6233 31.6176C24.6992 31.6351 24.777 31.6526 24.8528 31.6702C25.1602 31.1246 25.5998 30.6121 25.7496 30.0257C26.4694 27.2082 27.0238 24.3556 26.837 21.4271C26.7748 20.4587 26.518 19.504 26.3449 18.5064C24.3879 19.2663 22.715 20.8562 17.4394 26.8828L17.4433 26.8847ZM26.7767 44.5495C27.6307 44.5495 28.3426 44.5144 29.0488 44.5612C29.5759 44.5962 29.7646 44.4053 29.9047 43.8948C30.7664 40.7383 31.6768 37.5974 32.5639 34.4487C32.7487 33.7959 32.9004 33.1335 33.1163 32.2839C32.1126 32.7905 31.2742 33.1666 30.4883 33.6323C30.1829 33.8135 29.8814 34.1603 29.7783 34.4954C29.0702 36.7595 28.4185 39.0412 27.7435 41.315C27.4362 42.3555 27.121 43.394 26.7748 44.5495H26.7767ZM32.167 25.2987C33.2292 24.9928 33.3342 24.8895 33.5287 23.9055C33.8653 22.2045 34.2193 20.5055 34.5189 18.7986C34.62 18.2199 34.9079 17.8712 35.3884 17.5867C36.8201 16.743 38.2421 15.8818 39.6544 15.0069C39.8528 14.8842 40.1096 14.664 40.1271 14.4711C40.1854 13.7989 40.1504 13.1189 40.1504 12.3025C39.7555 12.5032 39.5474 12.6006 39.3451 12.7116C37.1469 13.9353 34.9682 15.1959 32.7428 16.3689C32.1009 16.7079 31.9745 17.082 32.0192 17.7582C32.1515 19.7923 32.2098 21.8324 32.2721 23.8705C32.2857 24.3401 32.2059 24.8116 32.169 25.2987H32.167ZM11.2613 47.9223C10.8547 51.5016 8.86277 54.4866 7.53999 57.8886C9.54945 56.9027 11.3916 55.9967 13.1385 55.1394C12.9848 54.3522 12.8039 53.6858 12.7338 53.0097C12.6055 51.7568 12.5335 50.4962 12.4537 49.2394C12.409 48.5321 12.0783 48.0918 11.2593 47.9242L11.2613 47.9223ZM6.99142 46.9032C6.95446 47.4878 6.89222 48.0061 6.89611 48.5224C6.90778 49.6798 6.68407 50.7651 6.20165 51.8309C5.4605 53.4715 4.81078 55.1549 4.12216 56.8209C4.05018 56.9962 3.95876 57.1677 3.91207 57.3489C3.7545 57.9783 4.10271 58.3816 4.69407 58.1575C5.06561 58.0172 5.47412 57.6899 5.64336 57.3372C6.61404 55.3303 7.57889 53.3176 8.42508 51.2561C8.90556 50.087 9.15845 48.8244 9.52805 47.5521C9.02228 47.4449 8.63128 47.3786 8.24612 47.2793C7.85707 47.1799 7.47579 47.0494 6.98753 46.8993L6.99142 46.9032ZM25.5745 13.6586C25.5765 15.0362 26.697 16.1448 28.0723 16.1331C29.4087 16.1215 30.5136 15.0225 30.535 13.68C30.5564 12.3317 29.4125 11.1665 28.0567 11.1587C26.695 11.1509 25.5706 12.281 25.5726 13.6566L25.5745 13.6586ZM10.2828 30.694C10.2711 29.5853 9.45413 28.6734 8.48344 28.6871C7.53999 28.6988 6.8144 29.5502 6.82413 30.6336C6.83386 31.7578 7.64114 32.6717 8.60988 32.6522C9.53388 32.6327 10.2945 31.7423 10.2848 30.694H10.2828ZM42.0315 14.0873C42.7415 13.8145 43.0177 13.4228 43.0236 12.7136C43.0274 12.2635 43.2667 11.7725 43.5254 11.3828C43.7375 11.0632 44.1187 10.8489 44.4494 10.6209C44.8035 10.3774 44.8307 10.1397 44.5097 9.7909C43.7141 10.2449 42.9282 10.6736 42.1676 11.1431C42.0276 11.2289 41.9167 11.4822 41.9186 11.6556C41.9284 12.4369 41.9848 13.2163 42.0295 14.0873H42.0315ZM15.9805 28.0811C15.6673 28.4688 15.4689 28.767 15.2179 29.0086C14.8678 29.3456 14.9923 29.6925 15.2432 29.9341C15.3755 30.0607 15.7354 30.0393 15.9513 29.9672C16.2489 29.8659 16.5096 29.6535 16.8422 29.4548C16.5699 29.0203 16.3365 28.65 15.9805 28.0811Z" fill="#FC4727"/>
<path d="M52.6099 11.4882C51.5419 12.2695 50.4856 13.0333 49.441 13.8108C49.0111 14.1303 48.5676 14.333 48.0774 13.9842C47.5755 13.6276 47.6572 13.1444 47.8284 12.6359C48.1785 11.6012 48.4723 10.5471 48.8574 9.52611C49.05 9.01561 48.91 8.76231 48.4976 8.48174C47.595 7.86797 46.7293 7.1977 45.8364 6.56835C45.3871 6.2527 45.0914 5.87859 45.2859 5.31159C45.4707 4.76992 45.9279 4.68419 46.4414 4.68808C47.7467 4.69977 49.052 4.69198 50.4078 4.69198C50.8046 3.46055 51.2015 2.24666 51.5886 1.02693C51.7539 0.506689 51.9485 0.00398601 52.5982 -0.00185937C53.244 -0.00965321 53.4638 0.469668 53.6292 0.999649C53.956 2.04208 54.3236 3.07086 54.6251 4.12108C54.7516 4.56338 54.9442 4.7251 55.411 4.70952C56.5257 4.6725 57.6442 4.70562 58.7588 4.69003C59.2977 4.68224 59.7782 4.76602 59.9552 5.35251C60.1302 5.9273 59.8015 6.28192 59.356 6.59368C58.4418 7.23472 57.5547 7.91279 56.6385 8.54993C56.2942 8.78959 56.193 9.00977 56.3448 9.43453C56.7377 10.5296 57.0567 11.6499 57.4322 12.7508C57.5956 13.2282 57.5897 13.6529 57.1715 13.9705C56.7241 14.3076 56.2922 14.181 55.8682 13.8673C54.8022 13.0762 53.7245 12.2988 52.6118 11.4882H52.6099ZM52.6157 4.01392C52.3861 4.71731 52.2072 5.22976 52.0496 5.74999C51.8745 6.33064 51.5049 6.60342 50.8922 6.57809C50.3592 6.55666 49.8262 6.57419 49.2932 6.57419C49.6628 7.0087 50.0693 7.32045 50.4915 7.60688C51.0361 7.97903 51.2151 8.44277 50.9739 9.07796C50.7969 9.54754 50.6724 10.0366 50.5245 10.5179C51.0906 10.2763 51.5302 9.96062 51.964 9.63912C52.4037 9.31178 52.8336 9.32152 53.2712 9.64497C53.7187 9.9762 54.168 10.3016 54.6174 10.6289C54.5843 10.097 54.4715 9.63912 54.2906 9.21046C53.9735 8.4642 54.1875 7.94006 54.8547 7.52309C55.2515 7.27564 55.6056 6.96194 56.1172 6.57419C55.3877 6.57419 54.8644 6.55276 54.345 6.58004C53.6895 6.61316 53.3296 6.29556 53.1526 5.69544C53.0047 5.19663 52.8374 4.70562 52.6176 4.01586L52.6157 4.01392Z" fill="#FC4727"/>
</g>
<defs>
<clipPath id="clip0_427_864">
<rect width="58" height="62" fill="white" transform="translate(2)"/>
</clipPath>
</defs>
</svg>
