<svg width="55" height="55" viewBox="0 0 55 55" fill="none" xmlns="http://www.w3.org/2000/svg">
<g clip-path="url(#clip0_604_52)">
<g clip-path="url(#clip1_604_52)">
<path d="M43.3291 31.4385C43.5321 31.4375 43.5321 31.4375 43.7392 31.4364C44.0244 31.4353 44.3096 31.4347 44.5948 31.4348C44.8839 31.4348 45.1729 31.4333 45.462 31.4304C48.5569 31.4012 48.5569 31.4012 49.8437 31.9043C49.9728 31.9522 49.9728 31.9522 50.1045 32.0011C50.3175 32.087 50.5193 32.1815 50.7232 32.287C50.7939 32.3231 50.8647 32.3592 50.9376 32.3963C51.6866 32.799 52.2646 33.3374 52.8515 33.9453C52.9307 34.0212 53.0099 34.0971 53.0915 34.1753C53.5535 34.6444 53.8687 35.1565 54.1674 35.7379C54.2015 35.8035 54.2356 35.8691 54.2707 35.9367C54.8966 37.2247 55.0659 38.4829 55.057 39.8963C55.0573 40.0607 55.0577 40.2251 55.0582 40.3895C55.0589 40.7309 55.058 41.0723 55.0559 41.4137C55.0535 41.8493 55.0549 42.2848 55.0575 42.7204C55.059 43.0586 55.0585 43.3968 55.0574 43.735C55.0571 43.8956 55.0575 44.0562 55.0585 44.2168C55.0634 45.2085 55.0352 45.9617 54.3705 46.7508C54.3035 46.8077 54.2365 46.8646 54.1674 46.9232C54.0685 47.0107 54.0685 47.0107 53.9677 47.0999C53.1226 47.6453 52.3062 47.6348 51.3296 47.6313C51.1765 47.6319 51.0234 47.6327 50.8703 47.6335C50.4566 47.6355 50.0429 47.6353 49.6292 47.6347C49.283 47.6344 48.9368 47.635 48.5905 47.6357C47.7734 47.6372 46.9562 47.637 46.139 47.6358C45.2978 47.6346 44.4566 47.6361 43.6154 47.639C42.8913 47.6414 42.1673 47.6421 41.4433 47.6414C41.0117 47.6411 40.58 47.6413 40.1484 47.6432C39.7423 47.6448 39.3363 47.6444 38.9303 47.6424C38.7819 47.642 38.6335 47.6423 38.4851 47.6435C37.3846 47.6512 36.4805 47.5217 35.664 46.7285C35.1861 46.1004 34.9937 45.5392 34.9882 44.7526C34.9862 44.5513 34.9862 44.5513 34.9841 44.3459C34.9838 44.2005 34.9835 44.055 34.9834 43.9095C34.9827 43.758 34.982 43.6065 34.9812 43.455C34.9799 43.1373 34.9795 42.8197 34.9796 42.502C34.9797 42.1 34.9767 41.698 34.973 41.296C34.9706 40.9826 34.9702 40.6692 34.9703 40.3559C34.9701 40.208 34.9691 40.0601 34.9675 39.9122C34.9529 38.5036 35.1774 37.0932 35.852 35.8386C35.9071 35.7325 35.9071 35.7325 35.9634 35.6242C36.2956 35.0048 36.694 34.4647 37.1679 33.9453C37.2234 33.88 37.2789 33.8146 37.3362 33.7473C38.8761 32.0491 41.1174 31.4427 43.3291 31.4385ZM38.4653 35.2461C37.2156 36.7214 36.7945 38.2829 36.799 40.1888C36.7985 40.3288 36.7979 40.4687 36.7973 40.6129C36.7964 40.9064 36.7966 41.1999 36.7977 41.4934C36.799 41.8685 36.7968 42.2436 36.7936 42.6188C36.7912 42.9792 36.7919 43.3397 36.7923 43.7001C36.7911 43.8343 36.7899 43.9685 36.7887 44.1067C36.7897 44.2316 36.7907 44.3564 36.7917 44.485C36.7917 44.5944 36.7918 44.7039 36.7918 44.8166C36.8599 45.1968 37.0114 45.3776 37.2753 45.6543C37.5836 45.8085 37.8485 45.7737 38.1926 45.7722C38.3325 45.7719 38.4723 45.7715 38.6164 45.7712C38.7647 45.7703 38.9129 45.7694 39.0612 45.7684C39.2103 45.7679 39.3594 45.7674 39.5085 45.767C39.8741 45.7657 40.2398 45.7639 40.6054 45.7617C40.6065 45.6994 40.6076 45.6371 40.6087 45.5729C40.6204 44.9247 40.6327 44.2765 40.6454 43.6282C40.65 43.3863 40.6545 43.1443 40.6588 42.9024C40.665 42.5547 40.6719 42.207 40.6788 41.8593C40.6806 41.7511 40.6824 41.6428 40.6843 41.5314C40.6864 41.4303 40.6885 41.3293 40.6908 41.2251C40.6924 41.1364 40.6941 41.0477 40.6958 40.9562C40.7123 40.7198 40.7551 40.5106 40.8202 40.2832C40.9722 40.2592 41.1244 40.2372 41.2768 40.2161C41.3615 40.2036 41.4463 40.1911 41.5336 40.1783C41.8258 40.1754 41.9734 40.2324 42.2167 40.3906C42.3454 40.6481 42.3409 40.8157 42.3462 41.1032C42.3484 41.2079 42.3505 41.3125 42.3528 41.4203C42.3545 41.5306 42.3563 41.6408 42.3581 41.7544C42.3601 41.8555 42.3621 41.9567 42.3642 42.0609C42.3716 42.4396 42.378 42.8183 42.3846 43.197C42.4001 44.0434 42.4156 44.8897 42.4316 45.7617C44.1331 45.7617 45.8347 45.7617 47.5878 45.7617C47.6104 44.1597 47.6104 44.1597 47.6295 42.5577C47.633 42.3563 47.6365 42.155 47.6403 41.9537C47.6413 41.7978 47.6413 41.7978 47.6423 41.6387C47.6622 40.7077 47.6622 40.7077 48.0175 40.2832C48.3227 40.1306 48.539 40.142 48.8769 40.1758C49.1086 40.3196 49.1086 40.3196 49.3066 40.6055C49.3739 40.9946 49.3716 41.3812 49.372 41.7754C49.3738 41.8892 49.3756 42.003 49.3774 42.1203C49.3826 42.4837 49.3849 42.847 49.3871 43.2105C49.3902 43.4569 49.3934 43.7034 49.3968 43.9498C49.4047 44.5538 49.4103 45.1577 49.414 45.7617C49.8498 45.767 50.2855 45.7709 50.7214 45.7735C50.8695 45.7746 51.0177 45.7761 51.1658 45.7779C51.3791 45.7805 51.5925 45.7816 51.8058 45.7827C51.9982 45.7844 51.9982 45.7844 52.1945 45.7861C52.5197 45.7624 52.6932 45.7301 52.9589 45.5469C53.2071 45.1745 53.2018 45.0284 53.205 44.5889C53.2063 44.458 53.2077 44.327 53.2091 44.1921C53.2094 44.0487 53.2097 43.9053 53.2098 43.7618C53.2105 43.6139 53.2113 43.466 53.212 43.3181C53.2133 43.0072 53.2137 42.6964 53.2136 42.3856C53.2135 41.9911 53.2165 41.5967 53.2202 41.2022C53.2226 40.896 53.223 40.5898 53.2229 40.2836C53.2233 40.0687 53.2256 39.8537 53.2279 39.6388C53.2189 37.8091 52.5734 36.29 51.3165 34.9671C49.9917 33.7396 48.4615 33.2682 46.694 33.2647C46.5677 33.264 46.4413 33.2633 46.3111 33.2625C46.0444 33.2614 45.7777 33.2609 45.511 33.261C45.1072 33.2605 44.7035 33.2566 44.2997 33.2525C42.0573 33.2418 40.0627 33.4929 38.4653 35.2461Z" fill="#FC4727"/>
<path d="M24.7727 33.2528C25.115 33.2537 25.4571 33.2506 25.7993 33.2472C28.2642 33.2387 30.2019 33.7536 32.0484 35.4676C32.5504 35.979 32.9099 36.5206 33.2339 37.1544C33.2684 37.2214 33.303 37.2883 33.3386 37.3573C33.875 38.4705 33.995 39.5999 33.9921 40.8219C33.9927 40.9611 33.9932 41.1003 33.9938 41.2437C33.9948 41.5358 33.9945 41.8279 33.9934 42.1201C33.9922 42.4923 33.9944 42.8645 33.9975 43.2367C34 43.5955 33.9992 43.9543 33.9988 44.3131C34 44.4456 34.0012 44.5781 34.0025 44.7146C33.9954 45.589 33.8939 46.1817 33.3085 46.8618C33.2396 46.9197 33.1706 46.9776 33.0996 47.0372C33.0312 47.0968 32.9628 47.1563 32.8923 47.2177C32.2075 47.6685 31.4819 47.6196 30.6919 47.619C30.4929 47.6201 30.4929 47.6201 30.2899 47.6212C29.9272 47.6229 29.5646 47.6236 29.2019 47.6237C28.9749 47.6239 28.7479 47.6243 28.5209 47.6249C27.7279 47.6269 26.9348 47.6278 26.1418 47.6276C25.4044 47.6275 24.6671 47.6297 23.9297 47.6331C23.2951 47.6359 22.6605 47.6371 22.0259 47.6369C21.6475 47.6369 21.2692 47.6375 20.8909 47.6398C20.4685 47.6423 20.0461 47.6413 19.6237 47.64C19.4996 47.6412 19.3755 47.6424 19.2477 47.6436C18.3969 47.637 17.7077 47.5045 17.0438 46.947C16.9871 46.8771 16.9305 46.8072 16.8722 46.7351C16.8136 46.6655 16.755 46.5958 16.6947 46.5241C16.3899 46.0707 16.3012 45.677 16.2971 45.1345C16.2958 45.0107 16.2944 44.887 16.293 44.7594C16.2927 44.6262 16.2925 44.4931 16.2923 44.3559C16.2915 44.2174 16.2908 44.0789 16.2901 43.9363C16.2888 43.6428 16.2884 43.3493 16.2885 43.0559C16.2885 42.7579 16.2871 42.46 16.2841 42.1621C16.2585 39.5294 16.4085 37.3673 18.3186 35.3753C20.2266 33.5909 22.2581 33.2425 24.7727 33.2528ZM19.6584 36.6308C18.826 37.6224 18.1494 38.7835 18.1355 40.1056C18.1341 40.2203 18.1327 40.335 18.1313 40.4532C18.1305 40.5765 18.1297 40.6999 18.1289 40.8269C18.128 40.954 18.1272 41.0812 18.1263 41.2122C18.1248 41.4809 18.1236 41.7496 18.1228 42.0183C18.1209 42.43 18.1162 42.8415 18.1115 43.2531C18.1104 43.5141 18.1095 43.7751 18.1088 44.0361C18.1069 44.1595 18.105 44.2828 18.1031 44.4098C18.1034 44.5246 18.1037 44.6393 18.104 44.7575C18.1034 44.8583 18.1028 44.9591 18.1021 45.0629C18.1705 45.4142 18.3073 45.5421 18.5842 45.7616C18.8741 45.8204 18.8741 45.8204 19.1901 45.8036C19.3051 45.8022 19.42 45.8008 19.5384 45.7994C19.6578 45.7958 19.7771 45.7922 19.9001 45.7885C20.0211 45.7865 20.1422 45.7846 20.2669 45.7826C20.5654 45.7775 20.8638 45.7705 21.1623 45.7616C21.165 45.6337 21.1677 45.5058 21.1705 45.374C21.1806 44.8991 21.1914 44.4243 21.2023 43.9494C21.207 43.7439 21.2114 43.5385 21.2157 43.333C21.222 43.0375 21.2288 42.7421 21.2358 42.4466C21.2375 42.3549 21.2393 42.2631 21.2412 42.1685C21.2433 42.0826 21.2455 41.9966 21.2477 41.908C21.2494 41.8326 21.251 41.7572 21.2527 41.6795C21.271 41.4485 21.2958 41.2527 21.3772 41.035C21.7631 40.9064 22.0461 40.8921 22.4514 40.9276C22.6861 41.0817 22.6861 41.0817 22.8811 41.3573C22.9468 41.6919 22.9461 42.0225 22.9465 42.3627C22.9483 42.4599 22.9501 42.557 22.9519 42.6571C22.9571 42.9669 22.9594 43.2765 22.9616 43.5863C22.9647 43.7966 22.9679 44.0068 22.9713 44.217C22.9796 44.7319 22.9839 45.2466 22.9885 45.7616C24.4065 45.7616 25.8244 45.7616 27.2854 45.7616C27.2881 45.4487 27.2909 45.1357 27.2938 44.8133C27.2979 44.51 27.3027 44.2068 27.3077 43.9035C27.3107 43.6928 27.313 43.4821 27.3145 43.2714C27.3168 42.9685 27.3218 42.6656 27.3273 42.3627C27.3275 42.2686 27.3276 42.1745 27.3277 42.0775C27.3434 41.4271 27.3434 41.4271 27.5878 41.0822C27.927 40.8588 28.1775 40.8843 28.5744 40.9276C28.8967 41.1425 28.8967 41.1425 29.0041 41.4647C29.0162 41.6081 29.023 41.7519 29.0262 41.8958C29.0294 42.0248 29.0294 42.0248 29.0327 42.1564C29.0345 42.2487 29.0363 42.341 29.0381 42.4361C29.0403 42.5311 29.0426 42.626 29.0449 42.7238C29.0519 43.0269 29.0582 43.3301 29.0645 43.6333C29.0692 43.8389 29.0739 44.0444 29.0786 44.2499C29.0901 44.7538 29.101 45.2577 29.1115 45.7616C29.5322 45.7741 29.9529 45.7817 30.3737 45.7885C30.4931 45.7921 30.6125 45.7957 30.7355 45.7994C30.8504 45.8008 30.9653 45.8021 31.0837 45.8036C31.1895 45.8058 31.2953 45.8081 31.4042 45.8104C31.7764 45.7468 31.8835 45.6223 32.1194 45.3319C32.1838 45.0649 32.1838 45.0649 32.175 44.7711C32.177 44.6032 32.177 44.6032 32.1791 44.4319C32.1782 44.3113 32.1773 44.1906 32.1764 44.0664C32.1768 43.9413 32.1772 43.8162 32.1777 43.6873C32.178 43.4222 32.1772 43.1571 32.1754 42.892C32.1731 42.4897 32.1753 42.0877 32.1781 41.6855C32.1778 41.4273 32.1773 41.169 32.1764 40.9108C32.1773 40.792 32.1782 40.6731 32.1791 40.5506C32.1613 39.0479 31.5918 37.7633 30.6154 36.6308C29.3653 35.5451 28.0763 35.1128 26.4487 35.105C26.3477 35.1044 26.2468 35.1038 26.1428 35.1032C25.9295 35.1022 25.7163 35.1015 25.503 35.101C25.1805 35.1 24.8581 35.0967 24.5356 35.0933C22.7111 35.083 21.0185 35.2706 19.6584 36.6308Z" fill="#FC4727"/>
<path d="M35.4289 7.36105C35.9822 7.4812 36.4612 7.82701 36.9397 8.11707C37.1214 8.22471 37.1214 8.22471 37.3067 8.33454C37.5614 8.48554 37.8156 8.63756 38.0693 8.7904C38.3906 8.98393 38.7132 9.17535 39.0364 9.36591C39.3427 9.54658 39.6484 9.72812 39.9542 9.90967C40.0687 9.97746 40.1831 10.0453 40.301 10.1151C40.4598 10.2103 40.4598 10.2103 40.6218 10.3075C40.7149 10.363 40.8079 10.4186 40.9038 10.4758C41.1249 10.623 41.2979 10.7509 41.4648 10.957C41.6138 11.8149 41.1963 12.3845 40.7599 13.0988C40.6502 13.283 40.5405 13.4672 40.4308 13.6514C40.3165 13.8424 40.2014 14.0329 40.0861 14.2233C39.8547 14.6061 39.6285 14.9919 39.4028 15.3781C39.2601 15.6211 39.117 15.8638 38.974 16.1066C38.9071 16.221 38.8402 16.3355 38.7713 16.4534C38.7082 16.5592 38.645 16.6651 38.58 16.7742C38.525 16.8672 38.47 16.9603 38.4133 17.0561C38.2339 17.3065 38.074 17.4561 37.8125 17.6172C37.4163 17.6762 37.2182 17.6423 36.8591 17.4628C36.5902 17.1384 36.5674 16.9234 36.5777 16.5078C36.6876 15.9139 37.0397 15.4234 37.356 14.9182C37.4241 14.8059 37.4922 14.6936 37.5624 14.5779C37.6899 14.3678 37.8183 14.1581 37.9479 13.9493C38.0895 13.7169 38.2267 13.4838 38.3613 13.2474C38.4283 13.1297 38.4954 13.0119 38.5645 12.8906C38.4537 12.9172 38.343 12.9438 38.2289 12.9712C38.1541 12.9891 38.0793 13.0071 38.0022 13.0256C37.9186 13.0456 37.835 13.0657 37.7488 13.0864C34.2046 13.937 30.6604 14.7876 27.1161 15.6382C27.0026 15.6655 26.8891 15.6927 26.7721 15.7208C26.5463 15.775 26.3205 15.8292 26.0947 15.8834C25.5399 16.0165 24.9851 16.1497 24.4302 16.2828C23.4404 16.5204 22.4506 16.758 21.4608 16.9955C20.9068 17.1285 20.3528 17.2614 19.7988 17.3944C19.689 17.4207 19.5792 17.4471 19.466 17.4742C17.9268 17.8436 16.3876 18.2131 14.8484 18.5826C13.9829 18.7904 13.1175 18.9981 12.252 19.2058C11.5494 19.3745 10.8467 19.5432 10.1441 19.7119C9.70846 19.8165 9.27283 19.921 8.83721 20.0256C8.63779 20.0734 8.43837 20.1213 8.23895 20.1692C8.09941 20.2027 8.09942 20.2027 7.95706 20.2369C7.86583 20.2588 7.77459 20.2807 7.68059 20.3033C7.50196 20.3461 7.3233 20.3889 7.14462 20.4315C6.67025 20.5447 6.1964 20.6598 5.72302 20.777C5.57014 20.8145 5.57014 20.8145 5.41418 20.8527C5.21902 20.9005 5.02399 20.9489 4.82913 20.9979C3.64452 21.2863 3.64452 21.2863 3.13538 20.9808C2.87081 20.7012 2.80228 20.5773 2.79297 20.1953C2.90774 19.7571 3.05315 19.5675 3.4375 19.3359C3.76694 19.2253 4.1029 19.1474 4.44112 19.0683C4.54254 19.0437 4.64396 19.0191 4.74846 18.9938C5.08502 18.9124 5.42191 18.8326 5.75882 18.7527C5.9971 18.6954 6.23536 18.638 6.4736 18.5805C6.96997 18.4609 7.46647 18.3419 7.96309 18.2233C8.65332 18.0585 9.34314 17.892 10.0328 17.7249C11.2684 17.4257 12.5043 17.128 13.7404 16.8307C14.107 16.7425 14.4737 16.6542 14.8403 16.566C19.2012 15.5164 23.5638 14.4738 27.9273 13.435C29.1674 13.1398 30.4074 12.844 31.6474 12.5479C32.0356 12.4552 32.4239 12.3627 32.8121 12.2701C33.4928 12.1078 34.1733 11.9451 34.8538 11.7821C35.1158 11.7194 35.3778 11.6568 35.6399 11.5944C36.0021 11.5081 36.3641 11.4213 36.7262 11.3344C36.835 11.3086 36.9439 11.2827 37.0561 11.2561C37.204 11.2205 37.204 11.2205 37.355 11.1841C37.4412 11.1634 37.5275 11.1428 37.6163 11.1216C37.8127 11.0815 37.8127 11.0815 37.9199 10.957C37.8501 10.9181 37.7804 10.8792 37.7085 10.8391C37.3871 10.6595 37.066 10.4793 36.745 10.2991C36.6353 10.2379 36.5255 10.1767 36.4124 10.1136C34.5606 9.07228 34.5606 9.07228 34.375 8.70118C34.3223 8.23569 34.3237 8.02227 34.5966 7.63367C34.904 7.41783 35.0581 7.34841 35.4289 7.36105Z" fill="#FC4727"/>
<path d="M7.36017 35.0932C7.61235 35.0935 7.86441 35.091 8.11658 35.0882C10.2091 35.0795 11.9254 35.5735 13.5351 36.9532C14.7862 38.3757 15.2859 39.8735 15.2899 41.7373C15.291 41.911 15.291 41.911 15.2921 42.0882C15.2932 42.3317 15.2937 42.5752 15.2937 42.8187C15.2941 43.1897 15.298 43.5606 15.3021 43.9317C15.3027 44.1692 15.3032 44.4068 15.3034 44.6444C15.3049 44.7544 15.3064 44.8644 15.308 44.9778C15.303 45.7664 15.166 46.3325 14.6366 46.946C14.5766 46.9939 14.5167 47.0418 14.4549 47.0912C14.3952 47.1407 14.3355 47.1903 14.274 47.2414C13.6692 47.6363 13.1059 47.6198 12.4047 47.6192C12.291 47.6199 12.1772 47.6207 12.06 47.6214C11.6839 47.6234 11.3079 47.6239 10.9318 47.6241C10.6699 47.6248 10.4081 47.6255 10.1463 47.6263C9.59722 47.6275 9.0482 47.6279 8.49916 47.6278C7.79684 47.6278 7.09457 47.6307 6.39226 47.6344C5.8513 47.6368 5.31035 47.6372 4.76938 47.6371C4.51053 47.6374 4.25168 47.6383 3.99284 47.64C3.63007 47.6421 3.2674 47.6415 2.90462 47.6402C2.79845 47.6414 2.69228 47.6426 2.58289 47.6438C1.80188 47.6368 1.09925 47.4918 0.520257 46.9359C0.472622 46.8631 0.424987 46.7902 0.375909 46.7152C0.326059 46.6418 0.276208 46.5684 0.224847 46.4928C0.017473 46.1506 -0.0152359 45.9431 -0.020786 45.5429C-0.0225115 45.4298 -0.024237 45.3168 -0.0260148 45.2003C-0.0308164 44.6776 -0.0352107 44.1549 -0.0376756 43.6321C-0.0394429 43.3581 -0.0423588 43.084 -0.0464875 42.8099C-0.0807466 40.5227 0.0543168 38.6777 1.69183 36.9264C3.32257 35.3901 5.20911 35.0871 7.36017 35.0932ZM3.00775 38.2423C2.14106 39.2965 1.75631 40.3488 1.77659 41.7104C1.77669 41.8203 1.77679 41.9302 1.77689 42.0434C1.77753 42.2731 1.77921 42.5029 1.78189 42.7326C1.78585 43.0855 1.78629 43.4382 1.78624 43.7911C1.7873 44.0151 1.78855 44.2391 1.79002 44.4631C1.79026 44.5687 1.7905 44.6744 1.79074 44.7832C1.79211 44.8804 1.79348 44.9777 1.7949 45.0779C1.79571 45.1635 1.79653 45.2492 1.79738 45.3374C1.80805 45.5722 1.80805 45.5722 2.04095 45.7618C2.25952 45.7916 2.25952 45.7916 2.5084 45.7828C2.59979 45.7821 2.69119 45.7814 2.78535 45.7807C2.88089 45.7789 2.97644 45.7771 3.07488 45.7753C3.17126 45.7743 3.26764 45.7733 3.36694 45.7723C3.60531 45.7698 3.84362 45.7662 4.08196 45.7618C4.08409 45.6567 4.08622 45.5516 4.08842 45.4432C4.0966 45.0524 4.10613 44.6616 4.11606 44.2709C4.12016 44.1019 4.12391 43.9329 4.12728 43.7639C4.1322 43.5207 4.13843 43.2775 4.14491 43.0343C4.14677 42.9213 4.14677 42.9213 4.14867 42.8061C4.16034 42.4181 4.17967 42.1114 4.40423 41.7872C4.73635 41.6212 5.00518 41.6483 5.37103 41.6798C5.60612 41.8442 5.60612 41.8442 5.80071 42.1095C5.84561 42.4035 5.86567 42.6562 5.86617 42.9504C5.86795 43.0309 5.86973 43.1113 5.87156 43.1942C5.87676 43.4503 5.87906 43.7064 5.88128 43.9625C5.88431 44.1365 5.88752 44.3105 5.89093 44.4845C5.89922 44.9103 5.90358 45.3359 5.90814 45.7618C7.00706 45.7618 8.10599 45.7618 9.23821 45.7618C9.26499 44.6901 9.26499 44.6901 9.28956 43.6183C9.2953 43.4175 9.2953 43.4175 9.30116 43.2127C9.30622 43.0076 9.30622 43.0076 9.31138 42.7984C9.3555 42.3261 9.43792 42.0172 9.77532 41.6798C10.5405 41.6191 10.5405 41.6191 10.8056 41.79C11.0399 42.1183 11.0086 42.4668 11.0119 42.856C11.0139 42.939 11.0158 43.022 11.0178 43.1075C11.0236 43.3723 11.0272 43.6372 11.0308 43.9021C11.0344 44.0818 11.0381 44.2614 11.0419 44.4411C11.0511 44.8813 11.0582 45.3215 11.0644 45.7618C11.418 45.768 11.7715 45.7719 12.1252 45.7753C12.2762 45.778 12.2762 45.778 12.4302 45.7807C12.5265 45.7814 12.6227 45.7821 12.7219 45.7828C12.8108 45.7839 12.8996 45.7851 12.9912 45.7862C13.2369 45.7826 13.2369 45.7826 13.4277 45.547C13.4612 45.3378 13.4612 45.3378 13.4572 45.0959C13.4582 45.0026 13.4592 44.9093 13.4603 44.8132C13.4602 44.7119 13.4601 44.6107 13.46 44.5063C13.4607 44.3497 13.4607 44.3497 13.4614 44.1898C13.462 43.9681 13.462 43.7463 13.4616 43.5245C13.4612 43.188 13.4637 42.8517 13.4665 42.5153C13.4667 42.2994 13.4668 42.0836 13.4667 41.8678C13.4677 41.7683 13.4687 41.6687 13.4697 41.5662C13.461 40.318 13.0602 39.2355 12.2255 38.301C11.1891 37.2963 10.0291 36.94 8.60921 36.9314C8.52947 36.9308 8.44973 36.9302 8.36758 36.9296C8.19939 36.9285 8.03119 36.9278 7.863 36.9274C7.60935 36.9264 7.35579 36.9231 7.10215 36.9197C5.58881 36.909 4.14098 37.1389 3.00775 38.2423Z" fill="#FC4727"/>
<path d="M47.4804 18.9063C47.5591 18.9373 47.6377 18.9683 47.7187 19.0003C49.3024 19.7041 50.3102 21.0929 50.9179 22.666C51.4188 24.0411 51.2304 25.781 50.6594 27.0959C49.8548 28.7108 48.6399 29.8242 46.9433 30.4541C45.5251 30.8397 43.8855 30.7745 42.539 30.1856C42.4527 30.1479 42.3665 30.1102 42.2776 30.0714C40.7563 29.3121 39.6725 27.9344 39.1284 26.352C38.6453 24.5938 38.9133 22.9075 39.783 21.33C40.6383 19.9615 41.9327 18.9765 43.5058 18.584C43.5835 18.5645 43.6612 18.545 43.7412 18.5248C45.0108 18.3218 46.2913 18.4142 47.4804 18.9063ZM41.7602 21.7261C40.9311 22.774 40.6144 23.9296 40.7632 25.2496C40.9863 26.4885 41.6955 27.4666 42.7085 28.1974C43.7218 28.8283 44.8091 28.9407 45.9765 28.7891C47.1399 28.5116 48.019 27.7664 48.709 26.8085C49.3309 25.7886 49.4772 24.6746 49.2361 23.5061C48.9061 22.3882 48.2133 21.5131 47.2656 20.8399C45.4235 19.8398 43.1981 20.1711 41.7602 21.7261Z" fill="#FC4727"/>
<path d="M28.4207 23.0059C29.5639 23.8697 30.3535 25.1325 30.5578 26.5597C30.7263 28.2875 30.3513 29.698 29.2772 31.063C28.2958 32.156 26.944 32.7865 25.4817 32.8929C24.0646 32.9164 22.5033 32.5357 21.4303 31.5456C20.2057 30.1866 19.5955 28.8129 19.665 26.9696C19.8144 25.4118 20.5598 24.0802 21.7505 23.0764C23.7638 21.6241 26.3795 21.6037 28.4207 23.0059ZM22.4513 25.0293C22.3981 25.0826 22.3449 25.136 22.2901 25.1909C21.6794 25.8579 21.4652 26.7186 21.4845 27.6075C21.6367 28.7379 22.1001 29.6535 22.9959 30.3702C23.8231 30.9195 24.6893 31.143 25.6739 31.045C26.7564 30.7822 27.5879 30.2472 28.2252 29.3329C28.712 28.5296 28.894 27.608 28.7153 26.6809C28.4331 25.6364 27.8638 24.8236 26.9391 24.2321C25.3461 23.4103 23.6704 23.7858 22.4513 25.0293Z" fill="#FC4727"/>
<path d="M10.272 26.278C11.3559 27.055 12.1063 28.1082 12.3533 29.4335C12.4612 31.0045 12.2227 32.2814 11.1716 33.5155C10.3706 34.3772 9.36365 34.9725 8.17389 35.0451C6.60245 35.0835 5.38689 34.8269 4.18921 33.7304C3.27556 32.7169 2.77972 31.5555 2.79273 30.1855C2.86785 28.8924 3.32061 27.6365 4.29664 26.748C6.03572 25.2831 8.33271 25.1071 10.272 26.278ZM5.37757 28.3459C4.83756 29.0244 4.56689 29.766 4.6382 30.6357C4.78413 31.4919 5.22988 32.168 5.90796 32.7032C6.65831 33.2123 7.37748 33.2865 8.27125 33.1933C9.1068 32.958 9.74999 32.4919 10.1847 31.7364C10.5695 31.0179 10.6641 30.2636 10.4499 29.4696C10.0794 28.4807 9.54003 27.9448 8.59351 27.4999C7.38893 27.0984 6.22684 27.4345 5.37757 28.3459Z" fill="#FC4727"/>
</g>
</g>
<defs>
<clipPath id="clip0_604_52">
<rect width="55" height="55" fill="white"/>
</clipPath>
<clipPath id="clip1_604_52">
<rect width="55" height="55" fill="white"/>
</clipPath>
</defs>
</svg>
