<svg width="55" height="55" viewBox="0 0 55 55" fill="none" xmlns="http://www.w3.org/2000/svg">
<g clip-path="url(#clip0_604_25)">
<path d="M28.5636 0C28.9882 0.100883 29.4155 0.193695 29.8388 0.303994C34.527 1.51728 37.5859 5.75839 37.2651 10.6425C37.156 12.2943 36.6262 13.8223 35.7397 15.2185C35.6531 15.3544 35.5693 15.4902 35.4854 15.6274C35.4774 15.6409 35.4814 15.6624 35.4761 15.7216C36.9057 16.6026 37.6418 17.8805 37.144 19.5847C36.5516 21.6145 34.957 22.1324 32.943 21.9898C33.0841 23.4573 33.1732 24.8441 33.3583 26.2188C33.7643 29.2345 34.5749 32.1292 36.0498 34.8046C37.2531 36.9864 38.8252 38.7928 41.0522 39.994C41.783 40.3881 42.4193 41.0028 43.0116 41.6054C43.604 42.2081 43.8396 43.0017 43.8129 43.8679C43.8089 44.0024 43.9114 44.2055 44.0246 44.2701C46.1491 45.4874 46.5963 47.4217 45.1867 49.4703C45.2399 49.5631 45.2918 49.672 45.3597 49.7702C46.8146 51.8538 45.5966 54.6449 43.0915 54.9583C42.8812 54.9852 42.6668 54.9879 42.4552 54.9879C32.4837 54.9892 22.5136 54.9731 12.5421 55.0013C10.2073 55.0081 8.80963 53.1559 9.03992 51.4032C9.12777 50.7374 9.46321 50.1052 9.72278 49.3506C9.22894 48.7237 8.89482 47.8709 9.02794 46.8984C9.19033 45.7174 9.81996 44.8606 10.8809 44.3185C11.0193 44.2472 11.195 44.0522 11.1884 43.9217C11.1245 42.6385 11.7354 41.6915 12.6366 40.8979C13.008 40.5711 13.4113 40.2576 13.8479 40.0344C16.4729 38.696 18.1661 36.4967 19.4147 33.9007C21.1785 30.2312 21.8493 26.3062 21.9811 22.2655C21.9838 22.1983 21.9678 22.1297 21.9532 22.0073C19.9232 22.1256 18.2779 21.5311 17.7921 19.3251C17.4433 17.7433 18.1581 16.5488 19.5026 15.7458C19.1112 14.9414 18.6573 14.172 18.3485 13.3475C16.1535 7.47744 19.9072 1.04246 26.0451 0.114334C26.1782 0.0941574 26.3073 0.039008 26.4391 0C27.1472 0 27.8567 0 28.5649 0H28.5636ZM24.2321 22.0221C24.2188 22.2642 24.2054 22.4579 24.1975 22.6502C24.0044 26.9034 23.2923 31.0396 21.4101 34.8947C20.0111 37.7584 18.1169 40.185 15.2789 41.748C14.801 42.0117 14.3498 42.3412 13.9345 42.6963C13.5737 43.0057 13.2662 43.3904 13.406 43.9513H41.6113C41.7084 43.3783 41.4276 42.9963 41.0722 42.703C40.6089 42.321 40.1151 41.9619 39.5933 41.67C37.2731 40.3733 35.5892 38.4539 34.2754 36.1753C32.127 32.4466 31.2258 28.3562 30.893 24.1056C30.8398 23.4156 30.8065 22.7255 30.7626 22.0221H24.2321ZM27.5026 15.3907C29.1133 15.3907 30.724 15.3799 32.3346 15.3988C32.7074 15.4028 32.9616 15.2871 33.1959 15.0006C35.1846 12.566 35.7157 9.84617 34.5017 6.93536C33.301 4.05684 31.0554 2.46154 27.9499 2.23825C24.8457 2.01497 21.9745 3.75419 20.6327 6.58698C19.3082 9.3848 19.7874 12.7637 21.8613 15.0275C22.037 15.2199 22.3605 15.3678 22.6187 15.3732C24.2467 15.4041 25.8747 15.3893 27.5026 15.3893V15.3907ZM27.5026 46.1869C22.5788 46.1869 17.655 46.1869 12.7311 46.1869C12.5541 46.1869 12.3757 46.1788 12.2013 46.2017C11.5997 46.2837 11.211 46.6994 11.195 47.2616C11.179 47.844 11.5677 48.2758 12.2 48.3673C12.3744 48.3928 12.5528 48.3942 12.7298 48.3942C22.5775 48.3942 32.4238 48.3955 42.2715 48.3942C42.5005 48.3942 42.7334 48.3807 42.957 48.3363C43.4602 48.2368 43.8129 47.8225 43.8063 47.3195C43.7996 46.807 43.5667 46.4169 43.0595 46.2743C42.8093 46.203 42.5364 46.1923 42.2728 46.1923C37.349 46.1882 32.4252 46.1896 27.5013 46.1896L27.5026 46.1869ZM27.508 50.5867C22.6014 50.5867 17.6962 50.5867 12.7897 50.5867C12.63 50.5867 12.4702 50.5786 12.3118 50.5907C11.6476 50.6392 11.215 51.0535 11.1963 51.6561C11.1764 52.2573 11.5864 52.6972 12.2466 52.7765C12.4037 52.7954 12.5647 52.7927 12.7245 52.7927C22.5722 52.7927 32.4198 52.7927 42.2675 52.7913C42.4965 52.7913 42.7294 52.7806 42.953 52.7375C43.4708 52.638 43.7424 52.291 43.7983 51.7758C43.8529 51.2687 43.5614 50.8127 43.0662 50.6728C42.8159 50.6015 42.543 50.5907 42.2808 50.5894C37.357 50.5854 32.4331 50.5867 27.5093 50.5867H27.508ZM27.4441 19.7865C29.4967 19.7865 31.5493 19.7865 33.6019 19.7865C33.7962 19.7865 33.9932 19.7878 34.1849 19.7609C34.704 19.687 35.0847 19.2579 35.1087 18.7427C35.1327 18.2383 34.7759 17.7567 34.2714 17.6478C34.0664 17.6034 33.8495 17.6074 33.6378 17.6074C29.5499 17.6047 25.462 17.6047 21.3741 17.6074C21.1625 17.6074 20.9455 17.6034 20.7405 17.6464C20.2347 17.7514 19.874 18.2316 19.8926 18.7346C19.9126 19.2485 20.2933 19.6843 20.8097 19.7609C21.0014 19.7892 21.1984 19.7878 21.3914 19.7878C23.4081 19.7892 25.4261 19.7878 27.4427 19.7878L27.4441 19.7865Z" fill="#FC4727"/>
</g>
<defs>
<clipPath id="clip0_604_25">
<rect width="37" height="55" fill="white" transform="translate(9)"/>
</clipPath>
</defs>
</svg>
