<svg width="55" height="55" viewBox="0 0 55 55" fill="none" xmlns="http://www.w3.org/2000/svg">
<g clip-path="url(#clip0_604_37)">
<g clip-path="url(#clip1_604_37)">
<path d="M39.8535 0.751869C40.1109 1.00932 40.1084 1.08874 40.1221 1.4434C40.1064 1.8867 40.0283 2.17467 39.8082 2.55874C39.7497 2.66137 39.6913 2.76401 39.6311 2.86975C39.5627 2.98618 39.4943 3.10261 39.4238 3.22257C39.3852 3.28847 39.3465 3.35437 39.3067 3.42227C38.9993 3.94587 38.6882 4.46726 38.3764 4.98832C38.2373 5.22109 38.0982 5.4539 37.9593 5.68683C37.8736 5.83051 37.7878 5.9741 37.7018 6.1176C37.5116 6.43636 37.3271 6.75426 37.168 7.08976C37.2445 7.17284 37.3211 7.25593 37.4 7.34153C38.3346 8.35732 38.3346 8.35732 38.7054 8.78837C39.1323 9.28077 39.58 9.75367 40.0254 10.2292C40.5186 10.7558 41.0075 11.2862 41.4942 11.8188C41.7582 12.1075 42.0239 12.3946 42.2897 12.6815C42.8116 13.245 43.3275 13.8118 43.8281 14.3944C43.9224 14.5031 44.0166 14.6118 44.1109 14.7205C49.1601 20.5558 49.1601 20.5558 49.1144 22.9534C48.9733 24.5088 48.2213 25.8229 47.0399 26.8185C45.6505 27.9555 44.2286 29.0041 42.3523 28.9315C41.2315 28.8192 40.3022 28.3393 39.3768 27.7282C39.2674 27.6579 39.158 27.5875 39.0453 27.515C38.8183 27.369 38.5917 27.2223 38.3655 27.075C38.0349 26.8603 37.7026 26.6485 37.3694 26.4379C36.9742 26.188 36.5791 25.9381 36.1848 25.6868C36.0971 25.6315 36.0094 25.5761 35.919 25.5192C35.7506 25.4084 35.5858 25.292 35.4254 25.1699C34.7831 24.6903 34.254 24.6018 33.4619 24.5727C33.2504 24.5616 33.0389 24.5498 32.8274 24.5374C32.6764 24.5286 32.6764 24.5286 32.5224 24.5196C32.0889 24.4793 31.6815 24.3836 31.2597 24.2773C31.5498 26.4761 32.7542 28.1137 34.2676 29.6484C34.3514 29.7344 34.3514 29.7344 34.437 29.8223C34.9403 30.3385 35.4454 30.8505 35.993 31.3201C38.7933 33.7261 40.1238 36.7315 40.9277 40.2831C40.9455 40.3592 40.9632 40.4352 40.9815 40.5135C41.3748 42.2705 41.2812 44.0803 41.25 45.8691C41.3922 45.8706 41.3922 45.8706 41.5373 45.8721C41.8907 45.8768 42.244 45.8835 42.5973 45.8914C42.75 45.8944 42.9026 45.8967 43.0553 45.8982C43.2753 45.9005 43.4952 45.9055 43.7152 45.911C43.9135 45.9144 43.9135 45.9144 44.1158 45.9178C44.5399 45.9875 44.7138 46.098 45.0097 46.4062C45.2209 46.8276 45.2522 47.1766 45.2541 47.6448C45.2551 47.7847 45.2561 47.9245 45.2572 48.0686C45.2572 48.2204 45.2571 48.3722 45.2569 48.524C45.2573 48.6806 45.2578 48.8373 45.2583 48.9939C45.2591 49.3218 45.2591 49.6496 45.2585 49.9775C45.2579 50.3966 45.2597 50.8157 45.2622 51.2348C45.2638 51.5582 45.2639 51.8816 45.2635 52.205C45.2636 52.3594 45.2641 52.5139 45.2652 52.6684C45.2666 52.8848 45.2656 53.1012 45.2646 53.3176C45.2647 53.4405 45.2647 53.5634 45.2648 53.6901C45.2089 54.1668 45.0672 54.5224 44.7141 54.8548C44.4097 55.0377 44.215 55.0405 43.8609 55.0411C43.7354 55.042 43.6099 55.043 43.4806 55.044C43.2736 55.0432 43.2736 55.0432 43.0625 55.0423C42.9145 55.0428 42.7665 55.0435 42.6185 55.0443C42.2115 55.046 41.8044 55.0458 41.3973 55.0452C40.9585 55.0449 40.5196 55.0465 40.0808 55.0478C39.2209 55.0501 38.361 55.0505 37.5011 55.0503C36.8023 55.0502 36.1035 55.0506 35.4048 55.0514C35.2037 55.0516 35.0026 55.0519 34.8014 55.0521C34.7014 55.0522 34.6013 55.0523 34.4981 55.0524C32.6043 55.0545 30.7105 55.0543 28.8166 55.0536C27.0832 55.053 25.3497 55.0552 23.6163 55.0588C21.8373 55.0624 20.0584 55.0641 18.2794 55.0636C17.2803 55.0633 16.2811 55.0639 15.282 55.0666C14.4315 55.0688 13.581 55.0692 12.7304 55.0672C12.2963 55.0662 11.8622 55.0661 11.4281 55.0683C11.0309 55.0703 10.6337 55.0698 10.2364 55.0674C10.0243 55.0667 9.81222 55.0687 9.60013 55.0708C8.57424 55.0604 8.57424 55.0604 8.24291 54.7406C7.95086 54.3051 7.93403 54.0698 7.92848 53.5435C7.92761 53.4712 7.92673 53.3989 7.92582 53.3243C7.92315 53.0845 7.92138 52.8446 7.91983 52.6047C7.91926 52.5228 7.91869 52.4408 7.9181 52.3564C7.91522 51.9224 7.91314 51.4884 7.9116 51.0545C7.90981 50.6068 7.905 50.1592 7.89952 49.7115C7.8959 49.3668 7.89467 49.0222 7.89406 48.6775C7.89334 48.5125 7.89171 48.3476 7.88913 48.1826C7.88573 47.9512 7.88573 47.7199 7.88652 47.4885C7.88565 47.357 7.88479 47.2255 7.88389 47.09C7.97119 46.6068 8.1437 46.4307 8.48631 46.0839C8.8002 45.927 9.07702 45.9645 9.42709 45.966C9.53393 45.9662 9.53393 45.9662 9.64293 45.9665C9.8706 45.9671 10.0983 45.9684 10.3259 45.9698C10.4802 45.9703 10.6345 45.9708 10.7887 45.9712C11.1671 45.9724 11.5455 45.9743 11.9238 45.9765C12.9742 41.7189 12.6129 37.7444 11.998 33.4506C11.9077 32.8186 11.8186 32.1864 11.7296 31.5542C11.6986 31.3355 11.6674 31.1168 11.636 30.8982C11.6174 30.7667 11.5987 30.6353 11.5795 30.4998C11.5629 30.3843 11.5464 30.2687 11.5294 30.1497C11.4941 29.8632 11.4941 29.8632 11.4941 29.5409C11.404 29.5308 11.404 29.5308 11.312 29.5204C9.92355 29.3083 8.80814 28.5998 7.84178 27.6073C7.7749 27.5439 7.70802 27.4805 7.63911 27.4152C6.51271 26.266 5.92377 24.5621 5.88721 22.9806C5.89469 22.2695 6.00993 21.5852 6.13646 20.8868C6.1608 20.7506 6.18515 20.6145 6.21023 20.4742C6.78836 17.3091 7.58773 14.175 9.02342 11.2792C9.06671 11.1903 9.11 11.1014 9.1546 11.0098C11.2936 6.64648 14.718 3.04166 19.3628 1.37626C23.3159 0.0259458 27.3313 0.101933 31.4454 0.409881C32.0426 0.44339 32.5654 0.451663 33.1396 0.275184C35.0395 -0.303172 38.1982 -0.463117 39.8535 0.751869ZM29.9707 4.72648C29.907 4.79585 29.8433 4.86523 29.7777 4.93671C29.2121 5.53104 28.6099 5.60411 27.8336 5.7151C26.1724 5.95766 24.5119 6.38053 22.9883 7.08976C22.8621 7.14709 22.736 7.20442 22.606 7.26348C21.1419 7.95946 19.956 8.87647 18.7988 9.99015C18.7242 10.0568 18.6495 10.1234 18.5726 10.192C15.0578 13.4315 14.0792 18.988 13.8574 23.5253C13.8413 24.0871 13.8364 24.6485 13.8373 25.2105C13.8373 25.2867 13.8374 25.3629 13.8375 25.4414C13.8459 29.1592 14.3604 32.8273 14.9844 36.4847C15.1002 37.2496 15.1645 38.0024 15.1721 38.7759C15.1731 38.8651 15.1741 38.9543 15.1752 39.0462C15.1778 39.3332 15.1792 39.6201 15.18 39.9071C15.1804 40.005 15.1807 40.1029 15.1811 40.2038C15.1829 41.7021 15.0952 43.1338 14.7806 44.6037C14.7198 44.888 14.6623 45.1729 14.6054 45.458C14.586 45.555 14.5666 45.652 14.5467 45.752C14.5319 45.8261 14.5172 45.9002 14.5019 45.9765C17.5792 45.9789 20.6565 45.9808 23.7338 45.982C24.0967 45.9821 24.4596 45.9822 24.8225 45.9824C24.9309 45.9824 24.9309 45.9824 25.0415 45.9825C26.2129 45.9829 27.3844 45.9838 28.5558 45.9848C29.757 45.9858 30.9581 45.9864 32.1592 45.9866C32.8343 45.9867 33.5093 45.9871 34.1843 45.9878C34.8189 45.9886 35.4534 45.9888 36.088 45.9886C36.3216 45.9887 36.5553 45.9889 36.7889 45.9893C37.1064 45.9898 37.4239 45.9897 37.7414 45.9894C37.8351 45.9897 37.9288 45.99 38.0254 45.9903C38.4354 46.0295 38.4354 46.0295 38.7793 45.8691C39.2279 41.7903 38.1057 37.2673 35.5487 34.0217C34.7321 33.0164 33.8244 32.1025 32.9046 31.1925C32.2351 30.529 31.6178 29.861 31.0449 29.1112C30.965 29.0142 30.8851 28.9171 30.8028 28.8171C29.5292 27.2245 28.754 25.2285 28.6109 23.1913C28.5463 22.8339 28.3063 22.6811 28.0371 22.4511C26.3006 20.7609 25.6095 18.5269 25.5328 16.1333C25.5446 15.6045 25.6165 15.0714 25.8887 14.6093C26.3017 14.3359 26.6989 14.3472 27.1777 14.3944C27.4527 14.4813 27.5607 14.5416 27.7232 14.7771C27.8657 15.1538 27.8543 15.5276 27.8625 15.9252C27.9387 17.817 28.4516 19.5039 29.8633 20.8398C30.8138 21.6612 32.2436 22.1303 33.4942 22.1477C33.5904 22.1503 33.6865 22.1528 33.7856 22.1555C33.9848 22.1601 34.184 22.1634 34.3832 22.1655C35.0597 22.1864 35.5202 22.3102 36.0937 22.6659C36.1762 22.7161 36.2587 22.7662 36.3436 22.8179C36.625 22.9924 36.9033 23.171 37.1814 23.3507C37.3903 23.4848 37.5993 23.6187 37.8083 23.7527C37.915 23.8214 38.0217 23.89 38.1317 23.9608C38.66 24.3003 39.1896 24.638 39.7192 24.9755C39.8137 25.0359 39.9081 25.0964 40.0055 25.1586C41.4218 26.1787 41.4218 26.1787 43.0762 26.4257C44.2629 26.0288 45.4529 25.0535 46.1914 24.0624C46.2556 23.9804 46.3199 23.8985 46.3861 23.814C46.6114 23.3041 46.6912 22.7769 46.5728 22.227C45.8221 20.3154 44.1279 18.588 42.8029 17.0472C42.6397 16.8573 42.4771 16.6667 42.3145 16.4762C41.5933 15.6342 40.8499 14.8169 40.0902 14.0097C39.8101 13.7119 39.5349 13.4104 39.2627 13.1054C38.8615 12.6564 38.4521 12.2157 38.0408 11.776C37.1443 10.8172 36.2507 9.85825 35.3955 8.86222C35.3141 8.76749 35.3141 8.76749 35.2312 8.67085C34.3967 7.69245 34.3967 7.69245 34.348 7.21286C34.4717 6.15441 35.4136 5.02282 35.9729 4.12223C36.0991 3.91874 36.2252 3.71516 36.3507 3.51121C36.4628 3.32903 36.5755 3.14725 36.6883 2.9655C36.8632 2.70779 36.8632 2.70779 36.8457 2.47062C34.3596 2.09517 31.817 3.08349 29.9707 4.72648ZM14.5422 7.4821C10.8937 11.3643 8.55563 17.9298 8.31847 23.2098C8.36442 24.3212 8.85744 25.1852 9.61634 25.9746C10.11 26.4123 10.6525 26.7539 11.2793 26.9628C11.2808 26.8369 11.2824 26.7111 11.284 26.5814C11.3488 21.7532 11.3488 21.7532 11.709 19.6581C11.7267 19.5531 11.7444 19.448 11.7626 19.3397C12.4054 15.652 13.7906 12.1172 16.2207 9.2382C16.2695 9.18023 16.3183 9.12226 16.3687 9.06253C19.0804 5.88932 23.2218 3.9181 27.3389 3.44413C27.4419 3.43651 27.5449 3.4289 27.651 3.42105C28.0654 3.28564 28.2112 3.03319 28.4668 2.68546C23.0666 2.61851 18.4749 3.5085 14.5422 7.4821ZM10.4199 48.4472C10.4199 49.8297 10.4199 51.2122 10.4199 52.6366C21.0901 52.6366 31.7603 52.6366 42.7539 52.6366C42.7539 51.2541 42.7539 49.8716 42.7539 48.4472C32.0837 48.4472 21.4135 48.4472 10.4199 48.4472Z" fill="#FC4727"/>
<path d="M34.8048 11.7089C35.1267 11.925 35.3923 12.1857 35.6642 12.4608C35.7295 12.5226 35.7949 12.5844 35.8622 12.648C36.1712 12.9642 36.3514 13.2065 36.3826 13.6559C36.3087 14.0722 36.3087 14.0722 36.0939 14.3944C35.7567 14.6192 35.5314 14.6898 35.1246 14.6601C34.7473 14.5698 34.519 14.35 34.2677 14.0722C34.1994 13.9993 34.1312 13.9265 34.0608 13.8515C33.7328 13.4715 33.4678 13.1573 33.4419 12.6421C33.5224 12.2102 33.5966 12.0728 33.9454 11.8163C34.2696 11.6542 34.4421 11.6552 34.8048 11.7089Z" fill="#FC4727"/>
</g>
</g>
<defs>
<clipPath id="clip0_604_37">
<rect width="55" height="55" fill="white"/>
</clipPath>
<clipPath id="clip1_604_37">
<rect width="55" height="55" fill="white"/>
</clipPath>
</defs>
</svg>
