<svg width="55" height="55" viewBox="0 0 55 55" fill="none" xmlns="http://www.w3.org/2000/svg">
<g clip-path="url(#clip0_604_28)">
<path d="M7.76745 55.0001C7.18425 54.683 6.97256 54.2023 7.0028 53.5394C7.06328 52.1834 6.95528 50.8102 7.12521 49.4685C7.35993 47.6132 8.85178 46.207 10.7094 45.8669C11.0204 45.8095 11.1572 45.7005 11.2249 45.3776C11.8427 42.426 14.2662 40.2177 17.2686 39.8188C17.4832 39.7901 17.7827 39.6609 17.8648 39.493C19.7066 35.7379 20.9133 31.7876 21.4677 27.6421C21.4807 27.5403 21.4807 27.437 21.4864 27.3365C19.0975 26.995 17.9454 26.0264 17.7165 24.1912C17.5034 22.4851 18.461 21.2582 20.6426 20.3973C20.3762 19.5478 20.0234 18.7199 19.8621 17.8561C19.4431 15.609 20.0018 13.5657 21.3727 11.7405C22.8141 9.82203 24.257 7.90499 25.7316 5.94491C24.7178 5.17149 24.1634 4.17423 24.2844 2.89286C24.365 2.03909 24.7509 1.32164 25.4119 0.763457C26.7396 -0.358641 28.7196 -0.230934 29.8846 1.04613C31.1907 2.47961 30.9876 4.31629 29.31 5.94634C29.5678 6.29502 29.8299 6.65232 30.0948 7.0053C31.2468 8.53779 32.4046 10.0645 33.5523 11.6013C35.5755 14.309 35.8635 17.1817 34.3573 20.2179C34.3342 20.2638 34.3213 20.3141 34.2881 20.4102C35.4041 20.6298 36.297 21.175 36.8571 22.1737C37.2171 22.8151 37.3755 23.5096 37.2733 24.2414C37.0141 26.0738 35.8995 26.9907 33.4299 27.3466C33.7165 28.7815 33.9685 30.2207 34.2968 31.6412C34.9102 34.2972 35.8563 36.8413 37.0213 39.3065C37.1739 39.6308 37.3626 39.7886 37.7312 39.8345C40.7437 40.2062 43.1528 42.4145 43.7764 45.3747C43.8441 45.6976 43.9809 45.8066 44.2919 45.864C46.4202 46.2572 47.9466 48.0537 47.9841 50.2061C48.0028 51.3152 47.9596 52.4259 48.0014 53.535C48.0258 54.1965 47.817 54.6787 47.2353 54.9958H7.76745V55.0001ZM9.17578 52.8133H45.8298C45.8298 52.0069 45.8327 51.2378 45.8298 50.4701C45.8226 48.906 44.8391 47.9231 43.268 47.9203C40.5363 47.9159 37.8046 47.9203 35.0729 47.9188C34.1917 47.9188 33.3118 47.9174 32.4305 47.9188C31.9294 47.9188 31.5651 47.705 31.3721 47.2401C31.0582 46.4839 31.6126 45.7765 32.5385 45.7736C35.3595 45.7665 38.1819 45.7708 41.0029 45.7708C41.1988 45.7708 41.3946 45.7708 41.6394 45.7708C41.5962 45.5871 41.5732 45.4493 41.5314 45.3188C40.8848 43.2812 38.984 41.9094 36.7434 41.9066C30.5787 41.8979 24.4154 41.8893 18.2507 41.9223C17.5523 41.9266 16.8093 42.0859 16.1656 42.3571C14.6752 42.9827 13.755 44.1421 13.3331 45.7708H13.9912C16.7589 45.7708 19.5266 45.7708 22.2943 45.7722C22.4916 45.7722 22.6932 45.7665 22.8832 45.8095C23.4305 45.93 23.7732 46.4136 23.7228 46.9574C23.6738 47.4754 23.2706 47.8672 22.7248 47.9116C22.5463 47.926 22.3663 47.9188 22.1863 47.9188C18.6813 47.9188 15.1777 47.916 11.6728 47.9217C10.312 47.9246 9.24922 48.8329 9.18154 50.0956C9.13402 50.9867 9.1729 51.882 9.1729 52.8147L9.17578 52.8133ZM31.3059 27.3021H23.694C23.1684 31.6211 21.9861 35.7537 20.1573 39.7355H34.844C33.0137 35.758 31.8387 31.6384 31.3073 27.3021H31.3059ZM27.5561 7.22198C27.487 7.25785 27.4452 7.26502 27.4265 7.29085C25.867 9.36716 24.2527 11.4033 22.7695 13.5327C21.4 15.4985 21.629 18.2435 23.1785 20.0759C23.3181 20.2409 23.5817 20.3944 23.789 20.3959C26.2673 20.4174 28.7455 20.4159 31.2224 20.3987C31.4196 20.3973 31.6745 20.2753 31.8041 20.1247C32.5961 19.2006 33.0108 18.1187 33.116 16.9047C33.3204 14.5644 31.9424 12.953 30.5815 11.2942C30.4764 11.4621 30.3886 11.597 30.3051 11.7333C29.6859 12.7593 29.071 13.7895 28.446 14.8112C28.1868 15.2345 27.7951 15.434 27.3026 15.3349C26.839 15.2417 26.5049 14.9332 26.4674 14.4683C26.4444 14.1741 26.5495 13.8297 26.7007 13.5671C27.4438 12.2815 28.2286 11.0202 28.9803 9.74024C29.0623 9.59962 29.1185 9.33846 29.0436 9.23085C28.567 8.54496 28.0514 7.88634 27.5532 7.22341L27.5561 7.22198ZM27.4999 22.5583C25.4364 22.5583 23.3729 22.554 21.3093 22.5597C20.4626 22.5626 19.8765 23.0806 19.8578 23.8181C19.8391 24.5729 20.441 25.1282 21.3079 25.1339C22.3303 25.1411 23.3541 25.1354 24.3765 25.1354C27.4625 25.1354 30.5499 25.1311 33.6358 25.1382C34.2205 25.1382 34.6985 24.9703 34.9822 24.4351C35.456 23.5426 34.8209 22.5669 33.7438 22.5597C31.6616 22.5468 29.5807 22.5554 27.4985 22.5554L27.4999 22.5583ZM28.5727 3.20136C28.5627 2.63027 28.0788 2.15532 27.5057 2.15101C26.911 2.14671 26.4127 2.64893 26.4242 3.24154C26.4358 3.81407 26.9182 4.28902 27.4913 4.29189C28.086 4.2962 28.5843 3.79398 28.5727 3.20136Z" fill="#FC4727"/>
<path d="M28.5726 46.8484C28.5726 47.4295 28.0989 47.9059 27.5128 47.9145C26.9065 47.9217 26.4097 47.4238 26.4241 46.824C26.4385 46.2514 26.9397 45.7679 27.5099 45.7765C28.0845 45.7851 28.5712 46.2758 28.5712 46.8498L28.5726 46.8484Z" fill="#FC4727"/>
</g>
<defs>
<clipPath id="clip0_604_28">
<rect width="41" height="55" fill="white" transform="translate(7)"/>
</clipPath>
</defs>
</svg>
