<svg width="55" height="55" viewBox="0 0 55 55" fill="none" xmlns="http://www.w3.org/2000/svg">
<g clip-path="url(#clip0_604_44)">
<path d="M23.9214 6.25728C25.0277 7.43146 25.5828 8.91764 25.5663 10.5273C25.4436 12.3319 24.625 13.5575 23.5252 14.9316C23.5728 15.0496 23.5728 15.0496 23.6214 15.17C23.9247 15.9218 24.2279 16.6736 24.5312 17.4254C24.687 17.8117 24.8427 18.1979 24.9986 18.5842C25.6915 20.3019 26.3839 22.0198 27.0702 23.7402C27.3538 23.7402 27.6373 23.7402 27.9295 23.7402C29.0994 20.8334 30.2692 17.9265 31.4745 14.9316C31.2618 14.6835 31.0491 14.4353 30.8299 14.1796C29.7893 12.7379 29.2871 11.2067 29.4939 9.42623C29.7953 7.74926 30.6625 6.4994 32.0116 5.47847C33.5369 4.55736 35.1082 4.33546 36.8456 4.72652C38.3685 5.20326 39.6327 6.1218 40.3847 7.54464C40.8525 8.46586 41.0762 9.26345 41.0686 10.2923C41.068 10.377 41.0675 10.4617 41.067 10.5489C41.0534 11.2256 40.9629 11.8279 40.7127 12.4609C40.6774 12.5508 40.6421 12.6406 40.6057 12.7332C40.1052 13.8537 39.1379 14.9263 38.0272 15.4687C37.9933 17.2753 38.0538 19.0752 38.1279 20.8801C38.1326 20.9962 38.1373 21.1123 38.1421 21.2319C38.1558 21.5698 38.1701 21.9076 38.1845 22.2455C38.1908 22.3963 38.1908 22.3963 38.1971 22.5502C38.2275 23.2356 38.282 23.9168 38.3495 24.5996C38.4093 24.5385 38.4691 24.4774 38.5307 24.4145C38.9193 24.0213 39.3076 23.6321 39.7258 23.2702C39.7939 23.211 39.8621 23.1517 39.9323 23.0906C40.0677 22.9738 40.2035 22.8573 40.3403 22.7421C40.5219 22.5886 40.7013 22.4327 40.8806 22.2766C40.9396 22.2276 40.9987 22.1787 41.0595 22.1283C41.2465 21.9703 41.2465 21.9703 41.4647 21.6992C41.4244 21.3364 41.309 21.0056 41.1924 20.661C41.0194 20.0917 40.981 19.5659 40.988 18.9733C40.9889 18.8746 40.9898 18.7759 40.9907 18.6742C41.0272 17.2024 41.612 15.8616 42.6262 14.7839C44.0821 13.4318 45.7296 13.126 47.6392 13.1936C49.0138 13.2913 50.3216 14.158 51.2401 15.1464C52.3753 16.6429 52.6688 18.1439 52.5291 19.9804C52.2703 21.4134 51.477 22.7401 50.3194 23.6303C49.9346 23.8879 49.5811 24.1224 49.1316 24.2501C48.5296 24.418 48.5296 24.418 48.0575 24.8044C47.9121 25.0774 47.7986 25.3511 47.6884 25.6402C47.5899 25.8749 47.4913 26.1096 47.3926 26.3443C47.3384 26.4773 47.2842 26.6103 47.2302 26.7433C47.0345 27.2211 46.8268 27.6933 46.618 28.1655C46.5795 28.2526 46.541 28.3396 46.5013 28.4294C46.4212 28.6107 46.341 28.792 46.2607 28.9732C46.0506 29.4491 45.8424 29.9258 45.634 30.4024C45.1244 31.5668 44.6108 32.7293 44.0965 33.8916C43.1074 36.1276 42.1241 38.3661 41.1424 40.6054C41.2929 40.6533 41.2929 40.6533 41.4465 40.7021C42.5452 41.0833 43.4078 42.0089 43.9685 43.0031C44.4115 43.9343 44.5063 44.8702 44.5086 45.8909C44.5093 46.0027 44.51 46.1145 44.5108 46.2297C44.5118 46.4644 44.5124 46.6992 44.5123 46.9339C44.5128 47.2929 44.5167 47.6518 44.5208 48.0108C44.5214 48.2396 44.5218 48.4685 44.522 48.6973C44.5236 48.8043 44.5251 48.9113 44.5267 49.0215C44.5236 49.4858 44.5156 49.7684 44.2814 50.1772C43.8998 50.5028 43.548 50.5017 43.0585 50.5021C42.9457 50.5024 42.8329 50.5027 42.7167 50.5031C42.5929 50.5029 42.4692 50.5028 42.3416 50.5026C42.21 50.5028 42.0785 50.5031 41.9429 50.5033C41.5775 50.5039 41.212 50.504 40.8466 50.5039C40.4526 50.5038 40.0585 50.5044 39.6645 50.5049C38.8925 50.5058 38.1205 50.5061 37.3485 50.5062C36.7211 50.5062 36.0937 50.5065 35.4663 50.5068C33.6882 50.5077 31.9102 50.5082 30.1321 50.5082C30.0362 50.5081 29.9403 50.5081 29.8415 50.5081C29.6976 50.5081 29.6976 50.5081 29.5507 50.5081C27.9943 50.5081 26.438 50.5091 24.8817 50.5106C23.2844 50.5122 21.687 50.5129 20.0896 50.5128C19.1926 50.5128 18.2955 50.5131 17.3985 50.5142C16.6348 50.5152 15.8712 50.5154 15.1075 50.5147C14.7178 50.5144 14.3281 50.5144 13.9384 50.5153C13.5161 50.5163 13.0939 50.5156 12.6717 50.5148C12.4864 50.5156 12.4864 50.5156 12.2974 50.5165C12.1843 50.516 12.0712 50.5155 11.9548 50.515C11.8573 50.515 11.7598 50.515 11.6594 50.515C11.2739 50.4772 10.9677 50.3616 10.6574 50.13C10.485 49.8931 10.4863 49.7435 10.4855 49.4518C10.4845 49.3506 10.4835 49.2494 10.4824 49.1451C10.4831 49.0357 10.4837 48.9263 10.4844 48.8135C10.4841 48.7002 10.4838 48.5869 10.4835 48.4702C10.4832 48.2297 10.4838 47.9892 10.4852 47.7487C10.4869 47.3845 10.4852 47.0203 10.4831 46.6561C10.4833 46.4219 10.4838 46.1877 10.4844 45.9534C10.4837 45.846 10.4831 45.7385 10.4824 45.6278C10.4975 44.0765 10.9786 42.8164 12.0244 41.6679C12.5481 41.1879 13.1593 40.7631 13.8573 40.6054C13.8061 40.4897 13.755 40.3739 13.7023 40.2547C12.6272 37.8216 12.6272 37.8216 11.5522 35.3886C11.51 35.2931 11.4678 35.1977 11.4243 35.0993C11.3402 34.9088 11.256 34.7183 11.1718 34.5279C10.9624 34.0539 10.753 33.5799 10.5435 33.1059C10.1505 32.2166 9.75762 31.3273 9.3651 30.4379C9.18304 30.0254 9.00092 29.6129 8.8188 29.2004C8.73336 29.0068 8.64795 28.8133 8.56257 28.6197C8.52248 28.5288 8.48238 28.4379 8.44107 28.3442C8.40158 28.2547 8.36209 28.1651 8.3214 28.0728C8.24339 27.8964 8.16507 27.7201 8.08644 27.544C7.87985 27.081 7.67861 26.6165 7.48397 26.1484C7.44215 26.0501 7.40032 25.9518 7.35723 25.8505C7.27729 25.6626 7.19905 25.4739 7.12284 25.2844C6.9332 24.8444 6.82906 24.64 6.41831 24.3706C6.08213 24.2441 6.08213 24.2441 5.72342 24.1602C4.65489 23.8638 3.76935 22.9235 3.23216 21.9854C2.43355 20.4727 2.1679 18.855 2.64511 17.1807C3.19628 15.6602 4.1586 14.512 5.58579 13.75C6.95161 13.1197 8.59102 12.9259 10.0505 13.3807C11.7397 14.0674 12.9037 15.0805 13.6424 16.7578C13.9217 17.4898 14.0203 18.1657 14.0117 18.9465C14.0114 19.0446 14.0112 19.1427 14.0109 19.2438C13.9973 19.925 13.8932 20.5025 13.6185 21.1323C13.5185 21.4253 13.5105 21.5268 13.6424 21.8066C13.8835 22.0671 13.8835 22.0671 14.193 22.3303C14.3093 22.4337 14.4255 22.5372 14.5417 22.6408C14.6041 22.6961 14.6665 22.7514 14.7309 22.8084C15.0961 23.1358 15.4531 23.472 15.811 23.8073C15.8819 23.8735 15.9527 23.9397 16.0257 24.0079C16.5252 24.4745 16.5252 24.4745 16.6502 24.5996C16.7278 23.8152 16.7826 23.033 16.8151 22.2455C16.8198 22.1375 16.8245 22.0295 16.8293 21.9182C16.8691 20.9833 16.9039 20.0482 16.9369 19.1131C16.9592 18.4863 16.9869 17.8603 17.0203 17.234C17.0293 16.997 17.038 16.7599 17.0464 16.5228C17.0573 16.3695 17.0573 16.3695 17.0684 16.2131C17.0745 15.9327 17.0702 15.7316 16.9725 15.4687C16.6819 15.1919 16.3575 15.0132 16.0057 14.8242C14.885 14.0187 14.2606 12.7039 13.9647 11.3867C13.7909 9.43108 14.2149 7.85254 15.4686 6.32442C16.2831 5.4522 17.414 4.84955 18.5838 4.6191C18.6657 4.60276 18.7475 4.58642 18.8318 4.56958C20.7406 4.28749 22.5363 4.97096 23.9214 6.25728ZM16.8852 7.53963C16.0045 8.47184 15.7494 9.41767 15.7611 10.6695C15.8468 11.8055 16.4004 12.6929 17.2209 13.4545C18.1605 14.2208 19.2303 14.3843 20.41 14.2871C21.5334 14.0126 22.506 13.4078 23.1476 12.4336C23.6676 11.4808 23.8545 10.4813 23.6138 9.41699C23.2433 8.21943 22.614 7.40128 21.5249 6.79103C19.9455 5.98187 18.161 6.34611 16.8852 7.53963ZM32.5755 7.3785C31.792 8.09531 31.3584 9.10899 31.2638 10.153C31.2454 11.3226 31.6666 12.3398 32.4547 13.1927C33.3588 14.0484 34.4021 14.3291 35.6152 14.3169C36.7385 14.2266 37.6236 13.6679 38.3763 12.857C39.1699 11.8839 39.3049 10.7794 39.2088 9.5605C38.9337 8.49118 38.2782 7.54518 37.3592 6.93035C35.7307 6.03153 34.021 6.2571 32.5755 7.3785ZM4.98112 16.6315C4.25763 17.558 4.18587 18.623 4.29672 19.7656C4.56883 20.8289 5.23026 21.83 6.18038 22.3995C7.26773 22.9552 8.46288 23.0988 9.64768 22.7264C10.6306 22.311 11.4519 21.4706 11.9237 20.5175C12.2899 19.4442 12.2904 18.2815 11.8431 17.2332C11.3323 16.2419 10.4734 15.4364 9.39381 15.086C7.56127 14.7587 6.21523 15.2494 4.98112 16.6315ZM43.9354 16.1132C43.0696 17.1338 42.7905 18.0339 42.8251 19.3665C42.9376 20.6106 43.541 21.3815 44.4536 22.1964C45.3801 22.9199 46.4451 22.9917 47.5877 22.8808C48.651 22.6087 49.6522 21.9473 50.2217 20.9972C50.7774 19.9098 50.9209 18.7147 50.5486 17.5299C50.1332 16.547 49.2928 15.7256 48.3397 15.2539C46.7897 14.7194 45.1273 14.9585 43.9354 16.1132ZM20.9139 15.9474C20.5227 16.0264 20.1311 16.046 19.7336 16.0671C19.6539 16.0717 19.5742 16.0762 19.4921 16.081C19.2968 16.0921 19.1015 16.1027 18.9061 16.1132C18.8659 17.0333 18.8257 17.9533 18.7856 18.8733C18.767 19.3009 18.7483 19.7284 18.7296 20.156C18.7115 20.5694 18.6935 20.9828 18.6755 21.3962C18.6684 21.56 18.6612 21.7237 18.6541 21.8874C18.6184 22.7025 18.5836 23.5175 18.5531 24.3327C18.5462 24.5162 18.5462 24.5162 18.5392 24.7033C18.531 24.9249 18.5231 25.1466 18.5155 25.3682C18.4985 25.8282 18.4767 26.2879 18.4397 26.7467C18.4311 26.86 18.4311 26.86 18.4222 26.9756C18.3543 27.2335 18.2538 27.3351 18.0467 27.5C17.6861 27.6097 17.4942 27.6532 17.1521 27.4828C16.8185 27.2531 16.527 26.9922 16.234 26.7144C16.174 26.6583 16.1139 26.6021 16.0521 26.5443C15.9236 26.424 15.7953 26.3036 15.6672 26.1829C15.468 25.9955 15.2683 25.8087 15.0683 25.6222C15.0015 25.5598 14.9347 25.4975 14.8659 25.4333C14.7308 25.3073 14.5956 25.1814 14.4604 25.0555C14.1241 24.7421 13.7889 24.4275 13.4561 24.1103C13.3302 23.9914 13.2044 23.8725 13.0785 23.7536C12.992 23.6701 12.992 23.6701 12.9037 23.5849C12.5789 23.2645 12.5789 23.2645 12.1385 23.2031C11.9074 23.3513 11.9074 23.3513 11.6618 23.5455C10.8192 24.1531 9.91726 24.469 8.91586 24.707C9.48042 26.0954 10.0674 27.4718 10.6883 28.836C11.278 30.1319 11.8562 31.4325 12.4272 32.7368C12.4869 32.8731 12.4869 32.8731 12.5478 33.0121C12.5877 33.1034 12.6277 33.1947 12.6689 33.2888C12.7509 33.476 12.8328 33.6632 12.9148 33.8504C12.9559 33.9443 12.997 34.0381 13.0393 34.1348C13.3583 34.8626 13.6791 35.5895 14.0008 36.3161C14.0479 36.4226 14.0951 36.5292 14.1437 36.6389C14.3286 37.0567 14.5135 37.4744 14.6988 37.8921C14.8259 38.1785 14.9527 38.465 15.0796 38.7516C15.1176 38.8369 15.1555 38.9223 15.1946 39.0103C15.3337 39.3247 15.4672 39.6345 15.576 39.9609C15.7096 39.9389 15.8433 39.9169 15.981 39.8942C16.1615 39.8649 16.3421 39.8357 16.5227 39.8065C16.6101 39.792 16.6976 39.7775 16.7877 39.7626C18.0227 39.564 19.2419 39.5148 20.4911 39.5139C20.6587 39.5134 20.8263 39.5129 20.9939 39.5123C21.4463 39.5109 21.8988 39.5102 22.3512 39.5097C22.6352 39.5094 22.9191 39.5089 23.2031 39.5085C24.0955 39.507 24.988 39.506 25.8804 39.5055C26.9032 39.5051 27.9261 39.5032 28.9489 39.5001C29.7442 39.4977 30.5395 39.4967 31.3348 39.4965C31.8076 39.4964 32.2803 39.4958 32.7531 39.4938C34.7504 39.4861 36.6971 39.5082 38.6717 39.8535C38.7992 39.8746 38.9267 39.8958 39.0581 39.9175C39.1433 39.9318 39.2285 39.9462 39.3163 39.9609C40.0743 38.5295 40.7073 37.043 41.3515 35.5583C41.7429 34.6569 42.1403 33.7581 42.538 32.8594C42.6666 32.5685 42.7952 32.2776 42.9238 31.9867C43.3319 31.0634 43.7405 30.1404 44.1497 29.2177C44.3376 28.7941 44.5253 28.3704 44.7129 27.9468C44.8024 27.7448 44.892 27.543 44.9817 27.3411C45.1065 27.0603 45.231 26.7793 45.3554 26.4983C45.3919 26.4164 45.4284 26.3345 45.466 26.2501C45.6907 25.7417 45.893 25.2291 46.0838 24.707C45.9722 24.6757 45.8606 24.6444 45.7456 24.6122C44.8464 24.3512 44.068 24.0626 43.2909 23.5253C43.1611 23.4403 43.0313 23.3553 42.9015 23.2702C42.8173 23.2126 42.7331 23.155 42.6463 23.0957C42.5566 23.1873 42.5566 23.1873 42.4651 23.2807C42.3831 23.3637 42.3011 23.4466 42.2166 23.5321C42.097 23.6536 42.097 23.6536 41.9749 23.7775C41.7452 23.9991 41.5133 24.2098 41.2725 24.4187C40.8098 24.8202 40.3648 25.2387 39.9205 25.6604C39.76 25.8113 39.5994 25.9622 39.4388 26.1131C39.178 26.3585 38.9191 26.6053 38.6633 26.8558C37.945 27.5422 37.945 27.5422 37.5035 27.6275C37.1785 27.608 36.9996 27.5836 36.7381 27.3925C36.3271 26.5704 36.4797 25.3124 36.4461 24.3986C36.4393 24.2215 36.4325 24.0445 36.4256 23.8675C36.4077 23.4026 36.3902 22.9376 36.3728 22.4727C36.345 21.7323 36.3167 20.9919 36.2883 20.2515C36.2786 19.9963 36.2691 19.7411 36.2596 19.4858C36.2171 18.3608 36.1594 17.2371 36.0936 16.1132C35.9693 16.1069 35.8449 16.1005 35.7169 16.094C34.8599 16.0499 34.0338 15.9744 33.1932 15.791C32.8029 16.5262 32.4979 17.2913 32.1926 18.0647C32.0291 18.4787 31.8641 18.8921 31.6994 19.3057C31.6645 19.3934 31.6296 19.4811 31.5937 19.5714C31.1963 20.5703 30.7963 21.5682 30.3943 22.5652C30.3135 22.7659 30.2329 22.9667 30.1524 23.1675C30.0392 23.45 29.9254 23.7324 29.8115 24.0146C29.7613 24.1406 29.7613 24.1406 29.71 24.2691C29.2572 25.3859 29.2572 25.3859 28.8963 25.5664C28.4359 25.5955 27.9745 25.5912 27.5133 25.5932C27.3203 25.5965 27.3203 25.5965 27.1235 25.5999C26.938 25.6008 26.938 25.6008 26.7487 25.6016C26.6353 25.6026 26.522 25.6036 26.4051 25.6047C26.0408 25.5584 25.9226 25.5149 25.6737 25.2441C25.5142 24.9438 25.3942 24.6312 25.2729 24.3138C25.2356 24.2191 25.1982 24.1244 25.1597 24.0268C25.0789 23.8217 24.9987 23.6164 24.9191 23.4109C24.7934 23.0869 24.666 22.7635 24.5381 22.4403C24.2266 21.6521 23.9175 20.863 23.6084 20.0739C23.3578 19.4347 23.1058 18.7962 22.8518 18.1585C22.7342 17.8618 22.6186 17.5645 22.503 17.2672C22.4312 17.0867 22.3594 16.9063 22.2874 16.7259C22.2558 16.6431 22.2242 16.5603 22.1916 16.475C22.094 16.2229 22.094 16.2229 21.9139 15.8984C21.5377 15.7487 21.2951 15.8398 20.9139 15.9474ZM13.0482 43.2985C11.889 44.8216 12.3534 46.8917 12.3534 48.6621C22.35 48.6621 32.3467 48.6621 42.6463 48.6621C42.9064 45.6199 42.9064 45.6199 41.6753 43.0518C39.7644 41.3236 36.8618 41.2344 34.4198 41.2326C34.2529 41.2321 34.086 41.2316 33.9192 41.231C33.4683 41.2296 33.0175 41.2289 32.5666 41.2284C32.2838 41.2281 32.0009 41.2277 31.7181 41.2272C30.8297 41.2257 29.9413 41.2247 29.0529 41.2243C28.0338 41.2238 27.0147 41.2219 25.9956 41.2188C25.2038 41.2165 24.412 41.2154 23.6201 41.2153C23.1492 41.2152 22.6783 41.2145 22.2073 41.2126C17.2561 41.0697 17.2561 41.0697 13.0482 43.2985Z" fill="#FC4727" stroke="#FC4727"/>
</g>
<defs>
<clipPath id="clip0_604_44">
<rect width="55" height="55" fill="white"/>
</clipPath>
</defs>
</svg>
