<svg width="55" height="55" viewBox="0 0 55 55" fill="none" xmlns="http://www.w3.org/2000/svg">
<g clip-path="url(#clip0_604_49)">
<path d="M31.5079 5.79304C32.0596 6.24038 32.567 6.73594 33.0665 7.24031C33.1354 7.1875 33.2042 7.13469 33.2752 7.08027C33.8206 6.80759 34.3944 6.69619 34.9908 6.86849C35.5474 7.12548 35.9065 7.46524 36.1837 8.01961C36.4237 9.62614 35.7409 11.4747 34.8268 12.7784C34.6227 13.0323 34.4084 13.2709 34.1867 13.5095C33.4445 14.3136 32.5973 15.6137 32.3985 16.7032C32.4867 16.9805 32.5927 17.2113 32.7394 17.4616C32.8467 17.7119 32.8607 17.8815 32.8786 18.1505C32.9185 18.5405 32.9185 18.5405 33.2126 18.8184C33.3113 18.8919 33.4101 18.9654 33.5118 19.0411C34.0237 19.7105 34.0636 20.4531 33.9571 21.2677C33.7666 21.9417 33.3348 22.47 32.7325 22.8262C32.4746 22.9067 32.2149 22.982 31.9532 23.0489C32.1803 27.0683 32.8793 30.8079 34.1078 34.6362C34.6257 36.2542 35.0886 37.87 35.2569 39.5668C35.2692 39.6844 35.2815 39.8019 35.2941 39.9231C35.316 40.148 35.3339 40.3734 35.3472 40.5991C35.3745 40.8966 35.4037 41.1408 35.5157 41.418C35.7325 41.59 35.9255 41.6814 36.1862 41.7723C36.6162 41.9502 36.8703 42.346 37.0743 42.754C37.0822 43.0183 37.0836 43.2828 37.0812 43.5472C37.0802 43.6898 37.0792 43.8325 37.0782 43.9795C37.0763 44.1444 37.0763 44.1444 37.0743 44.3126C37.1987 44.3589 37.1987 44.3589 37.3256 44.4061C38.2758 44.8081 38.9858 45.5779 39.4444 46.4909C39.8772 47.5606 40.0308 48.7762 39.6348 49.879C39.4994 50.1859 39.3505 50.4746 39.1895 50.7696C39.2768 50.866 39.364 50.9625 39.4539 51.0618C39.8716 51.5721 39.9943 52.0047 39.9549 52.6622C39.866 53.3438 39.579 53.7569 39.0643 54.1999C38.5781 54.5698 38.2554 54.5713 37.6624 54.5711C37.5727 54.5716 37.483 54.572 37.3905 54.5724C37.0881 54.5736 36.7858 54.574 36.4834 54.5745C36.2673 54.5752 36.0512 54.5759 35.835 54.5767C35.2466 54.5786 34.6582 54.5798 34.0699 54.5807C33.7024 54.5813 33.335 54.582 32.9676 54.5827C31.8186 54.5848 30.6696 54.5864 29.5205 54.5873C28.1932 54.5884 26.8658 54.5913 25.5384 54.5958C24.5132 54.5992 23.4879 54.6008 22.4627 54.6012C21.85 54.6015 21.2373 54.6025 20.6247 54.6053C20.0483 54.6078 19.4719 54.6083 18.8955 54.6072C18.6839 54.6071 18.4723 54.6078 18.2608 54.6093C17.9719 54.6113 17.6831 54.6105 17.3942 54.6091C17.3106 54.6103 17.2269 54.6115 17.1407 54.6128C16.5696 54.6058 16.2518 54.4662 15.8106 54.1095C15.3392 53.6167 15.0369 53.2049 15.0278 52.5074C15.0653 51.8819 15.1864 51.4911 15.588 50.9923C15.6614 50.8821 15.7349 50.7718 15.8106 50.6583C15.7523 50.5629 15.7523 50.5629 15.6928 50.4656C15.1329 49.4681 15.0202 48.5106 15.2748 47.395C15.6559 46.0987 16.3358 45.0985 17.5179 44.3991C17.7032 44.3126 17.7032 44.3126 17.9258 44.3126C17.9207 44.2078 17.9155 44.1031 17.9102 43.9951C17.8772 42.8584 17.8772 42.8584 18.1137 42.3504C18.5427 41.9098 18.9104 41.6365 19.4844 41.418C19.4944 41.3342 19.5044 41.2504 19.5147 41.1641C19.8444 38.4579 20.4589 35.9306 21.2912 33.3375C22.3743 29.9508 22.8303 26.5881 23.0469 23.0489C22.9797 23.0299 22.9125 23.0109 22.8432 22.9913C22.325 22.8339 21.9515 22.7158 21.6066 22.2766C21.5459 22.2021 21.4852 22.1276 21.4227 22.0509C20.9525 21.3722 20.9645 20.7435 21.043 19.9317C21.1851 19.4425 21.3644 19.1296 21.7806 18.8323C22.1431 18.508 22.1452 18.216 22.2141 17.7473C22.2676 17.4825 22.2676 17.4825 22.4694 17.2042C22.6626 16.7975 22.5469 16.5471 22.402 16.1326C21.947 15.0488 21.3491 14.1485 20.5977 13.252C19.4669 11.8891 18.7489 10.144 18.7817 8.35707C18.8445 7.74814 19.1135 7.47926 19.561 7.09419C20.0913 6.82404 20.5967 6.7031 21.1822 6.86371C21.3977 6.94689 21.6102 7.03755 21.8223 7.12898C21.9325 7.12898 22.0428 7.12898 22.1563 7.12898C22.3185 6.96508 22.3185 6.96508 22.4764 6.74629C24.7069 4.10345 28.7676 3.83567 31.5079 5.79304ZM24.8282 6.795C24.9195 6.81652 25.0107 6.83805 25.1048 6.86023C25.2847 6.90371 25.2847 6.90371 25.4683 6.94807C25.5871 6.97649 25.706 7.0049 25.8284 7.03418C26.3764 7.18892 26.3764 7.18892 26.6094 7.35164C26.8309 7.78131 26.9385 8.25817 27.0687 8.72236C27.108 8.862 27.1473 9.00163 27.1878 9.1455C27.2174 9.25155 27.2469 9.3576 27.2774 9.46687C27.4244 9.46687 27.5713 9.46687 27.7227 9.46687C27.7564 9.34475 27.7902 9.22262 27.8249 9.09679C27.8719 8.93485 27.919 8.77293 27.9662 8.61104C27.9881 8.53074 28.01 8.45045 28.0326 8.36772C28.1937 7.82475 28.3734 7.4852 28.836 7.12898C29.1826 7.00156 29.1826 7.00156 29.5388 6.9272C29.6577 6.90122 29.7767 6.87525 29.8993 6.84849C30.0342 6.82201 30.0342 6.82201 30.1719 6.795C28.7549 5.6395 26.2452 5.6395 24.8282 6.795ZM31.6192 8.01961C31.7305 8.24226 31.7305 8.24226 31.7305 8.24226L31.6192 8.01961ZM23.1583 8.24226C23.0113 8.49943 22.8644 8.7566 22.713 9.02156C22.8638 9.30397 22.8638 9.30397 23.0469 9.5782C23.1204 9.5782 23.1939 9.5782 23.2696 9.5782C23.3844 9.23366 23.3781 9.07429 23.3322 8.72236C23.3152 8.58739 23.3152 8.58739 23.2979 8.4497C23.2885 8.38124 23.2792 8.31279 23.2696 8.24226C23.2329 8.24226 23.1961 8.24226 23.1583 8.24226ZM20.4864 8.24226C20.2882 8.47176 20.2882 8.47176 20.1524 8.7989C20.2034 9.10748 20.2645 9.35068 20.3681 9.64082C20.3948 9.71934 20.4214 9.79786 20.4489 9.87875C20.8399 10.9954 21.3032 11.8765 22.1224 12.7371C23.0154 13.7543 23.5515 15.0144 24.0489 16.2579C26.3267 16.2579 28.6044 16.2579 30.9512 16.2579C31.2084 15.6701 31.4656 15.0823 31.7305 14.4766C32.2162 13.6602 32.6859 12.9585 33.31 12.2501C34.1108 11.315 34.7722 9.9384 34.8477 8.68757C34.6998 8.42869 34.6998 8.42869 34.5137 8.24226C34.2409 8.286 34.2409 8.286 33.9571 8.46492C33.7852 8.75969 33.6791 9.07565 33.5674 9.39729C33.1998 10.4457 33.1998 10.4457 32.6212 10.8028C32.209 10.9402 31.8255 10.9644 31.3965 10.9141C31.0765 10.7471 31.0765 10.7471 30.8399 10.5802C30.7664 10.5802 30.693 10.5802 30.6172 10.5802C30.3722 9.96318 30.2469 9.45833 30.3041 8.79281C30.2999 8.56536 30.2999 8.56536 30.1441 8.37359C29.9569 8.22442 29.9569 8.22442 29.7231 8.22313C29.3596 8.43951 29.3246 8.82869 29.2256 9.21638C29.0721 9.80502 28.9357 10.2398 28.502 10.6915C28.0477 10.9565 27.5692 10.9778 27.0547 10.9141C26.4667 10.7106 26.2524 10.4403 25.9415 9.91218C25.8006 9.50601 25.8006 9.50601 25.691 9.09114C25.6537 8.95251 25.6164 8.81388 25.5779 8.67105C25.5509 8.56629 25.524 8.46153 25.4962 8.35359C25.2916 8.2676 25.2916 8.2676 25.0508 8.24226C24.8442 8.36421 24.8442 8.36421 24.7169 8.57625C24.689 8.79709 24.689 8.79709 24.7169 9.03547C24.7342 9.59294 24.6528 10.086 24.3829 10.5802C24.0976 10.7471 24.0976 10.7471 23.8262 10.8028C23.716 10.8579 23.716 10.8579 23.6036 10.9141C22.9831 10.9555 22.5753 10.9417 22.045 10.5802C21.5901 10.0563 21.4174 9.43279 21.2035 8.77977C21.0699 8.44258 21.0699 8.44258 20.7469 8.3101C20.6179 8.27652 20.6179 8.27652 20.4864 8.24226ZM31.7305 8.24226C31.7088 8.42307 31.6882 8.60401 31.6679 8.78499C31.6563 8.88573 31.6447 8.98647 31.6327 9.09027C31.5973 9.35738 31.5973 9.35738 31.7305 9.5782C31.9963 9.47534 32.1436 9.412 32.2872 9.16072C32.2872 8.76704 32.0759 8.54518 31.8419 8.24226C31.8051 8.24226 31.7684 8.24226 31.7305 8.24226ZM23.6036 18.0391C23.6036 18.1126 23.6036 18.1861 23.6036 18.2618C26.1753 18.2618 28.7469 18.2618 31.3965 18.2618C31.2296 17.8165 31.2296 17.8165 30.9512 17.7052C30.7342 17.6933 30.5168 17.6886 30.2994 17.6872C30.1627 17.6861 30.0259 17.6851 29.8851 17.684C29.7351 17.6834 29.5852 17.683 29.4353 17.6825C29.2819 17.6819 29.1285 17.6813 28.9752 17.6806C28.6534 17.6794 28.3317 17.6788 28.0099 17.6784C27.5978 17.6778 27.1858 17.6751 26.7738 17.672C26.4569 17.6699 26.14 17.6693 25.8231 17.6691C25.6712 17.6688 25.5193 17.6679 25.3675 17.6664C25.1548 17.6645 24.9422 17.665 24.7295 17.6655C24.6086 17.6651 24.4876 17.6647 24.363 17.6642C24.0105 17.7102 23.8545 17.7906 23.6036 18.0391ZM22.713 19.9317C22.4368 20.3459 22.4387 20.5549 22.4903 21.045C22.6982 21.3083 22.86 21.4525 23.1583 21.6016C23.4338 21.6149 23.7064 21.6215 23.9821 21.6231C24.1094 21.6245 24.1094 21.6245 24.2394 21.6259C24.521 21.6286 24.8027 21.6305 25.0843 21.6321C25.1805 21.6327 25.2766 21.6333 25.3756 21.6339C25.8844 21.6369 26.3933 21.639 26.9021 21.6406C27.4277 21.6425 27.9533 21.6475 28.4789 21.6531C28.8829 21.6569 29.287 21.6582 29.6911 21.6588C29.8849 21.6595 30.0786 21.6612 30.2724 21.6639C30.5437 21.6674 30.8148 21.6674 31.0862 21.6666C31.206 21.6693 31.206 21.6693 31.3283 21.6721C31.7566 21.6668 31.9405 21.6116 32.2813 21.3436C32.5389 21.0543 32.5389 21.0543 32.5794 20.6553C32.4922 20.1673 32.3414 20.009 31.9532 19.7091C31.5541 19.566 31.1543 19.5821 30.7339 19.5798C30.6569 19.5792 30.5799 19.5787 30.5006 19.5781C30.2465 19.5765 29.9924 19.5757 29.7384 19.5751C29.5612 19.5745 29.3839 19.5738 29.2067 19.5732C28.8353 19.572 28.4639 19.5714 28.0924 19.571C27.6178 19.5704 27.1432 19.5677 26.6685 19.5645C26.3024 19.5625 25.9363 19.5619 25.5702 19.5617C25.3953 19.5614 25.2204 19.5605 25.0455 19.559C24.8001 19.5571 24.5548 19.5573 24.3095 19.558C24.1005 19.5574 24.1005 19.5574 23.8873 19.5568C23.4182 19.6054 23.1295 19.7126 22.713 19.9317ZM24.4942 23.0489C24.4666 23.5357 24.4391 24.0225 24.4107 24.524C24.1685 28.2635 23.3703 31.7616 22.2222 35.3137C21.8835 36.3653 21.58 37.4107 21.3631 38.4957C21.3317 38.6513 21.3317 38.6513 21.2997 38.8101C21.1384 39.6865 21.1033 40.5139 21.043 41.418C25.3047 41.418 29.5663 41.418 33.9571 41.418C33.8666 39.9675 33.8666 39.9675 33.6509 38.5444C33.6285 38.4312 33.6061 38.3181 33.5831 38.2015C33.3233 36.9871 32.9462 35.8101 32.5724 34.627C31.3596 30.7867 30.7337 27.0722 30.5059 23.0489C28.5221 23.0489 26.5382 23.0489 24.4942 23.0489ZM19.5025 43.0167C19.3228 43.2703 19.3412 43.4526 19.3731 43.7559C19.5682 43.951 19.8408 43.8813 20.1057 43.8814C20.308 43.8819 20.308 43.8819 20.5144 43.8824C20.6653 43.8821 20.8161 43.8819 20.9669 43.8817C21.1247 43.8818 21.2825 43.882 21.4403 43.8823C21.8699 43.8828 22.2996 43.8826 22.7292 43.8822C23.1779 43.8819 23.6266 43.8822 24.0752 43.8824C24.8288 43.8826 25.5824 43.8823 26.336 43.8818C27.2085 43.8812 28.081 43.8814 28.9535 43.882C29.7013 43.8825 30.449 43.8826 31.1968 43.8823C31.644 43.8821 32.0912 43.8821 32.5384 43.8824C32.9587 43.8828 33.3791 43.8825 33.7994 43.8819C33.9541 43.8817 34.1088 43.8818 34.2635 43.882C34.4738 43.8823 34.6841 43.8819 34.8944 43.8814C35.0124 43.8814 35.1304 43.8813 35.2519 43.8813C35.5108 43.897 35.5108 43.897 35.627 43.7559C35.6589 43.4526 35.6773 43.2703 35.4976 43.0167C35.2127 42.8059 35.0161 42.8233 34.6634 42.8229C34.5323 42.822 34.4012 42.821 34.2661 42.82C34.0501 42.8211 34.0501 42.8211 33.8297 42.8221C33.6766 42.8216 33.5236 42.821 33.3705 42.8203C32.9546 42.8188 32.5388 42.8194 32.1229 42.8204C31.688 42.8213 31.2531 42.8205 30.8182 42.82C30.0879 42.8194 29.3575 42.8202 28.6271 42.8218C27.7823 42.8236 26.9376 42.823 26.0927 42.8212C25.3678 42.8196 24.643 42.8194 23.9181 42.8203C23.4849 42.8208 23.0518 42.8209 22.6186 42.8198C22.2115 42.8188 21.8043 42.8195 21.3971 42.8214C21.1761 42.8221 20.9551 42.8211 20.734 42.82C20.5374 42.8215 20.5374 42.8215 20.3367 42.8229C20.2225 42.823 20.1083 42.8232 19.9907 42.8233C19.7035 42.8431 19.7035 42.8431 19.5025 43.0167ZM17.4805 46.3165C16.8738 47.043 16.5447 47.7579 16.5969 48.71C16.6887 49.3559 17.0249 49.8686 17.4805 50.3243C17.8365 50.3597 17.8365 50.3597 18.2643 50.3556C18.3868 50.3566 18.3868 50.3566 18.5117 50.3576C18.7866 50.3595 19.0615 50.3598 19.3365 50.3602C19.5331 50.3612 19.7296 50.3623 19.9262 50.3635C20.4612 50.3664 20.9962 50.3679 21.5312 50.3689C21.8653 50.3695 22.1994 50.3704 22.5335 50.3714C23.5782 50.3745 24.6229 50.3766 25.6676 50.3775C26.8745 50.3785 28.0815 50.3824 29.2884 50.3888C30.2206 50.3937 31.1529 50.3959 32.0851 50.3962C32.6422 50.3964 33.1993 50.3978 33.7564 50.4017C34.2805 50.4054 34.8044 50.4059 35.3285 50.4039C35.5209 50.4038 35.7133 50.4047 35.9057 50.4069C36.1684 50.4097 36.4307 50.4084 36.6934 50.4061C36.7696 50.4079 36.8458 50.4097 36.9243 50.4116C37.2276 50.4053 37.4556 50.3794 37.6896 50.1779C38.1946 49.5825 38.4519 49.0061 38.4102 48.223C38.2688 47.2539 37.8338 46.5241 37.0725 45.916C36.385 45.4301 35.7782 45.3012 34.9498 45.2989C34.7456 45.2979 34.7456 45.2979 34.5374 45.297C34.3875 45.2968 34.2376 45.2967 34.0877 45.2966C33.9291 45.2961 33.7705 45.2955 33.6119 45.2949C33.1817 45.2935 32.7516 45.2927 32.3214 45.2922C32.0524 45.2919 31.7833 45.2915 31.5143 45.291C30.6716 45.2894 29.8289 45.2884 28.9861 45.2879C28.015 45.2874 27.0439 45.2855 26.0728 45.2823C25.3211 45.2798 24.5693 45.2787 23.8176 45.2786C23.3691 45.2785 22.9207 45.2778 22.4722 45.2758C22.05 45.274 21.6279 45.2737 21.2057 45.2747C21.0514 45.2748 20.897 45.2743 20.7427 45.2732C19.4657 45.2646 18.4256 45.4013 17.4805 46.3165ZM16.7012 51.8829C16.5315 52.2225 16.448 52.4284 16.5412 52.8013C16.7577 53.0649 16.9319 53.1163 17.2579 53.2188C17.5424 53.2394 17.8145 53.2489 18.0987 53.2471C18.1825 53.2474 18.2662 53.2478 18.3525 53.2482C18.6325 53.249 18.9126 53.2483 19.1926 53.2476C19.3936 53.2479 19.5946 53.2483 19.7956 53.2488C20.3412 53.2498 20.8868 53.2494 21.4324 53.2487C22.0033 53.2482 22.5741 53.2487 23.145 53.249C24.1037 53.2495 25.0624 53.2489 26.0212 53.2479C27.1297 53.2466 28.2382 53.247 29.3467 53.2483C30.2983 53.2493 31.2499 53.2494 32.2015 53.2488C32.77 53.2485 33.3384 53.2484 33.9068 53.2492C34.4412 53.2498 34.9755 53.2494 35.5099 53.2481C35.7061 53.2478 35.9022 53.2479 36.0984 53.2484C36.3661 53.249 36.6337 53.2482 36.9014 53.2471C36.9791 53.2476 37.0568 53.2481 37.1369 53.2486C37.5706 53.2451 37.9158 53.2067 38.2989 52.9962C38.4687 52.6566 38.5522 52.4507 38.4589 52.0777C38.2424 51.8142 38.0683 51.7628 37.7422 51.6602C37.4577 51.6396 37.1857 51.6301 36.9014 51.632C36.8177 51.6316 36.7339 51.6313 36.6477 51.6309C36.3676 51.63 36.0876 51.6307 35.8075 51.6314C35.6065 51.6311 35.4055 51.6307 35.2045 51.6302C34.6589 51.6292 34.1133 51.6296 33.5677 51.6303C32.9969 51.6309 32.426 51.6304 31.8551 51.63C30.8964 51.6296 29.9377 51.6301 28.979 51.6312C27.8705 51.6324 26.762 51.632 25.6534 51.6308C24.7018 51.6298 23.7502 51.6296 22.7986 51.6302C22.2302 51.6306 21.6618 51.6306 21.0933 51.6299C20.559 51.6292 20.0246 51.6297 19.4902 51.631C19.2941 51.6313 19.0979 51.6312 18.9017 51.6307C18.634 51.6301 18.3664 51.6309 18.0987 51.632C18.021 51.6315 17.9433 51.631 17.8633 51.6305C17.4295 51.6339 17.0843 51.6724 16.7012 51.8829Z" fill="#FC4727"/>
<path d="M28.2872 0.306665C28.8349 0.600661 29.1966 0.974339 29.3927 1.56259C29.4489 2.14901 29.4675 2.63487 29.2048 3.16988C28.667 3.76583 28.2009 4.07824 27.3888 4.12313C26.685 4.0327 26.2693 3.74397 25.8406 3.19032C25.502 2.68844 25.5626 2.14966 25.6075 1.56259C25.8038 0.973744 26.1209 0.694216 26.6095 0.337976C27.1485 0.158324 27.7435 0.117892 28.2872 0.306665ZM27.2775 1.67391C27.0249 1.87794 27.0249 1.87794 27.0339 2.18185C27.0247 2.4473 27.0247 2.4473 27.1661 2.56454C27.3887 2.56908 27.6115 2.56927 27.8341 2.56454C27.9096 2.24161 27.9096 2.24161 27.9454 1.89657C27.872 1.82309 27.7985 1.74962 27.7228 1.67391C27.5758 1.67391 27.4289 1.67391 27.2775 1.67391Z" fill="#FC4727"/>
<path d="M27.9455 11.5819C28.1682 11.8046 28.1682 11.8046 28.2169 12.1873C28.1682 12.5839 28.1682 12.5839 27.9316 12.8135C27.5239 12.9465 27.3288 12.8654 26.9436 12.6952C26.8044 11.9577 26.8044 11.9577 27.0549 11.5819C27.4249 11.4586 27.5772 11.4781 27.9455 11.5819Z" fill="#FC4727"/>
<path d="M24.049 11.5821C24.3347 12.0107 24.253 12.2039 24.1603 12.6953C23.7751 12.8656 23.5799 12.9466 23.1722 12.8136C22.9357 12.584 22.9357 12.584 22.873 12.1944C22.9357 11.8047 22.9357 11.8047 23.1166 11.5821C23.474 11.4315 23.6815 11.4702 24.049 11.5821Z" fill="#FC4727"/>
<path d="M31.842 11.582C32.0508 11.7768 32.0508 11.7768 32.176 12.0273C32.1674 12.3807 32.1091 12.533 31.8768 12.7996C31.6194 12.9179 31.6194 12.9179 31.2645 12.8344C30.9514 12.6953 30.9514 12.6953 30.8401 12.5839C30.8053 12.2082 30.8053 12.2082 30.8401 11.8046C31.1516 11.4354 31.3994 11.4117 31.842 11.582Z" fill="#FC4727"/>
</g>
<defs>
<clipPath id="clip0_604_49">
<rect width="55" height="55" fill="white"/>
</clipPath>
</defs>
</svg>
