<svg width="55" height="55" viewBox="0 0 55 55" fill="none" xmlns="http://www.w3.org/2000/svg">
<g clip-path="url(#clip0_604_40)">
<path d="M15.0389 1.98049C15.2102 1.97804 15.2102 1.97804 15.3851 1.97555C15.9078 1.97104 16.4305 1.96682 16.9532 1.96452C17.2292 1.96317 17.5051 1.96034 17.781 1.95619C18.1782 1.95022 18.5754 1.94841 18.9727 1.94692C19.0961 1.94462 19.2194 1.94231 19.3465 1.93994C20.1984 1.94208 20.1984 1.94208 20.6045 2.22557C20.967 2.77931 21.0212 3.20948 21.0123 3.8651C21.012 3.94554 21.0117 4.02597 21.0114 4.10885C21.0103 4.36444 21.0077 4.61999 21.0051 4.87557C21.0041 5.0494 21.0032 5.22323 21.0024 5.39707C21.0003 5.82206 20.9963 6.24696 20.9924 6.67195C21.7298 6.67195 22.4671 6.67195 23.2268 6.67195C23.2233 6.39925 23.2197 6.12654 23.2161 5.84557C23.2137 5.5807 23.2119 5.31582 23.2101 5.05095C23.2085 4.86722 23.2065 4.6835 23.2038 4.49979C23.2001 4.23532 23.1984 3.9709 23.1971 3.70641C23.1955 3.62461 23.1939 3.54281 23.1923 3.45854C23.1921 2.98911 23.2246 2.68364 23.5315 2.30477C23.8335 2.00599 24.0786 1.96385 24.4983 1.95766C24.572 1.95812 24.6457 1.95857 24.7217 1.95904C24.8394 1.958 24.8394 1.958 24.9595 1.95693C25.2187 1.95507 25.4778 1.95547 25.7369 1.95604C25.9173 1.95558 26.0976 1.95504 26.278 1.95443C26.656 1.95352 27.0339 1.95377 27.4119 1.95478C27.8959 1.95595 28.3799 1.95389 28.864 1.95093C29.2365 1.94906 29.6089 1.94909 29.9814 1.94967C30.1599 1.94969 30.3383 1.94907 30.5168 1.94781C30.7665 1.9463 31.016 1.94738 31.2657 1.94913C31.3392 1.94814 31.4127 1.94716 31.4885 1.94615C31.9789 1.9533 32.2238 2.06216 32.5706 2.40633C32.8593 2.78514 32.7993 3.24145 32.7935 3.69649C32.7932 3.78158 32.7929 3.86667 32.7927 3.95433C32.7915 4.22546 32.789 4.49655 32.7864 4.76766C32.7854 4.95174 32.7844 5.13582 32.7836 5.3199C32.7815 5.77061 32.7776 6.22124 32.7737 6.67195C33.511 6.67195 34.2484 6.67195 35.0081 6.67195C35.0045 6.40776 35.001 6.14356 34.9973 5.87136C34.995 5.61421 34.9931 5.35707 34.9913 5.09992C34.9898 4.92181 34.9877 4.74371 34.9851 4.56562C34.9814 4.30896 34.9796 4.05236 34.9783 3.79567C34.9767 3.71662 34.9752 3.63757 34.9735 3.55612C34.9734 3.06467 35.0358 2.72772 35.3127 2.30477C35.6339 2.00509 35.8541 1.96142 36.2885 1.95904C36.4027 1.95776 36.5169 1.95647 36.6346 1.95514C36.7576 1.95544 36.8805 1.95574 37.0072 1.95604C37.1339 1.95551 37.2606 1.95498 37.3912 1.95443C37.6592 1.95378 37.9271 1.95377 38.1951 1.95478C38.5378 1.95594 38.8803 1.95389 39.223 1.95093C39.5508 1.94861 39.8786 1.94931 40.2064 1.9497C40.3291 1.94855 40.4519 1.94741 40.5783 1.94624C40.6929 1.94719 40.8074 1.94814 40.9254 1.94913C41.0259 1.94914 41.1264 1.94916 41.23 1.94918C41.59 2.01507 41.7562 2.15217 42.0159 2.40633C42.2122 2.72335 42.2448 2.9653 42.2462 3.33544C42.2475 3.49391 42.2475 3.49391 42.2488 3.65557C42.2487 3.77092 42.2486 3.88626 42.2485 4.0051C42.2492 4.12701 42.2499 4.24893 42.2506 4.37453C42.2522 4.70861 42.2528 5.04267 42.253 5.37675C42.2531 5.5856 42.2536 5.79446 42.2541 6.00331C42.256 6.73234 42.2568 7.46136 42.2566 8.19038C42.2565 8.8693 42.2587 9.54819 42.2619 10.2271C42.2645 10.8105 42.2656 11.394 42.2655 11.9774C42.2654 12.3256 42.266 12.6738 42.2682 13.022C42.2701 13.4105 42.2696 13.799 42.2683 14.1875C42.2695 14.3025 42.2706 14.4174 42.2718 14.5358C42.2668 15.1618 42.2355 15.541 41.8128 16.0157C41.4579 16.2905 41.0489 16.2421 40.6194 16.2315C40.5486 16.2306 40.4777 16.2297 40.4048 16.2287C40.2308 16.2264 40.057 16.2227 39.8831 16.2188C39.8847 16.3295 39.8863 16.4401 39.8879 16.5541C39.8934 16.9664 39.8969 17.3786 39.8998 17.7909C39.9013 17.969 39.9034 18.1471 39.906 18.3252C39.9098 18.5818 39.9115 18.8384 39.9128 19.0951C39.9144 19.1742 39.916 19.2532 39.9176 19.3347C39.9177 19.8275 39.8466 20.1569 39.5784 20.586C39.1006 21.019 38.6319 21.0062 38.0157 21.0022C37.9327 21.002 37.8497 21.0019 37.7642 21.0018C37.4993 21.0012 37.2344 20.9999 36.9695 20.9986C36.7898 20.9981 36.6102 20.9976 36.4305 20.9972C35.9902 20.9961 35.5499 20.9944 35.1096 20.9923C35.4363 31.5377 35.4363 31.5377 38.99 41.3756C39.2737 41.8943 39.2737 41.8943 39.2737 42.1173C39.332 42.1157 39.3904 42.1141 39.4505 42.1124C39.7174 42.1061 39.9843 42.1021 40.2512 42.0982C40.3889 42.0944 40.3889 42.0944 40.5293 42.0905C41.0627 42.0846 41.4682 42.0946 41.9143 42.422C42.2421 42.9335 42.2601 43.3488 42.2488 43.9351C42.2483 44.0199 42.2479 44.1047 42.2474 44.192C42.2458 44.4611 42.2419 44.7301 42.238 44.9991C42.2365 45.1823 42.2351 45.3654 42.2339 45.5486C42.2305 45.996 42.2253 46.4433 42.219 46.8907C42.3292 46.8848 42.4395 46.8789 42.553 46.8729C42.6998 46.8681 42.8466 46.8635 42.9934 46.859C43.0658 46.8547 43.1382 46.8505 43.2128 46.8461C43.624 46.8366 43.8708 46.8697 44.1955 47.1339C44.5457 47.4933 44.5681 47.6489 44.5745 48.1371C44.577 48.305 44.577 48.305 44.5795 48.4762C44.584 48.9886 44.5882 49.501 44.5905 50.0135C44.5918 50.2838 44.5949 50.554 44.5988 50.8244C44.6044 51.2138 44.6066 51.6032 44.6081 51.9926C44.6116 52.1736 44.6116 52.1736 44.6151 52.3582C44.6127 53.2939 44.6127 53.2939 44.3104 53.6685C43.9508 53.9827 43.7924 54.0128 43.3256 54.0134C43.2151 54.0138 43.1046 54.0142 42.9908 54.0146C42.8073 54.0145 42.8073 54.0145 42.62 54.0143C42.4908 54.0146 42.3616 54.0149 42.2285 54.0153C41.8686 54.0161 41.5088 54.0163 41.1489 54.0163C40.7613 54.0165 40.3736 54.0173 39.986 54.018C39.1378 54.0194 38.2897 54.02 37.4415 54.0204C36.9122 54.0207 36.3828 54.0211 35.8535 54.0216C34.3887 54.0228 32.9238 54.0239 31.459 54.0242C31.3652 54.0242 31.2714 54.0242 31.1748 54.0243C31.0807 54.0243 30.9867 54.0243 30.8898 54.0243C30.6993 54.0244 30.5088 54.0244 30.3182 54.0245C30.2237 54.0245 30.1292 54.0245 30.0318 54.0245C28.4999 54.0249 26.9681 54.0267 25.4362 54.0291C23.8645 54.0315 22.2927 54.0328 20.721 54.0329C19.8381 54.033 18.9552 54.0336 18.0724 54.0354C17.3206 54.037 16.5689 54.0375 15.8172 54.0366C15.4335 54.0362 15.0498 54.0364 14.6661 54.0378C14.2505 54.0393 13.8348 54.0385 13.4192 54.0374C13.2975 54.0382 13.1758 54.039 13.0505 54.0399C12.9392 54.0392 12.8279 54.0385 12.7133 54.0379C12.5694 54.0379 12.5694 54.0379 12.4225 54.038C12.1023 53.9923 11.9107 53.8818 11.6487 53.6954C11.4287 53.3818 11.4186 53.1077 11.4144 52.7306C11.4128 52.6187 11.4112 52.5069 11.4095 52.3916C11.409 52.2712 11.4084 52.1508 11.4079 52.0268C11.4069 51.9025 11.406 51.7783 11.4051 51.6503C11.4036 51.3876 11.4027 51.1248 11.4023 50.862C11.4011 50.4603 11.3961 50.0588 11.391 49.6571C11.39 49.4017 11.3893 49.1464 11.3888 48.891C11.3868 48.771 11.3849 48.651 11.3828 48.5274C11.3879 47.5975 11.3879 47.5975 11.6903 47.2227C12.1172 46.8487 12.4361 46.8782 12.9817 46.8844C13.0583 46.8848 13.1349 46.8853 13.2138 46.8857C13.403 46.8869 13.5923 46.8888 13.7815 46.8907C13.7799 46.7734 13.7783 46.656 13.7767 46.5352C13.7711 46.0989 13.7676 45.6626 13.7648 45.2263C13.7632 45.0377 13.7611 44.849 13.7585 44.6604C13.7548 44.3888 13.7531 44.1174 13.7517 43.8458C13.7494 43.7198 13.7494 43.7198 13.747 43.5912C13.7468 43.1167 13.7775 42.8069 14.0862 42.422C14.5344 42.1068 14.8667 42.1054 15.3889 42.1373C16.134 42.1794 16.134 42.1794 16.7906 41.8822C17.0917 41.505 17.2708 41.0694 17.4462 40.6231C17.5354 40.4004 17.6349 40.1875 17.7412 39.9726C20.2282 34.8618 20.6467 28.9452 20.7438 23.3528C20.7491 23.0574 20.7549 22.7619 20.7607 22.4665C20.7621 22.3768 20.7635 22.2871 20.7649 22.1947C20.7733 21.782 20.7889 21.3949 20.8909 20.9923C20.7249 20.9947 20.7249 20.9947 20.5556 20.9971C20.1433 21.0026 19.7311 21.0061 19.3188 21.009C19.1407 21.0105 18.9626 21.0126 18.7845 21.0153C18.5279 21.019 18.2713 21.0207 18.0146 21.022C17.9355 21.0236 17.8565 21.0252 17.775 21.0268C17.2844 21.0269 16.9405 20.9734 16.5237 20.6876C16.085 20.1965 16.0616 19.8002 16.0778 19.1745C16.0783 19.0897 16.0789 19.0049 16.0795 18.9175C16.0818 18.6484 16.0869 18.3795 16.092 18.1104C16.0941 17.9273 16.0959 17.7441 16.0976 17.561C16.1021 17.1135 16.1091 16.6662 16.1174 16.2188C16.0145 16.2235 15.9116 16.2283 15.8056 16.2331C15.6683 16.2369 15.5311 16.2406 15.3938 16.2442C15.3262 16.2476 15.2587 16.251 15.1891 16.2545C14.6674 16.2648 14.38 16.1481 13.9846 15.8126C13.7849 15.4966 13.7555 15.2501 13.7537 14.8796C13.7526 14.7731 13.7516 14.6666 13.7506 14.5569C13.7505 14.4406 13.7504 14.3243 13.7504 14.2045C13.7495 14.0816 13.7487 13.9587 13.7478 13.8321C13.7458 13.4952 13.7447 13.1585 13.7442 12.8217C13.7438 12.6111 13.7432 12.4005 13.7424 12.19C13.74 11.455 13.7386 10.7201 13.7383 9.98513C13.7379 9.30067 13.7349 8.61625 13.7306 7.9318C13.7271 7.34363 13.7255 6.75547 13.7255 6.16729C13.7254 5.81622 13.7245 5.4652 13.7216 5.11415C13.7184 4.72246 13.7193 4.33084 13.7206 3.93914C13.7191 3.82326 13.7176 3.70738 13.7161 3.58798C13.7242 2.71131 13.7242 2.71131 14.0265 2.33592C14.3918 2.01027 14.5596 1.9867 15.0389 1.98049ZM16.219 4.43758C16.219 7.52102 16.219 10.6045 16.219 13.7813C23.9946 13.7813 31.7702 13.7813 39.7815 13.7813C39.7815 10.6979 39.7815 7.61445 39.7815 4.43758C39.0106 4.43758 38.2398 4.43758 37.4456 4.43758C37.4429 4.71762 37.4403 4.99766 37.4376 5.28618C37.4337 5.55813 37.4291 5.83005 37.4245 6.10198C37.4216 6.29061 37.4195 6.47926 37.418 6.66791C37.4159 6.9395 37.4111 7.21093 37.4059 7.48247C37.4058 7.56649 37.4056 7.65051 37.4055 7.73708C37.3925 8.25284 37.3275 8.53308 36.9377 8.90633C36.6774 9.03648 36.489 9.02293 36.1975 9.02587C36.0853 9.02717 35.9731 9.02848 35.8575 9.02982C35.7357 9.03057 35.614 9.03132 35.4885 9.03209C35.3014 9.03332 35.3014 9.03332 35.1105 9.03458C34.8461 9.03598 34.5816 9.03707 34.3172 9.03787C33.9126 9.03921 33.5081 9.04408 33.1036 9.04856C32.8469 9.04959 32.5903 9.05045 32.3337 9.05114C32.2126 9.05291 32.0914 9.05469 31.9666 9.05652C31.126 9.05432 31.126 9.05432 30.7192 8.81476C30.3755 8.40756 30.4157 8.024 30.4056 7.51223C30.4037 7.43457 30.4018 7.35691 30.3999 7.27689C30.3929 6.98639 30.3868 6.69587 30.3806 6.40535C30.3586 5.43131 30.3586 5.43131 30.3362 4.43758C28.7945 4.43758 27.2527 4.43758 25.6643 4.43758C25.647 5.68023 25.647 5.68023 25.6341 6.92294C25.6311 7.0797 25.6279 7.23645 25.6246 7.39321C25.6245 7.47342 25.6244 7.55363 25.6243 7.63628C25.6105 8.17098 25.5102 8.48154 25.1565 8.90633C24.8956 9.03677 24.7084 9.0215 24.4163 9.02265C24.3041 9.02329 24.1918 9.02394 24.0762 9.02461C23.8936 9.02478 23.8936 9.02478 23.7072 9.02495C23.5201 9.02546 23.5201 9.02546 23.3292 9.02598C23.0648 9.02649 22.8004 9.02673 22.536 9.02671C22.1314 9.0267 21.7269 9.02878 21.3223 9.0307C21.0657 9.031 20.8091 9.0312 20.5525 9.0313C20.3707 9.03239 20.3707 9.03239 20.1853 9.03351C20.0156 9.03304 20.0156 9.03304 19.8424 9.03256C19.7431 9.03271 19.6438 9.03285 19.5415 9.033C19.2403 9.00556 19.0253 8.9462 18.7581 8.80477C18.542 8.28598 18.5214 7.77785 18.5129 7.2246C18.5109 7.14445 18.5089 7.0643 18.5069 6.98172C18.5009 6.72825 18.4962 6.47477 18.4915 6.22127C18.4876 6.04836 18.4836 5.87545 18.4796 5.70255C18.4697 5.2809 18.4616 4.85927 18.4534 4.43758C17.716 4.43758 16.9787 4.43758 16.219 4.43758ZM18.5549 16.2188C18.5549 16.9562 18.5549 17.6935 18.5549 18.4532C24.7888 18.4532 31.0227 18.4532 37.4456 18.4532C37.4456 17.7159 37.4456 16.9785 37.4456 16.2188C31.2117 16.2188 24.9777 16.2188 18.5549 16.2188ZM23.3284 20.9923C23.3011 21.8385 23.2739 22.6848 23.2459 23.5567C23.0558 28.9348 22.6052 34.2591 20.7004 39.3433C20.6709 39.4228 20.6413 39.5022 20.6108 39.5841C20.2753 40.454 19.8691 41.2671 19.469 42.1173C25.0661 42.1173 30.6632 42.1173 36.4299 42.1173C36.3013 41.7312 36.1806 41.3875 36.0134 41.0231C33.1283 34.6341 32.8809 27.8823 32.6721 20.9923C29.5887 20.9923 26.5052 20.9923 23.3284 20.9923ZM16.219 44.5548C16.219 45.3256 16.219 46.0965 16.219 46.8907C23.9946 46.8907 31.7702 46.8907 39.7815 46.8907C39.7815 46.1198 39.7815 45.349 39.7815 44.5548C32.0059 44.5548 24.2302 44.5548 16.219 44.5548ZM13.8831 49.3282C13.8831 50.0655 13.8831 50.8029 13.8831 51.5626C23.2004 51.5626 32.5178 51.5626 42.1174 51.5626C42.1174 50.8252 42.1174 50.0879 42.1174 49.3282C32.8001 49.3282 23.4827 49.3282 13.8831 49.3282Z" fill="#FC4727"/>
</g>
<defs>
<clipPath id="clip0_604_40">
<rect width="52" height="52" fill="white" transform="translate(2 2)"/>
</clipPath>
</defs>
</svg>
