<svg width="55" height="55" viewBox="0 0 55 55" fill="none" xmlns="http://www.w3.org/2000/svg">
<g clip-path="url(#clip0_604_32)">
<path d="M0 22.2376C0.318868 21.3039 0.526065 20.3126 0.976785 19.4457C3.0501 15.4539 8.12238 14.0077 12.0443 16.2431C12.3551 16.4197 12.5516 16.4786 12.865 16.1936C16.5112 12.8707 21.6857 12.7101 25.5686 15.7776C25.648 15.8405 25.7328 15.8953 25.8619 15.989V10.3931H22.6948V7.19991H25.8808V4H29.0923V7.17182H32.3093V10.365H29.1421V15.9234C33.7327 12.5964 38.1834 12.8011 42.5507 16.4599C43.5853 15.8391 44.7397 15.4111 46.0044 15.2505C50.2331 14.7168 54.3017 17.7628 54.887 21.9661C55.1964 24.1921 54.8291 26.3673 54.2035 28.4983C53.4097 31.2059 51.9983 33.5791 50.1174 35.6821C50.0488 35.7596 49.9842 35.8413 49.8578 35.9951H51.744V39.2084H48.5944V48.8295H51.7521V52.0013H3.25461V48.863H6.4083V39.2418H3.26537V36.0339H5.16243C4.87182 35.6807 4.6552 35.4105 4.43186 35.1456C1.89168 32.1437 0.442648 28.6883 0.080726 24.782C0.0686171 24.6442 0.0282541 24.5105 0 24.374C0 23.6623 0 22.9493 0 22.2376ZM25.8714 36.0165C25.8794 35.8479 25.8888 35.7436 25.8888 35.6406C25.8888 31.4949 25.8915 27.3505 25.8835 23.2048C25.8835 22.8155 25.8364 22.4236 25.7758 22.0383C25.3063 19.0832 22.5239 16.7863 19.4308 16.793C16.3161 16.7983 13.5135 19.1233 13.1099 22.1172C12.7157 25.0362 13.5539 27.6435 15.5384 29.7933C17.4489 31.8628 19.5034 33.7985 21.5041 35.7864C21.6184 35.9001 21.8028 36.0045 21.9548 36.0071C23.241 36.0245 24.5273 36.0165 25.8714 36.0165ZM29.1112 36.0165C30.4135 36.0165 31.6312 36.0339 32.8461 36.0018C33.0963 35.9951 33.4004 35.868 33.5793 35.6941C35.3405 33.9737 37.0707 32.2213 38.8306 30.4996C40.6052 28.7632 41.6385 26.687 41.956 24.2269C42.4673 20.2618 39.4993 16.7903 35.5544 16.793C32.0025 16.7943 29.1381 19.6317 29.1179 23.2209C29.095 27.3478 29.1125 31.4762 29.1125 35.6031C29.1125 35.7235 29.1125 35.8426 29.1125 36.0178L29.1112 36.0165ZM10.6787 19.1501C9.0171 18.2203 7.38374 18.1013 5.7598 18.9829C4.14125 19.8618 3.25864 21.2731 3.23846 23.1058C3.20482 26.1318 3.97441 28.9772 5.71944 31.4628C6.79982 33.0025 8.11028 34.3831 9.33731 35.8172C9.44898 35.9469 9.70865 36.0058 9.8997 36.0071C11.7793 36.0205 13.6588 36.0152 15.5371 36.0152H17.122C16.9323 35.8091 16.822 35.6807 16.7022 35.5617C15.7416 34.6038 14.7782 33.65 13.8176 32.6922C11.5263 30.406 10.1674 27.6769 9.83916 24.4503C9.65349 22.6256 9.90105 20.8718 10.6774 19.1487L10.6787 19.1501ZM37.7758 35.7423C37.8471 35.8212 37.9184 35.9001 37.9897 35.979C38.0206 35.9911 38.0516 36.0125 38.0825 36.0125C40.4626 36.0152 42.844 36.0218 45.2241 36.0045C45.403 36.0045 45.6223 35.8693 45.7515 35.7302C46.4673 34.9583 47.1655 34.1704 47.8598 33.3798C50.3811 30.509 51.7064 27.1686 51.7683 23.356C51.7992 21.435 50.9529 19.9594 49.2738 18.9976C47.7158 18.1053 45.5295 18.2136 44.3576 19.2103C44.476 19.5206 44.6079 19.831 44.7128 20.1507C44.8245 20.4878 44.9429 20.8276 45.0007 21.1754C45.6788 25.2034 44.6307 28.7819 41.9439 31.8186C40.6859 33.2407 39.1723 34.4406 37.7758 35.7409V35.7423ZM9.68713 48.7907H23.607C21.9561 47.152 20.3914 45.5975 18.7567 43.9735C20.3389 42.4043 21.9104 40.8458 23.5168 39.2525H9.68713V48.7907ZM45.3115 39.2606H31.5222L31.424 39.3997C33.0048 40.9555 34.5857 42.51 36.2514 44.1501C34.6799 45.7032 33.1152 47.2496 31.5424 48.8041H45.3115V39.2619V39.2606ZM31.5518 44.0591C30.1875 42.7013 28.8273 41.3475 27.5316 40.0579C26.1996 41.3916 24.834 42.7574 23.5478 44.0444C24.8434 45.3487 26.1956 46.7105 27.5249 48.0469C28.8582 46.7266 30.2117 45.3848 31.5518 44.0577V44.0591Z" fill="#FC4727"/>
<path d="M16.1909 45.6042H13.0386V42.4604H16.1909V45.6042Z" fill="#FC4727"/>
<path d="M38.8159 42.4512H41.9763V45.5895H38.8159V42.4512Z" fill="#FC4727"/>
</g>
<defs>
<clipPath id="clip0_604_32">
<rect width="55" height="48" fill="white" transform="translate(0 4)"/>
</clipPath>
</defs>
</svg>
