<svg width="204" height="65" viewBox="0 0 204 65" fill="none" xmlns="http://www.w3.org/2000/svg">
<path d="M65.0457 55.494V58.7005H68.2229V57.6138L69.3973 57.8574V58.4568C69.3973 59.4071 69.0952 59.6507 68.145 59.6507H65.1285C64.1783 59.6507 63.8762 59.4071 63.8762 58.4568V55.7913C63.8762 54.841 64.1783 54.5974 65.1285 54.5974H68.145C69.0952 54.5974 69.3973 54.841 69.3973 55.7913V56.2737L68.2229 56.4589V55.4989H65.0457V55.494Z" fill="#ED1C24" stroke="#ED1C24" stroke-width="0.25" stroke-miterlimit="10"/>
<path d="M71.8241 54.5925H72.9985V56.5515H76.6727V54.5925H77.8569V59.6507H76.6727V57.4773H72.9985V59.6507H71.8241V54.5925Z" fill="#ED1C24" stroke="#ED1C24" stroke-width="0.25" stroke-miterlimit="10"/>
<path d="M80.4493 54.5925H85.6245V55.455H81.6237V56.5807H83.9579V57.4432H81.6237V58.6956H85.6732V59.6458H80.4493V54.5876V54.5925Z" fill="#ED1C24" stroke="#ED1C24" stroke-width="0.25" stroke-miterlimit="10"/>
<path d="M88.9187 55.4745V56.5612H92.0715C93.0217 56.5612 93.3385 56.8049 93.3385 57.7551V58.4519C93.3385 59.4022 93.0266 59.6458 92.0715 59.6458H88.9479C87.9977 59.6458 87.6809 59.4022 87.6809 58.4519V58.3155L88.7189 58.1011V58.7005H92.2957V57.5456H89.1428C88.1926 57.5456 87.8905 57.3019 87.8905 56.3517V55.7913C87.8905 54.841 88.1926 54.5974 89.1428 54.5974H92.013C92.9145 54.5974 93.2654 54.8313 93.2654 55.7036V55.8108L92.2274 56.0544V55.4745H88.9138H88.9187Z" fill="#ED1C24" stroke="#ED1C24" stroke-width="0.25" stroke-miterlimit="10"/>
<path d="M96.6619 55.4745V56.5612H99.8147C100.765 56.5612 101.082 56.8049 101.082 57.7551V58.4519C101.082 59.4022 100.77 59.6458 99.8147 59.6458H96.6911C95.7409 59.6458 95.4241 59.4022 95.4241 58.4519V58.3155L96.4621 58.1011V58.7005H100.039V57.5456H96.8861C95.9358 57.5456 95.6337 57.3019 95.6337 56.3517V55.7913C95.6337 54.841 95.9358 54.5974 96.8861 54.5974H99.7563C100.658 54.5974 101.009 54.8313 101.009 55.7036V55.8108L99.9707 56.0544V55.4745H96.657H96.6619Z" fill="#ED1C24" stroke="#ED1C24" stroke-width="0.25" stroke-miterlimit="10"/>
<path d="M109.205 54.5925H110.34L113.24 59.6507H111.919L111.31 58.5445H108.104L107.514 59.6507H106.34L109.2 54.5925H109.205ZM110.823 57.6284L109.736 55.572L108.611 57.6284H110.823Z" fill="#190B04" stroke="#190B04" stroke-width="0.25" stroke-miterlimit="10"/>
<path d="M115.75 55.494V58.7005H118.927V57.6138L120.101 57.8574V58.4568C120.101 59.4071 119.799 59.6507 118.849 59.6507H115.832C114.882 59.6507 114.58 59.4071 114.58 58.4568V55.7913C114.58 54.841 114.882 54.5974 115.832 54.5974H118.849C119.799 54.5974 120.101 54.841 120.101 55.7913V56.2737L118.927 56.4589V55.4989H115.75V55.494Z" fill="#190B04" stroke="#190B04" stroke-width="0.25" stroke-miterlimit="10"/>
<path d="M124.238 54.5925H125.374L128.273 59.6507H126.953L126.343 58.5445H123.137L122.547 59.6507H121.373L124.233 54.5925H124.238ZM125.856 57.6284L124.77 55.572L123.644 57.6284H125.856Z" fill="#190B04" stroke="#190B04" stroke-width="0.25" stroke-miterlimit="10"/>
<path d="M129.901 54.5925H133.156C135.047 54.5925 136.046 55.5233 136.046 57.0924C136.046 58.0426 135.631 58.8272 134.93 59.256C134.438 59.5581 133.755 59.6458 132.854 59.6458H129.906V54.5876L129.901 54.5925ZM132.596 58.7005C134.087 58.7005 134.832 58.3301 134.832 57.0729C134.832 56.0447 134.272 55.494 133.166 55.494H131.08V58.7005H132.6H132.596Z" fill="#190B04" stroke="#190B04" stroke-width="0.25" stroke-miterlimit="10"/>
<path d="M138.204 54.5925H143.38V55.455H139.379V56.5807H141.713V57.4432H139.379V58.6956H143.423V59.6458H138.2V54.5876L138.204 54.5925Z" fill="#190B04" stroke="#190B04" stroke-width="0.25" stroke-miterlimit="10"/>
<path d="M145.592 54.5925H146.542L148.925 57.6479L151.259 54.5925H152.2V59.6507H151.113V56.5222C151.113 56.4248 151.123 56.2493 151.152 55.9813C151.045 56.2055 150.947 56.3907 150.86 56.5125L148.959 59.0416H148.725L146.825 56.5027C146.708 56.3468 146.601 56.1811 146.523 55.9813C146.542 56.186 146.552 56.3517 146.552 56.5222V59.6507H145.602V54.5925H145.592Z" fill="#190B04" stroke="#190B04" stroke-width="0.25" stroke-miterlimit="10"/>
<path d="M156.088 57.3847L153.462 54.5925H155.031L156.766 56.532L158.51 54.5925H159.889L157.273 57.3555V59.6507H156.088V57.3847Z" fill="#190B04" stroke="#190B04" stroke-width="0.25" stroke-miterlimit="10"/>
<path d="M182.378 24.3944V38.9891H159.655V24.3944H164.675V33.2194H168.554V24.3944H173.485V33.2194H177.388V24.3944H182.378Z" fill="#190B04"/>
<path d="M181.004 47.5315H160.757C161.458 45.5189 162.16 43.5015 162.862 41.4889H179.352C179.903 43.5015 180.454 45.5189 181.004 47.5315Z" fill="#190B04"/>
<path d="M72.9546 24.2677H79.1044L88.061 47.6582H82.1452L80.6735 43.5795H71.3855L69.9139 47.6582H63.9005L72.9546 24.2677ZM79.4358 39.4374L76.0587 30.1153L72.6184 39.4374H79.4358Z" fill="#190B04"/>
<path d="M90.8971 24.2677H100.721C102.505 24.2677 104.074 24.599 105.433 25.252C106.793 25.9099 107.841 26.8406 108.576 28.0443C109.312 29.2479 109.678 30.627 109.678 32.1863C109.678 33.8578 109.293 35.2953 108.523 36.499C107.753 37.7026 106.656 38.6139 105.229 39.2376L110.409 47.6582H104.161L99.7514 40.105H96.6424V47.6582H90.8922V24.2677H90.8971ZM100.151 35.7631C101.355 35.7631 102.285 35.4659 102.943 34.8762C103.601 34.2866 103.928 33.4533 103.928 32.3861C103.928 31.3189 103.596 30.4808 102.943 29.8814C102.285 29.282 101.355 28.9799 100.151 28.9799H96.5401V35.7631H100.151Z" fill="#190B04"/>
<path d="M117.728 46.5228C115.901 45.4751 114.492 44.0327 113.503 42.1955C112.509 40.3584 112.017 38.2825 112.017 35.9629C112.017 33.6434 112.514 31.6308 113.503 29.7791C114.492 27.9322 115.891 26.4752 117.699 25.4177C119.502 24.3603 121.587 23.8291 123.946 23.8291C127.801 23.8291 131.095 25.3787 133.838 28.4731L130.33 32.1474C129.55 31.1435 128.644 30.3833 127.606 29.857C126.568 29.3356 125.471 29.0725 124.311 29.0725C123.044 29.0725 121.924 29.3649 120.954 29.9399C119.984 30.5198 119.234 31.3336 118.698 32.3813C118.162 33.429 117.899 34.618 117.899 35.9581C117.899 37.2981 118.167 38.5164 118.698 39.5495C119.234 40.5874 119.994 41.3915 120.988 41.9714C121.977 42.5513 123.122 42.8388 124.414 42.8388C126.977 42.8388 129.111 41.757 130.832 39.5982L134.34 43.2725C133.068 44.9001 131.543 46.1086 129.764 46.898C127.981 47.6874 126.075 48.0821 124.048 48.0821C121.665 48.0821 119.56 47.5607 117.733 46.513L117.728 46.5228Z" fill="#190B04"/>
<path d="M151.644 38.4043H142.99V47.6582H137.24V24.2677H142.99V33.122H151.644V24.2677H157.424V47.6582H151.644V38.4043Z" fill="#190B04"/>
<path d="M184.698 24.3944H194.415C196.179 24.3944 197.728 24.7209 199.073 25.369C200.418 26.0171 201.451 26.9381 202.182 28.1271C202.913 29.3161 203.274 30.6854 203.274 32.2253C203.274 33.8773 202.894 35.3002 202.134 36.4892C201.373 37.6782 200.287 38.5846 198.878 39.1986L204 47.5266H197.821L193.46 40.0563H190.385V47.5266H184.698V24.3895V24.3944ZM193.854 35.7631C195.043 35.7631 195.964 35.4708 196.612 34.886C197.261 34.3012 197.587 33.4826 197.587 32.4251C197.587 31.3677 197.261 30.5393 196.612 29.9447C195.964 29.3502 195.043 29.053 193.854 29.053H190.282V35.7631H193.854Z" fill="#190B04"/>
<path d="M92.1592 13.1866H97.2125V14.0297H93.3093V15.131H95.585V15.974H93.3093V17.1971H97.2613V18.1279H92.1592V13.1915V13.1866Z" fill="#190B04" stroke="#190B04" stroke-width="0.25" stroke-miterlimit="10"/>
<path d="M99.0253 14.0733H99.7027L103.138 16.7632V14.0733H104.03V18.1228H103.353L99.9268 15.3939V18.1228H99.0253V14.0733Z" fill="#190B04" stroke="#190B04" stroke-width="0.25" stroke-miterlimit="10"/>
<path d="M105.838 14.0733H106.832V15.6132H109.912V14.0733H110.896V18.1228H109.912V16.4172H106.832V18.1228H105.838V14.0733Z" fill="#190B04" stroke="#190B04" stroke-width="0.25" stroke-miterlimit="10"/>
<path d="M114.502 14.0733H115.447L117.889 18.1228H116.778L116.271 17.231H113.591L113.084 18.1228H112.1L114.502 14.0733ZM115.871 16.4952L114.926 14.8091L114.015 16.4952H115.871Z" fill="#190B04" stroke="#190B04" stroke-width="0.25" stroke-miterlimit="10"/>
<path d="M118.898 14.0733H119.575L123.01 16.7632V14.0733H123.902V18.1228H123.225L119.799 15.3939V18.1228H118.898V14.0733Z" fill="#190B04" stroke="#190B04" stroke-width="0.25" stroke-miterlimit="10"/>
<path d="M126.602 14.8238V17.348H129.262V16.4855L130.257 16.6852V17.1628C130.257 17.9181 129.998 18.1179 129.194 18.1179H126.665C125.851 18.1179 125.613 17.9084 125.613 17.1628V15.0284C125.613 14.2731 125.861 14.0733 126.665 14.0733H129.194C129.998 14.0733 130.257 14.2634 130.257 15.0284V15.4183L129.262 15.5596V14.814H126.602V14.8238Z" fill="#190B04" stroke="#190B04" stroke-width="0.25" stroke-miterlimit="10"/>
<path d="M131.879 14.0733H136.226V14.7896H132.878V15.6717H134.832V16.3685H132.878V17.3626H136.275V18.1179H131.884V14.0684L131.879 14.0733Z" fill="#190B04" stroke="#190B04" stroke-width="0.25" stroke-miterlimit="10"/>
<path d="M143.146 15.9104L140.582 13.1815H142.113L143.808 15.0771L145.514 13.1815H146.864L144.31 15.8812V18.1179H143.151V15.9056L143.146 15.9104Z" fill="#190B04" stroke="#190B04" stroke-width="0.25" stroke-miterlimit="10"/>
<path d="M148.087 14.0733H151.215C152.01 14.0733 152.268 14.2536 152.268 15.0284V17.1628C152.268 17.9279 152.01 18.1179 151.215 18.1179H148.087C147.283 18.1179 147.034 17.9279 147.034 17.1628V15.0284C147.034 14.2536 147.293 14.0733 148.087 14.0733ZM151.284 17.348V14.8238H148.019V17.348H151.284Z" fill="#190B04" stroke="#190B04" stroke-width="0.25" stroke-miterlimit="10"/>
<path d="M154.958 17.3675H157.77V14.0733H158.764V17.1628C158.764 17.9181 158.505 18.1179 157.701 18.1179H155.021C154.217 18.1179 153.969 17.9181 153.969 17.1628V14.0733H154.953V17.3675H154.958Z" fill="#190B04" stroke="#190B04" stroke-width="0.25" stroke-miterlimit="10"/>
<path d="M160.567 14.0733H164.212C164.86 14.0733 165.157 14.2926 165.157 14.8579V15.813C165.157 16.3685 164.86 16.5878 164.212 16.5878H163.656L165.581 18.1179H164.163L162.472 16.5878H161.541V18.1179H160.567V14.0684V14.0733ZM161.541 14.7702V15.8909H163.793C164.09 15.8909 164.241 15.8325 164.241 15.5645V15.0966C164.241 14.8286 164.09 14.7702 163.793 14.7702H161.541Z" fill="#190B04" stroke="#190B04" stroke-width="0.25" stroke-miterlimit="10"/>
<path d="M171.901 14.0636V17.192H175.001V16.1297L176.151 16.3685V16.9533C176.151 17.8791 175.853 18.1228 174.928 18.1228H171.979C171.053 18.1228 170.756 17.884 170.756 16.9533V14.3511C170.756 13.4252 171.053 13.1815 171.979 13.1815H174.928C175.853 13.1815 176.151 13.4203 176.151 14.3511V14.8189L175.001 14.9992V14.0587H171.901V14.0636Z" fill="#190B04" stroke="#190B04" stroke-width="0.25" stroke-miterlimit="10"/>
<path d="M178.163 14.0733H179.157V15.6132H182.237V14.0733H183.221V18.1228H182.237V16.4172H179.157V18.1228H178.163V14.0733Z" fill="#190B04" stroke="#190B04" stroke-width="0.25" stroke-miterlimit="10"/>
<path d="M185.039 14.0733H189.386V14.7896H186.038V15.6717H187.992V16.3685H186.038V17.3626H189.435V18.1179H185.044V14.0684L185.039 14.0733Z" fill="#190B04" stroke="#190B04" stroke-width="0.25" stroke-miterlimit="10"/>
<path d="M191.817 14.8043V15.657H194.449C195.253 15.657 195.501 15.8471 195.501 16.6122V17.1677C195.501 17.923 195.253 18.1228 194.449 18.1228H191.817C191.013 18.1228 190.755 17.923 190.755 17.1677V17.0507L191.637 16.8899V17.3675H194.615V16.4416H191.993C191.199 16.4416 190.931 16.2516 190.931 15.4865V15.0382C190.931 14.2731 191.199 14.0831 191.993 14.0831H194.395C195.141 14.0831 195.458 14.2536 195.458 14.9651V15.0625L194.605 15.2428V14.814H191.822L191.817 14.8043Z" fill="#190B04" stroke="#190B04" stroke-width="0.25" stroke-miterlimit="10"/>
<path d="M197.875 14.8043V15.657H200.506C201.31 15.657 201.559 15.8471 201.559 16.6122V17.1677C201.559 17.923 201.31 18.1228 200.506 18.1228H197.875C197.071 18.1228 196.812 17.923 196.812 17.1677V17.0507L197.694 16.8899V17.3675H200.672V16.4416H198.05C197.256 16.4416 196.988 16.2516 196.988 15.4865V15.0382C196.988 14.2731 197.256 14.0831 198.05 14.0831H200.452C201.198 14.0831 201.515 14.2536 201.515 14.9651V15.0625L200.662 15.2428V14.814H197.879L197.875 14.8043Z" fill="#190B04" stroke="#190B04" stroke-width="0.25" stroke-miterlimit="10"/>
<path d="M28.5126 33.6385C28.5126 33.6385 28.5126 33.6629 28.5126 33.7067" stroke="#F2F2F2" stroke-width="0.5" stroke-miterlimit="10"/>
<path d="M60.353 27.6739C60.353 27.6739 60.6308 34.6082 51.5962 40.3389C42.966 45.8162 41.3969 48.3599 41.2702 48.5743C41.3092 48.2917 42.0986 43.672 49.1645 39.3399C49.1645 39.3399 54.6808 35.2612 56.7226 31.7867C56.7226 31.7867 57.9798 29.7596 58.126 27.8201C58.2917 26.6847 58.5354 24.3797 57.9993 22.0456C57.8921 21.5729 57.7021 20.7542 57.2245 19.765C56.9029 19.0925 56.5131 18.5175 55.9429 17.7573C55.0414 16.5488 53.984 15.4426 52.829 14.4729C50.2658 12.3239 47.4249 10.4965 44.3597 9.15155C42.7126 8.43034 41.0022 7.85045 39.3746 7.08051C36.4362 5.69657 33.4978 3.20645 32.4793 0C32.6742 0.618874 33.9217 1.44729 34.4041 1.87125C35.0717 2.45114 35.7686 3.00179 36.4947 3.51345C37.9712 4.56115 39.5501 5.45292 41.1971 6.20337C44.6813 7.79684 48.3946 8.67886 51.7277 10.6622C53.9401 11.973 55.977 13.6298 57.5656 15.6619C58.3453 16.6609 59.1055 17.5819 59.6464 18.8586C59.7877 19.19 60.124 20.033 60.3676 21.4267C60.6015 22.7375 60.8208 24.8914 60.353 27.6739Z" fill="#190B04"/>
<path d="M33.103 58.4568C30.0477 59.563 26.656 59.6604 23.4447 59.5435C22.3873 59.5094 21.3298 59.3827 20.2821 59.2316C18.6204 58.9928 16.9343 58.7687 15.3457 58.1839C15.2434 58.1498 15.1362 58.1059 15.0339 58.0621C13.5915 57.4481 12.2368 56.2591 12.5974 54.534C12.7582 53.7641 13.2308 53.0867 13.8302 52.5897C14.1372 52.3363 14.4832 52.1268 14.8536 51.9757C15.0923 51.8782 15.721 51.5956 15.9792 51.7028C24.3121 55.1432 32.4501 51.2788 32.4501 51.2788H32.4598C34.1507 51.5761 35.7978 52.9844 36.022 54.7436C36.2608 56.5709 34.6916 57.8818 33.103 58.4568Z" fill="#FFCA40" stroke="#190B04" stroke-width="0.25" stroke-miterlimit="10"/>
<path d="M34.024 21.0563C34.5016 22.4013 34.5844 23.7706 34.5844 23.7706C34.5844 23.7706 34.6283 24.4333 34.5796 24.9791C34.2726 28.3854 30.5788 30.4223 27.5575 30.934C25.5596 31.2702 23.3619 31.2166 21.3737 30.8462C19.4488 30.4856 17.7092 29.6231 16.6566 27.9273C15.6966 26.3826 15.4286 24.4626 15.8574 22.6985C15.9451 22.3282 16.0669 21.9676 16.2131 21.6216C17.4265 18.7222 20.4478 16.734 23.2205 15.545C23.6445 15.3646 24.0733 15.1941 24.507 15.0382C24.5216 15.0284 24.6581 14.9504 24.6727 14.7994C24.6873 14.6678 24.5996 14.5703 24.5704 14.5411C24.4827 14.4436 24.3657 14.4388 24.3072 14.3949C24.1172 14.2536 23.971 14.0538 23.9028 13.8248C23.6104 12.8843 24.317 11.8951 25.1746 11.5637C26.0518 11.2226 26.8412 11.5101 26.9387 11.5491C27.1385 11.6368 27.7281 11.9243 28.0448 12.6163C28.0984 12.7332 28.4201 13.4739 28.0789 14.2536C27.9571 14.5362 27.7866 14.7312 27.6696 14.8481C31.3926 16.9143 33.5172 19.5944 34.0338 21.0515L34.024 21.0563Z" fill="#FFCA40" stroke="#190B04" stroke-width="0.25" stroke-miterlimit="10"/>
<path d="M36.7334 59.9821C37.0746 60.5084 37.401 61.2198 37.1964 61.8874C36.8504 63.0033 35.4177 63.325 34.4236 63.5199C29.0195 64.5871 23.4301 64.7381 17.9479 64.3044C16.603 64.1972 15.258 64.051 13.9472 63.7197C12.8946 63.4565 11.574 63.0716 11.4278 61.7851C11.4083 61.6048 11.3986 61.1467 11.8664 60.5473C11.8664 60.5473 11.2232 58.4276 13.9764 57.4773C14.0934 57.5553 14.2688 57.6723 14.493 57.7941C14.683 57.9013 15.1898 58.1644 16.2278 58.4665C16.5201 58.5494 16.832 58.6322 17.295 58.7297C17.9577 58.8759 18.7374 59.0172 20.2675 59.2219C21.1544 59.3388 21.593 59.3973 22.1339 59.4509C24.4339 59.6751 26.3685 59.5825 27.5575 59.5094C28.2008 59.4704 29.2582 59.3827 30.4034 59.1683C30.4034 59.1683 31.2805 59.0026 32.07 58.7784C32.4159 58.681 32.7376 58.5689 32.7571 58.564C32.9715 58.4909 33.1079 58.4471 33.2882 58.374C33.7901 58.1693 34.141 57.9549 34.2141 57.911C34.3798 57.8087 34.5893 57.6674 34.8135 57.4773C35.866 57.7258 36.6457 58.3886 36.7871 59.1926C36.8163 59.3729 36.8309 59.6409 36.7286 59.9723L36.7334 59.9821Z" fill="#FFCA40" stroke="#190B04" stroke-width="0.25" stroke-miterlimit="10"/>
<path d="M11.8274 60.3768C11.8274 60.3768 20.6914 64.8989 36.7286 59.9821" stroke="#190B04" stroke-width="0.25" stroke-miterlimit="10"/>
<path d="M35.5542 31.1874C35.5542 31.1874 33.2833 33.0635 28.5078 33.7067C28.4785 33.7116 28.4444 33.7165 28.4152 33.7213C25.9446 34.0478 22.8112 34.0429 18.9859 33.2925L15.6186 32.1035C15.6186 32.1035 16.1547 30.2566 18.7666 29.935C18.7666 29.935 23.7371 32.8052 30.5252 30.0666C31.4852 29.6816 32.6304 30.0666 33.4734 30.6708C33.6147 30.7683 33.7512 30.8804 33.9022 30.9681C34.2433 31.1532 34.6283 31.2069 35.023 31.2069C35.1984 31.2069 35.3787 31.1971 35.5542 31.1874Z" fill="#FFCA40" stroke="#190B04" stroke-width="0.25" stroke-miterlimit="10"/>
<path d="M26.3149 25.3154C28.2593 28.6972 30.4229 32.2204 32.8155 35.8314C35.754 40.2609 38.7021 44.3104 41.5821 47.9993L41.7283 47.7118C39.0579 44.2032 36.3387 40.4217 33.6196 36.3674C31.0807 32.5811 28.7612 28.8824 26.6512 25.3154H26.31H26.3149Z" fill="#190B04"/>
<path d="M32.835 0.540905C32.835 0.540905 27.8597 13.5909 26.31 25.3154H26.6512C27.1433 22.299 27.7671 19.1218 28.5516 15.813C29.8576 10.3065 31.4121 5.30185 33.0397 0.823541C32.9715 0.730954 32.9032 0.633492 32.835 0.540905Z" fill="#190B04"/>
<path d="M32.5329 18.7222C32.5329 18.7222 29.151 20.6373 26.5878 24.677" stroke="#190B04" stroke-width="0.5" stroke-miterlimit="10"/>
<path d="M30.1646 24.6429C30.1646 24.6429 30.4083 21.9384 33.4929 20.033" stroke="#190B04" stroke-width="0.5" stroke-miterlimit="10"/>
<path d="M62.0049 27.4839C61.4787 27.6983 60.6503 27.976 59.6123 28.0735C57.3707 28.2782 56.63 27.3913 54.4664 27.4839C53.4674 27.5277 52.5415 27.8542 50.6849 28.5072C48.648 29.2235 47.1812 29.9545 46.7183 30.1835C44.1551 31.4505 42.0743 32.274 37.9225 33.926C29.5945 37.2348 28.6686 36.4648 28.4298 36.192C28.4347 34.9055 28.4932 33.9601 28.5078 33.7067C33.2833 33.0635 35.5542 31.1874 35.5542 31.1874C35.7686 31.1435 36.0707 31.0753 36.4362 30.9924C36.4362 30.9924 37.3718 30.7878 38.1905 30.5782C39.3551 30.2761 40.51 29.9301 41.6503 29.5549C45.7242 28.2099 49.5397 25.9976 53.8134 25.3154C53.8134 25.3154 57.8093 19.2777 60.3579 23.5903C60.3579 23.5903 59.4271 24.37 57.8385 23.678C57.8385 23.678 56.8249 25.7637 59.1981 25.5298C59.51 25.4323 59.7292 25.2861 59.8803 25.1643C60.8793 24.3115 60.5577 22.6985 60.5333 22.5767C61.3958 22.6401 62.0732 23.3662 62.0732 24.2238C62.0732 25.0815 61.4202 25.7783 60.5723 25.8563C61.6395 25.6711 62.4192 26.1194 62.4971 26.597C62.5653 27.0112 62.0927 27.4108 62.0049 27.4839Z" fill="#FFCA40" stroke="#190B04" stroke-width="0.25" stroke-miterlimit="10"/>
<path d="M24.0295 21.4559C24.4332 21.4559 24.7604 21.1287 24.7604 20.725C24.7604 20.3213 24.4332 19.994 24.0295 19.994C23.6258 19.994 23.2985 20.3213 23.2985 20.725C23.2985 21.1287 23.6258 21.4559 24.0295 21.4559Z" fill="#190B04"/>
<path d="M32.4501 51.2788C32.4501 51.2788 24.3121 55.1432 15.9792 51.7028C16.8759 49.8803 17.5191 48.2966 17.9723 47.088C17.9723 47.088 18.6789 45.2022 19.5414 38.609C19.5414 38.5797 19.5512 38.5115 19.517 38.4433C19.4878 38.3897 19.4391 38.3556 19.3903 38.3263C18.7958 37.9316 18.1526 37.6344 17.4996 37.3469C12.4999 35.1686 6.50607 35.1394 2.18857 31.5236C1.35041 30.8219 0.726664 29.7449 1.12138 28.6388C1.3163 28.093 1.72076 27.6447 2.18857 27.3036C4.39118 25.6906 7.40758 25.0863 10.0683 24.8524C12.8751 24.6039 15.6966 24.7793 18.4937 24.9791C18.6155 24.7696 18.7569 24.5698 18.903 24.3749C19.7315 23.2687 20.9936 22.2161 22.4701 22.4452C22.8551 22.5085 23.2254 22.6547 23.5519 22.8691C23.8151 23.0397 24.2585 23.3418 24.2341 23.6975C24.2244 23.8145 24.1562 23.9119 24.0538 23.9655C23.8979 24.0532 23.7127 24.0532 23.5324 24.0386C23.0451 23.9899 22.5676 24.0143 22.09 24.1263C21.8317 24.1848 21.5296 24.3213 21.5052 24.5844C22.1631 24.5016 23.0208 24.5064 23.6299 24.8183C23.9369 24.9743 24.2536 25.3349 24.0928 25.6955C23.9418 26.0366 23.4886 26.0853 23.1182 26.1243C22.7527 26.1584 22.2947 26.3338 22.2898 26.7042C22.5383 26.5823 22.9379 26.4313 23.4447 26.4069C23.7858 26.3923 24.5022 26.3582 24.6776 26.6847C24.8969 27.0891 24.2731 28.0053 23.4788 28.4243C22.3726 29.0042 21.0667 28.5218 20.8328 28.4585C20.0774 28.2489 19.4098 27.8298 18.6691 27.5862C17.6361 27.9419 16.564 28.2879 15.4529 28.6241C13.7961 29.1261 12.188 29.5598 10.6433 29.935C10.9746 30.0373 11.3255 30.1543 11.691 30.2907C12.0662 30.432 12.4219 30.5782 12.7533 30.7244C13.7084 31.1825 14.6635 31.6405 15.6186 32.1035C15.911 32.2448 16.2521 32.3228 16.5542 32.4349C16.9685 32.5859 17.3778 32.737 17.792 32.8832C19.3952 33.4436 21.0472 33.6823 22.7381 33.8188C24.1805 33.9357 25.6619 33.9942 27.1092 33.8578C27.577 33.809 28.04 33.7603 28.5078 33.7067C28.4688 34.4328 28.4493 35.1832 28.4493 35.9532C28.4493 38.8916 28.7709 41.5572 29.2339 43.9011C29.2339 43.9011 30.8273 49.1493 32.4501 51.2788Z" fill="#FFCA40" stroke="#190B04" stroke-width="0.25" stroke-miterlimit="10"/>
<path d="M12.0662 29.6377C10.4191 29.9545 8.65995 30.5344 7.08109 30.7732C8.73304 30.3541 10.3801 29.9106 12.037 29.5159L12.0662 29.6329V29.6377Z" fill="#190B04"/>
<path d="M10.6628 29.8765C14.5173 31.0753 17.8407 33.7749 21.9146 34.2525V34.2963C17.8359 33.848 14.4783 31.163 10.6287 29.9935L10.6628 29.8765Z" fill="#190B04"/>
<path d="M65.3478 18.4444C65.1919 18.3957 65.0311 18.4639 64.9434 18.6101L64.6559 19.0876L29.151 24.6283L28.1715 23.7755L27.0946 23.9412L28.0741 24.794L27.7427 24.8476L26.7632 23.9948L25.6863 24.1605L26.6658 25.0132L26.3344 25.0668L25.3549 24.2141L24.278 24.3797L25.2575 25.2325L25.0869 25.4031L25.3013 25.5152L24.6288 26.6262L25.7058 26.4605L26.3783 25.3495L26.7096 25.2959L26.0372 26.4069L27.1141 26.2412L27.7866 25.1302L28.1179 25.0766L27.4455 26.1876L28.5224 26.022L29.1949 24.9109L64.6997 19.3703L65.1188 19.7357C65.2504 19.8478 65.4209 19.8624 65.5574 19.7747L66.8439 18.8927L65.3527 18.4444H65.3478Z" fill="#190B04"/>
</svg>
