<svg id="Layer_1" data-name="Layer 1" xmlns="http://www.w3.org/2000/svg" width="250" height="65" viewBox="0 0 244.26 56.11"><defs><style>.cls-1{fill:#fff;}</style></defs><path class="cls-1" d="M213.74,52.31v6.85a10,10,0,0,1-1.35.09,10.31,10.31,0,0,1-3.44-.58,10.46,10.46,0,0,1-7-9.88V20.49h7v1.27h0v6h0V47.84a4.48,4.48,0,0,0,4.48,4.48Z" transform="translate(-2.87 -4.11)"/><path class="cls-1" d="M186.32,59.49c7.17,0,12.11-4.78,12.11-11.84V35.73a3.64,3.64,0,0,0-3.64-3.64h0a3.64,3.64,0,0,0-3.64,3.64V47.49c0,3.39-1.78,5.28-4.83,5.28s-4.84-2-4.84-5.28V35.73a3.64,3.64,0,0,0-3.64-3.64h-.06a3.64,3.64,0,0,0-3.64,3.64V47.65C174.14,54.6,179.2,59.49,186.32,59.49Z" transform="translate(-2.87 -4.11)"/><path class="cls-1" d="M48.49,45.21c0-7.74-5.71-13.38-13.5-13.1A13.79,13.79,0,0,0,21.7,45.92c.05,7.89,6.13,13.61,14.32,13.61a13.92,13.92,0,0,0,9.79-3.65,1.17,1.17,0,0,0,0-1.68l-2.55-2.55a1.19,1.19,0,0,0-1.61-.06,8.61,8.61,0,0,1-5.7,2c-3.64,0-6.2-1.91-7.07-5.18l19.21,0A13.38,13.38,0,0,0,48.49,45.21ZM28.89,43a6.58,6.58,0,0,1,6.64-5c3.32,0,5.39,1.74,6.09,5Z" transform="translate(-2.87 -4.11)"/><path class="cls-1" d="M65.87,59.51a14,14,0,0,0,7.22-1.88,3.31,3.31,0,0,0,.62-5.18h0a3.32,3.32,0,0,0-3.95-.57,7.89,7.89,0,0,1-3.89.95A6.73,6.73,0,0,1,59,45.71a6.72,6.72,0,0,1,6.9-7.07,8,8,0,0,1,3.77.87,3.35,3.35,0,0,0,4-.58h0a3.32,3.32,0,0,0-.72-5.22,14,14,0,0,0-7-1.8c-8.05,0-14.24,6-14.24,13.86S57.76,59.51,65.87,59.51Z" transform="translate(-2.87 -4.11)"/><path class="cls-1" d="M110.3,59.28h0a3.56,3.56,0,0,0,3.56-3.57V44.21a5.09,5.09,0,0,1,5.41-5.28,5.29,5.29,0,0,1,5.15,5.31V55.71A3.56,3.56,0,0,0,128,59.28h0a3.56,3.56,0,0,0,3.56-3.57V42.63a10.16,10.16,0,0,0-10.06-10.17,10.47,10.47,0,0,0-7.62,3h0a2.5,2.5,0,0,0-2.5-2.5h-2.12a2.51,2.51,0,0,0-2.51,2.5V55.71A3.57,3.57,0,0,0,110.3,59.28Z" transform="translate(-2.87 -4.11)"/><path class="cls-1" d="M81.78,59.26h0a3.5,3.5,0,0,0,3.5-3.49V44.48a5,5,0,0,1,5.3-5.18,5.19,5.19,0,0,1,5,5.21V55.77a3.5,3.5,0,0,0,3.5,3.49h0a3.5,3.5,0,0,0,3.5-3.49V43A10.05,10.05,0,0,0,92.75,33a9.86,9.86,0,0,0-7.47,2.93V24.17a3.5,3.5,0,0,0-3.5-3.5h0a3.5,3.5,0,0,0-3.49,3.5v31.6A3.49,3.49,0,0,0,81.78,59.26Z" transform="translate(-2.87 -4.11)"/><path class="cls-1" d="M139.72,22.15a4.06,4.06,0,1,0,4.06,4.05A4,4,0,0,0,139.72,22.15Z" transform="translate(-2.87 -4.11)"/><rect class="cls-1" x="133.27" y="28.99" width="7.11" height="26.14" rx="3.55"/><path class="cls-1" d="M15.07,33.55v-.49h5.14V26.85H15.07V22.47h0V21.18h0V20H8v6.89H2.87v6.21H8V49.68A10.51,10.51,0,0,0,18.53,60.22a10.28,10.28,0,0,0,1.37-.09v-6.9h-.31a4.51,4.51,0,0,1-4.52-4.51V33.55Z" transform="translate(-2.87 -4.11)"/><path class="cls-1" d="M244.54,35.28a15.37,15.37,0,0,0-12.82-6.86H226.8c0-.6.07-1.2.07-1.8a22.51,22.51,0,0,0-43.77-7.39c-.14.39-.26.78-.37,1.17,0,.09,0,.18-.08.28s-.1.37-.14.55c0-.18.09-.37.14-.55a2.45,2.45,0,0,1,.08-.29c.11-.4.23-.79.37-1.17h-6.27A15.42,15.42,0,0,0,164,26.07h0a15.67,15.67,0,0,0-1.94,4.11,14.1,14.1,0,0,1,4.81,1l1.8.73a0,0,0,0,0,.05,0,8.56,8.56,0,0,1,8.11-5.85h11.91c0-.38,0-.75.08-1.12a15.45,15.45,0,0,1,1.8-5.73A15.64,15.64,0,0,1,220,26.62v.07a14.22,14.22,0,0,1-.1,1.73,15.65,15.65,0,0,1-2.47,6.86h14.27A8.55,8.55,0,0,1,240.26,44a8.65,8.65,0,0,1-8.7,8.37H218.89v6.87h12.83a15.42,15.42,0,0,0,12.82-24Z" transform="translate(-2.87 -4.11)"/><path class="cls-1" d="M160.86,59.49a14,14,0,0,0,7.23-1.88,3.31,3.31,0,0,0,.62-5.19h0a3.31,3.31,0,0,0-4-.57,7.9,7.9,0,0,1-3.9.95A6.75,6.75,0,0,1,154,45.66a6.73,6.73,0,0,1,6.91-7.08,8.07,8.07,0,0,1,3.78.87,3.35,3.35,0,0,0,4-.57h0a3.33,3.33,0,0,0-.73-5.24,14.08,14.08,0,0,0-7-1.8c-8.06,0-14.27,6-14.27,13.89S152.74,59.49,160.86,59.49Z" transform="translate(-2.87 -4.11)"/></svg>