<?xml version="1.0" encoding="utf-8"?>
<!-- Generator: Adobe Illustrator 24.3.0, SVG Export Plug-In . SVG Version: 6.00 Build 0)  -->
<svg version="1.1" id="Layer_1" xmlns="http://www.w3.org/2000/svg" xmlns:xlink="http://www.w3.org/1999/xlink" x="0px" y="0px"
	 viewBox="0 0 145 56" style="enable-background:new 0 0 145 56;" xml:space="preserve">
<style type="text/css">
	.st0{fill:#2EB943;stroke:#FFFFFF;stroke-miterlimit:10;}
	.st1{fill:url(#shape_3_1_);}
	.st2{fill:url(#shape_2_1_);}
	.st3{fill-rule:evenodd;clip-rule:evenodd;fill:#FFFFFF;}
	.st4{fill:#FFFFFF;stroke:#FFFFFF;stroke-width:0.1434;stroke-miterlimit:10;}
	.st5{fill:#FFFFFF;stroke:#FFFFFF;stroke-width:0.0836;stroke-miterlimit:10;}
</style>
<g>
	<path class="st0" d="M124.65,47h-93V9h93c10.49,0,19,8.51,19,19v0C143.65,38.49,135.14,47,124.65,47z"/>
	<g>
		<linearGradient id="shape_3_1_" gradientUnits="userSpaceOnUse" x1="28.4998" y1="53.1302" x2="28.4998" y2="2.4137">
			<stop  offset="0" style="stop-color:#20B038"/>
			<stop  offset="1" style="stop-color:#60D66A"/>
		</linearGradient>
		<path id="shape_3" class="st1" d="M3.26,53.13l3.57-13.02c-2.2-3.81-3.36-8.14-3.36-12.56C3.47,13.69,14.75,2.41,28.61,2.41
			c6.73,0,13.04,2.62,17.78,7.37c4.75,4.75,7.36,11.06,7.36,17.78c-0.01,13.86-11.28,25.13-25.14,25.13c0,0,0,0,0,0h-0.01
			c-4.21,0-8.34-1.06-12.01-3.06L3.26,53.13z"/>
		<linearGradient id="shape_2_1_" gradientUnits="userSpaceOnUse" x1="28.5" y1="54.0392" x2="28.5" y2="1.504">
			<stop  offset="0" style="stop-color:#F9F9F9"/>
			<stop  offset="1" style="stop-color:#FFFFFF"/>
		</linearGradient>
		<path id="shape_2" class="st2" d="M2.35,54.04l3.69-13.49c-2.28-3.95-3.48-8.43-3.48-13.01C2.57,13.18,14.26,1.5,28.61,1.5
			c6.97,0,13.5,2.71,18.42,7.63c4.92,4.92,7.62,11.46,7.62,18.42c-0.01,14.35-11.69,26.03-26.04,26.03c0,0,0,0,0,0H28.6
			c-4.36,0-8.64-1.09-12.44-3.17L2.35,54.04z M16.79,45.71l0.79,0.47c3.32,1.97,7.13,3.01,11.02,3.02h0.01
			c11.93,0,21.64-9.71,21.64-21.64c0-5.78-2.25-11.22-6.33-15.31C39.83,8.16,34.4,5.9,28.62,5.9c-11.94,0-21.65,9.71-21.65,21.64
			c0,4.09,1.14,8.07,3.31,11.51l0.52,0.82L8.6,47.85L16.79,45.71z"/>
		<path id="shape_1" class="st3" d="M22.1,16.65c-0.49-1.08-1-1.11-1.46-1.12c-0.38-0.02-0.81-0.02-1.25-0.02
			c-0.43,0-1.14,0.16-1.73,0.81c-0.6,0.65-2.28,2.23-2.28,5.43c0,3.2,2.33,6.29,2.66,6.73c0.33,0.43,4.5,7.21,11.11,9.82
			c5.5,2.17,6.61,1.74,7.81,1.63c1.19-0.11,3.85-1.57,4.39-3.09c0.54-1.52,0.54-2.82,0.38-3.09c-0.16-0.27-0.6-0.43-1.25-0.76
			c-0.65-0.33-3.85-1.9-4.45-2.12c-0.6-0.22-1.03-0.33-1.46,0.33c-0.43,0.65-1.68,2.12-2.06,2.55c-0.38,0.43-0.76,0.49-1.41,0.16
			c-0.65-0.33-2.75-1.01-5.23-3.23c-1.93-1.72-3.24-3.85-3.62-4.51c-0.38-0.65-0.04-1,0.29-1.33c0.29-0.29,0.65-0.76,0.98-1.14
			c0.32-0.38,0.43-0.65,0.65-1.08c0.22-0.43,0.11-0.81-0.05-1.14C23.94,21.16,22.68,17.94,22.1,16.65z"/>
	</g>
</g>
<g>
	<path class="st4" d="M73.22,17.38l-2.82,9.52h-1.77l-2-7.2l-2.12,7.2l-1.75,0.01l-2.7-9.53h1.66l1.97,7.75l2.14-7.75h1.75
		l1.99,7.71l1.99-7.71H73.22z"/>
	<path class="st4" d="M79.95,19.59c0.45,0.25,0.81,0.61,1.07,1.1c0.26,0.48,0.39,1.07,0.39,1.75v4.45h-1.55v-4.22
		c0-0.68-0.17-1.19-0.51-1.55c-0.34-0.36-0.8-0.54-1.38-0.54c-0.58,0-1.05,0.18-1.39,0.54c-0.34,0.36-0.51,0.88-0.51,1.55v4.22
		h-1.56V16.76h1.56v3.46c0.26-0.32,0.6-0.57,1.01-0.74c0.41-0.17,0.85-0.26,1.34-0.26C78.99,19.23,79.5,19.35,79.95,19.59z"/>
	<path class="st4" d="M83.35,21.07c0.31-0.58,0.74-1.04,1.29-1.36c0.54-0.32,1.14-0.49,1.8-0.49c0.59,0,1.11,0.12,1.55,0.35
		c0.44,0.23,0.8,0.52,1.06,0.87v-1.1h1.57v7.54h-1.57v-1.12c-0.26,0.36-0.62,0.65-1.08,0.89c-0.46,0.24-0.98,0.36-1.56,0.36
		c-0.65,0-1.24-0.17-1.78-0.5c-0.54-0.33-0.97-0.8-1.28-1.4c-0.31-0.6-0.47-1.28-0.47-2.03C82.88,22.33,83.03,21.66,83.35,21.07z
		 M88.73,21.76c-0.21-0.38-0.5-0.68-0.84-0.88c-0.35-0.2-0.72-0.3-1.12-0.3c-0.4,0-0.78,0.1-1.12,0.29
		c-0.35,0.2-0.63,0.48-0.84,0.86c-0.21,0.38-0.32,0.83-0.32,1.35c0,0.52,0.11,0.98,0.32,1.37c0.21,0.39,0.5,0.69,0.85,0.9
		c0.35,0.21,0.72,0.31,1.12,0.31c0.4,0,0.78-0.1,1.12-0.3c0.35-0.2,0.63-0.49,0.84-0.88c0.21-0.39,0.32-0.84,0.32-1.36
		C89.05,22.59,88.94,22.14,88.73,21.76z"/>
	<path class="st4" d="M94.5,20.62v4.18c0,0.28,0.07,0.49,0.2,0.61c0.13,0.12,0.36,0.18,0.68,0.18h0.96v1.3H95.1
		c-0.7,0-1.24-0.16-1.62-0.49c-0.37-0.33-0.56-0.86-0.56-1.6v-4.18h-0.89v-1.27h0.89v-1.88h1.57v1.88h1.84v1.27H94.5z"/>
	<path class="st4" d="M98.92,26.69c-0.47-0.21-0.84-0.51-1.12-0.88c-0.27-0.37-0.42-0.78-0.44-1.24h1.62
		c0.03,0.32,0.18,0.59,0.46,0.8c0.28,0.21,0.63,0.32,1.05,0.32c0.44,0,0.78-0.08,1.02-0.25c0.24-0.17,0.36-0.39,0.36-0.65
		c0-0.28-0.13-0.49-0.4-0.63c-0.27-0.14-0.7-0.29-1.28-0.45c-0.57-0.16-1.03-0.31-1.38-0.45c-0.36-0.15-0.66-0.37-0.92-0.67
		c-0.26-0.3-0.39-0.7-0.39-1.19c0-0.4,0.12-0.77,0.36-1.1c0.24-0.33,0.58-0.6,1.02-0.79c0.44-0.19,0.95-0.29,1.53-0.29
		c0.86,0,1.55,0.22,2.07,0.65c0.52,0.43,0.81,1.02,0.84,1.77h-1.56c-0.03-0.34-0.16-0.61-0.41-0.81c-0.25-0.2-0.58-0.3-1-0.3
		c-0.41,0-0.73,0.08-0.95,0.23c-0.22,0.16-0.33,0.36-0.33,0.62c0,0.2,0.07,0.37,0.22,0.51s0.32,0.24,0.53,0.32s0.52,0.18,0.93,0.29
		c0.55,0.15,1,0.29,1.35,0.45c0.35,0.15,0.65,0.37,0.91,0.66c0.25,0.29,0.39,0.68,0.4,1.16c0,0.43-0.12,0.81-0.36,1.15
		c-0.24,0.34-0.57,0.6-1.01,0.79c-0.43,0.19-0.94,0.29-1.53,0.29C99.92,27.02,99.39,26.91,98.92,26.69z"/>
	<path class="st4" d="M110.82,24.95h-3.98l-0.68,1.94h-1.63l3.41-9.53h1.81l3.41,9.53h-1.64L110.82,24.95z M110.38,23.68l-1.55-4.42
		l-1.56,4.42H110.38z"/>
	<path class="st4" d="M117.27,19.58c0.46-0.24,0.97-0.36,1.55-0.36c0.66,0,1.26,0.16,1.8,0.49c0.54,0.32,0.97,0.78,1.28,1.36
		c0.31,0.58,0.47,1.26,0.47,2.01c0,0.76-0.16,1.44-0.47,2.03s-0.74,1.06-1.28,1.4c-0.54,0.33-1.14,0.5-1.8,0.5
		c-0.58,0-1.09-0.12-1.53-0.35c-0.45-0.23-0.81-0.52-1.1-0.87v4.68h-1.56V19.35h1.56v1.11C116.45,20.11,116.81,19.82,117.27,19.58z
		 M120.45,21.74c-0.21-0.38-0.5-0.67-0.85-0.86c-0.35-0.2-0.73-0.29-1.13-0.29c-0.39,0-0.76,0.1-1.12,0.3
		c-0.35,0.2-0.63,0.49-0.85,0.88c-0.21,0.38-0.32,0.83-0.32,1.36c0,0.52,0.11,0.97,0.32,1.36c0.21,0.39,0.5,0.68,0.85,0.88
		c0.35,0.2,0.72,0.3,1.12,0.3c0.4,0,0.78-0.1,1.13-0.31c0.35-0.2,0.64-0.5,0.85-0.9c0.21-0.39,0.32-0.85,0.32-1.37
		C120.77,22.57,120.67,22.12,120.45,21.74z"/>
	<path class="st4" d="M126.55,19.58c0.46-0.24,0.97-0.36,1.55-0.36c0.66,0,1.26,0.16,1.8,0.49c0.54,0.32,0.97,0.78,1.28,1.36
		c0.31,0.58,0.47,1.26,0.47,2.01c0,0.76-0.16,1.44-0.47,2.03s-0.74,1.06-1.28,1.4c-0.54,0.33-1.14,0.5-1.8,0.5
		c-0.58,0-1.09-0.12-1.53-0.35c-0.45-0.23-0.81-0.52-1.1-0.87v4.68h-1.56V19.35h1.56v1.11C125.73,20.11,126.09,19.82,126.55,19.58z
		 M129.73,21.74c-0.21-0.38-0.5-0.67-0.85-0.86c-0.35-0.2-0.73-0.29-1.13-0.29c-0.39,0-0.76,0.1-1.12,0.3
		c-0.35,0.2-0.63,0.49-0.85,0.88c-0.21,0.38-0.32,0.83-0.32,1.36c0,0.52,0.11,0.97,0.32,1.36c0.21,0.39,0.5,0.68,0.85,0.88
		c0.35,0.2,0.72,0.3,1.12,0.3c0.4,0,0.78-0.1,1.13-0.31c0.35-0.2,0.64-0.5,0.85-0.9c0.21-0.39,0.32-0.85,0.32-1.37
		C130.06,22.57,129.95,22.12,129.73,21.74z"/>
</g>
<g>
	<path class="st5" d="M69.74,35.05c0.26-0.46,0.61-0.81,1.06-1.07c0.45-0.26,0.94-0.39,1.48-0.39c0.64,0,1.2,0.16,1.67,0.46
		c0.48,0.31,0.82,0.75,1.04,1.31h-0.92c-0.16-0.35-0.4-0.63-0.7-0.82c-0.31-0.19-0.67-0.29-1.1-0.29c-0.41,0-0.78,0.1-1.1,0.29
		c-0.33,0.19-0.58,0.46-0.77,0.81c-0.19,0.35-0.28,0.76-0.28,1.23c0,0.47,0.09,0.87,0.28,1.22c0.18,0.35,0.44,0.62,0.77,0.81
		c0.33,0.19,0.69,0.29,1.1,0.29c0.43,0,0.79-0.09,1.1-0.28c0.31-0.19,0.54-0.46,0.7-0.81H75c-0.22,0.56-0.57,0.99-1.04,1.3
		c-0.48,0.31-1.04,0.46-1.67,0.46c-0.54,0-1.04-0.13-1.48-0.38c-0.45-0.25-0.8-0.61-1.06-1.06c-0.26-0.45-0.39-0.97-0.39-1.54
		C69.36,36.02,69.48,35.5,69.74,35.05z"/>
	<path class="st5" d="M76.9,33.3v6.23h-0.77V33.3H76.9z"/>
	<path class="st5" d="M78.23,34.01c-0.1-0.1-0.15-0.22-0.15-0.37s0.05-0.27,0.15-0.37c0.1-0.1,0.22-0.15,0.37-0.15
		c0.14,0,0.26,0.05,0.36,0.15c0.1,0.1,0.15,0.22,0.15,0.37s-0.05,0.27-0.15,0.37c-0.1,0.1-0.22,0.15-0.36,0.15
		C78.45,34.17,78.33,34.12,78.23,34.01z M78.97,34.91v4.61h-0.77v-4.61H78.97z"/>
	<path class="st5" d="M80.28,35.96c0.19-0.36,0.46-0.63,0.79-0.83c0.34-0.2,0.73-0.29,1.17-0.29c0.57,0,1.03,0.14,1.4,0.41
		c0.37,0.28,0.61,0.66,0.73,1.15h-0.82c-0.08-0.28-0.23-0.5-0.46-0.67c-0.23-0.16-0.51-0.24-0.85-0.24c-0.44,0-0.79,0.15-1.06,0.45
		c-0.27,0.3-0.4,0.73-0.4,1.27c0,0.56,0.13,0.98,0.4,1.29c0.27,0.3,0.62,0.45,1.06,0.45c0.34,0,0.62-0.08,0.84-0.24
		c0.22-0.16,0.38-0.38,0.46-0.67h0.82c-0.12,0.47-0.37,0.85-0.74,1.13s-0.83,0.43-1.39,0.43c-0.44,0-0.83-0.1-1.17-0.29
		c-0.34-0.2-0.6-0.47-0.79-0.83c-0.19-0.36-0.29-0.78-0.29-1.26C79.99,36.73,80.08,36.32,80.28,35.96z"/>
	<path class="st5" d="M87.96,39.52l-1.81-2.04v2.04h-0.77V33.3h0.77v3.66l1.78-2.04h1.07l-2.17,2.3L89,39.52H87.96z"/>
	<path class="st5" d="M92.89,35.55v2.72c0,0.22,0.05,0.38,0.14,0.48s0.26,0.14,0.5,0.14h0.56v0.65h-0.69c-0.43,0-0.75-0.1-0.96-0.29
		c-0.21-0.2-0.32-0.52-0.32-0.97v-2.72h-0.6v-0.63h0.6v-1.16h0.77v1.16h1.2v0.63H92.89z"/>
	<path class="st5" d="M95.86,39.31c-0.35-0.2-0.63-0.48-0.82-0.84c-0.2-0.36-0.3-0.78-0.3-1.26c0-0.47,0.1-0.89,0.31-1.25
		c0.21-0.36,0.48-0.64,0.84-0.83c0.35-0.19,0.75-0.29,1.19-0.29c0.44,0,0.83,0.1,1.19,0.29c0.35,0.19,0.63,0.47,0.84,0.83
		c0.2,0.36,0.31,0.78,0.31,1.25c0,0.48-0.11,0.9-0.32,1.26c-0.21,0.36-0.49,0.64-0.85,0.84c-0.36,0.2-0.76,0.29-1.19,0.29
		C96.6,39.6,96.21,39.5,95.86,39.31z M97.81,38.73c0.24-0.13,0.44-0.32,0.59-0.58c0.15-0.26,0.22-0.57,0.22-0.94
		c0-0.37-0.07-0.68-0.22-0.94c-0.15-0.26-0.34-0.45-0.57-0.58c-0.24-0.13-0.49-0.19-0.77-0.19c-0.28,0-0.54,0.06-0.77,0.19
		c-0.23,0.13-0.42,0.32-0.56,0.58c-0.14,0.26-0.21,0.57-0.21,0.94c0,0.38,0.07,0.69,0.21,0.95c0.14,0.26,0.32,0.45,0.55,0.58
		s0.48,0.19,0.76,0.19C97.31,38.93,97.57,38.86,97.81,38.73z"/>
	<path class="st5" d="M102.75,35.05c0.26-0.46,0.61-0.81,1.06-1.07c0.45-0.26,0.94-0.39,1.48-0.39c0.64,0,1.2,0.16,1.67,0.46
		c0.48,0.31,0.82,0.75,1.04,1.31h-0.92c-0.16-0.35-0.4-0.63-0.7-0.82c-0.31-0.19-0.67-0.29-1.1-0.29c-0.41,0-0.78,0.1-1.1,0.29
		c-0.33,0.19-0.58,0.46-0.77,0.81c-0.18,0.35-0.28,0.76-0.28,1.23c0,0.47,0.09,0.87,0.28,1.22c0.19,0.35,0.44,0.62,0.77,0.81
		c0.33,0.19,0.69,0.29,1.1,0.29c0.43,0,0.79-0.09,1.1-0.28c0.31-0.19,0.54-0.46,0.7-0.81h0.92c-0.22,0.56-0.57,0.99-1.04,1.3
		c-0.48,0.31-1.03,0.46-1.67,0.46c-0.54,0-1.04-0.13-1.48-0.38c-0.45-0.25-0.8-0.61-1.06-1.06c-0.26-0.45-0.39-0.97-0.39-1.54
		C102.37,36.02,102.5,35.5,102.75,35.05z"/>
	<path class="st5" d="M112.38,35.05c0.28,0.15,0.5,0.37,0.66,0.67c0.16,0.3,0.24,0.66,0.24,1.09v2.72h-0.76v-2.61
		c0-0.46-0.12-0.81-0.35-1.06c-0.23-0.24-0.54-0.37-0.94-0.37c-0.4,0-0.73,0.13-0.96,0.38c-0.24,0.25-0.36,0.62-0.36,1.1v2.55h-0.77
		V33.3h0.77v2.27c0.15-0.24,0.36-0.42,0.63-0.55c0.27-0.13,0.56-0.19,0.9-0.19C111.78,34.83,112.1,34.9,112.38,35.05z"/>
	<path class="st5" d="M114.53,35.96c0.19-0.36,0.45-0.63,0.79-0.83c0.33-0.2,0.7-0.29,1.11-0.29c0.4,0,0.75,0.09,1.05,0.26
		c0.3,0.17,0.52,0.39,0.66,0.66v-0.84h0.77v4.61h-0.77v-0.86c-0.15,0.27-0.38,0.49-0.68,0.67s-0.65,0.26-1.05,0.26
		c-0.41,0-0.78-0.1-1.11-0.3c-0.33-0.2-0.59-0.49-0.78-0.85c-0.19-0.36-0.29-0.78-0.29-1.24C114.24,36.73,114.34,36.32,114.53,35.96
		z M117.94,36.3c-0.14-0.26-0.33-0.45-0.57-0.59c-0.24-0.14-0.5-0.21-0.79-0.21c-0.29,0-0.55,0.07-0.78,0.2
		c-0.24,0.13-0.42,0.33-0.56,0.59c-0.14,0.26-0.21,0.56-0.21,0.91c0,0.35,0.07,0.66,0.21,0.92c0.14,0.26,0.33,0.46,0.56,0.6
		c0.24,0.14,0.5,0.21,0.78,0.21c0.29,0,0.55-0.07,0.79-0.21c0.24-0.14,0.43-0.34,0.57-0.6c0.14-0.26,0.21-0.56,0.21-0.91
		C118.15,36.86,118.08,36.56,117.94,36.3z"/>
	<path class="st5" d="M121.15,35.55v2.72c0,0.22,0.05,0.38,0.14,0.48s0.26,0.14,0.5,0.14h0.56v0.65h-0.69
		c-0.43,0-0.75-0.1-0.96-0.29c-0.21-0.2-0.32-0.52-0.32-0.97v-2.72h-0.6v-0.63h0.6v-1.16h0.77v1.16h1.2v0.63H121.15z"/>
</g>
</svg>
