<svg width="130" height="105" viewBox="0 0 130 105" fill="none" xmlns="http://www.w3.org/2000/svg">
<g clip-path="url(#clip0_391_30)">
<path opacity="0.25" d="M52.9993 88.0457H52.6147C52.6153 88.0528 52.6165 88.06 52.6165 88.0672L52.6172 89.0818L52.6171 89.4436C52.6172 89.6379 52.4158 89.802 52.1371 89.8586C52.0703 89.872 51.9988 89.8791 51.9249 89.8794C51.9243 89.8794 51.9236 89.8794 51.9236 89.8794L50.0665 89.8797V89.9272C48.8382 91.4196 47.4559 92.9143 47.3003 97.618L48.4705 97.6182C48.727 97.618 48.9347 97.7935 48.9347 98.0102C48.9347 98.2266 48.727 98.4022 48.4706 98.4022L46.9153 98.4025C48.319 98.8191 49.3188 99.8946 49.3188 101.156C49.3188 102.78 47.6645 104.095 45.6241 104.095C43.5835 104.095 41.9292 102.779 41.9292 101.156C41.9292 99.8952 42.9284 98.8198 44.3314 98.4029L42.7775 98.4031C42.5211 98.4031 42.3133 98.2277 42.3133 98.0112C42.3133 97.7947 42.521 97.6189 42.7774 97.6189H43.9718C43.9573 92.4239 42.4219 91.3967 41.1817 89.9048V89.8811L40.2119 89.8813L39.9078 89.881C39.7654 89.8814 39.6328 89.8541 39.5227 89.8078C39.3374 89.7302 39.2154 89.597 39.2154 89.4459L39.2152 89.1243L39.2148 88.0694C39.2148 88.0622 39.2158 88.0551 39.2164 88.0479H38.8857C38.4369 88.0479 38.0729 87.853 38.0728 87.6124L38.0725 86.2358C38.0724 85.9952 38.4364 85.8002 38.8852 85.8002L52.9988 85.7979C53.4476 85.7977 53.8116 85.9927 53.8118 86.2332L53.812 87.6099C53.812 87.8505 53.4482 88.0455 52.9993 88.0457Z" fill="url(#paint0_linear_391_30)"/>
<path d="M63.3866 22.8816L46.6282 26.8682L36.2758 29.331L28.665 -3H57.1625L63.3866 22.8816Z" fill="#464451"/>
<path opacity="0.27" d="M46.628 23.2037V26.8682L38.6574 29.331L31.0466 -3H39.1371C40.8849 6.152 44.5538 17.9791 46.628 23.2037Z" fill="#302B2D"/>
<path d="M63.3254 23.8509C62.1699 26.1172 57.2674 29.074 51.0216 30.5719C47.0985 31.5122 43.473 31.7997 40.8282 31.5324C38.4131 31.2883 36.8141 30.5834 36.5526 29.4943C36.2941 28.4182 37.3861 27.1601 39.3969 25.9439C41.6546 24.5745 45.0707 23.2572 49.04 22.3053C55.2425 20.819 60.7256 20.4174 62.7521 21.6105C63.1797 21.8619 63.4527 22.1825 63.548 22.5798C63.6403 22.9638 63.5594 23.393 63.3254 23.8509Z" fill="#302B2D"/>
<path d="M63.2431 24.0674L63.2128 23.9519L63.194 23.8768L62.9008 22.74L62.8416 22.5089L62.6654 21.8271C60.62 20.634 55.0907 21.0355 48.8348 22.5219C44.8308 23.4738 41.3844 24.7911 39.1079 26.1604L39.17 26.4002L40.4108 31.2015C40.4122 31.2015 40.4122 31.2015 40.4138 31.2015L40.5552 31.749L40.5682 31.7995C40.5957 31.8032 40.5957 31.803 40.5682 31.7995C40.5668 31.7995 40.5668 31.7995 40.5654 31.7995L42.628 39.7945L65.7868 33.9157L63.2431 24.0674Z" fill="#B0A9BF"/>
<path d="M63.6222 25.5856L63.5919 25.47L63.5731 25.3949L63.2798 24.2581L63.2206 24.027L63.0444 23.3453C61.0457 20.9312 46.7035 22.4493 40.0952 29.9303L40.7898 32.7197C40.7914 32.7197 40.9343 33.2671 40.9343 33.2671L40.9473 33.3177C40.9747 33.3213 40.9747 33.3212 40.9473 33.3177C40.9458 33.3177 40.9458 33.3177 40.9444 33.3177L42.6278 39.7946L66.1658 35.4339L63.6222 25.5856Z" fill="white"/>
<path d="M63.2487 23.8767C63.2388 23.9027 63.2256 23.9272 63.2126 23.9518L63.1938 23.8767L62.9006 22.7399C62.8963 22.7081 62.8905 22.6763 62.8833 22.646C62.8732 22.5983 62.8587 22.5536 62.8414 22.5088C62.7417 22.256 62.5409 22.0422 62.2318 21.8573C60.3916 20.7581 55.2942 21.0369 48.9299 22.5839C45.1267 23.5083 41.7799 24.7896 39.5064 26.1878C39.3908 26.2586 39.2782 26.3293 39.1698 26.4001C37.4582 27.5138 36.6305 28.5812 36.8313 29.4277C37.0364 30.2958 38.3321 30.9342 40.4106 31.2015C40.4121 31.2015 40.4121 31.2015 40.4136 31.2015L40.5551 31.7489L40.5681 31.7995C40.5666 31.7995 40.5666 31.7995 40.5652 31.7995C38.0692 31.5163 36.5482 30.7233 36.2723 29.5606C35.9935 28.3833 37.0075 27.0472 39.2059 25.6996C41.5286 24.2696 44.9346 22.9652 48.7942 22.0263C55.3982 20.4216 60.5317 20.1731 62.5251 21.3633C63.0234 21.6609 63.3325 22.048 63.4423 22.5131C63.5406 22.929 63.4769 23.3883 63.2487 23.8767Z" fill="#3B3638"/>
<path opacity="0.44" d="M73.9146 108.428C84.564 108.428 93.197 107.458 93.197 106.261C93.197 105.065 84.564 104.095 73.9146 104.095C63.2653 104.095 54.6323 105.065 54.6323 106.261C54.6323 107.458 63.2653 108.428 73.9146 108.428Z" fill="#2B2928"/>
<path d="M67.7362 33.9636C67.7362 33.9636 72.2517 38.0138 73.8054 40.176C75.3592 42.3382 76.6771 46.4334 79.174 48.5295C79.7294 50.4869 78.2191 52.1945 75.7198 51.7972C72.8878 51.3469 67.645 44.421 66.6598 41.67C65.6745 38.9192 67.7362 33.9636 67.7362 33.9636Z" fill="#E57A61"/>
<path d="M81.3833 58.4155C81.4122 58.9312 80.9384 59.3833 80.3072 59.4685L80.2985 59.47C80.2566 59.4758 80.2148 59.4787 80.1729 59.4815L64.6711 60.3005C63.9734 60.3367 63.3841 59.9192 63.3552 59.366C63.3538 59.3515 63.3538 59.3385 63.3538 59.3241C63.3538 58.7897 63.8853 58.3345 64.5656 58.3L73.4721 57.8305C73.475 57.8291 73.4779 57.8291 73.4808 57.8291L80.0673 57.4826C80.7651 57.4449 81.3544 57.8638 81.3833 58.4155Z" fill="#2B2928"/>
<path d="M73.9275 47.2125C73.9861 48.3267 73.0907 49.2796 71.9271 49.3413C70.7637 49.4027 69.7728 48.5492 69.7142 47.4349C69.6554 46.3205 70.5508 45.3675 71.7144 45.3061C72.8778 45.2447 73.8688 46.0981 73.9275 47.2125Z" fill="white"/>
<path d="M82.7029 83.4154L78.2135 83.6523L64.6733 84.3673L64.6704 84.3066C64.708 84.2431 64.7441 84.1795 64.7802 84.116C64.786 84.1058 64.7917 84.0957 64.7975 84.0842C64.8394 84.0134 64.8784 83.9426 64.9174 83.8704C64.9521 83.8083 64.9853 83.7462 65.0185 83.6841C65.072 83.5844 65.1254 83.4833 65.1774 83.3807C65.2164 83.3071 65.254 83.2305 65.2915 83.154C65.3117 83.1121 65.3334 83.0702 65.3536 83.0268C65.3897 82.9561 65.423 82.8853 65.4562 82.8131C65.4822 82.7582 65.5082 82.7018 65.5356 82.6455C65.5631 82.5848 65.5905 82.5242 65.618 82.4621C65.6497 82.3942 65.6801 82.3248 65.709 82.2555C65.7523 82.1573 65.7956 82.0562 65.8375 81.9551C65.8751 81.867 65.9112 81.7788 65.9473 81.6893C65.9704 81.633 65.9935 81.5752 66.0152 81.5174C66.0484 81.4336 66.0816 81.3498 66.1134 81.2646C66.1567 81.1534 66.1972 81.0422 66.2391 80.9281C66.2651 80.8587 66.2896 80.788 66.3142 80.7172C66.3489 80.6219 66.3821 80.5251 66.4139 80.4283C66.4153 80.4269 66.4153 80.424 66.4167 80.4225C66.4586 80.2983 66.5005 80.1726 66.541 80.047C66.5742 79.9444 66.606 79.8404 66.6377 79.7364C66.6796 79.6035 66.7201 79.4692 66.7591 79.3349C66.7605 79.3305 66.762 79.3262 66.7634 79.3204C66.7952 79.2135 66.8255 79.1066 66.8544 78.9983C66.8775 78.916 66.9006 78.8322 66.9223 78.7484C66.9613 78.604 66.9989 78.4581 67.035 78.3122C67.0711 78.1706 67.1057 78.0276 67.139 77.8832C67.1419 77.8745 67.1433 77.8644 67.1462 77.8557C67.1794 77.7127 67.2126 77.5683 67.243 77.4239C67.2747 77.2809 67.3051 77.1364 67.334 76.9905C67.3585 76.8677 67.3831 76.745 67.4062 76.6222C67.4279 76.511 67.4481 76.3997 67.4683 76.2871C67.4813 76.2148 67.4943 76.1426 67.5059 76.0704C67.5116 76.0415 67.516 76.0126 67.5217 75.9823C67.5434 75.8523 67.5651 75.7209 67.5853 75.5894C67.6055 75.4536 67.6257 75.3178 67.646 75.1806C67.6619 75.0737 67.6763 74.9669 67.6893 74.86C67.7196 74.6462 67.7456 74.431 67.7702 74.2143C67.7817 74.1161 67.7933 74.0179 67.802 73.9182C67.8121 73.8301 67.8222 73.742 67.8294 73.6538C67.8597 73.3418 67.8857 73.0284 67.9089 72.7106C67.9161 72.6066 67.9233 72.5026 67.9291 72.3986C67.9349 72.3206 67.9392 72.2412 67.9435 72.1617C67.9637 71.7862 67.9796 71.4063 67.9883 71.0235C67.9955 70.726 67.9999 70.427 67.9999 70.1265C67.9999 69.4621 67.9825 68.789 67.9464 68.1101C67.8872 66.9964 67.7803 65.9058 67.6315 64.8442C67.4033 63.2177 67.074 61.6606 66.658 60.1945L69.5266 60.0429L72.9991 59.8609L78.2222 59.585H78.2251C77.7961 62.0665 77.6285 64.7705 77.7773 67.5901C77.7874 67.7865 77.799 67.9815 77.8134 68.1765C77.8264 68.3715 77.8409 68.5651 77.8567 68.7586C77.8885 69.1443 77.9275 69.5285 77.9709 69.9084C77.9925 70.0976 78.0156 70.2883 78.0402 70.4761C78.0633 70.6595 78.0879 70.8415 78.1153 71.0221C78.1153 71.0279 78.1167 71.0336 78.1167 71.0409C78.137 71.181 78.1586 71.3211 78.1817 71.4597C78.2179 71.6894 78.2554 71.9176 78.2959 72.1444C78.3219 72.2932 78.3493 72.442 78.3767 72.5893C78.3854 72.6326 78.3941 72.6774 78.4013 72.7207C78.4345 72.8897 78.4692 73.0573 78.5039 73.2234C78.5039 73.2249 78.5039 73.2263 78.5053 73.2277C78.5284 73.3447 78.5544 73.4603 78.5804 73.5759C78.6339 73.82 78.6902 74.0597 78.748 74.2995C78.787 74.4642 78.8289 74.6274 78.8707 74.7892C78.8722 74.7964 78.8751 74.8036 78.8765 74.8108C78.9126 74.951 78.9502 75.0911 78.9892 75.2297C78.9993 75.2659 79.008 75.302 79.0195 75.3381C79.0614 75.4926 79.1047 75.6457 79.151 75.7974C79.1538 75.8075 79.1553 75.8176 79.1582 75.8263C79.2059 75.991 79.2564 76.1542 79.3084 76.316C79.3546 76.4676 79.4037 76.6193 79.4543 76.7681C79.4601 76.7868 79.4659 76.8056 79.4716 76.8244C79.5236 76.9804 79.5756 77.1335 79.6305 77.2866C79.7345 77.5885 79.8443 77.8846 79.9599 78.1764C79.9729 78.2096 79.9859 78.2428 79.9989 78.2761C80.0393 78.383 80.0812 78.4884 80.126 78.5938C80.1433 78.6372 80.1621 78.6805 80.1794 78.7239C80.3585 79.1615 80.5492 79.5876 80.7485 80.0007C80.815 80.1423 80.8843 80.2838 80.9565 80.4225C81.0244 80.5612 81.0952 80.6984 81.1689 80.8342C81.2382 80.97 81.3104 81.1028 81.387 81.2357C81.4577 81.3672 81.5314 81.4986 81.6094 81.6272C81.6816 81.7572 81.7582 81.8843 81.8376 82.01C81.9893 82.2613 82.1467 82.5054 82.31 82.7423C82.4342 82.9301 82.5642 83.115 82.6956 83.2941L82.7029 83.4154Z" fill="#2B2928"/>
<path d="M76.6443 57.6625L67.989 58.1191L65.9414 49.1562L77.7376 48.5339L76.6443 57.6625Z" fill="#2B2928"/>
<path d="M88.1222 87.7653C88.1554 88.3792 87.5531 88.9093 86.7774 88.9512L80.8682 89.2632L62.3909 90.2367C61.6152 90.2785 60.9594 89.8133 60.9277 89.1995L60.9204 89.0709L60.8352 87.4546L60.8179 87.1368V87.1223C60.8251 85.7877 61.7423 84.6682 62.9817 84.3548C62.9831 84.3548 62.986 84.3534 62.9874 84.3534C63.181 84.3259 63.3789 84.297 63.584 84.2696C63.9639 84.2176 64.3625 84.167 64.7785 84.1165C67.5967 83.7756 71.1644 83.4708 74.556 83.2917C75.3475 83.2498 76.1275 83.2151 76.8888 83.1862V83.1848C76.9075 83.1848 76.9249 83.1848 76.9422 83.1833C77.0318 83.1803 77.1199 83.1776 77.208 83.1745C79.1248 83.1066 80.9274 83.0808 82.5524 83.0922C82.876 83.0951 83.1938 83.0994 83.5029 83.1052C83.6054 83.1066 83.708 83.1081 83.8091 83.111C84.2121 83.1196 84.6021 83.1298 84.9762 83.1441C85.0253 83.1455 85.073 83.1471 85.1221 83.1498C85.2752 83.1556 85.4254 83.1614 85.5728 83.1672C85.5742 83.1672 85.5771 83.1672 85.5785 83.1686C86.8554 83.3535 87.8608 84.3806 88.0124 85.6689L88.0312 86.0315V86.0373L88.115 87.6175L88.1222 87.7653Z" fill="#2B2928"/>
<path opacity="0.26" d="M87.6157 88.6788C87.3875 88.8334 87.0971 88.933 86.7779 88.9504L80.8687 89.2624L62.3914 90.2359C61.6157 90.2778 60.9599 89.8127 60.9281 89.1988L60.9209 89.0703L60.8357 87.4539L60.8184 87.1361V87.1217C60.8256 85.787 61.7428 84.6676 62.9821 84.3541C62.9836 84.3541 62.9865 84.3527 62.9879 84.3527C63.1815 84.3253 63.3794 84.2964 63.5845 84.2689C63.9644 84.2169 64.363 84.1664 64.779 84.1158C65.2947 84.0537 65.8349 83.9916 66.3954 83.9324C66.3477 83.9396 66.3 83.9454 66.2538 83.9526C66.2524 83.9526 66.2495 83.954 66.248 83.954C65.0087 84.2675 64.0915 85.3869 64.0843 86.7216V86.736L64.1016 87.0538L64.1868 88.6701L64.194 88.7987C64.2258 89.4126 64.8816 89.8777 65.6572 89.8358L84.1346 88.8623L87.6157 88.6788Z" fill="#8DCCDB"/>
<path d="M90.7948 92.3146C90.8281 92.9285 90.1159 93.4658 89.2045 93.5135L62.1761 94.9391L60.5655 95.0244C59.6555 95.072 58.8899 94.6141 58.8582 94.0003L58.6718 90.4888C58.6675 90.3877 58.6834 90.2909 58.7152 90.197C58.6747 90.1508 58.6516 90.106 58.6502 90.0569C58.6401 89.8735 58.9174 89.6814 59.4345 89.4893C59.5645 89.4286 59.7061 89.3824 59.8563 89.3477C60.4904 89.1541 61.3571 88.9606 62.4129 88.7743C65.3235 88.2629 69.6669 87.8065 74.5304 87.5494C81.1575 87.1998 86.8645 87.3211 89.3114 87.7935C89.4659 87.8123 89.6118 87.844 89.7462 87.8903C90.2821 88.0275 90.5782 88.1893 90.5868 88.3727C90.5897 88.4204 90.5724 88.4695 90.5363 88.5171C90.5782 88.6081 90.6042 88.7035 90.6099 88.8031L90.7948 92.3146Z" fill="#2B2928"/>
<path opacity="0.26" d="M62.7004 94.7383L62.1761 94.9391L60.5655 95.0243C59.6555 95.072 58.8899 94.6141 58.8582 94.0002L58.6718 90.4887C58.6675 90.3876 58.6834 90.2908 58.7152 90.197C58.6747 90.1507 58.6516 90.1059 58.6502 90.0568C58.6401 89.8734 58.9174 89.6813 59.4345 89.4892C59.5645 89.4285 59.7061 89.3823 59.8563 89.3476C60.4904 89.1541 61.3571 88.9605 62.4129 88.7742C62.4144 90.5479 62.7004 94.7383 62.7004 94.7383Z" fill="#8DCCDB"/>
<g opacity="0.3">
<path d="M90.7413 92.6425C90.1505 92.0517 86.3083 91.731 81.0289 91.7758C81.1098 90.6953 80.831 89.3058 80.6649 88.689C80.2026 86.9701 79.2406 87.3746 78.7755 87.3847C79.0832 85.4578 78.7524 84.256 78.2136 83.6522C77.9175 83.3186 77.5579 83.1669 77.2083 83.1741C77.1202 83.177 77.0321 83.1799 76.9425 83.1828C76.9252 83.1842 76.9064 83.1857 76.8891 83.1857V83.1842C73.8312 77.3761 74.5289 65.7238 74.7816 61.2937C74.8206 60.6191 74.8495 60.1136 74.8524 59.8189L72.9992 59.8608L72.9458 59.3119L72.8042 57.8646L74.4335 57.7779L74.8221 48.6866L77.7384 48.5334L76.645 57.6623L80.0683 57.4818C80.766 57.4442 81.3553 57.8631 81.3842 58.4149C81.4131 58.9306 80.9393 59.3827 80.3081 59.4679L80.2994 59.4693C80.2575 59.4751 80.2156 59.478 80.1738 59.4809L78.2252 59.5834V59.5849C77.7962 62.0664 77.6286 64.7705 77.7774 67.59C77.7875 67.7865 77.7991 67.9815 77.8135 68.1765C77.8265 68.3715 77.841 68.565 77.8569 68.7586C77.8886 69.1442 77.9276 69.5284 77.971 69.9083C77.9926 70.0976 78.0158 70.2868 78.0403 70.476C78.0634 70.658 78.088 70.84 78.1154 71.022C78.1154 71.0278 78.1169 71.0336 78.1169 71.0408C78.1385 71.1809 78.1588 71.321 78.1819 71.4597C78.218 71.6893 78.2555 71.9176 78.296 72.1443C78.322 72.2931 78.3494 72.4419 78.3769 72.5892C78.3855 72.6326 78.3942 72.6773 78.4014 72.7207C78.4346 72.8882 78.4693 73.0558 78.504 73.2233C78.504 73.2248 78.504 73.2262 78.5054 73.2277C78.53 73.3432 78.5545 73.4602 78.5805 73.5758C78.634 73.8199 78.6903 74.0597 78.7481 74.2995C78.7871 74.4627 78.829 74.6259 78.8709 74.7891C78.8723 74.7963 78.8752 74.8036 78.8766 74.8108C78.9128 74.9509 78.9503 75.091 78.9893 75.2297C78.9994 75.2658 79.0081 75.3019 79.0196 75.338C79.0615 75.4926 79.1063 75.6457 79.1511 75.7973C79.154 75.8075 79.1554 75.8176 79.1583 75.8262C79.2074 75.9909 79.258 76.1541 79.3085 76.3159C79.3548 76.4676 79.4039 76.6192 79.4544 76.768C79.4602 76.7868 79.466 76.8056 79.4718 76.8243C79.5252 76.9803 79.5772 77.1349 79.6306 77.2866C79.7375 77.5885 79.8459 77.8846 79.96 78.1763C79.973 78.2096 79.986 78.2428 79.999 78.276C80.0409 78.3829 80.0828 78.4883 80.1261 78.5938C80.1434 78.6371 80.1622 78.6805 80.1795 78.7238C80.3615 79.1629 80.5508 79.589 80.7486 80.0007C80.8165 80.1437 80.8859 80.2838 80.9566 80.4224C81.026 80.5611 81.0968 80.6983 81.169 80.8341C81.2398 80.9699 81.3134 81.1028 81.3871 81.2357C81.4608 81.3671 81.5344 81.4986 81.6095 81.6271C81.6846 81.7557 81.7612 81.8842 81.8378 82.0099C81.9923 82.2598 82.1498 82.5039 82.3101 82.7422C82.3895 82.8607 82.4704 82.9762 82.5528 83.0918C82.8763 83.0947 83.1941 83.099 83.5032 83.1048C83.6058 83.1062 83.7083 83.1077 83.8094 83.1106C84.2124 83.1192 84.6024 83.1293 84.9765 83.1438H84.9838C85.03 83.1452 85.0762 83.1467 85.1224 83.1496C85.2755 83.1553 85.4258 83.1611 85.5731 83.1669C85.5745 83.1669 85.5774 83.1669 85.5789 83.1683C86.8558 83.3532 87.8611 84.3802 88.0128 85.6687L88.0315 86.0312V86.037L88.1153 87.6172C88.5718 87.6692 88.9733 87.727 89.3128 87.792C89.4659 87.8108 89.6118 87.844 89.7461 87.8888C90.282 88.026 90.5781 88.1878 90.5882 88.3727C90.5896 88.4203 90.5723 88.468 90.5362 88.5171C90.5781 88.6067 90.6055 88.702 90.6099 88.8031L90.7948 92.3146C90.802 92.4272 90.7818 92.537 90.7413 92.6425Z" fill="#C7C7C7"/>
</g>
<path d="M43.1325 20.8734C43.2163 21.6721 42.6367 22.3877 41.838 22.4715C41.0393 22.5553 40.3238 21.9756 40.24 21.1768C40.1562 20.3782 40.7359 19.6626 41.5345 19.5789C42.3333 19.4951 43.0487 20.0747 43.1325 20.8734Z" fill="#302B2D"/>
<path d="M43.1916 20.6494C43.2677 21.3743 42.7417 22.0236 42.0168 22.0997C41.292 22.1759 40.6426 21.6498 40.5666 20.9248C40.4906 20.2 41.0166 19.5507 41.7414 19.4746C42.4662 19.3985 43.1155 19.9246 43.1916 20.6494Z" fill="#575B77"/>
<path d="M42.3576 20.5188C42.3482 20.4295 42.2684 20.3648 42.1791 20.3742L41.5327 20.4419C41.4434 20.4513 41.3787 20.5314 41.3881 20.6205C41.3975 20.7097 41.4774 20.7745 41.5666 20.7651L42.213 20.6972C42.3022 20.6881 42.367 20.6081 42.3576 20.5188Z" fill="#302B2D"/>
<path d="M42.4035 21.1133C42.3941 21.0241 42.3141 20.9593 42.225 20.9687L41.5786 21.0364C41.4893 21.0458 41.4246 21.1258 41.434 21.215C41.4434 21.3042 41.5233 21.3689 41.6125 21.3595L42.2589 21.2917C42.3482 21.2824 42.4129 21.2025 42.4035 21.1133Z" fill="#302B2D"/>
<path d="M42.1579 16.796C42.2417 17.5947 41.6621 18.3103 40.8634 18.3941C40.0647 18.4779 39.3492 17.8982 39.2654 17.0994C39.1816 16.3007 39.7613 15.5852 40.5599 15.5015C41.3587 15.4177 42.0741 15.9972 42.1579 16.796Z" fill="#302B2D"/>
<path d="M42.217 16.572C42.2931 17.2969 41.7671 17.9462 41.0422 18.0223C40.3174 18.0985 39.668 17.5724 39.592 16.8474C39.516 16.1226 40.042 15.4733 40.7668 15.3972C41.4916 15.3211 42.141 15.8472 42.217 16.572Z" fill="#575B77"/>
<path d="M41.383 16.4414C41.3736 16.3521 41.2936 16.2874 41.2045 16.2968L40.5581 16.3647C40.4688 16.3741 40.4041 16.454 40.4135 16.5432C40.4229 16.6325 40.5028 16.6972 40.592 16.6878L41.2384 16.6201C41.3277 16.6107 41.3924 16.5307 41.383 16.4414Z" fill="#302B2D"/>
<path d="M41.4289 17.0359C41.4195 16.9468 41.3396 16.8819 41.2504 16.8913L40.604 16.9592C40.5147 16.9686 40.45 17.0486 40.4594 17.1377C40.4688 17.227 40.5488 17.2917 40.6379 17.2824L41.2843 17.2146C41.3734 17.2052 41.4383 17.1253 41.4289 17.0359Z" fill="#302B2D"/>
<path d="M41.0915 12.494C41.1752 13.2927 40.5957 14.0083 39.797 14.0921C38.9983 14.1759 38.2827 13.5962 38.199 12.7974C38.1152 11.9987 38.6948 11.2832 39.4935 11.1995C40.2923 11.1157 41.0077 11.6952 41.0915 12.494Z" fill="#302B2D"/>
<path d="M41.1506 12.27C41.2267 12.9949 40.7007 13.6442 39.9758 13.7203C39.251 13.7963 38.6016 13.2704 38.5256 12.5454C38.4496 11.8206 38.9756 11.1713 39.7004 11.0952C40.4252 11.0191 41.0745 11.5452 41.1506 12.27Z" fill="#575B77"/>
<path d="M40.3166 12.1395C40.3072 12.0502 40.2273 11.9855 40.1381 11.9948L39.4917 12.0627C39.4024 12.0721 39.3377 12.1521 39.3471 12.2412C39.3565 12.3305 39.4365 12.3952 39.5256 12.3859L40.172 12.318C40.2613 12.3088 40.326 12.2288 40.3166 12.1395Z" fill="#302B2D"/>
<path d="M40.3625 12.7339C40.3531 12.6447 40.2732 12.5799 40.184 12.5893L39.5376 12.657C39.4483 12.6664 39.3836 12.7464 39.393 12.8356C39.4024 12.9248 39.4823 12.9895 39.5715 12.9801L40.2179 12.9123C40.307 12.903 40.3718 12.8231 40.3625 12.7339Z" fill="#302B2D"/>
<path d="M30.4968 89.4106C30.4973 89.7817 30.1172 90.0822 29.6484 90.0826L14.9058 90.079C14.4369 90.0796 14.0565 89.7781 14.0569 89.4072L14.0575 87.7803L14.0576 87.2844C14.0576 87.0513 14.2074 86.8462 14.4346 86.7263C14.5695 86.6546 14.7323 86.6126 14.9069 86.6133L15.2799 86.613L29.6468 86.6158C29.6468 86.6158 29.6476 86.6158 29.6485 86.6159C29.7392 86.6164 29.8269 86.6272 29.9088 86.648C30.2508 86.7352 30.4977 86.9884 30.4976 87.288L30.4977 87.846L30.4968 89.4106Z" fill="#2B2928"/>
<path d="M31.9629 92.2389C31.9629 92.6098 31.5165 92.9105 30.9658 92.9104L13.6527 92.907C13.102 92.9069 12.6556 92.6062 12.6558 92.2352L12.6561 90.1122C12.6561 89.7413 13.1027 89.4407 13.6533 89.4407L30.9664 89.444C31.5172 89.4443 31.9635 89.745 31.9632 90.1159L31.9629 92.2389Z" fill="#2B2928"/>
<path d="M25.9803 74.0764C25.9801 74.4104 25.7253 74.6809 25.4107 74.6809L18.4268 74.6796C18.1122 74.6796 17.8574 74.4088 17.8574 74.075C17.8574 73.741 18.1125 73.4705 18.4271 73.4705L25.411 73.4718C25.7256 73.4718 25.9804 73.7424 25.9803 74.0764Z" fill="#2B2928"/>
<path d="M23.9755 74.681L19.8922 74.6797C19.8746 82.6913 17.9911 84.276 16.4696 86.5766L16.4695 86.6133L21.9189 89.2257L27.3687 86.6154V86.542C25.862 84.2406 24.1662 81.9351 23.9755 74.681Z" fill="#2B2928"/>
<path d="M26.4513 69.2243C26.4513 71.7275 24.4222 73.7565 21.9191 73.7565C19.4159 73.7565 17.3867 71.7274 17.3867 69.2243C17.3867 66.7211 19.4159 64.6919 21.9191 64.6919C24.4222 64.6919 26.4513 66.7211 26.4513 69.2243Z" fill="#2B2928"/>
<path opacity="0.25" d="M30.9664 95.6952L30.4948 95.6954C30.4953 95.7043 30.4968 95.7131 30.4968 95.7224L30.4976 96.9955L30.4975 97.4495C30.4976 97.6935 30.2508 97.8994 29.9087 97.9704C29.8268 97.9873 29.7392 97.9961 29.6485 97.9964C29.6476 97.9965 29.6467 97.9965 29.6467 97.9965L27.3685 97.9968V98.0563C25.8618 99.9292 24.1662 101.805 23.9754 107.708L25.4109 107.708C25.7255 107.708 25.9803 107.928 25.9804 108.2C25.9804 108.472 25.7256 108.692 25.4112 108.692L23.5031 108.692C25.2248 109.215 26.4513 110.565 26.4513 112.148C26.4513 114.185 24.4222 115.836 21.9191 115.836C19.4159 115.836 17.3867 114.185 17.3867 112.148C17.3867 110.565 18.6125 109.216 20.3335 108.693L18.4274 108.693C18.1128 108.693 17.8579 108.473 17.8577 108.201C17.8577 107.929 18.1125 107.709 18.4271 107.709L19.8924 107.709C19.8748 101.19 17.9912 99.9001 16.4698 98.0281L16.4696 97.9984L15.2801 97.9987L14.9072 97.9984C14.7325 97.9988 14.5697 97.9646 14.4348 97.9065C14.2075 97.809 14.0578 97.642 14.0578 97.4524L14.0577 97.0488L14.0571 95.725C14.0571 95.7157 14.0586 95.7069 14.0593 95.6978L13.6535 95.698C13.1029 95.698 12.6564 95.4534 12.6563 95.1515L12.656 93.4238C12.6559 93.1222 13.1022 92.8774 13.653 92.8773L30.9661 92.8745C31.5167 92.8744 31.9632 93.1191 31.9632 93.4209L31.9636 95.1484C31.9635 95.4502 31.517 95.6949 30.9664 95.6952Z" fill="url(#paint1_linear_391_30)"/>
<path opacity="0.25" d="M120.022 88.5699H119.637C119.638 88.5766 119.639 88.5836 119.639 88.5905L119.64 89.5602L119.64 89.906C119.64 90.0916 119.438 90.2486 119.16 90.3026C119.093 90.3155 119.021 90.3221 118.947 90.3224C118.947 90.3224 118.946 90.3224 118.946 90.3224L117.089 90.3228V90.3683C115.861 91.7947 114.478 93.2236 114.323 97.7193L115.493 97.7195C115.749 97.7193 115.957 97.8871 115.957 98.0942C115.957 98.3011 115.75 98.4688 115.493 98.4688L113.938 98.4691C115.342 98.8674 116.341 99.8955 116.341 101.101C116.341 102.653 114.687 103.91 112.647 103.91C110.606 103.91 108.952 102.653 108.952 101.101C108.952 99.8957 109.951 98.8679 111.354 98.4695L109.8 98.4698C109.544 98.4698 109.336 98.3021 109.336 98.0951C109.336 97.8881 109.543 97.7203 109.8 97.7203L110.994 97.7201C110.98 92.7548 109.444 91.7726 108.204 90.3468L108.204 90.3241L107.234 90.3243L106.93 90.324C106.788 90.3244 106.655 90.2983 106.545 90.2539C106.36 90.1798 106.238 90.0524 106.238 89.9081L106.238 89.6008L106.237 88.5925C106.237 88.5855 106.238 88.5788 106.239 88.5719H105.908C105.46 88.5719 105.095 88.3857 105.095 88.1557L105.095 86.84C105.095 86.61 105.459 86.4236 105.908 86.4236L120.021 86.4214C120.47 86.4212 120.834 86.6076 120.834 86.8375L120.835 88.1534C120.834 88.3832 120.471 88.5697 120.022 88.5699Z" fill="url(#paint2_linear_391_30)"/>
<path d="M52.5913 82.9671C52.5918 83.2673 52.2843 83.5102 51.9049 83.5107L39.9792 83.5078C39.5999 83.5082 39.292 83.2644 39.2925 82.9642L39.2929 81.6483V81.2472C39.2929 81.0587 39.4141 80.8926 39.598 80.7957C39.707 80.7379 39.8388 80.704 39.98 80.7044L40.2816 80.7041L51.9036 80.7064C51.9036 80.7064 51.9044 80.7064 51.9051 80.7064C51.9785 80.7068 52.0494 80.7155 52.1157 80.7324C52.3923 80.8029 52.5919 81.0077 52.5919 81.2501L52.5921 81.7015L52.5913 82.9671Z" fill="#3A3735"/>
<path d="M53.7773 85.255C53.7771 85.5552 53.4162 85.7984 52.9707 85.7983L38.9654 85.7956C38.5199 85.7954 38.1588 85.552 38.1589 85.252L38.1594 83.5347C38.1594 83.2346 38.5206 82.9915 38.9659 82.9915L52.9711 82.9941C53.4166 82.9943 53.7777 83.2376 53.7776 83.5378L53.7773 85.255Z" fill="#3A3735"/>
<path d="M48.9379 70.5629C48.9377 70.833 48.7316 71.0519 48.4771 71.0518L42.8276 71.0508C42.5731 71.0508 42.3669 70.8317 42.3669 70.5616C42.3669 70.2914 42.5734 70.0726 42.8277 70.0728L48.4772 70.0738C48.7317 70.0738 48.9379 70.2927 48.9379 70.5629Z" fill="#3A3735"/>
<path d="M47.3158 71.052L44.0126 71.051C43.9983 77.532 42.4747 78.8138 41.2439 80.6748V80.7044L50.0605 80.7061V80.6468C48.8418 78.7852 47.47 76.9201 47.3158 71.052Z" fill="#3A3735"/>
<path d="M49.3188 66.6375C49.3188 68.6623 47.6773 70.3039 45.6525 70.3039C43.6275 70.3039 41.9861 68.6623 41.9861 66.6375C41.9861 64.6125 43.6275 62.9712 45.6525 62.9712C47.6772 62.9712 49.3188 64.6127 49.3188 66.6375Z" fill="#3A3735"/>
<path d="M119.614 83.5906C119.614 83.8907 119.306 84.1338 118.927 84.1341L107.001 84.1312C106.622 84.1316 106.314 83.8878 106.315 83.5877L106.315 82.2718L106.315 81.8706C106.315 81.682 106.436 81.516 106.62 81.4191C106.729 81.3613 106.861 81.3273 107.002 81.3277L107.304 81.3274L118.926 81.3297C118.926 81.3297 118.927 81.3297 118.927 81.3297C119.001 81.3301 119.072 81.3388 119.138 81.3557C119.415 81.4262 119.614 81.631 119.614 81.8734L119.614 82.3248L119.614 83.5906Z" fill="#3A3735"/>
<path d="M120.799 85.8781C120.799 86.1782 120.438 86.4215 119.993 86.4213L105.988 86.4186C105.542 86.4185 105.181 86.1751 105.181 85.8751L105.182 84.1578C105.182 83.8576 105.543 83.6145 105.988 83.6145L119.993 83.6171C120.439 83.6174 120.8 83.8606 120.8 84.1608L120.799 85.8781Z" fill="#3A3735"/>
<path d="M115.96 71.1861C115.96 71.4563 115.754 71.6752 115.499 71.6751L109.85 71.6741C109.595 71.6741 109.389 71.455 109.389 71.185C109.389 70.9147 109.596 70.6959 109.85 70.696L115.499 70.6971C115.754 70.6971 115.96 70.916 115.96 71.1861Z" fill="#3A3735"/>
<path d="M114.338 71.6753L111.035 71.6743C111.021 78.1553 109.497 79.4371 108.266 81.2981V81.3277L117.083 81.3294V81.2701C115.864 79.4085 114.492 77.5434 114.338 71.6753Z" fill="#3A3735"/>
<path d="M116.341 67.261C116.341 69.2858 114.7 70.9274 112.675 70.9274C110.65 70.9274 109.008 69.286 109.008 67.261C109.008 65.236 110.65 63.5947 112.675 63.5947C114.699 63.5947 116.341 65.236 116.341 67.261Z" fill="#3A3735"/>
<path opacity="0.5" d="M52.9749 82.994H52.5917C52.5923 82.9849 52.595 82.9763 52.595 82.9672L52.5956 81.7015L52.5955 81.2501C52.5955 81.0077 52.396 80.8029 52.1192 80.7324C52.0529 80.7156 51.982 80.7068 51.9086 80.7064C51.9079 80.7064 51.9072 80.7064 51.9072 80.7064L50.0642 80.7061V80.6469C48.8454 78.7851 47.4738 76.9201 47.3195 71.052L48.4807 71.0519C48.7352 71.052 48.9413 70.833 48.9415 70.5629C48.9415 70.2928 48.7353 70.0738 48.4808 70.0737L46.9373 70.0734C48.3302 69.5537 49.3222 68.2117 49.3222 66.6376C49.3222 64.6317 47.7111 63.003 45.7124 62.9727V71.0517L47.0619 71.0509L45.7124 71.8704V85.0745L52.9742 85.076C53.4197 85.0761 53.7808 84.8329 53.7809 84.5327L53.7812 83.5376C53.7814 83.2375 53.4202 82.9941 52.9749 82.994Z" fill="#6F7E85"/>
<path opacity="0.5" d="M120.009 83.6159L119.626 83.6158C119.626 83.6067 119.629 83.5983 119.629 83.5891L119.63 82.3233L119.63 81.8719C119.63 81.6295 119.43 81.4246 119.153 81.3542C119.087 81.3373 119.016 81.3286 118.943 81.3281C118.942 81.3281 118.941 81.3281 118.941 81.3281L117.098 81.3278V81.2686C115.879 79.4068 114.508 77.5419 114.354 71.6738L115.515 71.6737C115.769 71.6738 115.975 71.4549 115.975 71.1847C115.975 70.9146 115.769 70.6957 115.515 70.6955L113.971 70.6952C115.364 70.1755 116.356 68.8335 116.356 67.2595C116.356 65.2536 114.745 63.6248 112.747 63.5945V71.6748L113.846 71.674L112.747 72.4962V85.5519L120.008 85.5532C120.454 85.5534 120.815 85.3103 120.815 85.0101L120.815 84.1595C120.816 83.8595 120.454 83.6161 120.009 83.6159Z" fill="#6F7E85"/>
<path opacity="0.5" d="M30.9664 89.4099H30.4948C30.4953 89.3987 30.4968 89.3879 30.4968 89.3766L30.4976 87.812L30.4975 87.254C30.4976 86.9545 30.2508 86.7012 29.9087 86.614C29.8268 86.5933 29.7392 86.5824 29.6485 86.5819C29.6476 86.5818 29.6467 86.5818 29.6467 86.5818L27.3685 86.5813V86.5081C25.8618 84.2067 24.1662 81.9012 23.9754 74.6471L25.4109 74.6469C25.7255 74.6471 25.9803 74.3764 25.9804 74.0424C25.9804 73.7085 25.7256 73.4379 25.4112 73.4376L23.5031 73.4372C25.2248 72.7948 26.4513 71.1359 26.4513 69.1901C26.4513 66.6869 24.4222 64.6577 21.9191 64.6577H21.9189V74.6809L23.5117 74.6807L21.9189 75.878V92.0077L30.9658 92.0094C31.5164 92.0096 31.9629 91.7088 31.9629 91.3379L31.9633 90.0815C31.9635 89.7109 31.517 89.4102 30.9664 89.4099Z" fill="#6F7E85"/>
<path d="M37.0742 14.0361L39.7733 25.7224" stroke="#302B2D" stroke-width="4" stroke-miterlimit="10" stroke-linecap="round"/>
<path d="M63.8953 35.0636C63.9979 35.0275 63.7957 35.0983 63.8953 35.0636L66.0689 47.7564C66.4979 49.458 65.4666 51.1855 63.765 51.6145C62.4347 51.9511 61.0885 51.3935 60.359 50.3217C60.0355 51.33 59.2136 52.1547 58.1115 52.4321C56.8303 52.7556 55.536 52.2515 54.7893 51.2563C54.3689 51.8196 53.7594 52.2472 53.0256 52.4321C51.324 52.8625 49.8305 51.7542 49.166 50.1296C48.4427 48.3606 47.4154 47.1324 45.9868 43.1775C45.8308 43.1833 45.6661 43.0758 45.5025 43.0056C41.1832 41.151 41.9843 37.0531 41.9929 36.9924C41.9929 36.991 41.9929 36.991 41.9929 36.991C41.8644 36.5215 42.2139 35.9957 42.9361 35.4382C45.0263 33.819 50.2349 31.9267 55.9578 30.3537C58.3801 29.6879 60.5006 29.3527 62.2845 29.2632C62.439 29.256 62.5907 29.2487 62.7395 29.2444C66.2177 29.1462 67.7904 32.0073 66.9499 32.8945C65.5062 34.4184 65.8291 34.5759 67.3176 33.1834C68.6785 31.9104 67.7919 33.1401 67.7875 33.2542C67.7615 34.4415 67.4689 33.7954 63.8953 35.0636Z" fill="#E57A61"/>
<path d="M72.504 55.8553C72.504 55.8567 72.5026 55.8568 72.5012 55.8582C72.0895 56.6353 71.2864 57.2405 70.2854 57.424C70.0803 57.4615 69.8766 57.4803 69.6758 57.4803C68.2805 57.4803 67.07 56.5992 66.8346 55.3194L63.2553 34.7L62.7439 29.2443C62.8999 29.2371 62.5937 29.2486 62.7439 29.2443C66.2193 29.1475 66.8729 31.5395 67.3178 32.6778L68.8489 34.5555L72.764 54.2303C72.868 54.798 72.7653 55.3613 72.504 55.8553Z" fill="#E57A61"/>
<path d="M72.764 54.2304L69.4316 34.9969L69.0177 32.6227C68.539 29.861 66.2193 29.1475 62.744 29.2443L62.7463 29.2687C62.7441 29.2606 62.7418 29.2524 62.7397 29.2443C62.5909 29.2486 62.4392 29.2558 62.2847 29.263C60.5008 29.3526 58.3803 29.6877 55.958 30.3536C50.2351 31.9266 45.0264 33.8188 42.9363 35.438C42.5686 36.8958 42.8994 38.7179 43.7695 39.9482C44.1526 40.4897 44.6584 40.9409 45.2607 41.2118C45.6832 41.4019 46.5747 41.9256 46.9974 41.6996C46.9463 41.7269 49.1376 48.7593 51.0199 50.2455C52.3193 51.2715 54.5721 50.4705 54.739 48.7168C54.9414 49.972 56.7227 51.0629 57.973 50.643C59.5229 50.1224 59.6298 48.3557 59.7208 46.9997C60.3 48.0194 60.4644 49.1409 61.6 49.7744C62.9636 50.5354 65.1509 50.0054 64.6681 48.1101L63.5855 36.0557L67.2421 54.7416C67.4776 56.0214 68.688 56.9025 70.0834 56.9025C70.2841 56.9025 70.4878 56.8837 70.6929 56.8461C71.4281 56.7118 72.0565 56.3493 72.5014 55.8581C72.5028 55.8567 72.5043 55.8567 72.5043 55.8553C72.7654 55.3614 72.8681 54.7981 72.764 54.2304Z" fill="#FFB387"/>
<path d="M63.2861 36.1382C63.2861 36.1382 65.0722 49.345 62.4722 50.5789C63.623 51.0921 65.3823 50.3508 65.3823 50.3508V46.9159L63.2861 36.1382Z" fill="#E57A61"/>
<path d="M55.1268 50.1119C55.1268 50.1119 52.7429 45.2881 51.9915 40.8545" stroke="#E57A61" stroke-miterlimit="10" stroke-linecap="round"/>
<path d="M59.8967 48.2666C59.8967 48.2666 57.9764 42.8112 57.2263 39.1282" stroke="#E57A61" stroke-miterlimit="10" stroke-linecap="round"/>
<path d="M64.6713 44.3023C64.6713 44.3023 63.7379 39.9688 63.3638 36.0557" stroke="#E57A61" stroke-width="2" stroke-miterlimit="10" stroke-linecap="round"/>
<g opacity="0.4">
<path d="M71.7687 51.8464L67.5312 52.6114C67.9888 55.2435 68.9468 56.1122 70.4724 55.8139C71.6547 55.5826 72.2375 54.5042 71.7687 51.8464Z" fill="white"/>
<path d="M71.6479 52.0074C71.5184 52.0238 71.3892 52.0409 71.2597 52.0574L70.728 52.1415C70.3736 52.1977 70.0211 52.2653 69.6687 52.3327C68.9648 52.4731 68.2614 52.6164 67.5596 52.7688L67.6886 52.5842C67.7715 52.9725 67.8679 53.357 67.9951 53.7265C68.1212 54.0955 68.2762 54.4529 68.4816 54.763C68.6879 55.071 68.9473 55.3263 69.2564 55.4594C69.5642 55.5956 69.9204 55.6132 70.2804 55.556C70.371 55.5408 70.4611 55.5229 70.5473 55.5C70.6223 55.482 70.7077 55.45 70.7823 55.4182C70.936 55.3541 71.0724 55.2642 71.1934 55.151C71.3122 55.0356 71.4175 54.8965 71.4979 54.735C71.5794 54.5745 71.6425 54.3971 71.685 54.2117C71.7715 53.8399 71.7835 53.4442 71.7688 53.051C71.754 52.7026 71.709 52.3535 71.6479 52.0074ZM71.9107 51.8214C71.9412 52.0222 71.9726 52.2227 71.9989 52.4246C72.0279 52.6261 72.0459 52.8292 72.0644 53.033C72.0985 53.441 72.1024 53.8546 72.0546 54.2758C72.0285 54.486 71.9879 54.6993 71.9148 54.9099C71.8436 55.1204 71.7329 55.3272 71.582 55.5096C71.5044 55.5989 71.4189 55.6828 71.324 55.7556C71.2278 55.826 71.1263 55.8891 71.0201 55.9401C70.9109 55.9886 70.8079 56.0283 70.6879 56.0595C70.5804 56.0904 70.4722 56.1068 70.3645 56.1231C70.1472 56.1528 69.9219 56.1621 69.6944 56.138C69.467 56.1162 69.2382 56.0517 69.0285 55.949C68.8178 55.8478 68.629 55.7069 68.4717 55.5447C68.3141 55.3821 68.1847 55.2014 68.0762 55.0145C67.8608 54.6389 67.7184 54.2421 67.6112 53.8435C67.5035 53.4444 67.4317 53.0415 67.3739 52.6389L67.3724 52.6287C67.3603 52.5445 67.4187 52.4663 67.503 52.4542C68.2137 52.3516 68.9228 52.2398 69.6314 52.1252C69.9852 52.0652 70.339 52.0053 70.6908 51.9341L71.2183 51.8269C71.3932 51.7859 71.569 51.7499 71.743 51.7045C71.8148 51.6859 71.8884 51.729 71.907 51.8007C71.9081 51.8052 71.909 51.8098 71.9097 51.8143L71.9107 51.8214Z" fill="#F58968"/>
</g>
<path d="M47.1878 65.225C47.4966 65.225 47.747 64.9746 47.747 64.6658C47.747 64.357 47.4966 64.1067 47.1878 64.1067C46.879 64.1067 46.6287 64.357 46.6287 64.6658C46.6287 64.9746 46.879 65.225 47.1878 65.225Z" fill="#D4D4D4"/>
<path d="M114.306 66.1102C114.615 66.1102 114.865 65.8599 114.865 65.5511C114.865 65.2423 114.615 64.9919 114.306 64.9919C113.997 64.9919 113.747 65.2423 113.747 65.5511C113.747 65.8599 113.997 66.1102 114.306 66.1102Z" fill="#D4D4D4"/>
<path d="M24.9258 66.9957C24.9258 67.4913 24.5241 67.8928 24.0285 67.8928C23.5329 67.8928 23.1313 67.4911 23.1313 66.9957C23.1313 66.5001 23.533 66.0984 24.0285 66.0984C24.5241 66.0984 24.9258 66.5001 24.9258 66.9957Z" fill="#E0E0E0"/>
<path opacity="0.26" d="M67.0561 83.7995C67.0505 83.8009 67.0448 83.8009 67.0393 83.8024L64.7805 84.1158C64.7863 84.1057 64.7921 84.0956 64.7979 84.0841C64.8383 84.0133 64.8787 83.9425 64.9177 83.8703C64.9524 83.8082 64.9856 83.7461 65.0189 83.6839C65.0723 83.5843 65.1257 83.4832 65.1777 83.3806C65.2167 83.3055 65.2543 83.2304 65.2918 83.1538C65.3121 83.1119 65.3337 83.0701 65.354 83.0267C65.3886 82.9559 65.4233 82.8852 65.4565 82.8129C65.4825 82.7581 65.5085 82.7017 65.536 82.6454C65.5634 82.5847 65.5908 82.5241 65.6183 82.4619C65.6486 82.3941 65.679 82.3247 65.7093 82.2554C65.7526 82.1572 65.796 82.0561 65.8378 81.9549C65.8754 81.8668 65.9115 81.7787 65.9476 81.6892C65.9707 81.6328 65.9938 81.5751 66.0155 81.5173C66.0487 81.4335 66.082 81.3497 66.1137 81.2645C66.1571 81.1533 66.1975 81.0421 66.2394 80.9279C66.2654 80.8586 66.29 80.7878 66.3145 80.7171C66.3492 80.6217 66.3824 80.5249 66.4142 80.4282C66.4156 80.4267 66.4156 80.4238 66.4171 80.4224C66.459 80.2982 66.5009 80.1725 66.5413 80.0468C66.5745 79.9443 66.6063 79.8403 66.6381 79.7363C66.68 79.6034 66.7204 79.4705 66.7594 79.3347C66.7608 79.3304 66.7623 79.3261 66.7637 79.3203C66.7941 79.2134 66.8244 79.1065 66.8547 78.9982C66.8778 78.9158 66.901 78.8321 66.9226 78.7483C66.9616 78.6038 66.9992 78.4594 67.0353 78.3121C67.0714 78.1705 67.1061 78.0275 67.1393 77.8831C67.1422 77.8744 67.1436 77.8643 67.1465 77.8556C67.1797 77.7126 67.2115 77.5682 67.2433 77.4237C67.2751 77.2807 67.3054 77.1363 67.3343 76.9904C67.3588 76.8676 67.3834 76.7448 67.4065 76.6221C67.4282 76.5108 67.4484 76.3996 67.4686 76.2869C67.4816 76.2147 67.4946 76.1425 67.5062 76.0703C67.512 76.0414 67.5163 76.0125 67.5221 75.9822C67.5437 75.8522 67.5654 75.7207 67.5856 75.5893C67.6058 75.4535 67.6261 75.3177 67.6463 75.1805C67.6622 75.0736 67.6766 74.9667 67.6896 74.8598C67.72 74.6461 67.746 74.4308 67.7705 74.2142C67.7821 74.1159 67.7936 74.0177 67.8023 73.9181C67.8124 73.8299 67.8211 73.7418 67.8297 73.6537C67.8601 73.3417 67.8861 73.0283 67.9092 72.7105C67.9164 72.6065 67.9236 72.5025 67.9294 72.3985C67.9352 72.3191 67.9395 72.2411 67.9439 72.1616C67.9641 71.7861 67.98 71.4062 67.9886 71.0234C67.9958 70.7258 68.0002 70.4268 68.0002 70.1264C68.0002 69.4619 67.9828 68.7888 67.9467 68.1099C67.8875 66.9963 67.7806 65.9057 67.6318 64.8441C67.4036 63.2176 67.0743 61.6605 66.6583 60.1944L68.4605 60.0427C68.7046 61.1492 68.9096 62.3105 69.0698 63.5123C69.2602 64.9293 69.39 66.4055 69.4529 67.9251C69.7091 74.1795 68.7617 79.8692 67.0561 83.7995Z" fill="#8DCCDB"/>
<path d="M78.2253 59.5835L78.2224 59.5849L74.7818 61.2937L70.3126 63.5124L67.6318 64.8442C67.4035 63.2177 67.0742 61.6606 66.6582 60.1945L69.5269 60.0428L72.9993 59.8608L78.2253 59.5835Z" fill="#2B2928"/>
<path d="M67.694 83.8025L64.7805 84.1159C65.6847 84.0062 66.6655 83.9007 67.694 83.8025Z" fill="#2B2928"/>
<path d="M90.8208 92.411C90.7723 91.4913 83.5836 91.1228 74.7642 91.5881C65.9449 92.0533 58.8348 93.1762 58.8833 94.0959L59.0758 95.1958L60.8184 95.3667L90.1334 93.6334L90.7964 93.3767L90.8208 92.411Z" fill="#2B2928"/>
<path d="M90.8208 92.7962C90.7723 91.8765 83.5836 91.5081 74.7642 91.9733C65.9449 92.4386 58.8348 93.5615 58.8833 94.4812L59.0758 95.5811L60.8184 95.7521L90.1334 94.0188L90.7964 93.7621L90.8208 92.7962Z" fill="#824A3A"/>
<path d="M90.7964 93.7619C90.8449 94.6816 83.9518 95.9386 75.1323 96.4038C66.3132 96.8691 59.1242 96.5006 59.0757 95.5809C59.0272 94.6612 66.1374 93.5383 74.9566 93.0731C83.7761 92.608 90.7479 92.8423 90.7964 93.7619Z" fill="#562F29"/>
<path opacity="0.5" d="M30.9664 89.4099H30.4948C30.4953 89.3987 30.4968 89.3879 30.4968 89.3766L30.4976 87.812L30.4975 87.254C30.4976 86.9545 30.2508 86.7012 29.9087 86.614C29.8268 86.5933 29.7392 86.5824 29.6485 86.5819C29.6476 86.5818 29.6467 86.5818 29.6467 86.5818L27.3685 86.5813V86.5081C25.8618 84.2067 24.1662 81.9012 23.9754 74.6471L25.4109 74.6469C25.7255 74.6471 25.9803 74.3764 25.9804 74.0424C25.9804 73.7085 25.7256 73.4379 25.4112 73.4376L23.5031 73.4372C25.2248 72.7948 26.4513 71.1359 26.4513 69.1901C26.4513 66.6869 24.4222 64.6577 21.9191 64.6577H21.9189V74.6809L23.5117 74.6807L21.9189 75.878V92.0077L30.9658 92.0094C31.5164 92.0096 31.9629 91.7088 31.9629 91.3379L31.9633 90.0815C31.9635 89.7109 31.517 89.4102 30.9664 89.4099Z" fill="#6F7E85"/>
</g>
<defs>
<linearGradient id="paint0_linear_391_30" x1="45.9422" y1="113.329" x2="45.9422" y2="60.1485" gradientUnits="userSpaceOnUse">
<stop offset="0.1829" stop-color="white"/>
<stop offset="0.2806" stop-color="#D7DADD"/>
<stop offset="0.4507" stop-color="#969FA6"/>
<stop offset="0.6054" stop-color="#63707B"/>
<stop offset="0.7395" stop-color="#3E4E5C"/>
<stop offset="0.8476" stop-color="#273A49"/>
<stop offset="0.9163" stop-color="#1F3242"/>
</linearGradient>
<linearGradient id="paint1_linear_391_30" x1="22.3094" y1="113.278" x2="22.3094" y2="83.0886" gradientUnits="userSpaceOnUse">
<stop stop-color="white"/>
<stop offset="0.1106" stop-color="#EEF0F1"/>
<stop offset="0.3291" stop-color="#C2C8CC"/>
<stop offset="0.6348" stop-color="#7C8790"/>
<stop offset="1" stop-color="#1F3242"/>
</linearGradient>
<linearGradient id="paint2_linear_391_30" x1="112.965" y1="112.736" x2="112.965" y2="61.9047" gradientUnits="userSpaceOnUse">
<stop offset="0.1829" stop-color="white"/>
<stop offset="0.2806" stop-color="#D7DADD"/>
<stop offset="0.4507" stop-color="#969FA6"/>
<stop offset="0.6054" stop-color="#63707B"/>
<stop offset="0.7395" stop-color="#3E4E5C"/>
<stop offset="0.8476" stop-color="#273A49"/>
<stop offset="0.9163" stop-color="#1F3242"/>
</linearGradient>
<clipPath id="clip0_391_30">
<rect width="130" height="105" fill="white"/>
</clipPath>
</defs>
</svg>
