<svg width="2000" height="1333" viewBox="0 0 2000 1333" fill="none" xmlns="http://www.w3.org/2000/svg">
<g clip-path="url(#clip0_53_286)">
<g clip-path="url(#clip1_53_286)">
<path d="M1202.52 495.114C1202.5 514.282 1207.36 533.138 1216.65 549.906C1225.94 566.674 1239.34 580.801 1255.59 590.955H1375.89C1392.56 580.485 1406.21 565.845 1415.5 548.484C1424.78 531.122 1429.38 511.638 1428.83 491.956C1428.28 472.275 1422.61 453.077 1412.37 436.259C1402.13 419.441 1387.69 405.585 1370.46 396.059C1353.22 386.533 1333.81 381.668 1314.12 381.942C1294.43 382.217 1275.16 387.623 1258.2 397.626C1241.24 407.629 1227.18 421.883 1217.42 438.98C1207.66 456.077 1202.52 475.425 1202.52 495.114Z" fill="#EBEBEB"/>
<path opacity="0.1" d="M1202.49 495.114C1202.49 514.294 1207.38 533.157 1216.69 549.925C1226 566.693 1239.43 580.814 1255.71 590.955H1376C1395.72 578.585 1411.14 560.433 1420.16 538.976C1429.18 517.518 1431.36 493.8 1426.41 471.056C1426.41 471.728 1426.41 472.457 1426.41 473.129C1426.41 490.689 1421.51 507.902 1412.26 522.825C1403 537.749 1389.76 549.792 1374.03 557.595C1358.3 565.398 1340.7 568.652 1323.22 566.991C1305.74 565.329 1289.07 558.818 1275.09 548.19C1261.11 537.563 1250.37 523.242 1244.1 506.842C1237.82 490.442 1236.25 472.614 1239.56 455.368C1242.87 438.123 1250.93 422.145 1262.83 409.235C1274.74 396.325 1290.01 386.996 1306.93 382.301C1278.51 384.476 1251.95 397.308 1232.59 418.226C1213.22 439.145 1202.47 466.608 1202.49 495.114Z" fill="black"/>
<path d="M1435.65 590.955H1195.63V625.544H1435.65V590.955Z" fill="#EBEBEB"/>
<path d="M1413.56 625.572H1217.73V660.161H1413.56V625.572Z" fill="#EBEBEB"/>
<path opacity="0.1" d="M1413.56 625.572H1217.73V639.604H1413.56V625.572Z" fill="black"/>
<path d="M1116.87 1067.44H1514.58C1514.58 1067.44 1423.86 976.728 1404.87 868.087C1389.08 776.476 1381.32 660.245 1381.32 660.245H1250.11C1250.11 660.245 1242.38 776.476 1226.41 868.087C1207.56 976.728 1116.87 1067.44 1116.87 1067.44Z" fill="#EBEBEB"/>
<path opacity="0.1" d="M1116.87 1067.44H1514.58L1378.88 1032.41C1347.24 1024.24 1319.34 1005.51 1299.82 979.308C1280.29 953.108 1270.31 921.018 1271.53 888.365L1280.1 660.245H1250.11C1250.11 660.245 1242.38 776.448 1226.41 868.087C1207.59 976.7 1116.87 1067.44 1116.87 1067.44Z" fill="black"/>
<path d="M1555.22 1067.42H1076.21V1082.01H1555.22V1067.42Z" fill="#EBEBEB"/>
<path d="M1555.22 1160.99H1076.21V1175.58H1555.22V1160.99Z" fill="#EBEBEB"/>
<path opacity="0.1" d="M1555.22 1170.51H1076.21V1175.61H1555.22V1170.51Z" fill="black"/>
<path d="M1571.12 1175.58H1060.33V1199.05H1571.12V1175.58Z" fill="#EBEBEB"/>
<path d="M1531.58 1082.01H1099.87V1160.99H1531.58V1082.01Z" fill="#EBEBEB"/>
<path opacity="0.1" d="M1531.58 1100.91L1099.87 1094.19V1082.01H1531.58V1100.91Z" fill="black"/>
<path opacity="0.1" d="M1531.58 1160.99H1099.87V1142.08L1531.58 1148.83V1160.99Z" fill="black"/>
<g opacity="0.2">
<path d="M1333.96 403.503C1315.11 418.178 1375.49 486.572 1395.18 471.252C1414.87 455.932 1353.65 388.183 1333.96 403.503Z" fill="white"/>
<path d="M1364.68 673.857C1380.82 770.342 1372.66 873.857 1420.28 962.108C1426.35 974.879 1433.3 987.314 1440.36 999.582C1412.83 966.785 1389.95 928.807 1378.57 886.908C1363.98 816.89 1362.25 745.051 1364.57 673.857H1364.68Z" fill="white"/>
</g>
<path d="M1862.48 1196.28C1843.76 1192.2 1826.37 1183.41 1811.98 1170.76C1797.58 1158.1 1786.64 1141.99 1780.2 1123.93L1805.91 1006.44C1819.7 992.391 1836.92 982.179 1855.87 976.817C1874.81 971.455 1894.83 971.129 1913.94 975.87C1933.05 980.611 1950.59 990.256 1964.83 1003.85C1979.08 1017.45 1989.53 1034.52 1995.15 1053.39C2000.77 1072.26 2001.38 1092.27 1996.9 1111.45C1992.42 1130.62 1983.02 1148.3 1969.63 1162.72C1956.23 1177.15 1939.3 1187.84 1920.51 1193.72C1901.72 1199.61 1881.72 1200.49 1862.48 1196.28Z" fill="#C7C7C7"/>
<path opacity="0.1" d="M1862.48 1196.42C1843.76 1192.33 1826.38 1183.54 1811.98 1170.88C1797.58 1158.21 1786.65 1142.1 1780.2 1124.05L1805.91 1006.56C1819.3 992.839 1835.96 982.759 1854.33 977.266C1872.7 971.773 1892.16 971.048 1910.88 975.159C1918.79 976.873 1926.49 979.447 1933.85 982.833C1933.17 982.637 1932.47 982.497 1931.8 982.357C1914.65 978.603 1896.78 979.716 1880.23 985.57C1863.67 991.423 1849.08 1001.79 1838.09 1015.49C1827.11 1029.19 1820.17 1045.69 1818.06 1063.12C1815.95 1080.55 1818.75 1098.23 1826.15 1114.16C1833.55 1130.09 1845.24 1143.63 1859.93 1153.27C1874.61 1162.9 1891.69 1168.24 1909.24 1168.69C1926.8 1169.14 1944.13 1164.68 1959.29 1155.8C1974.44 1146.93 1986.81 1134 1995.01 1118.47C1986.82 1145.78 1968.61 1168.99 1944.04 1183.44C1919.46 1197.89 1890.33 1202.53 1862.48 1196.42Z" fill="black"/>
<path d="M1784.95 940.747L1733.66 1175.22L1767.45 1182.62L1818.74 948.139L1784.95 940.747Z" fill="#C7C7C7"/>
<path d="M1746.37 954.904L1704.52 1146.21L1738.31 1153.6L1780.16 962.296L1746.37 954.904Z" fill="#C7C7C7"/>
<path opacity="0.1" d="M1766.64 959.426L1724.75 1150.72L1738.46 1153.72L1780.34 962.427L1766.64 959.426Z" fill="black"/>
<path d="M1285.17 1157.77L1370.17 769.166C1370.17 769.166 1439.41 877.162 1541.46 918.949C1627.59 953.958 1739.48 986.362 1739.48 986.362L1711.47 1114.61C1711.47 1114.61 1596.28 1097.33 1503.35 1093.35C1393.17 1088.53 1285.17 1157.77 1285.17 1157.77Z" fill="#C7C7C7"/>
<path opacity="0.1" d="M1285.17 1157.77L1370.17 769.194L1375.41 909.23C1376.62 941.879 1388.96 973.132 1410.39 997.8C1431.81 1022.47 1461.02 1039.07 1493.18 1044.84L1717.88 1085.23L1711.44 1114.61C1711.44 1114.61 1596.25 1097.33 1503.32 1093.32C1393.19 1088.53 1285.17 1157.77 1285.17 1157.77Z" fill="black"/>
<path d="M1364.62 726.4L1262.25 1194.34L1276.5 1197.46L1378.87 729.519L1364.62 726.4Z" fill="#C7C7C7"/>
<path d="M1273.2 706.403L1170.83 1174.34L1185.08 1177.46L1287.45 709.522L1273.2 706.403Z" fill="#C7C7C7"/>
<path opacity="0.1" d="M1273.21 706.426L1170.84 1174.37L1175.82 1175.46L1278.19 707.515L1273.21 706.426Z" fill="black"/>
<path d="M1253.69 685.875L1144.53 1184.87L1167.46 1189.89L1276.62 690.891L1253.69 685.875Z" fill="#C7C7C7"/>
<path d="M1282.4 732.617L1190.14 1154.35L1267.3 1171.23L1359.56 749.496L1282.4 732.617Z" fill="#C7C7C7"/>
<path opacity="0.1" d="M1341.07 745.472L1255.4 1168.63L1267.3 1171.24L1359.56 749.505L1341.07 745.472Z" fill="black"/>
<path opacity="0.1" d="M1282.4 732.644L1190.14 1154.35L1208.6 1158.41L1294.3 735.221L1282.4 732.644Z" fill="black"/>
<g opacity="0.2">
<path d="M1980.12 1087.55C1961.74 1102.87 1907.83 1029.24 1926.9 1013.28C1945.97 997.313 1999.33 1071.62 1980.12 1087.55Z" fill="white"/>
<path d="M1722.62 999.778C1631.79 963.368 1528.95 949.365 1452.91 883.856C1441.7 875.201 1431.17 865.791 1420.59 856.24C1446.74 890.157 1478.95 920.657 1517.46 940.654C1582.75 969.894 1652.54 986.922 1722.62 999.778Z" fill="white"/>
</g>
<path d="M451.197 417.954H127.349L101.106 975.439H477.44L451.197 417.954Z" fill="#EBEBEB"/>
<path opacity="0.1" d="M477.384 975.411H101.134L127.377 418.066H182.888C182.299 524.102 184.988 813.949 224.058 870.076C260.832 922.898 405.293 937.574 475.844 941.607L477.384 975.411Z" fill="black"/>
<path d="M560.566 975.439H18.0088V1000.23H560.566V975.439Z" fill="#EBEBEB"/>
<path d="M560.566 1134.41H18.0088V1159.2H560.566V1134.41Z" fill="#EBEBEB"/>
<path opacity="0.1" d="M560.566 1150.57H18.0088V1159.22H560.566V1150.57Z" fill="black"/>
<path d="M578.546 1159.2H0V1199.05H578.546V1159.2Z" fill="#EBEBEB"/>
<path d="M533.735 1000.25H44.7837V1134.41H533.735V1000.25Z" fill="#EBEBEB"/>
<path opacity="0.1" d="M533.763 1032.35L44.7837 1020.92V1000.25H533.763V1032.35Z" fill="black"/>
<path opacity="0.1" d="M533.763 1134.41H44.7837V1102.28L533.763 1113.74V1134.41Z" fill="black"/>
<path d="M114.382 454.476L464.165 454.476V417.954L114.382 417.954V454.476Z" fill="#EBEBEB"/>
<path opacity="0.1" d="M114.382 454.476L464.165 454.476V441.761L114.382 441.761V454.476Z" fill="black"/>
<path d="M492.256 276.686V366.309L451.197 417.954H127.349L86.2905 366.309V276.686H165.579V332.168H238.006V276.686H340.541V332.168H412.967V276.686H492.256Z" fill="#EBEBEB"/>
<path opacity="0.1" d="M127.349 417.954L86.2905 366.309H492.256L451.197 417.954H127.349Z" fill="black"/>
<path opacity="0.2" d="M420.866 482.903C405.237 489.401 436.129 856.885 448.873 858.033C461.616 859.181 438.538 475.593 420.866 482.903Z" fill="white"/>
<path d="M1269.54 1048.51H806.162V1065.2H1269.54V1048.51Z" fill="#FFC727"/>
<path opacity="0.5" d="M1269.54 1048.51H806.162V1065.2H1269.54V1048.51Z" fill="white"/>
<path d="M1269.54 1155.53H806.162V1172.22H1269.54V1155.53Z" fill="#FFC727"/>
<path opacity="0.5" d="M1269.54 1155.53H806.162V1172.22H1269.54V1155.53Z" fill="white"/>
<path opacity="0.1" d="M1269.54 1166.39H806.162V1172.22H1269.54V1166.39Z" fill="black"/>
<path d="M1284.92 1172.22H790.786V1199.05H1284.92V1172.22Z" fill="#FFC727"/>
<path opacity="0.5" d="M1284.92 1172.22H790.786V1199.05H1284.92V1172.22Z" fill="white"/>
<path d="M1246.66 1065.2H829.044V1155.53H1246.66V1065.2Z" fill="#FFC727"/>
<path opacity="0.5" d="M1246.66 1065.2H829.044V1155.53H1246.66V1065.2Z" fill="white"/>
<path opacity="0.1" d="M1246.66 1086.82L829.044 1079.12V1065.2H1246.66V1086.82Z" fill="black"/>
<path opacity="0.1" d="M1246.66 1155.53H829.044V1133.9L1246.66 1141.61V1155.53Z" fill="black"/>
<path d="M874.051 1048.51C874.051 1048.51 970.424 898.979 970.424 731.356C970.424 563.732 903.907 351.745 903.907 351.745L1037.84 319.117L1171.77 351.745C1171.77 351.745 1105.25 563.956 1105.25 731.356C1105.25 898.755 1201.51 1048.51 1201.51 1048.51H874.051Z" fill="#FFC727"/>
<path opacity="0.5" d="M874.051 1048.51C874.051 1048.51 970.424 898.979 970.424 731.356C970.424 563.732 903.907 351.745 903.907 351.745L1037.84 319.117L1171.77 351.745C1171.77 351.745 1105.25 563.956 1105.25 731.356C1105.25 898.755 1201.51 1048.51 1201.51 1048.51H874.051Z" fill="white"/>
<path opacity="0.1" d="M874.051 1048.51C874.051 1048.51 970.424 898.951 970.424 731.412C970.424 563.872 903.907 351.717 903.907 351.717H1171.77C1171.77 351.717 990.029 357.879 972.189 432.07C954.348 506.261 983.392 690.605 979.807 768.157C976.222 845.71 943.397 969.362 994.035 1006.53C1035.54 1037.08 1138.66 1009.92 1174.54 999.133C1182.68 1016.04 1191.68 1032.53 1201.51 1048.51H874.051Z" fill="black"/>
<path d="M962.19 298.111H1113.46V285.032H962.19V298.111Z" fill="#FFC727"/>
<path opacity="0.5" d="M962.19 298.111H1113.46V285.032H962.19V298.111Z" fill="white"/>
<path opacity="0.1" d="M962.19 298.111H1113.46V293.546H962.19V298.111Z" fill="black"/>
<path d="M957.177 319.117H1118.47V298.111H957.177V319.117Z" fill="#FFC727"/>
<path opacity="0.5" d="M957.177 319.117H1118.47V298.111H957.177V319.117Z" fill="white"/>
<path d="M980.059 285.032H1095.59V229.045H980.059V285.032Z" fill="#FFC727"/>
<path opacity="0.5" d="M980.059 285.032H1095.59V229.045H980.059V285.032Z" fill="white"/>
<path opacity="0.1" d="M980.059 285.032H1095.59V268.087H980.059V285.032Z" fill="black"/>
<path d="M1028.4 229.045H1047.16V215.91H1028.4V229.045Z" fill="#FFC727"/>
<path opacity="0.3" d="M1028.4 229.045H1047.16V215.91H1028.4V229.045Z" fill="white"/>
<path d="M1063.46 132L1037.84 175.495L1012.3 132H1063.46Z" fill="#FFC727"/>
<path d="M994.343 149.869L1037.84 175.495L994.343 201.038V149.869Z" fill="#FFC727"/>
<path d="M1012.21 218.963L1037.84 175.495L1063.38 218.963H1012.21Z" fill="#FFC727"/>
<path d="M1081.33 201.122L1037.84 175.495L1081.33 149.925V201.122Z" fill="#FFC727"/>
<g opacity="0.5">
<path d="M1063.46 132L1037.84 175.495L1012.3 132H1063.46Z" fill="white"/>
<path d="M994.343 149.869L1037.84 175.495L994.343 201.038V149.869Z" fill="white"/>
<path d="M1012.21 218.963L1037.84 175.495L1063.38 218.963H1012.21Z" fill="white"/>
<path d="M1081.33 201.122L1037.84 175.495L1081.33 149.925V201.122Z" fill="white"/>
</g>
<path d="M933.931 610.616H1141.74V589.891H933.931V610.616Z" fill="#FFC727"/>
<path opacity="0.5" d="M933.931 610.616H1141.74V589.891H933.931V610.616Z" fill="white"/>
<path opacity="0.1" d="M933.931 610.644H1141.74V603.419H933.931V610.644Z" fill="black"/>
<path d="M933.931 555.33H1141.74V534.605H933.931V555.33Z" fill="#FFC727"/>
<path opacity="0.5" d="M933.931 555.33H1141.74V534.605H933.931V555.33Z" fill="white"/>
<path opacity="0.1" d="M933.931 555.33H1141.74V548.104H933.931V555.33Z" fill="black"/>
<path d="M915.054 645.374H1160.59V618.235H915.054V645.374Z" fill="#FFC727"/>
<path opacity="0.5" d="M915.054 645.374H1160.59V618.235H915.054V645.374Z" fill="white"/>
<path opacity="0.1" d="M915.054 645.345H1160.59V635.879H915.054V645.345Z" fill="black"/>
<g opacity="0.2">
<path d="M1043.3 326.427C1077.75 331.535 1111.76 339.24 1145.05 349.477C1110.6 344.379 1076.58 336.673 1043.3 326.427Z" fill="white"/>
<path d="M1145.05 366.113C1133.85 367.233 1105.56 512.619 1113.46 515.84C1121.36 519.061 1157.85 364.824 1145.05 366.113Z" fill="white"/>
</g>
<path d="M1132.33 915.084L1053.91 990.031C1038.85 1004.29 1025.91 1017.03 1019.77 1024.26V1024.4C1018.15 1025.96 1016.91 1027.88 1016.16 1030C1016.16 1030 1016.16 1030.14 1016.16 1030.19C1017.36 1037.56 1127.69 1161.38 1132.98 1164.4C1138.27 1167.43 1147.32 1152.53 1146.98 1144.32C1146.65 1136.12 1125.47 1069.77 1125.47 1069.77L1203.19 994.148L1132.33 915.084Z" fill="#AD6359"/>
<path d="M1069.88 974.655L1053.77 990.031C1038.71 1004.29 1025.77 1017.03 1019.63 1024.26V1024.4C1018.21 1026.12 1017 1028 1016.02 1030C1016.02 1030 1016.02 1030.14 1016.02 1030.19C1017.22 1037.56 1127.55 1161.38 1132.84 1164.4C1138.13 1167.43 1147.18 1152.53 1146.84 1144.32C1146.51 1136.12 1125.33 1069.77 1125.33 1069.77L1141.91 1054.39L1069.88 974.655Z" fill="#EBEBEB"/>
<path d="M1132.78 1164.29C1127.49 1161.27 1017.17 1037.45 1015.96 1030.05C1015.46 1027.25 1032.54 1010.14 1053.8 990.031L1054.47 989.415L1126.56 1068.51L1125.16 1069.68C1125.16 1069.68 1146.2 1135.95 1146.67 1144.21C1147.15 1152.47 1138.08 1167.32 1132.78 1164.29Z" fill="#FFC727"/>
<path opacity="0.3" d="M1132.78 1164.29C1127.49 1161.27 1017.17 1037.45 1015.96 1030.05C1015.46 1027.25 1032.54 1010.14 1053.8 990.031L1054.47 989.415L1126.56 1068.51L1125.16 1069.68C1125.16 1069.68 1146.2 1135.95 1146.67 1144.21C1147.15 1152.47 1138.08 1167.32 1132.78 1164.29Z" fill="black"/>
<path d="M1136.34 1158.61C1118.27 1137.27 1043.3 1052.96 1023.81 1033.25C1023.64 1033.11 1023.53 1033.25 1023.67 1033.25C1041.14 1054.78 1116.79 1138.5 1136 1158.8C1136.42 1159.34 1136.73 1159.05 1136.34 1158.61Z" fill="#263238"/>
<path d="M1130.91 1076.6C1125.14 1067.02 1114.91 1058.09 1103.49 1057C1103.04 1057 1102.98 1057.58 1103.29 1057.75C1112.81 1063.33 1121.71 1069.9 1129.84 1077.36C1129.96 1077.44 1130.1 1077.48 1130.24 1077.47C1130.38 1077.47 1130.52 1077.43 1130.63 1077.34C1130.75 1077.26 1130.84 1077.15 1130.88 1077.02C1130.93 1076.88 1130.94 1076.74 1130.91 1076.6Z" fill="#263238"/>
<path d="M1132.61 1085.7C1126.85 1076.13 1116.62 1067.22 1105.2 1066.1C1104.75 1066.1 1104.69 1066.69 1105 1066.88C1114.52 1072.45 1123.43 1079.02 1131.55 1086.49C1131.67 1086.57 1131.81 1086.61 1131.96 1086.61C1132.1 1086.61 1132.24 1086.56 1132.36 1086.47C1132.48 1086.39 1132.56 1086.27 1132.61 1086.13C1132.66 1085.99 1132.66 1085.84 1132.61 1085.7Z" fill="#263238"/>
<path d="M1134.29 1094.83C1128.53 1085.26 1118.3 1076.32 1106.88 1075.23C1106.43 1075.23 1106.37 1075.82 1106.68 1076.01C1116.21 1081.57 1125.11 1088.15 1133.23 1095.62C1133.35 1095.7 1133.49 1095.74 1133.64 1095.74C1133.78 1095.74 1133.92 1095.69 1134.04 1095.6C1134.16 1095.52 1134.25 1095.4 1134.29 1095.26C1134.34 1095.12 1134.34 1094.97 1134.29 1094.83Z" fill="#263238"/>
<path d="M1175.94 845.71C1170.54 872.373 1059.88 978.8 1059.88 978.8L1137.1 1067.86C1137.1 1067.86 1294.22 911.023 1286.01 852.207C1278.9 800.954 1196.84 585.046 1196.84 585.046H1113.51C1113.51 585.046 1181.24 819.467 1175.94 845.71Z" fill="#263238"/>
<path d="M1145.81 1046.69C1135.56 1033.92 1138.66 1037.45 1128.27 1024.79C1123.2 1018.63 1089.74 977.988 1083.97 973.031C1083.97 973.031 1083.63 973.031 1083.71 973.255C1087.58 979.78 1121.75 1019.83 1126.93 1025.91C1137.57 1038.37 1134.66 1034.67 1145.44 1047C1145.49 1047.02 1145.54 1047.04 1145.59 1047.03C1145.64 1047.03 1145.69 1047.01 1145.73 1046.97C1145.77 1046.94 1145.8 1046.89 1145.82 1046.84C1145.83 1046.79 1145.82 1046.74 1145.81 1046.69Z" fill="#37474F"/>
<path d="M1186.92 832.714C1185.66 826.048 1184.12 819.411 1182.8 812.773C1179.93 799.255 1176.88 785.755 1173.67 772.275C1167.29 745.556 1160.35 718.995 1152.86 692.594C1145.33 666.099 1137.35 639.632 1128.16 613.669C1127.01 610.448 1125.86 607.256 1124.69 604.063C1124.69 603.811 1124.21 603.923 1124.3 604.063C1132.25 630.082 1140.46 656.044 1147.91 682.203C1155.36 708.362 1162.22 734.493 1168.72 760.82C1171.96 774.039 1174.99 787.286 1177.96 800.59C1179.41 807.116 1180.76 813.641 1182.22 820.195C1183.94 826.837 1185.17 833.595 1185.91 840.416C1186.14 846.87 1184.33 853.231 1180.73 858.593C1177.4 864.026 1173.51 869.152 1169.72 874.249C1162.16 884.528 1090.1 964.825 1087.78 967.009C1087.58 967.177 1087.77 967.429 1088.06 967.289C1097.72 958.607 1158.86 892.398 1166.62 882.175C1170.48 877.106 1174.21 871.952 1177.82 866.771C1181.49 862.057 1184.46 856.829 1186.61 851.255C1188.32 845.206 1188.43 838.816 1186.92 832.714Z" fill="#37474F"/>
<path d="M1148.72 1035.57C1148.72 1035.57 1169.89 1138.58 1169.89 1138.67C1170.17 1159.39 1170.79 1177.57 1171.96 1186.95C1171.95 1187 1171.95 1187.05 1171.96 1187.09C1171.98 1189.31 1172.5 1191.5 1173.51 1193.48V1193.62C1179.75 1197.71 1345.58 1200.28 1351.38 1198.43C1357.18 1196.58 1352.36 1179.86 1346 1174.63C1339.64 1169.39 1276.57 1140.01 1276.57 1140.01L1254.73 1037.08L1148.72 1035.57Z" fill="#AD6359"/>
<path d="M1351.63 1198.43C1345.81 1200.28 1179.97 1197.71 1173.76 1193.62V1193.48C1172.73 1191.5 1172.17 1189.32 1172.13 1187.09C1172.12 1187.04 1172.12 1187 1172.13 1186.95C1170.93 1177.57 1170.34 1159.39 1170.03 1138.67L1166.36 1120.74H1272.79L1276.94 1140.01C1276.94 1140.01 1339.98 1169.39 1346.39 1174.63C1352.81 1179.86 1357.46 1196.58 1351.63 1198.43Z" fill="#EBEBEB"/>
<path d="M1351.6 1198.43C1345.81 1200.31 1179.97 1197.73 1173.73 1193.62C1171.32 1192.1 1170.28 1167.91 1169.89 1138.67V1137.74L1276.88 1138.19V1140.01C1276.88 1140.01 1339.92 1169.39 1346.31 1174.63C1352.7 1179.86 1357.43 1196.58 1351.6 1198.43Z" fill="#FFC727"/>
<path opacity="0.3" d="M1351.6 1198.43C1345.81 1200.31 1179.97 1197.73 1173.73 1193.62C1171.32 1192.1 1170.28 1167.91 1169.89 1138.67V1137.74L1276.88 1138.19V1140.01C1276.88 1140.01 1339.92 1169.39 1346.31 1174.63C1352.7 1179.86 1357.43 1196.58 1351.6 1198.43Z" fill="black"/>
<path d="M1349.95 1191.96C1321.94 1190.84 1209.21 1188.97 1181.52 1190C1181.29 1190 1181.26 1190.14 1181.52 1190.17C1209.16 1191.88 1321.97 1192.97 1349.95 1192.44C1350.43 1192.41 1350.43 1191.99 1349.95 1191.96Z" fill="#263238"/>
<path d="M1285.79 1140.49C1274.84 1138.25 1261.34 1139.73 1252.82 1147.43C1252.49 1147.74 1252.82 1148.22 1253.27 1148.1C1263.84 1144.88 1274.72 1142.79 1285.73 1141.86C1285.89 1141.83 1286.04 1141.75 1286.14 1141.63C1286.25 1141.51 1286.31 1141.36 1286.32 1141.2C1286.33 1141.03 1286.28 1140.87 1286.18 1140.74C1286.08 1140.62 1285.94 1140.52 1285.79 1140.49Z" fill="#263238"/>
<path d="M1293.66 1145.39C1282.68 1143.17 1269.21 1144.63 1260.69 1152.36C1260.36 1152.64 1260.69 1153.12 1261.14 1153.01C1271.71 1149.77 1282.59 1147.69 1293.6 1146.79C1293.79 1146.8 1293.97 1146.73 1294.1 1146.6C1294.24 1146.48 1294.32 1146.3 1294.33 1146.12C1294.34 1145.93 1294.27 1145.75 1294.14 1145.61C1294.02 1145.48 1293.84 1145.39 1293.66 1145.39Z" fill="#263238"/>
<path d="M1301.53 1150.29C1290.55 1148.08 1277.08 1149.56 1268.56 1157.26C1268.23 1157.54 1268.56 1158.02 1269.01 1157.91C1279.57 1154.67 1290.46 1152.59 1301.47 1151.69C1301.66 1151.7 1301.84 1151.63 1301.97 1151.5C1302.11 1151.38 1302.19 1151.2 1302.2 1151.02C1302.21 1150.83 1302.14 1150.65 1302.01 1150.51C1301.89 1150.38 1301.71 1150.3 1301.53 1150.29Z" fill="#263238"/>
<path d="M1187.51 584.962C1187.51 586.894 1191.99 614.117 1189.36 640.276C1187.45 659.377 1185.07 676.294 1182.52 678.394C1179.97 680.495 1165.22 690.045 1160.34 692.986C1160.34 692.986 1205.35 829.381 1216.94 874.837C1233.75 940.738 1281.59 1138.44 1281.59 1138.44H1166.76C1166.76 1138.44 1134.1 950.233 1119.82 887.496C1107.58 833.694 1061.73 683.239 1061.73 683.239C1049.18 660.834 1064.53 584.99 1064.53 584.99C1064.53 584.99 1187.51 584.906 1187.51 584.962Z" fill="#263238"/>
<path d="M1270.3 1117.55C1253.49 1117.55 1258.26 1117.24 1241.37 1117.32C1232.96 1117.32 1178.83 1117.74 1171.15 1119.14C1171.11 1119.14 1171.07 1119.16 1171.03 1119.19C1171 1119.23 1170.98 1119.27 1170.98 1119.31C1170.98 1119.36 1171 1119.4 1171.03 1119.43C1171.07 1119.46 1171.11 1119.48 1171.15 1119.48C1178.88 1120.66 1233.13 1119.34 1241.39 1119.12C1258.2 1118.7 1253.44 1118.64 1270.3 1118.02C1270.35 1118.01 1270.39 1117.97 1270.42 1117.93C1270.45 1117.89 1270.47 1117.84 1270.47 1117.79C1270.47 1117.73 1270.45 1117.68 1270.42 1117.64C1270.39 1117.6 1270.35 1117.57 1270.3 1117.55Z" fill="#37474F"/>
<path d="M1190.31 673.017C1179.87 678.749 1169.96 685.384 1160.68 692.846C1160.31 693.126 1160.68 693.714 1161.07 693.462C1171.12 687.16 1181.4 681.027 1191.07 674.193C1191.21 674.088 1191.31 673.932 1191.34 673.755C1191.38 673.579 1191.34 673.397 1191.25 673.246C1191.15 673.095 1191 672.988 1190.82 672.945C1190.65 672.902 1190.47 672.928 1190.31 673.017Z" fill="#37474F"/>
<path d="M1181.91 598.825C1181.91 598.433 1181.15 598.461 1181.21 598.825C1183.28 611.597 1184.2 622.968 1184.99 635.067C1185.35 640.668 1185.66 672.008 1175.69 671.252C1174.04 671.252 1172.89 669.684 1172.33 667.303C1171.87 664.121 1171.81 660.893 1172.16 657.697C1172.16 651.115 1172.16 644.561 1171.63 638.092C1170.86 625.856 1168.84 613.731 1165.61 601.906C1165.59 601.825 1165.54 601.754 1165.47 601.709C1165.4 601.664 1165.31 601.65 1165.23 601.668C1165.15 601.687 1165.08 601.737 1165.03 601.808C1164.99 601.879 1164.97 601.965 1164.99 602.046C1167.86 618.706 1169.48 635.558 1169.84 652.459C1169.84 660.61 1167.71 673.213 1176.22 673.157C1184.74 673.101 1187.28 652.151 1187.42 646.494C1187.65 630.433 1185.8 614.41 1181.91 598.825Z" fill="#37474F"/>
<path d="M1176.31 672.064C1175.76 674.266 1175.37 676.503 1175.13 678.758C1174.79 680.525 1174.79 682.34 1175.13 684.108C1175.16 684.174 1175.2 684.231 1175.26 684.27C1175.32 684.31 1175.39 684.332 1175.47 684.332C1175.54 684.332 1175.61 684.31 1175.67 684.27C1175.73 684.231 1175.77 684.174 1175.8 684.108C1176.57 682.383 1177.06 680.55 1177.26 678.674C1177.68 676.602 1178.15 674.529 1178.52 672.428C1178.57 672.135 1178.5 671.834 1178.32 671.593C1178.15 671.351 1177.89 671.188 1177.59 671.14C1177.3 671.092 1177 671.162 1176.76 671.335C1176.52 671.509 1176.35 671.771 1176.31 672.064Z" fill="#37474F"/>
<path d="M1154.29 1058.37C1153.98 1055.88 1153.68 1053.38 1153.31 1050.92C1152.64 1046.16 1151.83 1041.42 1151.1 1036.66C1149.64 1027.11 1147.99 1017.62 1146.31 1008.1C1142.95 989.135 1139.06 970.23 1134.94 951.409C1132.61 940.766 1129.93 930.264 1127.1 919.733C1126.9 919.005 1125.86 919.369 1125.98 920.069C1127.71 929.703 1129.37 939.31 1131.35 948.888C1133.34 958.467 1135.25 967.989 1137.15 977.54C1140.9 996.445 1144.41 1015.38 1148.13 1034.28C1149.19 1039.63 1150.15 1044.98 1151.21 1050.3C1151.72 1052.96 1152.25 1055.62 1152.84 1058.28C1153.42 1060.95 1154.24 1063.52 1154.66 1066.18C1154.66 1066.43 1155.08 1066.32 1155.05 1066.18C1154.63 1063.52 1154.57 1060.92 1154.29 1058.37Z" fill="#37474F"/>
<path d="M1228.34 915.672C1224.76 897.859 1219.94 880.242 1215.1 862.738C1205.32 827.505 1193.84 792.72 1182.38 758.075L1172.47 728.051C1170.82 723.066 1162.72 696.095 1161.71 693.518C1161.7 693.475 1161.67 693.438 1161.63 693.412C1161.59 693.386 1161.55 693.372 1161.5 693.372C1161.46 693.372 1161.41 693.386 1161.38 693.412C1161.34 693.438 1161.31 693.475 1161.29 693.518C1163.62 702.704 1166.9 716.092 1169.47 725.194C1172.05 734.297 1175.07 743.091 1177.87 752.025C1183.48 769.614 1188.94 787.174 1194.26 804.819C1204.79 839.66 1215.24 874.501 1223.81 909.902C1226.19 919.817 1228.57 929.703 1230.75 939.674C1232.94 949.645 1234.81 959.643 1236.89 969.586C1236.89 969.866 1237.39 969.81 1237.36 969.586C1235.51 951.493 1231.93 933.54 1228.34 915.672Z" fill="#37474F"/>
<path d="M1161.57 1008.88C1155.66 974.879 1148.58 941.074 1140.74 907.466C1132.89 873.857 1124.07 840.248 1114.41 806.864C1104.75 773.479 1094.02 740.57 1082.51 707.858C1076.71 692.468 1071.84 676.747 1067.92 660.778C1064.36 644.897 1062.57 627.701 1066.27 611.681C1067.17 607.611 1068.38 603.614 1069.88 599.722C1069.88 599.47 1069.6 599.245 1069.49 599.526C1056.57 629.605 1064.95 662.514 1074.78 692.202C1080.18 708.446 1085.98 724.578 1091.25 740.878C1096.51 757.179 1101.92 774.487 1106.9 791.291C1116.82 824.676 1126.03 858.285 1134.27 892.118C1142.5 925.95 1149.87 960.035 1156.31 994.26C1162.75 1028.49 1168.24 1063.1 1173.79 1097.61C1174.49 1102.12 1175.07 1106.63 1175.66 1111.13C1175.66 1111.39 1176.08 1111.39 1176.05 1111.13C1171.96 1076.91 1167.48 1042.82 1161.57 1008.88Z" fill="#37474F"/>
<path d="M1079.32 657.557C1081.89 656.576 1084.75 656.352 1087.41 655.624C1090.21 654.876 1092.95 653.94 1095.62 652.823C1100.7 650.664 1105.48 647.838 1109.82 644.421C1113.97 640.851 1117.15 636.296 1119.09 631.174C1120.26 628.373 1125.39 614.005 1125.44 613.893C1125.5 613.781 1126.28 613.697 1126.26 614.033C1126.12 615.994 1123.2 628.345 1122.2 631.454C1120.61 637.319 1117.37 642.606 1112.87 646.69C1108.2 650.652 1102.83 653.719 1097.05 655.736C1094.1 656.807 1091.06 657.604 1087.97 658.117C1085.13 658.797 1082.19 658.948 1079.29 658.565C1078.81 658.313 1078.95 657.697 1079.32 657.557Z" fill="#37474F"/>
<path d="M1220.7 648.09C1219.28 647.508 1217.83 647.012 1216.36 646.606C1214.79 646.008 1213.29 645.248 1211.88 644.337C1208.85 642.373 1206.15 639.955 1203.87 637.167C1201.2 633.613 1199.22 629.596 1198.01 625.32C1197.2 622.856 1194.99 609.58 1194.93 609.468C1194.87 609.356 1194.48 609.468 1194.54 609.636C1194.77 615.024 1195.4 620.388 1196.42 625.684C1197.53 630.592 1199.58 635.24 1202.44 639.38C1204.84 642.509 1207.87 645.095 1211.34 646.97C1212.88 647.813 1214.53 648.435 1216.24 648.818C1217.71 649.322 1219.31 649.322 1220.78 648.818C1221.12 648.79 1220.89 648.202 1220.7 648.09Z" fill="#37474F"/>
<path d="M1122.2 383.645C1122.2 383.645 1118.36 374.487 1110.77 373.479C1103.18 372.471 1101.11 377.064 1096.4 376.784C1091.7 376.504 1082.4 373.059 1076.54 376.504C1070.69 379.948 1070.44 389.583 1067.61 391.852C1064.78 394.12 1057.39 392.916 1054.17 399.414C1050.44 406.975 1054.36 412.829 1053.21 416.89C1051.31 423.668 1045.32 428.093 1047.33 437.027C1049.49 446.55 1057.08 448.034 1061.34 451.927C1065.59 455.82 1064.42 464.979 1074.95 467.919C1085.48 470.86 1089.71 464.726 1096.49 463.69C1103.26 462.654 1111.3 468.76 1118.89 465.707C1126.48 462.654 1125.86 455.736 1128.47 452.739C1131.07 449.743 1136.45 450.779 1139.84 445.261C1143.23 439.744 1139.14 433.162 1139.22 430.726C1139.42 426.553 1142.64 425.124 1142.92 419.047C1143.2 412.969 1137.15 407.62 1136.14 405.575C1133.76 400.646 1138.94 392.608 1134.46 387.594C1133.02 385.825 1131.09 384.512 1128.91 383.811C1126.74 383.111 1124.4 383.053 1122.2 383.645Z" fill="#263238"/>
<path d="M1072.68 380.761C1071.42 384.934 1070.27 390.059 1065.56 391.628C1059.1 393.196 1052.15 396.697 1051.98 404.147C1051.51 408.348 1054.19 412.549 1053.3 417.086C1052.75 418.532 1052.02 419.905 1051.14 421.175C1048.14 425.936 1045.68 431.314 1047.33 437.027C1044.53 431.678 1046.52 425.096 1049.24 420.223L1050.69 417.422C1051.19 415.98 1051.19 414.411 1050.69 412.969C1047.28 403.447 1050.19 393.532 1060.92 390.983C1063.72 390.199 1066.52 390.227 1068.48 388.183C1070.17 385.887 1071.58 383.395 1072.68 380.761Z" fill="#263238"/>
<path d="M1112.9 466.519C1120.6 466.519 1124.86 465.035 1126.9 457.473C1127.36 455.617 1128.33 453.927 1129.7 452.599C1133.96 450.219 1139 449.098 1140.26 444.197C1141.91 440.528 1140.26 436.159 1139.45 431.902C1140.53 433.847 1141.47 435.869 1142.25 437.952C1143.01 440.229 1143.08 442.684 1142.43 444.997C1141.78 447.309 1140.45 449.373 1138.61 450.919C1136.2 452.907 1133.34 453.468 1131.07 455.064C1126.76 464.698 1124.72 469.068 1112.93 466.463L1112.9 466.519Z" fill="#263238"/>
<path d="M1165.1 445.093C1205.35 484.304 1250.1 557.403 1241.17 574.627C1231.2 593.84 1179.19 545.444 1179.33 542.167C1179.33 539.702 1161.63 492.482 1146.25 455.54C1130.88 418.599 1155.05 435.375 1165.1 445.093Z" fill="#FFC727"/>
<path d="M1198.29 585.718H1062.4C1068 571.014 1074.56 551.129 1074.56 551.129C1082.82 499.119 1091.81 467.107 1106.76 441.284C1114.1 428.625 1131.72 422.323 1148.24 434.031C1165.8 446.494 1191.88 493.854 1197.03 503.881C1204.76 518.921 1191.04 538.302 1191.04 538.302L1198.29 585.718Z" fill="#FFC727"/>
<path d="M1166.92 533.848C1160.4 534.593 1153.96 535.886 1147.65 537.713C1144.52 538.666 1141.44 539.786 1138.36 540.99C1136.83 541.588 1135.28 542.148 1133.73 542.671C1132.14 543.262 1130.47 543.638 1128.78 543.791C1128.61 543.791 1128.78 544.043 1128.78 544.071C1130.38 544.141 1131.98 544.085 1133.57 543.903C1135.11 543.681 1136.64 543.334 1138.13 542.867C1141.32 541.942 1144.46 540.822 1147.65 539.842C1154.07 537.881 1160.48 535.893 1167.01 534.465C1167.32 534.409 1167.23 533.82 1166.92 533.848Z" fill="#263238"/>
<path d="M1183.06 540.318C1177.7 539.74 1172.31 539.497 1166.92 539.59C1164.12 539.59 1161.55 539.898 1158.86 540.234L1155.02 540.766C1153.62 540.99 1152.22 541.438 1150.85 541.634C1150.71 541.634 1150.71 541.915 1150.85 541.887C1152.19 541.887 1153.65 541.887 1154.88 541.887L1158.89 541.718C1161.69 541.718 1164.26 541.55 1166.95 541.41C1172.33 541.158 1177.68 540.934 1183.06 540.906C1183.34 540.906 1183.34 540.374 1183.06 540.318Z" fill="#263238"/>
<path d="M1104.78 441.564C1078.56 473.185 1035.51 563.256 1063.38 577.008C1071 580.761 1089.76 566.673 1100.57 548.216C1106.18 538.89 1120.18 466.771 1121.13 455.792C1123.93 425.796 1114.91 429.325 1104.78 441.564Z" fill="#FFC727"/>
<path d="M1120.52 460.301C1117.38 490.661 1112.11 521.217 1101.13 549.785C1106.4 520.069 1111.81 489.177 1120.52 460.301Z" fill="#263238"/>
<path d="M1122.22 464.839C1122.41 466.839 1122.09 468.855 1121.29 470.696C1120.48 472.538 1119.22 474.146 1117.63 475.369C1118.32 471.55 1119.9 467.945 1122.22 464.839Z" fill="#263238"/>
<path d="M1173.14 508.446C1173.14 508.446 1160.76 491.473 1151.49 484.556C1141.67 477.623 1130.31 473.174 1118.39 471.588C1105.53 469.852 1073.24 474.389 1072.96 484.052C1072.71 492.678 1105.48 486.236 1105.48 486.236C1105.48 486.236 1070.97 487.272 1072.57 497.747C1074.16 508.222 1111.78 498.559 1111.78 498.559C1111.78 498.559 1076.35 500.436 1079.71 510.939C1082.26 518.893 1116.82 512.087 1116.82 512.087C1116.82 512.087 1086.37 513.907 1088.64 522.169C1091.14 531.328 1123.46 527.071 1123.46 527.071C1132.73 547.152 1145.36 552.921 1154.85 555.946C1157.18 556.674 1173.14 508.446 1173.14 508.446Z" fill="#AD6359"/>
<path d="M1117.49 485.116C1113.43 485.116 1109.34 485.116 1105.28 485.368C1101.22 485.62 1097.21 486.18 1093.21 486.908C1087.96 487.726 1082.83 489.155 1077.92 491.165C1086.92 488.748 1096.13 487.182 1105.42 486.488C1109.45 486.152 1113.49 485.62 1117.52 485.284L1117.49 485.116Z" fill="#263238"/>
<path d="M1118.86 499.708C1113.68 499.904 1108.53 499.904 1103.35 500.324C1098.17 500.744 1093.35 501.584 1088.25 502.368C1087.86 502.368 1088.03 502.62 1088.42 502.564C1093.54 502.004 1098.33 501.864 1103.49 501.36C1108.64 500.856 1113.74 500.156 1118.86 499.82V499.708Z" fill="#263238"/>
<path d="M1122.39 511.975C1114.44 512.107 1106.52 513.045 1098.75 514.776C1098.36 514.776 1098.59 515.084 1099.01 515.028C1106.85 513.963 1113.01 513.067 1122.39 512.227C1122.53 512.255 1122.56 512.003 1122.39 511.975Z" fill="#263238"/>
<path d="M1237.45 578.296C1222.94 583.898 1198.24 577.932 1149.87 556.562L1164.23 493.294C1176.31 494.582 1207.76 510.098 1210.59 511.639C1234.39 525.614 1247.28 574.515 1237.45 578.296Z" fill="#FFC727"/>
<path d="M1150.32 554.49C1150.32 555.078 1150.32 557.291 1149.95 556.31C1164.94 561.15 1179.58 567.027 1193.75 573.899C1178.31 570.433 1163.48 564.664 1149.76 556.786H1149.53C1149.76 556.058 1150.06 555.33 1150.32 554.602V554.49Z" fill="#263238"/>
<path d="M1215.96 515.7C1199.66 506.261 1181.26 501.5 1164.15 493.574L1164.54 493.378C1163.45 496.767 1163.51 495.927 1164.01 492.93C1173.34 495.113 1182.49 498.007 1191.37 501.584C1200.03 505.281 1209.21 508.922 1215.96 515.588V515.7Z" fill="#263238"/>
<path d="M1198.71 503.573C1199.55 497.047 1209.49 486.768 1213.02 478.366C1216.55 469.964 1211.93 459.209 1208.32 459.937C1204.71 460.665 1204.45 464.866 1195.04 475.005C1188.99 481.531 1171.43 488.785 1161.71 501.976C1156.9 508.558 1197.93 510.098 1198.71 503.573Z" fill="#AD6359"/>
<path d="M1198.71 503.573C1199.55 497.047 1209.49 486.768 1213.02 478.366C1216.55 469.964 1211.93 459.209 1208.32 459.937C1204.71 460.665 1204.45 464.866 1195.04 475.005C1188.99 481.531 1171.43 488.785 1161.71 501.976C1156.9 508.558 1197.93 510.098 1198.71 503.573Z" fill="#AD6359"/>
<path opacity="0.06" d="M1198.71 503.573C1199.55 497.047 1209.49 486.768 1213.02 478.366C1216.55 469.964 1211.93 459.209 1208.32 459.937C1204.71 460.665 1204.45 464.866 1195.04 475.005C1188.99 481.531 1171.43 488.785 1161.71 501.976C1156.9 508.558 1197.93 510.098 1198.71 503.573Z" fill="black"/>
<path d="M1237.92 495.871C1237.99 497.519 1237.56 499.149 1236.71 500.559C1235.85 501.968 1234.6 503.094 1233.1 503.797C1235.98 505.682 1238.1 508.517 1239.1 511.807C1240.58 517.688 1232.04 522.59 1232.04 522.59C1234.61 525.174 1236.35 528.472 1237.03 532.056C1237.89 537.826 1229.97 544.015 1229.97 544.015C1230.85 547.702 1230.54 551.573 1229.1 555.078C1224.09 566.281 1175.69 571.322 1168.88 572.247L1149.03 505.029C1149.03 505.029 1191.04 479.822 1202.86 480.495C1212.72 480.971 1237.92 487.861 1237.92 495.871Z" fill="#AD6359"/>
<path d="M1232.82 503.573C1222.26 500.949 1211.42 499.641 1200.53 499.68C1200.31 499.68 1200.28 500.044 1200.53 500.044C1211.2 500.296 1222.1 503.405 1232.74 504.077C1232.81 504.088 1232.88 504.072 1232.93 504.033C1232.99 503.993 1233.02 503.934 1233.03 503.867C1233.05 503.8 1233.03 503.731 1232.99 503.676C1232.95 503.621 1232.89 503.584 1232.82 503.573Z" fill="#263238"/>
<path d="M1231.65 521.777C1229.21 521.339 1226.73 521.207 1224.25 521.385C1221.62 521.385 1219.02 521.525 1216.38 521.637C1211.15 521.889 1205.91 522.253 1200.7 522.786C1200.45 522.786 1200.45 523.178 1200.7 523.15C1205.94 522.926 1211.18 522.758 1216.38 522.73H1224.25C1226.72 522.912 1229.2 522.828 1231.65 522.478C1231.71 522.445 1231.77 522.395 1231.81 522.333C1231.84 522.271 1231.86 522.2 1231.86 522.127C1231.86 522.055 1231.84 521.984 1231.81 521.922C1231.77 521.86 1231.71 521.81 1231.65 521.777Z" fill="#263238"/>
<path d="M1229.52 544.015C1227.31 543.635 1225.06 543.635 1222.85 544.015L1215.68 544.463C1210.92 544.743 1206.13 544.995 1201.34 545.107C1201.12 545.107 1201.12 545.499 1201.34 545.499C1206.22 545.499 1211.06 545.499 1215.94 545.247L1223.08 545.023C1225.26 545.143 1227.45 544.878 1229.55 544.239C1229.55 544.239 1229.74 544.043 1229.52 544.015Z" fill="#263238"/>
<path d="M1060.86 574.655C1065.4 582.469 1124.6 583.253 1170.93 571.854C1179.75 569.698 1163.9 498.895 1154.8 502.256C1125.56 513.039 1105.67 520.657 1090.6 530.264C1074.67 540.29 1057.89 569.502 1060.86 574.655Z" fill="#AD6359"/>
<path d="M1060.86 574.655C1065.4 582.469 1122.48 588.267 1168.44 579.024L1150.68 501.696C1121.47 512.479 1105.67 520.853 1090.6 530.347C1074.67 540.29 1057.89 569.502 1060.86 574.655Z" fill="#FFC727"/>
<path d="M1167.01 572.863C1179.89 569.306 1193.42 568.157 1206.22 564.46C1212.03 563.177 1217.68 561.202 1223.02 558.579C1224.3 558.018 1225.46 557.206 1226.42 556.191C1227.38 555.176 1228.13 553.978 1228.62 552.669C1229.48 549.773 1229.7 546.725 1229.27 543.735C1230.86 542.363 1232.49 540.934 1234.17 539.618C1232.8 541.186 1231.37 542.727 1230.02 544.239V543.819C1230.86 546.864 1230.92 550.072 1230.19 553.145C1229.75 554.727 1228.99 556.204 1227.97 557.488C1226.94 558.773 1225.67 559.839 1224.23 560.623C1206.67 570.202 1186.19 570.566 1166.98 572.779L1167.01 572.863Z" fill="#263238"/>
<path d="M1072.68 548.216C1077 541.784 1082.17 535.97 1088.05 530.936C1100.29 521.273 1114.8 515.588 1128.89 509.398L1150.12 500.464L1151.49 499.876C1151.72 500.772 1152.25 503.517 1152.5 504.441L1150.76 503.657C1157.46 499.988 1164.18 495.899 1170.93 492.258C1177.68 488.414 1184.83 485.297 1192.24 482.959C1185.11 485.92 1178.24 489.491 1171.71 493.63C1164.54 497.775 1157.85 502.564 1150.51 506.541C1150.32 505.533 1149.61 502.872 1149.42 501.864L1151.1 502.704C1138.78 508.306 1121.08 515.672 1108.86 520.937C1094.78 526.986 1082.37 536.344 1072.68 548.216Z" fill="#263238"/>
<path d="M1054.33 557.543C1054.59 570.314 1060.1 576.84 1072.68 579.108C1104.1 585.942 1136.82 583.897 1168.38 578.744L1168.13 579.108L1166.95 572.611L1168.72 578.968V579.248H1168.41C1137.07 586.866 1103.57 589.051 1072.09 581.013C1059.15 578.212 1053.19 570.818 1054.25 557.459L1054.33 557.543Z" fill="#263238"/>
<path d="M1150.43 429.325C1150.43 429.325 1154.52 450.639 1150.65 451.563C1138.78 454.364 1123.06 439.716 1121.94 437.195C1121.69 436.551 1120.29 419.747 1119.14 406.667C1118.47 398.265 1117.94 391.403 1117.94 391.403L1151.18 404.651L1150.4 427.673L1150.43 429.325Z" fill="#AD6359"/>
<path d="M1151.27 404.651L1150.48 427.673C1144.09 426.562 1138 424.118 1132.62 420.498C1127.23 416.879 1122.67 412.167 1119.23 406.667C1118.55 398.265 1118.02 391.403 1118.02 391.403L1122.2 392.888L1151.27 404.651Z" fill="#263238"/>
<path d="M1172.69 366.561C1183 405.771 1160.76 416.246 1152.33 418.458C1144.69 420.475 1118.36 426.329 1104.05 388.519C1089.74 350.709 1104.66 333.652 1121.94 328.051C1139.22 322.45 1162.3 327.463 1172.69 366.561Z" fill="#AD6359"/>
<path d="M1162.53 362.724C1161.57 362.724 1160.68 362.724 1159.73 362.724C1158.76 362.85 1157.78 362.664 1156.92 362.192C1156.69 361.985 1156.52 361.706 1156.46 361.398C1156.39 361.09 1156.43 360.769 1156.56 360.483C1156.91 359.956 1157.4 359.533 1157.97 359.257C1158.54 358.981 1159.18 358.863 1159.81 358.915C1161.11 358.817 1162.4 359.207 1163.42 360.007C1163.66 360.205 1163.83 360.47 1163.91 360.766C1164 361.062 1163.99 361.377 1163.89 361.669C1163.8 361.962 1163.62 362.218 1163.37 362.406C1163.13 362.594 1162.83 362.705 1162.53 362.724Z" fill="#263238"/>
<path d="M1134.97 369.502C1135.84 369.177 1136.69 368.793 1137.52 368.354C1138.47 368.08 1139.31 367.499 1139.9 366.701C1140.03 366.413 1140.06 366.089 1139.99 365.78C1139.92 365.47 1139.75 365.193 1139.5 364.993C1138.96 364.67 1138.33 364.5 1137.7 364.5C1137.06 364.5 1136.44 364.67 1135.89 364.993C1134.68 365.447 1133.68 366.336 1133.09 367.485C1132.98 367.753 1132.95 368.048 1133 368.334C1133.05 368.62 1133.18 368.885 1133.38 369.098C1133.58 369.311 1133.83 369.462 1134.11 369.534C1134.4 369.605 1134.69 369.594 1134.97 369.502Z" fill="#263238"/>
<path d="M1142.7 377.12C1142.7 377.12 1142.53 377.288 1142.56 377.4C1143.29 380.061 1143.68 383.225 1141.49 384.682C1144.43 383.701 1143.85 379.5 1142.7 377.12Z" fill="#263238"/>
<path d="M1139.67 374.907C1135.28 375.607 1137.04 384.318 1141.1 383.673C1145.16 383.029 1143.34 374.291 1139.67 374.907Z" fill="#263238"/>
<path d="M1138.05 375.663C1137.38 376.335 1136.82 377.344 1135.92 377.624C1135.02 377.904 1133.87 377.204 1133.12 376.448C1133.43 378.128 1134.41 379.696 1136.26 379.584C1138.1 379.472 1138.8 377.764 1138.89 375.999C1138.66 375.859 1138.3 375.439 1138.05 375.663Z" fill="#263238"/>
<path d="M1158.94 372.667C1158.94 372.667 1159.19 372.667 1159.22 372.863C1159.64 375.663 1160.62 378.632 1163.23 379.052V379.192C1160.17 379.36 1158.94 375.327 1158.94 372.667Z" fill="#263238"/>
<path d="M1160.82 369.39C1165.1 368.213 1167.15 376.84 1163.17 377.792C1159.19 378.744 1157.23 370.37 1160.82 369.39Z" fill="#263238"/>
<path d="M1162.75 369.53C1163.53 369.81 1164.43 370.482 1165.24 370.342C1166.06 370.202 1166.7 369.082 1167.09 368.045C1167.09 368.045 1167.09 368.045 1167.23 368.045C1167.68 369.698 1167.54 371.546 1166.03 372.247C1164.51 372.947 1163.23 371.714 1162.47 370.146C1162.3 370.062 1162.44 369.39 1162.75 369.53Z" fill="#263238"/>
<path d="M1149.17 397.901C1149.92 398.433 1150.71 399.217 1151.69 399.133C1152.69 398.961 1153.65 398.569 1154.49 397.985C1154.66 397.985 1154.49 397.985 1154.49 397.985C1154.18 398.577 1153.72 399.077 1153.15 399.431C1152.59 399.786 1151.94 399.983 1151.27 400.002C1150.69 399.94 1150.14 399.711 1149.7 399.343C1149.25 398.974 1148.92 398.483 1148.75 397.929C1148.74 397.873 1148.76 397.818 1148.8 397.776C1148.84 397.734 1148.89 397.709 1148.94 397.705C1149 397.701 1149.05 397.72 1149.1 397.757C1149.14 397.793 1149.16 397.845 1149.17 397.901Z" fill="#263238"/>
<path d="M1158.33 385.746C1158.33 385.746 1159.73 389.639 1160.15 391.544C1160.15 391.712 1159.75 391.908 1159.11 392.076C1157.55 392.72 1155.84 392.923 1154.17 392.661C1152.5 392.399 1150.93 391.683 1149.64 390.591C1149.6 390.562 1149.57 390.515 1149.56 390.463C1149.55 390.41 1149.56 390.356 1149.59 390.311C1149.62 390.267 1149.66 390.236 1149.72 390.225C1149.77 390.215 1149.82 390.225 1149.87 390.255C1152.64 391.396 1155.71 391.603 1158.61 390.843C1158.61 390.283 1155.94 384.262 1156.25 384.15C1157.75 383.955 1159.27 383.955 1160.76 384.15C1157.96 375.943 1154.01 368.241 1151.44 360.035C1151.42 359.976 1151.43 359.914 1151.46 359.859C1151.48 359.803 1151.52 359.758 1151.58 359.73C1151.63 359.701 1151.69 359.691 1151.75 359.701C1151.81 359.71 1151.87 359.739 1151.91 359.783C1156.48 367.917 1160.23 376.482 1163.11 385.354C1163.37 386.474 1159.14 385.914 1158.33 385.746Z" fill="#263238"/>
<path d="M1158.63 390.647C1158.02 392.478 1156.94 394.119 1155.5 395.409C1154.71 396.086 1153.73 396.497 1152.7 396.585C1150.37 396.753 1149.67 394.82 1149.5 393.028C1149.4 392.097 1149.4 391.158 1149.5 390.227C1152.42 391.345 1155.62 391.493 1158.63 390.647Z" fill="#263238"/>
<path d="M1155.5 395.408C1154.71 396.086 1153.73 396.497 1152.7 396.585C1150.37 396.753 1149.67 394.82 1149.5 393.028C1150.62 392.704 1151.82 392.762 1152.91 393.193C1153.99 393.624 1154.9 394.403 1155.5 395.408Z" fill="#FF9ABB"/>
<path d="M1105.78 391.768C1112.42 390.759 1110.74 376.756 1110.74 376.756C1110.74 376.756 1123.99 373.731 1123.96 353.706C1124.9 359.494 1124.13 365.433 1121.75 370.79C1121.75 370.79 1144.49 362.92 1149.75 341.13C1149.75 341.13 1148.16 351.969 1145.3 356.366C1150.79 353.199 1155.05 348.262 1157.37 342.363C1157.37 342.363 1164.93 352.585 1168.8 354.966C1168.8 354.966 1156.62 311.779 1119.82 324.858C1119.82 324.858 1095.87 332.868 1093.24 355.33C1090.8 376.252 1105.78 391.768 1105.78 391.768Z" fill="#263238"/>
<path d="M1110.8 386.418C1110.8 386.418 1099.96 375.495 1094.83 379.556C1089.71 383.617 1099.4 400.534 1106.46 401.962C1107.35 402.19 1108.28 402.236 1109.19 402.098C1110.1 401.959 1110.97 401.638 1111.76 401.155C1112.54 400.671 1113.22 400.035 1113.75 399.283C1114.28 398.532 1114.66 397.681 1114.86 396.781L1110.8 386.418Z" fill="#AD6359"/>
<path d="M1097.72 384.346V384.514C1100.03 385.204 1102.18 386.374 1104.01 387.947C1105.84 389.52 1107.33 391.461 1108.36 393.644C1108 393.234 1107.56 392.905 1107.07 392.68C1106.57 392.455 1106.03 392.338 1105.49 392.338C1104.95 392.338 1104.41 392.455 1103.91 392.68C1103.42 392.905 1102.98 393.234 1102.62 393.644C1102.62 393.644 1102.62 393.924 1102.79 393.896C1103.56 393.491 1104.44 393.335 1105.3 393.451C1106.16 393.566 1106.97 393.947 1107.6 394.54C1108.65 395.544 1109.59 396.651 1110.4 397.845C1110.68 398.237 1111.41 397.845 1111.16 397.425C1110.24 391.319 1104.19 383.841 1097.72 384.346Z" fill="#263238"/>
<path d="M361.686 1040.58H910.349V1020.81L361.686 1020.81V1040.58Z" fill="#FFC727"/>
<path opacity="0.2" d="M361.686 1040.58H910.349V1020.81L361.686 1020.81V1040.58Z" fill="white"/>
<path d="M361.686 1167.29H910.349V1147.52H361.686V1167.29Z" fill="#FFC727"/>
<path opacity="0.2" d="M361.686 1167.29H910.349V1147.52H361.686V1167.29Z" fill="white"/>
<path opacity="0.1" d="M361.686 1167.29H910.349V1160.4H361.686V1167.29Z" fill="black"/>
<path d="M343.481 1199.05H928.553V1167.29H343.481V1199.05Z" fill="#FFC727"/>
<path opacity="0.2" d="M343.481 1199.05H928.553V1167.29H343.481V1199.05Z" fill="white"/>
<path d="M388.797 1147.52H883.266V1040.56H388.797V1147.52Z" fill="#FFC727"/>
<path opacity="0.2" d="M388.797 1147.52H883.266V1040.56H388.797V1147.52Z" fill="white"/>
<path opacity="0.1" d="M388.769 1066.18L883.266 1057.05V1040.58H388.769V1066.18Z" fill="black"/>
<path opacity="0.1" d="M388.769 1147.52H883.266V1121.92L388.769 1131.05V1147.52Z" fill="black"/>
<path d="M748.271 499.399C748.271 499.399 781.879 456.38 780.535 451.955C779.191 447.53 672.595 404.007 620.277 415.798C567.96 427.589 413.023 505.925 383.784 623.64C354.544 741.354 467.974 910.042 470.158 949.252C471.242 973.703 467.078 998.103 457.947 1020.81H501.106C501.106 1020.81 524.212 976.728 509.816 910.91C495.421 845.093 457.947 720.461 474.527 652.403C491.108 584.346 603.557 493.714 636.97 481.559C670.382 469.404 748.271 499.399 748.271 499.399Z" fill="#FFC727"/>
<path opacity="0.1" d="M748.271 499.399C748.271 499.399 781.879 456.38 780.535 451.955C779.191 447.53 672.595 404.007 620.277 415.798C567.96 427.589 413.023 505.925 383.784 623.64C354.544 741.354 467.974 910.042 470.158 949.252C471.242 973.703 467.078 998.103 457.947 1020.81H501.106C501.106 1020.81 524.212 976.728 509.816 910.91C495.421 845.093 457.947 720.461 474.527 652.403C491.108 584.346 603.557 493.714 636.97 481.559C670.382 469.404 748.271 499.399 748.271 499.399Z" fill="black"/>
<path d="M477.58 1020.81H829.744C829.744 1020.81 829.744 929.563 794.875 872.008C760.006 814.453 676.348 755.19 659.488 727.883C649.416 711.533 644.888 692.37 646.576 673.241C646.576 673.241 666.181 704.273 711.217 716.036C735.914 722.098 761.809 721.197 786.024 713.431C786.024 713.431 844.84 732.588 848.985 736.649C853.13 740.71 866.405 752.277 876.992 752.865C887.579 753.454 920.375 717.856 920.375 686.46C920.375 670.944 808.346 562.808 808.346 562.808C808.346 562.808 793.222 526.763 789.161 518.641C785.1 510.518 681.641 461.086 654.306 462.822C626.971 464.558 506.932 530.992 467.105 617.45C428.736 700.548 470.186 832.882 484.554 890.325C505.475 974.011 477.58 1020.81 477.58 1020.81Z" fill="#FFC727"/>
<path opacity="0.2" d="M477.58 1020.81H829.744C829.744 1020.81 829.744 929.563 794.875 872.008C760.006 814.453 676.348 755.19 659.488 727.883C649.416 711.533 644.888 692.37 646.576 673.241C646.576 673.241 666.181 704.273 711.217 716.036C735.914 722.098 761.809 721.197 786.024 713.431C786.024 713.431 844.84 732.588 848.985 736.649C853.13 740.71 866.405 752.277 876.992 752.865C887.579 753.454 920.375 717.856 920.375 686.46C920.375 670.944 808.346 562.808 808.346 562.808C808.346 562.808 793.222 526.763 789.161 518.641C785.1 510.518 681.641 461.086 654.306 462.822C626.971 464.558 506.932 530.992 467.105 617.45C428.736 700.548 470.186 832.882 484.554 890.325C505.475 974.011 477.58 1020.81 477.58 1020.81Z" fill="white"/>
<path opacity="0.3" d="M791.178 614.453L731.802 581.937C731.802 581.937 753.592 576.868 766.867 582.805C780.143 588.743 791.178 614.453 791.178 614.453Z" fill="black"/>
<path d="M699.006 505.841C699.006 505.841 747.599 426.637 748.271 417.674C748.719 412.073 680.717 426.833 662.4 439.464C644.084 452.095 608.794 490.997 608.794 490.997L699.006 505.841Z" fill="#FFC727"/>
<path opacity="0.2" d="M699.006 505.841C699.006 505.841 747.599 426.637 748.271 417.674C748.719 412.073 680.717 426.833 662.4 439.464C644.084 452.095 608.794 490.997 608.794 490.997L699.006 505.841Z" fill="white"/>
<path opacity="0.3" d="M726.649 434.143C726.649 434.143 692.816 444.197 686.178 451.955C679.541 459.713 666.181 482.959 666.181 482.959" fill="black"/>
<path opacity="0.1" d="M646.576 673.269C646.576 673.269 666.181 704.273 711.245 716.036C735.935 722.081 761.815 721.18 786.024 713.431C786.024 713.431 844.84 732.588 848.985 736.677C853.13 740.766 866.405 752.277 876.992 752.865C884.722 753.285 904.691 733.96 914.606 711.191C903.095 730.796 883.182 741.326 876.488 739.618C869.794 737.91 860.636 725.614 857.947 723.094C855.258 720.573 794.259 681.083 791.29 679.514C788.321 677.946 756.729 698.475 715.306 686.096C668.618 672.092 646.688 618.206 646.688 618.206L646.576 673.269Z" fill="black"/>
<path opacity="0.1" d="M477.552 1020.81H829.744C829.744 1020.81 829.744 1014.65 829.128 1004.54C829.128 1004.54 580.703 1002.47 554.488 974.683C530.178 948.86 534.323 921.469 499.314 845.85C464.305 770.23 443.103 640.92 502.619 564.573C488.32 580.445 476.361 598.279 467.106 617.534C428.736 700.688 470.186 832.994 484.526 890.437C505.475 974.039 477.552 1020.81 477.552 1020.81Z" fill="black"/>
<g opacity="0.2">
<path d="M712.813 485.116C734.099 498.951 756.477 510.995 777.818 524.494L778.406 525.754C778.854 526.679 781.403 533.036 781.879 534.157C783.224 537.349 793.838 563.788 795.155 566.169C800.392 573.423 807.282 578.968 813.415 585.326C834.813 605.995 856.883 625.824 879.233 645.542C856.267 615.826 828.987 589.527 803.417 562.36C802.409 560.287 791.066 533.624 789.833 530.768C789.273 529.563 786.388 523.262 785.828 522.197C785.576 521.665 784.988 520.629 784.708 520.125C783.988 519.219 783.128 518.434 782.159 517.8C759.762 505.422 736.578 494.523 712.757 485.172L712.813 485.116Z" fill="white"/>
<path d="M817.813 973.535C809.158 901.276 791.906 862.318 737.768 812.549C727.573 803.503 715.922 793.868 704.915 785.942C719.087 801.682 733.875 816.442 747.402 832.462C753.228 839.1 759.473 846.97 764.935 853.916C768.52 858.901 773.505 865.623 776.67 870.888C797.731 901.696 806.106 938.358 817.813 973.535Z" fill="white"/>
</g>
<path d="M227.251 1194.37C220.809 1195.02 45.5679 1154.71 40.0224 1149.08C39.1262 1148.19 57.667 1087.83 57.667 1087.83L116.986 990.283L219.633 1021.62L160.37 1112.93C160.37 1112.93 221.51 1161.8 226.859 1168.63C232.208 1175.47 233.665 1193.76 227.251 1194.37Z" fill="#D3766A"/>
<path d="M227.251 1194.37C220.837 1195.02 45.5679 1154.69 40.0224 1149.08C39.1262 1148.19 57.667 1087.86 57.667 1087.86L61.392 1080.58L165.523 1102.51L160.398 1112.93C160.398 1112.93 221.51 1161.8 226.859 1168.61C232.208 1175.41 233.665 1193.76 227.251 1194.37Z" fill="#EBEBEB"/>
<path d="M231.424 1193.48C224.731 1194.18 45.82 1154.77 40.0225 1148.97C37.7819 1146.79 55.0624 1087.16 55.0624 1087.16L164.627 1112.25L164.151 1114.19C164.151 1114.19 225.263 1159.87 230.948 1166.81C236.634 1173.76 238.062 1192.92 231.424 1193.48Z" fill="#263238"/>
<path d="M173.645 1116.65C162.442 1111.81 147.57 1110.38 136.675 1116.65C136.255 1116.9 136.675 1117.49 137.04 1117.46C149.097 1116.38 161.235 1116.56 173.253 1118.02C173.409 1118.02 173.559 1117.96 173.681 1117.86C173.804 1117.76 173.893 1117.63 173.936 1117.48C173.979 1117.33 173.974 1117.17 173.922 1117.02C173.87 1116.87 173.773 1116.74 173.645 1116.65Z" fill="#FFC727"/>
<path opacity="0.6" d="M173.645 1116.65C162.442 1111.81 147.57 1110.38 136.675 1116.65C136.255 1116.9 136.675 1117.49 137.04 1117.46C149.097 1116.38 161.235 1116.56 173.253 1118.02C173.409 1118.02 173.559 1117.96 173.681 1117.86C173.804 1117.76 173.893 1117.63 173.936 1117.48C173.979 1117.33 173.974 1117.17 173.922 1117.02C173.87 1116.87 173.773 1116.74 173.645 1116.65Z" fill="black"/>
<path d="M181.039 1123.68C169.836 1118.84 154.964 1117.41 144.098 1123.68C143.677 1123.93 144.098 1124.52 144.434 1124.49C156.499 1123.38 168.65 1123.57 180.675 1125.05C180.829 1125.04 180.975 1124.98 181.094 1124.88C181.212 1124.78 181.297 1124.64 181.336 1124.5C181.376 1124.35 181.369 1124.19 181.316 1124.04C181.263 1123.9 181.166 1123.77 181.039 1123.68Z" fill="#FFC727"/>
<path opacity="0.6" d="M181.039 1123.68C169.836 1118.84 154.964 1117.41 144.098 1123.68C143.677 1123.93 144.098 1124.52 144.434 1124.49C156.499 1123.38 168.65 1123.57 180.675 1125.05C180.829 1125.04 180.975 1124.98 181.094 1124.88C181.212 1124.78 181.297 1124.64 181.336 1124.5C181.376 1124.35 181.369 1124.19 181.316 1124.04C181.263 1123.9 181.166 1123.77 181.039 1123.68Z" fill="black"/>
<path d="M188.405 1130.71C177.202 1125.87 162.302 1124.44 151.435 1130.71C151.015 1130.96 151.435 1131.55 151.772 1131.52C163.837 1130.41 175.988 1130.6 188.013 1132.08C188.169 1132.07 188.319 1132.02 188.441 1131.92C188.564 1131.82 188.653 1131.69 188.696 1131.54C188.739 1131.39 188.734 1131.23 188.682 1131.08C188.63 1130.93 188.533 1130.8 188.405 1130.71Z" fill="#FFC727"/>
<path opacity="0.6" d="M188.405 1130.71C177.202 1125.87 162.302 1124.44 151.435 1130.71C151.015 1130.96 151.435 1131.55 151.772 1131.52C163.837 1130.41 175.988 1130.6 188.013 1132.08C188.169 1132.07 188.319 1132.02 188.441 1131.92C188.564 1131.82 188.653 1131.69 188.696 1131.54C188.739 1131.39 188.734 1131.23 188.682 1131.08C188.63 1130.93 188.533 1130.8 188.405 1130.71Z" fill="black"/>
<path d="M235.541 1187.87C238.342 1189.84 235.373 1200.34 232.881 1200.67C230.388 1201.01 37.1097 1156.73 34.0289 1155.25C30.9481 1153.76 34.7851 1142.25 38.7341 1142.5C42.6831 1142.75 235.541 1187.87 235.541 1187.87Z" fill="#FFC727"/>
<path opacity="0.6" d="M235.541 1187.87C238.342 1189.84 235.373 1200.34 232.881 1200.67C230.388 1201.01 37.1097 1156.73 34.0289 1155.25C30.9481 1153.76 34.7851 1142.25 38.7341 1142.5C42.6831 1142.75 235.541 1187.87 235.541 1187.87Z" fill="black"/>
<path d="M175.213 1112.48L51.9814 1084.47C51.9814 1084.47 188.909 872.933 191.654 855.736C193.782 842.433 229.043 694.918 222.462 669.936C219.045 656.744 237.362 604.595 246.716 576.532H389.973C389.973 576.532 382.131 659.489 367.119 677.358L344.49 689.793C344.49 689.793 314.242 815.826 307.688 862.962C301.246 910.602 175.213 1112.48 175.213 1112.48Z" fill="#FFC727"/>
<path opacity="0.5" d="M175.213 1112.48L51.9814 1084.47C51.9814 1084.47 188.909 872.933 191.654 855.736C193.782 842.433 229.043 694.918 222.462 669.936C219.045 656.744 237.362 604.595 246.716 576.532H389.973C389.973 576.532 382.131 659.489 367.119 677.358L344.49 689.793C344.49 689.793 314.242 815.826 307.688 862.962C301.246 910.602 175.213 1112.48 175.213 1112.48Z" fill="black"/>
<path d="M180.059 1086.1C161.91 1081.31 167.203 1082.4 148.971 1077.69C140.064 1075.48 81.4451 1060.89 72.7348 1060.36C72.5388 1060.36 72.4548 1060.67 72.7348 1060.75C80.7169 1064.22 139.588 1077.75 148.551 1079.79C166.867 1083.97 161.658 1082.6 180.031 1086.52C180.283 1086.74 180.423 1086.18 180.059 1086.1Z" fill="#263238"/>
<path d="M325.501 584.01C312.337 665.931 297.493 754.854 282.622 836.075C280.353 846.55 279.625 857.445 275.312 867.415C254.334 912.731 224.899 964.713 201.148 1009.02L170.06 1064.87C191.122 1024.59 239.406 934.297 259.039 895.058C265.761 880.691 274.611 867.051 276.936 851.255C293.124 764.6 309.256 670.944 325.501 584.01Z" fill="#263238"/>
<path d="M544.826 1195.18C538.692 1197.2 358.857 1195.18 352.248 1190.98C349.699 1189.39 363.451 1018.88 363.451 1018.88L476.124 1019.83L465.649 1133.9C465.649 1133.9 532.335 1164.71 539.112 1170.09C545.89 1175.47 550.959 1193.22 544.826 1195.18Z" fill="#D3766A"/>
<path d="M352.248 1190.98C358.857 1195.3 538.692 1197.2 544.826 1195.18C550.959 1193.17 545.722 1175.58 539.028 1169.98C532.335 1164.38 465.565 1133.79 465.565 1133.79L466.966 1118.58H355.889C353.2 1156.31 351.099 1190.28 352.248 1190.98Z" fill="#DBDBDB"/>
<path d="M548.719 1193.48C542.361 1195.58 359.137 1195.35 352.248 1190.93C349.447 1189.27 353.732 1127.32 353.732 1127.32L466.097 1128.25V1130.24C466.097 1130.24 535.527 1161.74 542.613 1167.43C549.699 1173.11 555.076 1191.46 548.719 1193.48Z" fill="#263238"/>
<path d="M475.9 1130.71C463.829 1128.39 449.069 1130.15 439.798 1138.72C439.462 1139.03 439.938 1139.53 440.33 1139.42C451.878 1135.76 463.783 1133.35 475.844 1132.22C476.044 1132.23 476.24 1132.16 476.387 1132.02C476.534 1131.89 476.62 1131.7 476.628 1131.5C476.635 1131.3 476.563 1131.1 476.426 1130.95C476.29 1130.81 476.1 1130.72 475.9 1130.71Z" fill="#FFC727"/>
<path opacity="0.6" d="M475.9 1130.71C463.829 1128.39 449.069 1130.15 439.798 1138.72C439.462 1139.03 439.938 1139.53 440.33 1139.42C451.878 1135.76 463.783 1133.35 475.844 1132.22C476.044 1132.23 476.24 1132.16 476.387 1132.02C476.534 1131.89 476.62 1131.7 476.628 1131.5C476.635 1131.3 476.563 1131.1 476.426 1130.95C476.29 1130.81 476.1 1130.72 475.9 1130.71Z" fill="black"/>
<path d="M484.526 1136.01C472.455 1133.68 457.695 1135.44 448.425 1144.02C448.088 1144.32 448.565 1144.83 448.957 1144.72C460.52 1141.03 472.445 1138.6 484.526 1137.46C484.685 1137.42 484.825 1137.32 484.925 1137.19C485.024 1137.06 485.078 1136.9 485.078 1136.73C485.078 1136.57 485.024 1136.41 484.925 1136.28C484.825 1136.14 484.685 1136.05 484.526 1136.01Z" fill="#FFC727"/>
<path opacity="0.6" d="M484.526 1136.01C472.455 1133.68 457.695 1135.44 448.425 1144.02C448.088 1144.32 448.565 1144.83 448.957 1144.72C460.52 1141.03 472.445 1138.6 484.526 1137.46C484.685 1137.42 484.825 1137.32 484.925 1137.19C485.024 1137.06 485.078 1136.9 485.078 1136.73C485.078 1136.57 485.024 1136.41 484.925 1136.28C484.825 1136.14 484.685 1136.05 484.526 1136.01Z" fill="black"/>
<path d="M493.264 1141.3C481.193 1138.97 466.433 1140.77 457.163 1149.31C456.799 1149.62 457.163 1150.15 457.667 1150.01C469.224 1146.35 481.139 1143.94 493.208 1142.81C493.409 1142.82 493.604 1142.75 493.751 1142.61C493.898 1142.47 493.985 1142.28 493.992 1142.08C494 1141.88 493.927 1141.69 493.791 1141.54C493.654 1141.39 493.465 1141.31 493.264 1141.3Z" fill="#FFC727"/>
<path opacity="0.6" d="M493.264 1141.3C481.193 1138.97 466.433 1140.77 457.163 1149.31C456.799 1149.62 457.163 1150.15 457.667 1150.01C469.224 1146.35 481.139 1143.94 493.208 1142.81C493.409 1142.82 493.604 1142.75 493.751 1142.61C493.898 1142.47 493.985 1142.28 493.992 1142.08C494 1141.88 493.927 1141.69 493.791 1141.54C493.654 1141.39 493.465 1141.31 493.264 1141.3Z" fill="black"/>
<path d="M551.519 1187.03C554.796 1188.29 554.012 1199.22 551.659 1200.09C549.307 1200.95 351.015 1199.02 347.654 1198.24C344.293 1197.45 345.582 1185.38 349.503 1184.79C353.424 1184.21 551.519 1187.03 551.519 1187.03Z" fill="#FFC727"/>
<path opacity="0.6" d="M551.519 1187.03C554.796 1188.29 554.012 1199.22 551.659 1200.09C549.307 1200.95 351.015 1199.02 347.654 1198.24C344.293 1197.45 345.582 1185.38 349.503 1184.79C353.424 1184.21 551.519 1187.03 551.519 1187.03Z" fill="black"/>
<path d="M259.319 576.644C265.371 603.015 273.722 628.805 284.274 653.72C315.81 728.387 366.419 830.81 368.576 839.912C374.821 866.043 346.31 1126.54 346.31 1126.54L474.751 1127.18C474.751 1127.18 507.66 875.705 492.872 818.627C483.686 783.141 424.506 657.641 401.652 605.351C398.404 597.901 390.113 576.644 390.113 576.644H259.319Z" fill="#FFC727"/>
<path opacity="0.5" d="M259.319 576.644C265.371 603.015 273.722 628.805 284.274 653.72C315.81 728.387 366.419 830.81 368.576 839.912C374.821 866.043 346.31 1126.54 346.31 1126.54L474.751 1127.18C474.751 1127.18 507.66 875.705 492.872 818.627C483.686 783.141 424.506 657.641 401.652 605.351C398.404 597.901 390.113 576.644 390.113 576.644H259.319Z" fill="black"/>
<path d="M464.921 1100.41C446.828 1099.79 382.664 1097.27 358.493 1099.29C358.297 1099.29 358.297 1099.68 358.493 1099.71C366.895 1101.33 446.828 1101.22 464.921 1101C465.145 1101.05 465.145 1100.44 464.921 1100.41Z" fill="#263238"/>
<path d="M449.741 1085.17C452.542 1039.02 459.88 935.109 462.008 890.549C462.652 871.812 464.501 852.767 463.072 834.059C448.705 795.885 422.154 746.816 404.481 709.454L346.786 592.972C374.961 646.606 409.046 712.535 435.457 766.617C444.952 787.23 458.759 812.157 465.733 833.526C467.189 852.599 465.201 871.616 464.501 890.661C461.084 953.258 455.23 1022.3 449.741 1085.14V1085.17Z" fill="#263238"/>
<path d="M320.823 671.616C314.516 671.831 308.201 671.513 301.947 670.664C295.742 669.548 289.6 668.109 283.546 666.351C277.602 665.258 271.597 664.528 265.565 664.166C259.468 663.55 253.494 662.04 247.836 659.685C247.584 659.685 247.388 659.965 247.64 660.077C253.137 662.755 258.853 664.957 264.725 666.659C270.802 668.312 277.076 668.312 283.238 669.46C289.46 671.027 295.774 672.205 302.143 672.989C308.418 673.508 314.735 673.141 320.907 671.896C321.132 671.981 321.048 671.588 320.823 671.616Z" fill="#263238"/>
<path d="M335.751 763.648C334.323 760.231 332.951 756.786 331.466 753.37C328.385 746.48 325.305 739.562 321.944 732.728C315.278 719.173 308.948 705.505 301.919 692.006C297.942 684.36 294.329 676.602 289.707 669.124C289.707 668.956 289.203 669.124 289.287 669.124C291.724 676.181 295.085 683.127 298.11 689.933C301.134 696.739 304.355 703.713 307.576 710.574C313.962 724.214 320.235 737.91 327.181 751.409C329.048 755.143 331.055 758.878 333.203 762.612C335.331 766.449 337.068 770.426 339.588 774.123C339.588 774.319 340.12 774.123 340.064 774.123C338.814 770.557 337.374 767.061 335.751 763.648Z" fill="#263238"/>
<path d="M370.508 431.09C394.875 473.101 444.391 531.552 460.58 537.798C474.919 543.399 534.183 525.81 558.773 514.019C567.96 509.622 546.87 452.403 541.521 454.56C529.422 459.517 477.804 474.585 474.667 473.129C471.531 471.672 425.403 432.434 393.25 411.093C364.095 391.74 361.294 415.182 370.508 431.09Z" fill="#D3766A"/>
<path opacity="0.1" d="M370.508 431.09C394.875 473.101 444.391 531.552 460.58 537.798C474.919 543.399 534.183 525.81 558.773 514.019C567.96 509.622 546.87 452.403 541.521 454.56C529.422 459.517 477.804 474.585 474.667 473.129C471.531 471.672 425.403 432.434 393.25 411.093C364.095 391.74 361.294 415.182 370.508 431.09Z" fill="black"/>
<path d="M568.968 511.023C554.432 517.324 535.695 514.495 535.695 514.495L540.12 455.12C540.12 455.12 555.076 452.319 595.799 434.059C615.04 425.46 640.19 416.022 642.571 416.722C647.164 418.066 643.439 422.323 633.441 430.726C623.442 439.128 606.61 450.331 605.433 451.619C605.117 452.063 604.836 452.532 604.593 453.019C600.952 460.632 596.749 467.962 592.018 474.949C586.977 482.091 579.023 506.681 568.968 511.023Z" fill="#D3766A"/>
<path d="M579.022 457.361C579.022 457.361 599.272 432.434 605.965 430.838C612.659 429.241 644.952 415.602 649.517 417.086C654.082 418.57 654.502 426.329 643.915 434.395C633.329 442.461 615.908 452.179 614.592 453.3C613.275 454.42 597.087 477.05 594.987 478.898C592.886 480.747 579.022 457.361 579.022 457.361Z" fill="#D3766A"/>
<path d="M588.153 441.565C590.954 439.436 593.894 437.419 596.807 435.403L601.288 432.602L603.585 431.23L604.817 430.586C605.243 430.377 605.683 430.199 606.134 430.054C612.855 427.589 613.639 427.253 620.417 424.9C627.195 422.548 633.973 420.111 640.891 417.926C642.711 417.379 644.593 417.059 646.492 416.974C647.48 416.959 648.466 417.053 649.433 417.254C650.496 417.485 651.469 418.02 652.234 418.795C652.902 419.571 653.252 420.572 653.214 421.595C653.179 422.561 652.961 423.512 652.57 424.396C651.864 426.012 650.92 427.513 649.769 428.849C650.76 427.409 651.56 425.846 652.149 424.2C652.439 423.382 652.581 422.519 652.57 421.651C652.562 420.813 652.231 420.01 651.645 419.411C650.953 418.897 650.166 418.526 649.33 418.319C648.493 418.112 647.624 418.074 646.772 418.206C645.014 418.376 643.283 418.762 641.619 419.355C634.925 421.847 628.147 424.34 621.369 426.721C614.592 429.101 613.779 429.325 606.862 431.454C605.213 432.029 603.627 432.771 602.128 433.667C600.588 434.507 599.048 435.431 597.507 436.299L588.153 441.565Z" fill="#263238"/>
<path d="M581.571 467.023C581.571 467.023 602.213 438.484 608.794 436.523C615.376 434.563 646.52 418.823 651.141 420.055C655.763 421.287 656.603 429.073 646.604 437.727C636.606 446.382 619.801 457.333 618.597 458.593C617.393 459.853 598.348 482.707 596.443 484.668C594.539 486.628 581.571 467.023 581.571 467.023Z" fill="#D3766A"/>
<path d="M587.621 449.799C591.066 446.998 594.595 444.645 598.152 442.153C599.972 440.92 601.765 439.716 603.753 438.568C604.677 437.98 605.63 437.391 606.554 436.859C607.525 436.301 608.536 435.814 609.579 435.403C617.673 432.014 619.829 430.81 627.979 427.505L640.247 422.604L643.327 421.427C644.387 420.996 645.472 420.631 646.576 420.335C647.738 420.037 648.934 419.896 650.133 419.915C651.476 419.881 652.796 420.263 653.914 421.007C654.518 421.441 654.993 422.032 655.286 422.716C655.523 423.341 655.627 424.008 655.595 424.676C655.514 425.837 655.23 426.975 654.754 428.037C653.824 430.036 652.658 431.916 651.281 433.638C648.547 437.029 645.204 439.879 641.423 442.041C644.948 439.571 648.01 436.499 650.469 432.966C651.729 431.232 652.773 429.351 653.578 427.365C653.981 426.426 654.199 425.418 654.222 424.396C654.24 423.942 654.147 423.491 653.952 423.082C653.757 422.672 653.465 422.315 653.102 422.043C652.251 421.559 651.28 421.326 650.301 421.371C649.249 421.404 648.206 421.564 647.192 421.847C645.176 422.408 643.159 423.388 641.115 424.172L628.904 429.157C620.725 432.462 618.569 433.582 610.307 436.719C609.301 437.067 608.319 437.479 607.366 437.952L604.565 439.52C602.689 440.584 600.812 441.705 598.964 442.853L587.621 449.799Z" fill="#263238"/>
<path d="M566.335 480.803C566.335 480.803 579.667 478.002 581.907 477.162C590.677 473.105 599.695 469.606 608.906 466.687C625.711 461.59 631.76 468.956 623.75 475.089C604.369 489.989 593.11 495.31 581.067 504.973C575.466 509.426 562.33 513.599 557.065 514.299L566.335 480.803Z" fill="#D3766A"/>
<path d="M571.349 479.29C574.916 479.13 578.461 478.633 581.935 477.806L591.626 473.717C598.068 470.916 607.282 467.667 614.032 465.315C602.87 468.005 591.991 471.756 581.543 476.518C578.35 477.47 574.822 478.254 571.461 479.318L571.349 479.29Z" fill="#263238"/>
<g opacity="0.1">
<path d="M568.968 511.023C554.432 517.324 535.695 514.495 535.695 514.495L540.12 455.12C540.12 455.12 555.076 452.319 595.799 434.059C615.04 425.46 640.19 416.022 642.571 416.722C647.164 418.066 643.439 422.323 633.441 430.726C623.442 439.128 606.61 450.331 605.433 451.619C605.117 452.063 604.836 452.532 604.593 453.019C600.952 460.632 596.749 467.962 592.018 474.949C586.977 482.091 579.023 506.681 568.968 511.023Z" fill="black"/>
<path d="M579.022 457.361C579.022 457.361 599.272 432.434 605.965 430.838C612.659 429.241 644.952 415.602 649.517 417.086C654.082 418.57 654.502 426.329 643.915 434.395C633.329 442.461 615.908 452.179 614.592 453.3C613.275 454.42 597.087 477.05 594.987 478.898C592.886 480.747 579.022 457.361 579.022 457.361Z" fill="black"/>
<path d="M588.153 441.564C590.954 439.436 593.894 437.419 596.807 435.403L601.288 432.602L603.585 431.23L604.817 430.586C605.243 430.377 605.683 430.199 606.134 430.053C612.855 427.589 613.639 427.253 620.417 424.9C627.195 422.547 633.973 420.111 640.891 417.926C642.711 417.379 644.593 417.059 646.492 416.974C647.48 416.959 648.466 417.053 649.433 417.254C650.496 417.485 651.469 418.02 652.234 418.795C652.902 419.571 653.252 420.571 653.214 421.595C653.179 422.561 652.961 423.512 652.57 424.396C651.864 426.012 650.92 427.513 649.769 428.849C650.76 427.409 651.56 425.846 652.149 424.2C652.439 423.382 652.581 422.519 652.57 421.651C652.562 420.813 652.231 420.01 651.645 419.411C650.953 418.897 650.166 418.526 649.33 418.319C648.493 418.112 647.624 418.074 646.772 418.206C645.014 418.376 643.283 418.761 641.619 419.355C634.925 421.847 628.147 424.34 621.369 426.721C614.592 429.101 613.779 429.325 606.862 431.454C605.213 432.029 603.627 432.771 602.128 433.666C600.588 434.507 599.048 435.431 597.507 436.299L588.153 441.564Z" fill="black"/>
<path d="M581.571 467.023C581.571 467.023 602.213 438.484 608.794 436.523C615.376 434.563 646.52 418.823 651.141 420.055C655.763 421.287 656.603 429.073 646.604 437.727C636.606 446.382 619.801 457.333 618.597 458.593C617.393 459.853 598.348 482.707 596.443 484.668C594.539 486.628 581.571 467.023 581.571 467.023Z" fill="black"/>
<path d="M587.621 449.799C591.066 446.998 594.595 444.645 598.152 442.153C599.972 440.92 601.765 439.716 603.753 438.568C604.677 437.98 605.63 437.391 606.554 436.859C607.525 436.301 608.536 435.814 609.579 435.403C617.673 432.014 619.829 430.81 627.979 427.505L640.247 422.604L643.327 421.427C644.387 420.996 645.472 420.631 646.576 420.335C647.738 420.037 648.934 419.896 650.133 419.915C651.476 419.881 652.796 420.263 653.914 421.007C654.518 421.441 654.993 422.032 655.286 422.716C655.523 423.341 655.627 424.008 655.595 424.676C655.514 425.837 655.23 426.975 654.754 428.037C653.824 430.036 652.658 431.916 651.281 433.638C648.547 437.029 645.204 439.879 641.423 442.041C644.948 439.571 648.01 436.499 650.469 432.966C651.729 431.232 652.773 429.351 653.578 427.365C653.981 426.426 654.199 425.418 654.222 424.396C654.24 423.942 654.147 423.491 653.952 423.082C653.757 422.672 653.465 422.315 653.102 422.043C652.251 421.559 651.28 421.326 650.301 421.371C649.249 421.404 648.206 421.564 647.192 421.847C645.176 422.408 643.159 423.388 641.115 424.172L628.904 429.157C620.725 432.462 618.569 433.582 610.307 436.719C609.301 437.067 608.319 437.479 607.366 437.952L604.565 439.52C602.689 440.584 600.812 441.705 598.964 442.853L587.621 449.799Z" fill="black"/>
<path d="M566.335 480.803C566.335 480.803 579.667 478.002 581.907 477.162C590.677 473.105 599.695 469.606 608.906 466.687C625.711 461.59 631.76 468.956 623.75 475.089C604.369 489.989 593.11 495.31 581.067 504.973C575.466 509.426 562.33 513.599 557.065 514.299L566.335 480.803Z" fill="black"/>
<path d="M571.349 479.29C574.916 479.13 578.461 478.633 581.935 477.806L591.626 473.717C598.068 470.916 607.282 467.667 614.032 465.315C602.87 468.005 591.991 471.756 581.543 476.518C578.35 477.47 574.822 478.254 571.461 479.318L571.349 479.29Z" fill="black"/>
</g>
<path d="M550.623 522.898L523.904 454.084L475.396 470.636C451.814 452.963 405.545 416.162 387.397 406.415C366.111 394.96 356.785 408.992 368.324 430.726C394.763 480.439 446.744 537.293 460.188 541.242C476.824 546.032 550.623 522.898 550.623 522.898Z" fill="#FFC727"/>
<path d="M550.623 522.898C550.623 522.898 536.423 527.351 519.087 531.944C496.877 537.797 469.542 543.903 460.272 541.186C457.247 540.29 452.262 536.733 446.044 531.16C424.674 512.003 388.881 469.208 368.408 430.67C356.869 408.936 366.195 394.904 387.481 406.359C405.629 416.106 451.897 452.935 475.452 470.58L523.904 454.084L550.623 522.898Z" fill="#455A64"/>
<path opacity="0.1" d="M550.623 522.898C550.623 522.898 536.423 527.351 519.087 531.944L445.96 531.16C424.59 512.003 388.797 469.208 368.324 430.67C356.785 408.936 366.111 394.904 387.397 406.359C405.545 416.106 451.813 452.935 475.368 470.58L523.904 454.084L550.623 522.898Z" fill="black"/>
<path d="M531.578 520.125C529.086 516.12 521.496 497.971 519.647 493.434C517.799 488.897 510.993 470.412 509.116 465.735C509.116 465.483 509.313 465.259 509.425 465.511C511.357 470.104 530.71 515.28 531.83 520.013C531.83 520.181 531.662 520.265 531.578 520.125Z" fill="#263238"/>
<path d="M414.004 430.95C404.901 428.737 396.051 407.284 395.715 394.54C398.823 389.015 402.207 383.65 405.854 378.464C409.13 373.311 412.631 367.513 415.46 361.996L445.764 388.127C440.252 394.055 435.493 400.639 431.592 407.732C431.216 408.497 430.907 409.294 430.668 410.112C430.613 410.249 430.566 410.39 430.528 410.532C429.016 414.874 422.91 433.106 414.004 430.95Z" fill="#D3766A"/>
<path d="M430.668 409.888C430.668 409.888 430.668 410.168 430.528 410.308C429.264 409.864 428.037 409.321 426.859 408.684C406.89 397.481 413.247 371.882 416.328 362.696L445.764 387.903C440.249 393.834 435.48 400.418 431.564 407.508C431.214 408.281 430.914 409.076 430.668 409.888Z" fill="#263238"/>
<path d="M411.707 325.726C406.946 339.338 412.659 379.416 422.098 388.687C435.793 402.102 458.983 404.259 470.606 387.623C481.809 371.49 473.407 319.397 462.876 310.911C447.248 298.391 418.765 305.645 411.707 325.726Z" fill="#D3766A"/>
<path d="M449.013 353.258C449.013 353.258 448.817 353.258 448.845 353.51C449.265 356.31 449.293 359.363 446.94 360.567C446.94 360.567 446.94 360.736 446.94 360.708C449.909 359.979 449.853 355.806 449.013 353.258Z" fill="#263238"/>
<path d="M446.24 350.793C441.843 350.989 442.599 359.755 446.66 359.559C450.721 359.363 449.937 350.597 446.24 350.793Z" fill="#263238"/>
<path d="M463.857 351.521C463.857 351.521 464.081 351.521 464.109 351.745C464.109 354.546 464.865 357.571 467.386 358.271C464.361 358.243 463.576 354.126 463.857 351.521Z" fill="#263238"/>
<path d="M466.041 348.496C470.382 347.796 471.475 356.534 467.441 357.179C463.408 357.823 462.4 349.084 466.041 348.496Z" fill="#263238"/>
<path d="M442.655 347.348C443.859 347.152 444.952 346.732 446.128 346.424C447.394 346.27 448.58 345.721 449.517 344.855C449.75 344.516 449.862 344.108 449.837 343.697C449.811 343.286 449.649 342.895 449.377 342.587C448.753 342.054 447.999 341.697 447.191 341.554C446.383 341.411 445.552 341.487 444.784 341.775C443.135 342.1 441.667 343.029 440.667 344.379C440.48 344.701 440.387 345.069 440.399 345.441C440.411 345.814 440.527 346.175 440.734 346.484C440.941 346.794 441.231 347.039 441.571 347.191C441.91 347.344 442.286 347.398 442.655 347.348Z" fill="#263238"/>
<path d="M469.066 343.791C467.834 343.791 466.713 343.399 465.509 343.175C464.229 343.135 462.998 342.672 462.008 341.859C461.756 341.534 461.619 341.135 461.619 340.724C461.619 340.313 461.756 339.914 462.008 339.59C462.579 338.997 463.299 338.568 464.091 338.346C464.884 338.125 465.722 338.119 466.517 338.33C468.191 338.516 469.737 339.314 470.858 340.57C471.107 340.879 471.257 341.254 471.291 341.649C471.325 342.043 471.24 342.439 471.047 342.785C470.855 343.13 470.563 343.411 470.21 343.59C469.857 343.77 469.459 343.84 469.066 343.791Z" fill="#263238"/>
<path d="M448.116 377.792C448.817 378.38 449.545 379.192 450.525 379.192C451.515 379.091 452.47 378.776 453.326 378.268C453.326 378.268 453.522 378.268 453.466 378.268C453.12 378.834 452.628 379.297 452.041 379.607C451.455 379.918 450.796 380.065 450.133 380.033C449.562 379.945 449.032 379.682 448.615 379.281C448.199 378.88 447.917 378.36 447.808 377.792C447.808 377.792 448.116 377.708 448.116 377.792Z" fill="#263238"/>
<path d="M450.385 369.418C451.167 370.435 452.15 371.281 453.272 371.903C454.395 372.524 455.634 372.908 456.911 373.031C458.026 373.184 459.157 373.184 460.272 373.031C460.482 373.011 460.689 372.964 460.888 372.891C461.083 372.913 461.281 372.913 461.476 372.891C461.619 372.854 461.746 372.771 461.837 372.654C461.929 372.538 461.979 372.394 461.98 372.246C461.98 372.246 461.98 372.078 461.98 371.966V371.714C461.98 369.614 461.392 366.449 461.392 366.449C462.176 366.785 466.237 368.213 466.069 367.121C465.024 357.65 463.006 348.312 460.048 339.254C460.048 339.187 460.021 339.123 459.974 339.076C459.927 339.028 459.862 339.002 459.796 339.002C459.729 339.002 459.665 339.028 459.617 339.076C459.57 339.123 459.544 339.187 459.544 339.254C460.468 347.964 462.904 356.422 463.941 365.161C462.499 364.636 460.99 364.316 459.46 364.208C459.179 364.208 460.496 370.314 460.468 371.238C458.769 371.562 457.021 371.537 455.332 371.167C453.642 370.796 452.045 370.087 450.637 369.082C450.413 369.026 450.217 369.222 450.385 369.418Z" fill="#263238"/>
<path d="M416.412 378.632C416.412 378.632 412.099 378.38 410.811 375.663C409.522 372.947 412.267 365.301 404.761 361.66C402.185 360.427 400.112 359.755 398.824 357.543C396.499 353.454 398.572 350.065 397.703 347.376C396.583 344.071 390.534 343.595 389.497 337.069C388.153 328.387 395.491 325.866 396.667 322.674C397.843 319.481 395.939 315.336 399.804 309.706C403.389 304.525 409.943 305.729 413.808 303.545C417.673 301.36 415.992 294.75 422.994 291.165C428.119 288.561 434.757 293.182 438.37 292.034C443.971 290.213 443.971 284.584 451.421 283.099C459.824 281.447 471.699 295.086 473.575 300.52C475.676 306.625 471.559 310.462 472.903 314.299C474.835 319.901 479.737 319.285 480.185 324.242C480.633 329.199 477.58 331.608 477.608 334.745C477.608 339.002 478.42 339.842 478.392 343.539C478.246 345.991 477.187 348.299 475.424 350.009C475.424 350.009 473.099 331.076 466.097 318.725C463.773 314.607 460.748 311.807 459.375 312.171C457.555 312.647 458.815 319.481 455.734 320.097C452.654 320.713 445.764 313.795 441.563 316.484C435.961 320.097 438.762 329.087 432.965 332.364C427.167 335.641 423.722 334.045 422.042 336.985C419.941 340.654 423.302 343.203 423.974 349.645C424.509 352.274 424.296 355.001 423.358 357.515L419.157 358.383C419.157 358.383 413.892 354.434 412.323 355.19C410.755 355.946 416.412 378.632 416.412 378.632Z" fill="#263238"/>
<path d="M397.703 318.276C397.703 324.97 389.301 327.967 388.321 334.269C387.901 339.422 391.122 342.671 395.295 344.967C396.583 345.836 398.32 346.9 398.096 348.664C397.787 347.012 396.135 346.34 394.763 345.668C391.631 344.541 389.06 342.241 387.593 339.254C386.877 337.663 386.624 335.902 386.862 334.174C387.099 332.445 387.819 330.818 388.937 329.479C391.738 325.642 396.751 323.318 397.731 318.276H397.703Z" fill="#263238"/>
<path d="M474.163 316.848C476.544 318.472 479.933 318.781 481.557 321.497C484.078 325.838 481.557 329.087 478.757 332.364C478.138 333.05 477.722 333.893 477.552 334.801C477.422 333.831 477.619 332.845 478.112 332C479.261 329.675 481.333 327.239 480.913 324.662C480.837 323.818 480.583 323 480.168 322.261C479.753 321.523 479.186 320.88 478.504 320.377C476.905 319.402 475.444 318.215 474.163 316.848Z" fill="#263238"/>
<path d="M422.574 358.859C422.574 358.859 413.808 345.808 407.898 348.916C401.989 352.025 408.402 370.79 415.208 373.479C416.058 373.883 416.982 374.112 417.922 374.151C418.863 374.19 419.802 374.039 420.684 373.707C421.565 373.375 422.37 372.869 423.051 372.218C423.732 371.568 424.274 370.787 424.646 369.922L422.574 358.859Z" fill="#D3766A"/>
<path d="M409.887 354.098C409.887 354.098 409.887 354.266 409.887 354.294C412.074 355.433 413.997 357.018 415.531 358.948C417.065 360.878 418.177 363.109 418.793 365.497C418.518 365.034 418.15 364.634 417.711 364.321C417.272 364.009 416.773 363.792 416.246 363.684C415.719 363.576 415.175 363.579 414.649 363.694C414.123 363.808 413.626 364.031 413.192 364.348C413.192 364.348 413.192 364.629 413.192 364.601C414.04 364.343 414.948 364.358 415.788 364.644C416.627 364.931 417.355 365.474 417.869 366.197C418.762 367.395 419.514 368.692 420.109 370.062C420.333 370.482 421.118 370.258 420.95 369.782C421.062 363.536 416.44 354.854 409.887 354.098Z" fill="#263238"/>
<path d="M393.586 393.056L400.588 380.621L432.348 410.868L427.055 422.492L393.586 393.056Z" fill="#EBEBEB"/>
<path d="M235.429 588.771L418.317 634.199C418.317 634.199 415.516 608.712 416.748 601.038C426.243 547.544 439.154 452.207 429.296 416.47C425.935 404.343 400.84 386.81 386.277 390.703C348.355 400.926 265.285 503.209 241.899 559.055C238.986 566.113 235.261 588.211 235.429 588.771Z" fill="#455A64"/>
<path d="M394.903 421.847C420.109 463.438 470.774 520.797 487.075 526.707C501.554 531.944 553.9 517.408 578.238 505.113C587.341 500.52 562.554 440.92 557.233 443.189C545.218 448.398 503.039 463.186 499.874 461.786C496.709 460.385 449.853 422.071 417.308 401.374C387.761 382.637 385.436 406.107 394.903 421.847Z" fill="#D3766A"/>
<path d="M597.396 423.752C597.396 423.752 617.673 411.345 623.302 410.364C628.932 409.384 657.611 403.923 661.196 405.407C664.781 406.891 662.512 413.557 653.186 419.691C643.86 425.824 627.979 428.653 626.831 429.521C625.683 430.39 604.873 445.149 603.081 446.578L597.396 423.752Z" fill="#D3766A"/>
<path d="M603.053 492.51C594.651 501.78 572.777 507.466 572.777 507.466L551.659 445.85C551.659 445.85 566.111 439.576 575.438 434.143C583.168 429.605 610.363 417.338 610.363 417.338C610.363 418.01 625.543 447.614 623.582 455.428C621.622 463.242 604.957 491.417 603.053 492.51Z" fill="#D3766A"/>
<path d="M599.692 426.833C599.692 426.833 619.297 413.557 624.898 412.325C630.5 411.093 658.899 404.371 662.54 405.715C666.181 407.06 664.221 413.809 655.174 420.335C646.128 426.861 630.332 430.39 629.268 431.314C628.203 432.238 608.038 447.894 606.302 449.407L599.692 426.833Z" fill="#D3766A"/>
<path d="M602.157 425.264C608.444 420.357 615.155 416.017 622.21 412.297C634.909 408.249 648.1 405.95 661.42 405.463C656.911 406.023 650.441 407.676 645.932 408.572C640.695 409.888 627.895 412.269 623.078 414.173C618.261 416.078 607.03 422.772 602.213 425.376L602.157 425.264Z" fill="#263238"/>
<path d="M599.356 429.717C599.356 429.717 620.866 421.791 626.495 420.895C632.124 419.999 663.633 412.101 667.218 413.641C670.803 415.182 668.422 421.819 659.011 427.813C649.601 433.806 635.737 436.215 634.645 436.943C633.553 437.671 609.439 453.748 607.702 455.036L599.356 429.717Z" fill="#D3766A"/>
<path d="M663.24 413.585C653.662 416.61 637.754 418.991 627.979 421.259C622.378 423.276 607.394 426.665 605.265 427.561C612.267 424.76 619.857 422.66 627.671 419.747C637.558 417.394 663.24 413.585 663.24 413.585Z" fill="#263238"/>
<path d="M600.42 451.927C600.42 451.927 619.269 441.564 623.806 439.436C628.343 437.307 667.778 430.025 670.971 430.418C674.163 430.81 673.771 435.459 664.585 443.133C656.799 449.547 633.917 455.876 633.133 456.856C632.348 457.837 617.561 471 616.328 472.597C615.096 474.193 600.42 451.927 600.42 451.927Z" fill="#D3766A"/>
<path d="M650.413 433.498C647.164 434.899 630.192 438.372 626.831 439.408C622.748 441.279 618.569 442.934 614.312 444.365C617.93 441.496 621.962 439.191 626.271 437.531C629.716 436.635 650.413 433.498 650.413 433.498Z" fill="#263238"/>
<path d="M576.95 510.098L548.943 441.788L500.77 459.293C476.852 442.097 429.856 406.247 411.511 396.837C390.001 385.83 380.955 400.03 392.942 421.539C420.361 470.72 473.407 526.511 486.991 530.207C503.543 534.633 576.95 510.098 576.95 510.098Z" fill="#455A64"/>
<path d="M557.149 510.098C554.656 506.065 547.038 487.917 545.19 483.379C543.341 478.842 536.563 460.385 534.687 455.708C534.687 455.456 534.883 455.232 534.995 455.484C536.928 460.077 556.281 505.253 557.401 509.986L557.149 510.098Z" fill="#263238"/>
<path d="M549.167 518.64C534.729 523.185 520.038 526.879 505.167 529.703C497.774 530.6 489.371 532.896 482.398 529.143C463.017 516.82 448.789 498.167 434.281 480.943C424.815 469.152 415.712 457.08 407.198 444.533C426.495 467.723 445.26 491.389 466.321 512.983C471.444 518.411 477.134 523.275 483.294 527.491C484.78 528.474 486.48 529.089 488.251 529.283C508.92 529.815 529.17 523.318 549.167 518.612V518.64Z" fill="#263238"/>
<path d="M415.432 455.68C412.723 454.205 410.415 452.089 408.71 449.519C411.083 451.424 413.328 453.482 415.432 455.68Z" fill="#263238"/>
</g>
</g>
<defs>
<clipPath id="clip0_53_286">
<rect width="2000" height="1333" fill="white"/>
</clipPath>
<clipPath id="clip1_53_286">
<rect width="2000" height="1068.62" fill="white" transform="translate(0 132)"/>
</clipPath>
</defs>
</svg>
