<svg width="500" height="498" viewBox="0 0 500 498" fill="none" xmlns="http://www.w3.org/2000/svg">
<path d="M92.1968 76.1606C92.1968 76.1606 -17.4231 214.142 33.1699 367.657C83.7629 521.172 287.203 510.918 422.827 411.315C558.451 311.713 447.71 201.311 407.395 173.626C367.079 145.942 425.855 87.138 376.928 42.6944C328.001 -1.74917 213.561 -37.7083 92.1968 76.1606Z" fill="#FFC727"/>
<path opacity="0.7" d="M92.1968 76.1606C92.1968 76.1606 -17.4231 214.142 33.1699 367.657C83.7629 521.172 287.203 510.918 422.827 411.315C558.451 311.713 447.71 201.311 407.395 173.626C367.079 145.942 425.855 87.138 376.928 42.6944C328.001 -1.74917 213.561 -37.7083 92.1968 76.1606Z" fill="white"/>
<path d="M387.164 434.757C389.259 435.669 394.299 435.553 394.299 435.553C394.299 435.553 393.251 432.233 393.115 432.034C392.004 429.708 388.494 425.875 385.634 426.262C385.161 426.339 384.71 426.515 384.309 426.778C383.909 427.04 383.568 427.385 383.309 427.788C383.05 428.191 382.879 428.644 382.807 429.117C382.734 429.591 382.762 430.074 382.889 430.536C383.361 432.516 385.393 433.993 387.164 434.757Z" fill="#263238"/>
<path d="M388.914 449.422C391.062 449.736 395.577 448.427 395.933 448.322C396.679 450.908 397.596 453.441 398.678 455.905C399.296 457.34 399.967 458.775 400.658 460.2C400.25 459.592 399.873 459.058 399.81 458.985C398.133 457.037 393.723 454.271 391.072 455.392C390.636 455.591 390.246 455.88 389.929 456.239C389.612 456.599 389.374 457.021 389.23 457.478C389.087 457.936 389.042 458.418 389.097 458.894C389.153 459.37 389.308 459.83 389.553 460.242C390.538 462.033 392.885 462.913 394.791 463.185C396.698 463.458 400.595 462.431 401.622 462.138C401.895 462.682 402.157 463.238 402.429 463.772C403.739 466.38 405.059 469.009 406.274 471.554C406.693 472.466 407.081 473.377 407.479 474.288L406.745 473.241C405.059 471.303 400.658 468.527 397.997 469.648C397.562 469.848 397.173 470.137 396.857 470.497C396.541 470.857 396.304 471.279 396.162 471.737C396.02 472.194 395.975 472.676 396.031 473.152C396.088 473.628 396.243 474.086 396.489 474.498C397.463 476.289 399.82 477.169 401.727 477.441C403.634 477.713 407.165 476.792 408.38 476.446C408.747 477.399 409.124 478.342 409.428 479.274C409.627 479.913 409.868 480.521 410.035 481.18L410.57 483.097C410.863 484.323 411.177 485.601 411.439 486.805C411.628 487.643 411.785 488.45 411.952 489.256C411.533 488.345 410.685 486.585 410.59 486.439C409.228 484.26 405.289 480.856 402.492 481.568C402.031 481.699 401.602 481.926 401.234 482.233C400.867 482.541 400.569 482.923 400.359 483.354C400.149 483.786 400.033 484.256 400.018 484.735C400.003 485.214 400.089 485.691 400.271 486.135C400.962 488.041 403.152 489.277 404.996 489.832C407.018 490.45 411.502 489.885 412.068 489.832C412.33 491.173 412.581 492.483 412.801 493.719C412.962 494.633 413.108 495.513 413.241 496.358H415.033C414.865 495.415 414.687 494.431 414.477 493.404C414.215 492.043 413.901 490.587 413.566 489.11C414.914 488.565 416.229 487.942 417.505 487.245C418.982 488.848 422.744 490.723 423.257 490.953C422.744 492.221 422.209 493.446 421.727 494.598C421.465 495.206 421.204 495.782 420.952 496.358H422.848C422.995 495.992 423.152 495.635 423.299 495.311C423.833 494.022 424.347 492.64 424.912 491.215C425.457 491.33 429.889 492.263 431.963 491.77C433.839 491.341 436.154 490.283 436.95 488.429C437.164 487.999 437.284 487.529 437.303 487.049C437.323 486.57 437.241 486.092 437.063 485.646C436.885 485.2 436.615 484.797 436.271 484.462C435.926 484.128 435.515 483.87 435.065 483.705C432.33 482.783 428.16 485.894 426.683 487.968C426.589 488.083 425.761 489.529 425.248 490.44C425.468 489.853 425.688 489.288 425.908 488.691C426.337 487.497 426.735 486.303 427.175 485.014C427.364 484.375 427.553 483.747 427.752 483.097C427.951 482.448 428.087 481.778 428.265 481.107C428.632 479.546 428.936 477.965 429.197 476.32C430.245 476.697 433.964 477.996 435.892 477.86C437.82 477.724 440.219 477.022 441.33 475.315C441.606 474.923 441.796 474.478 441.888 474.008C441.98 473.538 441.972 473.054 441.864 472.587C441.757 472.121 441.551 471.682 441.263 471.3C440.974 470.918 440.607 470.602 440.188 470.371C437.621 469.04 433.022 471.481 431.199 473.304C431.083 473.408 429.92 474.864 429.302 475.671C429.449 474.697 429.606 473.723 429.732 472.738C430.088 469.878 430.36 466.966 430.643 464.076C430.727 463.185 430.821 462.295 430.916 461.415C431.282 461.551 435.672 463.185 437.83 463.039C439.758 462.902 442.168 462.201 443.278 460.493C443.553 460.1 443.741 459.653 443.831 459.182C443.922 458.711 443.913 458.227 443.804 457.76C443.695 457.293 443.49 456.854 443.201 456.471C442.912 456.089 442.546 455.771 442.126 455.539C439.559 454.219 434.97 456.66 433.137 458.472C433.001 458.608 431.335 460.703 430.926 461.258C431.136 459.31 431.356 457.361 431.66 455.465C432.05 452.89 432.606 450.343 433.325 447.84C433.493 447.913 438.071 449.631 440.282 449.484C442.199 449.348 444.609 448.636 445.72 446.939C445.995 446.546 446.185 446.1 446.276 445.628C446.368 445.157 446.359 444.672 446.25 444.205C446.141 443.737 445.935 443.298 445.645 442.915C445.355 442.533 444.988 442.216 444.567 441.985C442.011 440.665 437.411 443.105 435.588 444.918C435.442 445.064 433.64 447.306 433.346 447.746C433.346 447.599 433.42 447.442 433.462 447.295C434.256 444.81 435.265 442.399 436.479 440.089C437.139 438.811 437.841 437.617 438.574 436.475C439.391 436.884 443.153 438.706 445.164 438.79C447.176 438.874 449.554 438.434 450.853 436.852C451.168 436.492 451.405 436.07 451.546 435.614C451.688 435.157 451.732 434.675 451.676 434.2C451.62 433.725 451.464 433.267 451.22 432.856C450.975 432.445 450.647 432.09 450.256 431.814C447.846 430.211 443.017 432.139 440.994 433.741C440.89 433.825 439.873 434.841 439.14 435.585C439.475 435.071 439.8 434.537 440.125 434.055C441.33 432.243 442.545 430.651 443.635 429.248C444.263 428.462 444.839 427.76 445.395 427.1C446.442 427.1 450.487 426.964 452.278 426.126C454.07 425.288 456.008 423.78 456.469 421.79C456.582 421.326 456.596 420.843 456.511 420.374C456.426 419.904 456.243 419.457 455.975 419.062C455.706 418.667 455.358 418.333 454.952 418.081C454.546 417.829 454.092 417.665 453.619 417.6C450.748 417.286 447.333 421.224 446.285 423.57C446.201 423.78 445.143 427.121 445.238 427.121H445.3C444.756 427.739 444.19 428.399 443.572 429.143C442.451 430.526 441.194 432.086 439.947 433.888C438.577 435.81 437.321 437.81 436.186 439.879C434.895 442.189 433.819 444.612 432.969 447.117V447.201C432.969 446.363 432.969 443.996 432.969 443.818C432.634 441.262 430.497 436.486 427.657 435.993C427.184 435.921 426.7 435.949 426.237 436.075C425.775 436.201 425.344 436.423 424.973 436.726C424.602 437.029 424.298 437.407 424.082 437.834C423.866 438.262 423.742 438.73 423.718 439.209C423.55 441.231 425.028 443.263 426.463 444.551C428.076 445.996 432.571 447.39 432.927 447.505C432.125 450.072 431.491 452.689 431.031 455.34C430.759 456.879 430.528 458.482 430.319 460.011C430.319 459.278 430.319 458.629 430.319 458.534C429.994 455.979 427.846 451.202 425.017 450.72C424.544 450.645 424.06 450.67 423.597 450.794C423.133 450.918 422.702 451.139 422.33 451.442C421.958 451.744 421.654 452.122 421.439 452.55C421.223 452.978 421.1 453.447 421.078 453.926C420.91 455.958 422.377 457.99 423.812 459.268C425.248 460.546 429.051 461.844 430.098 462.169C430.025 462.766 429.941 463.374 429.868 463.971C429.522 466.872 429.197 469.753 428.82 472.581C428.674 473.576 428.496 474.55 428.317 475.524C428.317 474.885 428.317 474.33 428.317 474.246C427.982 471.701 425.845 466.914 423.006 466.432C422.532 466.358 422.049 466.385 421.587 466.51C421.124 466.634 420.693 466.855 420.322 467.157C419.95 467.46 419.646 467.837 419.43 468.264C419.214 468.691 419.09 469.159 419.066 469.638C418.909 471.67 420.376 473.702 421.811 474.98C423.247 476.257 426.704 477.431 427.909 477.818C427.689 478.813 427.49 479.808 427.238 480.762C427.05 481.411 426.913 482.05 426.693 482.689C426.473 483.328 426.285 483.956 426.086 484.585C425.646 485.779 425.216 487.004 424.755 488.157C424.451 488.963 424.137 489.717 423.833 490.482C423.99 489.497 424.252 487.549 424.263 487.392C424.224 485.125 423.612 482.905 422.482 480.94C422.49 480.687 422.473 480.434 422.429 480.185C422.372 479.707 422.214 479.247 421.965 478.835C421.717 478.422 421.383 478.068 420.987 477.794C420.59 477.521 420.14 477.335 419.666 477.249C419.193 477.163 418.706 477.178 418.239 477.294C415.452 478.028 413.681 482.93 413.545 485.496C413.545 485.653 413.639 487.308 413.723 488.345C413.576 487.738 413.451 487.151 413.294 486.533C413.011 485.297 412.675 484.071 412.33 482.762C412.141 482.134 411.952 481.495 411.753 480.856C411.554 480.217 411.303 479.557 411.083 478.897C410.528 477.399 409.899 475.891 409.228 474.393C410.276 474.142 414.121 473.167 415.661 471.984C417.201 470.8 418.804 468.904 418.804 466.862C418.816 466.383 418.727 465.908 418.543 465.466C418.36 465.024 418.085 464.626 417.737 464.297C417.389 463.968 416.976 463.716 416.525 463.557C416.074 463.398 415.594 463.335 415.116 463.374C412.246 463.678 409.752 468.244 409.228 470.769C409.228 470.926 409.029 472.78 408.956 473.796C408.547 472.906 408.139 472.005 407.699 471.114C406.421 468.527 405.038 465.961 403.676 463.384C403.257 462.599 402.848 461.803 402.439 461.017C402.827 460.933 407.385 459.875 409.103 458.555C410.632 457.382 412.246 455.465 412.246 453.433C412.261 452.954 412.174 452.476 411.992 452.032C411.809 451.588 411.534 451.188 411.186 450.858C410.838 450.527 410.424 450.274 409.971 450.115C409.518 449.956 409.036 449.895 408.558 449.935C405.687 450.249 403.204 454.816 402.68 457.34C402.68 457.529 402.408 460.189 402.377 460.87C401.476 459.132 400.585 457.393 399.789 455.633C398.695 453.272 397.754 450.844 396.97 448.364C397.149 448.364 401.916 447.232 403.676 445.881C405.205 444.719 406.819 442.802 406.819 440.759C406.832 440.28 406.744 439.804 406.561 439.361C406.378 438.919 406.103 438.52 405.755 438.191C405.407 437.861 404.993 437.609 404.541 437.451C404.089 437.292 403.608 437.231 403.131 437.271C400.26 437.575 397.777 442.152 397.253 444.666C397.253 444.865 396.95 447.735 396.95 448.259C396.95 448.112 396.834 447.976 396.792 447.829C396.083 445.318 395.595 442.749 395.336 440.152C395.179 438.717 395.106 437.334 395.064 435.962C395.965 435.857 400.114 435.302 401.832 434.265C403.55 433.228 405.3 431.542 405.509 429.509C405.576 429.035 405.541 428.552 405.408 428.091C405.275 427.631 405.046 427.204 404.737 426.838C404.427 426.472 404.044 426.176 403.612 425.969C403.18 425.761 402.709 425.647 402.23 425.634C399.349 425.634 396.363 429.897 395.577 432.348C395.525 432.484 395.242 433.888 395.043 434.904C395.043 434.307 395.043 433.678 395.043 433.092C395.043 430.913 395.189 428.902 395.326 427.153C395.409 426.105 395.514 425.236 395.608 424.387C396.447 423.822 399.799 421.465 400.847 419.779C401.895 418.092 402.67 415.767 401.895 413.871C401.734 413.419 401.479 413.007 401.148 412.66C400.817 412.313 400.416 412.04 399.973 411.858C399.529 411.676 399.052 411.59 398.572 411.605C398.093 411.619 397.622 411.735 397.19 411.944C394.624 413.263 393.953 418.427 394.383 420.962C394.383 421.182 395.378 424.555 395.43 424.524C395.326 425.33 395.21 426.21 395.106 427.163C394.938 428.933 394.749 430.934 394.697 433.123C394.62 435.481 394.676 437.842 394.865 440.194C395.073 442.828 395.511 445.439 396.174 447.997V448.091C395.724 447.379 394.383 445.42 394.267 445.284C392.581 443.336 388.18 440.571 385.519 441.691C385.084 441.891 384.695 442.181 384.379 442.541C384.063 442.9 383.826 443.323 383.684 443.78C383.542 444.238 383.497 444.72 383.553 445.195C383.61 445.671 383.765 446.13 384.011 446.541C384.66 448.311 387.007 449.149 388.914 449.422Z" fill="#263238"/>
<path d="M438.386 435.878C438.386 435.878 439.308 432.505 439.339 432.285C439.695 429.74 438.878 424.597 436.28 423.34C435.841 423.145 435.365 423.045 434.884 423.047C434.404 423.049 433.929 423.152 433.491 423.35C433.053 423.547 432.661 423.835 432.342 424.195C432.023 424.554 431.783 424.977 431.639 425.435C430.937 427.341 431.817 429.698 432.864 431.311C434.09 433.176 438.386 435.868 438.386 435.878Z" fill="#263238"/>
<path d="M51.9971 464.39C53.2064 464.709 54.4563 464.846 55.706 464.798C55.706 464.798 55.1402 463.08 55.0878 462.976C54.5116 461.771 52.6886 459.781 51.2114 459.98C50.9655 460.019 50.7307 460.11 50.5224 460.247C50.3141 460.383 50.1369 460.562 50.0025 460.772C49.868 460.981 49.7793 461.217 49.742 461.463C49.7048 461.709 49.72 461.961 49.7865 462.201C49.9732 462.704 50.2677 463.161 50.6496 463.54C51.0315 463.918 51.4914 464.208 51.9971 464.39Z" fill="#263238"/>
<path d="M52.9087 471.994C54.1455 471.99 55.3746 471.799 56.5546 471.429C56.9394 472.769 57.4154 474.081 57.9795 475.357C58.2938 476.1 58.65 476.844 59.0272 477.588C58.8072 477.273 58.6186 476.991 58.5871 476.959C57.7071 475.912 55.4441 474.508 54.0506 475.095C53.8235 475.197 53.6207 475.346 53.4554 475.532C53.2902 475.718 53.1664 475.937 53.0921 476.175C53.0178 476.413 52.9948 476.663 53.0246 476.91C53.0544 477.157 53.1363 477.395 53.2649 477.609C53.5787 478.046 53.9841 478.409 54.4527 478.673C54.9214 478.937 55.4421 479.096 55.9784 479.138C57.1797 479.138 58.374 478.955 59.5196 478.593C59.6663 478.876 59.8025 479.159 59.9387 479.442C60.6197 480.793 61.3007 482.144 61.9397 483.485C62.1598 483.956 62.3588 484.428 62.5579 484.899C62.3693 484.616 62.2121 484.386 62.1807 484.354C61.3111 483.307 59.0376 481.903 57.6442 482.49C57.4183 482.593 57.2166 482.743 57.0523 482.929C56.888 483.116 56.7648 483.334 56.6907 483.572C56.6166 483.809 56.5932 484.059 56.6221 484.305C56.651 484.552 56.7315 484.79 56.8584 485.004C57.1723 485.441 57.5776 485.804 58.0463 486.068C58.515 486.332 59.0356 486.491 59.572 486.533C60.7402 486.537 61.9024 486.364 63.0189 486.02C63.2179 486.512 63.4065 486.994 63.5741 487.486C63.6789 487.811 63.8046 488.125 63.8989 488.471C63.9932 488.816 64.077 489.141 64.1713 489.518C64.3285 490.157 64.4856 490.817 64.6218 491.446C64.7161 491.875 64.7999 492.294 64.8838 492.713C64.6742 492.242 64.2342 491.33 64.1818 491.257C63.4694 490.126 61.4369 488.356 59.991 488.722C59.7532 488.792 59.5326 488.911 59.3434 489.071C59.1541 489.231 59.0003 489.428 58.8918 489.651C58.7833 489.874 58.7226 490.117 58.7134 490.365C58.7042 490.612 58.7469 490.859 58.8386 491.089C59.0816 491.57 59.427 491.992 59.8506 492.325C60.2741 492.658 60.7655 492.894 61.2902 493.017C62.506 493.195 63.7413 493.195 64.9571 493.017C65.0933 493.708 65.2295 494.389 65.3343 495.028C65.4181 495.499 65.5019 495.96 65.5648 496.4H66.4972C66.4134 495.904 66.3191 495.391 66.2143 494.86C66.0677 494.158 65.9105 493.404 65.7324 492.64C66.4491 492.36 67.1488 492.038 67.8278 491.676C68.7251 492.451 69.7267 493.096 70.8032 493.593C70.5413 494.253 70.2689 494.892 70.0174 495.489C69.8708 495.803 69.745 496.096 69.6088 496.4H70.5937L70.8346 495.834C71.107 495.164 71.3794 494.452 71.6623 493.739C72.8597 494.019 74.0927 494.114 75.3188 494.022C75.8512 493.94 76.3594 493.742 76.808 493.444C77.2566 493.145 77.635 492.753 77.917 492.294C78.0261 492.07 78.0871 491.826 78.096 491.577C78.1049 491.329 78.0616 491.081 77.9688 490.85C77.876 490.619 77.7358 490.41 77.5573 490.237C77.3787 490.063 77.1658 489.929 76.9322 489.843C75.5178 489.372 73.3491 490.974 72.5529 492.053C72.5529 492.116 72.0814 492.86 71.8195 493.341C71.9242 493.038 72.0395 492.744 72.1547 492.43C72.3748 491.812 72.5843 491.194 72.8148 490.524C72.9091 490.189 73.0138 489.864 73.1081 489.529C73.2024 489.194 73.2862 488.837 73.3805 488.481C73.5691 487.675 73.7263 486.847 73.8625 485.999C74.9744 486.442 76.1472 486.714 77.3408 486.805C77.8791 486.802 78.4102 486.681 78.897 486.451C79.3837 486.222 79.8145 485.888 80.1591 485.475C80.3017 485.271 80.3998 485.04 80.447 484.796C80.4942 484.552 80.4895 484.301 80.4331 484.059C80.3768 483.817 80.2701 483.589 80.12 483.391C79.9699 483.193 79.7797 483.029 79.5619 482.909C78.2313 482.228 75.8426 483.495 74.8997 484.438C74.8368 484.438 74.2396 485.245 73.9149 485.664C73.9882 485.161 74.072 484.616 74.1349 484.145C74.3235 482.657 74.4597 481.149 74.6063 479.651C74.6063 479.19 74.7006 478.729 74.753 478.269C75.9011 478.73 77.113 479.012 78.3466 479.107C78.8845 479.107 79.416 478.989 79.9032 478.761C80.3903 478.533 80.8211 478.2 81.1649 477.787C81.3091 477.584 81.4086 477.352 81.4567 477.108C81.5048 476.864 81.5005 476.612 81.4441 476.369C81.3876 476.127 81.2803 475.899 81.1292 475.701C80.9782 475.503 80.7868 475.339 80.5677 475.22C79.2371 474.54 76.8589 475.797 75.9055 476.739C75.8321 476.813 74.973 477.902 74.7635 478.185C74.8683 477.137 74.9835 476.163 75.1407 475.179C75.3408 473.845 75.6278 472.526 75.9998 471.23C77.156 471.69 78.3741 471.976 79.6143 472.078C80.1515 472.075 80.6816 471.955 81.1681 471.727C81.6547 471.499 82.086 471.169 82.4326 470.758C82.5881 470.546 82.6939 470.301 82.7423 470.042C82.7906 469.783 82.7802 469.517 82.7118 469.263C82.6435 469.008 82.5189 468.772 82.3472 468.573C82.1756 468.373 81.9613 468.214 81.7202 468.108C80.3896 467.417 78.0113 468.684 77.0579 469.627C76.9846 469.7 76.0102 470.863 75.895 471.093C75.9208 471.018 75.9418 470.941 75.9579 470.863C76.3698 469.586 76.8957 468.348 77.5294 467.166C77.8647 466.495 78.2313 465.877 78.5771 465.291C79.6485 465.859 80.8001 466.262 81.9926 466.485C82.5316 466.536 83.0755 466.469 83.5859 466.288C84.0963 466.107 84.5609 465.817 84.947 465.437C85.1112 465.251 85.2341 465.033 85.3078 464.796C85.3814 464.559 85.4042 464.309 85.3745 464.063C85.3448 463.816 85.2634 463.579 85.1355 463.367C85.0077 463.154 84.8364 462.971 84.6327 462.829C83.386 462.002 80.882 462.997 79.8343 463.824C79.7714 463.824 79.2476 464.39 78.8704 464.777C79.0381 464.515 79.2057 464.243 79.3733 463.992C80.0019 463.049 80.6306 462.222 81.1963 461.499C81.5211 461.09 81.8249 460.724 82.1078 460.388C83.3181 460.403 84.5233 460.23 85.6804 459.875C86.1815 459.678 86.6338 459.374 87.0064 458.986C87.3789 458.597 87.6629 458.132 87.8387 457.623C87.8983 457.381 87.9062 457.13 87.8619 456.885C87.8177 456.64 87.7223 456.407 87.5819 456.201C87.4415 455.996 87.2593 455.822 87.0472 455.692C86.8351 455.561 86.5978 455.477 86.3509 455.444C84.8632 455.287 83.1031 457.319 82.5583 458.587C82.5583 458.692 81.9611 460.43 81.9926 460.43C81.7097 460.745 81.4058 461.09 81.0915 461.478C80.5153 462.19 79.8553 463.007 79.2057 463.939C78.4948 464.948 77.8441 465.997 77.257 467.082C76.5938 468.281 76.0364 469.536 75.5912 470.832C75.5847 470.848 75.5847 470.867 75.5912 470.884C75.5912 470.444 75.5912 469.219 75.5912 469.124C75.4235 467.794 74.313 465.332 72.8357 465.06C72.5903 465.023 72.3398 465.038 72.1005 465.104C71.8611 465.169 71.6381 465.284 71.4457 465.441C71.2534 465.598 71.0959 465.793 70.9835 466.014C70.871 466.236 70.806 466.478 70.7927 466.726C70.8348 467.257 70.9903 467.773 71.2487 468.239C71.5071 468.705 71.8625 469.111 72.2909 469.428C73.3285 470.104 74.4623 470.62 75.654 470.957C75.2312 472.287 74.9021 473.645 74.6692 475.021C74.5225 475.828 74.4073 476.635 74.292 477.452C74.292 477.074 74.292 476.729 74.292 476.687C74.1244 475.357 73.0138 472.906 71.5366 472.633C71.2909 472.595 71.0399 472.608 70.7998 472.673C70.5597 472.738 70.3361 472.853 70.1433 473.01C69.9506 473.167 69.7931 473.363 69.6812 473.585C69.5692 473.807 69.5053 474.05 69.4936 474.299C69.5166 474.835 69.656 475.36 69.902 475.838C70.148 476.315 70.4948 476.734 70.9185 477.064C71.9199 477.732 73.0191 478.241 74.1768 478.572L74.0511 479.505C73.8729 481.013 73.7053 482.511 73.4853 483.977C73.412 484.49 73.3177 485.025 73.2339 485.506C73.2339 485.161 73.2339 484.878 73.2339 484.836C73.0558 483.516 71.9452 481.055 70.4784 480.782C70.2327 480.744 69.9817 480.758 69.7416 480.822C69.5016 480.887 69.2779 481.002 69.0852 481.159C68.8924 481.316 68.7349 481.512 68.623 481.734C68.5111 481.956 68.4471 482.2 68.4354 482.448C68.459 482.986 68.5986 483.512 68.8445 483.991C69.0904 484.47 69.4369 484.891 69.8603 485.224C70.8259 485.872 71.8862 486.367 73.0034 486.69C72.8986 487.203 72.7938 487.738 72.6576 488.219C72.5633 488.555 72.5005 488.879 72.3852 489.214C72.27 489.55 72.1652 489.874 72.0604 490.199C71.8404 490.817 71.6099 491.456 71.3794 492.053L70.8975 493.258C70.9708 492.744 71.1175 491.739 71.1175 491.655C71.1037 490.48 70.7861 489.329 70.1956 488.314C70.2059 488.181 70.2059 488.048 70.1956 487.916C70.1655 487.669 70.0837 487.432 69.9556 487.22C69.8275 487.008 69.6559 486.825 69.4521 486.683C69.2483 486.542 69.0169 486.445 68.7731 486.399C68.5293 486.354 68.2785 486.36 68.0373 486.418C66.5915 486.795 65.6695 489.34 65.5962 490.67C65.5962 490.754 65.5962 491.613 65.6905 492.147C65.6171 491.833 65.5543 491.529 65.4705 491.205C65.3238 490.566 65.1457 489.937 64.9676 489.256C64.8733 488.921 64.7685 488.596 64.6742 488.261C64.5799 487.926 64.4333 487.591 64.318 487.214C64.0351 486.428 63.7103 485.653 63.3541 484.868C64.5266 484.629 65.6543 484.209 66.6963 483.621C67.1434 483.321 67.5201 482.928 67.8005 482.469C68.0809 482.01 68.2582 481.495 68.3202 480.961C68.3253 480.712 68.2784 480.465 68.1824 480.236C68.0865 480.007 67.9436 479.801 67.763 479.63C67.5825 479.459 67.3682 479.328 67.1339 479.245C66.8997 479.162 66.6507 479.129 66.4029 479.148C64.9152 479.316 63.6265 481.683 63.3541 482.993C63.3541 483.076 63.2494 484.04 63.2179 484.564C62.9979 484.092 62.7884 483.632 62.5579 483.171C61.8978 481.83 61.1854 480.489 60.4625 479.159C60.2425 478.75 60.0329 478.342 59.8234 477.933C61.0324 477.68 62.1974 477.249 63.2808 476.655C63.7299 476.358 64.1081 475.965 64.3887 475.506C64.6693 475.046 64.8455 474.53 64.9047 473.995C64.9115 473.746 64.8657 473.499 64.7703 473.269C64.6749 473.039 64.5321 472.832 64.3511 472.661C64.1702 472.489 63.9552 472.359 63.7202 472.276C63.4853 472.194 63.2356 472.162 62.9874 472.183C61.4997 472.34 60.2111 474.707 59.9387 476.017C59.9387 476.121 59.792 477.504 59.7815 477.86C59.31 476.949 58.8595 476.048 58.4405 475.137C57.8729 473.912 57.383 472.652 56.9737 471.366C58.1938 471.116 59.3697 470.685 60.4625 470.088C60.9082 469.787 61.2838 469.393 61.564 468.934C61.8442 468.475 62.0224 467.961 62.0864 467.427C62.0915 467.179 62.0446 466.932 61.9487 466.703C61.8527 466.474 61.7099 466.267 61.5293 466.097C61.3487 465.926 61.1344 465.795 60.9002 465.712C60.6659 465.629 60.4169 465.596 60.1692 465.615C58.6814 465.772 57.3928 468.15 57.1204 469.459C57.1204 469.554 56.9632 471.041 56.9632 471.313C56.9307 471.242 56.9027 471.168 56.8794 471.093C56.5087 469.792 56.2562 468.46 56.1251 467.113C56.0412 466.369 55.9993 465.647 55.9784 464.955C57.189 464.838 58.3754 464.542 59.4986 464.076C59.9754 463.825 60.3925 463.474 60.7215 463.047C61.0506 462.621 61.2838 462.128 61.4054 461.604C61.4394 461.357 61.421 461.106 61.3513 460.867C61.2816 460.628 61.1623 460.406 61.0012 460.216C60.84 460.027 60.6406 459.873 60.416 459.765C60.1914 459.658 59.9466 459.599 59.6977 459.592C58.1995 459.592 56.6594 461.803 56.2508 463.08C56.2508 463.143 56.0727 463.876 55.9784 464.411C55.9784 464.096 55.9784 463.772 55.9784 463.468C55.9784 462.337 56.0517 461.3 56.1251 460.378C56.1251 459.854 56.2194 459.393 56.2717 458.953C57.2872 458.297 58.1954 457.488 58.9643 456.555C59.2765 456.117 59.4889 455.617 59.5866 455.088C59.6844 454.56 59.6651 454.016 59.5301 453.496C59.4503 453.259 59.3212 453.04 59.1513 452.856C58.9814 452.672 58.7744 452.525 58.544 452.426C58.3135 452.327 58.0648 452.278 57.8141 452.282C57.5633 452.286 57.3162 452.343 57.0889 452.449C55.7584 453.14 55.4022 455.811 55.6222 457.131C55.6222 457.246 56.146 458.995 56.167 458.974C56.1041 459.404 56.0517 459.854 55.9993 460.347C55.905 461.268 55.8108 462.305 55.7793 463.437C55.7446 464.663 55.7761 465.89 55.8736 467.113C55.9788 468.479 56.2067 469.832 56.5546 471.156C56.5546 471.156 56.5546 471.156 56.5546 471.209C56.3241 470.842 55.6326 469.826 55.5698 469.753C54.6897 468.705 52.4267 467.302 51.0333 467.888C50.8062 467.99 50.6033 468.139 50.4381 468.326C50.2729 468.512 50.149 468.731 50.0747 468.968C50.0005 469.206 49.9775 469.457 50.0073 469.704C50.037 469.951 50.1189 470.189 50.2475 470.402C50.5488 470.845 50.943 471.217 51.4026 471.491C51.8621 471.766 52.3761 471.938 52.9087 471.994Z" fill="#263238"/>
<path d="M78.5772 464.966C78.5772 464.966 79.0591 463.217 79.0696 463.101C79.2582 461.782 78.8286 459.111 77.4876 458.461C77.2621 458.359 77.0177 458.305 76.77 458.303C76.5224 458.301 76.2771 458.351 76.0501 458.45C75.823 458.549 75.6191 458.694 75.4517 458.876C75.2842 459.058 75.1569 459.274 75.0779 459.509C74.9548 460.032 74.9483 460.577 75.0587 461.104C75.1691 461.63 75.3938 462.126 75.717 462.557C76.5449 463.498 77.509 464.31 78.5772 464.966Z" fill="#263238"/>
<path d="M97.8441 453.779C97.8441 453.779 96.4717 445.399 98.9652 444.75C101.459 444.101 104.539 448.552 104.539 448.552C104.539 448.552 107.064 443.525 108.667 445.41C109.605 446.456 110.248 447.732 110.532 449.107C110.532 449.107 114.597 446.332 115.225 449.212C115.854 452.093 111.307 458.493 107.305 459.896C103.303 461.3 99.73 460.881 97.8441 453.779Z" fill="#263238"/>
<path d="M130.71 465.154C130.71 465.154 134.262 457.508 136.724 458.325C139.186 459.142 139.186 464.61 139.186 464.61C139.186 464.61 144.1 461.876 144.425 464.337C144.609 465.727 144.421 467.14 143.88 468.433C143.88 468.433 148.804 468.433 147.704 471.167C146.604 473.901 139.239 476.635 135.132 475.545C131.025 474.456 128.259 472.11 130.71 465.154Z" fill="#263238"/>
<path d="M102.674 458.335C102.674 458.335 101.312 479.672 107.671 495.792C107.671 495.792 117.656 477.86 134.01 471.272" stroke="#263238" stroke-miterlimit="10"/>
<path d="M107.703 495.793C107.703 495.793 107.923 490.555 101.574 485.318C95.2249 480.081 91.3485 478.96 91.3485 478.96C91.3485 478.96 88.394 484.197 94.303 489.435C98.146 492.674 102.762 494.865 107.703 495.793Z" fill="#263238"/>
<path d="M107.703 495.792C107.703 495.792 111.789 489.204 115.194 487.413C118.599 485.622 125.409 487.182 125.409 487.182C123.117 489.466 120.608 491.522 117.918 493.32C114.513 495.342 107.703 495.792 107.703 495.792Z" fill="#263238"/>
<path d="M117.918 482.396C117.918 482.396 116.786 479.903 118.599 474.906C119.485 472.265 120.707 469.748 122.234 467.417C122.234 467.417 123.366 469.46 122.465 473.995C121.654 477.123 120.093 480.006 117.918 482.396Z" fill="#263238"/>
<path d="M103.837 476.718C103.983 473.547 105.181 470.514 107.242 468.098C109.34 465.727 111.62 463.524 114.062 461.509C114.062 461.509 113.151 469.459 110.427 472.183C108.469 474.015 106.248 475.544 103.837 476.718Z" fill="#263238"/>
<path d="M103.387 478.311C102.475 476.255 101.16 474.403 99.5206 472.864C97.6601 471.498 95.6868 470.292 93.6221 469.26C93.6221 469.26 91.8096 472.895 94.3031 475.168C96.7966 477.441 103.387 478.311 103.387 478.311Z" fill="#263238"/>
<path d="M120.873 479.672C120.873 479.672 121.103 478.991 124.959 478.541C127.315 478.284 129.693 478.759 131.769 479.903C131.769 479.903 130.176 481.945 126.09 481.495C122.004 481.044 120.873 479.672 120.873 479.672Z" fill="#263238"/>
<path d="M370.673 451.37C370.673 451.37 367.111 443.724 364.659 444.541C362.208 445.358 362.197 450.825 362.197 450.825C362.197 450.825 357.273 448.091 356.959 450.553C356.774 451.942 356.962 453.356 357.504 454.649C357.504 454.649 352.59 454.649 353.68 457.382C354.769 460.116 362.155 462.85 366.252 461.761C370.348 460.671 373.114 458.325 370.673 451.37Z" fill="#263238"/>
<path d="M365.152 465.154C365.152 465.154 361.6 457.508 359.138 458.325C356.676 459.142 356.676 464.61 356.676 464.61C356.676 464.61 351.762 461.876 351.49 464.337C351.305 465.727 351.493 467.14 352.035 468.433C352.035 468.433 347.11 468.433 348.211 471.167C349.311 473.901 356.676 476.635 360.783 475.545C364.89 474.456 367.603 472.11 365.152 465.154Z" fill="#263238"/>
<path d="M380.385 496.002C380.322 495.834 373.69 478.761 361.621 472.853L362.082 471.921C370.956 476.257 376.844 486.104 379.589 491.655C374.874 467.564 367.331 459.037 367.247 458.954L368.022 458.252C368.379 458.639 376.729 468.056 381.391 495.73L380.385 496.002Z" fill="#263238"/>
<path d="M381.36 495.73C381.36 495.73 379.778 486.858 381.192 483.611C382.606 480.363 386.588 473.67 386.588 473.67C387.874 476.598 388.104 479.882 387.237 482.961C385.865 488.366 381.36 495.73 381.36 495.73Z" fill="#263238"/>
<path d="M380.899 495.499C379.313 492.685 377.092 490.278 374.414 488.471C369.762 485.234 363.381 481.558 363.381 481.558C363.558 483.29 364.128 484.959 365.046 486.438C365.965 487.917 367.208 489.168 368.683 490.094C372.533 492.36 376.632 494.174 380.899 495.499Z" fill="#263238"/>
<path d="M380.029 490.21C380.029 490.21 375.598 477.242 375.598 470.643C375.598 464.044 377.546 453.57 377.546 453.57C377.546 453.57 377.756 455.947 378.95 465.563C380.145 475.179 380.029 490.21 380.029 490.21Z" fill="#263238"/>
<path d="M374.738 484.05C374.738 484.05 371.711 480.803 369.657 479.861C367.604 478.918 365.005 477.703 365.005 477.703C365.743 479.551 366.98 481.158 368.578 482.343C370.956 483.862 377.326 487.643 377.326 487.643L374.738 484.05Z" fill="#263238"/>
<path d="M485.354 496.337H499.476" stroke="#263238" stroke-linecap="round" stroke-linejoin="round"/>
<path d="M0.523926 496.337H478.564" stroke="#263238" stroke-linecap="round" stroke-linejoin="round"/>
<path d="M470.414 206.883C470.414 206.883 461.833 193.151 449.816 193.643C437.799 194.136 438.04 208.842 434.101 208.109C430.161 207.375 424.787 201.489 419.433 204.181C414.079 206.873 411.051 211.785 409.867 212.56C408.684 213.335 401.968 209.093 398.584 211.586C396.456 213.123 394.097 214.311 391.596 215.106C390.032 214.623 388.43 214.272 386.808 214.058C385.582 214.058 376.247 218.437 376.247 218.437H496.732C496.732 218.437 491.095 209.156 487.166 206.915C483.237 204.673 477.601 207.899 474.657 208.632C473.856 208.879 472.995 208.84 472.221 208.52C471.446 208.201 470.807 207.622 470.414 206.883Z" stroke="#263238" stroke-miterlimit="10"/>
<path d="M113.455 71.6986C113.455 71.6986 104.874 57.9664 92.8571 58.4587C80.8401 58.951 81.081 73.6678 77.1417 72.9241C73.2024 72.1804 67.8277 66.3042 62.474 69.0066C57.1203 71.709 54.0925 76.6111 52.8981 77.3863C51.7038 78.1614 45.009 73.9087 41.6145 76.4017C39.4693 77.9306 37.0921 79.1048 34.574 79.8792C33.014 79.3957 31.4158 79.0453 29.7966 78.8317C28.5708 78.8317 19.2358 83.2206 19.2358 83.2206H139.72C139.72 83.2206 134.084 73.9296 130.155 71.6986C126.226 69.4675 120.589 72.6832 117.645 73.4164C116.856 73.6523 116.009 73.6105 115.246 73.2979C114.484 72.9853 113.851 72.4208 113.455 71.6986Z" stroke="#263238" stroke-miterlimit="10"/>
<path d="M224.081 285.254C224.081 285.254 224.793 285.076 226.176 284.803" stroke="#263238" stroke-linecap="round" stroke-linejoin="round"/>
<path d="M230.22 283.986C253.699 279.639 336.718 268.84 342.113 332.232C347.352 393.927 223.096 426.44 119.72 404.695C24.8724 384.741 -49.1784 281.766 96.0316 209.963C241.242 138.159 377.86 190.386 443.687 131.016C505.165 75.5531 456.783 43.4276 436.143 34.6499" stroke="#263238" stroke-linecap="round" stroke-linejoin="round" stroke-dasharray="4 4"/>
<path d="M434.205 33.8643C433.503 33.592 432.843 33.3511 432.246 33.1416" stroke="#263238" stroke-linecap="round" stroke-linejoin="round"/>
<path d="M406.18 202.955H96.084V369.239H406.18V202.955Z" fill="#FFC727" stroke="#263238" stroke-linecap="round" stroke-linejoin="round"/>
<path d="M251.132 293.665L96.084 202.955V369.239H406.18V202.955L251.132 293.665Z" fill="#FFC727" stroke="#263238" stroke-linecap="round" stroke-linejoin="round"/>
<path d="M96.084 202.955L242.677 105.688C245.184 104.029 248.125 103.144 251.132 103.144C254.139 103.144 257.079 104.029 259.587 105.688L406.18 202.955H96.084Z" fill="#FFC727" stroke="#263238" stroke-linecap="round" stroke-linejoin="round"/>
<path d="M96.084 369.239L243.065 281.546C245.519 280.086 248.323 279.315 251.179 279.315C254.035 279.315 256.838 280.086 259.293 281.546L406.232 369.239H96.084Z" fill="#FFC727" stroke="#263238" stroke-linecap="round" stroke-linejoin="round"/>
<path d="M177.867 148.718L109.211 194.251L124.047 314.3L397.882 280.467L386.713 190.05L301.389 133.456L177.867 148.718Z" fill="#263238"/>
<path d="M382.459 116.513L108.619 150.323L127.955 306.86L401.794 273.05L382.459 116.513Z" fill="white" stroke="#263238" stroke-linecap="round" stroke-linejoin="round"/>
<path d="M320.196 260.869C320.196 260.869 320.468 259.057 320.468 258.942C320.468 257.58 319.735 254.951 318.289 254.469C318.048 254.394 317.795 254.37 317.545 254.4C317.295 254.43 317.054 254.512 316.838 254.642C316.622 254.771 316.436 254.945 316.293 255.152C316.149 255.359 316.051 255.594 316.005 255.841C315.951 256.385 316.016 256.934 316.197 257.45C316.378 257.966 316.67 258.436 317.052 258.827C317.995 259.657 319.054 260.345 320.196 260.869Z" fill="#B2B2B2"/>
<path d="M341.673 237.521C341.673 238.118 341.673 238.757 341.673 239.459C341.673 240.758 341.757 242.224 341.914 243.806C342.062 245.52 342.314 247.223 342.669 248.907C343.046 250.797 343.597 252.648 344.314 254.438C344.318 254.458 344.318 254.48 344.314 254.5C343.926 254.019 342.784 252.73 342.69 252.646C341.296 251.389 337.86 249.776 336.047 250.824C335.748 251.006 335.491 251.249 335.292 251.537C335.094 251.825 334.958 252.152 334.895 252.496C334.832 252.84 334.842 253.194 334.925 253.534C335.008 253.874 335.162 254.193 335.377 254.469C335.89 255.025 336.519 255.461 337.22 255.747C337.921 256.033 338.676 256.162 339.431 256.124C341.154 255.91 342.833 255.429 344.408 254.699C345.182 256.5 346.071 258.25 347.069 259.937C347.656 260.921 348.263 261.895 348.892 262.859C348.536 262.461 348.222 262.105 348.169 262.063C346.776 260.806 343.35 259.193 341.527 260.24C341.23 260.424 340.975 260.668 340.778 260.957C340.581 261.246 340.448 261.572 340.385 261.916C340.323 262.26 340.334 262.613 340.417 262.952C340.5 263.291 340.653 263.609 340.867 263.886C341.381 264.438 342.009 264.873 342.707 265.16C343.405 265.448 344.156 265.581 344.911 265.551C346.589 265.347 348.225 264.884 349.762 264.179C350.003 264.545 350.244 264.923 350.495 265.289C351.668 267.059 352.852 268.819 353.963 270.579C354.351 271.197 354.717 271.815 355.084 272.443C354.77 272.087 354.497 271.794 354.455 271.752C353.062 270.495 349.636 268.882 347.813 269.929C347.516 270.113 347.261 270.357 347.064 270.646C346.868 270.935 346.734 271.261 346.672 271.605C346.609 271.949 346.62 272.302 346.703 272.641C346.786 272.98 346.939 273.298 347.153 273.575C347.667 274.127 348.295 274.562 348.993 274.849C349.691 275.137 350.443 275.27 351.197 275.24C352.828 275.05 354.419 274.605 355.912 273.92C356.268 274.58 356.624 275.23 356.959 275.868C357.169 276.319 357.399 276.738 357.577 277.188L357.892 277.953L358.992 277.817C358.835 277.482 358.688 277.136 358.531 276.769C358.374 276.403 358.091 275.879 357.871 275.418C357.336 274.371 356.75 273.323 356.132 272.328C357.718 271.787 359.213 271.006 360.563 270.013C361.134 269.517 361.59 268.904 361.901 268.215C362.213 267.526 362.371 266.778 362.365 266.022C362.331 265.676 362.225 265.34 362.053 265.037C361.88 264.734 361.646 264.471 361.366 264.265C361.085 264.058 360.764 263.913 360.424 263.839C360.083 263.764 359.731 263.762 359.39 263.833C357.347 264.315 355.953 267.834 355.796 269.709C355.796 269.825 355.796 271.176 355.87 271.92C355.492 271.312 355.126 270.694 354.717 270.087C353.565 268.337 352.339 266.598 351.124 264.849L350.013 263.247C350.285 263.152 353.491 261.979 354.612 260.869C355.184 260.375 355.641 259.764 355.954 259.077C356.267 258.39 356.428 257.643 356.425 256.889C356.392 256.541 356.287 256.204 356.115 255.9C355.944 255.596 355.71 255.331 355.429 255.124C355.148 254.916 354.827 254.77 354.486 254.695C354.145 254.62 353.791 254.618 353.449 254.689C351.354 255.171 350.003 258.701 349.856 260.565C349.856 260.712 349.908 262.66 349.95 263.152C349.143 261.979 348.347 260.796 347.603 259.601C346.604 257.991 345.708 256.319 344.921 254.595C345.047 254.595 348.4 253.338 349.552 252.206C350.123 251.711 350.579 251.097 350.89 250.408C351.201 249.719 351.36 248.971 351.354 248.216C351.32 247.869 351.214 247.533 351.041 247.23C350.869 246.928 350.635 246.664 350.355 246.458C350.074 246.251 349.753 246.106 349.413 246.032C349.072 245.958 348.72 245.956 348.379 246.026C346.336 246.508 344.942 250.028 344.785 251.903C344.785 252.049 344.848 254.144 344.89 254.521L344.743 254.228C344.001 252.475 343.419 250.66 343.004 248.802C342.753 247.755 342.574 246.791 342.428 245.827C344.107 245.451 345.718 244.819 347.205 243.952C347.826 243.523 348.347 242.965 348.732 242.316C349.118 241.667 349.358 240.943 349.437 240.192C349.443 239.843 349.375 239.497 349.238 239.176C349.101 238.855 348.898 238.566 348.642 238.329C348.386 238.092 348.083 237.911 347.752 237.799C347.421 237.687 347.071 237.646 346.723 237.678C344.628 237.94 342.868 241.292 342.533 243.135C342.533 243.23 342.428 244.267 342.375 245.031C342.313 244.591 342.239 244.141 342.197 243.722C341.998 242.14 341.925 240.684 341.862 239.396C341.862 238.663 341.862 237.992 341.862 237.374C343.166 236.284 344.296 235.002 345.215 233.572C345.567 232.905 345.772 232.169 345.813 231.415C345.855 230.661 345.733 229.907 345.456 229.204C345.298 228.893 345.077 228.618 344.807 228.397C344.536 228.176 344.223 228.015 343.886 227.923C343.549 227.831 343.197 227.811 342.852 227.864C342.507 227.917 342.177 228.042 341.883 228.23C340.154 229.414 340.123 233.206 340.657 235.007C340.647 235.196 341.642 237.542 341.673 237.521Z" fill="#B2B2B2"/>
<path d="M360.479 277.618L366.954 276.822C366.762 276.49 366.548 276.172 366.315 275.868C366.295 275.684 366.26 275.502 366.21 275.324C366.125 274.985 365.969 274.668 365.753 274.394C365.536 274.119 365.265 273.894 364.955 273.732C364.646 273.569 364.305 273.474 363.956 273.453C363.608 273.431 363.258 273.483 362.931 273.606C361.642 274.13 360.836 275.921 360.479 277.618Z" fill="#B2B2B2"/>
<path d="M336.906 245.649C338.488 246.121 342.145 245.587 342.145 245.576C342.145 245.566 341.097 243.282 340.971 243.146C339.924 241.564 337.074 239.103 335.041 239.637C334.706 239.735 334.395 239.903 334.129 240.13C333.863 240.356 333.647 240.636 333.496 240.951C333.345 241.266 333.261 241.609 333.251 241.958C333.242 242.308 333.305 242.655 333.438 242.978C333.79 243.647 334.281 244.232 334.88 244.693C335.478 245.154 336.17 245.481 336.906 245.649Z" fill="#B2B2B2"/>
<path d="M153.382 302.924C153.164 303.007 152.962 303.128 152.785 303.28L155.457 302.945C154.786 302.713 154.058 302.706 153.382 302.924Z" fill="#B2B2B2"/>
<path d="M352.192 278.131C351.843 278.259 351.532 278.476 351.291 278.76L354.801 278.32C353.983 277.941 353.056 277.874 352.192 278.131Z" fill="#B2B2B2"/>
<path d="M365.299 271.616C366.763 272.362 368.337 272.871 369.961 273.124C369.898 273.868 369.835 274.601 369.741 275.313C369.678 275.711 369.626 276.109 369.563 276.497L370.611 276.371C370.611 276.067 370.673 275.753 370.715 275.449C370.841 274.287 370.925 273.103 370.967 271.909C372.59 272.334 374.268 272.507 375.943 272.422C376.693 272.325 377.412 272.067 378.052 271.666C378.693 271.264 379.238 270.729 379.652 270.097C379.815 269.789 379.912 269.45 379.936 269.102C379.96 268.753 379.911 268.404 379.791 268.077C379.672 267.749 379.485 267.45 379.243 267.199C379 266.948 378.708 266.75 378.384 266.619C376.404 265.897 373.303 268.065 372.098 269.542C372.025 269.636 371.313 270.788 370.935 271.427C370.935 270.715 370.988 269.992 370.988 269.269C370.988 267.175 370.925 265.08 370.873 262.922C370.873 262.272 370.873 261.623 370.873 260.974C372.553 261.42 374.291 261.607 376.027 261.529C376.777 261.432 377.496 261.173 378.136 260.772C378.776 260.371 379.322 259.836 379.736 259.203C379.899 258.894 379.995 258.555 380.019 258.206C380.042 257.858 379.992 257.508 379.871 257.18C379.751 256.852 379.563 256.553 379.319 256.303C379.076 256.052 378.782 255.856 378.458 255.726C376.488 255.003 373.376 257.171 372.224 258.648C372.13 258.764 371.113 260.418 370.873 260.858C370.873 259.423 370.873 258.009 370.873 256.606C370.922 254.711 371.097 252.821 371.396 250.949C371.522 250.949 374.99 251.819 376.572 251.505C377.326 251.413 378.051 251.158 378.697 250.759C379.343 250.359 379.894 249.824 380.312 249.19C380.477 248.881 380.575 248.541 380.599 248.192C380.623 247.843 380.573 247.493 380.452 247.165C380.332 246.836 380.143 246.537 379.898 246.287C379.654 246.037 379.359 245.841 379.034 245.712C377.064 244.989 373.953 247.158 372.8 248.635C372.706 248.75 371.606 250.541 371.438 250.876C371.438 250.771 371.438 250.656 371.438 250.551C371.782 248.678 372.297 246.841 372.978 245.063C373.335 244.078 373.733 243.156 374.141 242.266C375.738 242.862 377.416 243.215 379.118 243.314C379.873 243.299 380.616 243.12 381.296 242.791C381.976 242.462 382.577 241.99 383.057 241.407C383.254 241.118 383.388 240.79 383.45 240.445C383.512 240.101 383.5 239.747 383.416 239.407C383.332 239.067 383.178 238.748 382.962 238.472C382.747 238.196 382.476 237.968 382.167 237.804C380.291 236.872 376.928 238.684 375.65 240.025C375.577 240.098 374.938 240.925 374.477 241.533C374.665 241.135 374.854 240.716 375.042 240.339C375.755 238.914 376.488 237.657 377.138 236.547C377.515 235.918 377.871 235.363 378.185 234.84C379.871 234.651 381.517 234.206 383.068 233.52C383.732 233.159 384.309 232.658 384.762 232.052C385.214 231.446 385.529 230.75 385.687 230.011C385.728 229.664 385.696 229.313 385.592 228.979C385.489 228.645 385.317 228.337 385.086 228.075C384.856 227.812 384.573 227.601 384.256 227.454C383.939 227.308 383.595 227.23 383.246 227.225C381.15 227.225 379.055 230.367 378.489 232.2C378.437 232.357 377.976 234.871 378.018 234.861C377.683 235.353 377.326 235.908 376.97 236.474C376.279 237.573 375.514 238.82 374.77 240.234C373.948 241.743 373.217 243.299 372.58 244.895C371.858 246.682 371.297 248.529 370.904 250.415C370.904 250.415 370.904 250.468 370.904 250.489C370.841 249.871 370.6 248.163 370.569 248.038C370.097 246.225 368.128 242.989 366.032 242.8C365.682 242.789 365.334 242.852 365.009 242.984C364.685 243.116 364.392 243.315 364.15 243.568C363.908 243.821 363.722 244.122 363.604 244.452C363.486 244.782 363.439 245.133 363.465 245.482C363.591 246.226 363.876 246.934 364.301 247.558C364.726 248.182 365.281 248.706 365.927 249.095C367.487 249.864 369.154 250.39 370.873 250.656C370.519 252.584 370.295 254.533 370.202 256.491C370.139 257.632 370.108 258.784 370.097 259.937C370.024 259.413 369.951 258.889 369.94 258.889C369.469 257.067 367.499 253.83 365.404 253.652C365.054 253.639 364.706 253.7 364.381 253.831C364.057 253.962 363.764 254.161 363.522 254.413C363.28 254.665 363.093 254.965 362.975 255.295C362.857 255.624 362.81 255.974 362.837 256.323C362.961 257.069 363.245 257.779 363.67 258.405C364.096 259.03 364.651 259.557 365.299 259.947C366.812 260.696 368.43 261.211 370.097 261.476C370.097 261.916 370.097 262.367 370.097 262.807C370.097 264.902 370.097 266.997 370.097 269.091C370.097 269.825 370.034 270.537 369.992 271.26C369.93 270.799 369.867 270.401 369.856 270.338C369.385 268.526 367.415 265.289 365.32 265.163C364.97 265.151 364.622 265.212 364.298 265.343C363.973 265.474 363.68 265.672 363.438 265.924C363.196 266.177 363.009 266.477 362.891 266.806C362.773 267.135 362.726 267.486 362.753 267.834C362.865 268.616 363.152 269.362 363.593 270.017C364.034 270.671 364.617 271.218 365.299 271.616Z" fill="#B2B2B2"/>
<path d="M374.026 241.858C374.026 241.858 374.393 239.344 374.403 239.176C374.403 237.301 373.356 233.656 371.386 232.986C371.055 232.887 370.707 232.859 370.364 232.903C370.021 232.947 369.691 233.061 369.396 233.24C369.1 233.418 368.844 233.656 368.646 233.939C368.447 234.222 368.31 234.543 368.243 234.882C368.159 235.641 368.242 236.409 368.486 237.133C368.73 237.857 369.13 238.518 369.657 239.071C370.705 240.307 374.026 241.858 374.026 241.858Z" fill="#B2B2B2"/>
<path d="M296.822 257.726V259.13C296.822 260.062 296.885 261.12 297 262.272C297.105 263.508 297.287 264.736 297.545 265.949C297.819 267.312 298.215 268.648 298.729 269.94C298.446 269.594 297.628 268.662 297.555 268.599C296.507 267.688 294.066 266.504 292.757 267.29C292.542 267.422 292.358 267.598 292.216 267.806C292.074 268.014 291.977 268.25 291.932 268.497C291.886 268.745 291.894 269 291.953 269.244C292.012 269.489 292.121 269.719 292.275 269.919C292.646 270.334 293.104 270.663 293.616 270.882C294.129 271.101 294.683 271.205 295.24 271.186C296.487 271.019 297.702 270.666 298.844 270.139C299.394 271.442 300.035 272.706 300.761 273.92C301.18 274.632 301.62 275.334 302.071 276.015L301.557 275.439C300.51 274.528 298.068 273.344 296.759 274.13C296.543 274.261 296.358 274.436 296.215 274.644C296.072 274.852 295.974 275.088 295.929 275.336C295.883 275.585 295.891 275.84 295.951 276.085C296.011 276.33 296.122 276.56 296.277 276.759C296.648 277.158 297.102 277.472 297.607 277.678C298.111 277.885 298.655 277.978 299.2 277.953C300.411 277.812 301.592 277.479 302.699 276.968C302.877 277.241 303.055 277.502 303.223 277.775C304.082 279.042 304.931 280.32 305.738 281.588C306.02 282.038 306.282 282.488 306.544 282.939L306.094 282.436C305.046 281.525 302.605 280.341 301.295 281.127C301.081 281.259 300.897 281.435 300.755 281.643C300.613 281.851 300.516 282.086 300.471 282.334C300.425 282.582 300.432 282.836 300.491 283.081C300.55 283.326 300.66 283.556 300.813 283.756C301.249 284.286 301.851 284.655 302.521 284.803L306.345 284.332L307.141 284.018C307.18 284.082 307.215 284.148 307.246 284.217L308.011 284.122C307.781 283.703 307.529 283.284 307.278 282.876C308.426 282.485 309.507 281.919 310.484 281.2C310.898 280.844 311.23 280.402 311.456 279.904C311.682 279.407 311.797 278.866 311.793 278.319C311.768 278.069 311.69 277.826 311.564 277.607C311.439 277.388 311.269 277.198 311.066 277.049C310.862 276.9 310.63 276.795 310.383 276.742C310.137 276.688 309.882 276.687 309.635 276.738C308.158 277.083 307.152 279.629 307.047 280.98C307.047 281.064 307.047 282.027 307.1 282.583C306.827 282.132 306.555 281.692 306.272 281.252C305.434 279.985 304.543 278.738 303.663 277.482C303.401 277.094 303.139 276.706 302.867 276.329C304.053 275.925 305.173 275.346 306.188 274.611C306.601 274.254 306.933 273.812 307.159 273.315C307.385 272.818 307.5 272.277 307.498 271.731C307.472 271.481 307.394 271.239 307.27 271.021C307.145 270.802 306.976 270.612 306.774 270.462C306.572 270.312 306.341 270.206 306.096 270.151C305.851 270.095 305.597 270.091 305.35 270.139C303.873 270.495 302.867 273.04 302.752 274.392C302.752 274.486 302.752 275.9 302.825 276.256C302.238 275.408 301.662 274.549 301.128 273.69C300.409 272.526 299.761 271.319 299.189 270.076C300.384 269.671 301.511 269.088 302.532 268.348C302.945 267.993 303.276 267.552 303.502 267.057C303.728 266.561 303.844 266.022 303.841 265.478C303.82 265.228 303.748 264.986 303.628 264.767C303.508 264.547 303.344 264.355 303.146 264.202C302.948 264.049 302.72 263.94 302.477 263.88C302.234 263.82 301.982 263.811 301.735 263.854C300.258 264.2 299.263 266.745 299.148 268.096C299.148 268.201 299.148 269.72 299.221 269.992L299.116 269.772C298.584 268.509 298.163 267.202 297.859 265.865C297.681 265.122 297.555 264.409 297.44 263.707C298.645 263.443 299.804 262.998 300.876 262.388C301.326 262.078 301.703 261.674 301.98 261.204C302.257 260.733 302.427 260.208 302.479 259.664C302.483 259.413 302.434 259.163 302.335 258.931C302.236 258.7 302.089 258.492 301.905 258.321C301.72 258.15 301.501 258.02 301.262 257.939C301.024 257.858 300.771 257.829 300.52 257.852C299.011 258.041 297.733 260.46 297.482 261.791C297.482 261.864 297.408 262.618 297.366 263.163C297.366 262.849 297.272 262.524 297.241 262.22C297.094 261.078 297.042 260.031 297 259.078C297 258.544 297 258.03 297 257.611C297.945 256.828 298.762 255.902 299.42 254.867C299.674 254.387 299.821 253.857 299.852 253.315C299.882 252.773 299.796 252.23 299.598 251.725C299.485 251.499 299.326 251.3 299.131 251.14C298.936 250.98 298.71 250.864 298.466 250.797C298.223 250.731 297.969 250.717 297.72 250.756C297.47 250.795 297.232 250.886 297.021 251.023C295.764 251.882 295.743 254.616 296.13 255.914C296.078 256.051 296.801 257.747 296.822 257.726Z" fill="#B2B2B2"/>
<path d="M161.544 302.191L167.704 301.437C167.551 301.186 167.383 300.945 167.201 300.714C167.182 300.533 167.147 300.355 167.097 300.18C167.014 299.848 166.862 299.538 166.65 299.27C166.439 299.001 166.173 298.781 165.87 298.622C165.567 298.464 165.234 298.372 164.893 298.351C164.552 298.331 164.21 298.383 163.891 298.504C162.686 298.986 161.921 300.609 161.544 302.191Z" fill="#B2B2B2"/>
<path d="M143.094 263.194C143.094 263.781 143.094 264.409 143.094 265.101C143.094 266.368 143.167 267.793 143.324 269.343C143.474 271.022 143.722 272.69 144.068 274.339C144.441 276.185 144.978 277.994 145.671 279.744V279.807C145.283 279.346 144.173 278.079 144.079 277.995C142.706 276.759 139.354 275.177 137.572 276.214C137.282 276.394 137.033 276.633 136.841 276.914C136.649 277.196 136.518 277.515 136.457 277.851C136.396 278.186 136.406 278.531 136.486 278.863C136.566 279.194 136.715 279.505 136.923 279.776C137.427 280.315 138.042 280.74 138.726 281.02C139.409 281.3 140.145 281.429 140.883 281.399C142.571 281.179 144.216 280.71 145.765 280.006C146.516 281.77 147.384 283.481 148.364 285.128C148.929 286.092 149.527 287.045 150.145 287.998L149.443 287.213C148.081 285.987 144.718 284.405 142.937 285.432C142.646 285.612 142.396 285.852 142.204 286.135C142.012 286.418 141.882 286.739 141.821 287.076C141.761 287.412 141.772 287.758 141.854 288.09C141.936 288.422 142.087 288.734 142.298 289.004C142.801 289.545 143.415 289.97 144.099 290.251C144.783 290.531 145.519 290.66 146.258 290.627C147.895 290.424 149.492 289.972 150.993 289.287L151.706 290.334C152.858 292.062 154.021 293.78 155.111 295.498C155.488 296.105 155.844 296.723 156.159 297.331L155.551 296.65C154.189 295.425 150.826 293.843 149.045 294.88C148.755 295.06 148.506 295.298 148.313 295.58C148.121 295.862 147.99 296.181 147.929 296.516C147.868 296.852 147.878 297.197 147.958 297.528C148.038 297.86 148.187 298.171 148.395 298.441C148.9 298.981 149.514 299.405 150.198 299.685C150.881 299.966 151.617 300.095 152.355 300.065C153.953 299.879 155.512 299.444 156.976 298.776C157.321 299.415 157.667 300.054 158.023 300.683C158.222 301.123 158.442 301.531 158.621 301.982L158.841 302.516L159.888 302.38C159.773 302.107 159.658 301.846 159.532 301.573C159.354 301.133 159.103 300.704 158.882 300.253C158.369 299.206 157.835 298.232 157.185 297.226C158.738 296.698 160.201 295.935 161.523 294.964C162.082 294.481 162.531 293.883 162.836 293.21C163.142 292.537 163.298 291.806 163.293 291.067C163.259 290.727 163.154 290.397 162.985 290.1C162.815 289.802 162.586 289.544 162.31 289.341C162.035 289.137 161.72 288.994 161.386 288.92C161.052 288.845 160.706 288.842 160.37 288.909C158.369 289.381 157.007 292.837 156.86 294.66C156.86 294.775 156.86 296.105 156.934 296.828C156.567 296.231 156.2 295.634 155.802 295.037C154.671 293.33 153.476 291.622 152.282 289.925L151.234 288.354C152.846 287.813 154.365 287.029 155.739 286.029C156.298 285.546 156.745 284.947 157.048 284.274C157.352 283.602 157.506 282.871 157.5 282.132C157.469 281.792 157.366 281.462 157.198 281.164C157.03 280.866 156.801 280.608 156.526 280.405C156.251 280.202 155.935 280.059 155.601 279.987C155.267 279.915 154.921 279.914 154.587 279.985C152.586 280.456 151.224 283.903 151.077 285.736C151.077 285.872 151.13 287.778 151.171 288.26C150.375 287.108 149.6 285.956 148.877 284.782C147.895 283.211 147.017 281.577 146.247 279.891C147.868 279.344 149.397 278.556 150.784 277.555C151.342 277.072 151.789 276.473 152.093 275.8C152.397 275.128 152.551 274.397 152.544 273.659C152.513 273.318 152.41 272.988 152.242 272.689C152.074 272.391 151.846 272.132 151.571 271.928C151.296 271.724 150.981 271.581 150.647 271.507C150.312 271.434 149.967 271.431 149.631 271.501C147.63 271.972 146.268 275.429 146.122 277.251C146.122 277.398 146.122 279.451 146.216 279.818L146.069 279.524C145.351 277.81 144.783 276.037 144.372 274.224C144.131 273.177 143.963 272.255 143.806 271.312C145.44 270.954 147.009 270.346 148.458 269.511C149.067 269.093 149.578 268.548 149.954 267.913C150.33 267.278 150.564 266.568 150.637 265.834C150.643 265.492 150.577 265.152 150.442 264.838C150.308 264.523 150.109 264.24 149.858 264.008C149.606 263.775 149.309 263.599 148.985 263.489C148.66 263.38 148.317 263.34 147.976 263.372C145.933 263.624 144.204 266.902 143.859 268.704C143.859 268.798 143.754 269.825 143.712 270.558C143.649 270.139 143.576 269.689 143.534 269.28C143.345 267.74 143.261 266.316 143.209 265.09C143.209 264.378 143.209 263.729 143.209 263.121C144.48 262.053 145.582 260.8 146.478 259.403C146.827 258.751 147.03 258.031 147.074 257.293C147.117 256.556 147 255.817 146.729 255.129C146.576 254.823 146.36 254.553 146.096 254.335C145.831 254.118 145.524 253.959 145.194 253.868C144.864 253.777 144.519 253.757 144.181 253.808C143.842 253.859 143.518 253.981 143.23 254.165C141.533 255.328 141.512 259.036 142.025 260.796C142.088 260.921 143.062 263.215 143.094 263.194Z" fill="#B2B2B2"/>
<path d="M138.432 271.186C139.972 271.647 143.544 271.124 143.555 271.124C143.565 271.124 142.507 268.872 142.402 268.735C141.418 267.196 138.599 264.786 136.609 265.31C136.28 265.406 135.976 265.57 135.716 265.792C135.455 266.013 135.244 266.287 135.096 266.595C134.947 266.903 134.866 267.239 134.856 267.58C134.845 267.922 134.907 268.262 135.037 268.578C135.38 269.233 135.861 269.805 136.447 270.255C137.034 270.706 137.711 271.023 138.432 271.186Z" fill="#B2B2B2"/>
<path d="M166.206 296.556C167.642 297.276 169.178 297.774 170.764 298.033C170.701 298.756 170.638 299.478 170.554 300.128C170.554 300.442 170.46 300.746 170.418 301.06L171.466 300.934C171.466 300.704 171.466 300.484 171.539 300.264C171.665 299.122 171.738 297.97 171.79 296.797C173.375 297.213 175.015 297.382 176.652 297.3C177.385 297.208 178.09 296.957 178.716 296.564C179.342 296.171 179.875 295.647 180.277 295.027C180.437 294.725 180.532 294.393 180.555 294.053C180.579 293.712 180.531 293.371 180.415 293.05C180.298 292.729 180.116 292.436 179.879 292.19C179.642 291.945 179.357 291.751 179.04 291.622C177.113 290.91 174.064 293.036 172.932 294.482C172.859 294.576 172.168 295.697 171.801 296.325C171.801 295.624 171.801 294.922 171.801 294.231C171.801 292.136 171.801 290.104 171.686 288.019V286.123C173.329 286.554 175.027 286.738 176.725 286.668C177.458 286.571 178.162 286.317 178.788 285.923C179.413 285.529 179.946 285.004 180.35 284.384C180.51 284.082 180.604 283.75 180.627 283.409C180.65 283.068 180.601 282.726 180.484 282.405C180.366 282.084 180.183 281.792 179.945 281.546C179.707 281.301 179.42 281.108 179.103 280.98C177.175 280.278 174.137 282.405 173.006 283.84C172.911 283.955 171.958 285.579 171.686 286.008C171.686 284.604 171.686 283.211 171.686 281.818C171.737 279.966 171.909 278.118 172.199 276.288C172.325 276.288 175.719 277.136 177.27 276.832C178.003 276.74 178.707 276.488 179.333 276.096C179.959 275.703 180.492 275.179 180.895 274.559C181.054 274.257 181.149 273.925 181.172 273.584C181.195 273.243 181.146 272.901 181.029 272.58C180.911 272.259 180.728 271.966 180.49 271.721C180.252 271.475 179.965 271.283 179.648 271.155C177.72 270.443 174.682 272.569 173.55 274.015C173.456 274.13 172.388 275.879 172.209 276.214C172.209 276.11 172.209 275.994 172.209 275.89C172.553 274.061 173.057 272.266 173.718 270.527C174.064 269.563 174.462 268.652 174.86 267.782C176.418 268.376 178.057 268.73 179.721 268.83C180.461 268.818 181.189 268.644 181.855 268.322C182.521 268 183.108 267.537 183.577 266.965C183.77 266.683 183.902 266.364 183.964 266.027C184.026 265.691 184.016 265.346 183.935 265.013C183.853 264.681 183.703 264.37 183.493 264.1C183.284 263.83 183.019 263.607 182.718 263.446C180.874 262.524 177.616 264.305 176.337 265.614C176.264 265.687 175.635 266.494 175.185 267.08C175.373 266.693 175.552 266.284 175.74 265.918C176.432 264.525 177.155 263.299 177.836 262.21C178.213 261.602 178.558 261.047 178.883 260.544C180.536 260.358 182.151 259.92 183.671 259.246C184.319 258.893 184.883 258.404 185.325 257.813C185.766 257.222 186.074 256.542 186.228 255.82C186.271 255.481 186.241 255.136 186.141 254.808C186.04 254.481 185.872 254.179 185.646 253.921C185.42 253.664 185.143 253.457 184.831 253.315C184.519 253.173 184.181 253.099 183.839 253.097C181.743 253.097 179.711 256.239 179.177 257.957C179.177 258.114 178.684 260.565 178.716 260.565L177.668 262.147C176.997 263.194 176.254 264.441 175.573 265.824C174.786 267.304 174.087 268.829 173.477 270.39C172.769 272.139 172.218 273.948 171.832 275.795C171.837 275.816 171.837 275.837 171.832 275.858C171.769 275.261 171.539 273.596 171.507 273.459C171.046 271.689 169.119 268.515 167.065 268.4C166.724 268.389 166.385 268.45 166.069 268.578C165.753 268.707 165.468 268.9 165.232 269.146C164.996 269.392 164.814 269.685 164.698 270.006C164.583 270.327 164.536 270.668 164.561 271.008C164.68 271.739 164.957 272.434 165.373 273.046C165.789 273.658 166.335 274.171 166.971 274.549C168.239 275.429 171.539 276.026 171.801 276.078C171.456 277.965 171.236 279.871 171.141 281.787C171.088 282.908 171.057 284.028 171.046 285.16C170.973 284.646 170.91 284.185 170.889 284.112C170.439 282.331 168.501 279.158 166.447 279.042C166.106 279.031 165.767 279.092 165.451 279.22C165.135 279.349 164.85 279.542 164.614 279.788C164.377 280.034 164.196 280.327 164.08 280.648C163.965 280.969 163.918 281.311 163.943 281.651C164.061 282.381 164.338 283.077 164.755 283.688C165.171 284.3 165.717 284.813 166.353 285.191C167.83 285.931 169.414 286.436 171.046 286.689C171.046 287.129 171.046 287.558 171.046 287.988C171.046 290.083 171.046 292.178 171.046 294.178C171.046 294.901 170.984 295.603 170.942 296.273C170.879 295.823 170.826 295.435 170.806 295.372C170.355 293.592 168.427 290.428 166.374 290.303C166.032 290.293 165.692 290.355 165.376 290.485C165.059 290.614 164.773 290.809 164.537 291.055C164.3 291.302 164.117 291.595 164.001 291.917C163.884 292.238 163.836 292.58 163.859 292.921C163.957 293.663 164.219 294.373 164.625 295.002C165.03 295.63 165.571 296.161 166.206 296.556Z" fill="#B2B2B2"/>
<path d="M293.354 263.592C294.604 263.781 295.876 263.781 297.126 263.592C297.126 263.592 296.35 261.927 296.287 261.833C295.554 260.691 293.469 258.91 292.002 259.298C291.76 259.368 291.536 259.489 291.344 259.652C291.152 259.815 290.996 260.017 290.887 260.245C290.778 260.472 290.719 260.72 290.712 260.972C290.706 261.224 290.753 261.474 290.85 261.707C291.105 262.184 291.462 262.6 291.894 262.925C292.327 263.251 292.825 263.479 293.354 263.592Z" fill="#B2B2B2"/>
<path d="M174.765 267.457C174.765 267.457 175.132 264.996 175.132 264.839C175.132 263.006 174.137 259.434 172.188 258.774C171.859 258.67 171.512 258.637 171.169 258.677C170.827 258.716 170.496 258.828 170.199 259.004C169.903 259.179 169.647 259.416 169.448 259.698C169.249 259.98 169.112 260.3 169.045 260.638C168.969 261.374 169.053 262.117 169.291 262.817C169.53 263.517 169.918 264.157 170.428 264.692C171.497 265.949 174.765 267.457 174.765 267.457Z" fill="#B2B2B2"/>
<path d="M313.878 282.342C314.509 282.703 315.19 282.968 315.9 283.127L317.995 282.876C317.995 282.761 317.995 282.656 317.995 282.551C318.184 282.551 318.54 282.677 318.959 282.75L323.391 282.206C323.767 281.971 324.071 281.637 324.271 281.242C324.389 281.02 324.458 280.775 324.475 280.524C324.492 280.273 324.456 280.021 324.369 279.784C324.282 279.548 324.146 279.333 323.97 279.153C323.795 278.973 323.583 278.831 323.349 278.739C321.924 278.215 319.682 279.786 318.844 280.834C318.791 280.907 318.278 281.734 318.006 282.195C318.006 281.682 318.006 281.148 318.006 280.634C318.006 279.116 317.953 277.586 317.922 276.057C317.922 275.586 317.922 275.114 317.922 274.654C319.135 274.969 320.389 275.104 321.641 275.052C322.182 274.981 322.701 274.794 323.163 274.502C323.624 274.211 324.016 273.823 324.313 273.365C324.433 273.144 324.504 272.899 324.523 272.648C324.541 272.397 324.506 272.145 324.42 271.909C324.334 271.672 324.199 271.456 324.023 271.276C323.847 271.095 323.635 270.954 323.401 270.862C321.976 270.338 319.734 271.909 318.896 272.957C318.833 273.04 318.089 274.245 317.922 274.549C317.922 273.501 317.922 272.454 317.922 271.48C317.966 270.112 318.092 268.748 318.299 267.395C319.518 267.718 320.779 267.855 322.039 267.803C322.582 267.737 323.103 267.552 323.566 267.263C324.03 266.973 324.424 266.585 324.721 266.127C324.839 265.904 324.909 265.659 324.926 265.407C324.943 265.155 324.907 264.902 324.82 264.665C324.733 264.428 324.597 264.212 324.422 264.031C324.246 263.85 324.034 263.707 323.799 263.613C322.375 263.09 320.132 264.661 319.294 265.708C319.231 265.792 318.435 267.08 318.309 267.321V267.08C318.563 265.731 318.935 264.406 319.42 263.121C319.682 262.409 319.965 261.749 320.269 261.099C321.414 261.549 322.623 261.814 323.852 261.885C324.398 261.875 324.935 261.748 325.427 261.511C325.919 261.274 326.354 260.934 326.701 260.513C326.843 260.304 326.939 260.068 326.983 259.82C327.028 259.572 327.02 259.317 326.96 259.072C326.899 258.827 326.788 258.598 326.634 258.398C326.479 258.199 326.285 258.034 326.062 257.915C324.7 257.234 322.301 258.554 321.348 259.518L320.499 260.565C320.646 260.272 320.782 259.968 320.918 259.696C321.432 258.648 321.966 257.769 322.437 256.962C322.72 256.512 322.972 256.103 323.223 255.726C324.439 255.593 325.626 255.271 326.743 254.773C327.224 254.516 327.644 254.157 327.971 253.72C328.299 253.284 328.527 252.782 328.64 252.248C328.669 251.998 328.646 251.745 328.571 251.504C328.496 251.264 328.372 251.042 328.206 250.852C328.04 250.663 327.837 250.51 327.608 250.404C327.38 250.298 327.131 250.241 326.88 250.237C325.36 250.237 323.831 252.531 323.433 253.83C323.433 253.935 323.066 255.747 323.097 255.747L322.322 256.91C321.83 257.706 321.274 258.606 320.74 259.623C320.145 260.714 319.617 261.84 319.158 262.995C318.636 264.284 318.23 265.616 317.943 266.976V267.028C317.943 266.588 317.723 265.352 317.702 265.258C317.356 263.949 315.931 261.613 314.423 261.518C314.171 261.51 313.92 261.555 313.686 261.65C313.453 261.746 313.242 261.888 313.067 262.07C312.892 262.252 312.758 262.468 312.672 262.705C312.586 262.942 312.55 263.194 312.568 263.446C312.657 263.985 312.862 264.499 313.17 264.952C313.477 265.404 313.88 265.784 314.349 266.064C315.473 266.616 316.674 266.994 317.911 267.185C317.66 268.57 317.499 269.969 317.429 271.375C317.429 272.192 317.367 273.03 317.356 273.857C317.304 273.48 317.251 273.135 317.241 273.093C316.906 271.773 315.481 269.437 313.962 269.353C313.707 269.357 313.456 269.414 313.226 269.522C312.995 269.63 312.791 269.786 312.625 269.979C312.459 270.173 312.337 270.399 312.266 270.643C312.195 270.887 312.176 271.144 312.212 271.396C312.3 271.933 312.504 272.445 312.81 272.895C313.116 273.345 313.516 273.724 313.983 274.004C315.075 274.548 316.245 274.922 317.45 275.114V276.078C317.45 277.607 317.45 279.137 317.45 280.634C317.45 281.169 317.45 281.682 317.388 282.206C317.335 281.87 317.293 281.588 317.283 281.546C316.947 280.236 315.523 277.89 314.003 277.806C313.752 277.798 313.502 277.843 313.269 277.938C313.036 278.034 312.825 278.177 312.651 278.358C312.477 278.54 312.344 278.757 312.259 278.994C312.174 279.231 312.14 279.483 312.16 279.734C312.242 280.266 312.438 280.775 312.734 281.225C313.031 281.675 313.421 282.056 313.878 282.342Z" fill="#B2B2B2"/>
<path d="M261.514 250.489C268.576 233.834 249.152 236.233 260.058 250.677C249.152 236.233 241.524 254.249 259.482 252.028C241.524 254.249 253.311 269.835 260.362 253.202C253.311 269.867 272.735 267.468 261.829 253.023C272.735 267.468 280.362 249.452 262.405 251.672C280.362 249.452 268.576 233.834 261.514 250.489Z" fill="#FFC727"/>
<path d="M265.663 251.285C265.548 250.351 265.159 249.473 264.545 248.76C263.93 248.048 263.118 247.534 262.212 247.282C261.305 247.031 260.344 247.055 259.451 247.35C258.557 247.644 257.772 248.198 257.193 248.939C256.614 249.681 256.268 250.577 256.198 251.515C256.129 252.453 256.34 253.391 256.803 254.209C257.267 255.028 257.963 255.69 258.804 256.113C259.644 256.536 260.591 256.7 261.525 256.585C262.774 256.425 263.91 255.779 264.685 254.786C265.46 253.794 265.811 252.535 265.663 251.285Z" fill="white"/>
<path d="M344.743 141.763C350.684 127.737 334.34 129.759 343.517 141.91C334.34 129.759 327.907 144.926 343.025 143.051C327.907 144.926 337.787 158.061 343.779 144.046C337.839 158.061 354.183 156.05 345.005 143.889C354.183 156.05 360.605 140.883 345.487 142.747C360.605 140.883 350.684 127.737 344.743 141.763Z" fill="#FFC727"/>
<path d="M348.232 142.412C348.135 141.627 347.807 140.888 347.289 140.289C346.772 139.69 346.088 139.257 345.325 139.047C344.562 138.836 343.754 138.856 343.002 139.105C342.251 139.354 341.59 139.82 341.103 140.444C340.617 141.068 340.326 141.823 340.268 142.612C340.211 143.402 340.389 144.19 340.779 144.879C341.17 145.567 341.756 146.124 342.464 146.479C343.171 146.834 343.968 146.972 344.754 146.874C345.807 146.744 346.764 146.2 347.417 145.363C348.069 144.527 348.362 143.465 348.232 142.412Z" fill="white"/>
<path d="M212.765 272.234C226.239 267.939 214.934 257.653 211.917 271.459C214.934 257.653 200.392 262.294 210.817 271.815C200.34 262.294 197.102 277.23 210.576 272.936C197.102 277.23 208.407 287.516 211.424 273.711C208.407 287.516 222.949 282.876 212.472 273.365C222.98 282.897 226.239 267.96 212.765 272.234Z" fill="#FFC727"/>
<path d="M214.421 275.104C214.917 274.56 215.242 273.882 215.352 273.153C215.463 272.425 215.354 271.681 215.041 271.015C214.728 270.348 214.224 269.79 213.593 269.41C212.962 269.03 212.232 268.846 211.497 268.881C210.761 268.917 210.052 269.17 209.46 269.608C208.869 270.047 208.42 270.651 208.173 271.344C207.925 272.038 207.888 272.789 208.068 273.503C208.248 274.217 208.635 274.862 209.182 275.355C209.911 276.014 210.872 276.357 211.853 276.31C212.835 276.263 213.758 275.829 214.421 275.104Z" fill="white"/>
<path d="M238.874 165.488C252.347 161.193 241.043 150.896 238.025 164.712C241.043 150.896 226.501 155.537 236.925 165.058C226.448 155.537 223.211 170.473 236.684 166.179C223.211 170.473 234.515 180.77 237.533 166.954C234.515 180.77 249.057 176.119 238.58 166.608C249.11 176.119 252.368 161.203 238.874 165.488Z" fill="#FFC727"/>
<path d="M240.55 168.337C241.048 167.794 241.374 167.116 241.486 166.388C241.598 165.66 241.491 164.916 241.179 164.248C240.867 163.581 240.364 163.022 239.734 162.641C239.104 162.26 238.375 162.074 237.639 162.108C236.903 162.142 236.194 162.394 235.601 162.831C235.008 163.268 234.559 163.871 234.31 164.564C234.061 165.257 234.023 166.009 234.201 166.723C234.379 167.438 234.766 168.083 235.312 168.578C236.04 169.237 236.999 169.582 237.981 169.537C238.962 169.492 239.886 169.061 240.55 168.337Z" fill="white"/>
<path d="M141.879 228.146C151.224 233.384 151.109 221.862 141.879 227.277C151.109 221.82 141.009 216.132 141.114 226.848C141.009 216.132 131.024 222.029 140.359 227.298C131.024 222.061 131.14 233.583 140.359 228.167C131.129 233.625 141.229 239.312 141.124 228.597C141.239 239.312 151.224 233.415 141.879 228.146Z" fill="#FFC727"/>
<path d="M141.145 230.545C141.702 230.541 142.246 230.372 142.707 230.059C143.168 229.746 143.526 229.303 143.736 228.786C143.945 228.27 143.997 227.703 143.884 227.157C143.771 226.612 143.499 226.112 143.102 225.72C142.705 225.329 142.201 225.065 141.653 224.96C141.106 224.855 140.54 224.915 140.026 225.132C139.513 225.35 139.075 225.714 138.769 226.18C138.463 226.645 138.302 227.191 138.306 227.748C138.317 228.494 138.621 229.205 139.152 229.729C139.683 230.252 140.399 230.545 141.145 230.545Z" fill="white"/>
<path d="M306.157 145.879C312.631 149.524 312.547 141.49 306.157 145.272C312.547 141.49 305.549 137.541 305.622 144.978C305.549 137.541 298.634 141.637 305.109 145.282C298.634 141.637 298.718 149.661 305.109 145.89C298.718 149.661 305.717 153.609 305.643 146.183C305.717 153.609 312.631 149.524 306.157 145.879Z" fill="#FFC727"/>
<path d="M305.653 147.587C306.041 147.585 306.42 147.467 306.741 147.25C307.062 147.033 307.312 146.725 307.458 146.365C307.604 146.006 307.64 145.611 307.561 145.232C307.483 144.852 307.293 144.504 307.017 144.232C306.74 143.96 306.389 143.776 306.008 143.704C305.627 143.631 305.233 143.674 304.876 143.825C304.519 143.977 304.215 144.231 304.003 144.556C303.791 144.881 303.68 145.261 303.684 145.649C303.689 146.167 303.9 146.661 304.269 147.024C304.638 147.387 305.136 147.589 305.653 147.587Z" fill="white"/>
<path d="M365.068 208.224C371.543 211.869 371.459 203.846 365.068 207.616C371.47 203.846 364.471 199.897 364.544 207.323C364.471 199.897 357.556 203.982 364.02 207.627C357.556 203.982 357.63 212.016 364.02 208.234C357.619 212.016 364.618 215.954 364.544 208.528C364.597 215.954 371.543 211.869 365.068 208.224Z" fill="#FFC727"/>
<path d="M364.597 209.879C364.985 209.875 365.362 209.755 365.682 209.536C366.003 209.317 366.25 209.008 366.394 208.648C366.538 208.288 366.572 207.893 366.492 207.514C366.411 207.134 366.22 206.787 365.942 206.517C365.664 206.246 365.312 206.064 364.931 205.994C364.549 205.924 364.155 205.968 363.799 206.122C363.443 206.275 363.14 206.531 362.93 206.857C362.719 207.183 362.61 207.564 362.616 207.951C362.619 208.208 362.673 208.462 362.774 208.698C362.875 208.934 363.022 209.148 363.206 209.327C363.39 209.506 363.607 209.647 363.846 209.742C364.085 209.836 364.34 209.883 364.597 209.879Z" fill="white"/>
<path d="M201.953 157.286C208.428 160.942 208.344 152.908 201.953 156.689C208.344 152.908 201.345 148.959 201.419 156.385C201.345 148.959 194.431 153.044 200.905 156.7C194.431 153.044 194.514 161.078 200.905 157.297C194.514 161.078 201.513 165.027 201.429 157.6C201.513 165.027 208.428 160.942 201.953 157.286Z" fill="#FFC727"/>
<path d="M201.45 158.941C201.836 158.937 202.211 158.819 202.529 158.601C202.847 158.384 203.094 158.077 203.237 157.719C203.381 157.362 203.415 156.969 203.336 156.592C203.257 156.215 203.068 155.87 202.792 155.601C202.517 155.331 202.168 155.149 201.789 155.078C201.41 155.007 201.019 155.05 200.664 155.201C200.31 155.352 200.008 155.605 199.797 155.928C199.587 156.251 199.476 156.628 199.481 157.014C199.483 157.27 199.536 157.522 199.637 157.758C199.737 157.993 199.883 158.206 200.066 158.385C200.249 158.564 200.465 158.705 200.703 158.801C200.94 158.896 201.194 158.944 201.45 158.941Z" fill="white"/>
<path d="M162.853 190.532C172.199 195.77 172.084 184.248 162.853 189.652C172.094 184.206 161.984 178.507 162.099 189.233C161.984 178.507 151.999 184.405 161.345 189.673C151.999 184.436 152.115 195.958 161.345 190.543C152.104 196 162.214 201.698 162.099 190.972C162.214 201.656 172.199 195.77 162.853 190.532Z" fill="#FFC727"/>
<path d="M162.12 192.878C162.676 192.868 163.217 192.693 163.674 192.376C164.131 192.059 164.484 191.613 164.689 191.096C164.893 190.578 164.94 190.012 164.822 189.468C164.705 188.924 164.43 188.427 164.03 188.04C163.631 187.652 163.126 187.391 162.579 187.29C162.032 187.189 161.467 187.253 160.955 187.472C160.444 187.692 160.009 188.058 159.705 188.524C159.402 188.99 159.243 189.536 159.249 190.092C159.255 190.464 159.333 190.83 159.48 191.171C159.628 191.512 159.841 191.821 160.107 192.08C160.374 192.339 160.689 192.542 161.034 192.679C161.379 192.816 161.748 192.884 162.12 192.878Z" fill="white"/>
<path d="M134.995 164.095C142.895 168.546 142.801 158.753 134.995 163.361C142.801 158.753 134.262 153.934 134.346 162.995C134.262 153.934 125.817 158.92 133.717 163.372C125.817 158.92 125.922 168.724 133.717 164.115C125.922 168.724 134.45 173.543 134.367 164.472C134.45 173.532 142.895 168.536 134.995 164.095Z" fill="#FFC727"/>
<path d="M134.377 166.116C134.852 166.12 135.317 165.983 135.713 165.722C136.11 165.46 136.419 165.087 136.602 164.649C136.785 164.211 136.833 163.729 136.741 163.263C136.649 162.798 136.42 162.37 136.083 162.036C135.747 161.701 135.318 161.474 134.852 161.383C134.386 161.293 133.904 161.344 133.467 161.529C133.03 161.714 132.658 162.025 132.398 162.422C132.139 162.819 132.003 163.285 132.009 163.759C132.012 164.385 132.263 164.985 132.707 165.427C133.15 165.868 133.751 166.116 134.377 166.116Z" fill="white"/>
<path d="M373.523 173.459C382.868 178.696 382.753 167.174 373.523 172.589C382.753 167.132 372.654 161.434 372.758 172.16C372.654 161.434 362.669 167.331 372.004 172.6C362.669 167.363 362.784 178.885 372.004 173.469C362.774 178.926 372.874 184.625 372.769 173.899C372.884 184.625 382.868 178.727 373.523 173.459Z" fill="#FFC727"/>
<path d="M372.79 175.868C373.347 175.864 373.891 175.694 374.353 175.381C374.814 175.067 375.172 174.624 375.381 174.107C375.59 173.59 375.641 173.022 375.528 172.476C375.414 171.93 375.141 171.43 374.743 171.039C374.345 170.649 373.839 170.385 373.291 170.282C372.743 170.178 372.177 170.24 371.663 170.458C371.15 170.677 370.714 171.043 370.409 171.51C370.104 171.977 369.944 172.524 369.95 173.082C369.959 173.827 370.262 174.539 370.794 175.061C371.326 175.583 372.044 175.873 372.79 175.868Z" fill="white"/>
<path d="M189.632 230.116L186.353 203.563L180.936 204.223L180.685 202.128L194.012 200.483L194.274 202.578L189.035 203.227L192.325 229.78L189.632 230.116Z" fill="#263238"/>
<path d="M200.664 228.754L197.123 200.106L199.847 199.771L201.419 212.466L210.439 211.345L208.868 198.65L211.55 198.325L215.091 226.963L212.409 227.298L210.68 213.367L201.66 214.477L203.388 228.408L200.664 228.754Z" fill="#263238"/>
<path d="M218.559 226.533L221.063 197.142L223.892 196.796L233.51 224.69L230.859 225.015L228.491 217.515L221.671 218.363L221.168 226.219L218.559 226.533ZM221.828 216.363L227.915 215.619L222.928 200.546L221.828 216.363Z" fill="#263238"/>
<path d="M236.988 224.26L233.447 195.613L235.395 195.372L247.255 216.488L244.51 194.251L246.847 193.958L250.398 222.605L248.481 222.846L236.506 201.489L239.293 223.978L236.988 224.26Z" fill="#263238"/>
<path d="M255.343 221.956L251.802 193.308L254.526 192.973L256.402 208.109L262.174 192.03L264.752 191.706L260.362 204.746L269.571 220.196L266.91 220.521L258.843 206.977L256.873 211.963L258.067 221.61L255.343 221.956Z" fill="#263238"/>
<path d="M283.925 218.468L282.751 208.957L273.909 190.616L276.528 190.302L283.663 205.574L286.649 189.045L289.299 188.72L285.37 208.622L286.544 218.133L283.925 218.468Z" fill="#263238"/>
<path d="M302.72 216.499C301.172 216.776 299.576 216.579 298.142 215.933C296.968 215.312 296.035 214.317 295.491 213.105C294.85 211.677 294.44 210.157 294.276 208.601L292.809 196.723C292.582 195.184 292.625 193.617 292.935 192.093C293.199 190.818 293.877 189.666 294.862 188.814C296.075 187.889 297.531 187.336 299.053 187.222C300.583 186.947 302.16 187.125 303.59 187.736C304.752 188.313 305.686 189.265 306.24 190.438C306.9 191.846 307.318 193.354 307.477 194.9L308.954 206.82C309.168 208.362 309.136 209.928 308.86 211.46C308.633 212.762 307.977 213.95 306.995 214.833C305.774 215.813 304.282 216.394 302.72 216.499ZM302.448 214.341C303.482 214.289 304.47 213.895 305.255 213.22C305.867 212.603 306.254 211.799 306.356 210.937C306.502 209.87 306.502 208.788 306.356 207.721L304.732 194.722C304.623 193.645 304.369 192.588 303.977 191.58C303.672 190.779 303.098 190.109 302.353 189.684C301.422 189.248 300.376 189.12 299.367 189.317C298.349 189.368 297.371 189.734 296.57 190.365C295.925 190.982 295.527 191.812 295.449 192.701C295.312 193.743 295.312 194.8 295.449 195.843L297.052 208.831C297.161 209.909 297.418 210.966 297.817 211.974C298.124 212.793 298.7 213.484 299.451 213.932C300.379 214.39 301.431 214.534 302.448 214.341Z" fill="#263238"/>
<path d="M321.537 214.173C319.975 214.455 318.366 214.288 316.896 213.692C315.749 213.149 314.831 212.218 314.308 211.062C313.713 209.735 313.334 208.32 313.187 206.873L310.609 186.039L313.229 185.714L315.806 206.663C315.926 207.683 316.18 208.683 316.56 209.638C316.874 210.462 317.457 211.156 318.216 211.607C319.158 212.066 320.224 212.209 321.254 212.016C322.277 211.952 323.25 211.551 324.02 210.874C324.644 210.242 325.052 209.427 325.183 208.549C325.331 207.538 325.331 206.511 325.183 205.5L322.595 184.551L325.172 184.237L327.75 205.06C327.951 206.492 327.913 207.947 327.634 209.366C327.391 210.595 326.732 211.705 325.769 212.508C324.548 213.458 323.078 214.036 321.537 214.173Z" fill="#263238"/>
<path d="M419.726 19.6398L417.421 33.4138L356.561 10.4326L419.726 19.6398Z" fill="#263238" stroke="#263238" stroke-linecap="round" stroke-linejoin="round"/>
<path d="M419.726 5.34204L356.561 10.4327L419.726 19.6398V5.34204Z" fill="#FFC727" stroke="#263238" stroke-linecap="round" stroke-linejoin="round"/>
<path d="M356.561 10.4326L408.694 45.5433L417.421 33.4138L356.561 10.4326Z" fill="#263238" stroke="#263238" stroke-linecap="round" stroke-linejoin="round"/>
<path d="M356.561 10.4326L422.104 44.9044L419.977 25.3274L356.561 10.4326Z" fill="#FFC727" stroke="#263238" stroke-linecap="round" stroke-linejoin="round"/>
</svg>
