<svg width="60" height="60" viewBox="0 0 60 60" fill="none" xmlns="http://www.w3.org/2000/svg">
<path d="M12.1899 57.9375C9.85323 57.3094 8.29698 54.9059 8.67901 52.5141C8.938 50.8969 9.95987 49.5399 11.4528 48.8333L12.2462 48.4571L31.7954 48.4266C45.4185 48.4055 51.3212 48.4325 51.2673 48.5192C51.2263 48.586 51.0107 48.9165 50.7892 49.2528C50.345 49.9266 49.9771 50.8278 49.7896 51.6973L49.6677 52.2657L33.1255 52.2668C20.0251 52.2692 16.5212 52.2997 16.2892 52.4168C15.8462 52.6407 15.647 53.1364 15.8263 53.5676C15.9048 53.7586 16.0642 53.9661 16.1802 54.0282C16.3126 54.0985 22.5974 54.1407 33.0177 54.1407H49.6442L49.8505 55.0114C50.0415 55.8211 50.6708 57.2403 51.0224 57.6528C51.1067 57.7512 51.2134 57.8977 51.2591 57.9786C51.3247 58.0958 47.4587 58.1239 32.0872 58.1168C15.5239 58.111 12.7419 58.0852 12.1899 57.9375ZM19.022 46.1004C19.0607 45.8672 19.3267 45.1946 19.6138 44.6063C21.1138 41.5301 23.7786 39.3422 27.1595 38.4118C28.4743 38.0508 31.5259 38.0508 32.8407 38.4118C36.2134 39.3399 38.8899 41.5372 40.3864 44.6063C40.6735 45.1946 40.9396 45.8672 40.9782 46.1004L41.0462 46.5235H30.0001H18.954L19.022 46.1004ZM2.85831 44.768C2.49386 44.6204 2.10948 44.0778 2.10948 43.7098C2.10948 43.2047 2.66495 41.6274 3.18057 40.6641C4.81768 37.6125 7.67823 35.4961 11.1329 34.779C12.0306 34.5926 12.5415 34.5586 13.7696 34.6055C16.1204 34.6946 17.7763 35.2243 19.7462 36.5157C20.5665 37.0536 22.1485 38.4727 22.1485 38.6696C22.1485 38.7094 21.8884 38.9391 21.5708 39.1817C20.1833 40.2399 18.4431 42.4887 17.7493 44.1223L17.4259 44.8829L10.2657 44.8758C6.32706 44.8711 2.99425 44.8231 2.85831 44.768ZM42.2521 44.1258C41.5571 42.4899 39.8181 40.2411 38.4294 39.1817C38.1118 38.9391 37.8517 38.7094 37.8517 38.6696C37.8517 38.4727 39.4337 37.0536 40.254 36.5157C42.2239 35.2243 43.8798 34.6946 46.2306 34.6055C47.4622 34.5586 47.9696 34.5926 48.8814 34.7813C52.9864 35.6309 56.3263 38.5782 57.5907 42.4665C57.9786 43.6618 57.9728 43.9676 57.5485 44.4411L57.2064 44.8243L49.8915 44.8559L42.5767 44.8876L42.2521 44.1258ZM28.7415 36.7372C25.8294 36.1043 23.8161 33.225 24.2392 30.2965C24.6153 27.6856 26.5888 25.6899 29.1798 25.2961C31.6208 24.927 34.0923 26.2336 35.1962 28.4766C36.3118 30.7454 35.9064 33.3376 34.1603 35.0989C33.3282 35.9379 32.2993 36.5098 31.2036 36.7418C30.2403 36.9458 29.7001 36.9446 28.7415 36.7372ZM12.2661 33.2754C10.786 33.027 9.03409 31.7696 8.27472 30.4102C7.88214 29.7059 7.49893 28.2915 7.50128 27.5497C7.51065 24.7102 9.74659 22.1672 12.5837 21.7688C16.3618 21.2391 19.6888 24.5942 19.1181 28.3594C18.6189 31.6454 15.5732 33.8309 12.2661 33.2754ZM45.3083 33.2122C42.3868 32.5055 40.3993 29.5465 40.8927 26.6368C41.4247 23.4868 44.3649 21.3047 47.4388 21.7793C49.8599 22.1532 51.763 23.9004 52.3196 26.2606C52.5552 27.2614 52.5446 27.9129 52.2763 28.9559C51.9857 30.0844 51.5544 30.8379 50.7259 31.6723C49.3255 33.0809 47.2278 33.6774 45.3083 33.2122ZM28.4978 20.3895L27.0552 17.5782H24.3622C21.9517 17.5782 21.6247 17.5547 21.2357 17.3567C20.6989 17.0825 20.4517 16.8165 20.2196 16.2598C20.0661 15.8907 20.0392 14.9977 20.0403 10.1696C20.0403 6.70669 20.086 4.34536 20.1599 4.08403C20.3064 3.552 21.0388 2.87114 21.6423 2.70356C22.2599 2.53247 37.7403 2.53247 38.3579 2.70356C38.9614 2.87114 39.6939 3.552 39.8403 4.08403C39.9142 4.34536 39.9599 6.70669 39.9599 10.1696C39.961 14.9977 39.9341 15.8907 39.7806 16.2598C39.5485 16.8165 39.3013 17.0825 38.7646 17.3567C38.3755 17.5547 38.0485 17.5782 35.638 17.5782H32.945L31.5024 20.3895C30.7079 21.9352 30.0317 23.1997 30.0001 23.1997C29.9685 23.1997 29.2923 21.9352 28.4978 20.3895ZM36.0411 14.5958C36.3903 14.2465 36.4161 13.7286 36.1044 13.343L35.8806 13.0665H30.0001H24.1196L23.8958 13.343C23.5841 13.7286 23.6099 14.2465 23.9591 14.5958L24.2474 14.8829H30.0001H35.7528L36.0411 14.5958ZM36.0411 10.7286C36.4876 10.2809 36.3552 9.53208 35.7821 9.27075C35.3825 9.08911 24.6177 9.08911 24.2181 9.27075C23.645 9.53208 23.5126 10.2809 23.9591 10.7286L24.2474 11.0157H30.0001H35.7528L36.0411 10.7286ZM36.0857 6.84028C36.4044 6.43364 36.3927 6.0645 36.0458 5.66138L35.7622 5.33208H30.0001H24.238L23.9544 5.66138C23.6075 6.0645 23.5958 6.43364 23.9146 6.84028L24.1583 7.14849H30.0001H35.8419L36.0857 6.84028ZM15.722 18.9973L13.6888 16.875H8.73761C5.25479 16.875 3.6669 16.834 3.38682 16.7379C2.77745 16.527 2.36612 16.1754 2.10948 15.6434C1.88448 15.1805 1.87511 14.9215 1.87745 9.36685C1.88097 2.77036 1.86339 2.89927 2.82432 2.26411L3.32237 1.93364L11.3228 1.902L19.3232 1.87036L18.9212 2.46802C18.4653 3.14419 18.1642 4.04302 18.1642 4.72153V5.18208L17.9403 4.90552L17.7165 4.62896H11.836H5.95557L5.73175 4.90552C5.42003 5.29106 5.44581 5.80903 5.79503 6.15825L6.08331 6.44536H11.836H17.5888L17.8771 6.15825L18.1642 5.86997V7.44146V9.01294L17.8771 8.72466L17.5888 8.43755H11.836H6.08331L5.79503 8.72466C5.41534 9.10552 5.41534 9.64458 5.79503 10.0254L6.08331 10.3125H11.836H17.5899L17.8771 10.002L18.1642 9.69263V11.2864V12.8801L17.8771 12.5918L17.5888 12.3047H11.7915H5.99425L5.7505 12.6129C5.36026 13.1098 5.50675 13.8 6.05401 14.0497C6.24972 14.1387 8.06143 14.1797 11.8524 14.1797C16.8517 14.1797 17.3978 14.161 17.7071 13.9782C17.8935 13.868 18.0564 13.6969 18.0669 13.5973C18.0786 13.4989 18.122 14.1036 18.1653 14.9415C18.2075 15.7793 18.2837 16.5575 18.3329 16.67C18.4067 16.8352 18.3657 16.875 18.1208 16.875H17.8185L17.7857 18.9973L17.754 21.1184L15.722 18.9973ZM42.1911 19.0137L42.1876 16.875H41.8817C41.6345 16.875 41.5935 16.8364 41.6673 16.67C41.7165 16.5575 41.7927 15.7793 41.8349 14.9415C41.8782 14.1036 41.9216 13.4989 41.9333 13.5973C41.9439 13.6969 42.1067 13.868 42.2931 13.9782C42.6024 14.161 43.1485 14.1797 48.1478 14.1797C51.9388 14.1797 53.7505 14.1387 53.9462 14.0497C54.4935 13.8 54.6399 13.1098 54.2497 12.6129L54.006 12.3047H48.2087H42.4114L42.1232 12.5918L41.836 12.8801V11.2864V9.69263L42.1232 10.002L42.4103 10.3125H48.1642H53.9169L54.2052 10.0254C54.5849 9.64458 54.5849 9.10552 54.2052 8.72466L53.9169 8.43755H48.1642H42.4114L42.1232 8.72466L41.836 9.01294V7.44146V5.86997L42.1232 6.15825L42.4114 6.44536H48.1642H53.9169L54.2052 6.15825C54.5544 5.80903 54.5802 5.29106 54.2685 4.90552L54.0446 4.62896H48.1642H42.2837L42.0599 4.90552L41.836 5.18208V4.72153C41.836 4.04302 41.5349 3.14419 41.0802 2.47036L40.6806 1.87505H48.545C56.3204 1.87505 56.4165 1.87739 56.9239 2.12349C57.2333 2.27349 57.5626 2.5606 57.7524 2.8477L58.0665 3.32231V9.37505V15.4278L57.7548 15.8989C57.1431 16.8223 57.204 16.8129 51.4454 16.8434L46.3478 16.8704L44.2712 19.0114L42.1946 21.1524L42.1911 19.0137Z" fill="#FC4727"/>
</svg>
