<svg width="70" height="70" viewBox="0 0 70 70" fill="none" xmlns="http://www.w3.org/2000/svg">
<path d="M44.1518 57.2037C43.2794 56.5834 42.3232 56.1586 41.7606 55.4316C41.2015 54.7081 40.6549 54.5677 39.8412 54.5677C28.0879 54.5873 16.3346 54.5819 4.58134 54.5802C3.15336 54.5802 2.87382 54.262 3.04297 52.8276C4.33563 41.832 12.7789 32.3064 23.5636 29.674C23.7113 29.6384 23.8574 29.5833 24.1155 29.5033C20.7414 27.7578 18.3199 25.232 16.9578 21.7819C15.601 18.3442 15.5601 14.855 16.8599 11.3907C19.0766 5.49121 24.7405 1.78337 31.1077 2.01088C37.1526 2.22596 42.5387 6.47416 44.3299 12.3594C46.0997 18.1772 43.9097 25.8879 36.8517 29.4944C37.9663 29.8588 39.088 30.1894 40.1848 30.5929C43.2153 31.7074 45.9537 33.3303 48.3806 35.4544C48.8649 35.8774 49.2691 35.8845 49.7409 35.5557C50.3053 35.1629 50.8555 34.7487 51.4093 34.3434C52.9049 33.2485 54.6641 33.1614 56.092 34.3292C57.4435 35.4348 58.859 36.0089 60.636 36.0001C62.5607 35.9912 63.8284 37.1945 64.2949 39.0787C64.3323 39.2298 64.3822 39.3791 64.4 39.5319C64.5549 40.881 65.2351 41.8871 66.25 42.7865C68.2388 44.548 68.4917 45.986 67.2221 48.3198C66.5722 49.5125 66.3728 50.675 66.599 52.0117C67.0067 54.4113 66.1627 55.8226 63.9068 56.7949C63.7287 56.8713 63.5525 56.9584 63.337 57.058C64.2469 59.015 65.1425 60.94 66.0381 62.865C66.1307 63.0659 66.2375 63.2632 66.3123 63.4694C66.6541 64.4221 66.0096 65.3286 64.9965 65.2344C64.1365 65.1562 63.2854 64.9785 62.4361 64.8132C62.0337 64.735 61.7862 64.8149 61.5885 65.206C61.2787 65.8175 60.8924 66.3898 60.563 66.9942C60.2478 67.5718 59.8668 68.0429 59.1368 68.0002C58.4406 67.9593 58.1201 67.4741 57.8566 66.8982C57.0642 65.1651 56.2113 63.4605 55.4689 61.7079C55.1893 61.0484 54.7495 60.8174 54.1317 60.7143C53.2183 60.5614 52.5043 60.9294 52.1161 61.763C51.3006 63.5085 50.4798 65.2522 49.675 67.003C49.4151 67.5665 49.0572 67.9842 48.3948 68.0038C47.7627 68.0215 47.3799 67.6483 47.0897 67.1292C46.7443 66.5107 46.3401 65.9205 46.0338 65.2824C45.8042 64.8007 45.4997 64.7296 45.0278 64.8292C44.2907 64.9874 43.5464 65.1278 42.7986 65.2184C41.5113 65.3766 40.8187 64.4221 41.36 63.2419C42.2093 61.3897 43.0817 59.5482 43.9435 57.7014C44.0361 57.5024 44.1162 57.2979 44.1554 57.2055L44.1518 57.2037ZM18.0742 16.437C18.051 23.2306 23.5351 28.7443 30.367 28.7941C37.1597 28.8439 42.7559 23.3337 42.7915 16.5614C42.8271 9.73408 37.3039 4.15276 30.4916 4.12965C23.649 4.10655 18.0991 9.60966 18.0742 16.4388V16.437ZM26.416 42.0862C25.3744 42.8807 24.826 42.7634 24.2384 41.72C22.9991 39.5195 21.7634 37.319 20.5242 35.1184C20.2001 34.5425 19.8707 33.9702 19.5467 33.4014C11.9723 36.743 6.21943 44.5996 5.31492 52.4134H27.9757C27.1015 51.4482 26.3109 50.5613 25.5026 49.6885C25.1251 49.2797 25.0076 48.8513 25.1304 48.2932C25.5738 46.2651 25.9762 44.2263 26.416 42.088V42.0862ZM43.0087 52.9004C42.9874 53.8354 43.3257 54.3775 44.2854 54.7206C46.0855 55.3623 47.5152 56.3772 48.4678 58.096C49.2352 59.4807 49.7516 59.6478 51.2704 59.0968C52.9815 58.4764 54.6409 58.4426 56.3235 59.1216C56.4464 59.1714 56.5764 59.2034 56.7046 59.239C57.7141 59.5269 58.3889 59.3616 58.8715 58.464C59.8792 56.5887 61.3339 55.3054 63.3815 54.6957C63.4652 54.6708 63.5436 54.6246 63.6219 54.5837C64.2576 54.2602 64.5852 53.7447 64.5585 53.032C64.5442 52.6569 64.5068 52.2801 64.4427 51.9086C64.1917 50.4635 64.3234 49.0859 65.1122 47.8115C65.2404 47.6053 65.3383 47.3795 65.4487 47.1627C66.0719 45.9344 66.0274 45.3425 64.9609 44.484C63.4474 43.2647 62.5856 41.7431 62.2669 39.8377C62.0426 38.4992 61.5191 38.0655 60.1873 38.0886C58.2999 38.1224 56.685 37.5714 55.2392 36.3378C54.064 35.3335 53.5138 35.3388 52.312 36.3556C50.8822 37.566 49.2904 38.1686 47.4262 38.0744C47.2499 38.0655 47.0701 38.0833 46.8956 38.1064C46.1122 38.213 45.5086 38.6272 45.4018 39.4093C45.1026 41.6365 44.0984 43.4246 42.2929 44.7631C42.2751 44.7755 42.2609 44.7951 42.2467 44.8111C41.7267 45.371 41.5914 46.0073 41.9066 46.7094C42.0882 47.1129 42.2823 47.5129 42.5102 47.8915C43.2455 49.1144 43.3684 50.4279 43.144 51.8037C43.0799 52.1965 43.0479 52.5947 43.0123 52.8969L43.0087 52.9004ZM32.8882 52.4045H40.8899C41.119 50.8771 40.9237 49.5048 40.3041 48.2878C39.1272 45.9736 39.3497 44.5249 41.303 42.799C42.2965 41.9209 42.9696 40.9415 43.1547 39.619C43.3844 37.9873 44.1981 36.7697 45.9733 36.096C44.3655 35.1202 42.8805 34.2208 41.3689 33.3036C41.1694 33.6413 41.043 33.8457 40.9255 34.0555C39.5118 36.5653 38.1016 39.0769 36.6878 41.5867C36.0397 42.7403 35.6907 42.8487 34.5085 42.2373C34.5298 42.431 34.537 42.607 34.5708 42.7758C34.9394 44.5533 35.3008 46.3326 35.689 48.1065C35.8314 48.7624 35.7495 49.2992 35.251 49.8058C34.4586 50.611 33.725 51.4731 32.8864 52.401L32.8882 52.4045ZM30.3331 37.1963C29.9539 37.8113 29.4073 38.357 29.2595 38.9951C28.5669 41.992 27.9775 45.0119 27.3721 48.0283C27.3312 48.2363 27.3721 48.5403 27.5003 48.6896C28.444 49.7738 29.4215 50.8297 30.4257 51.937C31.3213 50.9505 32.1617 49.9836 33.052 49.0646C33.4473 48.6576 33.5684 48.2843 33.4419 47.7173C32.849 45.0386 32.2597 42.3564 31.7718 39.6564C31.5938 38.6716 31.1308 37.95 30.3314 37.1945L30.3331 37.1963ZM28.8909 35.737C27.2208 34.443 25.6308 33.2094 24.0336 31.9847C23.925 31.9012 23.7381 31.8283 23.6205 31.8603C22.9315 32.0576 22.2531 32.2869 21.5124 32.5251C22.8781 34.9531 24.1921 37.2905 25.5453 39.6972C26.6831 38.3499 27.7638 37.0701 28.8909 35.7352V35.737ZM35.3062 39.7008C36.6736 37.2692 37.9912 34.9229 39.3426 32.5215C38.6233 32.2975 37.9769 32.0825 37.3182 31.8994C37.1739 31.8603 36.9567 31.8887 36.841 31.9758C35.2207 33.2094 33.6129 34.459 31.9605 35.737C33.0662 37.047 34.1488 38.3303 35.3062 39.7008ZM57.6856 61.4893C58.2376 62.6677 58.7379 63.736 59.2934 64.9198C59.6211 64.3581 59.8846 63.9049 60.1499 63.4498C60.7072 62.4953 60.9422 62.3887 62.0426 62.5878C62.5465 62.6784 63.0504 62.7637 63.6913 62.8757C62.94 61.2689 62.2634 59.8255 61.5369 58.2738C60.595 59.8593 59.7047 61.3186 57.6838 61.4893H57.6856ZM48.2791 64.9198C48.8417 63.7147 49.3456 62.6375 49.8798 61.4928C47.8731 61.3364 46.9793 59.8469 46.0196 58.2862C45.2896 59.8575 44.6183 61.3026 43.8901 62.8739C44.597 62.7513 45.1382 62.6517 45.6813 62.5646C46.6357 62.4136 46.876 62.5309 47.3621 63.3592C47.6417 63.8338 47.9212 64.3101 48.2791 64.9198ZM30.4293 34.2297C31.7041 33.2414 32.9256 32.2958 34.1773 31.3253C32.8811 30.8116 27.7051 30.8293 26.7009 31.3448C27.9401 32.3029 29.1633 33.2503 30.4293 34.2297Z" fill="white" stroke="white"/>
<path d="M61.7579 47.5056C61.7579 51.8889 58.1843 55.4758 53.8042 55.4847C49.3992 55.4954 45.7883 51.8782 45.8097 47.4753C45.8293 43.0885 49.4152 39.5264 53.8007 39.5317C58.1826 39.5389 61.7561 43.1187 61.7579 47.5038V47.5056ZM47.9463 47.5411C47.9677 50.7655 50.6029 53.3748 53.8185 53.3553C57.0395 53.3357 59.6408 50.7015 59.623 47.4753C59.6052 44.2492 56.9789 41.647 53.7526 41.663C50.5334 41.679 47.9249 44.3203 47.9463 47.5393V47.5411Z" fill="white"/>
</svg>
