<svg width="60" height="60" viewBox="0 0 60 60" fill="none" xmlns="http://www.w3.org/2000/svg">
<g clip-path="url(#clip0_481_33)">
<path d="M14.6974 7.6767C15.753 8.43704 16.4464 9.39795 16.7578 10.6641C16.8102 11.2592 16.8026 11.847 16.7871 12.4438C16.7847 12.6017 16.7826 12.7595 16.7807 12.9174C16.7752 13.2992 16.7675 13.6808 16.7578 14.0625C16.8836 14.0605 16.8836 14.0605 17.0119 14.0586C17.8033 14.0468 18.5946 14.0379 19.386 14.0321C19.7929 14.0291 20.1997 14.0249 20.6065 14.0183C21.0746 14.0107 21.5425 14.0079 22.0106 14.0053C22.1563 14.0023 22.3019 13.9992 22.452 13.9961C22.588 13.9961 22.7241 13.996 22.8642 13.996C23.0434 13.994 23.0434 13.994 23.2262 13.992C23.6903 14.0916 23.8591 14.2709 24.1406 14.6484C24.215 15.0397 24.215 15.0397 24.2164 15.4909C24.2175 15.5735 24.2185 15.6561 24.2195 15.7412C24.2221 16.013 24.2204 16.2846 24.2184 16.5564C24.2188 16.746 24.2194 16.9355 24.2201 17.1251C24.221 17.5219 24.2197 17.9186 24.217 18.3154C24.2137 18.8234 24.2156 19.3312 24.2191 19.8392C24.2212 20.2305 24.2205 20.6217 24.219 21.013C24.2186 21.2003 24.2191 21.3875 24.2205 21.5748C24.222 21.8368 24.2197 22.0986 24.2164 22.3606C24.216 22.5095 24.2155 22.6584 24.215 22.8118C24.1205 23.3089 23.9508 23.483 23.5547 23.7891C23.2 23.8457 22.9101 23.8683 22.5563 23.8637C22.4605 23.8649 22.3647 23.8661 22.266 23.8674C21.9607 23.8708 21.6555 23.8704 21.3501 23.8696C21.046 23.8707 20.742 23.8726 20.4379 23.8757C20.2492 23.8774 20.0604 23.8779 19.8717 23.8769C18.9741 23.8814 18.1693 24.0137 17.4609 24.6094C16.9826 25.2136 16.9112 25.7254 16.94 26.4912C17.0334 27.1082 17.2875 27.5416 17.7749 27.9304C18.5103 28.3896 19.2888 28.3748 20.1237 28.3759C20.3217 28.378 20.5197 28.3803 20.7177 28.3827C21.0273 28.3861 21.3369 28.3887 21.6465 28.3887C21.9471 28.3891 22.2475 28.3932 22.5481 28.3978C22.6402 28.397 22.7324 28.3962 22.8274 28.3953C23.2694 28.4051 23.5169 28.455 23.907 28.6779C24.2807 29.2931 24.2125 29.9012 24.1978 30.6065C24.1966 30.8316 24.1966 30.8316 24.1953 31.0612C24.1931 31.4587 24.1873 31.8561 24.1808 32.2535C24.1748 32.6596 24.1721 33.0658 24.1692 33.4719C24.1633 34.2678 24.1518 35.0634 24.1406 35.8594C25.8035 35.8594 27.4664 35.8594 29.1797 35.8594C29.1613 34.7989 29.1613 34.7989 29.1374 33.7386C29.1248 32.2859 29.4554 31.1787 30.4687 30.1172C31.55 29.0849 32.6778 28.7548 34.1443 28.773C35.5303 28.8278 36.5439 29.3611 37.4968 30.3593C38.4916 31.54 38.623 32.7374 38.584 34.2407C38.5816 34.3986 38.5795 34.5564 38.5776 34.7143C38.5721 35.0961 38.5644 35.4777 38.5547 35.8594C38.6385 35.8581 38.7224 35.8568 38.8088 35.8554C39.6001 35.8437 40.3915 35.8348 41.1829 35.829C41.5898 35.826 41.9966 35.8218 42.4034 35.8152C42.8715 35.8076 43.3394 35.8047 43.8075 35.8022C43.9532 35.7991 44.0988 35.7961 44.2489 35.793C44.3849 35.7929 44.5209 35.7929 44.6611 35.7929C44.7805 35.7916 44.9 35.7903 45.0231 35.7889C45.4866 35.8883 45.6435 36.0769 45.9375 36.4453C45.9953 36.7816 46.0169 37.0482 46.0119 37.3838C46.0133 37.5246 46.0133 37.5246 46.0147 37.6683C46.017 37.9826 46.0151 38.2967 46.0133 38.611C46.0141 38.8364 46.0151 39.0618 46.0164 39.2873C46.0191 39.8994 46.0181 40.5114 46.0162 41.1235C46.0147 41.7638 46.0161 42.4042 46.017 43.0445C46.0181 44.1199 46.0167 45.1953 46.0139 46.2706C46.0107 47.5142 46.0117 48.7577 46.0149 50.0012C46.0176 51.0686 46.018 52.136 46.0164 53.2034C46.0155 53.8411 46.0154 54.4787 46.0174 55.1163C46.019 55.7158 46.0179 56.3151 46.0145 56.9146C46.0137 57.1347 46.0139 57.3548 46.0152 57.5749C46.0168 57.8752 46.0148 58.1753 46.0119 58.4756C46.0132 58.5628 46.0145 58.6501 46.0159 58.74C46.0077 59.1728 45.9592 59.3866 45.688 59.7292C45.2821 60.0559 45.0971 60.0734 44.582 60.0737C44.4678 60.075 44.4678 60.075 44.3514 60.0763C44.0961 60.0785 43.8409 60.0764 43.5856 60.0744C43.4008 60.0751 43.2161 60.076 43.0313 60.0772C42.5234 60.0796 42.0155 60.0784 41.5075 60.0766C40.9598 60.0753 40.4122 60.0773 39.8645 60.0789C38.7914 60.0815 37.7184 60.081 36.6454 60.0793C35.7735 60.0779 34.9016 60.0778 34.0297 60.0784C33.9057 60.0785 33.7817 60.0786 33.654 60.0787C33.4021 60.0789 33.1502 60.0791 32.8983 60.0793C30.5353 60.0809 28.1724 60.079 25.8094 60.0758C23.7809 60.0732 21.7524 60.0737 19.7239 60.0764C17.3695 60.0795 15.0151 60.0808 12.6607 60.079C12.4097 60.0788 12.1587 60.0786 11.9078 60.0784C11.7843 60.0783 11.6608 60.0782 11.5336 60.0781C10.6625 60.0776 9.79145 60.0785 8.92038 60.0799C7.85913 60.0815 6.79792 60.0811 5.73668 60.0779C5.19498 60.0764 4.65334 60.0758 4.11164 60.0777C3.61604 60.0795 3.12052 60.0785 2.62492 60.0754C2.44537 60.0747 2.2658 60.0751 2.08625 60.0765C1.84257 60.0783 1.59917 60.0765 1.35551 60.0737C1.22006 60.0736 1.08461 60.0735 0.945061 60.0734C0.46256 59.9748 0.291237 59.8069 -1.33729e-05 59.4141C-0.0734601 59.0549 -0.0734599 59.0549 -0.0737482 58.6445C-0.0745998 58.5684 -0.0754519 58.4923 -0.0763294 58.4139C-0.0784706 58.1586 -0.0764331 57.9034 -0.0744178 57.6481C-0.0750929 57.4633 -0.0760234 57.2786 -0.0771877 57.0939C-0.0796378 56.5859 -0.0784232 56.078 -0.0766101 55.57C-0.0752866 55.0223 -0.0773293 54.4747 -0.0789418 53.927C-0.0815502 52.854 -0.0809833 51.7809 -0.0792861 50.7079C-0.0779639 49.836 -0.0777832 48.9641 -0.0784215 48.0922C-0.0785113 47.9682 -0.0786008 47.8442 -0.0786933 47.7165C-0.0788806 47.4646 -0.0790702 47.2127 -0.0792628 46.9609C-0.0809345 44.5979 -0.0790115 42.2349 -0.0758645 39.8719C-0.0732465 37.8434 -0.0737011 35.8149 -0.0764027 33.7864C-0.0795368 31.432 -0.0807742 29.0776 -0.078974 26.7232C-0.0787874 26.4722 -0.0786032 26.2213 -0.0784215 25.9703C-0.0783311 25.8468 -0.0782401 25.7233 -0.078147 25.5961C-0.0776406 24.725 -0.0784957 23.854 -0.0798735 22.9829C-0.0815151 21.9216 -0.0810758 20.8604 -0.0779512 19.7992C-0.076409 19.2575 -0.0758121 18.7158 -0.0777456 18.1742C-0.0794878 17.6786 -0.0785391 17.183 -0.0754156 16.6874C-0.0747595 16.5079 -0.0750974 16.3283 -0.0765144 16.1488C-0.0782905 15.9051 -0.0764757 15.6617 -0.0737482 15.418C-0.0736531 15.2826 -0.0735583 15.1471 -0.0734603 15.0076C0.0228195 14.5368 0.216977 14.3602 0.585924 14.0625C0.914421 13.992 0.914421 13.992 1.27637 13.996C1.41241 13.996 1.54844 13.9961 1.6886 13.9961C1.90707 14.0007 1.90707 14.0007 2.12996 14.0053C2.28 14.0061 2.43003 14.0069 2.58461 14.0078C2.98211 14.01 3.37948 14.0158 3.77693 14.0223C4.18305 14.0283 4.58918 14.0309 4.99533 14.0339C5.79121 14.0403 6.58699 14.0501 7.3828 14.0625C7.38034 13.9663 7.37789 13.8701 7.37536 13.771C7.36728 13.4078 7.36145 13.0446 7.35705 12.6813C7.35358 12.4493 7.34762 12.2174 7.3416 11.9854C7.32671 10.5147 7.64431 9.39669 8.67186 8.32031C10.2867 6.77872 12.7857 6.48459 14.6974 7.6767ZM10.2466 10.3011C9.74158 11.0485 9.71019 11.7856 9.69359 12.6723C9.69143 12.7615 9.68928 12.8507 9.68705 12.9426C9.67789 13.3217 9.66988 13.7009 9.66183 14.08C9.65577 14.3579 9.64906 14.6357 9.64232 14.9135C9.64073 14.9992 9.63914 15.0849 9.6375 15.1732C9.62861 15.5354 9.60756 15.8257 9.49217 16.1719C7.23042 16.9258 4.72748 16.3651 2.34374 16.4062C2.34374 22.8258 2.34374 29.2453 2.34374 35.8594C8.76327 35.8594 15.1828 35.8594 21.7969 35.8594C21.7969 34.1965 21.7969 32.5336 21.7969 30.8203C20.6208 30.8004 20.6208 30.8004 19.4447 30.7854C17.9803 30.7502 16.7737 30.4726 15.7031 29.4141C14.6211 28.1426 14.4096 26.951 14.507 25.3246C14.6196 24.1801 15.2344 23.233 16.0968 22.4991C17.3372 21.5784 18.4809 21.5055 19.9878 21.4819C20.5848 21.4698 21.1818 21.4578 21.7969 21.4453C21.7969 19.7824 21.7969 18.1195 21.7969 16.4062C21.067 16.3956 21.067 16.3956 20.3224 16.3847C19.9346 16.3788 19.5467 16.3727 19.1589 16.3665C18.7494 16.36 18.3399 16.3538 17.9304 16.348C17.4607 16.3413 16.9909 16.3337 16.5211 16.3261C16.3743 16.3242 16.2274 16.3222 16.0761 16.3202C15.9401 16.3179 15.804 16.3155 15.6638 16.3131C15.4839 16.3104 15.4839 16.3104 15.3003 16.3076C15 16.2891 15 16.2891 14.6484 16.1719C14.508 15.7506 14.5087 15.3606 14.5024 14.9217C14.4985 14.7402 14.4946 14.5587 14.4907 14.3772C14.4852 14.0923 14.48 13.8074 14.4754 13.5225C14.4707 13.2467 14.4646 12.9709 14.4585 12.6952C14.4575 12.6114 14.4565 12.5276 14.4555 12.4413C14.4344 11.5657 14.2918 10.766 13.7109 10.0781C13.2092 9.61886 12.7494 9.44981 12.0703 9.41894C11.2775 9.45694 10.7524 9.68523 10.2466 10.3011ZM32.0434 32.0979C31.5385 32.8454 31.5071 33.5825 31.4905 34.4691C31.4883 34.5584 31.4862 34.6476 31.4839 34.7395C31.4748 35.1186 31.4668 35.4978 31.4587 35.8769C31.4526 36.1547 31.4459 36.4325 31.4392 36.7104C31.4376 36.7961 31.436 36.8817 31.4344 36.97C31.4255 37.3322 31.4044 37.6226 31.2891 37.9688C30.923 38.0908 30.658 38.1042 30.2736 38.11C30.0696 38.1135 30.0696 38.1135 29.8614 38.1171C29.6411 38.12 29.6411 38.12 29.4163 38.123C29.1908 38.1267 29.1908 38.1267 28.9607 38.1304C28.5613 38.1369 28.1619 38.1427 27.7626 38.1483C27.3549 38.1542 26.9472 38.1607 26.5395 38.1672C25.7399 38.1798 24.9403 38.1915 24.1406 38.2031C24.1406 39.866 24.1406 41.5289 24.1406 43.2422C25.3166 43.2621 25.3166 43.2621 26.4927 43.2771C27.9572 43.3123 29.1637 43.5899 30.2344 44.6484C31.3164 45.9199 31.5279 47.1115 31.4305 48.7379C31.3178 49.8824 30.7031 50.8295 29.8407 51.5634C28.6003 52.4841 27.4565 52.557 25.9497 52.5806C25.3527 52.5927 24.7557 52.6047 24.1406 52.6172C24.1406 54.2801 24.1406 55.943 24.1406 57.6562C30.5601 57.6562 36.9797 57.6562 43.5937 57.6562C43.5937 51.2367 43.5937 44.8172 43.5937 38.2031C41.3508 38.1645 39.1078 38.1258 36.7969 38.0859C36.6228 38.0279 36.6228 38.0279 36.4453 37.9688C36.3049 37.5474 36.3056 37.1575 36.2993 36.7186C36.2954 36.5371 36.2915 36.3556 36.2876 36.1741C36.2821 35.8892 36.2769 35.6043 36.2722 35.3194C36.2675 35.0436 36.2615 34.7678 36.2553 34.492C36.2543 34.4083 36.2534 34.3245 36.2523 34.2382C36.2312 33.3626 36.0886 32.5628 35.5078 31.875C35.0061 31.4157 34.5463 31.2467 33.8672 31.2158C33.0744 31.2538 32.5493 31.4821 32.0434 32.0979ZM2.34374 38.2031C2.34374 44.6227 2.34374 51.0422 2.34374 57.6562C8.76327 57.6562 15.1828 57.6562 21.7969 57.6562C21.8355 55.4133 21.8742 53.1703 21.914 50.8594C21.9527 50.7434 21.9914 50.6273 22.0312 50.5078C22.4751 50.3599 22.8955 50.3679 23.3583 50.3618C23.5558 50.3579 23.7533 50.354 23.9509 50.3501C24.2612 50.3446 24.5716 50.3394 24.8819 50.3347C25.1822 50.3301 25.4824 50.324 25.7826 50.3178C25.8741 50.3169 25.9655 50.3159 26.0598 50.3149C26.9563 50.295 27.7702 50.1668 28.4765 49.5703C28.9358 49.0686 29.1049 48.6088 29.1357 47.9297C29.1032 47.2514 28.9497 46.7816 28.4765 46.2891C27.6558 45.615 26.8311 45.5706 25.8055 45.553C25.7085 45.5508 25.6115 45.5487 25.5115 45.5464C25.0988 45.5373 24.686 45.5293 24.2733 45.5212C23.971 45.5152 23.6688 45.5085 23.3665 45.5017C23.2731 45.5001 23.1798 45.4985 23.0835 45.4969C22.7047 45.4883 22.393 45.4722 22.0312 45.3516C21.2773 43.0898 21.838 40.5869 21.7969 38.2031C15.3773 38.2031 8.9578 38.2031 2.34374 38.2031Z" fill="#FC4727"/>
<path d="M37.3838 -0.0743431C37.5246 -0.0757142 37.5246 -0.0757142 37.6683 -0.077113C37.9825 -0.0794484 38.2967 -0.0775996 38.6109 -0.0757558C38.8364 -0.0765498 39.0618 -0.0775931 39.2872 -0.0788671C39.8993 -0.0815396 40.5114 -0.0805021 41.1234 -0.078645C41.7638 -0.0771623 42.4041 -0.0785371 43.0445 -0.0794572C44.1199 -0.0805234 45.1952 -0.0791178 46.2706 -0.076328C47.5141 -0.0731391 48.7576 -0.074172 50.0012 -0.0773981C51.0686 -0.0800565 52.136 -0.0804326 53.2034 -0.0788989C53.841 -0.0779851 54.4786 -0.0778646 55.1163 -0.0797992C55.7157 -0.0814909 56.3151 -0.0803194 56.9146 -0.0769315C57.1347 -0.0761562 57.3547 -0.0763801 57.5748 -0.0776713C57.8751 -0.0792708 58.1752 -0.0772669 58.4755 -0.0743431C58.6064 -0.0763037 58.6064 -0.0763037 58.74 -0.0783039C59.1728 -0.0701195 59.402 -0.00821603 59.761 0.239024C60.0602 0.673448 60.082 1.01474 60.0744 1.5245C60.0753 1.61838 60.0762 1.71226 60.0771 1.80899C60.0795 2.12327 60.0776 2.43739 60.0758 2.75168C60.0766 2.97711 60.0776 3.20253 60.0789 3.42796C60.0816 4.04005 60.0805 4.65208 60.0787 5.26417C60.0772 5.90452 60.0786 6.54486 60.0795 7.18521C60.0805 8.26059 60.0791 9.33595 60.0763 10.4113C60.0732 11.6549 60.0742 12.8984 60.0774 14.1419C60.0801 15.2093 60.0805 16.2767 60.0789 17.3441C60.078 17.9817 60.0779 18.6193 60.0798 19.257C60.0815 19.8564 60.0803 20.4558 60.077 21.0553C60.0762 21.2754 60.0764 21.4955 60.0777 21.7156C60.0793 22.0159 60.0773 22.316 60.0744 22.6162C60.0757 22.7035 60.077 22.7908 60.0783 22.8807C60.0697 23.3372 60.0127 23.5386 59.7268 23.9017C59.3207 24.212 59.0795 24.2149 58.5715 24.2165C58.4889 24.2175 58.4063 24.2186 58.3213 24.2196C58.0494 24.2222 57.7779 24.2205 57.5061 24.2185C57.3165 24.2189 57.1269 24.2195 56.9374 24.2202C56.5406 24.2211 56.1438 24.2198 55.747 24.2171C55.2391 24.2137 54.7313 24.2157 54.2233 24.2192C53.832 24.2213 53.4407 24.2206 53.0494 24.2191C52.8622 24.2187 52.6749 24.2192 52.4877 24.2205C52.2256 24.222 51.9639 24.2198 51.7018 24.2165C51.5529 24.216 51.404 24.2156 51.2506 24.2151C50.7535 24.1206 50.5795 23.9509 50.2734 23.5547C50.2167 23.2 50.1942 22.9102 50.1988 22.5564C50.1976 22.4606 50.1963 22.3648 50.1951 22.2661C50.1916 21.9607 50.192 21.6555 50.1928 21.3502C50.1918 21.0461 50.1899 20.742 50.1868 20.438C50.1851 20.2493 50.1846 20.0605 50.1856 19.8718C50.1811 18.9741 50.0488 18.1694 49.4531 17.461C48.8489 16.9827 48.337 16.9113 47.5712 16.9401C46.9542 17.0335 46.5208 17.2876 46.132 17.775C45.6728 18.5104 45.6877 19.2889 45.6866 20.1238C45.6845 20.3218 45.6822 20.5198 45.6797 20.7178C45.6763 21.0274 45.6738 21.3369 45.6737 21.6466C45.6733 21.9472 45.6693 22.2476 45.6646 22.5481C45.6655 22.6403 45.6663 22.7325 45.6671 22.8274C45.6652 22.9143 45.6633 23.0011 45.6613 23.0906C45.6607 23.2041 45.6607 23.2041 45.66 23.32C45.5365 23.7111 45.3179 23.8901 45 24.1407C44.6087 24.2151 44.6087 24.2151 44.1574 24.2165C44.0749 24.2175 43.9923 24.2186 43.9072 24.2196C43.6354 24.2222 43.3638 24.2205 43.092 24.2185C42.9024 24.2189 42.7129 24.2195 42.5233 24.2202C42.1265 24.2211 41.7298 24.2198 41.333 24.2171C40.825 24.2137 40.3172 24.2157 39.8092 24.2192C39.4179 24.2213 39.0267 24.2206 38.6354 24.2191C38.4481 24.2187 38.2609 24.2192 38.0736 24.2205C37.8116 24.222 37.5498 24.2198 37.2878 24.2165C37.1389 24.216 36.99 24.2156 36.8366 24.2151C36.3337 24.1195 36.161 23.9637 35.8593 23.5547C35.7889 23.2263 35.7889 23.2263 35.7928 22.8643C35.7929 22.7283 35.7929 22.5922 35.7929 22.4521C35.796 22.3064 35.799 22.1608 35.8021 22.0107C35.8029 21.8607 35.8038 21.7106 35.8046 21.5561C35.8069 21.1586 35.8126 20.7612 35.8191 20.3637C35.8251 19.9576 35.8278 19.5515 35.8307 19.1453C35.8372 18.3495 35.847 17.5537 35.8593 16.7579C35.7631 16.7603 35.6669 16.7628 35.5678 16.7653C35.2046 16.7734 34.8414 16.7792 34.4782 16.7836C34.2462 16.7871 34.0142 16.7931 33.7822 16.7991C32.3115 16.814 31.1935 16.4964 30.1171 15.4688C29.0849 14.3875 28.7548 13.2598 28.7729 11.7933C28.8278 10.4073 29.3611 9.39369 30.3593 8.44077C31.54 7.44598 32.7374 7.31455 34.2407 7.35358C34.3985 7.35593 34.5564 7.35807 34.7142 7.35999C35.096 7.36546 35.4776 7.37313 35.8593 7.38287C35.8574 7.2571 35.8574 7.2571 35.8554 7.12878C35.8436 6.33741 35.8347 5.54606 35.829 4.75462C35.8259 4.34776 35.8218 3.94096 35.8151 3.53414C35.8075 3.0661 35.8047 2.59813 35.8021 2.13004C35.7991 1.98439 35.7961 1.83874 35.7929 1.68867C35.7929 1.55264 35.7929 1.41661 35.7928 1.27645C35.7909 1.09728 35.7909 1.09728 35.7889 0.914496C35.972 0.0608483 36.6094 -0.0859414 37.3838 -0.0743431Z" fill="#FC4727"/>
</g>
<defs>
<clipPath id="clip0_481_33">
<rect width="60" height="60" fill="white"/>
</clipPath>
</defs>
</svg>
