<svg width="70" height="70" viewBox="0 0 70 70" fill="none" xmlns="http://www.w3.org/2000/svg">
<g clip-path="url(#clip0_435_926)">
<path d="M42.4878 42.1691C42.0632 42.3382 41.6635 42.4948 41.1827 42.6764V39.8263C39.3405 40.791 37.4858 41.3234 35.5062 41.3234C33.5267 41.3234 31.6657 40.8098 29.8048 39.8138C29.8048 40.7033 29.8048 41.4675 29.8048 42.238C29.8048 44.1422 29.1991 44.9691 27.3819 45.5767C27.2945 45.608 27.207 45.6393 27.1196 45.6706C28.968 48.4957 34.2261 51.3708 40.0836 48.8089C39.8588 49.5856 39.6465 50.4563 39.3343 51.2894C39.2531 51.5024 38.8846 51.6903 38.6224 51.7467C33.4143 52.8241 28.9618 51.5024 25.471 47.4183C24.7653 46.5914 24.2221 46.3785 23.1792 46.6979C20.2692 47.5811 17.3217 48.3328 14.3866 49.1283C11.4079 49.9364 9.34716 52.536 9.3097 55.6116C9.27847 58.3489 9.30345 61.0863 9.30345 63.8236C9.30345 63.9865 9.32218 64.1556 9.33467 64.3811H44.7047V67.6635H43.9241C32.0092 67.6635 20.0943 67.6635 8.17316 67.6635C6.52456 67.6635 6 67.131 6 65.4585C6 62.3579 6 59.2509 6 56.1503C6.00624 50.9825 8.97873 47.174 13.962 45.846C17.9586 44.7811 21.9365 43.6536 25.9331 42.57C26.3827 42.4509 26.5763 42.2881 26.5638 41.7932C26.5264 40.672 26.5638 39.5445 26.5388 38.4232C26.5388 38.1789 26.4639 37.8532 26.3015 37.7154C24.2096 35.9615 23.0418 33.6751 22.486 31.0505C22.3611 30.4617 22.1113 30.1861 21.4931 30.0107C20.1942 29.6474 19.3949 28.7078 19.1514 27.3673C18.8828 25.9015 18.6393 24.4357 18.4332 22.9574C18.2459 21.6295 18.683 20.4769 19.7071 19.6187C20.1006 19.2867 20.1255 19.0236 20.0131 18.5726C18.6768 13.361 21.0622 6.527 25.3773 3.28852C25.7645 2.99412 26.3577 2.97533 26.8511 2.81873C27.182 2.71224 27.538 2.63081 27.8315 2.45541C33.6266 -1.10879 39.3405 -0.601409 44.992 2.79993C45.5727 3.15072 46.0286 3.5892 46.116 4.33461C46.141 4.53506 46.3595 4.74177 46.5282 4.89837C49.5069 7.59814 51.1867 10.9556 51.3803 14.9771C51.4427 16.2236 51.1555 17.4952 50.9681 18.7418C50.9119 19.0988 50.9182 19.293 51.2179 19.5436C52.367 20.4957 52.7916 21.7297 52.5418 23.2017C52.317 24.5234 52.1047 25.8514 51.8861 27.1731C51.6363 28.7015 50.7933 29.7163 49.2821 30.0733C48.8012 30.1861 48.6701 30.4679 48.5827 30.8626C48.1081 32.9297 47.3899 34.884 45.9349 36.4939C45.8225 36.6192 45.7101 36.7507 45.5914 36.876C44.8733 37.6653 44.1427 38.442 43.4308 39.2438C42.7001 40.0706 42.4379 41.0729 42.5003 42.1753L42.4878 42.1691ZM32.2278 14.0062C30.6416 15.4156 28.8369 16.0545 26.7637 15.9794C26.5701 15.9731 26.2828 16.255 26.1767 16.4742C25.4398 17.9588 24.7341 19.4559 24.0347 20.9655C23.7287 21.6232 23.3228 22.0241 22.511 21.9176C21.8678 21.8362 21.6367 22.1243 21.7367 22.8008C21.8928 23.8908 22.1113 24.9682 22.2425 26.0581C22.3174 26.7033 22.5422 26.9538 23.2416 26.9288C24.3969 26.8912 24.8528 27.2984 25.165 28.4196C25.4148 29.3154 25.6521 30.2111 25.8831 31.1069C26.4702 33.3556 27.7815 35.0406 29.836 36.1181C31.3847 36.9324 32.8897 37.8594 34.7007 37.9972C37.9729 38.2478 40.5769 36.7194 42.9999 34.7901C44.0053 33.9883 44.6048 32.8357 44.9795 31.5955C45.2542 30.6872 45.4853 29.7601 45.7351 28.8456C46.1785 27.1794 46.3783 27.029 48.0644 26.91C48.2767 26.8975 48.6201 26.6657 48.6514 26.4903C48.9011 25.2438 49.076 23.991 49.2946 22.7382C49.407 22.0805 49.0385 21.855 48.5077 21.9239C47.7833 22.0178 47.3712 21.6858 47.009 21.1283C46.2596 19.957 45.4728 18.8107 44.7234 17.6393C44.5111 17.3073 44.3175 17.2071 43.8991 17.276C40.2522 17.8899 36.8863 17.1445 33.8264 15.0585C33.3081 14.7015 32.7773 14.3695 32.2403 14.0187L32.2278 14.0062ZM23.1167 17.4201C23.66 16.28 24.1034 15.3342 24.5593 14.3946C24.9839 13.5113 25.3149 13.3673 26.3078 13.4926C26.8823 13.5677 27.4693 13.599 28.0438 13.5427C29.2678 13.4174 30.1982 12.7158 31.0475 11.8764C31.7594 11.1686 32.1528 11.1436 32.9771 11.6823C33.7765 12.2022 34.5633 12.7346 35.3564 13.2545C38.0916 15.0523 41.0578 15.5409 44.2301 14.8017C45.2855 14.5574 45.529 14.6451 46.1222 15.5346C46.6406 16.3113 47.1589 17.0943 47.7396 17.9713C47.8333 17.6644 47.8957 17.5078 47.9207 17.3386C48.6014 13.267 47.1838 9.95967 44.2114 7.23483C43.6244 6.69613 42.8875 6.3015 42.7876 5.37443C42.7751 5.24289 42.5253 5.09882 42.3567 5.01738C38.154 2.90016 33.9576 2.49926 29.7861 5.09882C29.0617 5.54982 28.381 6.06973 27.6566 6.51448C27.3319 6.71492 26.9447 6.79635 26.595 6.95295C26.3265 7.07197 26.0018 7.16593 25.8269 7.3789C24.3532 9.1704 23.4727 11.2375 23.0543 13.5113C22.8295 14.7453 22.7733 15.9794 23.1043 17.4075L23.1167 17.4201Z" fill="white"/>
<path d="M51.6742 66.8619C50.4627 67.7765 49.27 68.6597 48.096 69.568C47.6214 69.9375 47.1343 70.1568 46.5535 69.8624C45.9915 69.5742 45.9228 69.0481 45.9228 68.4843C45.9228 65.4087 45.9228 62.3268 45.9228 59.2512C45.9228 58.9881 45.9228 58.7188 45.9228 58.4807C43.9432 57.6038 43.5935 56.9774 43.8058 54.7599C43.8621 54.1648 43.4437 54.1774 43.044 54.1335C41.1706 53.9456 40.0216 52.0226 40.7772 50.3125C40.9395 49.9429 41.1956 49.5733 41.5016 49.3228C42.0136 48.9031 42.0136 48.615 41.514 48.1702C40.3151 47.0991 40.1714 45.3452 41.2767 44.2677C41.7638 43.798 42.507 43.5349 43.1814 43.3407C43.6872 43.1903 43.8933 43.0839 43.7559 42.5201C43.4749 41.3487 43.7746 40.3277 44.7675 39.5948C45.7729 38.8557 46.8408 38.8181 47.9086 39.4758C48.3582 39.7514 48.6455 39.7264 48.8641 39.1877C49.3324 38.0351 50.2067 37.4087 51.4619 37.4087C52.6858 37.4087 53.5413 38.0288 54.0035 39.1563C54.2345 39.7264 54.5218 39.7577 55.0089 39.4633C56.0517 38.8244 57.1008 38.8619 58.0875 39.576C59.0804 40.2964 59.4114 41.3112 59.1366 42.4888C58.993 43.0901 59.1678 43.278 59.7486 43.3282C60.9538 43.4284 61.8156 44.061 62.184 45.2261C62.5587 46.41 62.2652 47.4499 61.2973 48.2579C60.8664 48.615 60.8789 48.8968 61.3035 49.2539C62.2714 50.0557 62.5649 51.108 62.1778 52.2856C61.7969 53.432 60.9601 54.0834 59.7299 54.1586C59.2053 54.1899 58.993 54.3778 59.1179 54.9541C59.4301 56.3948 58.9992 57.3094 57.7815 58.1425C57.5817 58.2803 57.438 58.6436 57.438 58.9004C57.4131 62.0512 57.4193 65.202 57.4256 68.3528C57.4256 68.9604 57.4131 69.5554 56.7948 69.8749C56.1454 70.2132 55.6396 69.8874 55.1337 69.4991C53.9972 68.6221 52.8482 67.7577 51.6804 66.8807L51.6742 66.8619ZM45.9977 55.6244C46.029 55.6995 46.0727 55.9563 46.1601 55.9689C46.3724 56.0065 46.6347 56.0002 46.822 55.9C48.5768 54.9917 50.1255 55.4865 50.956 57.2217C51.0497 57.4158 51.2558 57.5599 51.4119 57.7291C51.5868 57.5537 51.8178 57.4033 51.9177 57.1966C52.7233 55.5116 54.3469 54.9917 56.008 55.8812C56.2016 55.9814 56.4514 55.9751 56.6762 56.019C56.7199 55.7747 56.8323 55.5179 56.7948 55.2924C56.4639 53.4946 57.4505 52.0915 59.249 51.8159C59.4863 51.7783 59.7111 51.6342 59.9422 51.5402C59.8173 51.3022 59.7361 51.0141 59.555 50.8387C58.2873 49.6172 58.2936 47.8507 59.5612 46.623C59.7423 46.4476 59.811 46.1595 59.9359 45.9214C59.7049 45.8275 59.4801 45.6709 59.2428 45.6458C57.5317 45.4516 56.4514 43.9608 56.7761 42.2507C56.8261 42.0002 56.7137 41.7183 56.6762 41.449C56.4326 41.5053 56.1704 41.5179 55.958 41.6306C54.4094 42.4763 52.7233 41.9313 51.9614 40.3465C51.849 40.1147 51.6055 39.9456 51.4244 39.7514C51.2558 39.9331 51.0372 40.0959 50.9373 40.3089C50.1505 41.9438 48.4894 42.4825 46.897 41.6118C46.6909 41.4991 46.4224 41.5116 46.1788 41.4615C46.1476 41.712 46.0477 41.9689 46.0914 42.2006C46.4224 43.9796 45.3733 45.4329 43.606 45.6396C43.375 45.6646 43.1564 45.84 42.9316 45.9465C43.044 46.1657 43.1127 46.4351 43.2813 46.5917C44.5989 47.857 44.6052 49.6109 43.3 50.8512C43.1252 51.0141 43.0502 51.2771 42.9253 51.4901C43.1439 51.5966 43.3562 51.7657 43.5873 51.7971C45.4357 52.0727 46.4161 53.4445 46.0664 55.3049C46.0539 55.3738 46.0352 55.449 46.004 55.6181L45.9977 55.6244ZM55.0775 66.4924C55.0775 63.661 55.09 61.0114 55.0588 58.3617C55.0588 58.1738 54.7778 57.8669 54.5967 57.8418C54.4343 57.823 54.1408 58.0736 54.0534 58.2677C53.5476 59.4141 52.6921 60.0655 51.4556 60.0718C50.2192 60.0718 49.3449 59.4454 48.8453 58.2991C48.7579 58.0986 48.5706 57.9483 48.2958 57.6226V66.4736C49.1763 65.8096 49.9631 65.2082 50.75 64.6194C51.4744 64.0807 51.8615 64.0745 52.5922 64.6194C53.3727 65.1957 54.1408 65.7908 55.0713 66.4986L55.0775 66.4924Z" fill="white"/>
<path d="M63.4955 50.6132C64.5134 52.104 64.963 53.7828 64.9817 55.5617C65.0192 58.9819 65.0067 62.3957 64.988 65.8159C64.988 67.0499 64.3573 67.645 63.1208 67.6575C61.6408 67.67 60.1608 67.6575 58.6309 67.6575V64.4128H61.697C61.697 64.087 61.697 63.8302 61.697 63.5734C61.697 60.7671 61.6783 57.9608 61.6908 55.1483C61.6908 54.9416 61.7907 54.6597 61.9406 54.5344C63.177 53.5134 63.6641 52.2168 63.4955 50.6069V50.6132Z" fill="white"/>
<path d="M51.4617 42.9395C54.6465 42.952 57.2193 45.5328 57.2318 48.7212C57.2443 51.9095 54.5966 54.5592 51.4118 54.5467C48.2582 54.5341 45.6541 51.922 45.6416 48.7462C45.6292 45.5453 48.2519 42.927 51.4617 42.9395ZM51.4367 45.2822C49.5321 45.2822 47.9959 46.8106 47.9772 48.7086C47.9647 50.5878 49.5196 52.1726 51.393 52.1977C53.2977 52.2227 54.8963 50.6254 54.8838 48.7149C54.8713 46.8169 53.3351 45.2885 51.4305 45.2885L51.4367 45.2822Z" fill="white"/>
</g>
<defs>
<clipPath id="clip0_435_926">
<rect width="59" height="70" fill="white" transform="translate(6)"/>
</clipPath>
</defs>
</svg>
